<?xml version="1.0" encoding="UTF-8"?><svg xmlns="http://www.w3.org/2000/svg" width="100%" height="100%"><defs><font id="web" horiz-adv-x="1057"><!--



NOTICE: This font software is the valuable property 
of Webtype LLC, The Font Bureau, Webtype and/or its 
suppliers and its use by you is covered under the terms 
of the Web Font license agreement between you and Webtype 
LLC. You may ONLY use this font software with the licensed 
web site. Except as specifically permitted by the license, 
you may not copy this font software. If you have any 
questions, please contact Webtype.com. 

For more information, please visit http://www.webtype.com/store/license/?id=23

Licensed to: projects.dev|washingtonpost.com

Serial number: SH-1201
--><font-face font-family="" units-per-em="2048" panose-1="2 11 3 4 3 5 3 2 2 4" ascent="1868" descent="-616" alphabetic="0"/><missing-glyph horiz-adv-x="1024" d="M25 1362H997V0H25V1362ZM512 768L842 1266H180L512 768ZM123 186L453 682L123 1178V186ZM569 682L901 184V1178L569 682ZM512 594L180 98H842L512 594Z"/><glyph unicode=" " horiz-adv-x="471"/><glyph unicode="!" horiz-adv-x="549" d="M229 340L156 1366H391L313 340H229ZM170 0V211H379V0H170Z"/><glyph unicode="&quot;" horiz-adv-x="825" d="M500 838L469 1366H631L600 838H500ZM225 838L193 1366H352L326 838H225Z"/><glyph unicode="#" horiz-adv-x="1229" d="M221 0L299 434H80L102 557H319L371 842H152L174 965H393L463 1366H594L522 965H811L883 1366H1012L940 965H1153L1130 842H922L870 557H1081L1059 434H848L772 0H641L719 434H428L350 0H221ZM451 557H739L788 842H502L451 557Z"/><glyph unicode="$" horiz-adv-x="1194" d="M520 -150V41Q444 48 377 71T254 134T158 228T92 352L240 389Q258 344 288 304T361 233T461 186T592 168Q656 168 712 183T811 226T877 297T901 395Q901 457 876 496T804 560T692 603T547 641Q474 659 403 679T274 737T182 838T147 1004Q147 1067 171 1125T242 1229T358 1306T520 1346V1507H643V1343Q731 1335 793 1312T901 1253T976 1174T1028 1079L893 1034Q850 1128 772 1173T565 1219Q498 1219 449 1202T366 1156T317 1086T301 1001Q301 937 335 900T424 840T546 802T682 768Q758 747 825 722T943 657T1023 554T1053 395Q1053 319 1023 257T938 148T809 73T643 39V-150H520Z"/><glyph unicode="%" horiz-adv-x="1475" d="M354 670Q292 670 241 696T154 769T97 881T76 1026Q76 1105 96 1170T152 1281T239 1352T354 1378Q416 1378 468 1352T557 1280T614 1168T635 1024Q635 946 614 881T556 769T467 696T354 670ZM240 0L1096 1366H1231L375 0H240ZM1120 -12Q1058 -12 1006 14T917 86T859 198T838 342Q838 422 858 487T914 598T1002 670T1118 696Q1179 696 1231 670T1320 598T1378 486T1399 342Q1399 264 1378 199T1320 87T1232 14T1120 -12ZM358 784Q430 784 462 845T494 1022Q494 1138 459 1200T354 1262Q319 1262 294 1246T252 1198T227 1124T219 1028Q219 974 227 929T252 852T296 802T358 784ZM1120 102Q1191 102 1224 164T1257 340Q1257 458 1221 520T1114 582Q1079 582 1054 565T1012 517T987 443T979 346Q979 291 987 246T1013 169T1057 120T1120 102Z"/><glyph unicode="&amp;" horiz-adv-x="1366" d="M539 -27Q434 -27 351 0T209 79T119 205T88 373Q88 443 113 500T179 603T276 686T391 756Q351 847 328 929T305 1077Q305 1146 330 1202T400 1298T504 1360T631 1382Q696 1382 752 1362T849 1304T914 1215T938 1102Q938 1027 909 969T832 863T722 778T592 709Q623 651 658 593T733 480T813 375T897 283Q981 371 1037 490T1112 745L1274 717Q1248 556 1179 422T1010 188Q1047 159 1089 147T1163 135Q1186 135 1215 135T1270 139V-6Q1261 -8 1244 -9T1209 -11T1175 -13T1149 -14Q1087 -14 1020 11T891 90Q809 34 720 4T539 -27ZM535 827Q586 853 632 879T714 936T770 1003T791 1087Q791 1120 782 1150T753 1204T706 1241T639 1255Q601 1255 569 1244T514 1211T478 1157T465 1083Q465 1034 484 969T535 827ZM553 115Q613 115 669 132T780 184Q686 277 602 394T451 633Q410 609 375 583T313 524T271 452T256 365Q256 296 276 249T334 172T427 129T553 115Z"/><glyph unicode="'" horiz-adv-x="492" d="M193 838L162 1366H330L301 838H193Z"/><glyph unicode="(" horiz-adv-x="549" d="M479 1366Q351 1168 290 958T229 512Q229 285 292 74T481 -342H377Q228 -147 154 67T80 514Q80 735 153 949T375 1366H479Z"/><glyph unicode=")" horiz-adv-x="549" d="M170 1366Q319 1171 393 957T467 510Q467 289 394 75T172 -342H68Q197 -144 257 66T317 512Q317 739 255 950T66 1366H170Z"/><glyph unicode="*" horiz-adv-x="1071" d="M358 557L223 655L475 928L111 997L164 1155L498 999L449 1366H625L575 999L907 1155L961 997L598 928L848 655L717 557L537 881L358 557Z"/><glyph unicode="+" horiz-adv-x="1194" d="M522 227V614H152V754H522V1141H668V754H1042V614H668V227H522Z"/><glyph unicode="," horiz-adv-x="508" d="M109 -256L231 0H145V227H367V23L217 -256H109Z"/><glyph unicode="-" horiz-adv-x="455" d="M0 537V684H455V537H0Z"/><glyph unicode="." horiz-adv-x="508" d="M141 0V223H365V0H141Z"/><glyph unicode="/" horiz-adv-x="930" d="M-111 -342L713 1366H848L23 -342H-111Z"/><glyph unicode="0" horiz-adv-x="1194" d="M602 -25Q479 -25 383 25T219 168T117 390T82 682Q82 845 117 976T218 1199T380 1341T600 1391Q718 1391 813 1341T974 1198T1076 973T1112 676Q1112 517 1077 388T975 167T814 25T602 -25ZM602 109Q682 109 744 146T850 255T917 434T940 680Q940 815 918 921T853 1101T747 1214T600 1253Q423 1253 339 1110T254 682Q254 547 277 441T346 261T455 148T602 109Z"/><glyph unicode="1" horiz-adv-x="987" d="M143 0V135H451V1139Q432 1117 412 1090T359 1031T279 961T158 883V1059Q214 1090 260 1125T347 1202T423 1290T492 1393H614V135H915V0H143Z"/><glyph unicode="2" horiz-adv-x="1194" d="M102 0V133Q261 251 381 343T588 511T732 647T823 763T871 870T885 981Q885 1037 868 1086T814 1171T722 1228T590 1249Q523 1249 467 1230T368 1173T297 1079T260 950L102 981Q119 1074 158 1149T260 1278T407 1360T596 1389Q704 1389 790 1359T935 1275T1025 1143T1057 971Q1057 874 1012 782T874 590T640 382T309 143H1087V0H102Z"/><glyph unicode="3" horiz-adv-x="1194" d="M590 -25Q376 -25 242 59T59 326L219 356Q237 292 266 246T340 170T445 126T586 111Q671 111 734 132T838 189T899 274T920 379Q920 437 896 485T826 568T710 622T551 641H393V780H551Q710 780 790 841T870 1022Q870 1076 851 1119T794 1191T705 1235T586 1251Q458 1251 375 1193T262 1034L109 1065Q136 1145 181 1206T287 1308T422 1370T582 1391Q695 1391 780 1365T924 1291T1011 1180T1040 1038Q1040 918 973 834T778 719Q850 704 908 674T1007 601T1070 501T1092 377Q1092 292 1059 219T962 91T805 6T590 -25Z"/><glyph unicode="4" horiz-adv-x="1194" d="M741 0V319H59V451L721 1393H901V461H1120V319H901V0H741ZM211 461H741V1206L211 461Z"/><glyph unicode="5" horiz-adv-x="1194" d="M592 -25Q497 -25 416 -3T270 60T158 162T84 299L221 348Q269 226 358 168T586 109Q661 109 723 133T830 203T899 313T924 457Q924 524 904 585T843 691T744 764T606 791Q545 791 496 776T408 735T337 674T279 596L143 627L188 1366H997L983 1219H315L285 760Q306 790 341 819T421 872T519 909T629 924Q735 924 820 890T964 794T1055 647T1087 459Q1087 344 1046 254T937 102T779 8T592 -25Z"/><glyph unicode="6" horiz-adv-x="1149" d="M625 -27Q507 -27 408 17T236 147T123 362T82 659V676Q82 827 117 958T222 1185T396 1337T639 1393Q800 1393 909 1309T1063 1067L911 1040Q874 1144 804 1198T623 1253Q540 1253 470 1219T350 1111T272 922T244 645Q244 643 244 637T245 623T245 610T246 600Q268 672 310 726T406 817T524 872T651 891Q756 891 839 857T979 763T1067 621T1098 442Q1098 344 1063 259T966 110T816 10T625 -27ZM625 106Q692 106 749 128T849 192T914 292T938 424V434Q938 503 918 562T857 664T759 733T625 758Q555 758 497 734T394 669T318 576T272 467Q270 462 270 458T270 449Q279 372 307 309T381 201T488 131T625 106Z"/><glyph unicode="7" horiz-adv-x="1040" d="M977 1253Q839 1086 745 922T594 604T512 309T487 51Q487 36 487 21T489 0H295Q295 11 295 22T297 45Q300 119 317 208T364 395T437 599T536 809T660 1019T809 1219H57L76 1366H977V1253Z"/><glyph unicode="8" horiz-adv-x="1133" d="M569 -25Q455 -25 364 2T207 78T107 195T72 348Q72 418 96 473T163 572T263 649T387 709Q259 764 192 842T125 1040Q125 1112 155 1175T241 1287T379 1363T561 1391Q663 1391 744 1367T883 1298T970 1191T1001 1053Q1001 992 981 944T924 856T838 787T729 733Q801 705 862 672T967 595T1036 494T1061 358Q1061 275 1029 205T934 84T779 4T569 -25ZM584 786Q645 809 695 836T780 895T835 964T854 1047Q854 1149 781 1204T561 1260Q501 1260 451 1246T363 1203T306 1135T285 1044Q285 1002 300 969T344 908T417 857T518 813L584 786ZM569 102Q726 102 813 166T901 350Q901 399 883 437T828 506T734 564T600 618L524 647Q459 623 404 597T308 537T246 457T223 350Q223 294 246 249T313 171T421 120T569 102Z"/><glyph unicode="9" horiz-adv-x="1147" d="M512 473Q417 473 335 500T191 583T96 723T61 920Q61 1008 92 1092T183 1243T332 1350T537 1391Q665 1391 762 1342T923 1205T1020 998T1053 739V733Q1053 559 1017 419T914 181T749 29T530 -25Q357 -25 247 45T86 264L238 291Q256 245 281 211T341 155T425 122T537 111Q612 111 675 146T784 248T857 413T887 635V688Q861 641 819 602T727 534T622 489T512 473ZM528 608Q575 608 624 623T718 666T804 736T872 829V862Q861 1057 773 1156T539 1255Q458 1255 399 1228T301 1154T244 1050T225 930V915Q225 761 302 685T528 608Z"/><glyph unicode=":" horiz-adv-x="508" d="M141 786V1010H365V786H141ZM141 0V225H365V0H141Z"/><glyph unicode=";" horiz-adv-x="508" d="M145 788V1010H362V788H145ZM109 -256L231 0H145V227H362V23L213 -256H109Z"/><glyph unicode="&lt;" horiz-adv-x="1194" d="M1040 160L154 616V750L1040 1206V1055L317 682L1040 311V160Z"/><glyph unicode="=" horiz-adv-x="1194" d="M152 778V918H1042V778H152ZM152 455V594H1042V455H152Z"/><glyph unicode="&gt;" horiz-adv-x="1194" d="M154 162V313L879 684L154 1057V1208L1040 752V618L154 162Z"/><glyph unicode="?" horiz-adv-x="1036" d="M516 1391Q618 1391 699 1363T836 1286T922 1171T952 1030Q952 953 929 896T868 793T779 713T672 647Q595 601 567 531T539 360V342H395V365Q395 422 400 472T422 568T474 655T565 735Q601 759 639 783T709 838T760 912T780 1014Q780 1071 759 1115T701 1190T613 1235T502 1251Q378 1251 299 1177T193 956L43 987Q61 1084 101 1159T201 1285T340 1364T516 1391ZM373 0V201H573V0H373Z"/><glyph unicode="@" horiz-adv-x="1491" d="M766 -195Q598 -195 467 -139T246 15T110 241T63 516Q63 669 119 799T272 1024T499 1173T778 1227Q919 1227 1038 1181T1245 1053T1381 858T1430 612Q1430 509 1405 420T1333 264T1222 159T1079 121Q1052 121 1025 129T977 156T943 202T928 270Q907 237 883 210T828 162T758 130T666 119Q610 119 561 139T473 202T413 307T391 457Q391 544 416 622T489 759T602 854T750 889Q813 889 872 859T965 768L1010 877H1102L1042 410Q1039 381 1036 353T1032 297Q1032 268 1051 251T1102 233Q1143 233 1182 258T1251 331T1300 449T1319 612Q1319 722 1279 814T1165 974T992 1080T774 1118Q654 1118 547 1073T360 947T233 756T186 516Q186 375 228 264T346 76T529 -41T766 -82Q853 -82 922 -71T1047 -43T1147 -5T1227 35L1270 -70Q1157 -128 1035 -161T766 -195ZM682 223Q733 223 776 245T851 307T903 401T930 520Q934 558 935 581T936 620T929 648T913 676Q884 725 845 751T756 778Q704 778 661 754T587 686T539 581T522 444Q522 395 531 355T561 285T611 239T682 223Z"/><glyph unicode="A" horiz-adv-x="1094" d="M6 0L449 1366H645L1090 0H907L778 401H289L160 0H6ZM330 537H737L530 1176L330 537Z"/><glyph unicode="B" horiz-adv-x="1237" d="M170 1366H713Q812 1366 885 1341T1007 1271T1080 1167T1104 1042Q1104 917 1048 839T870 723Q924 714 975 690T1066 626T1130 527T1155 389Q1155 307 1129 236T1046 113T896 30T672 0H170V1366ZM340 137H705Q780 137 833 153T919 202T967 281T983 389Q983 446 964 493T907 573T811 624T678 643H340V137ZM340 778H664Q727 778 777 792T862 835T917 907T936 1006Q936 1108 871 1164T678 1221H340V778Z"/><glyph unicode="C" horiz-adv-x="1186" d="M633 -23Q510 -23 409 23T237 159T126 377T86 674Q86 848 129 982T248 1208T424 1346T641 1393Q836 1393 965 1287T1145 954L981 920Q961 1007 930 1068T857 1167T762 1223T643 1241Q559 1241 490 1205T371 1097T295 919T268 674Q268 535 296 431T373 257T491 152T639 117Q712 117 769 140T869 206T941 313T985 457L1141 426Q1091 196 962 87T633 -23Z"/><glyph unicode="D" horiz-adv-x="1325" d="M170 1366H629Q753 1366 856 1331T1036 1225Q1087 1180 1125 1121T1188 993T1226 847T1239 686Q1239 540 1198 415T1079 197T894 53T651 0H170V1366ZM340 139H618Q717 139 799 175T941 282T1034 453T1067 682Q1067 806 1035 906T943 1076T802 1183T618 1221H340V139Z"/><glyph unicode="E" horiz-adv-x="1122" d="M170 0V1366H1034V1219H340V780H858V641H340V141H1053V0H170Z"/><glyph unicode="F" horiz-adv-x="1040" d="M170 0V1366H1006V1221H340V782H831V643H340V0H170Z"/><glyph unicode="G" horiz-adv-x="1325" d="M645 -23Q515 -23 412 22T236 157T125 377T86 680Q86 846 125 978T239 1202T425 1343T678 1393Q1059 1393 1169 995L1004 954Q988 1018 958 1071T885 1163T787 1223T666 1245Q567 1245 493 1207T368 1097T293 921T268 686Q268 541 295 434T372 256T495 150T657 115Q734 115 798 139T910 209T983 317T1010 459Q1010 471 1010 482T1009 502Q1008 512 1008 520H670V659H1182V-2H1077L1032 152Q963 60 870 19T645 -23Z"/><glyph unicode="H" horiz-adv-x="1315" d="M170 0V1366H340V801H975V1366H1145V0H975V649H340V0H170Z"/><glyph unicode="I" horiz-adv-x="514" d="M172 0V1366H342V0H172Z"/><glyph unicode="J" horiz-adv-x="760" d="M238 -27Q156 -27 95 -20T2 -4V137Q18 133 35 130T76 123T130 119T205 117Q262 117 302 130T369 173T407 253T420 375V1366H590V389Q590 269 564 190T487 59Q444 17 384 -5T238 -27Z"/><glyph unicode="K" horiz-adv-x="1286" d="M170 0V1366H340V582L963 1366H1143L733 842L1249 0H1061L625 717L340 365V0H170Z"/><glyph unicode="L" horiz-adv-x="1001" d="M170 0V1366H340V147H973V0H170Z"/><glyph unicode="M" horiz-adv-x="1657" d="M170 0V1366H424L834 281L1237 1366H1487V0H1325V1204L881 0H762L319 1204V0H170Z"/><glyph unicode="N" horiz-adv-x="1346" d="M170 0V1366H385L981 381Q986 373 994 358T1010 326Q1019 308 1028 287Q1027 302 1027 322T1026 366T1026 414T1026 459V1366H1178V0H1012L377 1053Q371 1061 362 1078T342 1112Q331 1132 319 1155Q321 1099 321 1066T322 1004V0H170Z"/><glyph unicode="O" horiz-adv-x="1292" d="M645 -27Q520 -27 418 21T241 161T127 384T86 682Q86 848 128 979T244 1203T421 1344T645 1393Q769 1393 872 1345T1050 1204T1165 980T1206 682Q1206 524 1165 394T1049 170T871 25T645 -27ZM645 113Q734 113 805 152T925 265T1001 444T1028 682Q1028 815 1004 920T933 1098T813 1210T645 1249Q550 1249 479 1209T360 1095T288 916T264 682Q264 539 294 433T375 255T496 149T645 113Z"/><glyph unicode="P" horiz-adv-x="1145" d="M170 0V1366H653Q764 1366 847 1339T986 1262T1070 1140T1098 977Q1098 888 1069 817T984 695T849 618T672 590H340V0H170ZM340 729H655Q718 729 768 745T853 793T907 869T926 971Q926 1028 908 1074T855 1153T774 1203T668 1221H340V729Z"/><glyph unicode="Q" horiz-adv-x="1303" d="M961 -328Q889 -328 832 -309T736 -254T675 -165T653 -45V-23Q580 -21 510 -3T376 52T260 145T168 280T108 460T86 688Q86 851 125 982T237 1204T416 1344T653 1393Q781 1393 884 1344T1060 1202T1172 980T1212 686Q1212 555 1185 443T1105 243T974 93T793 0V-27Q793 -66 803 -97T838 -150T901 -183T999 -195Q1028 -195 1060 -192T1130 -182V-303Q1084 -315 1042 -321T961 -328ZM649 119Q733 119 802 153T922 256T1000 432T1028 682Q1028 816 1006 921T936 1098T818 1209T649 1247Q565 1247 494 1219T372 1126T293 952T264 684Q264 549 289 444T362 267T483 157T649 119Z"/><glyph unicode="R" horiz-adv-x="1255" d="M170 0V1366H707Q809 1366 888 1338T1022 1260T1104 1143T1133 997Q1133 937 1116 883T1067 784T986 708T874 662L1151 0H979L719 633Q662 630 624 630T551 629H334V0H170ZM334 768H684Q823 768 892 828T961 999Q961 1103 895 1158T707 1214H334V768Z"/><glyph unicode="S" horiz-adv-x="1143" d="M588 -23Q477 -23 388 -1T229 65T110 173T25 324L170 381Q194 319 228 270T313 187T432 135T590 117Q665 117 725 132T828 178T892 253T915 356Q915 420 887 463T809 536T688 589T532 635Q438 659 357 689T217 765T124 875T90 1030Q90 1113 124 1180T219 1294T364 1367T547 1393Q740 1393 868 1306T1047 1057L889 1008Q874 1065 843 1110T767 1187T666 1234T545 1251Q480 1251 428 1236T338 1193T281 1129T260 1049Q260 992 280 952T345 881T463 825T641 772Q749 743 831 709T970 629T1054 520T1083 371Q1083 280 1050 207T952 83T797 5T588 -23Z"/><glyph unicode="T" horiz-adv-x="993" d="M412 0V1221H20V1366H973V1221H582V0H412Z"/><glyph unicode="U" horiz-adv-x="1262" d="M639 -23Q525 -23 436 7T286 98T194 253T162 471V1366H332V471Q332 295 406 207T639 119Q721 119 781 143T880 212T937 323T956 471V1366H1110V471Q1110 351 1076 259T980 104T831 9T639 -23Z"/><glyph unicode="V" horiz-adv-x="1108" d="M473 0L12 1366H193L528 371Q529 365 535 345T548 302T561 256T569 223Q571 233 577 254T591 299T604 342T614 371L944 1366H1100L639 0H473Z"/><glyph unicode="W" horiz-adv-x="1649" d="M375 0L31 1366H201L449 379L477 260L508 375L772 1366H911L1190 362L1217 258L1241 362L1470 1366H1626L1296 0H1124L860 965L836 1053L811 965L549 0H375Z"/><glyph unicode="X" horiz-adv-x="1065" d="M4 0L440 711L51 1366H248L508 936L541 868L580 934L842 1366H1006L623 737L1061 0H864L555 518L520 584L485 520L166 0H4Z"/><glyph unicode="Y" horiz-adv-x="1042" d="M436 0V575L-23 1366H168L461 854L535 719L608 854L907 1366H1065L608 575V0H436Z"/><glyph unicode="Z" horiz-adv-x="1067" d="M55 0V145L797 1223H90V1366H995V1247L246 141H1018V0H55Z"/><glyph unicode="[" horiz-adv-x="549" d="M137 -342V1366H492V1264H295V-231H492V-342H137Z"/><glyph unicode="\" horiz-adv-x="930" d="M905 -342L82 1366H215L1040 -342H905Z"/><glyph unicode="]" horiz-adv-x="549" d="M57 -342V-240H254V1255H57V1366H412V-342H57Z"/><glyph unicode="^" horiz-adv-x="1194" d="M135 745L496 1370H698L1059 745H893L596 1247L301 745H135Z"/><glyph unicode="_" horiz-adv-x="1024" d="M0 -276V-154H1024V-276H0Z"/><glyph unicode="`" horiz-adv-x="1024" d="M649 1094L274 1233L340 1366L694 1188L649 1094Z"/><glyph unicode="a" horiz-adv-x="1079" d="M395 -12Q328 -12 270 5T168 58T99 145T74 266Q74 348 109 410T208 516T359 587T551 627Q613 635 666 636T780 639Q780 665 780 690T776 733Q771 775 756 806T712 859T637 892T528 903Q467 903 420 894T339 865T281 811T246 729L98 745Q126 885 239 956T532 1028Q640 1028 715 1006T838 937T908 821T930 655V197Q930 149 935 99T952 0H801Q796 13 792 34T786 79T782 127T782 170Q752 128 715 95T630 38T524 1T395 -12ZM442 104Q514 104 570 124T667 175T736 247T780 326V535Q726 535 673 534T571 526Q406 505 323 442T240 283Q240 195 290 150T442 104Z"/><glyph unicode="b" horiz-adv-x="1092" d="M618 -14Q504 -14 423 33T293 168L242 0H154V1366H305V817Q324 859 357 897T432 964T525 1010T631 1028Q721 1028 792 995T913 895T988 732T1014 508Q1014 377 985 280T903 117T777 19T618 -14ZM588 100Q717 100 783 196T850 504Q850 901 594 901Q538 901 494 883T416 833T355 761T307 676V432Q307 353 328 291T386 187T475 122T588 100Z"/><glyph unicode="c" horiz-adv-x="954" d="M510 -16Q417 -16 338 18T200 120T109 285T76 510Q76 620 106 714T193 879T327 988T502 1028Q664 1028 763 939T897 664L748 645Q729 770 669 835T504 901Q443 901 395 875T314 798T262 674T244 506Q244 401 265 325T322 200T407 126T514 102Q614 102 673 159T756 342L895 328Q882 242 849 178T765 71T650 6T510 -16Z"/><glyph unicode="d" horiz-adv-x="1100" d="M463 -16Q371 -16 300 18T179 119T104 281T78 502Q78 614 106 710T188 877T318 988T492 1028Q549 1028 596 1013T679 976T743 925T788 872V1366H942V0H793V154Q733 70 654 27T463 -16ZM506 104Q563 104 607 120T686 164T745 229T786 309V721Q767 757 744 790T688 848T614 888T516 903Q379 903 312 800T244 502Q244 397 261 322T312 198T394 127T506 104Z"/><glyph unicode="e" horiz-adv-x="1053" d="M541 -16Q437 -16 352 20T206 123T112 281T78 487Q78 615 114 715T214 885T362 991T545 1028Q644 1028 722 994T855 897T943 748T983 555Q985 538 984 521T985 487H240Q243 296 325 200T555 104Q597 104 636 114T711 147T776 209T827 303L967 283Q914 136 803 60T541 -16ZM823 596Q811 743 739 825T545 907Q484 907 432 885T339 823T275 725T246 596H823Z"/><glyph unicode="f" horiz-adv-x="563" d="M170 0V889H-8V1010H170V1110Q170 1260 249 1332T487 1405Q502 1405 521 1404T560 1402T599 1398T633 1393V1266Q617 1268 598 1270T561 1273T526 1275T500 1276Q407 1276 368 1234T328 1106V1010H573V889H328V0H170Z"/><glyph unicode="g" horiz-adv-x="1006" d="M528 -381Q293 -381 173 -319T53 -139Q53 -64 105 -10T250 68Q172 89 139 131T106 231Q106 263 118 290T152 340T203 378T266 403Q192 442 156 515T119 682Q119 760 149 823T231 932T351 1003T496 1028Q553 1028 606 1016T707 979Q716 1021 732 1054T777 1110T849 1146T958 1157H983L985 1024Q976 1026 968 1027T950 1028Q912 1029 884 1022T837 999T806 963T788 913Q829 878 855 819T881 682Q881 607 856 544T783 434T667 362T512 336Q487 336 464 338T420 343T386 349T365 354Q345 354 325 347T289 327T264 296T254 254Q254 220 277 202T343 174T447 163T586 158Q706 156 789 142T924 98T999 25T1022 -82Q1022 -148 991 -203T898 -297T744 -359T528 -381ZM504 442Q612 442 671 503T731 680Q731 726 717 768T675 842T604 894T504 913Q448 913 405 895T334 846T291 772T276 682Q276 623 292 578T339 503T411 458T504 442ZM516 -274Q600 -274 666 -262T777 -227T846 -173T870 -102Q870 -77 863 -58T834 -24T776 0T680 16T538 26T340 33Q310 24 284 12T240 -19T210 -62T199 -121Q199 -157 217 -185T273 -233T371 -263T516 -274Z"/><glyph unicode="h" horiz-adv-x="1112" d="M154 0V1366H307V811Q332 850 367 889T450 958T555 1008T684 1028Q761 1028 814 1005T900 940T948 844T963 727V0H803V715Q803 808 760 851T639 895Q586 895 541 880T455 838T380 773T313 690V0H154Z"/><glyph unicode="i" horiz-adv-x="473" d="M150 1188V1368H324V1188H150ZM158 0V1010H317V0H158Z"/><glyph unicode="j" horiz-adv-x="471" d="M145 1188V1368H324V1188H145ZM27 -369Q-8 -369 -49 -365T-125 -354V-229Q-93 -232 -62 -234T6 -236Q57 -236 86 -219T131 -172T151 -98T156 -4V1010H315V-51Q315 -138 294 -198T236 -297T145 -352T27 -369Z"/><glyph unicode="k" horiz-adv-x="1022" d="M154 0V1366H311V575L309 477L367 549L784 1010H950L645 674L981 0H809L537 553L311 311V0H154Z"/><glyph unicode="l" horiz-adv-x="473" d="M158 0V1366H317V0H158Z"/><glyph unicode="m" horiz-adv-x="1661" d="M154 0V1010H307V807Q329 844 364 883T444 955T539 1007T645 1028Q757 1028 823 969T899 801Q925 842 960 882T1039 955T1135 1006T1247 1026Q1326 1026 1378 997T1462 911Q1485 876 1499 828T1513 717V0H1356V707Q1356 806 1316 849T1202 893Q1155 893 1113 876T1033 830T964 765T909 690V0H754V709Q754 800 716 848T604 897Q560 897 522 883T448 843T379 779T311 692V0H154Z"/><glyph unicode="n" horiz-adv-x="1110" d="M154 0V1010H305V809Q331 846 367 885T451 956T555 1008T680 1028Q961 1028 961 715V0H801V717Q801 808 761 851T633 895Q585 895 541 881T456 839T380 775T313 692V0H154Z"/><glyph unicode="o" horiz-adv-x="1061" d="M528 -16Q430 -16 348 21T205 127T110 293T76 510Q76 628 112 724T209 887T353 991T528 1028Q632 1028 716 991T860 885T952 721T985 508Q985 389 949 292T850 127T705 21T528 -16ZM526 102Q588 102 641 127T734 204T795 331T817 510Q817 608 795 682T735 805T643 878T526 903Q466 903 415 878T325 803T266 679T244 508Q244 413 264 338T321 210T410 130T526 102Z"/><glyph unicode="p" horiz-adv-x="1090" d="M627 -14Q571 -14 524 -2T437 31T366 78T311 133V-342H154V1010H305V831Q328 868 359 903T430 966T520 1011T631 1028Q715 1028 785 998T906 904T984 741T1012 506Q1012 378 980 281T895 118T773 19T627 -14ZM584 102Q644 102 692 123T774 193T827 317T846 502Q846 704 785 800T594 897Q506 897 436 849T311 694V268Q331 240 356 211T413 157T487 118T584 102Z"/><glyph unicode="q" horiz-adv-x="1098" d="M473 -14Q386 -14 313 18T188 114T107 274T78 500Q78 611 107 707T190 873T322 984T498 1024Q558 1024 605 1010T690 973T757 920T807 858L866 1010H942V-342H786V166Q760 119 725 85T650 29T564 -3T473 -14ZM514 100Q568 100 617 119T703 175T762 267T786 395V705Q768 746 745 782T689 845T614 887T516 903Q454 903 404 877T317 801T262 676T242 504Q242 300 314 200T514 100Z"/><glyph unicode="r" horiz-adv-x="686" d="M154 0V1010H305V793Q330 837 364 879T440 955T530 1008T633 1028Q647 1028 657 1028T680 1026V881Q671 883 658 883T635 883Q545 883 461 825T313 659V0H154Z"/><glyph unicode="s" horiz-adv-x="940" d="M473 -16Q280 -16 164 58T10 272L154 301Q166 256 193 220T260 157T354 117T473 102Q533 102 581 115T662 151T713 208T731 281Q731 326 708 355T645 403T554 434T446 459Q369 474 300 493T179 544T97 626T66 750Q66 812 93 863T169 951T287 1008T440 1028Q525 1028 593 1010T711 959T796 877T850 770L709 739Q680 820 612 863T440 907Q389 907 348 897T276 868T230 822T213 760Q213 718 234 692T294 649T383 619T496 594Q573 579 642 559T764 505T848 421T879 295Q879 225 850 168T768 70T640 7T473 -16Z"/><glyph unicode="t" horiz-adv-x="631" d="M436 -14Q372 -14 323 2T239 54T186 145T168 279V883H4V1010H170L178 1274H324V1010H551V883H324V270Q324 190 362 154T465 115Q500 115 540 118T608 127V2Q566 -6 522 -10T436 -14Z"/><glyph unicode="u" horiz-adv-x="1098" d="M461 -16Q393 -16 336 2T237 62T173 170T150 332V1010H309V328Q309 208 356 156T510 104Q595 104 666 152T788 293V1010H946V0H799V172Q739 75 651 30T461 -16Z"/><glyph unicode="v" horiz-adv-x="897" d="M367 0L4 1010H172L399 358Q408 334 417 306T435 252T450 205T459 172Q463 182 470 204T485 252T503 306T522 356L758 1010H897L528 0H367Z"/><glyph unicode="w" horiz-adv-x="1343" d="M317 0L12 1010H174L375 319L397 227L422 319L614 1010H745L952 313L975 223L1001 309L1198 1010H1335L1034 0H899L694 684L670 776L649 688L453 0H317Z"/><glyph unicode="x" horiz-adv-x="940" d="M27 0L381 528L51 1010H231L442 700L469 659L496 700L707 1010H860L547 545L922 0H745L481 377L459 414L438 377L182 0H27Z"/><glyph unicode="y" horiz-adv-x="881" d="M68 -225Q152 -225 216 -199T318 -124T362 -6T336 147L4 1010H176L426 350L467 221L508 350L741 1010H883L498 -72Q475 -139 440 -191T354 -280T234 -335T72 -354L68 -225Z"/><glyph unicode="z" horiz-adv-x="897" d="M68 0V94L641 887H109V1010H842V922L262 123H850V0H68Z"/><glyph unicode="{" horiz-adv-x="561" d="M479 -342Q401 -342 343 -327T245 -278T187 -187T168 -49V279Q168 319 163 350T144 403T108 441T51 465V563Q117 580 142 624T168 743V1098Q168 1235 246 1300T479 1366Q486 1365 492 1365Q497 1364 503 1364T514 1364V1260H492Q400 1260 363 1218T326 1081V735Q326 681 314 644T282 582T236 541T180 510Q214 493 241 473T287 425T316 362T326 281V-51Q326 -152 362 -194T483 -236H514V-340Q503 -340 497 -341T479 -342Z"/><glyph unicode="|" horiz-adv-x="420" d="M137 -342V1366H283V-342H137Z"/><glyph unicode="}" horiz-adv-x="561" d="M45 -236H76Q160 -236 196 -194T233 -51V281Q233 327 243 362T271 424T317 472T379 510Q350 524 324 540T277 582T245 644T233 735V1081Q233 1176 196 1218T68 1260H45V1364Q61 1366 77 1367T113 1368Q250 1368 320 1298T391 1098V743Q391 668 416 624T508 563V465Q474 456 452 441T416 404T397 350T391 279V-49Q391 -131 372 -187T314 -277T217 -327T80 -342Q69 -342 63 -341T45 -340V-236Z"/><glyph unicode="~" horiz-adv-x="1194" d="M801 545Q748 545 694 566T585 611T479 657T379 678Q334 678 302 660T249 618T214 568T195 530Q177 538 160 548Q146 556 131 567T104 590Q131 647 160 691T222 766T296 811T385 827Q423 827 461 817T535 793T608 761T678 729T746 704T811 694Q856 694 890 715T949 762Q977 792 997 831Q1015 823 1032 814Q1046 806 1062 797T1090 776Q1061 722 1032 680T968 607T893 561T801 545Z"/><glyph unicode=" " horiz-adv-x="1194"/><glyph unicode="¡" horiz-adv-x="549" d="M170 799V1010H379V799H170ZM156 -342L233 684H317L391 -342H156Z"/><glyph unicode="¢" horiz-adv-x="1194" d="M551 -55V223Q471 232 405 266T292 361T219 506T193 702Q193 803 220 886T294 1032T407 1133T551 1182V1423H662V1180Q722 1171 773 1149T866 1089T937 994T985 862L842 842Q832 889 812 929T763 999T693 1046T602 1063Q545 1063 499 1036T420 959T370 844T352 700Q352 618 368 552T416 439T495 367T604 342Q697 342 761 399T848 563L985 545Q951 407 868 326T662 225V-55H551Z"/><glyph unicode="£" horiz-adv-x="1194" d="M35 141Q60 141 85 142T133 147Q275 170 345 253T416 489Q416 518 411 559T399 647H174V768H385Q379 805 372 857T365 993Q367 1081 395 1154T472 1281T590 1365T743 1395Q791 1395 836 1384T924 1348T1003 1286T1069 1196L946 1124Q922 1157 901 1181T855 1221T804 1245T741 1253Q702 1253 665 1237T600 1190T554 1117T537 1022Q537 963 543 899T557 768H854V647H571Q578 582 578 532T578 446Q578 413 567 369T529 280T460 197T354 137Q362 138 384 139T436 141T501 143T573 144Q657 145 758 145Q808 146 848 152T922 174T983 217T1034 287L1159 225Q1131 170 1093 128T1004 58T887 15T735 0H35V141Z"/><glyph unicode="¤" horiz-adv-x="1194" d="M905 319L829 395Q780 360 721 341T596 322Q531 322 473 340T365 393L289 319L190 416L266 492Q231 541 212 600T193 725Q193 790 212 849T266 958L190 1034L289 1133L365 1055Q414 1090 472 1109T596 1128Q661 1128 719 1109T827 1055L905 1133L1004 1034L926 956Q961 908 980 849T999 725Q999 660 980 602T926 494L1004 416L905 319ZM866 725Q866 782 845 831T788 918T703 976T596 997Q539 997 490 976T404 918T347 832T326 725Q326 668 347 619T404 532T489 474T596 453Q653 453 702 474T788 532T845 618T866 725Z"/><glyph unicode="¥" horiz-adv-x="1194" d="M516 0V455H102V571H514L422 733H102V848H356L55 1366H242L610 713L987 1366H1141L844 848H1094V733H776L684 571H1094V455H680V0H516Z"/><glyph unicode="¦" horiz-adv-x="420" d="M137 682V1366H283V682H137ZM137 -342V313H283V-342H137Z"/><glyph unicode="§" horiz-adv-x="1194" d="M629 -342Q546 -342 471 -329T331 -283T216 -194T131 -51L270 -12Q291 -71 328 -112T412 -178T510 -214T612 -225Q687 -225 742 -209T833 -164T887 -96T905 -10Q905 62 855 108T690 182Q582 210 488 238T323 303T213 394T172 528Q172 630 223 700T379 827Q337 852 305 877T250 931T217 996T205 1079Q205 1148 230 1205T306 1303T431 1366T608 1389Q674 1389 735 1372T847 1320T937 1236T997 1122L860 1081Q822 1164 754 1215T578 1266Q466 1266 413 1219T360 1094Q360 1055 380 1025T434 971T513 928T610 893Q623 889 652 880T710 861Q744 850 784 836Q841 816 887 790T967 727T1018 646T1036 545Q1036 514 1025 478T992 407T935 340T852 287Q964 245 1013 173T1063 -4Q1063 -76 1033 -137T947 -244T810 -316T629 -342ZM725 328Q796 365 838 415T881 518Q881 545 877 567T860 608T822 644T753 681T646 722T492 772Q452 753 420 729T366 678T331 623T319 569Q319 544 324 522T345 480T388 441T461 404T571 367T725 328Z"/><glyph unicode="¨" horiz-adv-x="1024" d="M672 1116Q649 1116 630 1124T596 1146T574 1178T565 1219Q565 1240 573 1258T595 1289T629 1311T670 1319Q693 1319 712 1311T746 1289T769 1257T778 1219Q778 1196 770 1178T747 1145T713 1124T672 1116ZM350 1116Q330 1116 312 1123T279 1145T257 1177T248 1219Q248 1239 256 1257T278 1289T310 1311T348 1319Q372 1319 391 1311T425 1289T447 1257T455 1219Q455 1174 425 1145T350 1116Z"/><glyph unicode="©" horiz-adv-x="1645" d="M823 -20Q660 -20 530 30T308 173T167 395T117 682Q117 828 170 956T317 1179T541 1329T823 1384Q924 1384 1016 1359T1186 1289T1327 1179T1434 1037T1502 869T1526 682Q1526 584 1502 494T1434 326T1327 185T1186 76T1016 5T823 -20ZM823 78Q955 78 1066 125T1256 253T1380 445T1425 682Q1425 807 1381 917T1257 1109T1066 1238T823 1286Q691 1286 580 1239T388 1109T262 917T217 682Q217 547 259 436T379 245T570 122T823 78ZM829 260Q745 260 679 293T568 384T499 516T475 676Q475 780 501 860T575 995T688 1078T831 1106Q962 1106 1042 1040T1157 836L1036 813Q1007 911 961 952T836 993Q732 993 672 915T612 676Q612 602 628 544T674 447T742 386T829 365Q875 365 908 378T966 416T1008 477T1038 559L1157 535Q1119 394 1039 327T829 260Z"/><glyph unicode="ª" horiz-adv-x="797" d="M315 752Q266 752 226 765T156 803T110 863T94 944Q94 993 118 1031T186 1096T292 1137T430 1151H532Q532 1165 531 1178T528 1204Q520 1255 488 1281T383 1307Q309 1307 270 1279T215 1196L109 1214Q127 1304 198 1347T385 1391Q461 1391 511 1375T592 1326T634 1248T647 1141V887Q647 845 652 817T664 766H545Q540 786 539 809T535 848Q499 798 445 775T315 752ZM344 836Q386 836 421 852T482 894T522 955T537 1024V1065Q523 1065 511 1066T485 1067Q420 1067 370 1061T286 1038T235 995T217 928Q217 910 224 894T248 865T288 844T344 836Z"/><glyph unicode="«" horiz-adv-x="743" d="M580 240L365 532L580 815H690L522 532L690 240H580ZM274 240L61 532L274 815H385L217 532L385 240H274Z"/><glyph unicode="¬" horiz-adv-x="1194" d="M1042 414H897V778H152V918H1042V414Z"/><glyph unicode="®" horiz-adv-x="1034" d="M518 504Q426 504 346 538T207 632T113 772T78 944Q78 1035 112 1114T206 1253T346 1347T518 1382Q609 1382 688 1348T827 1254T921 1115T956 944Q956 852 922 772T828 633T689 539T518 504ZM518 580Q593 580 657 608T769 686T843 801T870 944Q870 1019 844 1085T770 1201T658 1280T518 1309Q442 1309 378 1280T266 1202T193 1086T166 944Q166 868 192 802T266 686T377 609T518 580ZM326 717V1171H553Q640 1171 687 1134T735 1030Q735 949 647 911L731 717H618L549 887H428V717H326ZM428 973H565Q594 973 607 989T621 1026Q621 1048 606 1065T565 1083H428V973Z"/><glyph unicode="¯" horiz-adv-x="1024" d="M201 1167V1278H821V1167H201Z"/><glyph unicode="°" horiz-adv-x="707" d="M354 1393Q409 1393 458 1372T545 1315T603 1229T625 1122Q625 1067 604 1017T545 930T457 870T348 848Q294 848 246 869T161 928T103 1015T82 1122Q82 1178 103 1227T160 1313T247 1371T354 1393ZM352 1288Q318 1288 290 1275T241 1238T209 1183T197 1118Q197 1086 209 1057T241 1005T288 969T348 956Q385 956 415 969T466 1006T498 1059T510 1122Q510 1155 498 1185T465 1238T415 1274T352 1288Z"/><glyph unicode="±" horiz-adv-x="1194" d="M668 227H522V614H152V754H522V1141H668V754H1042V614H668V227ZM1042 0H152V139H1042V0Z"/><glyph unicode="²" horiz-adv-x="879" d="M112 813V913Q239 1003 331 1070T483 1190T571 1289T600 1382Q600 1460 560 1501T438 1542Q353 1542 300 1502T227 1372L110 1399Q171 1649 442 1649Q513 1649 567 1630T659 1576T716 1495T735 1393Q735 1332 700 1271T603 1151T458 1036T280 928H762L764 813H112Z"/><glyph unicode="³" horiz-adv-x="838" d="M407 799Q154 799 67 1008L178 1042Q192 1004 210 977T255 932T318 906T405 897Q502 897 554 938T606 1044Q606 1109 549 1148T383 1188H278V1288H383Q573 1288 573 1421Q573 1448 561 1471T526 1512T472 1540T401 1550Q260 1550 205 1419L98 1450Q141 1549 218 1599T401 1649Q468 1649 522 1632T615 1585T673 1513T694 1423Q694 1391 683 1364T654 1313T609 1273T553 1245Q589 1237 620 1219T676 1175T713 1116T727 1042Q727 991 705 947T640 869T539 818T407 799Z"/><glyph unicode="´" horiz-adv-x="1024" d="M379 1098L334 1194L688 1370L754 1237L379 1098Z"/><glyph unicode="µ" horiz-adv-x="1098" d="M946 0H799V172Q739 75 651 30T461 -16Q363 -16 309 29V-276H150V1010H309V328Q309 208 356 156T510 104Q595 104 666 152T788 293V1010H946V0Z"/><glyph unicode="¶" horiz-adv-x="1014" d="M561 -342V612Q502 612 449 623Q365 638 302 672T195 755T131 864T109 989Q109 1080 139 1150T227 1269T365 1341T549 1366H858V-342H760V1270H657V-342H561Z"/><glyph unicode="·" horiz-adv-x="508" d="M141 582V805H365V582H141Z"/><glyph unicode="¸" horiz-adv-x="1024" d="M489 -373Q452 -373 425 -370T376 -362T337 -350T305 -336L330 -270Q358 -280 392 -288T479 -297Q517 -297 546 -279T575 -223Q575 -212 571 -201T555 -180T525 -166T477 -160Q446 -160 419 -163T383 -168L438 0H520L492 -94Q497 -92 505 -91T522 -90Q563 -90 592 -100T640 -128T667 -168T676 -215Q676 -244 666 -272T634 -323T577 -359T489 -373Z"/><glyph unicode="¹" horiz-adv-x="786" d="M155 813V920H383V1483Q346 1448 292 1409T151 1329V1450Q183 1467 215 1485T281 1527T346 1580T411 1649H502V920H706V813H155Z"/><glyph unicode="º" horiz-adv-x="797" d="M395 745Q325 745 271 769T180 836T124 940T104 1071Q104 1145 126 1204T188 1304T281 1368T395 1391Q464 1391 519 1367T612 1300T671 1198T692 1069Q692 997 670 938T607 835T513 769T395 745ZM395 840Q473 840 518 898T563 1071Q563 1186 517 1241T397 1296Q325 1296 279 1240T233 1069Q233 955 277 898T395 840Z"/><glyph unicode="»" horiz-adv-x="743" d="M358 240L526 532L358 815H469L682 532L469 240H358ZM53 240L221 532L53 815H164L379 532L164 240H53Z"/><glyph unicode="¼" horiz-adv-x="1878" d="M1540 0V190H1120V283L1516 836H1657V293H1794V190H1657V0H1540ZM139 555V662H367V1225Q348 1207 326 1189T275 1151T213 1112T135 1071V1192Q167 1209 199 1227T265 1269T330 1322T395 1391H485V662H690V555H139ZM1542 289V719L1235 289H1542ZM571 0L1354 1391H1477L694 0H571Z"/><glyph unicode="½" horiz-adv-x="1878" d="M119 555V662H346V1225Q309 1190 255 1152T115 1071V1192Q147 1209 179 1227T245 1269T310 1322T375 1391H465V662H670V555H119ZM500 0L1282 1391H1405L623 0H500ZM1128 0V98Q1255 189 1347 255T1499 375T1587 474T1616 567Q1616 645 1576 686T1454 727Q1370 727 1317 687T1243 557L1126 586Q1157 711 1239 773T1458 836Q1530 836 1584 817T1676 763T1732 682T1751 580Q1751 519 1716 458T1619 338T1474 222T1296 113H1778V0H1128Z"/><glyph unicode="¾" horiz-adv-x="1878" d="M391 541Q138 541 51 750L162 784Q176 746 194 719T239 674T302 648T389 639Q486 639 538 680T590 786Q590 851 533 890T367 930H262V1030H367Q557 1030 557 1163Q557 1190 545 1213T510 1254T455 1282T385 1292Q244 1292 188 1161L82 1192Q125 1291 202 1341T385 1391Q452 1391 506 1374T599 1327T657 1255T678 1165Q678 1133 667 1106T637 1055T593 1015T537 987Q573 979 604 961T660 917T697 858T711 784Q711 733 689 689T624 611T523 560T391 541ZM1561 0V190H1141V283L1536 836H1677V293H1815V190H1677V0H1561ZM1253 289H1563V719L1253 289ZM543 0L1325 1391H1448L666 0H543Z"/><glyph unicode="¿" horiz-adv-x="1036" d="M666 1012V811H465V1012H666ZM522 -379Q421 -379 340 -352T203 -276T116 -162T86 -20Q86 56 108 114T168 216T255 295T356 360Q399 385 427 414T471 480T493 558T500 651V670H643V649Q643 592 638 541T616 445T565 357T473 276Q438 252 400 228T329 171T277 97T256 -6Q256 -65 277 -109T335 -183T423 -227T537 -242Q660 -242 740 -167T846 55L995 25Q977 -72 937 -147T837 -273T698 -352T522 -379Z"/><glyph unicode="À" horiz-adv-x="1094" d="M6 0L449 1366H645L1090 0H907L778 401H289L160 0H6ZM330 537H737L530 1176L330 537ZM623 1442L248 1581L314 1714L668 1536L623 1442Z"/><glyph unicode="Á" horiz-adv-x="1094" d="M6 0L449 1366H645L1090 0H907L778 401H289L160 0H6ZM330 537H737L530 1176L330 537ZM467 1446L422 1542L776 1718L842 1585L467 1446Z"/><glyph unicode="Â" horiz-adv-x="1094" d="M6 0L449 1366H645L1090 0H907L778 401H289L160 0H6ZM330 537H737L530 1176L330 537ZM344 1452L277 1522L547 1710L817 1522L750 1452L547 1567L344 1452Z"/><glyph unicode="Ã" horiz-adv-x="1094" d="M6 0L449 1366H645L1090 0H907L778 401H289L160 0H6ZM330 537H737L530 1176L330 537ZM684 1472Q638 1472 606 1484T544 1510T485 1536T416 1548Q369 1548 340 1527T285 1476L201 1536Q246 1601 302 1633T412 1665Q458 1665 491 1654T554 1628T612 1603T680 1591Q717 1591 745 1607T799 1646L875 1573Q828 1526 781 1499T684 1472Z"/><glyph unicode="Ä" horiz-adv-x="1094" d="M6 0L449 1366H645L1090 0H907L778 401H289L160 0H6ZM330 537H737L530 1176L330 537ZM707 1464Q684 1464 665 1472T631 1494T609 1526T600 1567Q600 1588 608 1606T630 1637T664 1659T705 1667Q728 1667 747 1659T781 1637T804 1605T813 1567Q813 1544 805 1526T782 1493T748 1472T707 1464ZM385 1464Q365 1464 347 1471T314 1493T292 1525T283 1567Q283 1587 291 1605T313 1637T345 1659T383 1667Q407 1667 426 1659T460 1637T482 1605T490 1567Q490 1522 460 1493T385 1464Z"/><glyph unicode="Å" horiz-adv-x="1094" d="M651 1348L1090 0H907L778 401H289L160 0H6L442 1348H471Q445 1357 427 1374T396 1413T379 1456T373 1499Q373 1536 387 1568T425 1624T482 1661T553 1675Q586 1675 616 1662T669 1626T705 1570T719 1499Q719 1477 712 1454T692 1409T661 1372T621 1348H651ZM330 537H737L530 1176L330 537ZM551 1419Q566 1419 580 1425T605 1443T622 1469T629 1501Q629 1535 606 1559T551 1583Q513 1583 489 1559T465 1501Q465 1470 488 1445T551 1419Z"/><glyph unicode="Æ" horiz-adv-x="1796" d="M-27 0L786 1366H1690V1219H1016V782H1534V641H1016V143H1726V0H850V420H389L143 0H-27ZM465 553H850V1210L465 553Z"/><glyph unicode="Ç" horiz-adv-x="1186" d="M1145 424Q1097 206 984 99T692 -23L670 -92Q682 -92 692 -92T713 -94Q787 -103 820 -137T854 -219Q854 -247 844 -274T812 -322T755 -357T668 -371Q631 -371 603 -368T554 -360T515 -348T483 -336L508 -270Q536 -280 572 -288T662 -297Q700 -297 727 -279T754 -223Q754 -212 750 -201T733 -182T701 -168T649 -162Q623 -162 597 -164T561 -168L608 -25Q491 -20 395 28T230 166T124 383T86 674Q86 849 128 983T244 1209T420 1348T643 1395Q742 1395 824 1370T969 1292T1076 1155T1145 954L985 922Q964 1010 934 1071T863 1169T768 1224T647 1241Q561 1241 492 1205T374 1096T299 918T272 672Q272 532 299 428T375 254T491 150T639 115Q785 115 871 205T991 459L1145 424Z"/><glyph unicode="È" horiz-adv-x="1122" d="M170 0V1366H1034V1219H340V780H858V641H340V141H1053V0H170ZM751 1442L376 1581L442 1714L796 1536L751 1442Z"/><glyph unicode="É" horiz-adv-x="1122" d="M170 0V1366H1034V1219H340V780H858V641H340V141H1053V0H170ZM469 1446L424 1542L778 1718L844 1585L469 1446Z"/><glyph unicode="Ê" horiz-adv-x="1122" d="M170 0V1366H1034V1219H340V780H858V641H340V141H1053V0H170ZM397 1452L330 1522L600 1710L870 1522L803 1452L600 1567L397 1452Z"/><glyph unicode="Ë" horiz-adv-x="1122" d="M170 0V1366H1034V1219H340V780H858V641H340V141H1053V0H170ZM766 1464Q743 1464 724 1472T690 1494T668 1526T659 1567Q659 1588 667 1606T689 1637T723 1659T764 1667Q787 1667 806 1659T840 1637T863 1605T872 1567Q872 1544 864 1526T841 1493T807 1472T766 1464ZM444 1464Q424 1464 406 1471T373 1493T351 1525T342 1567Q342 1587 350 1605T372 1637T404 1659T442 1667Q466 1667 485 1659T519 1637T541 1605T549 1567Q549 1522 519 1493T444 1464Z"/><glyph unicode="Ì" horiz-adv-x="514" d="M172 0V1366H342V0H172ZM341 1442L-34 1581L32 1714L386 1536L341 1442Z"/><glyph unicode="Í" horiz-adv-x="514" d="M172 0V1366H342V0H172ZM167 1446L122 1542L476 1718L542 1585L167 1446Z"/><glyph unicode="Î" horiz-adv-x="514" d="M172 0V1366H342V0H172ZM54 1452L-13 1522L257 1710L527 1522L460 1452L257 1567L54 1452Z"/><glyph unicode="Ï" horiz-adv-x="514" d="M172 0V1366H342V0H172ZM417 1464Q394 1464 375 1472T341 1494T319 1526T310 1567Q310 1588 318 1606T340 1637T374 1659T415 1667Q438 1667 457 1659T491 1637T514 1605T523 1567Q523 1544 515 1526T492 1493T458 1472T417 1464ZM95 1464Q75 1464 57 1471T24 1493T2 1525T-7 1567Q-7 1587 1 1605T23 1637T55 1659T93 1667Q117 1667 136 1659T170 1637T192 1605T200 1567Q200 1522 170 1493T95 1464Z"/><glyph unicode="Ð" horiz-adv-x="1325" d="M170 662H35V801H170V1366H629Q722 1366 801 1344T946 1282Q1016 1240 1070 1179T1162 1041T1219 875T1239 686Q1239 540 1198 415T1079 197T894 53T651 0H170V662ZM340 139H618Q717 139 799 175T941 282T1034 453T1067 682Q1067 806 1035 906T943 1076T802 1183T618 1221H340V801H717V662H340V139Z"/><glyph unicode="Ñ" horiz-adv-x="1346" d="M170 0V1366H385L981 381Q986 373 994 358T1010 326Q1019 308 1028 287Q1027 302 1027 322T1026 366T1026 414T1026 459V1366H1178V0H1012L377 1053Q371 1061 362 1078T342 1112Q331 1132 319 1155Q321 1099 321 1066T322 1004V0H170ZM843 1472Q797 1472 765 1484T703 1510T644 1536T575 1548Q528 1548 499 1527T444 1476L360 1536Q405 1601 461 1633T571 1665Q617 1665 650 1654T713 1628T771 1603T839 1591Q876 1591 904 1607T958 1646L1034 1573Q987 1526 940 1499T843 1472Z"/><glyph unicode="Ò" horiz-adv-x="1292" d="M645 -27Q520 -27 418 21T241 161T127 384T86 682Q86 848 128 979T244 1203T421 1344T645 1393Q769 1393 872 1345T1050 1204T1165 980T1206 682Q1206 524 1165 394T1049 170T871 25T645 -27ZM645 113Q734 113 805 152T925 265T1001 444T1028 682Q1028 815 1004 920T933 1098T813 1210T645 1249Q550 1249 479 1209T360 1095T288 916T264 682Q264 539 294 433T375 255T496 149T645 113ZM782 1442L407 1581L473 1714L827 1536L782 1442Z"/><glyph unicode="Ó" horiz-adv-x="1292" d="M645 -27Q520 -27 418 21T241 161T127 384T86 682Q86 848 128 979T244 1203T421 1344T645 1393Q769 1393 872 1345T1050 1204T1165 980T1206 682Q1206 524 1165 394T1049 170T871 25T645 -27ZM645 113Q734 113 805 152T925 265T1001 444T1028 682Q1028 815 1004 920T933 1098T813 1210T645 1249Q550 1249 479 1209T360 1095T288 916T264 682Q264 539 294 433T375 255T496 149T645 113ZM557 1446L512 1542L866 1718L932 1585L557 1446Z"/><glyph unicode="Ô" horiz-adv-x="1292" d="M645 -27Q520 -27 418 21T241 161T127 384T86 682Q86 848 128 979T244 1203T421 1344T645 1393Q769 1393 872 1345T1050 1204T1165 980T1206 682Q1206 524 1165 394T1049 170T871 25T645 -27ZM645 113Q734 113 805 152T925 265T1001 444T1028 682Q1028 815 1004 920T933 1098T813 1210T645 1249Q550 1249 479 1209T360 1095T288 916T264 682Q264 539 294 433T375 255T496 149T645 113ZM442 1452L375 1522L645 1710L915 1522L848 1452L645 1567L442 1452Z"/><glyph unicode="Õ" horiz-adv-x="1292" d="M645 -27Q520 -27 418 21T241 161T127 384T86 682Q86 848 128 979T244 1203T421 1344T645 1393Q769 1393 872 1345T1050 1204T1165 980T1206 682Q1206 524 1165 394T1049 170T871 25T645 -27ZM645 113Q734 113 805 152T925 265T1001 444T1028 682Q1028 815 1004 920T933 1098T813 1210T645 1249Q550 1249 479 1209T360 1095T288 916T264 682Q264 539 294 433T375 255T496 149T645 113ZM790 1472Q744 1472 712 1484T650 1510T591 1536T522 1548Q475 1548 446 1527T391 1476L307 1536Q352 1601 408 1633T518 1665Q564 1665 597 1654T660 1628T718 1603T786 1591Q823 1591 851 1607T905 1646L981 1573Q934 1526 887 1499T790 1472Z"/><glyph unicode="Ö" horiz-adv-x="1292" d="M645 -27Q520 -27 418 21T241 161T127 384T86 682Q86 848 128 979T244 1203T421 1344T645 1393Q769 1393 872 1345T1050 1204T1165 980T1206 682Q1206 524 1165 394T1049 170T871 25T645 -27ZM645 113Q734 113 805 152T925 265T1001 444T1028 682Q1028 815 1004 920T933 1098T813 1210T645 1249Q550 1249 479 1209T360 1095T288 916T264 682Q264 539 294 433T375 255T496 149T645 113ZM805 1464Q782 1464 763 1472T729 1494T707 1526T698 1567Q698 1588 706 1606T728 1637T762 1659T803 1667Q826 1667 845 1659T879 1637T902 1605T911 1567Q911 1544 903 1526T880 1493T846 1472T805 1464ZM483 1464Q463 1464 445 1471T412 1493T390 1525T381 1567Q381 1587 389 1605T411 1637T443 1659T481 1667Q505 1667 524 1659T558 1637T580 1605T588 1567Q588 1522 558 1493T483 1464Z"/><glyph unicode="×" horiz-adv-x="1194" d="M289 279L190 375L500 684L190 993L289 1092L598 782L905 1092L1004 993L694 684L1004 375L905 279L598 586L289 279Z"/><glyph unicode="Ø" horiz-adv-x="1292" d="M1057 1196Q1129 1103 1168 974T1208 682Q1208 527 1166 398T1050 175T872 29T645 -23Q548 -23 464 7T311 94L209 -55H78L233 174Q162 267 123 394T84 682Q84 847 126 978T243 1202T421 1344T645 1393Q742 1393 825 1363T977 1276L1073 1417H1206L1057 1196ZM399 225Q449 170 511 144T645 117Q734 117 805 156T925 268T1001 446T1028 682Q1028 797 1011 888T958 1051L399 225ZM891 1147Q844 1195 784 1220T645 1245Q551 1245 480 1205T361 1092T289 914T264 682Q264 569 282 481T334 324L891 1147Z"/><glyph unicode="Ù" horiz-adv-x="1262" d="M639 -23Q525 -23 436 7T286 98T194 253T162 471V1366H332V471Q332 295 406 207T639 119Q721 119 781 143T880 212T937 323T956 471V1366H1110V471Q1110 351 1076 259T980 104T831 9T639 -23ZM745 1442L370 1581L436 1714L790 1536L745 1442Z"/><glyph unicode="Ú" horiz-adv-x="1262" d="M639 -23Q525 -23 436 7T286 98T194 253T162 471V1366H332V471Q332 295 406 207T639 119Q721 119 781 143T880 212T937 323T956 471V1366H1110V471Q1110 351 1076 259T980 104T831 9T639 -23ZM545 1446L500 1542L854 1718L920 1585L545 1446Z"/><glyph unicode="Û" horiz-adv-x="1262" d="M639 -23Q525 -23 436 7T286 98T194 253T162 471V1366H332V471Q332 295 406 207T639 119Q721 119 781 143T880 212T937 323T956 471V1366H1110V471Q1110 351 1076 259T980 104T831 9T639 -23ZM432 1452L365 1522L635 1710L905 1522L838 1452L635 1567L432 1452Z"/><glyph unicode="Ü" horiz-adv-x="1262" d="M639 -23Q525 -23 436 7T286 98T194 253T162 471V1366H332V471Q332 295 406 207T639 119Q721 119 781 143T880 212T937 323T956 471V1366H1110V471Q1110 351 1076 259T980 104T831 9T639 -23ZM799 1464Q776 1464 757 1472T723 1494T701 1526T692 1567Q692 1588 700 1606T722 1637T756 1659T797 1667Q820 1667 839 1659T873 1637T896 1605T905 1567Q905 1544 897 1526T874 1493T840 1472T799 1464ZM477 1464Q457 1464 439 1471T406 1493T384 1525T375 1567Q375 1587 383 1605T405 1637T437 1659T475 1667Q499 1667 518 1659T552 1637T574 1605T582 1567Q582 1522 552 1493T477 1464Z"/><glyph unicode="Ý" horiz-adv-x="1042" d="M436 0V575L-23 1366H168L461 854L535 719L608 854L907 1366H1065L608 575V0H436ZM416 1446L371 1542L725 1718L791 1585L416 1446Z"/><glyph unicode="Þ" horiz-adv-x="1145" d="M170 0V1366H340V1165H653Q744 1165 818 1146T948 1083Q982 1057 1009 1021T1056 943T1087 854T1098 758Q1098 676 1069 603T984 476T849 390T672 358H340V0H170ZM340 498H655Q718 498 768 518T853 572T907 654T926 758Q926 816 908 865T855 950T774 1006T668 1026H340V498Z"/><glyph unicode="ß" horiz-adv-x="1165" d="M154 -154V997Q154 1089 178 1168T254 1306T388 1398T586 1432Q673 1432 742 1412T860 1354T935 1265T961 1149Q961 1077 926 1020T831 923T691 859T520 829Q520 798 574 770T735 698Q802 671 868 639T987 563T1071 459T1104 317Q1104 246 1081 183T1012 73T894 -1T727 -29Q673 -29 630 -24T555 -12T499 4T459 20L502 143Q527 128 576 115T713 102Q766 102 809 114T882 150T929 211T946 299Q946 358 924 398T862 467T772 519T662 567Q597 595 545 620T457 672T401 731T381 809Q381 855 396 883T428 930Q498 930 565 942T684 979T769 1043T801 1139Q801 1216 745 1257T586 1298Q512 1298 460 1278T375 1221T327 1134T311 1022V-154H154Z"/><glyph unicode="à" horiz-adv-x="1079" d="M395 -12Q328 -12 270 5T168 58T99 145T74 266Q74 348 109 410T208 516T359 587T551 627Q613 635 666 636T780 639Q780 665 780 690T776 733Q771 775 756 806T712 859T637 892T528 903Q467 903 420 894T339 865T281 811T246 729L98 745Q126 885 239 956T532 1028Q640 1028 715 1006T838 937T908 821T930 655V197Q930 149 935 99T952 0H801Q796 13 792 34T786 79T782 127T782 170Q752 128 715 95T630 38T524 1T395 -12ZM442 104Q514 104 570 124T667 175T736 247T780 326V535Q726 535 673 534T571 526Q406 505 323 442T240 283Q240 195 290 150T442 104ZM674 1094L299 1233L365 1366L719 1188L674 1094Z"/><glyph unicode="á" horiz-adv-x="1079" d="M395 -12Q328 -12 270 5T168 58T99 145T74 266Q74 348 109 410T208 516T359 587T551 627Q613 635 666 636T780 639Q780 665 780 690T776 733Q771 775 756 806T712 859T637 892T528 903Q467 903 420 894T339 865T281 811T246 729L98 745Q126 885 239 956T532 1028Q640 1028 715 1006T838 937T908 821T930 655V197Q930 149 935 99T952 0H801Q796 13 792 34T786 79T782 127T782 170Q752 128 715 95T630 38T524 1T395 -12ZM442 104Q514 104 570 124T667 175T736 247T780 326V535Q726 535 673 534T571 526Q406 505 323 442T240 283Q240 195 290 150T442 104ZM404 1098L359 1194L713 1370L779 1237L404 1098Z"/><glyph unicode="â" horiz-adv-x="1079" d="M395 -12Q328 -12 270 5T168 58T99 145T74 266Q74 348 109 410T208 516T359 587T551 627Q613 635 666 636T780 639Q780 665 780 690T776 733Q771 775 756 806T712 859T637 892T528 903Q467 903 420 894T339 865T281 811T246 729L98 745Q126 885 239 956T532 1028Q640 1028 715 1006T838 937T908 821T930 655V197Q930 149 935 99T952 0H801Q796 13 792 34T786 79T782 127T782 170Q752 128 715 95T630 38T524 1T395 -12ZM442 104Q514 104 570 124T667 175T736 247T780 326V535Q726 535 673 534T571 526Q406 505 323 442T240 283Q240 195 290 150T442 104ZM334 1104L267 1174L537 1362L807 1174L740 1104L537 1219L334 1104Z"/><glyph unicode="ã" horiz-adv-x="1079" d="M395 -12Q328 -12 270 5T168 58T99 145T74 266Q74 348 109 410T208 516T359 587T551 627Q613 635 666 636T780 639Q780 665 780 690T776 733Q771 775 756 806T712 859T637 892T528 903Q467 903 420 894T339 865T281 811T246 729L98 745Q126 885 239 956T532 1028Q640 1028 715 1006T838 937T908 821T930 655V197Q930 149 935 99T952 0H801Q796 13 792 34T786 79T782 127T782 170Q752 128 715 95T630 38T524 1T395 -12ZM442 104Q514 104 570 124T667 175T736 247T780 326V535Q726 535 673 534T571 526Q406 505 323 442T240 283Q240 195 290 150T442 104ZM677 1124Q631 1124 599 1136T537 1162T478 1188T409 1200Q362 1200 333 1179T278 1128L194 1188Q239 1253 295 1285T405 1317Q451 1317 484 1306T547 1280T605 1255T673 1243Q710 1243 738 1259T792 1298L868 1225Q821 1178 774 1151T677 1124Z"/><glyph unicode="ä" horiz-adv-x="1079" d="M395 -12Q328 -12 270 5T168 58T99 145T74 266Q74 348 109 410T208 516T359 587T551 627Q613 635 666 636T780 639Q780 665 780 690T776 733Q771 775 756 806T712 859T637 892T528 903Q467 903 420 894T339 865T281 811T246 729L98 745Q126 885 239 956T532 1028Q640 1028 715 1006T838 937T908 821T930 655V197Q930 149 935 99T952 0H801Q796 13 792 34T786 79T782 127T782 170Q752 128 715 95T630 38T524 1T395 -12ZM442 104Q514 104 570 124T667 175T736 247T780 326V535Q726 535 673 534T571 526Q406 505 323 442T240 283Q240 195 290 150T442 104ZM697 1116Q674 1116 655 1124T621 1146T599 1178T590 1219Q590 1240 598 1258T620 1289T654 1311T695 1319Q718 1319 737 1311T771 1289T794 1257T803 1219Q803 1196 795 1178T772 1145T738 1124T697 1116ZM375 1116Q355 1116 337 1123T304 1145T282 1177T273 1219Q273 1239 281 1257T303 1289T335 1311T373 1319Q397 1319 416 1311T450 1289T472 1257T480 1219Q480 1174 450 1145T375 1116Z"/><glyph unicode="å" horiz-adv-x="1079" d="M395 -12Q328 -12 270 5T168 58T99 145T74 266Q74 348 109 410T208 516T359 587T551 627Q613 635 666 636T780 639Q780 665 780 690T776 733Q771 775 756 806T712 859T637 892T528 903Q467 903 420 894T339 865T281 811T246 729L98 745Q126 885 239 956T532 1028Q640 1028 715 1006T838 937T908 821T930 655V197Q930 149 935 99T952 0H801Q796 13 792 34T786 79T782 127T782 170Q752 128 715 95T630 38T524 1T395 -12ZM442 104Q514 104 570 124T667 175T736 247T780 326V535Q726 535 673 534T571 526Q406 505 323 442T240 283Q240 195 290 150T442 104ZM543 1069Q503 1069 470 1083T413 1122T376 1177T363 1241Q363 1278 377 1310T415 1366T472 1403T543 1417Q576 1417 606 1404T659 1368T695 1312T709 1241Q709 1205 696 1174T659 1119T606 1083T543 1069ZM541 1161Q556 1161 570 1167T595 1185T612 1211T619 1243Q619 1277 596 1301T541 1325Q503 1325 479 1301T455 1243Q455 1212 478 1187T541 1161Z"/><glyph unicode="æ" horiz-adv-x="1702" d="M395 -12Q327 -12 269 5T167 58T99 145T74 268Q74 353 109 415T206 521T354 591T543 629Q573 633 600 635T654 638T708 639T764 641Q764 667 764 693T760 739Q755 779 740 810T697 862T625 894T520 905Q459 905 413 896T332 866T275 812T242 729L96 745Q110 814 145 867T234 956T357 1010T510 1028Q601 1028 661 1013T760 971T822 908T862 829Q880 863 908 898T978 962T1077 1009T1208 1028Q1302 1028 1378 994T1508 898T1594 749T1634 557V489H903Q905 300 983 205T1212 109Q1253 109 1292 118T1365 151T1428 211T1477 305L1618 287Q1568 137 1462 61T1200 -16Q1126 -16 1066 1T959 50T877 125T817 221Q780 156 736 112T640 40T526 0T395 -12ZM434 104Q508 104 563 124T659 179T724 257T764 348V537Q714 537 665 535T571 528Q403 508 320 446T236 287Q236 196 284 150T434 104ZM1479 598Q1466 747 1396 828T1202 909Q1143 909 1091 887T1000 825T937 727T907 598H1479Z"/><glyph unicode="ç" horiz-adv-x="954" d="M526 -133Q500 -133 474 -135T438 -139L479 -14Q392 -9 319 28T191 131T107 292T76 510Q76 620 106 714T193 879T327 988T502 1028Q664 1028 763 939T897 664L748 645Q729 770 669 835T504 901Q443 901 395 875T314 798T262 674T244 506Q244 401 265 325T322 200T407 126T514 102Q614 102 673 159T756 342L895 328Q883 250 854 190T781 87T683 20T563 -12L547 -63Q559 -63 569 -63T590 -66Q664 -75 697 -108T731 -190Q731 -218 721 -245T689 -293T632 -328T545 -342Q508 -342 480 -339T431 -331T392 -320T360 -307L385 -242Q413 -251 449 -259T539 -268Q577 -268 604 -250T631 -195Q631 -183 627 -172T610 -153T578 -139T526 -133Z"/><glyph unicode="è" horiz-adv-x="1053" d="M541 -16Q437 -16 352 20T206 123T112 281T78 487Q78 615 114 715T214 885T362 991T545 1028Q644 1028 722 994T855 897T943 748T983 555Q985 538 984 521T985 487H240Q243 296 325 200T555 104Q597 104 636 114T711 147T776 209T827 303L967 283Q914 136 803 60T541 -16ZM823 596Q811 743 739 825T545 907Q484 907 432 885T339 823T275 725T246 596H823ZM678 1094L303 1233L369 1366L723 1188L678 1094Z"/><glyph unicode="é" horiz-adv-x="1053" d="M541 -16Q437 -16 352 20T206 123T112 281T78 487Q78 615 114 715T214 885T362 991T545 1028Q644 1028 722 994T855 897T943 748T983 555Q985 538 984 521T985 487H240Q243 296 325 200T555 104Q597 104 636 114T711 147T776 209T827 303L967 283Q914 136 803 60T541 -16ZM823 596Q811 743 739 825T545 907Q484 907 432 885T339 823T275 725T246 596H823ZM424 1098L379 1194L733 1370L799 1237L424 1098Z"/><glyph unicode="ê" horiz-adv-x="1053" d="M541 -16Q437 -16 352 20T206 123T112 281T78 487Q78 615 114 715T214 885T362 991T545 1028Q644 1028 722 994T855 897T943 748T983 555Q985 538 984 521T985 487H240Q243 296 325 200T555 104Q597 104 636 114T711 147T776 209T827 303L967 283Q914 136 803 60T541 -16ZM823 596Q811 743 739 825T545 907Q484 907 432 885T339 823T275 725T246 596H823ZM325 1104L258 1174L528 1362L798 1174L731 1104L528 1219L325 1104Z"/><glyph unicode="ë" horiz-adv-x="1053" d="M541 -16Q437 -16 352 20T206 123T112 281T78 487Q78 615 114 715T214 885T362 991T545 1028Q644 1028 722 994T855 897T943 748T983 555Q985 538 984 521T985 487H240Q243 296 325 200T555 104Q597 104 636 114T711 147T776 209T827 303L967 283Q914 136 803 60T541 -16ZM823 596Q811 743 739 825T545 907Q484 907 432 885T339 823T275 725T246 596H823ZM688 1116Q665 1116 646 1124T612 1146T590 1178T581 1219Q581 1240 589 1258T611 1289T645 1311T686 1319Q709 1319 728 1311T762 1289T785 1257T794 1219Q794 1196 786 1178T763 1145T729 1124T688 1116ZM366 1116Q346 1116 328 1123T295 1145T273 1177T264 1219Q264 1239 272 1257T294 1289T326 1311T364 1319Q388 1319 407 1311T441 1289T463 1257T471 1219Q471 1174 441 1145T366 1116Z"/><glyph unicode="ì" horiz-adv-x="473" d="M158 0V1010H317V0H158ZM316 1094L-59 1233L7 1366L361 1188L316 1094Z"/><glyph unicode="í" horiz-adv-x="473" d="M158 0V1010H317V0H158ZM161 1098L116 1194L470 1370L536 1237L161 1098Z"/><glyph unicode="î" horiz-adv-x="473" d="M158 0V1010H317V0H158ZM34 1104L-33 1174L237 1362L507 1174L440 1104L237 1219L34 1104Z"/><glyph unicode="ï" horiz-adv-x="473" d="M158 0V1010H317V0H158ZM397 1116Q374 1116 355 1124T321 1146T299 1178T290 1219Q290 1240 298 1258T320 1289T354 1311T395 1319Q418 1319 437 1311T471 1289T494 1257T503 1219Q503 1196 495 1178T472 1145T438 1124T397 1116ZM75 1116Q55 1116 37 1123T4 1145T-18 1177T-27 1219Q-27 1239 -19 1257T3 1289T35 1311T73 1319Q97 1319 116 1311T150 1289T172 1257T180 1219Q180 1174 150 1145T75 1116Z"/><glyph unicode="ð" horiz-adv-x="1061" d="M532 -29Q427 -29 343 11T201 122T111 290T80 504Q80 614 111 706T197 866T331 972T504 1010Q556 1010 616 998T731 952Q722 979 711 1005T682 1059T642 1116T586 1180L408 1075L346 1165L494 1253Q478 1266 459 1277T419 1299T380 1316T346 1329L406 1427Q469 1407 520 1381T612 1323L788 1421L858 1335L707 1247Q983 977 983 520Q983 392 951 291T860 118T718 9T532 -29ZM532 100Q667 100 739 200T811 496Q811 680 739 780T518 881Q459 881 410 856T326 782T272 662T252 500Q252 403 273 329T331 203T420 126T532 100Z"/><glyph unicode="ñ" horiz-adv-x="1110" d="M154 0V1010H305V809Q331 846 367 885T451 956T555 1008T680 1028Q961 1028 961 715V0H801V717Q801 808 761 851T633 895Q585 895 541 881T456 839T380 775T313 692V0H154ZM720 1124Q674 1124 642 1136T580 1162T521 1188T452 1200Q405 1200 376 1179T321 1128L237 1188Q282 1253 338 1285T448 1317Q494 1317 527 1306T590 1280T648 1255T716 1243Q753 1243 781 1259T835 1298L911 1225Q864 1178 817 1151T720 1124Z"/><glyph unicode="ò" horiz-adv-x="1061" d="M528 -16Q430 -16 348 21T205 127T110 293T76 510Q76 628 112 724T209 887T353 991T528 1028Q632 1028 716 991T860 885T952 721T985 508Q985 389 949 292T850 127T705 21T528 -16ZM526 102Q588 102 641 127T734 204T795 331T817 510Q817 608 795 682T735 805T643 878T526 903Q466 903 415 878T325 803T266 679T244 508Q244 413 264 338T321 210T410 130T526 102ZM667 1094L292 1233L358 1366L712 1188L667 1094Z"/><glyph unicode="ó" horiz-adv-x="1061" d="M528 -16Q430 -16 348 21T205 127T110 293T76 510Q76 628 112 724T209 887T353 991T528 1028Q632 1028 716 991T860 885T952 721T985 508Q985 389 949 292T850 127T705 21T528 -16ZM526 102Q588 102 641 127T734 204T795 331T817 510Q817 608 795 682T735 805T643 878T526 903Q466 903 415 878T325 803T266 679T244 508Q244 413 264 338T321 210T410 130T526 102ZM438 1098L393 1194L747 1370L813 1237L438 1098Z"/><glyph unicode="ô" horiz-adv-x="1061" d="M528 -16Q430 -16 348 21T205 127T110 293T76 510Q76 628 112 724T209 887T353 991T528 1028Q632 1028 716 991T860 885T952 721T985 508Q985 389 949 292T850 127T705 21T528 -16ZM526 102Q588 102 641 127T734 204T795 331T817 510Q817 608 795 682T735 805T643 878T526 903Q466 903 415 878T325 803T266 679T244 508Q244 413 264 338T321 210T410 130T526 102ZM327 1104L260 1174L530 1362L800 1174L733 1104L530 1219L327 1104Z"/><glyph unicode="õ" horiz-adv-x="1061" d="M528 -16Q430 -16 348 21T205 127T110 293T76 510Q76 628 112 724T209 887T353 991T528 1028Q632 1028 716 991T860 885T952 721T985 508Q985 389 949 292T850 127T705 21T528 -16ZM526 102Q588 102 641 127T734 204T795 331T817 510Q817 608 795 682T735 805T643 878T526 903Q466 903 415 878T325 803T266 679T244 508Q244 413 264 338T321 210T410 130T526 102ZM675 1124Q629 1124 597 1136T535 1162T476 1188T407 1200Q360 1200 331 1179T276 1128L192 1188Q237 1253 293 1285T403 1317Q449 1317 482 1306T545 1280T603 1255T671 1243Q708 1243 736 1259T790 1298L866 1225Q819 1178 772 1151T675 1124Z"/><glyph unicode="ö" horiz-adv-x="1061" d="M528 -16Q430 -16 348 21T205 127T110 293T76 510Q76 628 112 724T209 887T353 991T528 1028Q632 1028 716 991T860 885T952 721T985 508Q985 389 949 292T850 127T705 21T528 -16ZM526 102Q588 102 641 127T734 204T795 331T817 510Q817 608 795 682T735 805T643 878T526 903Q466 903 415 878T325 803T266 679T244 508Q244 413 264 338T321 210T410 130T526 102ZM690 1116Q667 1116 648 1124T614 1146T592 1178T583 1219Q583 1240 591 1258T613 1289T647 1311T688 1319Q711 1319 730 1311T764 1289T787 1257T796 1219Q796 1196 788 1178T765 1145T731 1124T690 1116ZM368 1116Q348 1116 330 1123T297 1145T275 1177T266 1219Q266 1239 274 1257T296 1289T328 1311T366 1319Q390 1319 409 1311T443 1289T465 1257T473 1219Q473 1174 443 1145T368 1116Z"/><glyph unicode="÷" horiz-adv-x="1194" d="M596 895Q576 895 559 902T528 922T506 952T498 991Q498 1033 526 1060T594 1087Q614 1087 631 1080T662 1059T684 1029T692 991Q692 951 664 923T596 895ZM152 614V754H1042V614H152ZM596 291Q576 291 559 299T528 320T506 351T498 389Q498 429 526 457T594 485Q614 485 631 478T662 457T684 427T692 389Q692 369 685 352T664 321T634 299T596 291Z"/><glyph unicode="ø" horiz-adv-x="1061" d="M868 877Q924 808 954 715T985 508Q985 389 949 292T850 127T705 21T528 -16Q371 -16 258 76L158 -55H37L188 145Q136 214 106 305T76 510Q76 628 112 724T209 887T353 991T528 1028Q609 1028 676 1006T799 942L903 1079H1024L868 877ZM340 184Q377 144 423 123T526 102Q588 102 641 127T734 204T795 331T817 510Q817 654 770 748L340 184ZM713 829Q676 867 629 885T526 903Q466 903 415 878T325 803T266 679T244 508Q244 367 287 272L713 829Z"/><glyph unicode="ù" horiz-adv-x="1098" d="M461 -16Q393 -16 336 2T237 62T173 170T150 332V1010H309V328Q309 208 356 156T510 104Q595 104 666 152T788 293V1010H946V0H799V172Q739 75 651 30T461 -16ZM684 1094L309 1233L375 1366L729 1188L684 1094Z"/><glyph unicode="ú" horiz-adv-x="1098" d="M461 -16Q393 -16 336 2T237 62T173 170T150 332V1010H309V328Q309 208 356 156T510 104Q595 104 666 152T788 293V1010H946V0H799V172Q739 75 651 30T461 -16ZM430 1098L385 1194L739 1370L805 1237L430 1098Z"/><glyph unicode="û" horiz-adv-x="1098" d="M461 -16Q393 -16 336 2T237 62T173 170T150 332V1010H309V328Q309 208 356 156T510 104Q595 104 666 152T788 293V1010H946V0H799V172Q739 75 651 30T461 -16ZM350 1104L283 1174L553 1362L823 1174L756 1104L553 1219L350 1104Z"/><glyph unicode="ü" horiz-adv-x="1098" d="M461 -16Q393 -16 336 2T237 62T173 170T150 332V1010H309V328Q309 208 356 156T510 104Q595 104 666 152T788 293V1010H946V0H799V172Q739 75 651 30T461 -16ZM715 1116Q692 1116 673 1124T639 1146T617 1178T608 1219Q608 1240 616 1258T638 1289T672 1311T713 1319Q736 1319 755 1311T789 1289T812 1257T821 1219Q821 1196 813 1178T790 1145T756 1124T715 1116ZM393 1116Q373 1116 355 1123T322 1145T300 1177T291 1219Q291 1239 299 1257T321 1289T353 1311T391 1319Q415 1319 434 1311T468 1289T490 1257T498 1219Q498 1174 468 1145T393 1116Z"/><glyph unicode="ý" horiz-adv-x="881" d="M68 -225Q152 -225 216 -199T318 -124T362 -6T336 147L4 1010H176L426 350L467 221L508 350L741 1010H883L498 -72Q475 -139 440 -191T354 -280T234 -335T72 -354L68 -225ZM605 1098L560 1194L914 1370L980 1237L605 1098Z"/><glyph unicode="þ" horiz-adv-x="1090" d="M154 -342V1366H307V836Q330 871 360 905T430 967T518 1011T627 1028Q711 1028 781 997T903 902T982 738T1010 502Q1010 374 978 277T893 114T771 15T625 -18Q569 -18 522 -5T435 29T364 76T309 131V-342H154ZM584 102Q644 102 692 123T775 192T829 316T848 500Q848 702 786 797T594 893Q504 893 432 845T309 690V268Q328 240 352 211T410 157T485 118T584 102Z"/><glyph unicode="ÿ" horiz-adv-x="881" d="M68 -225Q152 -225 216 -199T318 -124T362 -6T336 147L4 1010H176L426 350L467 221L508 350L741 1010H883L498 -72Q475 -139 440 -191T354 -280T234 -335T72 -354L68 -225ZM857 1116Q834 1116 815 1124T781 1146T759 1178T750 1219Q750 1240 758 1258T780 1289T814 1311T855 1319Q878 1319 897 1311T931 1289T954 1257T963 1219Q963 1196 955 1178T932 1145T898 1124T857 1116ZM535 1116Q515 1116 497 1123T464 1145T442 1177T433 1219Q433 1239 441 1257T463 1289T495 1311T533 1319Q557 1319 576 1311T610 1289T632 1257T640 1219Q640 1174 610 1145T535 1116Z"/><glyph unicode="Ā" horiz-adv-x="1094" d="M6 0L449 1366H645L1090 0H907L778 401H289L160 0H6ZM330 537H737L530 1176L330 537ZM236 1515V1626H856V1515H236Z"/><glyph unicode="ā" horiz-adv-x="1079" d="M395 -12Q328 -12 270 5T168 58T99 145T74 266Q74 348 109 410T208 516T359 587T551 627Q613 635 666 636T780 639Q780 665 780 690T776 733Q771 775 756 806T712 859T637 892T528 903Q467 903 420 894T339 865T281 811T246 729L98 745Q126 885 239 956T532 1028Q640 1028 715 1006T838 937T908 821T930 655V197Q930 149 935 99T952 0H801Q796 13 792 34T786 79T782 127T782 170Q752 128 715 95T630 38T524 1T395 -12ZM442 104Q514 104 570 124T667 175T736 247T780 326V535Q726 535 673 534T571 526Q406 505 323 442T240 283Q240 195 290 150T442 104ZM228 1167V1278H848V1167H228Z"/><glyph unicode="Ă" horiz-adv-x="1094" d="M6 0L449 1366H645L1090 0H907L778 401H289L160 0H6ZM330 537H737L530 1176L330 537ZM547 1464Q416 1464 342 1528T248 1718H363Q380 1646 422 1616T547 1585Q589 1585 620 1592T673 1614T710 1655T733 1718H846Q826 1594 752 1529T547 1464Z"/><glyph unicode="ă" horiz-adv-x="1079" d="M395 -12Q328 -12 270 5T168 58T99 145T74 266Q74 348 109 410T208 516T359 587T551 627Q613 635 666 636T780 639Q780 665 780 690T776 733Q771 775 756 806T712 859T637 892T528 903Q467 903 420 894T339 865T281 811T246 729L98 745Q126 885 239 956T532 1028Q640 1028 715 1006T838 937T908 821T930 655V197Q930 149 935 99T952 0H801Q796 13 792 34T786 79T782 127T782 170Q752 128 715 95T630 38T524 1T395 -12ZM442 104Q514 104 570 124T667 175T736 247T780 326V535Q726 535 673 534T571 526Q406 505 323 442T240 283Q240 195 290 150T442 104ZM539 1116Q408 1116 334 1180T240 1370H355Q372 1298 414 1268T539 1237Q581 1237 612 1244T665 1266T702 1307T725 1370H838Q818 1246 744 1181T539 1116Z"/><glyph unicode="Ą" horiz-adv-x="1094" d="M1036 -315Q983 -315 947 -305T887 -275T854 -229T844 -166Q844 -65 993 0H907L778 401H289L160 0H6L449 1366H645L1090 0Q1066 -16 1044 -32T1005 -65T977 -102T967 -143Q967 -164 972 -180T991 -207T1025 -223T1079 -229Q1104 -229 1124 -226T1159 -219L1180 -283Q1146 -297 1112 -306T1036 -315ZM737 537L530 1176L330 537H737Z"/><glyph unicode="ą" horiz-adv-x="1079" d="M901 -315Q848 -315 812 -305T752 -275T719 -229T709 -166Q709 -65 858 0H801Q796 13 792 34T786 79T782 127T782 170Q752 128 715 95T630 38T524 1T395 -12Q328 -12 270 5T168 58T99 145T74 266Q74 348 109 410T208 516T359 587T551 627Q613 635 666 636T780 639Q780 665 780 690T776 733Q771 775 756 806T712 859T637 892T528 903Q467 903 420 894T339 865T281 811T246 729L98 745Q126 885 239 956T532 1028Q640 1028 715 1006T838 937T908 821T930 655V197Q930 149 935 99T952 0Q929 -16 908 -32T869 -65T842 -102T831 -143Q831 -185 855 -207T944 -229Q969 -229 989 -226T1024 -219L1044 -283Q1010 -297 976 -306T901 -315ZM442 104Q514 104 570 124T667 175T736 247T780 326V535Q726 535 673 534T571 526Q406 505 323 442T240 283Q240 195 290 150T442 104Z"/><glyph unicode="Ć" horiz-adv-x="1186" d="M633 -23Q510 -23 409 23T237 159T126 377T86 674Q86 848 129 982T248 1208T424 1346T641 1393Q836 1393 965 1287T1145 954L981 920Q961 1007 930 1068T857 1167T762 1223T643 1241Q559 1241 490 1205T371 1097T295 919T268 674Q268 535 296 431T373 257T491 152T639 117Q712 117 769 140T869 206T941 313T985 457L1141 426Q1091 196 962 87T633 -23ZM479 1446L434 1542L788 1718L854 1585L479 1446Z"/><glyph unicode="ć" horiz-adv-x="954" d="M510 -16Q417 -16 338 18T200 120T109 285T76 510Q76 620 106 714T193 879T327 988T502 1028Q664 1028 763 939T897 664L748 645Q729 770 669 835T504 901Q443 901 395 875T314 798T262 674T244 506Q244 401 265 325T322 200T407 126T514 102Q614 102 673 159T756 342L895 328Q882 242 849 178T765 71T650 6T510 -16ZM601 1098L556 1194L910 1370L976 1237L601 1098Z"/><glyph unicode="Ĉ" horiz-adv-x="1186" d="M633 -23Q510 -23 409 23T237 159T126 377T86 674Q86 848 129 982T248 1208T424 1346T641 1393Q836 1393 965 1287T1145 954L981 920Q961 1007 930 1068T857 1167T762 1223T643 1241Q559 1241 490 1205T371 1097T295 919T268 674Q268 535 296 431T373 257T491 152T639 117Q712 117 769 140T869 206T941 313T985 457L1141 426Q1091 196 962 87T633 -23ZM440 1452L373 1522L643 1710L913 1522L846 1452L643 1567L440 1452Z"/><glyph unicode="ĉ" horiz-adv-x="954" d="M510 -16Q417 -16 338 18T200 120T109 285T76 510Q76 620 106 714T193 879T327 988T502 1028Q664 1028 763 939T897 664L748 645Q729 770 669 835T504 901Q443 901 395 875T314 798T262 674T244 506Q244 401 265 325T322 200T407 126T514 102Q614 102 673 159T756 342L895 328Q882 242 849 178T765 71T650 6T510 -16ZM556 1104L489 1174L759 1362L1029 1174L962 1104L759 1219L556 1104Z"/><glyph unicode="Ċ" horiz-adv-x="1186" d="M633 -23Q510 -23 409 23T237 159T126 377T86 674Q86 848 129 982T248 1208T424 1346T641 1393Q836 1393 965 1287T1145 954L981 920Q961 1007 930 1068T857 1167T762 1223T643 1241Q559 1241 490 1205T371 1097T295 919T268 674Q268 535 296 431T373 257T491 152T639 117Q712 117 769 140T869 206T941 313T985 457L1141 426Q1091 196 962 87T633 -23ZM643 1456Q616 1456 593 1465T554 1492T528 1531T518 1579Q518 1604 528 1626T555 1664T594 1690T641 1700Q668 1700 691 1691T730 1665T756 1626T766 1579Q766 1552 757 1530T730 1491T691 1465T643 1456Z"/><glyph unicode="ċ" horiz-adv-x="954" d="M510 -16Q417 -16 338 18T200 120T109 285T76 510Q76 620 106 714T193 879T327 988T502 1028Q664 1028 763 939T897 664L748 645Q729 770 669 835T504 901Q443 901 395 875T314 798T262 674T244 506Q244 401 265 325T322 200T407 126T514 102Q614 102 673 159T756 342L895 328Q882 242 849 178T765 71T650 6T510 -16ZM759 1108Q732 1108 709 1117T670 1144T644 1183T634 1231Q634 1256 644 1278T671 1316T710 1342T757 1352Q784 1352 807 1343T846 1317T872 1278T882 1231Q882 1204 873 1182T846 1143T807 1117T759 1108Z"/><glyph unicode="Č" horiz-adv-x="1186" d="M633 -23Q510 -23 409 23T237 159T126 377T86 674Q86 848 129 982T248 1208T424 1346T641 1393Q836 1393 965 1287T1145 954L981 920Q961 1007 930 1068T857 1167T762 1223T643 1241Q559 1241 490 1205T371 1097T295 919T268 674Q268 535 296 431T373 257T491 152T639 117Q712 117 769 140T869 206T941 313T985 457L1141 426Q1091 196 962 87T633 -23ZM631 1456L361 1646L428 1716L631 1601L834 1716L901 1646L631 1456Z"/><glyph unicode="č" horiz-adv-x="954" d="M510 -16Q417 -16 338 18T200 120T109 285T76 510Q76 620 106 714T193 879T327 988T502 1028Q664 1028 763 939T897 664L748 645Q729 770 669 835T504 901Q443 901 395 875T314 798T262 674T244 506Q244 401 265 325T322 200T407 126T514 102Q614 102 673 159T756 342L895 328Q882 242 849 178T765 71T650 6T510 -16ZM734 1108L464 1298L531 1368L734 1253L937 1368L1004 1298L734 1108Z"/><glyph unicode="Ď" horiz-adv-x="1325" d="M170 1366H629Q753 1366 856 1331T1036 1225Q1087 1180 1125 1121T1188 993T1226 847T1239 686Q1239 540 1198 415T1079 197T894 53T651 0H170V1366ZM340 139H618Q717 139 799 175T941 282T1034 453T1067 682Q1067 806 1035 906T943 1076T802 1183T618 1221H340V139ZM625 1456L355 1646L422 1716L625 1601L828 1716L895 1646L625 1456Z"/><glyph unicode="ď" horiz-adv-x="1161" d="M463 -16Q371 -16 300 18T179 119T104 281T78 502Q78 614 106 710T188 877T318 988T492 1028Q549 1028 596 1013T679 976T743 925T788 872V1366H942V0H793V154Q733 70 654 27T463 -16ZM506 104Q563 104 607 120T686 164T745 229T786 309V721Q767 757 744 790T688 848T614 888T516 903Q379 903 312 800T244 502Q244 397 261 322T312 198T394 127T506 104ZM1133 1174H1059V1366H1249V1190L1120 952H1028L1133 1174Z"/><glyph unicode="Đ" horiz-adv-x="1325" d="M170 662H35V801H170V1366H629Q722 1366 801 1344T946 1282Q1016 1240 1070 1179T1162 1041T1219 875T1239 686Q1239 540 1198 415T1079 197T894 53T651 0H170V662ZM340 139H618Q717 139 799 175T941 282T1034 453T1067 682Q1067 806 1035 906T943 1076T802 1183T618 1221H340V801H717V662H340V139Z"/><glyph unicode="đ" horiz-adv-x="1100" d="M492 1229H788V1366H942V1229H1014V1106H942V0H793V154Q733 70 654 27T463 -16Q371 -16 300 18T179 119T104 281T78 502Q78 614 106 710T188 877T318 988T492 1028Q549 1028 596 1013T679 976T743 925T788 872V1106H492V1229ZM506 104Q563 104 607 120T686 164T745 229T786 309V721Q767 757 744 790T688 848T614 888T516 903Q379 903 312 800T244 502Q244 397 261 322T312 198T394 127T506 104Z"/><glyph unicode="Ē" horiz-adv-x="1122" d="M170 0V1366H1034V1219H340V780H858V641H340V141H1053V0H170ZM295 1515V1626H915V1515H295Z"/><glyph unicode="ē" horiz-adv-x="1053" d="M541 -16Q437 -16 352 20T206 123T112 281T78 487Q78 615 114 715T214 885T362 991T545 1028Q644 1028 722 994T855 897T943 748T983 555Q985 538 984 521T985 487H240Q243 296 325 200T555 104Q597 104 636 114T711 147T776 209T827 303L967 283Q914 136 803 60T541 -16ZM823 596Q811 743 739 825T545 907Q484 907 432 885T339 823T275 725T246 596H823ZM215 1167V1278H835V1167H215Z"/><glyph unicode="Ĕ" horiz-adv-x="1122" d="M170 0V1366H1034V1219H340V780H858V641H340V141H1053V0H170ZM602 1464Q471 1464 397 1528T303 1718H418Q435 1646 477 1616T602 1585Q644 1585 675 1592T728 1614T765 1655T788 1718H901Q881 1594 807 1529T602 1464Z"/><glyph unicode="ĕ" horiz-adv-x="1053" d="M541 -16Q437 -16 352 20T206 123T112 281T78 487Q78 615 114 715T214 885T362 991T545 1028Q644 1028 722 994T855 897T943 748T983 555Q985 538 984 521T985 487H240Q243 296 325 200T555 104Q597 104 636 114T711 147T776 209T827 303L967 283Q914 136 803 60T541 -16ZM823 596Q811 743 739 825T545 907Q484 907 432 885T339 823T275 725T246 596H823ZM526 1116Q395 1116 321 1180T227 1370H342Q359 1298 401 1268T526 1237Q568 1237 599 1244T652 1266T689 1307T712 1370H825Q805 1246 731 1181T526 1116Z"/><glyph unicode="Ė" horiz-adv-x="1122" d="M170 0V1366H1034V1219H340V780H858V641H340V141H1053V0H170ZM614 1456Q587 1456 564 1465T525 1492T499 1531T489 1579Q489 1604 499 1626T526 1664T565 1690T612 1700Q639 1700 662 1691T701 1665T727 1626T737 1579Q737 1552 728 1530T701 1491T662 1465T614 1456Z"/><glyph unicode="ė" horiz-adv-x="1053" d="M541 -16Q437 -16 352 20T206 123T112 281T78 487Q78 615 114 715T214 885T362 991T545 1028Q644 1028 722 994T855 897T943 748T983 555Q985 538 984 521T985 487H240Q243 296 325 200T555 104Q597 104 636 114T711 147T776 209T827 303L967 283Q914 136 803 60T541 -16ZM823 596Q811 743 739 825T545 907Q484 907 432 885T339 823T275 725T246 596H823ZM526 1108Q499 1108 476 1117T437 1144T411 1183T401 1231Q401 1256 411 1278T438 1316T477 1342T524 1352Q551 1352 574 1343T613 1317T639 1278T649 1231Q649 1204 640 1182T613 1143T574 1117T526 1108Z"/><glyph unicode="Ę" horiz-adv-x="1122" d="M997 -315Q944 -315 908 -305T848 -275T815 -229T805 -166Q805 -65 954 0H170V1366H1034V1219H340V780H858V641H340V141H1053V0Q1028 -16 1006 -32T966 -65T938 -102T928 -143Q928 -164 933 -180T952 -207T986 -223T1040 -229Q1065 -229 1085 -226T1120 -219L1141 -283Q1107 -297 1073 -306T997 -315Z"/><glyph unicode="ę" horiz-adv-x="1053" d="M541 -16Q437 -16 352 20T206 123T112 281T78 487Q78 615 114 715T214 885T362 991T545 1028Q644 1028 722 994T855 897T943 748T983 555Q985 538 984 521T985 487H240Q243 296 325 200T555 104Q597 104 636 114T711 147T776 209T827 303L967 283Q923 164 842 91T649 -6Q628 -27 609 -50T574 -95T549 -139T539 -176Q539 -197 544 -213T563 -240T597 -256T651 -262Q676 -262 696 -259T731 -252L752 -315Q718 -329 684 -338T608 -348Q555 -348 519 -338T459 -308T426 -262T416 -199Q416 -175 425 -150T452 -100T495 -55T553 -16H541ZM823 596Q811 743 739 825T545 907Q484 907 432 885T339 823T275 725T246 596H823Z"/><glyph unicode="Ě" horiz-adv-x="1122" d="M170 0V1366H1034V1219H340V780H858V641H340V141H1053V0H170ZM561 1456L291 1646L358 1716L561 1601L764 1716L831 1646L561 1456Z"/><glyph unicode="ě" horiz-adv-x="1053" d="M541 -16Q437 -16 352 20T206 123T112 281T78 487Q78 615 114 715T214 885T362 991T545 1028Q644 1028 722 994T855 897T943 748T983 555Q985 538 984 521T985 487H240Q243 296 325 200T555 104Q597 104 636 114T711 147T776 209T827 303L967 283Q914 136 803 60T541 -16ZM823 596Q811 743 739 825T545 907Q484 907 432 885T339 823T275 725T246 596H823ZM526 1108L256 1298L323 1368L526 1253L729 1368L796 1298L526 1108Z"/><glyph unicode="Ĝ" horiz-adv-x="1325" d="M645 -23Q515 -23 412 22T236 157T125 377T86 680Q86 846 125 978T239 1202T425 1343T678 1393Q1059 1393 1169 995L1004 954Q988 1018 958 1071T885 1163T787 1223T666 1245Q567 1245 493 1207T368 1097T293 921T268 686Q268 541 295 434T372 256T495 150T657 115Q734 115 798 139T910 209T983 317T1010 459Q1010 471 1010 482T1009 502Q1008 512 1008 520H670V659H1182V-2H1077L1032 152Q963 60 870 19T645 -23ZM461 1452L394 1522L664 1710L934 1522L867 1452L664 1567L461 1452Z"/><glyph unicode="ĝ" horiz-adv-x="1006" d="M528 -381Q293 -381 173 -319T53 -139Q53 -64 105 -10T250 68Q172 89 139 131T106 231Q106 263 118 290T152 340T203 378T266 403Q192 442 156 515T119 682Q119 760 149 823T231 932T351 1003T496 1028Q553 1028 606 1016T707 979Q716 1021 732 1054T777 1110T849 1146T958 1157H983L985 1024Q976 1026 968 1027T950 1028Q912 1029 884 1022T837 999T806 963T788 913Q829 878 855 819T881 682Q881 607 856 544T783 434T667 362T512 336Q487 336 464 338T420 343T386 349T365 354Q345 354 325 347T289 327T264 296T254 254Q254 220 277 202T343 174T447 163T586 158Q706 156 789 142T924 98T999 25T1022 -82Q1022 -148 991 -203T898 -297T744 -359T528 -381ZM504 442Q612 442 671 503T731 680Q731 726 717 768T675 842T604 894T504 913Q448 913 405 895T334 846T291 772T276 682Q276 623 292 578T339 503T411 458T504 442ZM516 -274Q600 -274 666 -262T777 -227T846 -173T870 -102Q870 -77 863 -58T834 -24T776 0T680 16T538 26T340 33Q310 24 284 12T240 -19T210 -62T199 -121Q199 -157 217 -185T273 -233T371 -263T516 -274ZM556 1104L489 1174L759 1362L1029 1174L962 1104L759 1219L556 1104Z"/><glyph unicode="Ğ" horiz-adv-x="1325" d="M645 -23Q515 -23 412 22T236 157T125 377T86 680Q86 846 125 978T239 1202T425 1343T678 1393Q1059 1393 1169 995L1004 954Q988 1018 958 1071T885 1163T787 1223T666 1245Q567 1245 493 1207T368 1097T293 921T268 686Q268 541 295 434T372 256T495 150T657 115Q734 115 798 139T910 209T983 317T1010 459Q1010 471 1010 482T1009 502Q1008 512 1008 520H670V659H1182V-2H1077L1032 152Q963 60 870 19T645 -23ZM664 1464Q533 1464 459 1528T365 1718H480Q497 1646 539 1616T664 1585Q706 1585 737 1592T790 1614T827 1655T850 1718H963Q943 1594 869 1529T664 1464Z"/><glyph unicode="ğ" horiz-adv-x="1006" d="M528 -381Q293 -381 173 -319T53 -139Q53 -64 105 -10T250 68Q172 89 139 131T106 231Q106 263 118 290T152 340T203 378T266 403Q192 442 156 515T119 682Q119 760 149 823T231 932T351 1003T496 1028Q553 1028 606 1016T707 979Q716 1021 732 1054T777 1110T849 1146T958 1157H983L985 1024Q976 1026 968 1027T950 1028Q912 1029 884 1022T837 999T806 963T788 913Q829 878 855 819T881 682Q881 607 856 544T783 434T667 362T512 336Q487 336 464 338T420 343T386 349T365 354Q345 354 325 347T289 327T264 296T254 254Q254 220 277 202T343 174T447 163T586 158Q706 156 789 142T924 98T999 25T1022 -82Q1022 -148 991 -203T898 -297T744 -359T528 -381ZM504 442Q612 442 671 503T731 680Q731 726 717 768T675 842T604 894T504 913Q448 913 405 895T334 846T291 772T276 682Q276 623 292 578T339 503T411 458T504 442ZM516 -274Q600 -274 666 -262T777 -227T846 -173T870 -102Q870 -77 863 -58T834 -24T776 0T680 16T538 26T340 33Q310 24 284 12T240 -19T210 -62T199 -121Q199 -157 217 -185T273 -233T371 -263T516 -274ZM759 1116Q628 1116 554 1180T460 1370H575Q592 1298 634 1268T759 1237Q801 1237 832 1244T885 1266T922 1307T945 1370H1058Q1038 1246 964 1181T759 1116Z"/><glyph unicode="Ġ" horiz-adv-x="1325" d="M645 -23Q515 -23 412 22T236 157T125 377T86 680Q86 846 125 978T239 1202T425 1343T678 1393Q1059 1393 1169 995L1004 954Q988 1018 958 1071T885 1163T787 1223T666 1245Q567 1245 493 1207T368 1097T293 921T268 686Q268 541 295 434T372 256T495 150T657 115Q734 115 798 139T910 209T983 317T1010 459Q1010 471 1010 482T1009 502Q1008 512 1008 520H670V659H1182V-2H1077L1032 152Q963 60 870 19T645 -23ZM664 1456Q637 1456 614 1465T575 1492T549 1531T539 1579Q539 1604 549 1626T576 1664T615 1690T662 1700Q689 1700 712 1691T751 1665T777 1626T787 1579Q787 1552 778 1530T751 1491T712 1465T664 1456Z"/><glyph unicode="ġ" horiz-adv-x="1006" d="M528 -381Q293 -381 173 -319T53 -139Q53 -64 105 -10T250 68Q172 89 139 131T106 231Q106 263 118 290T152 340T203 378T266 403Q192 442 156 515T119 682Q119 760 149 823T231 932T351 1003T496 1028Q553 1028 606 1016T707 979Q716 1021 732 1054T777 1110T849 1146T958 1157H983L985 1024Q976 1026 968 1027T950 1028Q912 1029 884 1022T837 999T806 963T788 913Q829 878 855 819T881 682Q881 607 856 544T783 434T667 362T512 336Q487 336 464 338T420 343T386 349T365 354Q345 354 325 347T289 327T264 296T254 254Q254 220 277 202T343 174T447 163T586 158Q706 156 789 142T924 98T999 25T1022 -82Q1022 -148 991 -203T898 -297T744 -359T528 -381ZM504 442Q612 442 671 503T731 680Q731 726 717 768T675 842T604 894T504 913Q448 913 405 895T334 846T291 772T276 682Q276 623 292 578T339 503T411 458T504 442ZM516 -274Q600 -274 666 -262T777 -227T846 -173T870 -102Q870 -77 863 -58T834 -24T776 0T680 16T538 26T340 33Q310 24 284 12T240 -19T210 -62T199 -121Q199 -157 217 -185T273 -233T371 -263T516 -274ZM761 1108Q734 1108 711 1117T672 1144T646 1183T636 1231Q636 1256 646 1278T673 1316T712 1342T759 1352Q786 1352 809 1343T848 1317T874 1278T884 1231Q884 1204 875 1182T848 1143T809 1117T761 1108Z"/><glyph unicode="Ģ" horiz-adv-x="1325" d="M645 -23Q515 -23 412 22T236 157T125 377T86 680Q86 846 125 978T239 1202T425 1343T678 1393Q1059 1393 1169 995L1004 954Q988 1018 958 1071T885 1163T787 1223T666 1245Q567 1245 493 1207T368 1097T293 921T268 686Q268 541 295 434T372 256T495 150T657 115Q734 115 798 139T910 209T983 317T1010 459Q1010 471 1010 482T1009 502Q1008 512 1008 520H670V659H1182V-2H1077L1032 152Q963 60 870 19T645 -23ZM529 -518L639 -287H562V-84H762V-268L627 -518H529Z"/><glyph unicode="ģ" horiz-adv-x="1006" d="M401 1309L537 1559H635L524 1327H602V1124H401V1309ZM528 -381Q293 -381 173 -319T53 -139Q53 -64 105 -10T250 68Q172 89 139 131T106 231Q106 263 118 290T152 340T203 378T266 403Q192 442 156 515T119 682Q119 760 149 823T231 932T351 1003T496 1028Q553 1028 606 1016T707 979Q716 1021 732 1054T777 1110T849 1146T958 1157H983L985 1024Q976 1026 968 1027T950 1028Q912 1029 884 1022T837 999T806 963T788 913Q829 878 855 819T881 682Q881 607 856 544T783 434T667 362T512 336Q487 336 464 338T420 343T386 349T365 354Q345 354 325 347T289 327T264 296T254 254Q254 220 277 202T343 174T447 163T586 158Q706 156 789 142T924 98T999 25T1022 -82Q1022 -148 991 -203T898 -297T744 -359T528 -381ZM504 442Q612 442 671 503T731 680Q731 726 717 768T675 842T604 894T504 913Q448 913 405 895T334 846T291 772T276 682Q276 623 292 578T339 503T411 458T504 442ZM516 -274Q600 -274 666 -262T777 -227T846 -173T870 -102Q870 -77 863 -58T834 -24T776 0T680 16T538 26T340 33Q310 24 284 12T240 -19T210 -62T199 -121Q199 -157 217 -185T273 -233T371 -263T516 -274Z"/><glyph unicode="Ĥ" horiz-adv-x="1315" d="M170 0V1366H340V801H975V1366H1145V0H975V649H340V0H170ZM454 1452L387 1522L657 1710L927 1522L860 1452L657 1567L454 1452Z"/><glyph unicode="ĥ" horiz-adv-x="1112" d="M154 0V1366H307V811Q332 850 367 889T450 958T555 1008T684 1028Q761 1028 814 1005T900 940T948 844T963 727V0H803V715Q803 808 760 851T639 895Q586 895 541 880T455 838T380 773T313 690V0H154ZM27 1452L-40 1522L230 1710L500 1522L433 1452L230 1567L27 1452Z"/><glyph unicode="Ħ" horiz-adv-x="1315" d="M170 0V1014H35V1153H170V1366H340V1153H975V1366H1145V1153H1280V1014H1145V0H975V649H340V0H170ZM975 801V1014H340V801H975Z"/><glyph unicode="ħ" horiz-adv-x="1112" d="M154 0V1106H82V1229H154V1366H307V1229H686V1106H307V811Q332 850 367 889T450 958T555 1008T684 1028Q761 1028 814 1005T900 940T948 844T963 727V0H803V715Q803 808 760 851T639 895Q586 895 541 880T455 838T380 773T313 690V0H154Z"/><glyph unicode="Ĩ" horiz-adv-x="514" d="M172 0V1366H342V0H172ZM404 1472Q358 1472 326 1484T264 1510T205 1536T136 1548Q89 1548 60 1527T5 1476L-79 1536Q-34 1601 22 1633T132 1665Q178 1665 211 1654T274 1628T332 1603T400 1591Q437 1591 465 1607T519 1646L595 1573Q548 1526 501 1499T404 1472Z"/><glyph unicode="ĩ" horiz-adv-x="473" d="M158 0V1010H317V0H158ZM384 1124Q338 1124 306 1136T244 1162T185 1188T116 1200Q69 1200 40 1179T-15 1128L-99 1188Q-54 1253 2 1285T112 1317Q158 1317 191 1306T254 1280T312 1255T380 1243Q417 1243 445 1259T499 1298L575 1225Q528 1178 481 1151T384 1124Z"/><glyph unicode="Ī" horiz-adv-x="514" d="M172 0V1366H342V0H172ZM-54 1515V1626H566V1515H-54Z"/><glyph unicode="ī" horiz-adv-x="473" d="M158 0V1010H317V0H158ZM-74 1167V1278H546V1167H-74Z"/><glyph unicode="Ĭ" horiz-adv-x="514" d="M172 0V1366H342V0H172ZM257 1464Q126 1464 52 1528T-42 1718H73Q90 1646 132 1616T257 1585Q299 1585 330 1592T383 1614T420 1655T443 1718H556Q536 1594 462 1529T257 1464Z"/><glyph unicode="ĭ" horiz-adv-x="473" d="M158 0V1010H317V0H158ZM237 1116Q106 1116 32 1180T-62 1370H53Q70 1298 112 1268T237 1237Q279 1237 310 1244T363 1266T400 1307T423 1370H536Q516 1246 442 1181T237 1116Z"/><glyph unicode="Į" horiz-adv-x="514" d="M289 -315Q236 -315 199 -305T139 -275T106 -229T96 -166Q96 -65 246 0H172V1366H342V0Q318 -16 296 -32T257 -65T230 -102T219 -143Q219 -185 243 -207T332 -229Q357 -229 377 -226T412 -219L432 -283Q398 -297 364 -306T289 -315Z"/><glyph unicode="į" horiz-adv-x="473" d="M264 -315Q211 -315 175 -305T115 -275T82 -229T72 -166Q72 -65 221 0H158V1010H317V0Q293 -16 271 -32T232 -65T205 -102T195 -143Q195 -164 200 -180T219 -207T253 -223T307 -229Q332 -229 352 -226T387 -219L408 -283Q373 -297 339 -306T264 -315ZM150 1188V1368H324V1188H150Z"/><glyph unicode="İ" horiz-adv-x="514" d="M172 0V1366H342V0H172ZM259 1456Q232 1456 209 1465T170 1492T144 1531T134 1579Q134 1604 144 1626T171 1664T210 1690T257 1700Q284 1700 307 1691T346 1665T372 1626T382 1579Q382 1552 373 1530T346 1491T307 1465T259 1456Z"/><glyph unicode="ı" horiz-adv-x="473" d="M158 0V1010H317V0H158Z"/><glyph unicode="Ĳ" horiz-adv-x="1233" d="M172 0V1366H342V0H172ZM711 -27Q629 -27 568 -20T475 -4V137Q491 133 508 130T549 123T603 119T678 117Q735 117 775 130T842 173T880 253T893 375V1366H1063V389Q1063 269 1037 190T961 59Q917 17 857 -5T711 -27Z"/><glyph unicode="ĳ" horiz-adv-x="944" d="M150 1188V1368H324V1188H150ZM158 0V1010H317V0H158ZM618 1188V1368H797V1188H618ZM500 -369Q465 -369 424 -365T348 -354V-229Q380 -232 411 -234T479 -236Q530 -236 559 -219T604 -172T624 -98T629 -4V1010H788V-51Q788 -138 767 -198T709 -297T618 -352T500 -369Z"/><glyph unicode="Ĵ" horiz-adv-x="760" d="M238 -27Q156 -27 95 -20T2 -4V137Q18 133 35 130T76 123T130 119T205 117Q262 117 302 130T369 173T407 253T420 375V1366H590V389Q590 269 564 190T487 59Q444 17 384 -5T238 -27ZM302 1452L235 1522L505 1710L775 1522L708 1452L505 1567L302 1452Z"/><glyph unicode="ĵ" horiz-adv-x="471" d="M27 -369Q-8 -369 -49 -365T-125 -354V-229Q-93 -232 -62 -234T6 -236Q57 -236 86 -219T131 -172T151 -98T156 -4V1010H315V-51Q315 -138 294 -198T236 -297T145 -352T27 -369ZM33 1104L-34 1174L236 1362L506 1174L439 1104L236 1219L33 1104Z"/><glyph unicode="Ķ" horiz-adv-x="1286" d="M170 0V1366H340V582L963 1366H1143L733 842L1249 0H1061L625 717L340 365V0H170ZM510 -518L620 -287H543V-84H743V-268L608 -518H510Z"/><glyph unicode="ķ" horiz-adv-x="1022" d="M154 0V1366H311V575L309 477L367 549L784 1010H950L645 674L981 0H809L537 553L311 311V0H154ZM377 -518L487 -287H410V-84H610V-268L475 -518H377Z"/><glyph unicode="ĸ" horiz-adv-x="1022" d="M154 0V1016H311V575L309 477L367 549L784 1010H950L645 674L981 0H809L537 553L311 311V0H154Z"/><glyph unicode="Ĺ" horiz-adv-x="1001" d="M170 0V1366H340V147H973V0H170ZM368 1446L323 1542L677 1718L743 1585L368 1446Z"/><glyph unicode="ĺ" horiz-adv-x="473" d="M158 0V1366H317V0H158ZM206 1446L161 1542L515 1718L581 1585L206 1446Z"/><glyph unicode="Ļ" horiz-adv-x="1001" d="M170 0V1366H340V147H973V0H170ZM428 -518L538 -287H461V-84H661V-268L526 -518H428Z"/><glyph unicode="ļ" horiz-adv-x="473" d="M158 0V1366H317V0H158ZM360 -518L470 -287H393V-84H593V-268L458 -518H360Z"/><glyph unicode="Ľ" horiz-adv-x="1001" d="M530 932L641 1163H563V1366H764V1182L629 932H530ZM170 0V1366H340V147H973V0H170Z"/><glyph unicode="ľ" horiz-adv-x="535" d="M158 0V1366H317V0H158ZM401 952L506 1174H432V1366H623V1190L494 952H401Z"/><glyph unicode="Ŀ" horiz-adv-x="1001" d="M170 0V1366H340V147H973V0H170ZM758 602Q731 602 708 611T669 638T643 677T633 725Q633 750 643 772T670 811T709 836T756 846Q783 846 805 837T845 811T871 773T881 725Q881 698 871 676T845 637T806 611T758 602Z"/><glyph unicode="ŀ" horiz-adv-x="612" d="M158 0V1366H317V0H158ZM545 604Q518 604 495 613T456 640T430 679T420 727Q420 752 430 774T457 813T496 838T543 848Q570 848 592 839T632 813T658 775T668 727Q668 700 658 678T632 639T593 613T545 604Z"/><glyph unicode="Ł" horiz-adv-x="1001" d="M170 0V510L37 399V563L170 674V1366H340V815L604 1032V868L340 649V147H973V0H170Z"/><glyph unicode="ł" horiz-adv-x="473" d="M158 0V594L25 465V614L158 745V1366H317V836L451 961V811L317 686V0H158Z"/><glyph unicode="Ń" horiz-adv-x="1346" d="M170 0V1366H385L981 381Q986 373 994 358T1010 326Q1019 308 1028 287Q1027 302 1027 322T1026 366T1026 414T1026 459V1366H1178V0H1012L377 1053Q371 1061 362 1078T342 1112Q331 1132 319 1155Q321 1099 321 1066T322 1004V0H170ZM539 1446L494 1542L848 1718L914 1585L539 1446Z"/><glyph unicode="ń" horiz-adv-x="1110" d="M154 0V1010H305V809Q331 846 367 885T451 956T555 1008T680 1028Q961 1028 961 715V0H801V717Q801 808 761 851T633 895Q585 895 541 881T456 839T380 775T313 692V0H154ZM422 1098L377 1194L731 1370L797 1237L422 1098Z"/><glyph unicode="Ņ" horiz-adv-x="1346" d="M170 0V1366H385L981 381Q986 373 994 358T1010 326Q1019 308 1028 287Q1027 302 1027 322T1026 366T1026 414T1026 459V1366H1178V0H1012L377 1053Q371 1061 362 1078T342 1112Q331 1132 319 1155Q321 1099 321 1066T322 1004V0H170ZM539 -518L649 -287H572V-84H772V-268L637 -518H539Z"/><glyph unicode="ņ" horiz-adv-x="1110" d="M154 0V1010H305V809Q331 846 367 885T451 956T555 1008T680 1028Q961 1028 961 715V0H801V717Q801 808 761 851T633 895Q585 895 541 881T456 839T380 775T313 692V0H154ZM422 -518L532 -287H455V-84H655V-268L520 -518H422Z"/><glyph unicode="Ň" horiz-adv-x="1346" d="M170 0V1366H385L981 381Q986 373 994 358T1010 326Q1019 308 1028 287Q1027 302 1027 322T1026 366T1026 414T1026 459V1366H1178V0H1012L377 1053Q371 1061 362 1078T342 1112Q331 1132 319 1155Q321 1099 321 1066T322 1004V0H170ZM672 1456L402 1646L469 1716L672 1601L875 1716L942 1646L672 1456Z"/><glyph unicode="ň" horiz-adv-x="1110" d="M154 0V1010H305V809Q331 846 367 885T451 956T555 1008T680 1028Q961 1028 961 715V0H801V717Q801 808 761 851T633 895Q585 895 541 881T456 839T380 775T313 692V0H154ZM555 1108L285 1298L352 1368L555 1253L758 1368L825 1298L555 1108Z"/><glyph unicode="ŉ" horiz-adv-x="1370" d="M414 0V1010H565V809Q591 846 627 885T711 956T815 1008T940 1028Q1221 1028 1221 715V0H1061V717Q1061 808 1021 851T893 895Q845 895 801 881T716 839T640 775T573 692V0H414ZM339 903L437 1141H361V1366H562V1141L429 903H339Z"/><glyph unicode="Ŋ" horiz-adv-x="1346" d="M170 0V1366H385L1026 317Q1025 332 1025 351T1025 389T1025 426T1026 459V1366H1178V-51Q1178 -138 1157 -198T1098 -297T1007 -352T889 -369Q854 -369 813 -365T737 -354V-229Q769 -232 804 -234T877 -236Q928 -236 957 -219T1002 -172T1021 -98T1026 -4V0L377 1053Q371 1060 362 1076T344 1108T328 1138T319 1153Q321 1099 321 1066T322 1004V0H170Z"/><glyph unicode="ŋ" horiz-adv-x="1110" d="M672 -369Q637 -369 596 -365T520 -354V-229Q552 -232 583 -234T651 -236Q702 -236 731 -219T776 -172T796 -98T801 -4V717Q801 808 761 851T633 895Q585 895 541 881T456 839T380 775T313 692V0H154V1010H305V809Q331 846 367 885T451 956T555 1008T680 1028Q961 1028 961 715V-51Q961 -138 940 -198T881 -297T790 -352T672 -369Z"/><glyph unicode="Ō" horiz-adv-x="1292" d="M645 -27Q520 -27 418 21T241 161T127 384T86 682Q86 848 128 979T244 1203T421 1344T645 1393Q769 1393 872 1345T1050 1204T1165 980T1206 682Q1206 524 1165 394T1049 170T871 25T645 -27ZM645 113Q734 113 805 152T925 265T1001 444T1028 682Q1028 815 1004 920T933 1098T813 1210T645 1249Q550 1249 479 1209T360 1095T288 916T264 682Q264 539 294 433T375 255T496 149T645 113ZM334 1515V1626H954V1515H334Z"/><glyph unicode="ō" horiz-adv-x="1061" d="M528 -16Q430 -16 348 21T205 127T110 293T76 510Q76 628 112 724T209 887T353 991T528 1028Q632 1028 716 991T860 885T952 721T985 508Q985 389 949 292T850 127T705 21T528 -16ZM526 102Q588 102 641 127T734 204T795 331T817 510Q817 608 795 682T735 805T643 878T526 903Q466 903 415 878T325 803T266 679T244 508Q244 413 264 338T321 210T410 130T526 102ZM219 1167V1278H839V1167H219Z"/><glyph unicode="Ŏ" horiz-adv-x="1292" d="M645 -27Q520 -27 418 21T241 161T127 384T86 682Q86 848 128 979T244 1203T421 1344T645 1393Q769 1393 872 1345T1050 1204T1165 980T1206 682Q1206 524 1165 394T1049 170T871 25T645 -27ZM645 113Q734 113 805 152T925 265T1001 444T1028 682Q1028 815 1004 920T933 1098T813 1210T645 1249Q550 1249 479 1209T360 1095T288 916T264 682Q264 539 294 433T375 255T496 149T645 113ZM647 1464Q516 1464 442 1528T348 1718H463Q480 1646 522 1616T647 1585Q689 1585 720 1592T773 1614T810 1655T833 1718H946Q926 1594 852 1529T647 1464Z"/><glyph unicode="ŏ" horiz-adv-x="1061" d="M528 -16Q430 -16 348 21T205 127T110 293T76 510Q76 628 112 724T209 887T353 991T528 1028Q632 1028 716 991T860 885T952 721T985 508Q985 389 949 292T850 127T705 21T528 -16ZM526 102Q588 102 641 127T734 204T795 331T817 510Q817 608 795 682T735 805T643 878T526 903Q466 903 415 878T325 803T266 679T244 508Q244 413 264 338T321 210T410 130T526 102ZM530 1116Q399 1116 325 1180T231 1370H346Q363 1298 405 1268T530 1237Q572 1237 603 1244T656 1266T693 1307T716 1370H829Q809 1246 735 1181T530 1116Z"/><glyph unicode="Ő" horiz-adv-x="1292" d="M645 -27Q520 -27 418 21T241 161T127 384T86 682Q86 848 128 979T244 1203T421 1344T645 1393Q769 1393 872 1345T1050 1204T1165 980T1206 682Q1206 524 1165 394T1049 170T871 25T645 -27ZM645 113Q734 113 805 152T925 265T1001 444T1028 682Q1028 815 1004 920T933 1098T813 1210T645 1249Q550 1249 479 1209T360 1095T288 916T264 682Q264 539 294 433T375 255T496 149T645 113ZM743 1452L692 1530L995 1761L1065 1653L743 1452ZM416 1452L364 1530L668 1761L737 1653L416 1452Z"/><glyph unicode="ő" horiz-adv-x="1061" d="M528 -16Q430 -16 348 21T205 127T110 293T76 510Q76 628 112 724T209 887T353 991T528 1028Q632 1028 716 991T860 885T952 721T985 508Q985 389 949 292T850 127T705 21T528 -16ZM526 102Q588 102 641 127T734 204T795 331T817 510Q817 608 795 682T735 805T643 878T526 903Q466 903 415 878T325 803T266 679T244 508Q244 413 264 338T321 210T410 130T526 102ZM628 1104L577 1182L880 1413L950 1305L628 1104ZM301 1104L249 1182L553 1413L622 1305L301 1104Z"/><glyph unicode="Œ" horiz-adv-x="1995" d="M684 -23Q549 -23 439 27T250 171T129 401T86 707Q86 801 105 889T161 1053T249 1191T368 1299T513 1368T682 1393Q801 1393 897 1352T1065 1223V1366H1905V1219H1219V784H1743V643H1219V143H1925V0H1065V152Q1035 110 993 77T901 22T796 -11T684 -23ZM696 117Q759 117 815 135T918 186T998 268T1053 379Q1054 383 1054 416T1055 496T1055 597T1055 698Q1055 743 1055 792T1055 885T1055 957T1053 989Q1038 1052 1003 1100T918 1182T811 1232T692 1249Q590 1249 511 1208T376 1094T293 920T264 700Q264 562 292 454T376 271T512 157T696 117Z"/><glyph unicode="œ" horiz-adv-x="1778" d="M520 -16Q422 -16 341 20T201 125T109 290T76 510Q76 633 111 729T208 892T352 993T528 1028Q592 1028 649 1011T754 961T838 882T897 778Q918 833 954 879T1038 958T1147 1009T1278 1028Q1372 1028 1446 996T1575 904T1662 761T1706 575Q1708 554 1709 532T1710 487H973Q973 383 998 311T1065 193T1162 127T1278 106Q1324 106 1365 116T1440 150T1502 212T1550 305L1692 285Q1668 213 1628 157T1534 62T1414 4T1272 -16Q1195 -16 1134 3T1025 54T945 129T893 221Q869 171 833 128T750 53T645 3T520 -16ZM528 102Q593 102 645 128T734 207T791 335T811 510Q811 607 790 680T732 803T642 878T528 903Q465 903 412 879T321 806T262 683T240 508Q240 405 261 329T319 202T410 127T528 102ZM1550 598Q1544 667 1524 724T1470 821T1387 884T1276 907Q1221 907 1171 889T1080 832T1013 736T979 598H1550Z"/><glyph unicode="Ŕ" horiz-adv-x="1255" d="M170 0V1366H707Q809 1366 888 1338T1022 1260T1104 1143T1133 997Q1133 937 1116 883T1067 784T986 708T874 662L1151 0H979L719 633Q662 630 624 630T551 629H334V0H170ZM334 768H684Q823 768 892 828T961 999Q961 1103 895 1158T707 1214H334V768ZM494 1446L449 1542L803 1718L869 1585L494 1446Z"/><glyph unicode="ŕ" horiz-adv-x="686" d="M154 0V1010H305V793Q330 837 364 879T440 955T530 1008T633 1028Q647 1028 657 1028T680 1026V881Q671 883 658 883T635 883Q545 883 461 825T313 659V0H154ZM249 1098L204 1194L558 1370L624 1237L249 1098Z"/><glyph unicode="Ŗ" horiz-adv-x="1255" d="M170 0V1366H707Q809 1366 888 1338T1022 1260T1104 1143T1133 997Q1133 937 1116 883T1067 784T986 708T874 662L1151 0H979L719 633Q662 630 624 630T551 629H334V0H170ZM334 768H684Q823 768 892 828T961 999Q961 1103 895 1158T707 1214H334V768ZM494 -518L604 -287H527V-84H727V-268L592 -518H494Z"/><glyph unicode="ŗ" horiz-adv-x="686" d="M154 0V1010H305V793Q330 837 364 879T440 955T530 1008T633 1028Q647 1028 657 1028T680 1026V881Q671 883 658 883T635 883Q545 883 461 825T313 659V0H154ZM362 -518L472 -287H395V-84H595V-268L460 -518H362Z"/><glyph unicode="Ř" horiz-adv-x="1255" d="M170 0V1366H707Q809 1366 888 1338T1022 1260T1104 1143T1133 997Q1133 937 1116 883T1067 784T986 708T874 662L1151 0H979L719 633Q662 630 624 630T551 629H334V0H170ZM334 768H684Q823 768 892 828T961 999Q961 1103 895 1158T707 1214H334V768ZM627 1456L357 1646L424 1716L627 1601L830 1716L897 1646L627 1456Z"/><glyph unicode="ř" horiz-adv-x="686" d="M154 0V1010H305V793Q330 837 364 879T440 955T530 1008T633 1028Q647 1028 657 1028T680 1026V881Q671 883 658 883T635 883Q545 883 461 825T313 659V0H154ZM382 1108L112 1298L179 1368L382 1253L585 1368L652 1298L382 1108Z"/><glyph unicode="Ś" horiz-adv-x="1143" d="M588 -23Q477 -23 388 -1T229 65T110 173T25 324L170 381Q194 319 228 270T313 187T432 135T590 117Q665 117 725 132T828 178T892 253T915 356Q915 420 887 463T809 536T688 589T532 635Q438 659 357 689T217 765T124 875T90 1030Q90 1113 124 1180T219 1294T364 1367T547 1393Q740 1393 868 1306T1047 1057L889 1008Q874 1065 843 1110T767 1187T666 1234T545 1251Q480 1251 428 1236T338 1193T281 1129T260 1049Q260 992 280 952T345 881T463 825T641 772Q749 743 831 709T970 629T1054 520T1083 371Q1083 280 1050 207T952 83T797 5T588 -23ZM438 1446L393 1542L747 1718L813 1585L438 1446Z"/><glyph unicode="ś" horiz-adv-x="940" d="M473 -16Q280 -16 164 58T10 272L154 301Q166 256 193 220T260 157T354 117T473 102Q533 102 581 115T662 151T713 208T731 281Q731 326 708 355T645 403T554 434T446 459Q369 474 300 493T179 544T97 626T66 750Q66 812 93 863T169 951T287 1008T440 1028Q525 1028 593 1010T711 959T796 877T850 770L709 739Q680 820 612 863T440 907Q389 907 348 897T276 868T230 822T213 760Q213 718 234 692T294 649T383 619T496 594Q573 579 642 559T764 505T848 421T879 295Q879 225 850 168T768 70T640 7T473 -16ZM593 1098L548 1194L902 1370L968 1237L593 1098Z"/><glyph unicode="Ŝ" horiz-adv-x="1143" d="M588 -23Q477 -23 388 -1T229 65T110 173T25 324L170 381Q194 319 228 270T313 187T432 135T590 117Q665 117 725 132T828 178T892 253T915 356Q915 420 887 463T809 536T688 589T532 635Q438 659 357 689T217 765T124 875T90 1030Q90 1113 124 1180T219 1294T364 1367T547 1393Q740 1393 868 1306T1047 1057L889 1008Q874 1065 843 1110T767 1187T666 1234T545 1251Q480 1251 428 1236T338 1193T281 1129T260 1049Q260 992 280 952T345 881T463 825T641 772Q749 743 831 709T970 629T1054 520T1083 371Q1083 280 1050 207T952 83T797 5T588 -23ZM348 1452L281 1522L551 1710L821 1522L754 1452L551 1567L348 1452Z"/><glyph unicode="ŝ" horiz-adv-x="940" d="M473 -16Q280 -16 164 58T10 272L154 301Q166 256 193 220T260 157T354 117T473 102Q533 102 581 115T662 151T713 208T731 281Q731 326 708 355T645 403T554 434T446 459Q369 474 300 493T179 544T97 626T66 750Q66 812 93 863T169 951T287 1008T440 1028Q525 1028 593 1010T711 959T796 877T850 770L709 739Q680 820 612 863T440 907Q389 907 348 897T276 868T230 822T213 760Q213 718 234 692T294 649T383 619T496 594Q573 579 642 559T764 505T848 421T879 295Q879 225 850 168T768 70T640 7T473 -16ZM503 1104L436 1174L706 1362L976 1174L909 1104L706 1219L503 1104Z"/><glyph unicode="Ş" horiz-adv-x="1143" d="M571 -373Q534 -373 507 -370T458 -362T419 -350T387 -336L412 -270Q440 -280 473 -288T561 -297Q599 -297 628 -279T657 -223Q657 -212 653 -201T637 -180T607 -166T559 -160Q528 -160 501 -163T465 -168L514 -20Q323 -7 205 80T25 324L170 381Q194 319 228 270T313 187T432 135T590 117Q665 117 725 132T828 178T892 253T915 356Q915 420 887 463T809 536T688 589T532 635Q438 659 357 689T217 765T124 875T90 1030Q90 1113 124 1180T219 1294T364 1367T547 1393Q740 1393 868 1306T1047 1057L889 1008Q874 1065 843 1110T767 1187T666 1234T545 1251Q480 1251 428 1236T338 1193T281 1129T260 1049Q260 992 280 952T345 881T463 825T641 772Q749 743 831 709T970 629T1054 520T1083 371Q1083 281 1050 209T954 85T800 6T594 -23L573 -94Q581 -92 593 -91T616 -92Q690 -95 724 -130T758 -215Q758 -244 748 -272T716 -323T659 -359T571 -373Z"/><glyph unicode="ş" horiz-adv-x="940" d="M469 -373Q432 -373 405 -370T356 -362T317 -350T285 -336L309 -270Q337 -280 371 -288T459 -297Q497 -297 526 -279T555 -223Q555 -212 551 -201T535 -180T505 -166T457 -160Q426 -160 399 -163T362 -168L412 -14Q247 -3 146 70T10 272L154 301Q166 256 193 220T260 157T354 117T473 102Q533 102 581 115T662 151T713 208T731 281Q731 326 708 355T645 403T554 434T446 459Q369 474 300 493T179 544T97 626T66 750Q66 812 93 863T169 951T287 1008T440 1028Q525 1028 593 1010T711 959T796 877T850 770L709 739Q680 820 612 863T440 907Q389 907 348 897T276 868T230 822T213 760Q213 718 234 692T294 649T383 619T496 594Q573 579 642 559T764 505T848 421T879 295Q879 227 852 171T774 75T653 11T494 -16L471 -94Q479 -92 491 -91T514 -92Q587 -95 621 -130T655 -215Q655 -244 645 -272T613 -323T556 -359T469 -373Z"/><glyph unicode="Š" horiz-adv-x="1143" d="M588 -23Q477 -23 388 -1T229 65T110 173T25 324L170 381Q194 319 228 270T313 187T432 135T590 117Q665 117 725 132T828 178T892 253T915 356Q915 420 887 463T809 536T688 589T532 635Q438 659 357 689T217 765T124 875T90 1030Q90 1113 124 1180T219 1294T364 1367T547 1393Q740 1393 868 1306T1047 1057L889 1008Q874 1065 843 1110T767 1187T666 1234T545 1251Q480 1251 428 1236T338 1193T281 1129T260 1049Q260 992 280 952T345 881T463 825T641 772Q749 743 831 709T970 629T1054 520T1083 371Q1083 280 1050 207T952 83T797 5T588 -23ZM561 1456L291 1646L358 1716L561 1601L764 1716L831 1646L561 1456Z"/><glyph unicode="š" horiz-adv-x="940" d="M473 -16Q280 -16 164 58T10 272L154 301Q166 256 193 220T260 157T354 117T473 102Q533 102 581 115T662 151T713 208T731 281Q731 326 708 355T645 403T554 434T446 459Q369 474 300 493T179 544T97 626T66 750Q66 812 93 863T169 951T287 1008T440 1028Q525 1028 593 1010T711 959T796 877T850 770L709 739Q680 820 612 863T440 907Q389 907 348 897T276 868T230 822T213 760Q213 718 234 692T294 649T383 619T496 594Q573 579 642 559T764 505T848 421T879 295Q879 225 850 168T768 70T640 7T473 -16ZM720 1108L450 1298L517 1368L720 1253L923 1368L990 1298L720 1108Z"/><glyph unicode="Ţ" horiz-adv-x="993" d="M412 0V1221H20V1366H973V1221H582V0H412ZM363 -518L473 -287H396V-84H596V-268L461 -518H363Z"/><glyph unicode="ţ" horiz-adv-x="631" d="M436 -14Q372 -14 323 2T239 54T186 145T168 279V883H4V1010H170L178 1274H324V1010H551V883H324V270Q324 190 362 154T465 115Q500 115 540 118T608 127V2Q566 -6 522 -10T436 -14ZM182 -518L292 -287H215V-84H415V-268L280 -518H182Z"/><glyph unicode="Ť" horiz-adv-x="993" d="M412 0V1221H20V1366H973V1221H582V0H412ZM497 1456L227 1646L294 1716L497 1601L700 1716L767 1646L497 1456Z"/><glyph unicode="ť" horiz-adv-x="631" d="M401 1137L506 1358H432V1550H623V1374L494 1137H401ZM436 -14Q372 -14 323 2T239 54T186 145T168 279V883H4V1010H170L178 1274H324V1010H551V883H324V270Q324 190 362 154T465 115Q500 115 540 118T608 127V2Q566 -6 522 -10T436 -14Z"/><glyph unicode="Ŧ" horiz-adv-x="993" d="M412 0V655H82V795H412V1221H20V1366H973V1221H582V795H911V655H582V0H412Z"/><glyph unicode="ŧ" horiz-adv-x="631" d="M436 -14Q372 -14 323 2T239 54T186 145T168 279V516H25V639H168V883H4V1010H170L178 1274H324V1010H551V883H324V639H530V516H324V270Q324 190 362 154T465 115Q500 115 540 118T608 127V2Q566 -6 522 -10T436 -14Z"/><glyph unicode="Ũ" horiz-adv-x="1262" d="M639 -23Q525 -23 436 7T286 98T194 253T162 471V1366H332V471Q332 295 406 207T639 119Q721 119 781 143T880 212T937 323T956 471V1366H1110V471Q1110 351 1076 259T980 104T831 9T639 -23ZM778 1472Q732 1472 700 1484T638 1510T579 1536T510 1548Q463 1548 434 1527T379 1476L295 1536Q340 1601 396 1633T506 1665Q552 1665 585 1654T648 1628T706 1603T774 1591Q811 1591 839 1607T893 1646L969 1573Q922 1526 875 1499T778 1472Z"/><glyph unicode="ũ" horiz-adv-x="1098" d="M461 -16Q393 -16 336 2T237 62T173 170T150 332V1010H309V328Q309 208 356 156T510 104Q595 104 666 152T788 293V1010H946V0H799V172Q739 75 651 30T461 -16ZM696 1124Q650 1124 618 1136T556 1162T497 1188T428 1200Q381 1200 352 1179T297 1128L213 1188Q258 1253 314 1285T424 1317Q470 1317 503 1306T566 1280T624 1255T692 1243Q729 1243 757 1259T811 1298L887 1225Q840 1178 793 1151T696 1124Z"/><glyph unicode="Ū" horiz-adv-x="1262" d="M639 -23Q525 -23 436 7T286 98T194 253T162 471V1366H332V471Q332 295 406 207T639 119Q721 119 781 143T880 212T937 323T956 471V1366H1110V471Q1110 351 1076 259T980 104T831 9T639 -23ZM320 1515V1626H940V1515H320Z"/><glyph unicode="ū" horiz-adv-x="1098" d="M461 -16Q393 -16 336 2T237 62T173 170T150 332V1010H309V328Q309 208 356 156T510 104Q595 104 666 152T788 293V1010H946V0H799V172Q739 75 651 30T461 -16ZM238 1167V1278H858V1167H238Z"/><glyph unicode="Ŭ" horiz-adv-x="1262" d="M639 -23Q525 -23 436 7T286 98T194 253T162 471V1366H332V471Q332 295 406 207T639 119Q721 119 781 143T880 212T937 323T956 471V1366H1110V471Q1110 351 1076 259T980 104T831 9T639 -23ZM631 1464Q500 1464 426 1528T332 1718H447Q464 1646 506 1616T631 1585Q673 1585 704 1592T757 1614T794 1655T817 1718H930Q910 1594 836 1529T631 1464Z"/><glyph unicode="ŭ" horiz-adv-x="1098" d="M461 -16Q393 -16 336 2T237 62T173 170T150 332V1010H309V328Q309 208 356 156T510 104Q595 104 666 152T788 293V1010H946V0H799V172Q739 75 651 30T461 -16ZM549 1116Q418 1116 344 1180T250 1370H365Q382 1298 424 1268T549 1237Q591 1237 622 1244T675 1266T712 1307T735 1370H848Q828 1246 754 1181T549 1116Z"/><glyph unicode="Ů" horiz-adv-x="1262" d="M639 -23Q525 -23 436 7T286 98T194 253T162 471V1366H332V471Q332 295 406 207T639 119Q721 119 781 143T880 212T937 323T956 471V1366H1110V471Q1110 351 1076 259T980 104T831 9T639 -23ZM637 1417Q597 1417 564 1431T507 1470T470 1525T457 1589Q457 1626 471 1658T509 1714T566 1751T637 1765Q670 1765 700 1752T753 1716T789 1660T803 1589Q803 1553 790 1522T753 1467T700 1431T637 1417ZM635 1509Q650 1509 664 1515T689 1533T706 1559T713 1591Q713 1625 690 1649T635 1673Q597 1673 573 1649T549 1591Q549 1560 572 1535T635 1509Z"/><glyph unicode="ů" horiz-adv-x="1098" d="M461 -16Q393 -16 336 2T237 62T173 170T150 332V1010H309V328Q309 208 356 156T510 104Q595 104 666 152T788 293V1010H946V0H799V172Q739 75 651 30T461 -16ZM555 1069Q515 1069 482 1083T425 1122T388 1177T375 1241Q375 1278 389 1310T427 1366T484 1403T555 1417Q588 1417 618 1404T671 1368T707 1312T721 1241Q721 1205 708 1174T671 1119T618 1083T555 1069ZM553 1161Q568 1161 582 1167T607 1185T624 1211T631 1243Q631 1277 608 1301T553 1325Q515 1325 491 1301T467 1243Q467 1212 490 1187T553 1161Z"/><glyph unicode="Ű" horiz-adv-x="1262" d="M639 -23Q525 -23 436 7T286 98T194 253T162 471V1366H332V471Q332 295 406 207T639 119Q721 119 781 143T880 212T937 323T956 471V1366H1110V471Q1110 351 1076 259T980 104T831 9T639 -23ZM729 1452L678 1530L981 1761L1051 1653L729 1452ZM402 1452L350 1530L654 1761L723 1653L402 1452Z"/><glyph unicode="ű" horiz-adv-x="1098" d="M461 -16Q393 -16 336 2T237 62T173 170T150 332V1010H309V328Q309 208 356 156T510 104Q595 104 666 152T788 293V1010H946V0H799V172Q739 75 651 30T461 -16ZM647 1104L596 1182L899 1413L969 1305L647 1104ZM320 1104L268 1182L572 1413L641 1305L320 1104Z"/><glyph unicode="Ų" horiz-adv-x="1262" d="M709 -315Q656 -315 619 -305T559 -275T526 -229T516 -166Q516 -80 621 -23Q400 -18 281 103T162 471V1366H332V471Q332 295 406 207T639 119Q721 119 781 143T880 212T937 323T956 471V1366H1110V471Q1110 366 1084 282T1010 137T893 38T741 -14Q720 -28 702 -42T669 -72T647 -105T639 -143Q639 -185 663 -207T752 -229Q776 -229 796 -226T831 -219L852 -283Q818 -297 784 -306T709 -315Z"/><glyph unicode="ų" horiz-adv-x="1098" d="M893 -315Q840 -315 804 -305T744 -275T711 -229T700 -166Q700 -115 738 -74T850 0H799V172Q739 75 651 30T461 -16Q393 -16 336 2T237 62T173 170T150 332V1010H309V328Q309 208 356 156T510 104Q595 104 666 152T788 293V1010H946V0Q922 -16 900 -32T861 -65T834 -102T823 -143Q823 -185 847 -207T936 -229Q961 -229 981 -226T1016 -219L1036 -283Q1002 -297 968 -306T893 -315Z"/><glyph unicode="Ŵ" horiz-adv-x="1649" d="M375 0L31 1366H201L449 379L477 260L508 375L772 1366H911L1190 362L1217 258L1241 362L1470 1366H1626L1296 0H1124L860 965L836 1053L811 965L549 0H375ZM622 1452L555 1522L825 1710L1095 1522L1028 1452L825 1567L622 1452Z"/><glyph unicode="ŵ" horiz-adv-x="1343" d="M317 0L12 1010H174L375 319L397 227L422 319L614 1010H745L952 313L975 223L1001 309L1198 1010H1335L1034 0H899L694 684L670 776L649 688L453 0H317ZM469 1104L402 1174L672 1362L942 1174L875 1104L672 1219L469 1104Z"/><glyph unicode="Ŷ" horiz-adv-x="1042" d="M436 0V575L-23 1366H168L461 854L535 719L608 854L907 1366H1065L608 575V0H436ZM319 1452L252 1522L522 1710L792 1522L725 1452L522 1567L319 1452Z"/><glyph unicode="ŷ" horiz-adv-x="881" d="M68 -225Q152 -225 216 -199T318 -124T362 -6T336 147L4 1010H176L426 350L467 221L508 350L741 1010H883L498 -72Q475 -139 440 -191T354 -280T234 -335T72 -354L68 -225ZM494 1104L427 1174L697 1362L967 1174L900 1104L697 1219L494 1104Z"/><glyph unicode="Ÿ" horiz-adv-x="1042" d="M436 0V575L-23 1366H168L461 854L535 719L608 854L907 1366H1065L608 575V0H436ZM692 1464Q669 1464 650 1472T616 1494T594 1526T585 1567Q585 1588 593 1606T615 1637T649 1659T690 1667Q713 1667 732 1659T766 1637T789 1605T798 1567Q798 1544 790 1526T767 1493T733 1472T692 1464ZM370 1464Q350 1464 332 1471T299 1493T277 1525T268 1567Q268 1587 276 1605T298 1637T330 1659T368 1667Q392 1667 411 1659T445 1637T467 1605T475 1567Q475 1522 445 1493T370 1464Z"/><glyph unicode="Ź" horiz-adv-x="1067" d="M55 0V145L797 1223H90V1366H995V1247L246 141H1018V0H55ZM399 1446L354 1542L708 1718L774 1585L399 1446Z"/><glyph unicode="ź" horiz-adv-x="897" d="M68 0V94L641 887H109V1010H842V922L262 123H850V0H68ZM573 1098L528 1194L882 1370L948 1237L573 1098Z"/><glyph unicode="Ż" horiz-adv-x="1067" d="M55 0V145L797 1223H90V1366H995V1247L246 141H1018V0H55ZM532 1456Q505 1456 482 1465T443 1492T417 1531T407 1579Q407 1604 417 1626T444 1664T483 1690T530 1700Q557 1700 580 1691T619 1665T645 1626T655 1579Q655 1552 646 1530T619 1491T580 1465T532 1456Z"/><glyph unicode="ż" horiz-adv-x="897" d="M68 0V94L641 887H109V1010H842V922L262 123H850V0H68ZM706 1108Q679 1108 656 1117T617 1144T591 1183T581 1231Q581 1256 591 1278T618 1316T657 1342T704 1352Q731 1352 754 1343T793 1317T819 1278T829 1231Q829 1204 820 1182T793 1143T754 1117T706 1108Z"/><glyph unicode="Ž" horiz-adv-x="1067" d="M55 0V145L797 1223H90V1366H995V1247L246 141H1018V0H55ZM541 1456L271 1646L338 1716L541 1601L744 1716L811 1646L541 1456Z"/><glyph unicode="ž" horiz-adv-x="897" d="M68 0V94L641 887H109V1010H842V922L262 123H850V0H68ZM718 1108L448 1298L515 1368L718 1253L921 1368L988 1298L718 1108Z"/><glyph unicode="ƒ" horiz-adv-x="1194" d="M152 -301Q135 -301 124 -299T96 -295L121 -162Q129 -164 135 -164T150 -164Q218 -164 263 -147T337 -96T383 -8T414 119L532 793H346L371 913H557Q561 937 566 966T576 1022Q581 1052 588 1083Q612 1221 649 1307T735 1442T844 1508T973 1526Q999 1526 1025 1524T1067 1520L1044 1391Q1036 1392 1028 1392T1008 1393T983 1394T950 1395Q915 1395 884 1380T825 1326T775 1223T737 1059Q732 1033 728 1007Q724 984 721 959T715 913H961L936 793H690L561 61Q545 -32 514 -100T433 -212T314 -279T152 -301Z"/><glyph unicode="Ǽ" horiz-adv-x="1796" d="M-27 0L786 1366H1690V1219H1016V782H1534V641H1016V143H1726V0H850V420H389L143 0H-27ZM465 553H850V1210L465 553ZM907 1446L862 1542L1216 1718L1282 1585L907 1446Z"/><glyph unicode="ǽ" horiz-adv-x="1702" d="M395 -12Q327 -12 269 5T167 58T99 145T74 268Q74 353 109 415T206 521T354 591T543 629Q573 633 600 635T654 638T708 639T764 641Q764 667 764 693T760 739Q755 779 740 810T697 862T625 894T520 905Q459 905 413 896T332 866T275 812T242 729L96 745Q110 814 145 867T234 956T357 1010T510 1028Q601 1028 661 1013T760 971T822 908T862 829Q880 863 908 898T978 962T1077 1009T1208 1028Q1302 1028 1378 994T1508 898T1594 749T1634 557V489H903Q905 300 983 205T1212 109Q1253 109 1292 118T1365 151T1428 211T1477 305L1618 287Q1568 137 1462 61T1200 -16Q1126 -16 1066 1T959 50T877 125T817 221Q780 156 736 112T640 40T526 0T395 -12ZM434 104Q508 104 563 124T659 179T724 257T764 348V537Q714 537 665 535T571 528Q403 508 320 446T236 287Q236 196 284 150T434 104ZM1479 598Q1466 747 1396 828T1202 909Q1143 909 1091 887T1000 825T937 727T907 598H1479ZM758 1098L713 1194L1067 1370L1133 1237L758 1098Z"/><glyph unicode="Ǿ" horiz-adv-x="1292" d="M1057 1196Q1129 1103 1168 974T1208 682Q1208 527 1166 398T1050 175T872 29T645 -23Q548 -23 464 7T311 94L209 -55H78L233 174Q162 267 123 394T84 682Q84 847 126 978T243 1202T421 1344T645 1393Q742 1393 825 1363T977 1276L1073 1417H1206L1057 1196ZM399 225Q449 170 511 144T645 117Q734 117 805 156T925 268T1001 446T1028 682Q1028 797 1011 888T958 1051L399 225ZM891 1147Q844 1195 784 1220T645 1245Q551 1245 480 1205T361 1092T289 914T264 682Q264 569 282 481T334 324L891 1147ZM553 1446L508 1542L862 1718L928 1585L553 1446Z"/><glyph unicode="ǿ" horiz-adv-x="1061" d="M868 877Q924 808 954 715T985 508Q985 389 949 292T850 127T705 21T528 -16Q371 -16 258 76L158 -55H37L188 145Q136 214 106 305T76 510Q76 628 112 724T209 887T353 991T528 1028Q609 1028 676 1006T799 942L903 1079H1024L868 877ZM340 184Q377 144 423 123T526 102Q588 102 641 127T734 204T795 331T817 510Q817 654 770 748L340 184ZM713 829Q676 867 629 885T526 903Q466 903 415 878T325 803T266 679T244 508Q244 367 287 272L713 829ZM436 1098L391 1194L745 1370L811 1237L436 1098Z"/><glyph unicode="Ș" horiz-adv-x="1143" d="M588 -23Q477 -23 388 -1T229 65T110 173T25 324L170 381Q194 319 228 270T313 187T432 135T590 117Q665 117 725 132T828 178T892 253T915 356Q915 420 887 463T809 536T688 589T532 635Q438 659 357 689T217 765T124 875T90 1030Q90 1113 124 1180T219 1294T364 1367T547 1393Q740 1393 868 1306T1047 1057L889 1008Q874 1065 843 1110T767 1187T666 1234T545 1251Q480 1251 428 1236T338 1193T281 1129T260 1049Q260 992 280 952T345 881T463 825T641 772Q749 743 831 709T970 629T1054 520T1083 371Q1083 280 1050 207T952 83T797 5T588 -23ZM438 -518L548 -287H471V-84H671V-268L536 -518H438Z"/><glyph unicode="ș" horiz-adv-x="940" d="M473 -16Q280 -16 164 58T10 272L154 301Q166 256 193 220T260 157T354 117T473 102Q533 102 581 115T662 151T713 208T731 281Q731 326 708 355T645 403T554 434T446 459Q369 474 300 493T179 544T97 626T66 750Q66 812 93 863T169 951T287 1008T440 1028Q525 1028 593 1010T711 959T796 877T850 770L709 739Q680 820 612 863T440 907Q389 907 348 897T276 868T230 822T213 760Q213 718 234 692T294 649T383 619T496 594Q573 579 642 559T764 505T848 421T879 295Q879 225 850 168T768 70T640 7T473 -16ZM336 -518L446 -287H369V-84H569V-268L434 -518H336Z"/><glyph unicode="Ț" horiz-adv-x="993" d="M412 0V1221H20V1366H973V1221H582V0H412ZM363 -518L473 -287H396V-84H596V-268L461 -518H363Z"/><glyph unicode="ț" horiz-adv-x="631" d="M436 -14Q372 -14 323 2T239 54T186 145T168 279V883H4V1010H170L178 1274H324V1010H551V883H324V270Q324 190 362 154T465 115Q500 115 540 118T608 127V2Q566 -6 522 -10T436 -14ZM182 -518L292 -287H215V-84H415V-268L280 -518H182Z"/><glyph unicode="ˆ" horiz-adv-x="1024" d="M309 1104L242 1174L512 1362L782 1174L715 1104L512 1219L309 1104Z"/><glyph unicode="ˇ" horiz-adv-x="1024" d="M512 1108L242 1298L309 1368L512 1253L715 1368L782 1298L512 1108Z"/><glyph unicode="ˉ" horiz-adv-x="1024" d="M201 1167V1278H821V1167H201Z"/><glyph unicode="˘" horiz-adv-x="1024" d="M512 1116Q381 1116 307 1180T213 1370H328Q345 1298 387 1268T512 1237Q554 1237 585 1244T638 1266T675 1307T698 1370H811Q791 1246 717 1181T512 1116Z"/><glyph unicode="˙" horiz-adv-x="1024" d="M512 1108Q485 1108 462 1117T423 1144T397 1183T387 1231Q387 1256 397 1278T424 1316T463 1342T510 1352Q537 1352 560 1343T599 1317T625 1278T635 1231Q635 1204 626 1182T599 1143T560 1117T512 1108Z"/><glyph unicode="˚" horiz-adv-x="1024" d="M518 1069Q478 1069 445 1083T388 1122T351 1177T338 1241Q338 1278 352 1310T390 1366T447 1403T518 1417Q551 1417 581 1404T634 1368T670 1312T684 1241Q684 1205 671 1174T634 1119T581 1083T518 1069ZM516 1161Q531 1161 545 1167T570 1185T587 1211T594 1243Q594 1277 571 1301T516 1325Q478 1325 454 1301T430 1243Q430 1212 453 1187T516 1161Z"/><glyph unicode="˛" horiz-adv-x="1024" d="M537 -315Q484 -315 447 -305T387 -275T354 -229T344 -166Q344 -65 494 0H590Q566 -16 544 -32T505 -65T477 -102T467 -143Q467 -185 491 -207T580 -229Q604 -229 624 -226T659 -219L680 -283Q646 -297 612 -306T537 -315Z"/><glyph unicode="˜" horiz-adv-x="1024" d="M657 1124Q611 1124 579 1136T517 1162T458 1188T389 1200Q342 1200 313 1179T258 1128L174 1188Q219 1253 275 1285T385 1317Q431 1317 464 1306T527 1280T585 1255T653 1243Q690 1243 718 1259T772 1298L848 1225Q801 1178 754 1151T657 1124Z"/><glyph unicode="˝" horiz-adv-x="1024" d="M610 1104L559 1182L862 1413L932 1305L610 1104ZM283 1104L231 1182L535 1413L604 1305L283 1104Z"/><glyph unicode="̦" horiz-adv-x="508" d="M121 -518L231 -287H154V-84H354V-268L219 -518H121Z"/><glyph unicode="Ω" horiz-adv-x="1581" d="M956 0V141Q1006 180 1065 236T1175 369T1260 545T1294 772Q1294 884 1262 982T1167 1152T1009 1267T791 1309Q680 1309 586 1270T423 1161T315 991T276 772Q276 647 309 549T394 373T505 239T618 141V0H98V141H449Q393 181 331 239T216 378T130 562T96 797Q96 941 147 1062T290 1271T509 1408T791 1458Q957 1458 1085 1408T1299 1271T1430 1063T1475 803Q1475 683 1443 581T1360 396T1246 249T1118 141H1475V0H956Z"/><glyph unicode="π" horiz-adv-x="1542" d="M1407 16Q1379 2 1341 -6T1257 -14Q1188 -14 1139 6T1057 64T1010 153T995 266V893H557V279Q557 189 548 121T522 0H348Q367 59 376 135T385 287V893Q359 892 328 888T267 877T207 861T156 842L104 961Q127 972 160 983T235 1004T324 1018T422 1024H1403V893H1167V285Q1167 208 1198 163T1303 117Q1320 117 1338 122T1372 133L1407 16Z"/><glyph unicode="Ẁ" horiz-adv-x="1649" d="M375 0L31 1366H201L449 379L477 260L508 375L772 1366H911L1190 362L1217 258L1241 362L1470 1366H1626L1296 0H1124L860 965L836 1053L811 965L549 0H375ZM917 1442L542 1581L608 1714L962 1536L917 1442Z"/><glyph unicode="ẁ" horiz-adv-x="1343" d="M317 0L12 1010H174L375 319L397 227L422 319L614 1010H745L952 313L975 223L1001 309L1198 1010H1335L1034 0H899L694 684L670 776L649 688L453 0H317ZM766 1094L391 1233L457 1366L811 1188L766 1094Z"/><glyph unicode="Ẃ" horiz-adv-x="1649" d="M375 0L31 1366H201L449 379L477 260L508 375L772 1366H911L1190 362L1217 258L1241 362L1470 1366H1626L1296 0H1124L860 965L836 1053L811 965L549 0H375ZM731 1446L686 1542L1040 1718L1106 1585L731 1446Z"/><glyph unicode="ẃ" horiz-adv-x="1343" d="M317 0L12 1010H174L375 319L397 227L422 319L614 1010H745L952 313L975 223L1001 309L1198 1010H1335L1034 0H899L694 684L670 776L649 688L453 0H317ZM580 1098L535 1194L889 1370L955 1237L580 1098Z"/><glyph unicode="Ẅ" horiz-adv-x="1649" d="M375 0L31 1366H201L449 379L477 260L508 375L772 1366H911L1190 362L1217 258L1241 362L1470 1366H1626L1296 0H1124L860 965L836 1053L811 965L549 0H375ZM983 1464Q960 1464 941 1472T907 1494T885 1526T876 1567Q876 1588 884 1606T906 1637T940 1659T981 1667Q1004 1667 1023 1659T1057 1637T1080 1605T1089 1567Q1089 1544 1081 1526T1058 1493T1024 1472T983 1464ZM661 1464Q641 1464 623 1471T590 1493T568 1525T559 1567Q559 1587 567 1605T589 1637T621 1659T659 1667Q683 1667 702 1659T736 1637T758 1605T766 1567Q766 1522 736 1493T661 1464Z"/><glyph unicode="ẅ" horiz-adv-x="1343" d="M317 0L12 1010H174L375 319L397 227L422 319L614 1010H745L952 313L975 223L1001 309L1198 1010H1335L1034 0H899L694 684L670 776L649 688L453 0H317ZM832 1116Q809 1116 790 1124T756 1146T734 1178T725 1219Q725 1240 733 1258T755 1289T789 1311T830 1319Q853 1319 872 1311T906 1289T929 1257T938 1219Q938 1196 930 1178T907 1145T873 1124T832 1116ZM510 1116Q490 1116 472 1123T439 1145T417 1177T408 1219Q408 1239 416 1257T438 1289T470 1311T508 1319Q532 1319 551 1311T585 1289T607 1257T615 1219Q615 1174 585 1145T510 1116Z"/><glyph unicode="Ỳ" horiz-adv-x="1042" d="M436 0V575L-23 1366H168L461 854L535 719L608 854L907 1366H1065L608 575V0H436ZM615 1442L240 1581L306 1714L660 1536L615 1442Z"/><glyph unicode="ỳ" horiz-adv-x="881" d="M68 -225Q152 -225 216 -199T318 -124T362 -6T336 147L4 1010H176L426 350L467 221L508 350L741 1010H883L498 -72Q475 -139 440 -191T354 -280T234 -335T72 -354L68 -225ZM789 1094L414 1233L480 1366L834 1188L789 1094Z"/><glyph unicode="–" horiz-adv-x="1024" d="M111 541V676H907V541H111Z"/><glyph unicode="—" horiz-adv-x="1536" d="M88 543V676H1446V543H88Z"/><glyph unicode="‘" horiz-adv-x="492" d="M145 903V1126L279 1366H369L270 1126H346V903H145Z"/><glyph unicode="’" horiz-adv-x="492" d="M123 903L221 1141H145V1366H346V1141L213 903H123Z"/><glyph unicode="‚" horiz-adv-x="492" d="M123 -240L221 0H145V223H346V0L213 -240H123Z"/><glyph unicode="“" horiz-adv-x="825" d="M449 911V1116L608 1366H702L584 1116H649V911H449ZM145 911V1116L301 1366H399L285 1116H346V911H145Z"/><glyph unicode="”" horiz-adv-x="825" d="M430 907L543 1149H479V1366H680V1174L522 907H430ZM123 907L240 1149H178V1366H379V1174L217 907H123Z"/><glyph unicode="„" horiz-adv-x="825" d="M430 -240L543 0H479V217H680V27L522 -240H430ZM123 -240L240 0H178V217H379V27L217 -240H123Z"/><glyph unicode="†" horiz-adv-x="1194" d="M520 -342V829H143V971H520V1366H674V971H1051V829H674V-342H520Z"/><glyph unicode="‡" horiz-adv-x="1194" d="M524 -342V68H143V207H524V829H143V969H524V1366H670V969H1051V829H670V207H1051V68H670V-342H524Z"/><glyph unicode="•" horiz-adv-x="1024" d="M514 410Q455 410 404 432T313 494T252 585T229 696Q229 755 251 807T312 899T401 960T512 983Q570 983 621 961T711 899T772 808T795 696Q795 637 773 585T712 494T623 433T514 410Z"/><glyph unicode="…" horiz-adv-x="1526" d="M1161 0V223H1382V0H1161ZM653 0V223H874V0H653ZM143 0V223H367V0H143Z"/><glyph unicode="‰" horiz-adv-x="2128" d="M356 670Q294 670 243 696T154 769T97 881T76 1026Q76 1105 96 1170T152 1281T239 1352T354 1378Q417 1378 469 1352T558 1280T616 1168T637 1024Q637 946 616 881T558 769T469 696T356 670ZM240 0L1096 1366H1219L365 0H240ZM1772 -8Q1710 -8 1659 17T1569 89T1510 199T1489 342Q1489 422 1509 487T1565 598T1653 670T1769 696Q1832 696 1884 670T1974 598T2033 486T2054 342Q2054 264 2033 200T1975 89T1886 18T1772 -8ZM1120 -8Q1058 -8 1006 17T917 89T859 199T838 342Q838 422 858 487T914 598T1002 670T1118 696Q1180 696 1232 670T1321 598T1380 486T1401 342Q1401 264 1380 200T1322 89T1233 18T1120 -8ZM358 784Q430 784 463 845T496 1022Q496 1140 460 1202T354 1264Q319 1264 293 1247T250 1200T225 1126T217 1028Q217 973 225 928T251 851T295 802T358 784ZM1776 104Q1844 104 1877 164T1911 340Q1911 458 1875 521T1769 584Q1734 584 1708 567T1664 519T1639 444T1630 346Q1630 234 1666 169T1776 104ZM1122 104Q1191 104 1225 164T1260 340Q1260 458 1223 521T1116 584Q1081 584 1055 567T1012 519T987 444T979 346Q979 234 1014 169T1122 104Z"/><glyph unicode="‹" horiz-adv-x="440" d="M276 240L61 532L276 815H387L219 532L387 240H276Z"/><glyph unicode="›" horiz-adv-x="440" d="M53 240L221 532L53 815H164L379 532L164 240H53Z"/><glyph unicode="⁄" horiz-adv-x="455" d="M-242 0L586 1366H696L-129 0H-242Z"/><glyph unicode="⁰" horiz-adv-x="836" d="M422 799Q344 799 282 829T178 914T113 1048T90 1225Q90 1322 112 1400T176 1534T280 1619T420 1649Q495 1649 555 1619T657 1534T722 1399T745 1221Q745 1125 723 1047T658 914T556 829T422 799ZM422 897Q519 897 571 980T624 1223Q624 1376 573 1462T420 1548Q313 1548 262 1467T211 1225Q211 1069 266 983T422 897Z"/><glyph unicode="⁴" horiz-adv-x="823" d="M487 813V1003H67V1096L463 1649H604V1106H741V1003H604V813H487ZM180 1102H489V1532L180 1102Z"/><glyph unicode="⁵" horiz-adv-x="854" d="M424 799Q300 799 215 855T92 1008L196 1038Q227 967 281 932T420 897Q463 897 499 911T561 950T601 1012T616 1092Q616 1129 604 1163T569 1222T510 1263T430 1278Q358 1278 311 1246T229 1163L131 1184L160 1624H682L676 1518H260L239 1296Q256 1312 278 1327T327 1353T383 1371T444 1378Q512 1378 566 1357T659 1297T718 1207T739 1092Q739 1021 713 967T643 875T542 818T424 799Z"/><glyph unicode="⁶" horiz-adv-x="803" d="M440 799Q365 799 301 825T190 903T117 1032T90 1212V1219Q90 1310 112 1388T180 1525T292 1616T448 1649Q551 1649 622 1595T725 1442L610 1423Q585 1483 544 1514T438 1546Q389 1546 348 1528T278 1470T231 1368T213 1219Q250 1288 316 1324T456 1360Q525 1360 578 1339T668 1282T724 1195T743 1085Q743 1025 721 973T658 883T563 822T440 799ZM440 897Q479 897 513 909T571 946T610 1003T624 1079Q624 1118 612 1151T576 1208T518 1245T440 1259Q401 1259 368 1245T307 1207T261 1155T229 1098V1087Q236 1048 253 1014T298 953T361 912T440 897Z"/><glyph unicode="⁷" horiz-adv-x="729" d="M657 1542Q572 1444 514 1350T421 1167T370 1000T354 854Q354 846 354 835T358 813H213Q213 819 213 831T215 852Q221 916 243 997T304 1167T396 1346T518 1520H65L76 1624H657V1542Z"/><glyph unicode="⁸" horiz-adv-x="797" d="M403 799Q329 799 270 815T168 862T103 933T80 1026Q80 1067 93 1099T131 1156T188 1202T262 1241Q187 1275 151 1320T114 1436Q114 1479 133 1518T189 1586T278 1632T397 1649Q461 1649 513 1634T603 1592T660 1527T680 1442Q680 1410 669 1382T637 1330T590 1287T530 1255Q573 1238 607 1218T666 1172T704 1112T717 1032Q717 981 696 939T635 865T537 817T403 799ZM233 1438Q233 1394 271 1365T372 1311Q371 1311 375 1309T387 1304T400 1298T411 1294Q479 1320 523 1355T567 1440Q567 1492 524 1522T397 1552Q325 1552 279 1522T233 1438ZM403 893Q493 893 544 929T596 1028Q596 1056 585 1076T550 1114T493 1147T411 1178L372 1192Q335 1178 303 1163T246 1129T208 1086T194 1028Q194 968 249 931T403 893Z"/><glyph unicode="⁹" horiz-adv-x="809" d="M362 1092Q300 1092 247 1108T154 1158T92 1243T69 1364Q69 1418 88 1469T147 1561T243 1625T377 1649Q459 1649 520 1620T623 1538T685 1413T706 1255Q706 1151 683 1067T617 923T512 831T372 799Q149 799 82 987L198 1006Q220 950 261 924T377 897Q421 897 458 917T522 976T565 1070T583 1196Q563 1173 538 1154T483 1121T423 1100T362 1092ZM372 1190Q399 1190 427 1199T483 1224T533 1263T575 1313V1331Q567 1440 516 1495T379 1550Q331 1550 296 1535T238 1494T204 1436T192 1370V1362Q192 1277 239 1234T372 1190Z"/><glyph unicode="₀" horiz-adv-x="836" d="M422 -297Q344 -297 282 -267T178 -182T113 -48T90 129Q90 226 112 304T176 438T280 523T420 553Q495 553 555 523T657 438T722 303T745 125Q745 29 723 -49T658 -182T556 -267T422 -297ZM422 -199Q519 -199 571 -116T624 127Q624 280 573 366T420 452Q313 452 262 371T211 129Q211 -27 266 -113T422 -199Z"/><glyph unicode="₁" horiz-adv-x="786" d="M155 -283V-176H383V387Q346 352 292 313T151 233V354Q183 371 215 389T281 431T346 484T411 553H502V-176H706V-283H155Z"/><glyph unicode="₂" horiz-adv-x="879" d="M112 -283V-183Q239 -93 331 -26T483 94T571 193T600 286Q600 364 560 405T438 446Q353 446 300 406T227 276L110 303Q171 553 442 553Q513 553 567 534T659 480T716 399T735 297Q735 236 700 175T603 55T458 -60T280 -168H762L764 -283H112Z"/><glyph unicode="₃" horiz-adv-x="838" d="M407 -297Q154 -297 67 -88L178 -54Q192 -92 210 -119T255 -164T318 -190T405 -199Q502 -199 554 -158T606 -52Q606 13 549 52T383 92H278V192H383Q573 192 573 325Q573 352 561 375T526 416T472 444T401 454Q260 454 205 323L98 354Q141 453 218 503T401 553Q468 553 522 536T615 489T673 417T694 327Q694 295 683 268T654 217T609 177T553 149Q589 141 620 123T676 79T713 20T727 -54Q727 -105 705 -149T640 -227T539 -278T407 -297Z"/><glyph unicode="₄" horiz-adv-x="823" d="M487 -283V-93H67V0L463 553H604V10H741V-93H604V-283H487ZM180 6H489V436L180 6Z"/><glyph unicode="₅" horiz-adv-x="854" d="M424 -297Q300 -297 215 -241T92 -88L196 -58Q227 -129 281 -164T420 -199Q463 -199 499 -185T561 -146T601 -84T616 -4Q616 33 604 67T569 126T510 167T430 182Q358 182 311 150T229 67L131 88L160 528H682L676 422H260L239 200Q256 216 278 231T327 257T383 275T444 282Q512 282 566 261T659 201T718 111T739 -4Q739 -75 713 -129T643 -221T542 -278T424 -297Z"/><glyph unicode="₆" horiz-adv-x="803" d="M440 -297Q365 -297 301 -271T190 -193T117 -64T90 116V123Q90 214 112 292T180 429T292 520T448 553Q551 553 622 499T725 346L610 327Q585 387 544 418T438 450Q389 450 348 432T278 374T231 272T213 123Q250 192 316 228T456 264Q525 264 578 243T668 186T724 99T743 -11Q743 -71 721 -123T658 -213T563 -274T440 -297ZM440 -199Q479 -199 513 -187T571 -150T610 -93T624 -17Q624 22 612 55T576 112T518 149T440 163Q401 163 368 149T307 111T261 59T229 2V-9Q236 -48 253 -82T298 -143T361 -184T440 -199Z"/><glyph unicode="₇" horiz-adv-x="729" d="M657 446Q572 348 514 254T421 71T370 -96T354 -242Q354 -250 354 -261T358 -283H213Q213 -277 213 -265T215 -244Q221 -180 243 -99T304 71T396 250T518 424H65L76 528H657V446Z"/><glyph unicode="₈" horiz-adv-x="797" d="M403 -297Q329 -297 270 -281T168 -234T103 -163T80 -70Q80 -29 93 3T131 60T188 106T262 145Q187 179 151 224T114 340Q114 383 133 422T189 490T278 536T397 553Q461 553 513 538T603 496T660 431T680 346Q680 314 669 286T637 234T590 191T530 159Q573 142 607 122T666 76T704 16T717 -64Q717 -115 696 -157T635 -231T537 -279T403 -297ZM233 342Q233 298 271 269T372 215Q371 215 375 213T387 208T400 202T411 198Q479 224 523 259T567 344Q567 396 524 426T397 456Q325 456 279 426T233 342ZM403 -203Q493 -203 544 -167T596 -68Q596 -40 585 -20T550 18T493 51T411 82L372 96Q335 82 303 67T246 33T208 -10T194 -68Q194 -128 249 -165T403 -203Z"/><glyph unicode="₉" horiz-adv-x="809" d="M362 -4Q300 -4 247 12T154 62T92 147T69 268Q69 322 88 373T147 465T243 529T377 553Q459 553 520 524T623 442T685 317T706 159Q706 55 683 -29T617 -173T512 -265T372 -297Q149 -297 82 -109L198 -90Q220 -146 261 -172T377 -199Q421 -199 458 -179T522 -120T565 -26T583 100Q563 77 538 58T483 25T423 4T362 -4ZM372 94Q399 94 427 103T483 128T533 167T575 217V235Q567 344 516 399T379 454Q331 454 296 439T238 398T204 340T192 274V266Q192 181 239 138T372 94Z"/><glyph unicode="€" horiz-adv-x="1194" d="M690 -25Q582 -25 497 15T350 125T250 292T197 502H33L51 608H188Q186 621 186 639T185 678T186 719T190 760H33L51 868H199Q217 995 262 1093T372 1257T518 1357T690 1391Q768 1391 836 1368T958 1299T1052 1184T1112 1024L967 1012Q930 1136 860 1194T690 1253Q549 1253 469 1152T365 868H866L848 760H352Q350 742 350 719T350 674T351 634T352 608H825L807 502H362Q374 408 402 335T472 210T570 133T696 106Q743 106 786 118T867 160T939 240T1001 365L1141 344Q1103 235 1053 164T943 50T820 -8T690 -25Z"/><glyph unicode="ℓ" horiz-adv-x="1104" d="M913 115Q892 94 863 69T796 22T712 -14T614 -29Q551 -29 506 -10T428 45Q390 85 371 149T352 287V504L223 371L156 457L352 657V1116Q352 1297 423 1394T621 1491Q681 1491 721 1469T785 1414T820 1342T831 1268Q831 1195 813 1127T763 994T687 866T590 739Q581 728 571 716T550 690T529 666T512 645V293Q512 192 550 146T653 100Q684 100 713 110T767 137T813 173T850 209L913 115ZM709 1245Q709 1296 688 1329T627 1362Q512 1362 512 1130V809Q524 823 540 844T565 879Q631 973 670 1069T709 1245Z"/><glyph unicode="™" horiz-adv-x="1585" d="M688 588V1366H844L1098 748L1348 1366H1499V588H1382V1135Q1382 1136 1382 1146T1384 1168L1386 1200L1145 588H1034L791 1196Q793 1171 795 1151Q797 1134 798 1118T799 1098V588H688ZM236 588V1268H2V1366H596V1268H360V588H236Z"/><glyph unicode="Ω" horiz-adv-x="1581" d="M956 0V141Q1006 180 1065 236T1175 369T1260 545T1294 772Q1294 884 1262 982T1167 1152T1009 1267T791 1309Q680 1309 586 1270T423 1161T315 991T276 772Q276 647 309 549T394 373T505 239T618 141V0H98V141H449Q393 181 331 239T216 378T130 562T96 797Q96 941 147 1062T290 1271T509 1408T791 1458Q957 1458 1085 1408T1299 1271T1430 1063T1475 803Q1475 683 1443 581T1360 396T1246 249T1118 141H1475V0H956Z"/><glyph unicode="℮" horiz-adv-x="1427" d="M354 645V199Q426 129 513 92T707 55Q797 55 868 77T996 138T1099 230T1186 348L1262 303Q1214 230 1161 170T1041 67T893 -1T707 -25Q611 -25 528 -1T374 67T249 173T156 309T98 469T78 647Q78 786 121 908T246 1121T445 1264T711 1317Q860 1317 977 1264T1175 1120T1300 906T1346 645H354ZM1065 1094Q1032 1125 992 1152T906 1198T811 1228T711 1239Q605 1239 514 1203T354 1094V725H1065V1094Z"/><glyph unicode="⅓" horiz-adv-x="1858" d="M119 555V662H346V1225Q309 1190 255 1152T115 1071V1192Q147 1209 179 1227T245 1269T310 1322T375 1391H465V662H670V555H119ZM510 0L1292 1391H1415L633 0H510ZM1470 -14Q1217 -14 1130 195L1241 229Q1255 191 1273 164T1318 119T1381 93T1468 84Q1565 84 1617 125T1669 231Q1669 296 1612 335T1446 375H1341V475H1446Q1636 475 1636 608Q1636 635 1624 658T1589 699T1535 727T1464 737Q1324 737 1268 606L1161 637Q1205 736 1281 786T1464 836Q1532 836 1586 819T1678 772T1736 700T1757 610Q1757 578 1746 551T1717 500T1672 460T1616 432Q1652 424 1683 406T1739 362T1776 303T1790 229Q1790 178 1768 134T1703 56T1602 5T1470 -14Z"/><glyph unicode="⅔" horiz-adv-x="1878" d="M571 0L1354 1391H1477L694 0H571ZM80 555V655Q207 745 299 812T451 932T538 1031T567 1124Q567 1202 527 1243T406 1284Q321 1284 268 1244T195 1114L78 1141Q109 1268 190 1329T410 1391Q480 1391 534 1372T626 1318T683 1237T702 1135Q702 1074 667 1013T571 893T426 778T248 670H729L731 555H80ZM1511 -14Q1258 -14 1171 195L1282 229Q1296 191 1314 164T1359 119T1422 93T1509 84Q1606 84 1658 125T1710 231Q1710 296 1653 335T1487 375H1382V475H1487Q1677 475 1677 608Q1677 635 1665 658T1630 699T1576 727T1505 737Q1365 737 1309 606L1202 637Q1246 736 1322 786T1505 836Q1573 836 1627 819T1719 772T1777 700T1798 610Q1798 578 1787 551T1758 500T1713 460T1657 432Q1693 424 1724 406T1780 362T1817 303T1831 229Q1831 178 1809 134T1744 56T1643 5T1511 -14Z"/><glyph unicode="⅛" horiz-adv-x="1878" d="M119 555V662H346V1225Q309 1190 255 1152T115 1071V1192Q147 1209 179 1227T245 1269T310 1322T375 1391H465V662H670V555H119ZM510 0L1292 1391H1415L633 0H510ZM1477 -14Q1403 -14 1343 2T1241 49T1176 120T1153 213Q1153 254 1166 286T1204 343T1261 389T1335 428Q1260 462 1224 507T1188 623Q1188 666 1207 705T1263 773T1351 819T1470 836Q1534 836 1586 821T1676 779T1733 714T1753 629Q1753 564 1711 516T1604 442Q1647 425 1681 405T1740 359T1777 299T1790 219Q1790 168 1769 126T1709 52T1611 4T1477 -14ZM1307 625Q1307 581 1345 552T1446 498Q1445 498 1449 496T1461 491T1474 485T1485 481Q1519 494 1547 509T1596 542T1628 581T1640 627Q1640 679 1597 709T1470 739Q1398 739 1353 709T1307 625ZM1477 80Q1566 80 1617 116T1669 215Q1669 243 1658 263T1624 301T1567 334T1485 365L1446 379Q1409 365 1377 350T1320 316T1282 273T1268 215Q1268 155 1323 118T1477 80Z"/><glyph unicode="⅜" horiz-adv-x="1878" d="M391 541Q138 541 51 750L162 784Q176 746 194 719T239 674T302 648T389 639Q486 639 538 680T590 786Q590 851 533 890T367 930H262V1030H367Q557 1030 557 1163Q557 1190 545 1213T510 1254T455 1282T385 1292Q244 1292 188 1161L82 1192Q125 1291 202 1341T385 1391Q452 1391 506 1374T599 1327T657 1255T678 1165Q678 1133 667 1106T637 1055T593 1015T537 987Q573 979 604 961T660 917T697 858T711 784Q711 733 689 689T624 611T523 560T391 541ZM522 0L1305 1391H1427L645 0H522ZM1518 -14Q1444 -14 1384 2T1282 49T1217 120T1194 213Q1194 254 1207 286T1245 343T1302 389T1376 428Q1301 462 1265 507T1229 623Q1229 666 1248 705T1304 773T1392 819T1511 836Q1575 836 1627 821T1717 779T1774 714T1794 629Q1794 564 1752 516T1645 442Q1688 425 1722 405T1781 359T1818 299T1831 219Q1831 168 1810 126T1750 52T1652 4T1518 -14ZM1348 625Q1348 581 1386 552T1487 498Q1486 498 1490 496T1502 491T1515 485T1526 481Q1560 494 1588 509T1637 542T1669 581T1681 627Q1681 679 1638 709T1511 739Q1439 739 1394 709T1348 625ZM1518 80Q1607 80 1658 116T1710 215Q1710 243 1699 263T1665 301T1608 334T1526 365L1487 379Q1450 365 1418 350T1361 316T1323 273T1309 215Q1309 155 1363 118T1518 80Z"/><glyph unicode="⅝" horiz-adv-x="1878" d="M522 0L1305 1391H1427L645 0H522ZM399 541Q276 541 191 597T68 750L172 780Q203 709 257 674T395 639Q439 639 475 653T537 692T577 754T592 834Q592 871 580 905T544 964T486 1005T406 1020Q370 1020 340 1012T286 988T242 951T205 905L106 926L135 1366H657L651 1260H236L215 1038Q232 1054 254 1069T303 1095T359 1113T420 1120Q488 1120 542 1099T635 1039T694 949T715 834Q715 763 689 709T619 617T518 560T399 541ZM1518 -14Q1444 -14 1384 2T1282 49T1217 120T1194 213Q1194 254 1207 286T1245 343T1302 389T1376 428Q1301 462 1265 507T1229 623Q1229 666 1248 705T1304 773T1392 819T1511 836Q1575 836 1627 821T1717 779T1774 714T1794 629Q1794 564 1752 516T1645 442Q1688 425 1722 405T1781 359T1818 299T1831 219Q1831 168 1810 126T1750 52T1652 4T1518 -14ZM1348 625Q1348 581 1386 552T1487 498Q1486 498 1490 496T1502 491T1515 485T1526 481Q1560 494 1588 509T1637 542T1669 581T1681 627Q1681 679 1638 709T1511 739Q1439 739 1394 709T1348 625ZM1518 80Q1607 80 1658 116T1710 215Q1710 243 1699 263T1665 301T1608 334T1526 365L1487 379Q1450 365 1418 350T1361 316T1323 273T1309 215Q1309 155 1363 118T1518 80Z"/><glyph unicode="⅞" horiz-adv-x="1878" d="M399 0L1182 1391H1305L522 0H399ZM651 1284Q566 1186 508 1092T415 909T364 742T348 596Q348 588 348 577T352 555H207Q207 561 207 573T209 594Q215 658 237 739T298 909T390 1088T512 1262H59L70 1366H651V1284ZM1477 -14Q1403 -14 1343 2T1241 49T1176 120T1153 213Q1153 254 1166 286T1204 343T1261 389T1335 428Q1260 462 1224 507T1188 623Q1188 666 1207 705T1263 773T1351 819T1470 836Q1534 836 1586 821T1676 779T1733 714T1753 629Q1753 564 1711 516T1604 442Q1647 425 1681 405T1740 359T1777 299T1790 219Q1790 168 1769 126T1709 52T1611 4T1477 -14ZM1307 625Q1307 581 1345 552T1446 498Q1445 498 1449 496T1461 491T1474 485T1485 481Q1519 494 1547 509T1596 542T1628 581T1640 627Q1640 679 1597 709T1470 739Q1398 739 1353 709T1307 625ZM1477 80Q1566 80 1617 116T1669 215Q1669 243 1658 263T1624 301T1567 334T1485 365L1446 379Q1409 365 1377 350T1320 316T1282 273T1268 215Q1268 155 1323 118T1477 80Z"/><glyph unicode="∂" horiz-adv-x="1305" d="M1184 973Q1184 876 1170 779T1130 588Q1097 472 1043 362T912 167T739 29T522 -23Q433 -23 360 6T233 88T151 215T121 381Q121 485 145 572T210 731T307 855T426 945T556 999T690 1018Q751 1018 802 1004T893 968T961 915T1006 854H1010Q1013 883 1015 915T1018 987Q1018 1072 997 1140T936 1257T836 1330T700 1356Q645 1356 585 1340T477 1294L432 1413Q453 1426 484 1440T553 1465T636 1483T727 1491Q830 1491 914 1456T1058 1354T1151 1191T1184 973ZM983 698Q972 737 950 772T895 833T816 875T713 891Q631 891 555 853T421 747T328 585T293 379Q293 320 309 271T356 187T430 133T528 113Q607 113 678 156T808 277T912 462T983 698Z"/><glyph unicode="∆" horiz-adv-x="1405" d="M70 0V84L608 1434H821L1356 84V0H70ZM748 1161Q734 1198 727 1227T713 1278H707Q700 1258 692 1227T672 1165L268 145H1149L748 1161Z"/><glyph unicode="∏" horiz-adv-x="1634" d="M1270 -471V1284H365V-471H193V1434H1444V-471H1270Z"/><glyph unicode="∑" horiz-adv-x="1425" d="M41 -471V-389L795 489L90 1339V1434H1305V1292H330L991 494L291 -330H1358V-471H41Z"/><glyph unicode="−" horiz-adv-x="1194" d="M152 614V754H1042V614H152Z"/><glyph unicode="√" horiz-adv-x="1221" d="M741 -25H612L289 676L168 600L117 696L362 848L674 172L1075 1493H1204L741 -25Z"/><glyph unicode="∞" horiz-adv-x="1329" d="M1204 696Q1204 612 1179 548T1113 439T1019 371T907 348Q870 348 834 358T765 390T707 443T666 520Q648 485 626 454T575 399T506 362T414 348Q345 348 292 374T202 446T146 549T127 670Q127 754 151 818T217 927T311 995T424 1018Q478 1018 518 1002T587 960T634 903T662 840Q674 872 695 904T747 961T820 1002T915 1018Q984 1018 1038 992T1129 920T1185 817T1204 696ZM1075 696Q1075 744 1063 781T1030 845T979 885T913 899Q870 899 838 878T784 823T747 743T727 649Q734 621 746 592T779 539T828 500T895 485Q932 485 964 499T1021 540T1060 606T1075 696ZM602 717Q594 748 581 777T548 830T500 867T434 881Q397 881 365 867T308 827T269 761T254 672Q254 624 267 586T302 520T355 478T420 463Q459 463 490 482T544 536T581 617T602 717Z"/><glyph unicode="∫" horiz-adv-x="1096" d="M920 1376Q904 1384 875 1391T813 1399Q719 1399 673 1343T627 1186V-119Q627 -207 603 -274T535 -387T429 -456T289 -479Q269 -479 246 -477T201 -471T158 -462T125 -451L160 -322Q180 -331 209 -336T270 -342Q361 -342 408 -288T455 -131V1176Q455 1260 477 1326T543 1438T648 1509T791 1534Q815 1534 839 1532T886 1525T928 1515T958 1503L920 1376Z"/><glyph unicode="≈" horiz-adv-x="1194" d="M1038 1014Q1040 1001 1041 989T1042 965Q1042 909 1023 866T973 792T899 747T811 731Q755 731 705 748T604 788Q571 803 546 814T500 834T460 846T420 850Q372 850 343 822T313 745V733H162Q159 747 159 759T158 784Q158 839 177 882T227 955T301 1000T389 1016Q417 1016 443 1012T494 1000T546 981T602 956Q658 929 698 913T782 897Q827 897 857 924T887 1001V1014H1038ZM1038 647Q1040 635 1041 623T1042 598Q1042 544 1023 501T973 427T899 381T811 365Q755 365 705 382T604 422Q571 437 546 448T500 467T460 479T420 483Q372 483 343 455T313 381V369H162Q159 383 159 395T158 420Q158 474 177 516T227 589T301 635T389 651Q417 651 443 647T494 634T546 615T602 590Q657 564 698 547T782 530Q827 530 857 557T887 635V647H1038Z"/><glyph unicode="≠" horiz-adv-x="1194" d="M152 778V918H655L776 1116H936L817 918H1042V778H733L623 594H1042V455H539L420 258H260L377 455H152V594H461L571 778H152Z"/><glyph unicode="≤" horiz-adv-x="1194" d="M154 0V139H1040V0H154ZM154 678V780L1040 1182V1032L360 731V727L1040 426V276L154 678Z"/><glyph unicode="≥" horiz-adv-x="1194" d="M154 0V139H1040V0H154ZM154 276V428L834 727V731L154 1034V1184L1040 780V678L154 276Z"/><glyph unicode="◊" horiz-adv-x="1284" d="M1159 717L678 0H588L109 715L588 1434H678L1159 717ZM1008 717L633 1276L258 717L633 158L1008 717Z"/><glyph unicode="ﬀ" horiz-adv-x="1108" d="M870 0H713V889H330V0H170V889H-8V1010H170V1112Q170 1262 249 1334T489 1407Q504 1407 523 1406T562 1404T601 1400T635 1395V1268Q618 1270 599 1272T562 1275T527 1277T500 1278Q409 1278 370 1236T330 1108V1010H713V1112Q713 1262 792 1334T1030 1407Q1045 1407 1064 1406T1103 1404T1142 1400T1176 1395V1268Q1160 1270 1141 1272T1103 1275T1068 1277T1042 1278Q950 1278 910 1236T870 1108V1010H1116V889H870V0Z"/><glyph unicode="ﬁ" horiz-adv-x="1026" d="M877 1188H702V1368H877V1188ZM328 0H170V889H-8V1010H170V1110Q170 1260 249 1332T487 1405Q499 1405 517 1404T554 1402T593 1398T627 1393V1268Q611 1269 593 1270T557 1273T524 1275T500 1276Q406 1276 367 1233T328 1106V1010H590V889H328V0ZM870 0H711V1010H870V0Z"/><glyph unicode="ﬂ" horiz-adv-x="1026" d="M328 0H170V889H-8V1010H170V1110Q170 1260 249 1331T487 1403Q499 1403 517 1402T554 1400T593 1396T627 1391V1266Q611 1268 593 1269T557 1272T524 1273T500 1274Q406 1274 367 1232T328 1106V1010H590V889H328V0ZM870 0H711V1366H870V0Z"/><glyph unicode="ﬃ" horiz-adv-x="1571" d="M1421 1190H1245V1370H1421V1190ZM870 0H713V889H330V0H170V889H-8V1010H170V1112Q170 1262 249 1334T489 1407Q504 1407 523 1406T562 1404T601 1400T635 1395V1268Q618 1270 599 1272T562 1275T527 1277T500 1278Q409 1278 370 1236T330 1108V1010H713V1112Q713 1262 792 1334T1030 1407Q1042 1407 1060 1406T1097 1404T1135 1400T1169 1395V1268Q1154 1270 1136 1272T1100 1275T1067 1277T1042 1278Q949 1278 910 1235T870 1108V1010H1110V889H870V0ZM1413 0H1253V1010H1413V0Z"/><glyph unicode="ﬄ" horiz-adv-x="1567" d="M868 0H711V889H328V0H170V889H-8V1010H170V1110Q170 1260 249 1331T487 1403Q499 1403 517 1402T554 1400T593 1396T627 1391V1266Q612 1267 594 1268T558 1271T525 1273T500 1274Q406 1274 367 1232T328 1106V1010H711V1106Q711 1256 790 1328T1028 1401Q1040 1401 1058 1400T1095 1397T1133 1392T1167 1386V1262Q1152 1264 1134 1265T1098 1268T1065 1269T1040 1270Q946 1270 907 1229T868 1102V1010H1108V889H868V0ZM1411 0H1251V1366H1411V0Z"/></font>
</defs>
</svg>
