<?xml version="1.0" encoding="UTF-8"?><svg xmlns="http://www.w3.org/2000/svg" width="100%" height="100%"><defs><font id="web" horiz-adv-x="1032"><!--



NOTICE: This font software is the valuable property 
of Webtype LLC, The Font Bureau, Webtype and/or its 
suppliers and its use by you is covered under the terms 
of the Web Font license agreement between you and Webtype 
LLC. You may ONLY use this font software with the licensed 
web site. Except as specifically permitted by the license, 
you may not copy this font software. If you have any 
questions, please contact Webtype.com. 

For more information, please visit http://www.webtype.com/store/license/?id=23

Licensed to: projects.dev|washingtonpost.com

Serial number: SH-1202
--><font-face font-family="" units-per-em="2048" panose-1="2 11 2 4 3 5 3 2 2 4" ascent="1671" descent="-611" alphabetic="0"/><missing-glyph horiz-adv-x="1024" d="M25 0V1362H997V0H25ZM123 186L453 682L123 1178V186ZM180 98H842L512 594L180 98ZM180 1266L512 768L842 1266H180ZM569 682L901 184V1178L569 682Z"/><glyph unicode=" " horiz-adv-x="444"/><glyph unicode="!" horiz-adv-x="524" d="M180 0V172H344V0H180ZM188 1366H332L289 309H227L188 1366Z"/><glyph unicode="&quot;" horiz-adv-x="710" d="M172 1366H295L274 854H201L172 1366ZM410 1366H537L510 854H436L410 1366Z"/><glyph unicode="#" horiz-adv-x="1222" d="M90 455L109 541H324L381 860H162L178 950H397L469 1366H565L492 950H829L903 1366H1001L926 950H1143L1126 860H915L858 541H1071L1053 455H842L764 0H664L737 455H406L324 0H229L309 455H90ZM420 541H758L813 860H477L420 541Z"/><glyph unicode="$" horiz-adv-x="1193" d="M109 334L205 365Q258 250 353 189T606 127Q674 127 733 142T838 190T908 270T934 383Q934 442 913 483T846 555T729 611T557 666Q465 693 391 721T267 788T190 881T162 1016Q162 1151 259 1241T528 1348V1507H635V1346Q780 1330 868 1270T1010 1092L920 1059Q873 1159 786 1208T547 1257Q404 1257 332 1192T260 1026Q260 983 269 949T313 886T414 828T596 766Q696 737 776 708T913 636T1001 534T1032 381Q1032 303 1003 242T920 136T794 68T635 39V-154H528V41Q385 51 274 128T109 334Z"/><glyph unicode="%" horiz-adv-x="1452" d="M96 1026Q96 1182 164 1278T348 1374Q405 1374 452 1349T533 1276T586 1165T606 1024Q606 948 587 884T534 773T453 701T350 674Q295 674 248 699T167 772T115 883T96 1026ZM193 1026Q193 969 202 919T231 831T281 772T352 750Q434 750 472 821T510 1022Q510 1151 468 1224T346 1298Q266 1298 230 1221T193 1026ZM252 10L1096 1360L1206 1362L354 8L252 10ZM848 264T848 342Q848 420 865 485T916 597T996 668T1102 694Q1157 694 1205 668T1287 595T1340 485T1360 344Q1360 266 1341 202T1287 90T1207 17T1106 -10Q1049 -10 1002 16T921 89T868 199ZM944 344Q944 227 984 148T1106 68Q1186 68 1226 141T1266 340Q1266 469 1222 543T1098 618Q1018 618 981 540T944 344Z"/><glyph unicode="&amp;" horiz-adv-x="1329" d="M98 311Q98 383 122 446T187 564T280 662T393 737Q360 809 337 902T313 1071Q313 1139 335 1196T399 1294T494 1358T614 1382Q682 1382 734 1362T820 1308T871 1228T889 1133Q889 1053 858 987T775 867T655 771T512 698Q571 551 666 421T866 197Q960 295 1027 437T1114 731L1223 707Q1194 535 1116 390T940 143Q981 110 1032 98T1116 86Q1139 86 1166 87T1219 92V-6Q1211 -6 1195 -8T1161 -11T1129 -13T1108 -14Q1061 -14 993 7T862 84Q790 29 693 1T510 -27Q320 -27 209 62T98 311ZM207 307Q207 246 230 200T295 122T392 74T516 57Q594 57 668 85T791 143Q734 194 680 254T578 382T491 519T424 657Q379 630 339 598T271 523T225 428T207 307ZM416 1079Q416 1011 433 929T479 776Q545 803 601 836T699 914T764 1012T788 1135Q788 1207 745 1250T616 1294Q573 1294 537 1278T473 1232T431 1163T416 1079Z"/><glyph unicode="'" horiz-adv-x="471" d="M164 1366H301L279 854H190L164 1366Z"/><glyph unicode="(" horiz-adv-x="512" d="M74 510Q74 727 132 943T338 1366H428Q299 1165 241 954T182 508Q182 299 237 90T430 -342H340Q186 -139 130 77T74 510Z"/><glyph unicode=")" horiz-adv-x="512" d="M80 1366H168Q246 1266 297 1161T379 947T422 727T434 508Q434 291 376 78T172 -342H82Q211 -141 268 65T326 510Q326 721 273 933T80 1366Z"/><glyph unicode="*" horiz-adv-x="1058" d="M111 1006L158 1149L506 983L451 1366H610L557 983L899 1149L946 1006L569 938L831 653L717 565L530 903L348 565L229 653L494 938L111 1006Z"/><glyph unicode="+" horiz-adv-x="1193" d="M152 635V729H547V1139H645V729H1042V635H645V227H547V635H152Z"/><glyph unicode="," horiz-adv-x="487" d="M125 -252L240 0H164V168H317V0L199 -252H125Z"/><glyph unicode="-" horiz-adv-x="452" d="M6 578V678H449V578H6Z"/><glyph unicode="." horiz-adv-x="487" d="M164 0V168H317V0H164Z"/><glyph unicode="/" horiz-adv-x="819" d="M-106 -348L713 1366H809L-12 -348H-106Z"/><glyph unicode="0" horiz-adv-x="1193" d="M90 684Q90 842 124 972T223 1195T383 1339T600 1391Q717 1391 810 1341T968 1197T1069 972T1104 676Q1104 518 1069 389T970 168T812 26T604 -25Q479 -25 384 26T224 170T124 393T90 684ZM199 684Q199 541 227 425T308 228T435 104T602 61Q782 61 886 221T991 680Q991 823 966 938T890 1132T767 1255T600 1298Q397 1298 298 1143T199 684Z"/><glyph unicode="1" horiz-adv-x="942" d="M143 0V88H455V1194Q439 1169 418 1141T364 1077T279 1002T152 915V1032Q263 1095 337 1183T479 1395H559V88H866V0H143Z"/><glyph unicode="2" horiz-adv-x="1118" d="M74 0V98Q326 282 484 411T734 639T859 820T893 995Q893 1058 873 1113T811 1210T707 1274T555 1298Q405 1298 305 1217T182 979L76 1001Q92 1083 129 1154T223 1277T361 1359T549 1389Q768 1389 884 1275T1001 975Q1001 881 955 786T812 584T565 358T205 94H1040V0H74Z"/><glyph unicode="3" horiz-adv-x="1146" d="M47 309L158 328Q189 199 286 131T563 63Q657 63 727 88T842 155T909 252T932 371Q932 432 907 486T829 581T700 643T522 666H360V762H522Q700 762 790 832T881 1038Q881 1161 795 1229T563 1298Q422 1298 334 1231T213 1059L102 1083Q159 1228 273 1309T547 1391Q772 1391 883 1295T995 1042Q995 921 923 838T717 721Q867 692 958 602T1049 373Q1049 291 1016 218T921 92T768 7T561 -25Q354 -25 227 53T47 309Z"/><glyph unicode="4" horiz-adv-x="1155" d="M45 336V422L725 1395H864V428H1090V336H864V0H760V336H45ZM156 428H760V1296L156 428Z"/><glyph unicode="5" horiz-adv-x="1150" d="M76 293L162 324Q215 195 313 127T571 59Q657 59 726 89T844 173T918 300T944 459Q944 535 923 604T857 726T748 809T594 840Q524 840 469 821T370 769T292 696T231 612L135 631L178 1366H961L950 1268H264L231 733Q251 764 286 797T370 861T475 909T596 928Q707 928 790 892T932 793T1021 642T1051 453Q1051 334 1009 245T899 96T746 5T573 -25Q481 -25 402 -3T258 61T147 161T76 293Z"/><glyph unicode="6" horiz-adv-x="1128" d="M90 670V678Q90 828 123 957T223 1183T394 1336T637 1393Q782 1393 888 1311T1038 1087L938 1069Q856 1298 616 1298Q524 1298 446 1261T311 1139T222 923T190 602Q190 600 191 592T193 575T194 557T195 547Q213 631 257 695T359 805T485 872T621 895Q730 895 813 860T955 764T1044 619T1075 436Q1075 338 1042 254T948 108T804 9T621 -27Q504 -27 406 18T238 152T129 371T90 670ZM221 434Q231 356 263 288T346 169T465 89T618 59Q694 59 759 86T873 160T948 274T975 426V436Q975 516 954 583T887 701T776 780T621 809Q539 809 471 780T353 700T270 586T221 455V434Z"/><glyph unicode="7" horiz-adv-x="927" d="M12 1268L27 1366H903L905 1292Q751 1114 651 935T492 590T409 281T385 31Q385 25 385 15T387 0H258V10Q260 119 294 271T393 593T557 937T784 1268H12Z"/><glyph unicode="8" horiz-adv-x="1116" d="M80 342Q80 416 106 476T180 583T289 663T426 723Q274 789 205 865T135 1055Q135 1121 164 1182T247 1289T378 1363T553 1391Q649 1391 728 1367T862 1303T947 1203T977 1073Q977 1012 955 961T891 867T794 792T672 731Q752 702 818 671T934 594T1010 490T1038 350Q1038 270 1008 202T917 83T767 4T561 -25Q455 -25 366 2T213 76T115 190T80 342ZM178 344Q178 213 277 137T563 61Q743 61 839 136T936 352Q936 407 918 449T856 528T744 599T573 670L539 682Q459 653 394 624T280 555T205 465T178 344ZM240 1059Q240 963 308 904T516 786L561 768Q711 821 794 896T877 1067Q877 1180 795 1239T549 1298Q483 1298 427 1282T329 1234T264 1158T240 1059Z"/><glyph unicode="9" horiz-adv-x="1122" d="M63 918Q63 990 90 1072T173 1225T316 1343T524 1391Q647 1391 741 1341T900 1203T997 1000T1030 752V745Q1030 565 994 422T893 180T732 28T518 -25Q192 -25 86 242L186 262Q225 160 302 111T524 61Q612 61 686 104T812 227T894 422T924 680Q924 690 923 699T922 717Q895 664 851 619T753 540T640 487T526 467Q428 467 343 495T196 580T98 721T63 918ZM172 911Q172 557 516 557Q567 557 623 574T732 625T830 707T909 819Q909 827 908 839T907 860Q893 1073 793 1186T528 1300Q434 1300 367 1267T256 1180T193 1060T172 928V911Z"/><glyph unicode=":" horiz-adv-x="487" d="M164 0V168H317V0H164ZM164 840V1008H317V840H164Z"/><glyph unicode=";" horiz-adv-x="487" d="M125 -252L240 0H164V168H317V0L199 -252H125ZM164 840V1008H317V840H164Z"/><glyph unicode="&lt;" horiz-adv-x="1193" d="M150 657V707L1042 1155V1044L309 686V680L1042 319V209L150 657Z"/><glyph unicode="=" horiz-adv-x="1193" d="M152 494V588H1042V494H152ZM152 786V881H1042V786H152Z"/><glyph unicode="&gt;" horiz-adv-x="1193" d="M150 207V317L883 678V682L150 1044V1155L1042 707V655L150 207Z"/><glyph unicode="?" horiz-adv-x="1015" d="M47 997Q84 1183 204 1287T508 1391Q604 1391 682 1364T814 1291T897 1182T926 1044Q926 964 899 906T832 805T743 730T649 670Q596 637 566 598T520 515T499 422T494 322V311H397V317Q397 385 401 441T424 548T479 643T580 729Q613 749 653 774T730 834T789 917T813 1032Q813 1165 724 1231T498 1298Q357 1298 267 1219T143 979L47 997ZM373 0V154H526V0H373Z"/><glyph unicode="@" horiz-adv-x="1466" d="M59 512Q59 664 115 794T268 1018T495 1165T770 1219Q907 1219 1025 1174T1229 1047T1363 853T1411 610Q1411 506 1388 416T1321 258T1216 153T1077 115Q1048 115 1020 124T969 155T936 213T934 301Q916 264 891 231T832 170T750 128T639 113Q590 113 544 132T462 191T405 290T383 430Q383 522 409 605T483 750T597 850T741 887Q809 887 877 854T981 754L1053 874H1094L1036 395Q1032 364 1028 329T1024 264Q1024 231 1042 215T1090 199Q1133 199 1175 223T1250 299T1304 428T1325 610Q1325 723 1283 819T1167 985T990 1095T766 1135Q645 1135 535 1089T340 962T206 768T156 520Q156 366 199 250T318 53T501 -68T735 -109Q829 -109 902 -98T1032 -68T1133 -29T1210 10L1247 -70Q1136 -129 1012 -162T733 -195Q569 -195 443 -138T232 17T103 243T59 512ZM485 418Q485 316 526 252T655 188Q710 188 759 212T848 276T911 375T944 502Q950 561 954 594T956 646T947 678T926 709Q885 762 841 784T748 807Q631 807 558 702T485 418Z"/><glyph unicode="A" horiz-adv-x="1042" d="M14 0L459 1366H592L1030 0H918L778 438H262L119 0H14ZM291 532H754L524 1264L291 532Z"/><glyph unicode="B" horiz-adv-x="1212" d="M182 0V1366H655Q757 1366 834 1342T963 1274T1042 1172T1069 1042Q1069 921 1004 842T834 731Q969 702 1045 611T1122 381Q1122 301 1097 232T1016 111T875 30T666 0H182ZM289 92H700Q860 92 939 172T1018 387Q1018 459 992 513T919 603T809 657T672 676H289V92ZM289 768H655Q796 768 878 833T961 1028Q961 1143 882 1206T662 1270H289V768Z"/><glyph unicode="C" horiz-adv-x="1159" d="M92 680Q92 854 135 987T252 1210T422 1346T625 1393Q803 1393 932 1295T1114 973L1012 946Q963 1139 864 1215T625 1292Q531 1292 453 1251T320 1132T234 937T203 674Q203 522 236 409T327 219T462 106T625 68Q785 68 878 164T1004 432L1104 414Q1055 189 932 82T623 -25Q504 -25 406 21T238 157T130 377T92 680Z"/><glyph unicode="D" horiz-adv-x="1308" d="M182 0V1366H610Q745 1366 847 1323T1026 1206Q1120 1112 1167 978T1214 688Q1214 536 1172 410T1054 192T871 50T633 0H182ZM291 90H610Q721 90 812 131T968 250T1070 437T1106 686Q1106 821 1070 929T970 1114T813 1231T610 1272H291V90Z"/><glyph unicode="E" horiz-adv-x="1103" d="M182 0V1366H1010V1272H289V762H834V670H289V90H1032V0H182Z"/><glyph unicode="F" horiz-adv-x="1017" d="M182 0V1366H981V1272H291V772H801V682H291V0H182Z"/><glyph unicode="G" horiz-adv-x="1275" d="M92 690Q92 850 133 979T250 1200T432 1342T670 1393Q844 1393 963 1291T1137 1008L1030 981Q993 1120 896 1207T643 1294Q539 1294 457 1252T319 1132T233 941T203 690Q203 532 234 416T325 222T467 109T651 72Q731 72 804 100T932 183T1019 312T1051 479V555H666V647H1153V0H1092L1047 184Q990 98 883 40T643 -18Q518 -18 417 27T243 161T131 382T92 690Z"/><glyph unicode="H" horiz-adv-x="1294" d="M182 0V1366H291V778H1004V1366H1112V0H1004V686H291V0H182Z"/><glyph unicode="I" horiz-adv-x="477" d="M184 0V1366H293V0H184Z"/><glyph unicode="J" horiz-adv-x="729" d="M-2 12V102Q29 94 81 87T211 80Q326 80 382 142T438 362V1366H545V377Q545 172 463 78Q420 29 358 9T217 -12Q151 -12 91 -5T-2 12Z"/><glyph unicode="K" horiz-adv-x="1226" d="M182 0V1366H291V508L981 1366H1104L692 852L1212 0H1090L618 772L291 369V0H182Z"/><glyph unicode="L" horiz-adv-x="976" d="M182 0V1366H291V92H946V0H182Z"/><glyph unicode="M" horiz-adv-x="1640" d="M182 0V1366H362L823 168L1282 1366H1456V0H1354V1280L858 0H778L289 1280V0H182Z"/><glyph unicode="N" horiz-adv-x="1331" d="M182 0V1366H352L1008 246Q1012 240 1019 226T1032 195Q1040 177 1049 158Q1049 170 1048 193T1047 243T1047 293T1047 330V1366H1151V0H1032L340 1180Q332 1190 324 1206T305 1239Q295 1257 283 1276Q289 1212 289 1177Q289 1168 289 1161Q287 1126 287 1104V0H182Z"/><glyph unicode="O" horiz-adv-x="1261" d="M92 680Q92 846 133 978T245 1202T416 1343T631 1393Q750 1393 849 1343T1020 1200T1131 976T1171 680Q1171 526 1131 397T1018 175T846 30T627 -23Q510 -23 412 24T243 163T132 384T92 680ZM203 682Q203 528 235 414T325 221T461 105T629 66Q727 66 807 110T943 233T1030 427T1061 680Q1061 823 1034 937T951 1130T814 1252T629 1294Q525 1294 446 1250T313 1125T231 932T203 682Z"/><glyph unicode="P" horiz-adv-x="1101" d="M182 0V1366H631Q733 1366 812 1338T944 1259T1025 1140T1053 989Q1053 901 1023 831T939 711T810 636T643 610H291V0H182ZM291 700H643Q788 700 866 775T944 987Q944 1048 924 1100T866 1191T776 1250T659 1272H291V700Z"/><glyph unicode="Q" horiz-adv-x="1271" d="M94 690Q94 852 133 982T243 1203T415 1343T637 1393Q756 1393 854 1343T1023 1200T1132 978T1171 686Q1171 545 1139 426T1047 216T901 66T711 -14V-33Q711 -127 754 -187T909 -248Q964 -248 1002 -242T1079 -227V-313Q977 -342 897 -342Q758 -342 677 -260Q603 -185 603 -57Q603 -44 604 -31L606 -18Q500 -8 407 35T244 162T134 376T94 690ZM203 684Q203 393 315 233T631 72Q727 72 806 111T941 225T1028 414T1059 680Q1059 819 1033 933T953 1126T819 1250T633 1294Q547 1294 469 1262T332 1156T238 967T203 684Z"/><glyph unicode="R" horiz-adv-x="1214" d="M182 0V1366H676Q780 1366 857 1339T984 1264T1058 1150T1083 1008Q1083 949 1066 896T1014 799T928 726T809 686L1106 0H995L707 672Q680 668 652 667T586 666H289V0H182ZM289 752H676Q830 752 904 822T979 1016Q979 1131 907 1201T700 1272H289V752Z"/><glyph unicode="S" horiz-adv-x="1116" d="M29 315L127 356Q174 221 286 146T578 70Q752 70 849 137T946 350Q946 418 919 466T839 549T710 610T535 664Q324 719 211 807T98 1042Q98 1126 132 1191T224 1301T361 1369T530 1393Q620 1393 700 1371T843 1305T952 1200T1018 1057L909 1026Q880 1155 776 1229T528 1303Q372 1303 289 1234T205 1067Q205 1010 222 966T285 886T408 817T610 752Q727 719 811 682T948 599T1027 493T1053 354Q1053 264 1019 195T925 77T779 3T592 -23Q371 -23 234 59T29 315Z"/><glyph unicode="T" horiz-adv-x="974" d="M27 1272V1366H950V1272H543V0H432V1272H27Z"/><glyph unicode="U" horiz-adv-x="1239" d="M174 471V1366H279V457Q279 62 621 61Q801 61 888 167T975 457V1366H1081V471Q1081 348 1047 256T953 103T810 9T633 -23Q412 -23 293 96T174 471Z"/><glyph unicode="V" horiz-adv-x="1062" d="M16 1366H129L500 289Q502 283 508 263T520 219T531 173T539 137Q541 149 546 171T558 215T571 258T582 289L946 1366H1051L580 0H483L16 1366Z"/><glyph unicode="W" horiz-adv-x="1585" d="M31 1366H137L414 258L436 123L465 258L764 1366H854L1157 258L1184 123L1208 258L1460 1366H1571L1247 0H1120L834 1059L807 1165L782 1059L494 0H369L31 1366Z"/><glyph unicode="X" horiz-adv-x="1005" d="M6 0L440 725L61 1366H184L469 889L502 825L541 889L825 1366H934L559 741L997 0H874L532 580L496 649L461 580L113 0H6Z"/><glyph unicode="Y" horiz-adv-x="989" d="M-16 1366H102L416 813L498 676L580 817L897 1366H1010L549 578V0H438V578L-16 1366Z"/><glyph unicode="Z" d="M61 0V94L831 1272H92V1366H956V1284L182 90H979V0H61Z"/><glyph unicode="[" horiz-adv-x="512" d="M141 -348V1366H455V1290H254V-276H455V-348H141Z"/><glyph unicode="\" horiz-adv-x="901" d="M92 1366H186L1008 -348H909L92 1366Z"/><glyph unicode="]" horiz-adv-x="512" d="M55 -276H258V1290H55V1366H371V-348H55V-276Z"/><glyph unicode="^" horiz-adv-x="1193" d="M162 760L532 1368H662L1032 760H909L592 1270L276 760H162Z"/><glyph unicode="_" horiz-adv-x="1024" d="M0 -174H1024V-266H0V-174Z"/><glyph unicode="`" horiz-adv-x="1026" d="M291 1229L344 1341L672 1174L639 1098L291 1229Z"/><glyph unicode="a" horiz-adv-x="1050" d="M82 266Q82 348 117 409T213 515T355 585T528 623Q599 632 655 632Q660 632 666 632Q686 632 708 631Q751 631 799 633Q799 666 800 695T797 750Q787 840 722 890T512 940Q375 940 301 897T199 741L104 752Q129 887 236 956T508 1026Q698 1026 793 945T889 664V197Q889 148 895 103T911 0H817Q813 14 809 40T803 94T800 149T799 195Q744 103 646 46T403 -12Q337 -12 279 5T177 56T108 142T82 266ZM186 276Q186 174 241 120T414 66Q500 66 565 90T677 152T752 237T799 332V557Q758 558 716 558Q695 558 673 558Q608 557 551 551Q365 531 276 457T186 276Z"/><glyph unicode="b" horiz-adv-x="1058" d="M166 0V1366H256V797Q274 842 308 884T386 957T482 1007T588 1026Q774 1026 875 893T977 506Q977 377 948 279T867 116T744 19T590 -14Q479 -14 396 36T266 176L213 0H166ZM258 432Q258 348 282 281T350 164T451 88T578 61Q721 61 799 168T877 506Q877 721 802 830T584 940Q523 940 472 919T380 861T311 778T258 680V432Z"/><glyph unicode="c" horiz-adv-x="913" d="M82 510Q82 621 109 715T189 878T313 987T475 1026Q631 1026 724 940T852 668L754 653Q731 794 663 867T473 940Q344 940 264 826T184 506Q184 391 208 308T275 172T373 93T492 66Q603 66 669 125T762 332L850 322Q821 156 723 70T494 -16Q406 -16 330 17T199 117T113 282T82 510Z"/><glyph unicode="d" horiz-adv-x="1073" d="M82 496Q82 605 110 701T192 868T321 982T494 1024Q560 1024 611 1007T699 964T764 909T807 854V1366H899V0H807V162Q750 76 667 30T477 -16Q282 -16 182 119T82 496ZM182 498Q182 275 259 168T483 61Q614 61 692 130T807 303V727Q784 770 759 809T696 876T610 922T496 940Q418 940 360 909T261 819T202 679T182 498Z"/><glyph unicode="e" horiz-adv-x="1011" d="M82 485Q82 614 117 714T212 884T354 990T528 1026Q618 1026 690 992T814 898T898 756T938 575Q940 559 939 541T940 506H180Q184 289 273 176T530 63Q616 63 698 110T829 287L920 272Q867 125 761 55T522 -16Q422 -16 341 20T203 122T114 281T82 485ZM186 582H840Q826 752 744 847T524 942Q454 942 394 915T289 839T216 725T186 582Z"/><glyph unicode="f" horiz-adv-x="495" d="M-18 930V1008H166V1112Q166 1262 248 1330T469 1399Q477 1399 493 1398T527 1395T560 1391T586 1386V1294Q555 1298 511 1302T449 1307Q353 1307 309 1259T264 1116V1008H512V930H264V0H166V930H-18Z"/><glyph unicode="g" horiz-adv-x="964" d="M66 -145Q66 -73 115 -15T258 68Q184 88 153 127T121 223Q121 289 167 329T266 381Q200 418 164 499T127 672Q127 744 153 808T228 920T341 997T479 1026Q540 1026 587 1012T678 975Q686 1012 699 1043T738 1099T808 1138T922 1153H940V1059H909Q821 1059 787 1020T741 915Q782 874 809 815T836 674Q836 598 811 533T741 419T634 343T496 315Q439 315 396 324T338 338Q291 338 252 306T213 223Q213 184 238 163T310 132T419 120T561 115Q788 109 886 59T985 -104Q985 -163 954 -215T863 -307T715 -367T514 -389Q289 -389 178 -323T66 -145ZM172 -141Q172 -221 249 -268T512 -315Q692 -315 788 -259T885 -117Q885 -74 867 -47T790 -3T622 22T330 35Q267 17 220 -21T172 -141ZM229 666Q229 531 298 461T485 391Q604 391 672 463T741 670Q741 721 725 769T677 856T597 918T485 942Q422 942 374 920T294 859T246 771T229 666Z"/><glyph unicode="h" horiz-adv-x="1089" d="M166 0V1366H258V776Q278 815 314 859T400 940T514 1001T651 1026Q731 1026 783 1004T868 941T914 846T928 727V0H829V727Q829 934 645 934Q522 934 432 872T264 698V0H166Z"/><glyph unicode="i" horiz-adv-x="438" d="M152 1204V1360H283V1204H152ZM170 0V1008H268V0H170Z"/><glyph unicode="j" horiz-adv-x="436" d="M-137 -283Q-102 -287 -69 -288T10 -289Q63 -289 95 -270T142 -214T162 -130T166 -23V1008H264V-66Q264 -238 192 -306T-2 -375Q-31 -375 -66 -371T-137 -360V-283ZM147 1204V1360H279V1204H147Z"/><glyph unicode="k" horiz-adv-x="972" d="M166 0V1366H264V535L262 430L319 504L776 1008H891L588 676L922 0H813L518 600L264 319V0H166Z"/><glyph unicode="l" horiz-adv-x="438" d="M170 0V1366H268V0H170Z"/><glyph unicode="m" horiz-adv-x="1642" d="M166 0V1008H260V786Q283 825 320 868T405 946T505 1003T610 1026Q727 1026 794 962T866 786Q893 831 930 874T1012 950T1110 1002T1223 1022Q1342 1022 1409 948Q1483 870 1483 727V0H1386V723Q1386 832 1341 880T1212 928Q1159 928 1110 909T1017 857T935 784T870 698V0H774V727Q774 825 730 881T604 938Q506 938 426 878T264 702V0H166Z"/><glyph unicode="n" horiz-adv-x="1089" d="M166 0V1008H260V786Q287 827 327 869T416 946T524 1003T651 1026Q786 1026 857 956T928 727V0H829V727Q829 836 783 885T639 934Q528 934 435 874T264 700V0H166Z"/><glyph unicode="o" horiz-adv-x="1017" d="M82 514Q82 633 117 727T210 887T345 990T506 1026Q604 1026 684 988T819 883T905 720T936 510Q936 387 901 290T807 125T670 21T508 -16Q418 -16 340 20T205 126T115 293T82 514ZM182 508Q182 406 205 324T272 184T373 93T504 61Q574 61 634 90T739 176T810 316T836 510Q836 616 809 696T737 830T632 912T504 940Q438 940 380 912T278 829T208 693T182 508Z"/><glyph unicode="p" horiz-adv-x="1058" d="M166 -348V1008H260V825Q283 862 314 898T387 962T478 1008T586 1026Q670 1026 741 997T865 904T947 742T977 506Q977 387 949 291T869 127T747 23T592 -14Q477 -14 391 36T264 150V-348H166ZM264 262Q284 227 314 192T382 127T468 80T578 61Q639 61 694 87T789 167T853 305T877 506Q877 719 804 829T584 940Q488 940 407 887T264 711V262Z"/><glyph unicode="q" horiz-adv-x="1062" d="M82 494Q82 600 109 696T190 865T320 981T496 1024Q555 1024 604 1010T692 972T759 919T807 858L864 1008H899V-348H807V180Q754 76 666 31T489 -14Q405 -14 331 16T201 109T114 267T82 494ZM182 494Q182 273 269 167T496 61Q562 61 619 83T718 152T783 268T807 432V723Q784 766 759 806T698 875T614 923T500 942Q357 942 270 822T182 494Z"/><glyph unicode="r" horiz-adv-x="630" d="M166 0V1008H260V788Q274 837 309 881T391 957T490 1007T592 1026H629V930H600Q557 930 509 917T415 873T329 790T264 662V0H166Z"/><glyph unicode="s" horiz-adv-x="894" d="M8 270L106 291Q126 176 219 121T449 66Q584 66 659 121T735 270Q735 321 708 356T636 415T535 455T416 487Q350 503 288 523T176 574T98 652T68 770Q68 825 92 872T163 953T271 1006T412 1026Q584 1026 676 957T809 770L711 745Q676 837 601 888T410 940Q301 940 234 894T166 768Q166 721 190 689T257 636T352 600T463 571Q531 555 596 535T715 482T801 400T834 276Q834 145 732 65T453 -16Q269 -16 153 54T8 270Z"/><glyph unicode="t" horiz-adv-x="591" d="M2 930V1008H164L168 1251H260V1008H494V930H260V231Q260 141 301 105T410 68Q445 68 493 74T565 86V6Q524 -4 481 -9T397 -14Q342 -14 298 -1T224 44T178 129T162 260V930H2Z"/><glyph unicode="u" horiz-adv-x="1071" d="M160 342V1008H258V330Q258 189 311 125T487 61Q585 61 667 113T813 287V1008H909V0H821V186Q762 84 671 34T481 -16Q407 -16 348 3T247 66T183 176T160 342Z"/><glyph unicode="v" horiz-adv-x="851" d="M4 1008H113L356 299Q385 215 401 166T426 82Q436 113 453 164T500 297L758 1008H850L481 0H367L4 1008Z"/><glyph unicode="w" horiz-adv-x="1298" d="M16 1008H121L344 221L367 121L391 221L600 1008H696L922 213L944 115L971 209L1190 1008H1288L991 0H891L670 758L645 862L625 762L416 0H313L16 1008Z"/><glyph unicode="x" horiz-adv-x="894" d="M33 0L387 535L57 1008H172L412 651L438 610L463 651L702 1008H807L494 541L872 0H762L461 434L444 465L430 434L137 0H33Z"/><glyph unicode="y" horiz-adv-x="837" d="M6 1008H113L391 281L436 143L481 283L739 1008H831L455 -68Q408 -203 320 -276T74 -354L70 -274Q152 -270 215 -237T317 -148T364 -18Q365 -5 365 9Q365 71 338 141L6 1008Z"/><glyph unicode="z" horiz-adv-x="874" d="M76 0V70L682 926H119V1008H815V956L195 82H821V0H76Z"/><glyph unicode="{" horiz-adv-x="493" d="M33 467V553Q103 571 128 617T154 741V1102Q154 1229 229 1297T459 1366V1284H438Q258 1284 258 1090V727Q258 674 249 637T223 576T181 535T125 506Q197 473 227 421T258 283V-63Q258 -172 304 -219T428 -266H459V-348Q301 -348 228 -281T154 -51V274Q154 360 127 403T33 467Z"/><glyph unicode="|" horiz-adv-x="399" d="M150 -342V1366H246V-342H150Z"/><glyph unicode="}" horiz-adv-x="493" d="M31 -266H61Q139 -266 186 -219T233 -63V283Q233 369 261 421T362 506Q333 518 309 534T269 575T243 636T233 727V1090Q233 1192 186 1238T51 1284H31V1366Q45 1368 51 1368T68 1368Q201 1368 269 1295T338 1102V741Q338 663 364 619T457 557V471Q385 451 362 406T338 274V-51Q338 -213 271 -279T47 -346H31V-266Z"/><glyph unicode="~" horiz-adv-x="1193" d="M106 590Q159 701 222 758T383 815Q438 815 494 793T605 745T711 697T813 674Q862 674 899 695T961 745Q990 778 1012 819Q1030 809 1047 801Q1061 793 1072 786T1087 774Q1028 668 965 620T803 571Q752 571 698 593T588 643T479 692T377 715Q328 715 293 693T235 640T198 582T180 543Q164 553 150 561Q138 569 125 577T106 590Z"/><glyph unicode=" " horiz-adv-x="1193"/><glyph unicode="¡" horiz-adv-x="524" d="M193 846V1018H356V846H193ZM205 -348L248 709H309L348 -348H205Z"/><glyph unicode="¢" horiz-adv-x="1193" d="M211 698Q211 796 238 880T313 1026T423 1125T561 1169V1423H651V1169Q762 1155 844 1086T963 864L864 850Q839 952 776 1019T598 1087Q532 1087 480 1057T391 973T335 849T315 696Q315 608 333 535T388 409T476 327T596 297Q700 297 773 361T872 543L963 528Q928 397 847 318T651 221V-66H561V219Q485 225 422 257T311 348T238 495T211 698Z"/><glyph unicode="£" horiz-adv-x="1193" d="M49 0V92Q110 92 158 100Q318 131 392 222T467 492Q467 523 462 565T451 657H209V743H442Q438 776 430 831T420 999Q420 1079 444 1151T515 1275T625 1358T772 1389Q809 1389 850 1380T930 1350T1004 1295T1067 1210L985 1159Q932 1233 883 1259T760 1286Q717 1286 676 1268T602 1215T549 1132T528 1024Q528 956 535 886T549 743H870V657H559Q567 587 568 534T573 449Q575 412 564 358T524 250T443 151T315 86Q338 90 410 91T565 94Q659 96 774 96Q825 96 867 101T943 119T1006 158T1063 227L1143 176Q1086 88 995 44T735 0H49Z"/><glyph unicode="¤" horiz-adv-x="1193" d="M205 733Q205 799 226 861T287 975L211 1051L283 1122L358 1047Q407 1086 468 1107T600 1128Q670 1128 731 1107T842 1047L918 1122L989 1051L913 975Q952 924 973 862T995 733Q995 667 974 605T913 492L989 416L918 344L842 420Q793 381 732 360T600 338Q530 338 469 359T358 420L283 344L211 416L287 492Q248 543 227 605T205 733ZM297 733Q297 670 320 615T385 517T481 452T600 428Q663 428 718 451T815 517T879 614T903 733Q903 796 880 851T815 948T719 1013T600 1038Q537 1038 482 1014T385 948T321 852T297 733Z"/><glyph unicode="¥" horiz-adv-x="1193" d="M78 1366H201L602 657L1010 1366H1116L807 829H1073V741H752L649 559H1073V469H647V0H539V469H111V559H541L438 741H111V829H389L78 1366Z"/><glyph unicode="¦" horiz-adv-x="399" d="M152 313H248V-342H152V313ZM152 690V1366H248V690H152Z"/><glyph unicode="§" horiz-adv-x="1193" d="M135 -53L240 -23Q260 -89 300 -132T391 -203T498 -243T610 -256Q776 -256 857 -185T938 -8Q938 74 886 125T711 205Q602 230 506 253T338 311T223 396T180 524Q180 628 233 701T403 836Q317 883 267 935T217 1081Q217 1218 312 1303T614 1389Q671 1389 728 1372T835 1320T923 1237T981 1126L874 1096Q833 1186 761 1241T571 1296Q448 1296 389 1240T330 1098Q330 1053 351 1017T407 955T488 909T582 874Q602 868 637 857T704 836T759 818T780 811Q895 776 959 710T1024 532Q1024 503 1013 469T977 398T916 330T827 274Q948 235 1000 163T1053 -20Q1053 -86 1024 -144T941 -247T809 -316T635 -342Q555 -342 479 -330T338 -286T220 -198T135 -53ZM291 557Q291 516 302 483T357 418T488 359T725 299Q807 340 859 400T911 516Q911 561 902 593T852 655T727 719T494 797Q398 752 345 684T291 557Z"/><glyph unicode="¨" horiz-adv-x="1026" d="M272 1212Q272 1245 297 1268T352 1292Q393 1292 415 1269T438 1212Q438 1177 415 1153T354 1128Q323 1128 298 1152T272 1212ZM582 1212Q582 1245 605 1268T664 1292Q703 1292 728 1269T754 1212Q754 1177 728 1153T666 1128Q631 1128 607 1153T582 1212Z"/><glyph unicode="©" horiz-adv-x="1677" d="M133 682Q133 827 185 955T332 1178T556 1329T840 1384Q994 1384 1122 1329T1344 1179T1490 955T1542 682Q1542 535 1490 407T1345 184T1123 34T840 -20Q674 -20 542 29T320 170T181 392T133 682ZM217 682Q217 541 259 425T381 228T577 103T840 59Q977 59 1090 107T1286 240T1413 437T1458 682Q1458 811 1413 923T1286 1121T1091 1254T840 1303Q703 1303 589 1255T392 1121T263 924T217 682ZM502 678Q502 782 528 862T601 996T710 1078T848 1106Q1090 1106 1163 856L1079 829Q1042 933 991 975T852 1018Q735 1018 668 933T600 674Q600 514 670 426T844 338Q946 338 997 392T1081 549L1163 522Q1120 387 1046 324T848 260Q764 260 700 294T591 386T525 519T502 678Z"/><glyph unicode="ª" horiz-adv-x="796" d="M102 930Q102 979 127 1021T197 1092T305 1137T444 1149H547V1184Q547 1243 505 1280T379 1317Q301 1317 255 1284T193 1194L117 1210Q133 1302 203 1346T379 1391Q455 1391 504 1375T582 1325T623 1246T635 1139V881Q635 840 638 810T645 758H559Q555 774 551 801T547 848Q512 797 456 769T326 741Q226 741 164 786T102 930ZM199 924Q199 875 233 844T336 813Q385 813 425 831T492 880T535 949T551 1026V1073Q535 1075 505 1075T442 1075Q313 1075 256 1033T199 924Z"/><glyph unicode="«" horiz-adv-x="710" d="M66 528L285 803H371L203 528L371 242H285L66 528ZM352 528L573 803H659L492 528L659 242H573L352 528Z"/><glyph unicode="¬" horiz-adv-x="1193" d="M152 786V881H1042V453H944V786H152Z"/><glyph unicode="­" horiz-adv-x="452" d="M6 578V678H449V578H6Z"/><glyph unicode="®" horiz-adv-x="1034" d="M78 944Q78 1034 112 1114T206 1253T346 1347T518 1382Q608 1382 688 1348T827 1254T921 1114T956 944Q956 852 922 772T828 633T688 539T518 504Q426 504 346 538T207 632T113 772T78 944ZM158 944Q158 866 184 798T259 678T373 597T518 567Q596 567 661 597T775 678T851 797T879 944Q879 1022 851 1090T775 1210T662 1291T518 1321Q440 1321 374 1292T259 1211T185 1091T158 944ZM334 717V1171H545Q631 1171 679 1134T727 1030Q727 944 639 909L723 717H631L561 887H416V717H334ZM416 965H573Q606 965 618 986T631 1030Q631 1055 615 1074T569 1094H416V965Z"/><glyph unicode="¯" horiz-adv-x="1026" d="M205 1174V1268H817V1174H205Z"/><glyph unicode="°" horiz-adv-x="690" d="M82 1130Q82 1185 102 1233T158 1318T242 1374T346 1395Q399 1395 446 1375T529 1319T586 1235T608 1130Q608 1077 588 1030T531 946T445 888T338 866Q285 866 239 887T158 945T103 1029T82 1130ZM180 1128Q180 1093 192 1062T226 1007T276 969T338 954Q418 954 465 1007T512 1133Q512 1168 500 1200T465 1257T412 1297T344 1313Q270 1313 225 1258T180 1128Z"/><glyph unicode="±" horiz-adv-x="1193" d="M152 41V135H1042V41H152ZM152 635V729H547V1139H645V729H1042V635H645V227H547V635H152Z"/><glyph unicode="²" horiz-adv-x="813" d="M82 1411Q148 1649 407 1649Q554 1649 622 1576T690 1393Q690 1334 652 1268T548 1137T394 1009T209 895H723L727 811H84V881Q213 973 307 1043T463 1171T557 1279T588 1382Q588 1472 544 1520T405 1569Q313 1569 253 1527T170 1388L82 1411Z"/><glyph unicode="³" horiz-adv-x="800" d="M55 987L133 1024Q164 940 218 904T385 868Q496 868 551 915T606 1036Q606 1106 544 1152T358 1198H256V1276H362Q466 1276 518 1317T571 1432Q571 1491 519 1534T381 1577Q225 1577 164 1434L84 1464Q176 1648 379 1649Q506 1649 581 1586T657 1423Q657 1362 616 1314T514 1245Q586 1229 640 1176T694 1038Q694 989 672 945T609 869T511 817T383 797Q139 797 55 987Z"/><glyph unicode="´" horiz-adv-x="1026" d="M354 1178L682 1343L737 1233L387 1102L354 1178Z"/><glyph unicode="µ" horiz-adv-x="1071" d="M160 -276V1008H258V330Q258 189 311 125T487 61Q585 61 667 113T813 287V1008H909V0H821V186Q762 84 671 34T481 -16Q411 -16 349 4T254 68V-276H160Z"/><glyph unicode="¶" horiz-adv-x="968" d="M125 1010Q125 1098 156 1165T244 1277T380 1343T553 1366H809V-344H723V1286H633V-344H547V641Q508 641 488 644T434 653Q352 671 294 707T198 790T143 894T125 1010Z"/><glyph unicode="·" horiz-adv-x="487" d="M156 600V782H334V600H156Z"/><glyph unicode="¸" horiz-adv-x="1026" d="M307 -332L328 -276Q357 -284 387 -291T475 -299Q516 -299 548 -280T580 -221Q580 -211 577 -199T563 -176T534 -159T483 -152Q446 -152 416 -157T375 -164L428 0H498L469 -94Q475 -92 488 -91T512 -90Q590 -90 622 -126T655 -205Q655 -232 646 -259T616 -308T558 -344T469 -358Q399 -358 367 -349T307 -332Z"/><glyph unicode="¹" horiz-adv-x="770" d="M151 1343V1429Q210 1468 276 1515T413 1649H479V891H686V811H157V891H391V1515Q352 1474 297 1433T151 1343Z"/><glyph unicode="º" horiz-adv-x="796" d="M121 1073Q121 1147 142 1206T202 1307T289 1369T393 1391Q459 1391 511 1367T600 1300T656 1198T676 1069Q676 995 655 936T595 834T506 768T395 745Q260 745 191 835T121 1073ZM211 1071Q211 950 261 883T393 815Q481 815 534 882T588 1071Q588 1196 533 1257T397 1319Q317 1319 264 1257T211 1071Z"/><glyph unicode="»" horiz-adv-x="710" d="M51 242L219 528L51 803H137L358 528L137 242H51ZM340 242L508 528L340 803H428L645 528L428 242H340Z"/><glyph unicode="¼" horiz-adv-x="1863" d="M147 1085V1171Q206 1210 272 1257T410 1391H475V633H682V553H154V633H387V1257Q348 1216 293 1175T147 1085ZM586 0L1354 1366H1454L688 0H586ZM1112 195V264L1522 838H1630V272H1767V195H1630V0H1542V195H1112ZM1202 272H1542V745L1202 272Z"/><glyph unicode="½" horiz-adv-x="1863" d="M127 1085V1171Q186 1210 251 1257T389 1391H455V633H662V553H133V633H367V1257Q328 1216 273 1175T127 1085ZM479 0L1245 1366H1348L582 0H479ZM1122 600Q1188 838 1448 838Q1595 838 1663 765T1731 582Q1731 523 1693 457T1589 326T1435 198T1249 84H1763L1767 0H1124V70Q1253 162 1347 232T1504 360T1597 468T1628 571Q1628 661 1584 709T1446 758Q1354 758 1294 716T1210 578L1122 600Z"/><glyph unicode="¾" horiz-adv-x="1863" d="M102 729L180 766Q211 682 265 646T432 610Q543 610 598 657T653 778Q653 848 591 894T406 940H303V1018H410Q514 1018 566 1059T618 1174Q618 1233 566 1276T428 1319Q272 1319 211 1176L131 1206Q223 1390 426 1391Q553 1391 629 1328T705 1165Q705 1104 664 1056T561 987Q633 971 687 918T741 780Q741 731 719 687T656 611T558 559T430 539Q186 539 102 729ZM584 6L1352 1372H1452L686 6H584ZM1171 195V264L1581 838H1690V272H1827V195H1690V0H1602V195H1171ZM1262 272H1602V745L1262 272Z"/><glyph unicode="¿" horiz-adv-x="1015" d="M92 -49Q92 31 117 90T185 196T280 276T387 342Q432 369 459 402T501 479T520 572T524 682V692H621V686Q621 618 617 561T594 454T539 358T438 272Q403 249 363 224T286 163T226 79T201 -37Q201 -176 289 -237T520 -299Q661 -299 751 -217T874 25L971 6Q934 -180 814 -283T510 -387Q414 -387 336 -363T204 -293T121 -186T92 -49ZM492 850V1004H645V850H492Z"/><glyph unicode="À" horiz-adv-x="1042" d="M14 0L459 1366H592L1030 0H918L778 438H262L119 0H14ZM260 1577L313 1689L641 1522L608 1446L260 1577ZM291 532H754L524 1264L291 532Z"/><glyph unicode="Á" horiz-adv-x="1042" d="M14 0L459 1366H592L1030 0H918L778 438H262L119 0H14ZM291 532H754L524 1264L291 532ZM422 1526L750 1691L805 1581L455 1450L422 1526Z"/><glyph unicode="Â" horiz-adv-x="1042" d="M14 0L459 1366H592L1030 0H918L778 438H262L119 0H14ZM284 1519L522 1687L760 1519L712 1460L522 1560L332 1460L284 1519ZM291 532H754L524 1264L291 532Z"/><glyph unicode="Ã" horiz-adv-x="1042" d="M14 0L459 1366H592L1030 0H918L778 438H262L119 0H14ZM195 1532Q236 1593 289 1623T391 1653Q440 1653 473 1641T533 1615T588 1589T651 1577Q690 1577 718 1592T768 1630L831 1571Q749 1483 657 1483Q610 1483 577 1495T514 1520T457 1546T393 1558Q346 1558 320 1538T264 1487L195 1532ZM291 532H754L524 1264L291 532Z"/><glyph unicode="Ä" horiz-adv-x="1042" d="M14 0L459 1366H592L1030 0H918L778 438H262L119 0H14ZM280 1560Q280 1593 305 1616T360 1640Q401 1640 423 1617T446 1560Q446 1525 423 1501T362 1476Q331 1476 306 1500T280 1560ZM291 532H754L524 1264L291 532ZM590 1560Q590 1593 613 1616T672 1640Q711 1640 736 1617T762 1560Q762 1525 736 1501T674 1476Q639 1476 615 1501T590 1560Z"/><glyph unicode="Å" horiz-adv-x="1042" d="M14 0L459 1354L469 1356Q442 1362 424 1378T394 1414T375 1455T369 1495Q369 1565 414 1610T530 1655Q587 1655 633 1611T680 1495Q680 1454 654 1410T580 1356L592 1354L1030 0H913L774 438H262L119 0H14ZM291 532H750L520 1257L291 532ZM446 1499Q446 1470 467 1445T530 1419Q559 1419 582 1441T606 1497Q606 1532 583 1555T530 1579Q491 1579 469 1556T446 1499Z"/><glyph unicode="Æ" horiz-adv-x="1744" d="M-16 0L797 1366H1624V1272H932V762H1475V670H932V90H1673V0H825V461H356L88 0H-16ZM410 547H825V1262L410 547Z"/><glyph unicode="Ç" horiz-adv-x="1159" d="M92 680Q92 854 135 987T252 1210T422 1346T625 1393Q803 1393 932 1295T1114 973L1012 946Q963 1139 864 1215T625 1292Q531 1292 453 1251T320 1132T234 937T203 674Q203 522 236 409T327 219T462 106T625 68Q785 68 878 164T1004 432L1104 414Q1057 195 939 89T643 -25L623 -94L676 -90Q754 -90 788 -131T823 -215Q823 -240 814 -265T783 -312T723 -348T633 -362Q563 -362 529 -352T471 -332L498 -270Q523 -282 556 -288T647 -295Q686 -295 714 -278T743 -221Q743 -211 740 -200T726 -179T694 -164T637 -158Q608 -158 579 -160T539 -164L582 -23Q471 -15 381 34T227 172T127 388T92 680Z"/><glyph unicode="È" horiz-adv-x="1103" d="M182 0V1366H1010V1272H289V762H834V670H289V90H1032V0H182ZM387 1577L440 1689L768 1522L735 1446L387 1577Z"/><glyph unicode="É" horiz-adv-x="1103" d="M182 0V1366H1010V1272H289V762H834V670H289V90H1032V0H182ZM438 1526L766 1691L821 1581L471 1450L438 1526Z"/><glyph unicode="Ê" horiz-adv-x="1103" d="M182 0V1366H1010V1272H289V762H834V670H289V90H1032V0H182ZM354 1519L592 1687L830 1519L782 1460L592 1560L402 1460L354 1519Z"/><glyph unicode="Ë" horiz-adv-x="1103" d="M182 0V1366H1010V1272H289V762H834V670H289V90H1032V0H182ZM356 1560Q356 1593 381 1616T436 1640Q477 1640 499 1617T522 1560Q522 1525 499 1501T438 1476Q407 1476 382 1500T356 1560ZM666 1560Q666 1593 689 1616T748 1640Q787 1640 812 1617T838 1560Q838 1525 812 1501T750 1476Q715 1476 691 1501T666 1560Z"/><glyph unicode="Ì" horiz-adv-x="477" d="M-39 1577L14 1689L342 1522L309 1446L-39 1577ZM184 0V1366H293V0H184Z"/><glyph unicode="Í" horiz-adv-x="477" d="M123 1526L451 1691L506 1581L156 1450L123 1526ZM184 0V1366H293V0H184Z"/><glyph unicode="Î" horiz-adv-x="477" d="M2 1519L240 1687L478 1519L430 1460L240 1560L50 1460L2 1519ZM184 0V1366H293V0H184Z"/><glyph unicode="Ï" horiz-adv-x="477" d="M0 1560Q0 1593 25 1616T80 1640Q121 1640 143 1617T166 1560Q166 1525 143 1501T82 1476Q51 1476 26 1500T0 1560ZM184 0V1366H293V0H184ZM310 1560Q310 1593 333 1616T392 1640Q431 1640 456 1617T482 1560Q482 1525 456 1501T394 1476Q359 1476 335 1501T310 1560Z"/><glyph unicode="Ð" horiz-adv-x="1308" d="M39 690V782H182V1366H610Q745 1366 847 1323T1026 1206Q1120 1112 1167 978T1214 688Q1214 536 1172 410T1054 192T871 50T633 0H182V690H39ZM291 90H610Q721 90 812 131T968 250T1070 437T1106 686Q1106 821 1070 929T970 1114T813 1231T610 1272H291V782H709V690H291V90Z"/><glyph unicode="Ñ" horiz-adv-x="1331" d="M182 0V1366H352L1008 246Q1012 240 1019 226T1032 195Q1040 177 1049 158Q1049 170 1048 193T1047 243T1047 293T1047 330V1366H1151V0H1032L340 1180Q332 1190 324 1206T305 1239Q295 1257 283 1276Q291 1196 289 1161T287 1104V0H182ZM375 1532Q416 1593 469 1623T571 1653Q620 1653 653 1641T713 1615T768 1589T831 1577Q870 1577 898 1592T948 1630L1011 1571Q929 1483 837 1483Q790 1483 757 1495T694 1520T637 1546T573 1558Q526 1558 500 1538T444 1487L375 1532Z"/><glyph unicode="Ò" horiz-adv-x="1261" d="M92 680Q92 846 133 978T245 1202T416 1343T631 1393Q750 1393 849 1343T1020 1200T1131 976T1171 680Q1171 526 1131 397T1018 175T846 30T627 -23Q510 -23 412 24T243 163T132 384T92 680ZM203 682Q203 528 235 414T325 221T461 105T629 66Q727 66 807 110T943 233T1030 427T1061 680Q1061 823 1034 937T951 1130T814 1252T629 1294Q525 1294 446 1250T313 1125T231 932T203 682ZM410 1577L463 1689L791 1522L758 1446L410 1577Z"/><glyph unicode="Ó" horiz-adv-x="1261" d="M92 680Q92 846 133 978T245 1202T416 1343T631 1393Q750 1393 849 1343T1020 1200T1131 976T1171 680Q1171 526 1131 397T1018 175T846 30T627 -23Q510 -23 412 24T243 163T132 384T92 680ZM203 682Q203 528 235 414T325 221T461 105T629 66Q727 66 807 110T943 233T1030 427T1061 680Q1061 823 1034 937T951 1130T814 1252T629 1294Q525 1294 446 1250T313 1125T231 932T203 682ZM508 1526L836 1691L891 1581L541 1450L508 1526Z"/><glyph unicode="Ô" horiz-adv-x="1261" d="M92 680Q92 846 133 978T245 1202T416 1343T631 1393Q750 1393 849 1343T1020 1200T1131 976T1171 680Q1171 526 1131 397T1018 175T846 30T627 -23Q510 -23 412 24T243 163T132 384T92 680ZM203 682Q203 528 235 414T325 221T461 105T629 66Q727 66 807 110T943 233T1030 427T1061 680Q1061 823 1034 937T951 1130T814 1252T629 1294Q525 1294 446 1250T313 1125T231 932T203 682ZM391 1519L629 1687L867 1519L819 1460L629 1560L439 1460L391 1519Z"/><glyph unicode="Õ" horiz-adv-x="1261" d="M92 680Q92 846 133 978T245 1202T416 1343T631 1393Q750 1393 849 1343T1020 1200T1131 976T1171 680Q1171 526 1131 397T1018 175T846 30T627 -23Q510 -23 412 24T243 163T132 384T92 680ZM203 682Q203 528 235 414T325 221T461 105T629 66Q727 66 807 110T943 233T1030 427T1061 680Q1061 823 1034 937T951 1130T814 1252T629 1294Q525 1294 446 1250T313 1125T231 932T203 682ZM310 1532Q351 1593 404 1623T506 1653Q555 1653 588 1641T648 1615T703 1589T766 1577Q805 1577 833 1592T883 1630L946 1571Q864 1483 772 1483Q725 1483 692 1495T629 1520T572 1546T508 1558Q461 1558 435 1538T379 1487L310 1532Z"/><glyph unicode="Ö" horiz-adv-x="1261" d="M92 680Q92 846 133 978T245 1202T416 1343T631 1393Q750 1393 849 1343T1020 1200T1131 976T1171 680Q1171 526 1131 397T1018 175T846 30T627 -23Q510 -23 412 24T243 163T132 384T92 680ZM203 682Q203 528 235 414T325 221T461 105T629 66Q727 66 807 110T943 233T1030 427T1061 680Q1061 823 1034 937T951 1130T814 1252T629 1294Q525 1294 446 1250T313 1125T231 932T203 682ZM389 1560Q389 1593 414 1616T469 1640Q510 1640 532 1617T555 1560Q555 1525 532 1501T471 1476Q440 1476 415 1500T389 1560ZM699 1560Q699 1593 722 1616T781 1640Q820 1640 845 1617T871 1560Q871 1525 845 1501T783 1476Q748 1476 724 1501T699 1560Z"/><glyph unicode="×" horiz-adv-x="1193" d="M209 362L526 680L209 997L279 1071L596 754L913 1071L985 999L668 682L985 365L913 295L596 612L279 295L209 362Z"/><glyph unicode="Ø" horiz-adv-x="1261" d="M90 -41L233 172Q165 264 129 391T92 680Q92 846 133 978T245 1202T416 1343T631 1393Q729 1393 813 1359T965 1262L1055 1397H1159L1024 1194Q1094 1102 1132 972T1171 680Q1171 526 1131 397T1018 175T846 30T627 -23Q432 -23 293 106L195 -41H90ZM203 682Q203 549 227 447T295 266L909 1180Q800 1295 629 1294Q525 1294 446 1250T313 1125T231 932T203 682ZM350 190Q463 65 629 66Q727 66 807 110T943 233T1030 427T1061 680Q1061 948 965 1106L350 190Z"/><glyph unicode="Ù" horiz-adv-x="1239" d="M174 471V1366H279V457Q279 62 621 61Q801 61 888 167T975 457V1366H1081V471Q1081 348 1047 256T953 103T810 9T633 -23Q412 -23 293 96T174 471ZM385 1577L438 1689L766 1522L733 1446L385 1577Z"/><glyph unicode="Ú" horiz-adv-x="1239" d="M174 471V1366H279V457Q279 62 621 61Q801 61 888 167T975 457V1366H1081V471Q1081 348 1047 256T953 103T810 9T633 -23Q412 -23 293 96T174 471ZM520 1526L848 1691L903 1581L553 1450L520 1526Z"/><glyph unicode="Û" horiz-adv-x="1239" d="M174 471V1366H279V457Q279 62 621 61Q801 61 888 167T975 457V1366H1081V471Q1081 348 1047 256T953 103T810 9T633 -23Q412 -23 293 96T174 471ZM376 1519L614 1687L852 1519L804 1460L614 1560L424 1460L376 1519Z"/><glyph unicode="Ü" horiz-adv-x="1239" d="M174 471V1366H279V457Q279 62 621 61Q801 61 888 167T975 457V1366H1081V471Q1081 348 1047 256T953 103T810 9T633 -23Q412 -23 293 96T174 471ZM393 1560Q393 1593 418 1616T473 1640Q514 1640 536 1617T559 1560Q559 1525 536 1501T475 1476Q444 1476 419 1500T393 1560ZM703 1560Q703 1593 726 1616T785 1640Q824 1640 849 1617T875 1560Q875 1525 849 1501T787 1476Q752 1476 728 1501T703 1560Z"/><glyph unicode="Ý" horiz-adv-x="989" d="M-16 1366H102L416 813L498 676L580 817L897 1366H1010L549 578V0H438V578L-16 1366ZM377 1526L705 1691L760 1581L410 1450L377 1526Z"/><glyph unicode="Þ" horiz-adv-x="1101" d="M182 0V1366H291V1163H641Q805 1163 903 1087Q969 1038 1011 949T1053 768Q1053 684 1024 613T941 488T812 404T645 373H291V0H182ZM291 463H649Q717 463 772 487T865 553T924 649T946 764Q946 830 925 887T865 986T775 1052T662 1077H291V463Z"/><glyph unicode="ß" horiz-adv-x="1126" d="M164 -160V983Q164 1075 185 1156T255 1297T381 1392T573 1427Q729 1427 822 1361T915 1171Q915 1089 875 1027T766 923T613 859T440 834Q440 797 489 768T666 690Q740 661 810 631T936 556T1025 452T1059 303Q1059 237 1038 177T970 72T854 0T690 -27Q579 -27 520 -9T430 23L461 115Q486 101 538 86T696 70Q823 70 888 124T954 297Q954 365 930 410T863 486T765 542T647 594Q571 627 514 651T418 701T360 756T340 829Q340 864 350 880T371 911Q453 911 531 927T671 976T771 1055T809 1163Q809 1245 746 1289T567 1333Q485 1333 428 1310T335 1245T283 1150T266 1032V-160H164Z"/><glyph unicode="à" horiz-adv-x="1050" d="M82 266Q82 348 117 409T213 515T355 585T528 623Q606 633 666 632T799 633Q799 666 800 695T797 750Q787 840 722 890T512 940Q375 940 301 897T199 741L104 752Q129 887 236 956T508 1026Q698 1026 793 945T889 664V197Q889 148 895 103T911 0H817Q813 14 809 40T803 94T800 149T799 195Q744 103 646 46T403 -12Q337 -12 279 5T177 56T108 142T82 266ZM186 276Q186 174 241 120T414 66Q500 66 565 90T677 152T752 237T799 332V557Q738 559 673 558T551 551Q365 531 276 457T186 276ZM299 1229L352 1341L680 1174L647 1098L299 1229Z"/><glyph unicode="á" horiz-adv-x="1050" d="M82 266Q82 348 117 409T213 515T355 585T528 623Q606 633 666 632T799 633Q799 666 800 695T797 750Q787 840 722 890T512 940Q375 940 301 897T199 741L104 752Q129 887 236 956T508 1026Q698 1026 793 945T889 664V197Q889 148 895 103T911 0H817Q813 14 809 40T803 94T800 149T799 195Q744 103 646 46T403 -12Q337 -12 279 5T177 56T108 142T82 266ZM186 276Q186 174 241 120T414 66Q500 66 565 90T677 152T752 237T799 332V557Q738 559 673 558T551 551Q365 531 276 457T186 276ZM362 1178L690 1343L745 1233L395 1102L362 1178Z"/><glyph unicode="â" horiz-adv-x="1050" d="M82 266Q82 348 117 409T213 515T355 585T528 623Q606 633 666 632T799 633Q799 666 800 695T797 750Q787 840 722 890T512 940Q375 940 301 897T199 741L104 752Q129 887 236 956T508 1026Q698 1026 793 945T889 664V197Q889 148 895 103T911 0H817Q813 14 809 40T803 94T800 149T799 195Q744 103 646 46T403 -12Q337 -12 279 5T177 56T108 142T82 266ZM186 276Q186 174 241 120T414 66Q500 66 565 90T677 152T752 237T799 332V557Q738 559 673 558T551 551Q365 531 276 457T186 276ZM282 1171L520 1339L758 1171L710 1112L520 1212L330 1112L282 1171Z"/><glyph unicode="ã" horiz-adv-x="1050" d="M82 266Q82 348 117 409T213 515T355 585T528 623Q606 633 666 632T799 633Q799 666 800 695T797 750Q787 840 722 890T512 940Q375 940 301 897T199 741L104 752Q129 887 236 956T508 1026Q698 1026 793 945T889 664V197Q889 148 895 103T911 0H817Q813 14 809 40T803 94T800 149T799 195Q744 103 646 46T403 -12Q337 -12 279 5T177 56T108 142T82 266ZM186 276Q186 174 241 120T414 66Q500 66 565 90T677 152T752 237T799 332V557Q738 559 673 558T551 551Q365 531 276 457T186 276ZM193 1184Q234 1245 287 1275T389 1305Q438 1305 471 1293T531 1267T586 1241T649 1229Q688 1229 716 1244T766 1282L829 1223Q747 1135 655 1135Q608 1135 575 1147T512 1172T455 1198T391 1210Q344 1210 318 1190T262 1139L193 1184Z"/><glyph unicode="ä" horiz-adv-x="1050" d="M82 266Q82 348 117 409T213 515T355 585T528 623Q606 633 666 632T799 633Q799 666 800 695T797 750Q787 840 722 890T512 940Q375 940 301 897T199 741L104 752Q129 887 236 956T508 1026Q698 1026 793 945T889 664V197Q889 148 895 103T911 0H817Q813 14 809 40T803 94T800 149T799 195Q744 103 646 46T403 -12Q337 -12 279 5T177 56T108 142T82 266ZM186 276Q186 174 241 120T414 66Q500 66 565 90T677 152T752 237T799 332V557Q738 559 673 558T551 551Q365 531 276 457T186 276ZM274 1212Q274 1245 299 1268T354 1292Q395 1292 417 1269T440 1212Q440 1177 417 1153T356 1128Q325 1128 300 1152T274 1212ZM584 1212Q584 1245 607 1268T666 1292Q705 1292 730 1269T756 1212Q756 1177 730 1153T668 1128Q633 1128 609 1153T584 1212Z"/><glyph unicode="å" horiz-adv-x="1050" d="M82 266Q82 348 117 409T213 515T355 585T528 623Q606 633 666 632T799 633Q799 666 800 695T797 750Q787 840 722 890T512 940Q375 940 301 897T199 741L104 752Q129 887 236 956T508 1026Q698 1026 793 945T889 664V197Q889 148 895 103T911 0H817Q813 14 809 40T803 94T800 149T799 195Q744 103 646 46T403 -12Q337 -12 279 5T177 56T108 142T82 266ZM186 276Q186 174 241 120T414 66Q500 66 565 90T677 152T752 237T799 332V557Q738 559 673 558T551 551Q365 531 276 457T186 276ZM356 1235Q356 1303 401 1349T514 1395Q584 1395 626 1347T668 1239Q668 1169 624 1125T514 1081Q446 1081 401 1125T356 1235ZM434 1237Q434 1202 453 1178T514 1153Q553 1153 573 1177T594 1237Q594 1276 573 1298T514 1321Q477 1321 456 1297T434 1237Z"/><glyph unicode="æ" horiz-adv-x="1718" d="M82 266Q82 348 117 409T213 515T355 585T528 623Q606 633 666 632T799 633Q799 666 800 695T797 750Q787 840 722 891T512 942Q375 942 301 898T199 741L104 752Q129 887 236 956T508 1026Q614 1026 682 1005T787 949T842 872T870 786Q882 819 908 860T979 938T1086 1000T1235 1026Q1325 1026 1396 992T1520 898T1604 756T1645 575Q1647 559 1646 541T1647 506H887Q891 289 980 176T1237 63Q1323 63 1405 110T1536 287L1626 272Q1573 125 1474 55T1229 -16Q1149 -16 1087 5T976 63T894 148T838 250Q766 107 657 48T403 -12Q337 -12 279 5T177 56T108 142T82 266ZM186 276Q186 174 241 120T414 66Q500 66 565 90T677 152T752 237T799 332V557Q738 559 673 558T551 551Q365 531 276 457T186 276ZM893 582H1546Q1532 752 1450 848T1231 944Q1161 944 1101 917T995 841T923 726T893 582Z"/><glyph unicode="ç" horiz-adv-x="913" d="M82 510Q82 621 109 715T189 878T313 987T475 1026Q631 1026 724 940T852 668L754 653Q731 794 663 867T473 940Q344 940 264 826T184 506Q184 391 208 308T275 170T373 88T492 61Q603 61 669 122T762 332L850 322Q823 164 731 77T510 -18L498 -61L549 -59Q625 -59 658 -97T692 -178Q692 -203 683 -228T653 -274T595 -308T506 -322Q436 -322 404 -313T344 -295L367 -240Q394 -248 427 -255T520 -262Q559 -262 587 -244T616 -184Q616 -174 613 -163T599 -143T567 -127T510 -121Q481 -121 454 -124T416 -129L451 -14Q373 -6 306 32T189 135T111 295T82 510Z"/><glyph unicode="è" horiz-adv-x="1011" d="M82 485Q82 614 117 714T212 884T354 990T528 1026Q618 1026 690 992T814 898T898 756T938 575Q940 559 939 541T940 506H180Q184 289 273 176T530 63Q616 63 698 110T829 287L920 272Q867 125 761 55T522 -16Q422 -16 341 20T203 122T114 281T82 485ZM186 582H840Q826 752 744 847T524 942Q454 942 394 915T289 839T216 725T186 582ZM303 1229L356 1341L684 1174L651 1098L303 1229Z"/><glyph unicode="é" horiz-adv-x="1011" d="M82 485Q82 614 117 714T212 884T354 990T528 1026Q618 1026 690 992T814 898T898 756T938 575Q940 559 939 541T940 506H180Q184 289 273 176T530 63Q616 63 698 110T829 287L920 272Q867 125 761 55T522 -16Q422 -16 341 20T203 122T114 281T82 485ZM186 582H840Q826 752 744 847T524 942Q454 942 394 915T289 839T216 725T186 582ZM383 1178L711 1343L766 1233L416 1102L383 1178Z"/><glyph unicode="ê" horiz-adv-x="1011" d="M82 485Q82 614 117 714T212 884T354 990T528 1026Q618 1026 690 992T814 898T898 756T938 575Q940 559 939 541T940 506H180Q184 289 273 176T530 63Q616 63 698 110T829 287L920 272Q867 125 761 55T522 -16Q422 -16 341 20T203 122T114 281T82 485ZM186 582H840Q826 752 744 847T524 942Q454 942 394 915T289 839T216 725T186 582ZM274 1171L512 1339L750 1171L702 1112L512 1212L322 1112L274 1171Z"/><glyph unicode="ë" horiz-adv-x="1011" d="M82 485Q82 614 117 714T212 884T354 990T528 1026Q618 1026 690 992T814 898T898 756T938 575Q940 559 939 541T940 506H180Q184 289 273 176T530 63Q616 63 698 110T829 287L920 272Q867 125 761 55T522 -16Q422 -16 341 20T203 122T114 281T82 485ZM186 582H840Q826 752 744 847T524 942Q454 942 394 915T289 839T216 725T186 582ZM282 1212Q282 1245 307 1268T362 1292Q403 1292 425 1269T448 1212Q448 1177 425 1153T364 1128Q333 1128 308 1152T282 1212ZM592 1212Q592 1245 615 1268T674 1292Q713 1292 738 1269T764 1212Q764 1177 738 1153T676 1128Q641 1128 617 1153T592 1212Z"/><glyph unicode="ì" horiz-adv-x="438" d="M-74 1229L-21 1341L307 1174L274 1098L-74 1229ZM170 0V1008H268V0H170Z"/><glyph unicode="í" horiz-adv-x="438" d="M131 1178L459 1343L514 1233L164 1102L131 1178ZM170 0V1008H268V0H170Z"/><glyph unicode="î" horiz-adv-x="438" d="M-19 1171L219 1339L457 1171L409 1112L219 1212L29 1112L-19 1171ZM170 0V1008H268V0H170Z"/><glyph unicode="ï" horiz-adv-x="438" d="M-21 1212Q-21 1245 4 1268T59 1292Q100 1292 122 1269T145 1212Q145 1177 122 1153T61 1128Q30 1128 5 1152T-21 1212ZM170 0V1008H268V0H170ZM289 1212Q289 1245 312 1268T371 1292Q410 1292 435 1269T461 1212Q461 1177 435 1153T373 1128Q338 1128 314 1153T289 1212Z"/><glyph unicode="ð" horiz-adv-x="1017" d="M82 500Q82 615 114 709T204 869T338 973T498 1010Q553 1010 621 994T768 922Q731 1022 673 1089T567 1200L389 1090L338 1157L494 1255Q463 1280 425 1302T358 1339L408 1421Q426 1411 449 1398T496 1369T541 1338T578 1307L752 1423L811 1352L649 1251Q731 1169 786 1082T874 906T920 726T934 545Q934 420 901 317T811 140T676 25T508 -16Q414 -16 336 21T202 128T114 292T82 500ZM182 496Q182 387 207 306T277 171T382 89T512 61Q580 61 638 93T740 182T809 318T834 494Q834 691 748 810T494 930Q428 930 372 899T273 811T207 674T182 496Z"/><glyph unicode="ñ" horiz-adv-x="1089" d="M166 0V1008H260V786Q287 827 327 869T416 946T524 1003T651 1026Q786 1026 857 956T928 727V0H829V727Q829 836 783 885T639 934Q528 934 435 874T264 700V0H166ZM246 1184Q287 1245 340 1275T442 1305Q491 1305 524 1293T584 1267T639 1241T702 1229Q741 1229 769 1244T819 1282L882 1223Q800 1135 708 1135Q661 1135 628 1147T565 1172T508 1198T444 1210Q397 1210 371 1190T315 1139L246 1184Z"/><glyph unicode="ò" horiz-adv-x="1017" d="M82 514Q82 633 117 727T210 887T345 990T506 1026Q604 1026 684 988T819 883T905 720T936 510Q936 387 901 290T807 125T670 21T508 -16Q418 -16 340 20T205 126T115 293T82 514ZM182 508Q182 406 205 324T272 184T373 93T504 61Q574 61 634 90T739 176T810 316T836 510Q836 616 809 696T737 830T632 912T504 940Q438 940 380 912T278 829T208 693T182 508ZM299 1229L352 1341L680 1174L647 1098L299 1229Z"/><glyph unicode="ó" horiz-adv-x="1017" d="M82 514Q82 633 117 727T210 887T345 990T506 1026Q604 1026 684 988T819 883T905 720T936 510Q936 387 901 290T807 125T670 21T508 -16Q418 -16 340 20T205 126T115 293T82 514ZM182 508Q182 406 205 324T272 184T373 93T504 61Q574 61 634 90T739 176T810 316T836 510Q836 616 809 696T737 830T632 912T504 940Q438 940 380 912T278 829T208 693T182 508ZM395 1178L723 1343L778 1233L428 1102L395 1178Z"/><glyph unicode="ô" horiz-adv-x="1017" d="M82 514Q82 633 117 727T210 887T345 990T506 1026Q604 1026 684 988T819 883T905 720T936 510Q936 387 901 290T807 125T670 21T508 -16Q418 -16 340 20T205 126T115 293T82 514ZM182 508Q182 406 205 324T272 184T373 93T504 61Q574 61 634 90T739 176T810 316T836 510Q836 616 809 696T737 830T632 912T504 940Q438 940 380 912T278 829T208 693T182 508ZM274 1171L512 1339L750 1171L702 1112L512 1212L322 1112L274 1171Z"/><glyph unicode="õ" horiz-adv-x="1017" d="M82 514Q82 633 117 727T210 887T345 990T506 1026Q604 1026 684 988T819 883T905 720T936 510Q936 387 901 290T807 125T670 21T508 -16Q418 -16 340 20T205 126T115 293T82 514ZM182 508Q182 406 205 324T272 184T373 93T504 61Q574 61 634 90T739 176T810 316T836 510Q836 616 809 696T737 830T632 912T504 940Q438 940 380 912T278 829T208 693T182 508ZM193 1184Q234 1245 287 1275T389 1305Q438 1305 471 1293T531 1267T586 1241T649 1229Q688 1229 716 1244T766 1282L829 1223Q747 1135 655 1135Q608 1135 575 1147T512 1172T455 1198T391 1210Q344 1210 318 1190T262 1139L193 1184Z"/><glyph unicode="ö" horiz-adv-x="1017" d="M82 514Q82 633 117 727T210 887T345 990T506 1026Q604 1026 684 988T819 883T905 720T936 510Q936 387 901 290T807 125T670 21T508 -16Q418 -16 340 20T205 126T115 293T82 514ZM182 508Q182 406 205 324T272 184T373 93T504 61Q574 61 634 90T739 176T810 316T836 510Q836 616 809 696T737 830T632 912T504 940Q438 940 380 912T278 829T208 693T182 508ZM272 1212Q272 1245 297 1268T352 1292Q393 1292 415 1269T438 1212Q438 1177 415 1153T354 1128Q323 1128 298 1152T272 1212ZM582 1212Q582 1245 605 1268T664 1292Q703 1292 728 1269T754 1212Q754 1177 728 1153T666 1128Q631 1128 607 1153T582 1212Z"/><glyph unicode="÷" horiz-adv-x="1193" d="M152 635V729H1042V635H152ZM516 393Q516 424 538 447T592 471Q629 471 653 448T678 395Q678 358 655 334T594 309Q565 309 541 332T516 393ZM516 963Q516 996 538 1018T592 1040Q629 1040 653 1017T678 965Q678 928 655 905T594 881Q565 881 541 902T516 963Z"/><glyph unicode="ø" horiz-adv-x="1017" d="M18 -37L178 160Q133 228 108 317T82 514Q82 633 117 727T210 887T345 990T506 1026Q592 1026 662 999T786 918L905 1065H1001L838 860Q885 794 910 705T936 510Q936 387 901 290T807 125T670 21T508 -16Q424 -16 353 14T225 102L113 -37H18ZM182 508Q182 348 240 238L727 844Q637 940 504 940Q438 940 380 912T278 829T208 693T182 508ZM281 172Q367 61 504 61Q574 61 634 90T739 176T810 316T836 510Q836 676 772 780L281 172Z"/><glyph unicode="ù" horiz-adv-x="1071" d="M160 342V1008H258V330Q258 189 311 125T487 61Q585 61 667 113T813 287V1008H909V0H821V186Q762 84 671 34T481 -16Q407 -16 348 3T247 66T183 176T160 342ZM311 1229L364 1341L692 1174L659 1098L311 1229Z"/><glyph unicode="ú" horiz-adv-x="1071" d="M160 342V1008H258V330Q258 189 311 125T487 61Q585 61 667 113T813 287V1008H909V0H821V186Q762 84 671 34T481 -16Q407 -16 348 3T247 66T183 176T160 342ZM387 1178L715 1343L770 1233L420 1102L387 1178Z"/><glyph unicode="û" horiz-adv-x="1071" d="M160 342V1008H258V330Q258 189 311 125T487 61Q585 61 667 113T813 287V1008H909V0H821V186Q762 84 671 34T481 -16Q407 -16 348 3T247 66T183 176T160 342ZM303 1171L541 1339L779 1171L731 1112L541 1212L351 1112L303 1171Z"/><glyph unicode="ü" horiz-adv-x="1071" d="M160 342V1008H258V330Q258 189 311 125T487 61Q585 61 667 113T813 287V1008H909V0H821V186Q762 84 671 34T481 -16Q407 -16 348 3T247 66T183 176T160 342ZM303 1212Q303 1245 328 1268T383 1292Q424 1292 446 1269T469 1212Q469 1177 446 1153T385 1128Q354 1128 329 1152T303 1212ZM613 1212Q613 1245 636 1268T695 1292Q734 1292 759 1269T785 1212Q785 1177 759 1153T697 1128Q662 1128 638 1153T613 1212Z"/><glyph unicode="ý" horiz-adv-x="837" d="M6 1008H113L391 281L436 143L481 283L739 1008H831L455 -68Q408 -203 320 -276T74 -354L70 -274Q152 -270 215 -237T317 -148T363 -19T338 141L6 1008ZM329 1178L657 1343L712 1233L362 1102L329 1178Z"/><glyph unicode="þ" horiz-adv-x="1058" d="M166 -348V1366H264V825Q287 862 318 898T390 962T479 1008T586 1026Q670 1026 741 997T865 904T947 742T977 506Q977 379 945 283T860 120T739 20T598 -14Q483 -14 394 37T264 154V-348H166ZM264 262Q284 227 313 192T379 127T464 80T573 61Q639 61 695 87T791 167T854 305T877 506Q877 719 804 829T584 940Q488 940 407 887T264 711V262Z"/><glyph unicode="ÿ" horiz-adv-x="837" d="M6 1008H113L391 281L436 143L481 283L739 1008H831L455 -68Q408 -203 320 -276T74 -354L70 -274Q152 -270 215 -237T317 -148T363 -19T338 141L6 1008ZM180 1212Q180 1245 205 1268T260 1292Q301 1292 323 1269T346 1212Q346 1177 323 1153T262 1128Q231 1128 206 1152T180 1212ZM490 1212Q490 1245 513 1268T572 1292Q611 1292 636 1269T662 1212Q662 1177 636 1153T574 1128Q539 1128 515 1153T490 1212Z"/><glyph unicode="Ā" horiz-adv-x="1042" d="M14 0L459 1366H592L1030 0H918L778 438H262L119 0H14ZM213 1522V1616H825V1522H213ZM291 532H754L524 1264L291 532Z"/><glyph unicode="ā" horiz-adv-x="1050" d="M82 266Q82 348 117 409T213 515T355 585T528 623Q606 633 666 632T799 633Q799 666 800 695T797 750Q787 840 722 890T512 940Q375 940 301 897T199 741L104 752Q129 887 236 956T508 1026Q698 1026 793 945T889 664V197Q889 148 895 103T911 0H817Q813 14 809 40T803 94T800 149T799 195Q744 103 646 46T403 -12Q337 -12 279 5T177 56T108 142T82 266ZM186 276Q186 174 241 120T414 66Q500 66 565 90T677 152T752 237T799 332V557Q738 559 673 558T551 551Q365 531 276 457T186 276ZM205 1174V1268H817V1174H205Z"/><glyph unicode="Ă" horiz-adv-x="1042" d="M14 0L459 1366H592L1030 0H918L778 438H262L119 0H14ZM235 1710H330Q355 1560 518 1560Q606 1560 652 1597T710 1710H801Q785 1599 718 1536T518 1472Q387 1472 320 1535T235 1710ZM291 532H754L524 1264L291 532Z"/><glyph unicode="ă" horiz-adv-x="1050" d="M82 266Q82 348 117 409T213 515T355 585T528 623Q606 633 666 632T799 633Q799 666 800 695T797 750Q787 840 722 890T512 940Q375 940 301 897T199 741L104 752Q129 887 236 956T508 1026Q698 1026 793 945T889 664V197Q889 148 895 103T911 0H817Q813 14 809 40T803 94T800 149T799 195Q744 103 646 46T403 -12Q337 -12 279 5T177 56T108 142T82 266ZM186 276Q186 174 241 120T414 66Q500 66 565 90T677 152T752 237T799 332V557Q738 559 673 558T551 551Q365 531 276 457T186 276ZM221 1362H316Q341 1212 504 1212Q592 1212 638 1249T696 1362H787Q771 1251 704 1188T504 1124Q373 1124 306 1187T221 1362Z"/><glyph unicode="Ą" horiz-adv-x="1042" d="M14 0L459 1366H592L1030 0Q985 -31 941 -65T897 -145Q897 -174 918 -198T997 -223Q1030 -223 1051 -220T1087 -215L1108 -270Q1075 -284 1044 -292T973 -301Q869 -301 829 -262T788 -168Q788 -111 829 -70T918 0L778 438H262L119 0H14ZM291 532H754L524 1264L291 532Z"/><glyph unicode="ą" horiz-adv-x="1050" d="M82 266Q82 348 117 409T213 515T355 585T528 623Q606 633 666 632T799 633Q799 666 800 695T797 750Q787 840 722 890T512 940Q375 940 301 897T199 741L104 752Q129 887 236 956T508 1026Q698 1026 793 945T889 664V197Q889 148 895 103T911 0Q866 -31 830 -64T793 -145Q793 -174 814 -198T893 -223Q926 -223 947 -220T983 -215L1004 -270Q971 -284 939 -292T868 -301Q764 -301 724 -262T684 -168Q684 -111 720 -70T817 0Q811 16 808 42T802 95T799 149T799 195Q744 103 647 46T403 -12Q337 -12 279 5T177 56T108 142T82 266ZM186 276Q186 174 241 120T414 66Q500 66 565 90T677 152T752 237T799 332V557Q738 559 673 558T551 551Q365 531 276 457T186 276Z"/><glyph unicode="Ć" horiz-adv-x="1159" d="M92 680Q92 854 135 987T252 1210T422 1346T625 1393Q803 1393 932 1295T1114 973L1012 946Q963 1139 864 1215T625 1292Q531 1292 453 1251T320 1132T234 937T203 674Q203 522 236 409T327 219T462 106T625 68Q785 68 878 164T1004 432L1104 414Q1055 189 932 82T623 -25Q504 -25 406 21T238 157T130 377T92 680ZM495 1526L823 1691L878 1581L528 1450L495 1526Z"/><glyph unicode="ć" horiz-adv-x="913" d="M82 510Q82 621 109 715T189 878T313 987T475 1026Q631 1026 724 940T852 668L754 653Q731 794 663 867T473 940Q344 940 264 826T184 506Q184 391 208 308T275 172T373 93T492 66Q603 66 669 125T762 332L850 322Q821 156 723 70T494 -16Q406 -16 330 17T199 117T113 282T82 510ZM334 1178L662 1343L717 1233L367 1102L334 1178Z"/><glyph unicode="Ĉ" horiz-adv-x="1159" d="M92 680Q92 854 135 987T252 1210T422 1346T625 1393Q803 1393 932 1295T1114 973L1012 946Q963 1139 864 1215T625 1292Q531 1292 453 1251T320 1132T234 937T203 674Q203 522 236 409T327 219T462 106T625 68Q785 68 878 164T1004 432L1104 414Q1055 189 932 82T623 -25Q504 -25 406 21T238 157T130 377T92 680ZM411 1519L649 1687L887 1519L839 1460L649 1560L459 1460L411 1519Z"/><glyph unicode="ĉ" horiz-adv-x="913" d="M82 510Q82 621 109 715T189 878T313 987T475 1026Q631 1026 724 940T852 668L754 653Q731 794 663 867T473 940Q344 940 264 826T184 506Q184 391 208 308T275 172T373 93T492 66Q603 66 669 125T762 332L850 322Q821 156 723 70T494 -16Q406 -16 330 17T199 117T113 282T82 510ZM266 1171L504 1339L742 1171L694 1112L504 1212L314 1112L266 1171Z"/><glyph unicode="Ċ" horiz-adv-x="1159" d="M92 680Q92 854 135 987T252 1210T422 1346T625 1393Q803 1393 932 1295T1114 973L1012 946Q963 1139 864 1215T625 1292Q531 1292 453 1251T320 1132T234 937T203 674Q203 522 236 409T327 219T462 106T625 68Q785 68 878 164T1004 432L1104 414Q1055 189 932 82T623 -25Q504 -25 406 21T238 157T130 377T92 680ZM545 1562Q545 1607 575 1636T647 1665Q694 1665 723 1637T753 1562Q753 1517 723 1489T649 1460Q604 1460 575 1491T545 1562Z"/><glyph unicode="ċ" horiz-adv-x="913" d="M82 510Q82 621 109 715T189 878T313 987T475 1026Q631 1026 724 940T852 668L754 653Q731 794 663 867T473 940Q344 940 264 826T184 506Q184 391 208 308T275 172T373 93T492 66Q603 66 669 125T762 332L850 322Q821 156 723 70T494 -16Q406 -16 330 17T199 117T113 282T82 510ZM400 1214Q400 1259 430 1288T502 1317Q549 1317 578 1289T608 1214Q608 1169 578 1141T504 1112Q459 1112 430 1143T400 1214Z"/><glyph unicode="Č" horiz-adv-x="1159" d="M92 680Q92 854 135 987T252 1210T422 1346T625 1393Q803 1393 932 1295T1114 973L1012 946Q963 1139 864 1215T625 1292Q531 1292 453 1251T320 1132T234 937T203 674Q203 522 236 409T327 219T462 106T625 68Q785 68 878 164T1004 432L1104 414Q1055 189 932 82T623 -25Q504 -25 406 21T238 157T130 377T92 680ZM393 1638L453 1691L631 1591L809 1691L869 1638L631 1470L393 1638Z"/><glyph unicode="č" horiz-adv-x="913" d="M82 510Q82 621 109 715T189 878T313 987T475 1026Q631 1026 724 940T852 668L754 653Q731 794 663 867T473 940Q344 940 264 826T184 506Q184 391 208 308T275 172T373 93T492 66Q603 66 669 125T762 332L850 322Q821 156 723 70T494 -16Q406 -16 330 17T199 117T113 282T82 510ZM247 1290L307 1343L485 1243L663 1343L723 1290L485 1122L247 1290Z"/><glyph unicode="Ď" horiz-adv-x="1308" d="M182 0V1366H610Q745 1366 847 1323T1026 1206Q1120 1112 1167 978T1214 688Q1214 536 1172 410T1054 192T871 50T633 0H182ZM291 90H610Q721 90 812 131T968 250T1070 437T1106 686Q1106 821 1070 929T970 1114T813 1231T610 1272H291V90ZM294 1638L354 1691L532 1591L710 1691L770 1638L532 1470L294 1638Z"/><glyph unicode="ď" horiz-adv-x="1126" d="M82 496Q82 605 110 701T192 868T321 982T494 1024Q560 1024 611 1007T699 964T764 909T807 854V1366H899V0H807V162Q750 76 667 30T477 -16Q282 -16 182 119T82 496ZM182 498Q182 275 259 168T483 61Q614 61 692 130T807 303V727Q784 770 759 809T696 876T610 922T496 940Q418 940 360 909T261 819T202 679T182 498ZM981 987L1087 1214H1016V1366H1157V1214L1051 987H981Z"/><glyph unicode="Đ" horiz-adv-x="1308" d="M39 690V782H182V1366H610Q757 1366 871 1313T1061 1169T1175 953T1214 688Q1214 536 1172 410T1054 192T871 50T633 0H182V690H39ZM291 90H610Q721 90 812 131T968 250T1070 437T1106 686Q1106 821 1070 929T970 1114T813 1231T610 1272H291V782H709V690H291V90Z"/><glyph unicode="đ" horiz-adv-x="1073" d="M82 496Q82 605 110 701T192 868T321 982T494 1024Q560 1024 611 1007T699 964T764 909T807 854V1180H463V1247H807V1366H899V1247H967V1180H899V0H807V162Q750 76 667 30T477 -16Q282 -16 182 119T82 496ZM182 498Q182 275 259 168T483 61Q614 61 692 130T807 303V727Q784 770 759 809T696 876T610 922T496 940Q418 940 360 909T261 819T202 679T182 498Z"/><glyph unicode="Ē" horiz-adv-x="1103" d="M182 0V1366H1010V1272H289V762H834V670H289V90H1032V0H182ZM289 1522V1616H901V1522H289Z"/><glyph unicode="ē" horiz-adv-x="1011" d="M82 485Q82 614 117 714T212 884T354 990T528 1026Q618 1026 690 992T814 898T898 756T938 575Q940 559 939 541T940 506H180Q184 289 273 176T530 63Q616 63 698 110T829 287L920 272Q867 125 761 55T522 -16Q422 -16 341 20T203 122T114 281T82 485ZM186 582H840Q826 752 744 847T524 942Q454 942 394 915T289 839T216 725T186 582ZM221 1174V1268H833V1174H221Z"/><glyph unicode="Ĕ" horiz-adv-x="1103" d="M182 0V1366H1010V1272H289V762H834V670H289V90H1032V0H182ZM270 1710H365Q390 1560 553 1560Q641 1560 687 1597T745 1710H836Q820 1599 753 1536T553 1472Q422 1472 355 1535T270 1710Z"/><glyph unicode="ĕ" horiz-adv-x="1011" d="M82 485Q82 614 117 714T212 884T354 990T528 1026Q618 1026 690 992T814 898T898 756T938 575Q940 559 939 541T940 506H180Q184 289 273 176T530 63Q616 63 698 110T829 287L920 272Q867 125 761 55T522 -16Q422 -16 341 20T203 122T114 281T82 485ZM186 582H840Q826 752 744 847T524 942Q454 942 394 915T289 839T216 725T186 582ZM225 1362H320Q345 1212 508 1212Q596 1212 642 1249T700 1362H791Q775 1251 708 1188T508 1124Q377 1124 310 1187T225 1362Z"/><glyph unicode="Ė" horiz-adv-x="1103" d="M182 0V1366H1010V1272H289V762H834V670H289V90H1032V0H182ZM484 1562Q484 1607 514 1636T586 1665Q633 1665 662 1637T692 1562Q692 1517 662 1489T588 1460Q543 1460 514 1491T484 1562Z"/><glyph unicode="ė" horiz-adv-x="1011" d="M82 485Q82 614 117 714T212 884T354 990T528 1026Q618 1026 690 992T814 898T898 756T938 575Q940 559 939 541T940 506H180Q184 289 273 176T530 63Q616 63 698 110T829 287L920 272Q867 125 761 55T522 -16Q422 -16 341 20T203 122T114 281T82 485ZM186 582H840Q826 752 744 847T524 942Q454 942 394 915T289 839T216 725T186 582ZM404 1214Q404 1259 434 1288T506 1317Q553 1317 582 1289T612 1214Q612 1169 582 1141T508 1112Q463 1112 434 1143T404 1214Z"/><glyph unicode="Ę" horiz-adv-x="1103" d="M182 0V1366H1010V1272H289V762H834V670H289V90H1032V0Q987 -31 950 -64T913 -145Q913 -174 934 -198T1014 -223Q1032 -223 1051 -222T1085 -219L1104 -279Q1088 -287 1058 -294T989 -301Q885 -301 845 -262T805 -168Q805 -59 950 0H182Z"/><glyph unicode="ę" horiz-adv-x="1011" d="M82 485Q82 614 117 714T212 884T354 990T528 1026Q618 1026 690 992T814 898T898 756T938 575Q940 559 939 541T940 506H180Q184 289 273 176T530 63Q616 63 698 110T829 287L920 272Q897 213 867 168T801 86Q756 39 726 6T678 -53T652 -101T645 -145Q645 -174 666 -198T745 -223Q778 -223 799 -220T836 -215L856 -270Q823 -284 792 -292T721 -301Q617 -301 577 -262T537 -168Q537 -125 560 -86T643 0Q582 -16 522 -16Q422 -16 341 20T203 122T114 281T82 485ZM186 582H840Q826 752 744 847T524 942Q454 942 394 915T289 839T216 725T186 582Z"/><glyph unicode="Ě" horiz-adv-x="1103" d="M182 0V1366H1010V1272H289V762H834V670H289V90H1032V0H182ZM340 1638L400 1691L578 1591L756 1691L816 1638L578 1470L340 1638Z"/><glyph unicode="ě" horiz-adv-x="1011" d="M82 485Q82 614 117 714T212 884T354 990T528 1026Q618 1026 690 992T814 898T898 756T938 575Q940 559 939 541T940 506H180Q184 289 273 176T530 63Q616 63 698 110T829 287L920 272Q867 125 761 55T522 -16Q422 -16 341 20T203 122T114 281T82 485ZM186 582H840Q826 752 744 847T524 942Q454 942 394 915T289 839T216 725T186 582ZM270 1290L330 1343L508 1243L686 1343L746 1290L508 1122L270 1290Z"/><glyph unicode="Ĝ" horiz-adv-x="1275" d="M92 690Q92 850 133 979T250 1200T432 1342T670 1393Q844 1393 963 1291T1137 1008L1030 981Q993 1120 896 1207T643 1294Q539 1294 457 1252T319 1132T233 941T203 690Q203 532 234 416T325 222T467 109T651 72Q731 72 804 100T932 183T1019 312T1051 479V555H666V647H1153V0H1092L1047 184Q990 98 883 40T643 -18Q518 -18 417 27T243 161T131 382T92 690ZM401 1519L639 1687L877 1519L829 1460L639 1560L449 1460L401 1519Z"/><glyph unicode="ĝ" horiz-adv-x="964" d="M66 -145Q66 -73 115 -15T258 68Q184 88 153 127T121 223Q121 289 167 329T266 381Q200 418 164 499T127 672Q127 744 153 808T228 920T341 997T479 1026Q540 1026 587 1012T678 975Q686 1012 699 1043T738 1099T808 1138T922 1153H940V1059H909Q821 1059 787 1020T741 915Q782 874 809 815T836 674Q836 598 811 533T741 419T634 343T496 315Q439 315 396 324T338 338Q291 338 252 306T213 223Q213 184 238 163T310 132T419 120T561 115Q788 109 886 59T985 -104Q985 -163 954 -215T863 -307T715 -367T514 -389Q289 -389 178 -323T66 -145ZM172 -141Q172 -221 249 -268T512 -315Q692 -315 788 -259T885 -117Q885 -74 867 -47T790 -3T622 22T330 35Q267 17 220 -21T172 -141ZM229 666Q229 531 298 461T485 391Q604 391 672 463T741 670Q741 721 725 769T677 856T597 918T485 942Q422 942 374 920T294 859T246 771T229 666ZM245 1171L483 1339L721 1171L673 1112L483 1212L293 1112L245 1171Z"/><glyph unicode="Ğ" horiz-adv-x="1275" d="M92 690Q92 850 133 979T250 1200T432 1342T670 1393Q844 1393 963 1291T1137 1008L1030 981Q993 1120 896 1207T643 1294Q539 1294 457 1252T319 1132T233 941T203 690Q203 532 234 416T325 222T467 109T651 72Q731 72 804 100T932 183T1019 312T1051 479V555H666V647H1153V0H1092L1047 184Q990 98 883 40T643 -18Q518 -18 417 27T243 161T131 382T92 690ZM356 1710H451Q476 1560 639 1560Q727 1560 773 1597T831 1710H922Q906 1599 839 1536T639 1472Q508 1472 441 1535T356 1710Z"/><glyph unicode="ğ" horiz-adv-x="964" d="M66 -145Q66 -73 115 -15T258 68Q184 88 153 127T121 223Q121 289 167 329T266 381Q200 418 164 499T127 672Q127 744 153 808T228 920T341 997T479 1026Q540 1026 587 1012T678 975Q686 1012 699 1043T738 1099T808 1138T922 1153H940V1059H909Q821 1059 787 1020T741 915Q782 874 809 815T836 674Q836 598 811 533T741 419T634 343T496 315Q439 315 396 324T338 338Q291 338 252 306T213 223Q213 184 238 163T310 132T419 120T561 115Q788 109 886 59T985 -104Q985 -163 954 -215T863 -307T715 -367T514 -389Q289 -389 178 -323T66 -145ZM172 -141Q172 -221 249 -268T512 -315Q692 -315 788 -259T885 -117Q885 -74 867 -47T790 -3T622 22T330 35Q267 17 220 -21T172 -141ZM200 1362H295Q320 1212 483 1212Q571 1212 617 1249T675 1362H766Q750 1251 683 1188T483 1124Q352 1124 285 1187T200 1362ZM229 666Q229 531 298 461T485 391Q604 391 672 463T741 670Q741 721 725 769T677 856T597 918T485 942Q422 942 374 920T294 859T246 771T229 666Z"/><glyph unicode="Ġ" horiz-adv-x="1275" d="M92 690Q92 850 133 979T250 1200T432 1342T670 1393Q844 1393 963 1291T1137 1008L1030 981Q993 1120 896 1207T643 1294Q539 1294 457 1252T319 1132T233 941T203 690Q203 532 234 416T325 222T467 109T651 72Q731 72 804 100T932 183T1019 312T1051 479V555H666V647H1153V0H1092L1047 184Q990 98 883 40T643 -18Q518 -18 417 27T243 161T131 382T92 690ZM535 1562Q535 1607 565 1636T637 1665Q684 1665 713 1637T743 1562Q743 1517 713 1489T639 1460Q594 1460 565 1491T535 1562Z"/><glyph unicode="ġ" horiz-adv-x="964" d="M66 -145Q66 -73 115 -15T258 68Q184 88 153 127T121 223Q121 289 167 329T266 381Q200 418 164 499T127 672Q127 744 153 808T228 920T341 997T479 1026Q540 1026 587 1012T678 975Q686 1012 699 1043T738 1099T808 1138T922 1153H940V1059H909Q821 1059 787 1020T741 915Q782 874 809 815T836 674Q836 598 811 533T741 419T634 343T496 315Q439 315 396 324T338 338Q291 338 252 306T213 223Q213 184 238 163T310 132T419 120T561 115Q788 109 886 59T985 -104Q985 -163 954 -215T863 -307T715 -367T514 -389Q289 -389 178 -323T66 -145ZM172 -141Q172 -221 249 -268T512 -315Q692 -315 788 -259T885 -117Q885 -74 867 -47T790 -3T622 22T330 35Q267 17 220 -21T172 -141ZM229 666Q229 531 298 461T485 391Q604 391 672 463T741 670Q741 721 725 769T677 856T597 918T485 942Q422 942 374 920T294 859T246 771T229 666ZM379 1214Q379 1259 409 1288T481 1317Q528 1317 557 1289T587 1214Q587 1169 557 1141T483 1112Q438 1112 409 1143T379 1214Z"/><glyph unicode="Ģ" horiz-adv-x="1275" d="M92 690Q92 850 133 979T250 1200T432 1342T670 1393Q844 1393 963 1291T1137 1008L1030 981Q993 1120 896 1207T643 1294Q539 1294 457 1252T319 1132T233 941T203 690Q203 532 234 416T325 222T467 109T651 72Q731 72 804 100T932 183T1019 312T1051 479V555H666V647H1153V0H1092L1047 184Q990 98 883 40T643 -18Q518 -18 417 27T243 161T131 382T92 690ZM524 -438L639 -221H563V-74H719V-221L598 -438H524Z"/><glyph unicode="ģ" horiz-adv-x="964" d="M66 -145Q66 -73 115 -15T258 68Q184 88 153 127T121 223Q121 289 167 329T266 381Q200 418 164 499T127 672Q127 744 153 808T228 920T341 997T479 1026Q540 1026 587 1012T678 975Q686 1012 699 1043T738 1099T808 1138T922 1153H940V1059H909Q821 1059 787 1020T741 915Q782 874 809 815T836 674Q836 598 811 533T741 419T634 343T496 315Q439 315 396 324T338 338Q291 338 252 306T213 223Q213 184 238 163T310 132T419 120T561 115Q788 109 886 59T985 -104Q985 -163 954 -215T863 -307T715 -367T514 -389Q289 -389 178 -323T66 -145ZM172 -141Q172 -221 249 -268T512 -315Q692 -315 788 -259T885 -117Q885 -74 867 -47T790 -3T622 22T330 35Q267 17 220 -21T172 -141ZM229 666Q229 531 298 461T485 391Q604 391 672 463T741 670Q741 721 725 769T677 856T597 918T485 942Q422 942 374 920T294 859T246 771T229 666ZM401 1141V1309L520 1561H594L479 1309H555V1141H401Z"/><glyph unicode="Ĥ" horiz-adv-x="1294" d="M182 0V1366H291V778H1004V1366H1112V0H1004V686H291V0H182ZM409 1519L647 1687L885 1519L837 1460L647 1560L457 1460L409 1519Z"/><glyph unicode="ĥ" horiz-adv-x="1089" d="M-21 1519L217 1687L455 1519L407 1460L217 1560L27 1460L-21 1519ZM166 0V1366H258V776Q278 815 314 859T400 940T514 1001T651 1026Q731 1026 783 1004T868 941T914 846T928 727V0H829V727Q829 934 645 934Q522 934 432 872T264 698V0H166Z"/><glyph unicode="Ħ" horiz-adv-x="1294" d="M39 1016V1108H182V1366H291V1108H1004V1366H1112V1108H1255V1016H1112V0H1004V686H291V0H182V1016H39ZM291 778H1004V1016H291V778Z"/><glyph unicode="ħ" horiz-adv-x="1089" d="M98 1180V1247H166V1366H258V1247H651V1180H258V776Q278 815 314 859T400 940T514 1001T651 1026Q731 1026 783 1004T868 941T914 846T928 727V0H829V727Q829 934 645 934Q522 934 432 872T264 698V0H166V1180H98Z"/><glyph unicode="Ĩ" horiz-adv-x="477" d="M-77 1532Q-36 1593 17 1623T119 1653Q168 1653 201 1641T261 1615T316 1589T379 1577Q418 1577 446 1592T496 1630L559 1571Q477 1483 385 1483Q338 1483 305 1495T242 1520T185 1546T121 1558Q74 1558 48 1538T-8 1487L-77 1532ZM184 0V1366H293V0H184Z"/><glyph unicode="ĩ" horiz-adv-x="438" d="M-98 1184Q-57 1245 -4 1275T98 1305Q147 1305 180 1293T240 1267T295 1241T358 1229Q397 1229 425 1244T475 1282L538 1223Q456 1135 364 1135Q317 1135 284 1147T221 1172T164 1198T100 1210Q53 1210 27 1190T-29 1139L-98 1184ZM170 0V1008H268V0H170Z"/><glyph unicode="Ī" horiz-adv-x="477" d="M-67 1522V1616H545V1522H-67ZM184 0V1366H293V0H184Z"/><glyph unicode="ī" horiz-adv-x="438" d="M-80 1174V1268H532V1174H-80ZM170 0V1008H268V0H170Z"/><glyph unicode="Ĭ" horiz-adv-x="477" d="M-43 1710H52Q77 1560 240 1560Q328 1560 374 1597T432 1710H523Q507 1599 440 1536T240 1472Q109 1472 42 1535T-43 1710ZM184 0V1366H293V0H184Z"/><glyph unicode="ĭ" horiz-adv-x="438" d="M-62 1362H33Q58 1212 221 1212Q309 1212 355 1249T413 1362H504Q488 1251 421 1188T221 1124Q90 1124 23 1187T-62 1362ZM170 0V1008H268V0H170Z"/><glyph unicode="Į" horiz-adv-x="477" d="M66 -168Q66 -111 102 -68T184 0V1366H293V0Q248 -31 211 -64T174 -145Q174 -174 195 -198T274 -223Q307 -223 328 -220T365 -215L385 -270Q352 -284 321 -292T250 -301Q146 -301 106 -262T66 -168Z"/><glyph unicode="į" horiz-adv-x="438" d="M41 -168Q41 -139 53 -113T84 -64T124 -25T170 0V1008H268V0Q223 -31 187 -64T150 -145Q150 -174 171 -198T250 -223Q283 -223 304 -220T340 -215L360 -270Q327 -284 296 -292T225 -301Q121 -301 81 -262T41 -168ZM152 1204V1360H283V1204H152Z"/><glyph unicode="İ" horiz-adv-x="477" d="M136 1562Q136 1607 166 1636T238 1665Q285 1665 314 1637T344 1562Q344 1517 314 1489T240 1460Q195 1460 166 1491T136 1562ZM184 0V1366H293V0H184Z"/><glyph unicode="ı" horiz-adv-x="438" d="M170 0V1008H268V0H170Z"/><glyph unicode="Ĳ" horiz-adv-x="1206" d="M184 0V1366H293V0H184ZM475 12V102Q506 94 558 87T688 80Q803 80 859 142T915 362V1366H1022V377Q1022 172 940 78Q897 29 835 9T694 -12Q628 -12 568 -5T475 12Z"/><glyph unicode="ĳ" horiz-adv-x="874" d="M152 1204V1360H283V1204H152ZM170 0V1008H268V0H170ZM301 -283Q336 -287 369 -288T448 -289Q501 -289 533 -270T580 -214T600 -130T604 -23V1008H702V-66Q702 -238 630 -306T436 -375Q407 -375 372 -371T301 -360V-283ZM585 1204V1360H717V1204H585Z"/><glyph unicode="Ĵ" horiz-adv-x="729" d="M-2 12V102Q29 94 81 87T211 80Q326 80 382 142T438 362V1366H545V377Q545 172 463 78Q420 29 358 9T217 -12Q151 -12 91 -5T-2 12ZM254 1519L492 1687L730 1519L682 1460L492 1560L302 1460L254 1519Z"/><glyph unicode="ĵ" horiz-adv-x="436" d="M-137 -283Q-102 -287 -69 -288T10 -289Q63 -289 95 -270T142 -214T162 -130T166 -23V1008H264V-66Q264 -238 192 -306T-2 -375Q-31 -375 -66 -371T-137 -360V-283ZM-20 1171L217 1339L455 1171L408 1112L217 1212L27 1112L-20 1171Z"/><glyph unicode="Ķ" horiz-adv-x="1226" d="M182 0V1366H291V508L981 1366H1104L692 852L1212 0H1090L618 772L291 369V0H182ZM514 -504L629 -252H553V-84H706V-252L588 -504H514Z"/><glyph unicode="ķ" horiz-adv-x="972" d="M166 0V1366H264V535L262 430L319 504L776 1008H891L588 676L922 0H813L518 600L264 319V0H166ZM383 -504L498 -252H422V-84H575V-252L457 -504H383Z"/><glyph unicode="ĸ" horiz-adv-x="972" d="M166 0V1012H264V535L262 430L319 504L776 1008H891L588 676L922 0H813L518 600L264 319V0H166Z"/><glyph unicode="Ĺ" horiz-adv-x="976" d="M182 0V1366H291V92H946V0H182ZM256 1526L584 1691L639 1581L289 1450L256 1526Z"/><glyph unicode="ĺ" horiz-adv-x="438" d="M86 1526L414 1691L469 1581L119 1450L86 1526ZM170 0V1366H268V0H170Z"/><glyph unicode="Ļ" horiz-adv-x="976" d="M182 0V1366H291V92H946V0H182ZM442 -504L557 -252H481V-84H634V-252L516 -504H442Z"/><glyph unicode="ļ" horiz-adv-x="438" d="M107 -504L222 -252H146V-84H299V-252L181 -504H107ZM170 0V1366H268V0H170Z"/><glyph unicode="Ľ" horiz-adv-x="976" d="M182 0V1366H291V92H946V0H182ZM469 940L588 1196H508V1366H668V1196L547 940H469Z"/><glyph unicode="ľ" horiz-adv-x="495" d="M170 0V1366H268V0H170ZM350 987L457 1214H385V1366H526V1214L420 987H350Z"/><glyph unicode="Ŀ" horiz-adv-x="976" d="M182 0V1366H291V92H946V0H182ZM621 731Q621 776 651 805T723 834Q770 834 799 805T829 731Q829 686 799 658T725 629Q680 629 651 659T621 731Z"/><glyph unicode="ŀ" horiz-adv-x="512" d="M170 0V1366H268V0H170ZM373 733Q373 778 403 807T475 836Q522 836 551 808T581 733Q581 688 551 660T477 631Q432 631 403 662T373 733Z"/><glyph unicode="Ł" horiz-adv-x="976" d="M45 322V436L182 549V1366H291V637L575 870V756L291 522V92H946V0H182V434L45 322Z"/><glyph unicode="ł" horiz-adv-x="438" d="M35 362V469Q72 502 102 526Q114 536 125 546T147 565Q157 573 170 584V1366H268V670L406 788V680L268 563V0H170V477Q158 467 147 459Q137 451 126 441T102 420Q71 395 35 362Z"/><glyph unicode="Ń" horiz-adv-x="1331" d="M182 0V1366H352L1008 246Q1012 240 1019 226T1032 195Q1040 177 1049 158Q1049 170 1048 193T1047 243T1047 293T1047 330V1366H1151V0H1032L340 1180Q332 1190 324 1206T305 1239Q295 1257 283 1276Q291 1196 289 1161T287 1104V0H182ZM534 1526L862 1691L917 1581L567 1450L534 1526Z"/><glyph unicode="ń" horiz-adv-x="1089" d="M166 0V1008H260V786Q287 827 327 869T416 946T524 1003T651 1026Q786 1026 857 956T928 727V0H829V727Q829 836 783 885T639 934Q528 934 435 874T264 700V0H166ZM387 1178L715 1343L770 1233L420 1102L387 1178Z"/><glyph unicode="Ņ" horiz-adv-x="1331" d="M182 0V1366H352L1008 246Q1012 240 1019 226T1032 195Q1040 177 1049 158Q1049 170 1048 193T1047 243T1047 293T1047 330V1366H1151V0H1032L340 1180Q332 1190 324 1206T305 1239Q295 1257 283 1276Q291 1196 289 1161T287 1104V0H182ZM547 -504L662 -252H586V-84H739V-252L621 -504H547Z"/><glyph unicode="ņ" horiz-adv-x="1089" d="M166 0V1008H260V786Q287 827 327 869T416 946T524 1003T651 1026Q786 1026 857 956T928 727V0H829V727Q829 836 783 885T639 934Q528 934 435 874T264 700V0H166ZM442 -504L557 -252H481V-84H634V-252L516 -504H442Z"/><glyph unicode="Ň" horiz-adv-x="1331" d="M182 0V1366H352L1008 246Q1012 240 1019 226T1032 195Q1040 177 1049 158Q1049 170 1048 193T1047 243T1047 293T1047 330V1366H1151V0H1032L340 1180Q332 1190 324 1206T305 1239Q295 1257 283 1276Q291 1196 289 1161T287 1104V0H182ZM428 1638L488 1691L666 1591L844 1691L904 1638L666 1470L428 1638Z"/><glyph unicode="ň" horiz-adv-x="1089" d="M166 0V1008H260V786Q287 827 327 869T416 946T524 1003T651 1026Q786 1026 857 956T928 727V0H829V727Q829 836 783 885T639 934Q528 934 435 874T264 700V0H166ZM307 1290L367 1343L545 1243L723 1343L783 1290L545 1122L307 1290Z"/><glyph unicode="ŉ" horiz-adv-x="1349" d="M133 936L242 1163H156V1366H319V1157L201 936H133ZM426 0V1008H520V786Q547 827 587 869T676 946T784 1003T911 1026Q1046 1026 1117 956T1188 727V0H1090V727Q1090 836 1044 885T899 934Q788 934 695 874T524 700V0H426Z"/><glyph unicode="Ŋ" horiz-adv-x="1331" d="M182 0V1366H352L1004 272Q1006 266 1013 254T1026 229T1038 202T1049 182L1047 217V1366H1151V0Q1149 -193 1069 -285Q1026 -334 964 -354T823 -375Q757 -375 697 -368T604 -350V-260Q635 -268 687 -275T817 -283Q932 -283 989 -221T1047 0L340 1180Q332 1190 324 1206T305 1239Q295 1257 283 1276Q291 1196 289 1161T287 1104V0H182Z"/><glyph unicode="ŋ" horiz-adv-x="1089" d="M166 0V1008H260V786Q287 827 327 869T416 946T524 1003T651 1026Q786 1026 857 956T928 727V-66Q928 -238 856 -306T662 -375Q633 -375 597 -371T526 -360V-283Q561 -287 595 -288T674 -289Q727 -289 759 -270T806 -214T825 -130T829 -23V727Q829 836 783 885T639 934Q528 934 435 874T264 700V0H166Z"/><glyph unicode="Ō" horiz-adv-x="1261" d="M92 680Q92 846 133 978T245 1202T416 1343T631 1393Q750 1393 849 1343T1020 1200T1131 976T1171 680Q1171 526 1131 397T1018 175T846 30T627 -23Q510 -23 412 24T243 163T132 384T92 680ZM203 682Q203 528 235 414T325 221T461 105T629 66Q727 66 807 110T943 233T1030 427T1061 680Q1061 823 1034 937T951 1130T814 1252T629 1294Q525 1294 446 1250T313 1125T231 932T203 682ZM324 1522V1616H936V1522H324Z"/><glyph unicode="ō" horiz-adv-x="1017" d="M82 514Q82 633 117 727T210 887T345 990T506 1026Q604 1026 684 988T819 883T905 720T936 510Q936 387 901 290T807 125T670 21T508 -16Q418 -16 340 20T205 126T115 293T82 514ZM182 508Q182 406 205 324T272 184T373 93T504 61Q574 61 634 90T739 176T810 316T836 510Q836 616 809 696T737 830T632 912T504 940Q438 940 380 912T278 829T208 693T182 508ZM203 1174V1268H815V1174H203Z"/><glyph unicode="Ŏ" horiz-adv-x="1261" d="M92 680Q92 846 133 978T245 1202T416 1343T631 1393Q750 1393 849 1343T1020 1200T1131 976T1171 680Q1171 526 1131 397T1018 175T846 30T627 -23Q510 -23 412 24T243 163T132 384T92 680ZM203 682Q203 528 235 414T325 221T461 105T629 66Q727 66 807 110T943 233T1030 427T1061 680Q1061 823 1034 937T951 1130T814 1252T629 1294Q525 1294 446 1250T313 1125T231 932T203 682ZM348 1710H443Q468 1560 631 1560Q719 1560 765 1597T823 1710H914Q898 1599 831 1536T631 1472Q500 1472 433 1535T348 1710Z"/><glyph unicode="ŏ" horiz-adv-x="1017" d="M82 514Q82 633 117 727T210 887T345 990T506 1026Q604 1026 684 988T819 883T905 720T936 510Q936 387 901 290T807 125T670 21T508 -16Q418 -16 340 20T205 126T115 293T82 514ZM182 508Q182 406 205 324T272 184T373 93T504 61Q574 61 634 90T739 176T810 316T836 510Q836 616 809 696T737 830T632 912T504 940Q438 940 380 912T278 829T208 693T182 508ZM227 1362H322Q347 1212 510 1212Q598 1212 644 1249T702 1362H793Q777 1251 710 1188T510 1124Q379 1124 312 1187T227 1362Z"/><glyph unicode="Ő" horiz-adv-x="1261" d="M92 680Q92 846 133 978T245 1202T416 1343T631 1393Q750 1393 849 1343T1020 1200T1131 976T1171 680Q1171 526 1131 397T1018 175T846 30T627 -23Q510 -23 412 24T243 163T132 384T92 680ZM203 682Q203 528 235 414T325 221T461 105T629 66Q727 66 807 110T943 233T1030 427T1061 680Q1061 823 1034 937T951 1130T814 1252T629 1294Q525 1294 446 1250T313 1125T231 932T203 682ZM371 1522L670 1747L731 1651L418 1454L371 1522ZM678 1522L977 1747L1038 1651L725 1454L678 1522Z"/><glyph unicode="ő" horiz-adv-x="1017" d="M82 514Q82 633 117 727T210 887T345 990T506 1026Q604 1026 684 988T819 883T905 720T936 510Q936 387 901 290T807 125T670 21T508 -16Q418 -16 340 20T205 126T115 293T82 514ZM182 508Q182 406 205 324T272 184T373 93T504 61Q574 61 634 90T739 176T810 316T836 510Q836 616 809 696T737 830T632 912T504 940Q438 940 380 912T278 829T208 693T182 508ZM252 1174L551 1399L612 1303L299 1106L252 1174ZM559 1174L858 1399L919 1303L606 1106L559 1174Z"/><glyph unicode="Œ" horiz-adv-x="2002" d="M92 713Q92 852 134 976T253 1193T437 1340T674 1395Q805 1395 910 1347T1098 1194V1366H1905V1272H1202V762H1733V670H1202V90H1931V0H1098V186Q1069 137 1023 99T922 34T804 -8T680 -23Q549 -23 441 26T255 170T135 401T92 713ZM203 707Q203 557 235 438T331 237T485 110T692 66Q829 66 940 142T1096 350V1026Q1078 1089 1036 1139T937 1225T816 1278T686 1296Q571 1296 481 1251T330 1127T236 939T203 707Z"/><glyph unicode="œ" horiz-adv-x="1773" d="M82 514Q82 639 117 735T211 896T349 993T516 1026Q651 1026 751 945T891 735Q932 860 1035 943T1290 1026Q1376 1026 1446 995T1568 908T1653 774T1698 604Q1700 575 1701 555T1702 506H942Q942 379 973 294T1053 158T1163 85T1286 63Q1392 63 1468 113T1591 289L1681 270Q1632 129 1530 57T1284 -16Q1200 -16 1135 7T1020 70T938 161T887 268Q869 213 834 163T751 73T640 10T504 -14Q414 -14 336 20T202 122T114 288T82 514ZM182 506Q182 393 207 310T278 172T384 89T516 61Q586 61 644 93T745 183T812 325T836 508Q836 608 811 688T743 824T641 910T514 940Q444 940 384 914T279 833T208 696T182 506ZM948 582H1602Q1594 660 1570 725T1507 839T1414 914T1290 942Q1229 942 1171 922T1066 857T988 745T948 582Z"/><glyph unicode="Ŕ" horiz-adv-x="1214" d="M182 0V1366H676Q780 1366 857 1339T984 1264T1058 1150T1083 1008Q1083 949 1066 896T1014 799T928 726T809 686L1106 0H995L707 672Q680 668 652 667T586 666H289V0H182ZM289 752H676Q830 752 904 822T979 1016Q979 1131 907 1201T700 1272H289V752ZM415 1526L743 1691L798 1581L448 1450L415 1526Z"/><glyph unicode="ŕ" horiz-adv-x="630" d="M166 0V1008H260V788Q274 837 309 881T391 957T490 1007T592 1026H629V930H600Q557 930 509 917T415 873T329 790T264 662V0H166ZM207 1178L535 1343L590 1233L240 1102L207 1178Z"/><glyph unicode="Ŗ" horiz-adv-x="1214" d="M182 0V1366H676Q780 1366 857 1339T984 1264T1058 1150T1083 1008Q1083 949 1066 896T1014 799T928 726T809 686L1106 0H995L707 672Q680 668 652 667T586 666H289V0H182ZM289 752H676Q830 752 904 822T979 1016Q979 1131 907 1201T700 1272H289V752ZM483 -504L598 -252H522V-84H675V-252L557 -504H483Z"/><glyph unicode="ŗ" horiz-adv-x="630" d="M107 -504L222 -252H146V-84H299V-252L181 -504H107ZM166 0V1008H260V788Q274 837 309 881T391 957T490 1007T592 1026H629V930H600Q557 930 509 917T415 873T329 790T264 662V0H166Z"/><glyph unicode="Ř" horiz-adv-x="1214" d="M182 0V1366H676Q780 1366 857 1339T984 1264T1058 1150T1083 1008Q1083 949 1066 896T1014 799T928 726T809 686L1106 0H995L707 672Q680 668 652 667T586 666H289V0H182ZM289 752H676Q830 752 904 822T979 1016Q979 1131 907 1201T700 1272H289V752ZM303 1638L363 1691L541 1591L719 1691L779 1638L541 1470L303 1638Z"/><glyph unicode="ř" horiz-adv-x="630" d="M124 1290L184 1343L362 1243L540 1343L600 1290L362 1122L124 1290ZM166 0V1008H260V788Q274 837 309 881T391 957T490 1007T592 1026H629V930H600Q557 930 509 917T415 873T329 790T264 662V0H166Z"/><glyph unicode="Ś" horiz-adv-x="1116" d="M29 315L127 356Q174 221 286 146T578 70Q752 70 849 137T946 350Q946 418 919 466T839 549T710 610T535 664Q324 719 211 807T98 1042Q98 1126 132 1191T224 1301T361 1369T530 1393Q620 1393 700 1371T843 1305T952 1200T1018 1057L909 1026Q880 1155 776 1229T528 1303Q372 1303 289 1234T205 1067Q205 1010 222 966T285 886T408 817T610 752Q727 719 811 682T948 599T1027 493T1053 354Q1053 264 1019 195T925 77T779 3T592 -23Q371 -23 234 59T29 315ZM385 1526L713 1691L768 1581L418 1450L385 1526Z"/><glyph unicode="ś" horiz-adv-x="894" d="M8 270L106 291Q126 176 219 121T449 66Q584 66 659 121T735 270Q735 321 708 356T636 415T535 455T416 487Q350 503 288 523T176 574T98 652T68 770Q68 825 92 872T163 953T271 1006T412 1026Q584 1026 676 957T809 770L711 745Q676 837 601 888T410 940Q301 940 234 894T166 768Q166 721 190 689T257 636T352 600T463 571Q531 555 596 535T715 482T801 400T834 276Q834 145 732 65T453 -16Q269 -16 153 54T8 270ZM291 1178L619 1343L674 1233L324 1102L291 1178Z"/><glyph unicode="Ŝ" horiz-adv-x="1116" d="M29 315L127 356Q174 221 286 146T578 70Q752 70 849 137T946 350Q946 418 919 466T839 549T710 610T535 664Q324 719 211 807T98 1042Q98 1126 132 1191T224 1301T361 1369T530 1393Q620 1393 700 1371T843 1305T952 1200T1018 1057L909 1026Q880 1155 776 1229T528 1303Q372 1303 289 1234T205 1067Q205 1010 222 966T285 886T408 817T610 752Q727 719 811 682T948 599T1027 493T1053 354Q1053 264 1019 195T925 77T779 3T592 -23Q371 -23 234 59T29 315ZM321 1519L559 1687L797 1519L749 1460L559 1560L369 1460L321 1519Z"/><glyph unicode="ŝ" horiz-adv-x="894" d="M8 270L106 291Q126 176 219 121T449 66Q584 66 659 121T735 270Q735 321 708 356T636 415T535 455T416 487Q350 503 288 523T176 574T98 652T68 770Q68 825 92 872T163 953T271 1006T412 1026Q584 1026 676 957T809 770L711 745Q676 837 601 888T410 940Q301 940 234 894T166 768Q166 721 190 689T257 636T352 600T463 571Q531 555 596 535T715 482T801 400T834 276Q834 145 732 65T453 -16Q269 -16 153 54T8 270ZM211 1171L449 1339L687 1171L639 1112L449 1212L259 1112L211 1171Z"/><glyph unicode="Ş" horiz-adv-x="1116" d="M29 315L127 356Q174 221 286 146T578 70Q752 70 849 137T946 350Q946 418 919 466T839 549T710 610T535 664Q324 719 211 807T98 1042Q98 1126 132 1191T224 1301T361 1369T530 1393Q620 1393 700 1371T843 1305T952 1200T1018 1057L909 1026Q880 1155 776 1229T528 1303Q372 1303 289 1234T205 1067Q205 1010 222 966T285 886T408 817T610 752Q727 719 811 682T948 599T1027 493T1053 354Q1053 264 1019 195T925 77T779 3T592 -23H567L547 -94Q553 -92 566 -91T590 -90Q668 -90 700 -126T733 -205Q733 -232 724 -259T694 -308T636 -344T547 -358Q477 -358 445 -349T385 -332L406 -276Q435 -284 465 -291T553 -299Q594 -299 625 -280T657 -221Q657 -211 654 -199T641 -176T612 -159T561 -152Q524 -152 494 -157T453 -164L500 -18Q320 -2 204 79T29 315Z"/><glyph unicode="ş" horiz-adv-x="894" d="M8 270L106 291Q126 176 219 121T449 66Q584 66 659 121T735 270Q735 321 708 356T636 415T535 455T416 487Q350 503 288 523T176 574T98 652T68 770Q68 825 92 872T163 953T271 1006T412 1026Q584 1026 676 957T809 770L711 745Q676 837 601 888T410 940Q301 940 234 894T166 768Q166 721 190 689T257 636T352 600T463 571Q531 555 596 535T715 482T801 400T834 276Q834 145 732 65T453 -16H436L414 -94Q420 -92 433 -91T457 -90Q535 -90 567 -126T600 -205Q600 -232 591 -259T561 -308T503 -344T414 -358Q344 -358 312 -349T252 -332L272 -276Q301 -284 331 -291T420 -299Q461 -299 492 -280T524 -221Q524 -211 521 -199T508 -176T479 -159T428 -152Q391 -152 361 -157T319 -164L369 -12Q219 2 126 71T8 270Z"/><glyph unicode="Š" horiz-adv-x="1116" d="M29 315L127 356Q174 221 286 146T578 70Q752 70 849 137T946 350Q946 418 919 466T839 549T710 610T535 664Q324 719 211 807T98 1042Q98 1126 132 1191T224 1301T361 1369T530 1393Q620 1393 700 1371T843 1305T952 1200T1018 1057L909 1026Q880 1155 776 1229T528 1303Q372 1303 289 1234T205 1067Q205 1010 222 966T285 886T408 817T610 752Q727 719 811 682T948 599T1027 493T1053 354Q1053 264 1019 195T925 77T779 3T592 -23Q371 -23 234 59T29 315ZM319 1638L379 1691L557 1591L735 1691L795 1638L557 1470L319 1638Z"/><glyph unicode="š" horiz-adv-x="894" d="M8 270L106 291Q126 176 219 121T449 66Q584 66 659 121T735 270Q735 321 708 356T636 415T535 455T416 487Q350 503 288 523T176 574T98 652T68 770Q68 825 92 872T163 953T271 1006T412 1026Q584 1026 676 957T809 770L711 745Q676 837 601 888T410 940Q301 940 234 894T166 768Q166 721 190 689T257 636T352 600T463 571Q531 555 596 535T715 482T801 400T834 276Q834 145 732 65T453 -16Q269 -16 153 54T8 270ZM206 1290L266 1343L444 1243L622 1343L682 1290L444 1122L206 1290Z"/><glyph unicode="Ţ" horiz-adv-x="974" d="M27 1272V1366H950V1272H543V0H432V1272H27ZM375 -504L490 -252H414V-84H567V-252L449 -504H375Z"/><glyph unicode="ţ" horiz-adv-x="591" d="M2 930V1008H164L168 1251H260V1008H494V930H260V231Q260 141 301 105T410 68Q445 68 493 74T565 86V6Q524 -4 481 -9T397 -14Q342 -14 298 -1T224 44T178 129T162 260V930H2ZM176 -504L291 -252H215V-84H368V-252L250 -504H176Z"/><glyph unicode="Ť" horiz-adv-x="974" d="M27 1272V1366H950V1272H543V0H432V1272H27ZM251 1638L311 1691L489 1591L667 1691L727 1638L489 1470L251 1638Z"/><glyph unicode="ť" horiz-adv-x="591" d="M2 930V1008H164L168 1251H260V1008H494V930H260V231Q260 141 301 105T410 68Q445 68 493 74T565 86V6Q524 -4 481 -9T397 -14Q342 -14 298 -1T224 44T178 129T162 260V930H2ZM350 1139L457 1366H385V1518H526V1366L420 1139H350Z"/><glyph unicode="Ŧ" horiz-adv-x="974" d="M27 1272V1366H950V1272H543V778H930V686H543V0H432V686H47V778H432V1272H27Z"/><glyph unicode="ŧ" horiz-adv-x="591" d="M2 930V1008H164L168 1251H260V1008H494V930H260V639H473V571H260V231Q260 141 301 105T410 68Q445 68 493 74T565 86V6Q524 -4 481 -9T397 -14Q342 -14 298 -1T224 44T178 129T162 260V571H23V639H162V930H2Z"/><glyph unicode="Ũ" horiz-adv-x="1239" d="M174 471V1366H279V457Q279 62 621 61Q801 61 888 167T975 457V1366H1081V471Q1081 348 1047 256T953 103T810 9T633 -23Q412 -23 293 96T174 471ZM302 1532Q343 1593 396 1623T498 1653Q547 1653 580 1641T640 1615T695 1589T758 1577Q797 1577 825 1592T875 1630L938 1571Q856 1483 764 1483Q717 1483 684 1495T621 1520T564 1546T500 1558Q453 1558 427 1538T371 1487L302 1532Z"/><glyph unicode="ũ" horiz-adv-x="1071" d="M160 342V1008H258V330Q258 189 311 125T487 61Q585 61 667 113T813 287V1008H909V0H821V186Q762 84 671 34T481 -16Q407 -16 348 3T247 66T183 176T160 342ZM218 1184Q259 1245 312 1275T414 1305Q463 1305 496 1293T556 1267T611 1241T674 1229Q713 1229 741 1244T791 1282L854 1223Q772 1135 680 1135Q633 1135 600 1147T537 1172T480 1198T416 1210Q369 1210 343 1190T287 1139L218 1184Z"/><glyph unicode="Ū" horiz-adv-x="1239" d="M174 471V1366H279V457Q279 62 621 61Q801 61 888 167T975 457V1366H1081V471Q1081 348 1047 256T953 103T810 9T633 -23Q412 -23 293 96T174 471ZM320 1522V1616H932V1522H320Z"/><glyph unicode="ū" horiz-adv-x="1071" d="M160 342V1008H258V330Q258 189 311 125T487 61Q585 61 667 113T813 287V1008H909V0H821V186Q762 84 671 34T481 -16Q407 -16 348 3T247 66T183 176T160 342ZM228 1174V1268H840V1174H228Z"/><glyph unicode="Ŭ" horiz-adv-x="1239" d="M174 471V1366H279V457Q279 62 621 61Q801 61 888 167T975 457V1366H1081V471Q1081 348 1047 256T953 103T810 9T633 -23Q412 -23 293 96T174 471ZM338 1710H433Q458 1560 621 1560Q709 1560 755 1597T813 1710H904Q888 1599 821 1536T621 1472Q490 1472 423 1535T338 1710Z"/><glyph unicode="ŭ" horiz-adv-x="1071" d="M160 342V1008H258V330Q258 189 311 125T487 61Q585 61 667 113T813 287V1008H909V0H821V186Q762 84 671 34T481 -16Q407 -16 348 3T247 66T183 176T160 342ZM254 1362H349Q374 1212 537 1212Q625 1212 671 1249T729 1362H820Q804 1251 737 1188T537 1124Q406 1124 339 1187T254 1362Z"/><glyph unicode="Ů" horiz-adv-x="1239" d="M174 471V1366H279V457Q279 62 621 61Q801 61 888 167T975 457V1366H1081V471Q1081 348 1047 256T953 103T810 9T633 -23Q412 -23 293 96T174 471ZM477 1583Q477 1651 522 1697T635 1743Q705 1743 747 1695T789 1587Q789 1517 745 1473T635 1429Q567 1429 522 1473T477 1583ZM555 1585Q555 1550 574 1526T635 1501Q674 1501 694 1525T715 1585Q715 1624 694 1646T635 1669Q598 1669 577 1645T555 1585Z"/><glyph unicode="ů" horiz-adv-x="1071" d="M160 342V1008H258V330Q258 189 311 125T487 61Q585 61 667 113T813 287V1008H909V0H821V186Q762 84 671 34T481 -16Q407 -16 348 3T247 66T183 176T160 342ZM377 1235Q377 1303 422 1349T535 1395Q605 1395 647 1347T689 1239Q689 1169 645 1125T535 1081Q467 1081 422 1125T377 1235ZM455 1237Q455 1202 474 1178T535 1153Q574 1153 594 1177T615 1237Q615 1276 594 1298T535 1321Q498 1321 477 1297T455 1237Z"/><glyph unicode="Ű" horiz-adv-x="1239" d="M174 471V1366H279V457Q279 62 621 61Q801 61 888 167T975 457V1366H1081V471Q1081 348 1047 256T953 103T810 9T633 -23Q412 -23 293 96T174 471ZM387 1522L686 1747L747 1651L434 1454L387 1522ZM694 1522L993 1747L1054 1651L741 1454L694 1522Z"/><glyph unicode="ű" horiz-adv-x="1071" d="M160 342V1008H258V330Q258 189 311 125T487 61Q585 61 667 113T813 287V1008H909V0H821V186Q762 84 671 34T481 -16Q407 -16 348 3T247 66T183 176T160 342ZM268 1174L567 1399L628 1303L315 1106L268 1174ZM575 1174L874 1399L935 1303L622 1106L575 1174Z"/><glyph unicode="Ų" horiz-adv-x="1239" d="M174 471V1366H279V457Q279 62 621 61Q801 61 888 167T975 457V1366H1081V471Q1081 358 1053 271T972 123T849 26T696 -18Q653 -47 619 -81T584 -160Q584 -189 605 -213T684 -238Q717 -238 738 -235T774 -229L795 -285Q762 -299 730 -307T659 -315Q555 -315 515 -277T475 -182Q475 -80 602 -23Q395 -15 285 104T174 471Z"/><glyph unicode="ų" horiz-adv-x="1071" d="M160 342V1008H258V330Q258 189 311 125T487 61Q585 61 667 113T813 287V1008H909V0Q864 -31 828 -64T791 -145Q791 -174 812 -198T891 -223Q924 -223 945 -220T981 -215L1001 -270Q968 -284 937 -292T866 -301Q762 -301 722 -262T682 -168Q682 -111 719 -70T821 0V186Q762 84 671 34T481 -16Q407 -16 348 3T247 66T183 176T160 342Z"/><glyph unicode="Ŵ" horiz-adv-x="1585" d="M31 1366H137L414 258L436 123L465 258L764 1366H854L1157 258L1184 123L1208 258L1460 1366H1571L1247 0H1120L834 1059L807 1165L782 1059L494 0H369L31 1366ZM555 1519L793 1687L1031 1519L983 1460L793 1560L603 1460L555 1519Z"/><glyph unicode="ŵ" horiz-adv-x="1298" d="M16 1008H121L344 221L367 121L391 221L600 1008H696L922 213L944 115L971 209L1190 1008H1288L991 0H891L670 758L645 862L625 762L416 0H313L16 1008ZM411 1171L649 1339L887 1171L839 1112L649 1212L459 1112L411 1171Z"/><glyph unicode="Ŷ" horiz-adv-x="989" d="M-16 1366H102L416 813L498 676L580 817L897 1366H1010L549 578V0H438V578L-16 1366ZM258 1519L496 1687L734 1519L686 1460L496 1560L306 1460L258 1519Z"/><glyph unicode="ŷ" horiz-adv-x="837" d="M6 1008H113L391 281L436 143L481 283L739 1008H831L455 -68Q408 -203 320 -276T74 -354L70 -274Q152 -270 215 -237T317 -148T363 -19T338 141L6 1008ZM182 1171L420 1339L658 1171L610 1112L420 1212L230 1112L182 1171Z"/><glyph unicode="Ÿ" horiz-adv-x="989" d="M-16 1366H102L416 813L498 676L580 817L897 1366H1010L549 578V0H438V578L-16 1366ZM256 1560Q256 1593 281 1616T336 1640Q377 1640 399 1617T422 1560Q422 1525 399 1501T338 1476Q307 1476 282 1500T256 1560ZM566 1560Q566 1593 589 1616T648 1640Q687 1640 712 1617T738 1560Q738 1525 712 1501T650 1476Q615 1476 591 1501T566 1560Z"/><glyph unicode="Ź" d="M61 0V94L831 1272H92V1366H956V1284L182 90H979V0H61ZM358 1526L686 1691L741 1581L391 1450L358 1526Z"/><glyph unicode="ź" horiz-adv-x="874" d="M76 0V70L682 926H119V1008H815V956L195 82H821V0H76ZM280 1178L608 1343L663 1233L313 1102L280 1178Z"/><glyph unicode="Ż" d="M61 0V94L831 1272H92V1366H956V1284L182 90H979V0H61ZM412 1562Q412 1607 442 1636T514 1665Q561 1665 590 1637T620 1562Q620 1517 590 1489T516 1460Q471 1460 442 1491T412 1562Z"/><glyph unicode="ż" horiz-adv-x="874" d="M76 0V70L682 926H119V1008H815V956L195 82H821V0H76ZM365 1214Q365 1259 395 1288T467 1317Q514 1317 543 1289T573 1214Q573 1169 543 1141T469 1112Q424 1112 395 1143T365 1214Z"/><glyph unicode="Ž" d="M61 0V94L831 1272H92V1366H956V1284L182 90H979V0H61ZM284 1638L344 1691L522 1591L700 1691L760 1638L522 1470L284 1638Z"/><glyph unicode="ž" horiz-adv-x="874" d="M76 0V70L682 926H119V1008H815V956L195 82H821V0H76ZM221 1290L281 1343L459 1243L637 1343L697 1290L459 1122L221 1290Z"/><glyph unicode="ƒ" horiz-adv-x="1193" d="M72 -295L90 -205Q96 -205 98 -204T104 -203Q178 -203 227 -184T308 -125T359 -26T393 119L514 803H319L338 885H532Q536 914 542 947T555 1012Q561 1049 567 1083Q592 1224 631 1311T718 1446T820 1508T932 1524Q950 1524 969 1522T993 1522L977 1425Q961 1427 943 1428T881 1430Q850 1430 819 1414T759 1355T705 1240T664 1055Q660 1024 653 993Q649 966 645 938T639 885H893L872 803H614L483 57Q452 -123 360 -211T92 -299Q84 -299 82 -297T72 -295Z"/><glyph unicode="Ǽ" horiz-adv-x="1744" d="M-16 0L797 1366H1624V1272H932V762H1475V670H932V90H1673V0H825V461H356L88 0H-16ZM410 547H825V1262L410 547ZM876 1526L1204 1691L1259 1581L909 1450L876 1526Z"/><glyph unicode="ǽ" horiz-adv-x="1718" d="M82 266Q82 348 117 409T213 515T355 585T528 623Q606 633 666 632T799 633Q799 666 800 695T797 750Q787 840 722 891T512 942Q375 942 301 898T199 741L104 752Q129 887 236 956T508 1026Q614 1026 682 1005T787 949T842 872T870 786Q882 819 908 860T979 938T1086 1000T1235 1026Q1325 1026 1396 992T1520 898T1604 756T1645 575Q1647 559 1646 541T1647 506H887Q891 289 980 176T1237 63Q1323 63 1405 110T1536 287L1626 272Q1573 125 1474 55T1229 -16Q1149 -16 1087 5T976 63T894 148T838 250Q766 107 657 48T403 -12Q337 -12 279 5T177 56T108 142T82 266ZM186 276Q186 174 241 120T414 66Q500 66 565 90T677 152T752 237T799 332V557Q738 559 673 558T551 551Q365 531 276 457T186 276ZM739 1178L1067 1343L1122 1233L772 1102L739 1178ZM893 582H1546Q1532 752 1450 848T1231 944Q1161 944 1101 917T995 841T923 726T893 582Z"/><glyph unicode="Ǿ" horiz-adv-x="1261" d="M90 -41L233 172Q165 264 129 391T92 680Q92 846 133 978T245 1202T416 1343T631 1393Q729 1393 813 1359T965 1262L1055 1397H1159L1024 1194Q1094 1102 1132 972T1171 680Q1171 526 1131 397T1018 175T846 30T627 -23Q432 -23 293 106L195 -41H90ZM203 682Q203 549 227 447T295 266L909 1180Q800 1295 629 1294Q525 1294 446 1250T313 1125T231 932T203 682ZM350 190Q463 65 629 66Q727 66 807 110T943 233T1030 427T1061 680Q1061 948 965 1106L350 190ZM471 1526L799 1691L854 1581L504 1450L471 1526Z"/><glyph unicode="ǿ" horiz-adv-x="1017" d="M18 -37L178 160Q133 228 108 317T82 514Q82 633 117 727T210 887T345 990T506 1026Q592 1026 662 999T786 918L905 1065H1001L838 860Q885 794 910 705T936 510Q936 387 901 290T807 125T670 21T508 -16Q424 -16 353 14T225 102L113 -37H18ZM182 508Q182 348 240 238L727 844Q637 940 504 940Q438 940 380 912T278 829T208 693T182 508ZM281 172Q367 61 504 61Q574 61 634 90T739 176T810 316T836 510Q836 676 772 780L281 172ZM389 1178L717 1343L772 1233L422 1102L389 1178Z"/><glyph unicode="Ș" horiz-adv-x="1116" d="M29 315L127 356Q174 221 286 146T578 70Q752 70 849 137T946 350Q946 418 919 466T839 549T710 610T535 664Q324 719 211 807T98 1042Q98 1126 132 1191T224 1301T361 1369T530 1393Q620 1393 700 1371T843 1305T952 1200T1018 1057L909 1026Q880 1155 776 1229T528 1303Q372 1303 289 1234T205 1067Q205 1010 222 966T285 886T408 817T610 752Q727 719 811 682T948 599T1027 493T1053 354Q1053 264 1019 195T925 77T779 3T592 -23Q371 -23 234 59T29 315ZM457 -504L572 -252H496V-84H649V-252L531 -504H457Z"/><glyph unicode="ș" horiz-adv-x="894" d="M8 270L106 291Q126 176 219 121T449 66Q584 66 659 121T735 270Q735 321 708 356T636 415T535 455T416 487Q350 503 288 523T176 574T98 652T68 770Q68 825 92 872T163 953T271 1006T412 1026Q584 1026 676 957T809 770L711 745Q676 837 601 888T410 940Q301 940 234 894T166 768Q166 721 190 689T257 636T352 600T463 571Q531 555 596 535T715 482T801 400T834 276Q834 145 732 65T453 -16Q269 -16 153 54T8 270ZM332 -504L447 -252H371V-84H524V-252L406 -504H332Z"/><glyph unicode="Ț" horiz-adv-x="974" d="M27 1272V1366H950V1272H543V0H432V1272H27ZM375 -504L490 -252H414V-84H567V-252L449 -504H375Z"/><glyph unicode="ț" horiz-adv-x="591" d="M2 930V1008H164L168 1251H260V1008H494V930H260V231Q260 141 301 105T410 68Q445 68 493 74T565 86V6Q524 -4 481 -9T397 -14Q342 -14 298 -1T224 44T178 129T162 260V930H2ZM176 -504L291 -252H215V-84H368V-252L250 -504H176Z"/><glyph unicode="ˆ" horiz-adv-x="1026" d="M274 1171L512 1339L750 1171L702 1112L512 1212L322 1112L274 1171Z"/><glyph unicode="ˇ" horiz-adv-x="1026" d="M274 1290L334 1343L512 1243L690 1343L750 1290L512 1122L274 1290Z"/><glyph unicode="ˉ" horiz-adv-x="1026" d="M205 1174V1268H817V1174H205Z"/><glyph unicode="˘" horiz-adv-x="1026" d="M227 1362H322Q347 1212 510 1212Q598 1212 644 1249T702 1362H793Q777 1251 710 1188T510 1124Q379 1124 312 1187T227 1362Z"/><glyph unicode="˙" horiz-adv-x="1026" d="M408 1214Q408 1259 438 1288T510 1317Q557 1317 586 1289T616 1214Q616 1169 586 1141T512 1112Q467 1112 438 1143T408 1214Z"/><glyph unicode="˚" horiz-adv-x="1026" d="M354 1235Q354 1303 399 1349T512 1395Q582 1395 624 1347T666 1239Q666 1169 622 1125T512 1081Q444 1081 399 1125T354 1235ZM432 1237Q432 1202 451 1178T512 1153Q551 1153 571 1177T592 1237Q592 1276 571 1298T512 1321Q475 1321 454 1297T432 1237Z"/><glyph unicode="˛" horiz-adv-x="1026" d="M352 -168Q352 -59 498 0H580Q535 -31 498 -64T461 -145Q461 -174 482 -198T561 -223Q594 -223 615 -220T651 -215L672 -270Q639 -284 608 -292T537 -301Q433 -301 393 -262T352 -168Z"/><glyph unicode="˜" horiz-adv-x="1026" d="M193 1184Q234 1245 287 1275T389 1305Q438 1305 471 1293T531 1267T586 1241T649 1229Q688 1229 716 1244T766 1282L829 1223Q747 1135 655 1135Q608 1135 575 1147T512 1172T455 1198T391 1210Q344 1210 318 1190T262 1139L193 1184Z"/><glyph unicode="˝" horiz-adv-x="1026" d="M248 1174L547 1399L608 1303L295 1106L248 1174ZM555 1174L854 1399L915 1303L602 1106L555 1174Z"/><glyph unicode="Ω" horiz-adv-x="1581" d="M102 784Q102 929 153 1053T296 1268T514 1408T793 1458Q957 1458 1083 1408T1297 1269T1429 1057T1475 788Q1475 661 1441 555T1355 361T1239 206T1114 96H1475V0H983V96Q1034 135 1099 193T1223 335T1321 526T1360 774Q1360 895 1324 1001T1217 1188T1040 1314T793 1360Q668 1360 563 1317T380 1197T260 1013T217 776Q217 641 255 534T350 343T474 200T598 96V0H104V96H459Q404 137 342 197T226 343T137 537T102 784Z"/><glyph unicode="μ" horiz-adv-x="1071" d="M160 -276V1008H258V330Q258 189 311 125T487 61Q585 61 667 113T813 287V1008H909V0H821V186Q762 84 671 34T481 -16Q411 -16 349 4T254 68V-276H160Z"/><glyph unicode="π" horiz-adv-x="1542" d="M121 967Q166 990 247 1007T420 1024H1395V930H1147V252Q1147 172 1183 127T1296 82Q1327 82 1366 96L1393 10Q1344 -13 1272 -12Q1151 -12 1093 57T1034 244V930H512V262Q512 184 504 118T483 0H367Q383 57 391 128T399 264V930Q344 928 275 915T156 879L121 967Z"/><glyph unicode="Ẁ" horiz-adv-x="1585" d="M31 1366H137L414 258L436 123L465 258L764 1366H854L1157 258L1184 123L1208 258L1460 1366H1571L1247 0H1120L834 1059L807 1165L782 1059L494 0H369L31 1366ZM531 1577L584 1689L912 1522L879 1446L531 1577Z"/><glyph unicode="ẁ" horiz-adv-x="1298" d="M16 1008H121L344 221L367 121L391 221L600 1008H696L922 213L944 115L971 209L1190 1008H1288L991 0H891L670 758L645 862L625 762L416 0H313L16 1008ZM387 1229L440 1341L768 1174L735 1098L387 1229Z"/><glyph unicode="Ẃ" horiz-adv-x="1585" d="M31 1366H137L414 258L436 123L465 258L764 1366H854L1157 258L1184 123L1208 258L1460 1366H1571L1247 0H1120L834 1059L807 1165L782 1059L494 0H369L31 1366ZM673 1526L1001 1691L1056 1581L706 1450L673 1526Z"/><glyph unicode="ẃ" horiz-adv-x="1298" d="M16 1008H121L344 221L367 121L391 221L600 1008H696L922 213L944 115L971 209L1190 1008H1288L991 0H891L670 758L645 862L625 762L416 0H313L16 1008ZM530 1178L858 1343L913 1233L563 1102L530 1178Z"/><glyph unicode="Ẅ" horiz-adv-x="1585" d="M31 1366H137L414 258L436 123L465 258L764 1366H854L1157 258L1184 123L1208 258L1460 1366H1571L1247 0H1120L834 1059L807 1165L782 1059L494 0H369L31 1366ZM553 1560Q553 1593 578 1616T633 1640Q674 1640 696 1617T719 1560Q719 1525 696 1501T635 1476Q604 1476 579 1500T553 1560ZM863 1560Q863 1593 886 1616T945 1640Q984 1640 1009 1617T1035 1560Q1035 1525 1009 1501T947 1476Q912 1476 888 1501T863 1560Z"/><glyph unicode="ẅ" horiz-adv-x="1298" d="M16 1008H121L344 221L367 121L391 221L600 1008H696L922 213L944 115L971 209L1190 1008H1288L991 0H891L670 758L645 862L625 762L416 0H313L16 1008ZM409 1212Q409 1245 434 1268T489 1292Q530 1292 552 1269T575 1212Q575 1177 552 1153T491 1128Q460 1128 435 1152T409 1212ZM719 1212Q719 1245 742 1268T801 1292Q840 1292 865 1269T891 1212Q891 1177 865 1153T803 1128Q768 1128 744 1153T719 1212Z"/><glyph unicode="Ỳ" horiz-adv-x="989" d="M-16 1366H102L416 813L498 676L580 817L897 1366H1010L549 578V0H438V578L-16 1366ZM236 1577L289 1689L617 1522L584 1446L236 1577Z"/><glyph unicode="ỳ" horiz-adv-x="837" d="M6 1008H113L391 281L436 143L481 283L739 1008H831L455 -68Q408 -203 320 -276T74 -354L70 -274Q152 -270 215 -237T317 -148T363 -19T338 141L6 1008ZM158 1229L211 1341L539 1174L506 1098L158 1229Z"/><glyph unicode="–" horiz-adv-x="1024" d="M133 588V676H883V588H133Z"/><glyph unicode="—" horiz-adv-x="1536" d="M70 592V676H1458V592H70Z"/><glyph unicode="‘" horiz-adv-x="477" d="M156 934V1143L274 1366H344L236 1135H319V934H156Z"/><glyph unicode="’" horiz-adv-x="477" d="M133 936L242 1163H156V1366H319V1157L201 936H133Z"/><glyph unicode="‚" horiz-adv-x="477" d="M133 -231L221 0H156V201H319V-8L201 -231H133Z"/><glyph unicode="“" horiz-adv-x="796" d="M158 944V1126L307 1366H385L256 1120H324V944H158ZM434 944V1126L590 1366H664L528 1120H602V944H434Z"/><glyph unicode="”" horiz-adv-x="796" d="M133 940L266 1174H197V1366H367V1200L207 940H133ZM418 940L543 1174H473V1366H641V1200L487 940H418Z"/><glyph unicode="„" horiz-adv-x="796" d="M133 -231L246 0H197V193H367V29L207 -231H133ZM418 -231L522 0H473V193H641V29L487 -231H418Z"/><glyph unicode="†" horiz-adv-x="1193" d="M162 858V952H545V1366H649V952H1034V858H649V-348H545V858H162Z"/><glyph unicode="‡" horiz-adv-x="1193" d="M162 98V178H547V870H162V952H547V1366H649V952H1034V870H649V178H1034V98H649V-348H547V98H162Z"/><glyph unicode="•" horiz-adv-x="1024" d="M229 696Q229 755 251 807T312 899T401 960T512 983Q569 983 620 961T711 899T772 808T795 696Q795 637 773 585T712 494T623 433T514 410Q455 410 404 432T313 493T252 584T229 696Z"/><glyph unicode="…" horiz-adv-x="1443" d="M164 0V168H317V0H164ZM643 0V168H797V0H643ZM1126 0V168H1280V0H1126Z"/><glyph unicode="‰" horiz-adv-x="2066" d="M96 1026Q96 1102 114 1166T166 1277T245 1348T348 1374Q405 1374 452 1348T533 1275T586 1165T606 1024Q606 948 587 885T534 774T453 701T350 674Q295 674 248 700T167 773T115 883T96 1026ZM188 1026Q188 909 229 831T352 752Q434 752 474 822T514 1022Q514 1151 470 1224T346 1298Q266 1298 227 1222T188 1026ZM246 6L1094 1362H1182L336 6H246ZM848 342Q848 420 865 484T916 596T996 668T1102 694Q1157 694 1205 668T1287 594T1340 484T1360 344Q1360 266 1341 203T1287 93T1207 22T1106 -4Q1049 -4 1002 21T921 93T868 202T848 342ZM940 344Q940 225 982 150T1106 74Q1186 74 1228 144T1270 340Q1270 469 1224 543T1098 618Q1018 618 979 541T940 344ZM1464 342Q1464 420 1482 484T1534 596T1614 668T1718 694Q1775 694 1822 668T1904 594T1958 484T1978 344Q1978 266 1959 203T1906 93T1825 22T1722 -4Q1667 -4 1619 21T1537 93T1484 202T1464 342ZM1556 344Q1556 225 1599 150T1724 74Q1802 74 1844 144T1886 340Q1886 469 1840 543T1716 618Q1636 618 1596 541T1556 344Z"/><glyph unicode="‹" horiz-adv-x="419" d="M66 528L287 803H373L205 528L373 242H287L66 528Z"/><glyph unicode="›" horiz-adv-x="419" d="M51 242L219 528L51 803H137L358 528L137 242H51Z"/><glyph unicode="⁄" horiz-adv-x="315" d="M-283 0L543 1366H639L-186 0H-283Z"/><glyph unicode="⁰" horiz-adv-x="837" d="M96 1223Q96 1317 117 1396T180 1531T281 1618T420 1649Q567 1649 654 1533T741 1216Q741 1120 719 1043T655 910T556 825T424 795Q264 795 180 911T96 1223ZM188 1223Q188 1061 250 965T422 868Q526 868 586 959T647 1221Q647 1383 589 1477T420 1571Q303 1571 246 1482T188 1223Z"/><glyph unicode="⁴" horiz-adv-x="782" d="M53 1006V1075L463 1649H571V1083H708V1006H571V811H483V1006H53ZM143 1083H483V1556L143 1083Z"/><glyph unicode="⁵" horiz-adv-x="815" d="M84 1001L157 1026Q192 948 249 907T403 866Q501 866 559 928T618 1089Q618 1132 606 1170T568 1237T505 1283T416 1300Q336 1300 285 1260T198 1165L123 1182L149 1632H655L645 1550H225L207 1284Q242 1319 297 1347T418 1376Q559 1376 632 1293T706 1087Q706 1013 680 959T610 868T513 813T403 795Q286 795 200 850T84 1001Z"/><glyph unicode="⁶" horiz-adv-x="788" d="M98 1219Q98 1307 118 1385T182 1522T290 1615T444 1649Q538 1649 608 1596T706 1448L620 1436Q597 1502 548 1536T432 1571Q379 1571 335 1551T257 1486T204 1371T182 1202Q219 1278 290 1318T434 1358Q575 1358 650 1279T725 1077Q725 1018 704 967T644 877T552 817T434 795Q284 795 191 902T98 1219ZM203 1079Q209 1036 228 998T277 932T346 886T432 868Q524 868 582 923T641 1077Q641 1165 590 1223T434 1282Q387 1282 349 1266T282 1222T233 1159T203 1087V1079Z"/><glyph unicode="⁷" horiz-adv-x="628" d="M24 1550L39 1632H596L598 1573Q504 1469 443 1364T344 1164T293 986T278 842Q278 838 278 831T280 811H178V829Q178 892 198 979T258 1163T354 1359T485 1550H24Z"/><glyph unicode="⁸" horiz-adv-x="786" d="M88 1022Q88 1108 142 1162T276 1247Q196 1284 160 1329T123 1438Q123 1479 141 1516T194 1584T278 1631T391 1649Q516 1649 589 1595T663 1450Q663 1378 616 1332T499 1253Q585 1218 642 1168T700 1026Q700 928 622 862T397 795Q258 795 173 856T88 1022ZM172 1022Q172 952 230 910T397 868Q501 868 556 910T612 1028Q612 1085 560 1124T383 1206Q289 1175 231 1137T172 1022ZM211 1442Q211 1389 251 1358T372 1294L397 1284Q481 1315 529 1355T577 1446Q577 1571 389 1571Q313 1571 262 1536T211 1442Z"/><glyph unicode="⁹" horiz-adv-x="786" d="M71 1358Q71 1403 88 1454T141 1548T231 1620T364 1649Q442 1649 502 1618T604 1534T665 1410T686 1259Q686 1040 600 918T360 795Q153 795 78 971L166 989Q191 928 234 898T364 868Q462 868 527 957T596 1200Q555 1147 490 1115T366 1083Q303 1083 250 1100T156 1153T94 1239T71 1358ZM160 1354Q159 1161 360 1161Q419 1161 484 1197T588 1302L585 1325Q579 1444 521 1507T366 1571Q313 1571 274 1553T210 1505T172 1438T160 1364V1354Z"/><glyph unicode="₀" horiz-adv-x="837" d="M96 131Q96 225 117 304T180 439T281 526T420 557Q567 557 654 441T741 124Q741 28 719 -49T655 -182T556 -267T424 -297Q264 -297 180 -181T96 131ZM188 131Q188 -31 250 -127T422 -224Q526 -224 586 -133T647 129Q647 291 589 385T420 479Q303 479 246 390T188 131Z"/><glyph unicode="₁" horiz-adv-x="770" d="M151 251V337Q210 376 276 423T413 557H479V-201H686V-281H157V-201H391V423Q352 382 297 341T151 251Z"/><glyph unicode="₂" horiz-adv-x="813" d="M82 319Q148 557 407 557Q554 557 622 484T690 301Q690 242 652 176T548 45T394 -83T209 -197H723L727 -281H84V-211Q213 -119 307 -49T463 79T557 187T588 290Q588 380 544 428T405 477Q313 477 253 435T170 296L82 319Z"/><glyph unicode="₃" horiz-adv-x="800" d="M55 -105L133 -68Q164 -152 218 -188T385 -224Q496 -224 551 -177T606 -56Q606 14 544 60T358 106H256V184H362Q466 184 518 225T571 340Q571 399 519 442T381 485Q225 485 164 342L84 372Q176 556 379 557Q506 557 581 494T657 331Q657 270 616 222T514 153Q586 137 640 84T694 -54Q694 -103 672 -147T609 -223T511 -275T383 -295Q139 -295 55 -105Z"/><glyph unicode="₄" horiz-adv-x="782" d="M53 -17L463 557H571V-9H708V-86H571V-281H483V-86H53V-17ZM143 -9H483V464L143 -9Z"/><glyph unicode="₅" horiz-adv-x="815" d="M84 -91L157 -66Q192 -144 249 -185T403 -226Q501 -226 559 -164T618 -3Q618 40 606 78T568 145T505 191T416 208Q336 208 285 168T198 73L123 90L149 540H655L645 458H225L207 192Q242 227 297 255T418 284Q559 284 632 201T706 -5Q706 -79 680 -133T610 -224T513 -279T403 -297Q286 -297 200 -242T84 -91Z"/><glyph unicode="₆" horiz-adv-x="788" d="M98 127Q98 215 118 293T182 430T290 523T444 557Q538 557 608 504T706 356L620 344Q597 410 548 444T432 479Q379 479 335 459T257 394T204 279T182 110Q219 186 290 226T434 266Q575 266 650 187T725 -15Q725 -74 704 -125T644 -215T552 -275T434 -297Q284 -297 191 -190T98 127ZM203 -5V-13Q209 -56 228 -94T277 -160T346 -206T432 -224Q524 -224 582 -169T641 -15Q641 73 590 131T434 190Q387 190 349 174T282 130T233 67T203 -5Z"/><glyph unicode="₇" horiz-adv-x="628" d="M24 458L39 540H596L598 481Q504 377 443 272T344 72T293 -106T278 -250Q278 -254 278 -261T280 -281H178V-263Q178 -200 198 -113T258 71T354 267T485 458H24Z"/><glyph unicode="₈" horiz-adv-x="786" d="M88 -70Q88 16 142 70T276 155Q196 192 160 237T123 346Q123 387 141 424T194 492T278 539T391 557Q516 557 589 503T663 358Q663 286 616 240T499 161Q585 126 642 76T700 -66Q700 -164 622 -230T397 -297Q258 -297 173 -236T88 -70ZM172 -70Q172 -140 230 -182T397 -224Q501 -224 556 -182T612 -64Q612 -7 560 32T383 114Q289 83 231 45T172 -70ZM211 350Q211 297 251 266T372 202L397 192Q481 223 529 263T577 354Q577 479 389 479Q313 479 262 444T211 350Z"/><glyph unicode="₉" horiz-adv-x="786" d="M71 266Q71 311 88 362T141 456T231 528T364 557Q442 557 502 526T604 442T665 318T686 167Q686 -52 600 -174T360 -297Q153 -297 78 -121L166 -103Q191 -164 234 -194T364 -224Q462 -224 527 -135T596 108Q555 55 490 23T366 -9Q303 -9 250 8T156 61T94 147T71 266ZM160 262Q159 69 360 69Q419 69 484 105T588 210L585 233Q579 352 521 415T366 479Q313 479 274 461T210 413T172 346T160 272V262Z"/><glyph unicode="€" horiz-adv-x="1193" d="M35 508L51 590H199Q195 625 195 676T199 772H35L51 854H205Q221 983 265 1083T372 1251T516 1355T684 1391Q829 1391 939 1306T1094 1034L995 1024Q954 1165 875 1230T684 1296Q518 1296 429 1180T311 854H864L850 772H301Q299 752 299 723T299 668T300 620T301 590H825L811 508H313Q342 297 435 179T692 61Q745 61 792 74T882 121T960 208T1028 344L1130 330Q1089 221 1037 153T928 44T809 -11T686 -27Q584 -27 501 14T357 127T256 296T205 508H35Z"/><glyph unicode="ℓ" horiz-adv-x="1103" d="M180 453L377 664V1153Q377 1319 440 1405T612 1491Q667 1491 704 1470T762 1417T793 1351T803 1286Q803 1141 738 1012T569 752Q551 729 528 700T487 651V258Q487 160 527 114T635 68Q668 68 699 80T757 110T806 150T846 190L901 123Q883 103 855 77T792 29T712 -9T616 -25Q557 -25 516 -8T446 41Q411 78 394 136T377 268V532L242 387L180 453ZM487 791Q501 807 520 831T549 872Q619 976 659 1079T700 1268Q700 1325 678 1361T614 1397Q487 1397 487 1143V791Z"/><glyph unicode="™" horiz-adv-x="1562" d="M-2 1296V1366H590V1296H338V588H248V1296H-2ZM692 588V1366H803L1087 678L1364 1366H1473V588H1393V1212Q1393 1208 1394 1217T1397 1239Q1399 1253 1401 1274L1135 588H1030L762 1266Q764 1241 768 1219Q772 1201 774 1185T776 1165V588H692Z"/><glyph unicode="Ω" horiz-adv-x="1581" d="M102 784Q102 929 153 1053T296 1268T514 1408T793 1458Q957 1458 1083 1408T1297 1269T1429 1057T1475 788Q1475 661 1441 555T1355 361T1239 206T1114 96H1475V0H983V96Q1034 135 1099 193T1223 335T1321 526T1360 774Q1360 895 1324 1001T1217 1188T1040 1314T793 1360Q668 1360 563 1317T380 1197T260 1013T217 776Q217 641 255 534T350 343T474 200T598 96V0H104V96H459Q404 137 342 197T226 343T137 537T102 784Z"/><glyph unicode="℮" horiz-adv-x="1427" d="M78 653Q78 794 122 917T249 1132T450 1278T719 1331Q869 1331 986 1277T1187 1131T1314 915T1360 651H356V201Q428 129 517 92T713 55Q805 55 876 77T1006 140T1111 234T1198 352L1274 305Q1227 231 1173 171T1052 68T902 0T713 -25Q568 -25 451 29T251 176T123 391T78 653ZM356 733H1075V1106Q1009 1169 915 1210T717 1251Q613 1251 521 1215T356 1106V733Z"/><glyph unicode="⅓" horiz-adv-x="1863" d="M127 1085V1171Q186 1210 251 1257T389 1391H455V633H662V553H133V633H367V1257Q328 1216 273 1175T127 1085ZM508 0L1274 1366H1376L610 0H508ZM1126 176L1204 213Q1235 129 1289 93T1456 57Q1567 57 1622 104T1677 225Q1677 295 1615 341T1430 387H1327V465H1434Q1538 465 1590 506T1642 621Q1642 680 1590 723T1452 766Q1296 766 1235 623L1155 653Q1247 837 1450 838Q1577 838 1653 775T1729 612Q1729 551 1688 503T1585 434Q1657 418 1711 365T1765 227Q1765 178 1743 134T1680 58T1582 6T1454 -14Q1210 -14 1126 176Z"/><glyph unicode="⅔" horiz-adv-x="1863" d="M106 1153Q172 1391 432 1391Q579 1391 647 1318T715 1135Q715 1076 677 1010T573 879T419 751T233 637H748L752 553H109V623Q238 715 332 785T488 913T581 1021T612 1124Q612 1214 568 1262T430 1311Q338 1311 278 1269T195 1130L106 1153ZM569 0L1335 1366H1438L672 0H569ZM1147 176L1225 213Q1256 129 1310 93T1477 57Q1588 57 1643 104T1698 225Q1698 295 1636 341T1450 387H1348V465H1454Q1558 465 1610 506T1663 621Q1663 680 1611 723T1473 766Q1317 766 1255 623L1176 653Q1268 837 1470 838Q1597 838 1673 775T1749 612Q1749 551 1708 503T1606 434Q1678 418 1732 365T1786 227Q1786 178 1764 134T1701 58T1603 6T1475 -14Q1231 -14 1147 176Z"/><glyph unicode="⅛" horiz-adv-x="1863" d="M127 1085V1171Q186 1210 251 1257T389 1391H455V633H662V553H133V633H367V1257Q328 1216 273 1175T127 1085ZM520 0L1286 1366H1389L623 0H520ZM1137 211Q1137 297 1191 351T1325 436Q1245 473 1208 518T1171 627Q1171 668 1189 705T1243 773T1327 820T1440 838Q1565 838 1638 784T1712 639Q1712 567 1665 521T1548 442Q1634 407 1691 357T1749 215Q1749 117 1671 51T1446 -16Q1307 -16 1222 45T1137 211ZM1221 211Q1221 141 1279 99T1446 57Q1550 57 1605 99T1661 217Q1661 274 1609 313T1432 395Q1338 364 1280 326T1221 211ZM1260 631Q1260 578 1299 547T1421 483L1446 473Q1530 504 1578 544T1626 635Q1626 760 1438 760Q1362 760 1311 725T1260 631Z"/><glyph unicode="⅜" horiz-adv-x="1863" d="M82 729L160 766Q191 682 245 646T412 610Q523 610 578 657T633 778Q633 848 571 894T385 940H283V1018H389Q493 1018 545 1059T598 1174Q598 1233 546 1276T408 1319Q252 1319 190 1176L111 1206Q203 1390 406 1391Q533 1391 608 1328T684 1165Q684 1104 643 1056T541 987Q613 971 667 918T721 780Q721 731 699 687T636 611T538 559T410 539Q166 539 82 729ZM520 0L1286 1366H1389L623 0H520ZM1137 211Q1137 297 1191 351T1325 436Q1245 473 1208 518T1171 627Q1171 668 1189 705T1243 773T1327 820T1440 838Q1565 838 1638 784T1712 639Q1712 567 1665 521T1548 442Q1634 407 1691 357T1749 215Q1749 117 1671 51T1446 -16Q1307 -16 1222 45T1137 211ZM1221 211Q1221 141 1279 99T1446 57Q1550 57 1605 99T1661 217Q1661 274 1609 313T1432 395Q1338 364 1280 326T1221 211ZM1260 631Q1260 578 1299 547T1421 483L1446 473Q1530 504 1578 544T1626 635Q1626 760 1438 760Q1362 760 1311 725T1260 631Z"/><glyph unicode="⅝" horiz-adv-x="1863" d="M74 743L147 768Q182 690 239 649T393 608Q491 608 549 670T608 831Q608 874 596 912T558 979T495 1025T406 1042Q326 1042 275 1002T188 907L113 924L139 1374H645L635 1292H215L197 1026Q232 1061 287 1089T408 1118Q549 1118 622 1035T696 829Q696 755 670 701T600 610T503 555T393 537Q276 537 190 592T74 743ZM520 0L1286 1366H1389L623 0H520ZM1137 211Q1137 297 1191 351T1325 436Q1245 473 1208 518T1171 627Q1171 668 1189 705T1243 773T1327 820T1440 838Q1565 838 1638 784T1712 639Q1712 567 1665 521T1548 442Q1634 407 1691 357T1749 215Q1749 117 1671 51T1446 -16Q1307 -16 1222 45T1137 211ZM1221 211Q1221 141 1279 99T1446 57Q1550 57 1605 99T1661 217Q1661 274 1609 313T1432 395Q1338 364 1280 326T1221 211ZM1260 631Q1260 578 1299 547T1421 483L1446 473Q1530 504 1578 544T1626 635Q1626 760 1438 760Q1362 760 1311 725T1260 631Z"/><glyph unicode="⅞" horiz-adv-x="1863" d="M102 1292L117 1374H674L676 1315Q582 1211 521 1106T422 906T371 728T356 584Q356 580 356 573T358 553H256V571Q256 634 276 721T336 905T432 1101T563 1292H102ZM397 0L1163 1366H1266L500 0H397ZM1137 211Q1137 297 1191 351T1325 436Q1245 473 1208 518T1171 627Q1171 668 1189 705T1243 773T1327 820T1440 838Q1565 838 1638 784T1712 639Q1712 567 1665 521T1548 442Q1634 407 1691 357T1749 215Q1749 117 1671 51T1446 -16Q1307 -16 1222 45T1137 211ZM1221 211Q1221 141 1279 99T1446 57Q1550 57 1605 99T1661 217Q1661 274 1609 313T1432 395Q1338 364 1280 326T1221 211ZM1260 631Q1260 578 1299 547T1421 483L1446 473Q1530 504 1578 544T1626 635Q1626 760 1438 760Q1362 760 1311 725T1260 631Z"/><glyph unicode="∂" horiz-adv-x="1304" d="M131 373Q131 529 184 650T323 855T511 981T715 1024Q781 1024 835 1009T930 968T999 910T1042 844H1047Q1051 877 1054 912T1057 993Q1057 1179 969 1285T719 1391Q664 1391 603 1375T494 1327L455 1413Q492 1436 568 1461T735 1487Q829 1487 908 1454T1045 1359T1136 1203T1169 989Q1169 891 1155 795T1114 602Q1083 491 1030 380T901 179T728 34T510 -23Q426 -23 358 5T238 84T159 209T131 373ZM244 373Q244 240 316 157T514 74Q600 74 680 119T826 248T945 450T1028 713Q1016 756 992 795T928 863T838 911T719 930Q627 930 541 890T390 776T284 600T244 373Z"/><glyph unicode="∆" horiz-adv-x="1404" d="M78 0V66L641 1434H768L1329 66V0H78ZM213 100H1190L741 1204Q727 1239 721 1264T707 1313H700Q694 1290 684 1262T664 1204L213 100Z"/><glyph unicode="∏" horiz-adv-x="1634" d="M205 -471V1434H1430V-471H1317V1335H319V-471H205Z"/><glyph unicode="∑" horiz-adv-x="1425" d="M41 -426L844 489L96 1376V1434H1313V1337H266L979 492L223 -375H1370V-471H41V-426Z"/><glyph unicode="−" horiz-adv-x="1193" d="M152 635V729H1042V635H152Z"/><glyph unicode="∕" horiz-adv-x="315" d="M-283 0L543 1366H639L-186 0H-283Z"/><glyph unicode="∙" horiz-adv-x="487" d="M156 600V782H334V600H156Z"/><glyph unicode="√" horiz-adv-x="1220" d="M137 711L348 838L680 129L1100 1493H1200L729 -25H635L295 709L176 635L137 711Z"/><glyph unicode="∞" horiz-adv-x="1249" d="M121 670Q121 742 143 797T203 890T287 947T383 967Q432 967 470 953T537 914T587 858T621 795Q635 828 657 858T711 913T783 952T874 967Q937 967 984 946T1065 887T1114 801T1130 696Q1130 624 1108 570T1049 477T964 419T866 399Q784 399 720 443T625 573Q586 501 530 450T373 399Q312 399 265 422T186 485T138 572T121 670ZM213 672Q213 580 261 530T379 479Q426 479 460 499T518 553T558 623T582 698Q574 729 559 762T519 820T462 863T387 881Q317 881 265 827T213 672ZM668 682Q674 649 688 615T726 551T783 504T860 485Q930 485 984 539T1038 696Q1038 790 991 835T872 881Q827 881 793 863T733 815T691 751T668 682Z"/><glyph unicode="∫" horiz-adv-x="1095" d="M147 -451L174 -358Q194 -366 223 -372T287 -379Q389 -379 439 -321T489 -152V1208Q489 1362 572 1447T799 1532Q840 1532 882 1524T944 1505L918 1413Q902 1423 872 1430T807 1438Q701 1438 652 1376T602 1208V-147Q602 -231 579 -292T514 -394T417 -454T293 -475Q258 -475 214 -468T147 -451Z"/><glyph unicode="≈" horiz-adv-x="1193" d="M166 420V436Q166 487 185 526T236 591T307 630T385 643Q438 643 488 627T606 578Q672 547 718 531T811 514Q864 514 899 548T934 641H1026V623Q1026 572 1007 533T957 468T886 430T807 418Q754 418 700 437T586 483Q510 518 469 532T385 547Q330 547 294 513T258 420H166ZM166 727V743Q166 794 185 833T236 899T307 938T385 950Q438 950 488 934T606 885Q672 854 718 838T811 821Q864 821 899 855T934 948H1026V930Q1026 879 1007 840T957 776T886 738T807 725Q754 725 700 744T586 791Q510 826 469 840T385 854Q330 854 294 820T258 727H166Z"/><glyph unicode="≠" horiz-adv-x="1193" d="M152 494V588H471L590 786H152V881H647L795 1124H926L778 881H1042V786H721L602 588H1042V494H545L397 248H266L414 494H152Z"/><glyph unicode="≤" horiz-adv-x="1193" d="M147 41V135H1044V41H147ZM147 729V778L1044 1200V1090L319 758V752L1044 416V305L147 729Z"/><glyph unicode="≥" horiz-adv-x="1193" d="M147 41V135H1044V41H147ZM147 305V416L870 750V756L147 1090V1200L1044 778V729L147 305Z"/><glyph unicode="◊" horiz-adv-x="1284" d="M119 715L606 1434H674L1163 717L674 0H606L119 715ZM236 715L639 123L1044 715L641 1311L236 715Z"/><glyph unicode="" horiz-adv-x="1003" d="M0 0V1004H1004V0H0Z"/><glyph unicode="" horiz-adv-x="1193" d="M90 684Q90 842 124 972T223 1195T383 1339T600 1391Q717 1391 810 1341T968 1197T1069 972T1104 676Q1104 518 1069 389T970 168T812 26T604 -25Q479 -25 384 26T224 170T124 393T90 684ZM199 684Q199 541 227 425T308 228T435 104T602 61Q782 61 886 221T991 680Q991 823 966 938T890 1132T767 1255T600 1298Q397 1298 298 1143T199 684Z"/><glyph unicode="" horiz-adv-x="1193" d="M113 0V98Q365 282 523 411T773 639T898 820T932 995Q932 1058 912 1113T850 1210T746 1274T594 1298Q444 1298 344 1217T221 979L115 1001Q131 1083 168 1154T262 1277T400 1359T588 1389Q807 1389 923 1275T1040 975Q1040 881 994 786T851 584T604 358T244 94H1079V0H113Z"/><glyph unicode="" horiz-adv-x="1193" d="M72 309L182 328Q213 199 310 131T588 63Q682 63 751 88T866 155T933 252T956 371Q956 432 931 486T853 581T724 643T547 666H385V762H547Q725 762 815 832T905 1038Q905 1161 819 1229T588 1298Q447 1298 359 1231T238 1059L127 1083Q184 1228 298 1309T571 1391Q796 1391 908 1295T1020 1042Q1020 921 947 838T741 721Q891 692 982 602T1073 373Q1073 291 1041 218T946 92T793 7T586 -25Q379 -25 252 53T72 309Z"/><glyph unicode="" horiz-adv-x="1193" d="M66 334V420L745 1393H885V426H1110V334H885V0H780V334H66ZM176 426H780V1294L176 426Z"/><glyph unicode="" horiz-adv-x="1193" d="M98 293L184 324Q237 195 335 127T594 59Q680 59 748 89T866 173T941 300T967 459Q967 535 946 604T880 726T771 809T616 840Q546 840 491 821T392 769T315 696T254 612L158 631L201 1366H983L973 1268H287L254 733Q274 764 309 797T392 861T497 909T618 928Q729 928 813 892T955 793T1043 642T1073 453Q1073 334 1031 245T922 96T769 5T596 -25Q504 -25 424 -3T280 61T169 161T98 293Z"/><glyph unicode="" horiz-adv-x="1193" d="M123 670V678Q123 828 155 957T256 1183T427 1336T670 1393Q815 1393 921 1311T1071 1087L971 1069Q889 1298 649 1298Q557 1298 478 1261T343 1139T255 923T223 602Q223 600 224 592T225 575T226 557T227 547Q245 631 289 695T392 805T518 872T653 895Q762 895 846 860T988 764T1077 619T1108 436Q1108 338 1074 254T980 108T837 9T653 -27Q536 -27 438 18T271 152T162 371T123 670ZM254 434Q264 356 296 288T379 169T498 89T651 59Q727 59 792 86T906 160T981 274T1008 426V436Q1008 516 987 583T920 701T808 780T653 809Q571 809 504 780T386 700T302 586T254 455V434Z"/><glyph unicode="" horiz-adv-x="1193" d="M145 1268L160 1366H1036L1038 1292Q884 1114 784 935T625 590T542 281T518 31Q518 25 518 15T520 0H391V10Q393 119 427 271T526 593T690 937T918 1268H145Z"/><glyph unicode="" horiz-adv-x="1193" d="M119 342Q119 416 145 476T219 583T328 663T465 723Q313 789 244 865T174 1055Q174 1121 202 1182T285 1289T417 1363T592 1391Q688 1391 767 1367T901 1303T986 1203T1016 1073Q1016 1012 994 961T930 867T833 792T711 731Q791 702 857 671T973 594T1049 490T1077 350Q1077 270 1047 202T956 83T806 4T600 -25Q494 -25 405 2T252 76T154 190T119 342ZM217 344Q217 213 316 137T602 61Q782 61 878 136T975 352Q975 407 957 449T895 528T783 599T612 670L578 682Q498 653 433 624T319 555T244 465T217 344ZM279 1059Q279 963 347 904T555 786L600 768Q750 821 832 896T915 1067Q915 1180 834 1239T588 1298Q522 1298 466 1282T368 1234T303 1158T279 1059Z"/><glyph unicode="" horiz-adv-x="1193" d="M100 918Q100 990 127 1072T210 1225T353 1343T561 1391Q684 1391 778 1341T936 1203T1034 1000T1067 752V745Q1067 565 1031 422T930 180T769 28T555 -25Q229 -25 123 242L223 262Q262 160 339 111T561 61Q649 61 723 104T849 227T931 422T961 680Q961 690 960 699T958 717Q931 664 888 619T790 540T677 487T563 467Q465 467 380 495T233 580T135 721T100 918ZM209 911Q209 557 553 557Q604 557 660 574T769 625T867 707T946 819Q946 827 945 839T944 860Q930 1073 830 1186T565 1300Q471 1300 404 1267T293 1180T230 1060T209 928V911Z"/><glyph unicode="" horiz-adv-x="821" d="M88 414Q88 508 109 587T172 722T273 809T412 840Q559 840 646 724T733 407Q733 311 711 234T647 101T548 16T416 -14Q256 -14 172 102T88 414ZM180 414Q180 252 242 156T414 59Q518 59 578 150T639 412Q639 574 581 668T412 762Q295 762 238 673T180 414Z"/><glyph unicode="" horiz-adv-x="743" d="M135 534V620Q194 659 260 706T397 840H463V82H670V2H141V82H375V706Q336 665 281 624T135 534Z"/><glyph unicode="" horiz-adv-x="792" d="M72 602Q138 840 397 840Q544 840 612 767T680 584Q680 525 642 459T538 328T384 200T199 86H713L717 2H74V72Q203 164 297 234T453 362T547 470T578 573Q578 663 534 711T395 760Q303 760 243 718T160 579L72 602Z"/><glyph unicode="" horiz-adv-x="780" d="M45 178L123 215Q154 131 208 95T375 59Q486 59 541 106T596 227Q596 297 534 343T348 389H246V467H352Q456 467 508 508T561 623Q561 682 509 725T371 768Q215 768 154 625L74 655Q166 839 369 840Q496 840 571 777T647 614Q647 553 606 505T504 436Q576 420 630 367T684 229Q684 180 662 136T599 60T501 8T373 -12Q129 -12 45 178Z"/><glyph unicode="" horiz-adv-x="761" d="M43 197V266L453 840H561V274H698V197H561V2H473V197H43ZM133 274H473V747L133 274Z"/><glyph unicode="" horiz-adv-x="794" d="M74 192L147 217Q182 139 239 98T393 57Q491 57 549 119T608 280Q608 323 596 361T558 428T495 474T406 491Q326 491 275 451T188 356L113 373L139 823H645L635 741H215L197 475Q232 510 287 538T408 567Q549 567 622 484T696 278Q696 204 670 150T600 59T503 4T393 -14Q276 -14 190 41T74 192Z"/><glyph unicode="" horiz-adv-x="765" d="M88 410Q88 498 108 576T172 713T280 806T434 840Q528 840 598 787T696 639L610 627Q587 693 538 727T422 762Q369 762 325 742T247 677T194 562T172 393Q209 469 280 509T424 549Q565 549 640 470T715 268Q715 209 694 158T634 68T542 8T424 -14Q274 -14 181 93T88 410ZM193 270Q199 227 218 189T267 123T336 77T422 59Q514 59 572 114T631 268Q631 356 580 414T424 473Q377 473 339 457T272 413T223 350T193 278V270Z"/><glyph unicode="" horiz-adv-x="610" d="M16 741L31 823H588L590 764Q496 660 435 555T336 355T285 177T270 33Q270 29 270 22T272 2H170V20Q170 83 190 170T250 354T346 550T477 741H16Z"/><glyph unicode="" horiz-adv-x="763" d="M76 213Q76 299 130 353T264 438Q184 475 148 520T111 629Q111 670 129 707T182 775T266 822T379 840Q504 840 577 786T651 641Q651 569 604 523T487 444Q573 409 630 359T688 217Q688 119 610 53T385 -14Q246 -14 161 47T76 213ZM160 213Q160 143 218 101T385 59Q489 59 544 101T600 219Q600 276 548 315T371 397Q277 366 219 328T160 213ZM199 633Q199 580 239 549T360 485L385 475Q469 506 517 546T565 637Q565 762 377 762Q301 762 250 727T199 633Z"/><glyph unicode="" horiz-adv-x="765" d="M61 549Q61 594 78 645T131 739T221 811T354 840Q432 840 492 809T594 725T655 601T676 450Q676 231 590 109T350 -14Q143 -14 68 162L156 180Q181 119 224 89T354 59Q452 59 517 148T586 391Q545 338 480 306T356 274Q293 274 240 291T146 344T84 430T61 549ZM150 545Q149 352 350 352Q409 352 474 388T578 493L575 516Q569 635 511 698T356 762Q303 762 264 744T200 696T162 629T150 555V545Z"/><glyph unicode="" horiz-adv-x="821" d="M88 965Q88 1059 109 1138T172 1273T273 1360T412 1391Q559 1391 646 1275T733 958Q733 862 711 785T647 652T548 567T416 537Q256 537 172 653T88 965ZM180 965Q180 803 242 707T414 610Q518 610 578 701T639 963Q639 1125 581 1219T412 1313Q295 1313 238 1224T180 965Z"/><glyph unicode="" horiz-adv-x="743" d="M135 1085V1171Q194 1210 260 1257T397 1391H463V633H670V553H141V633H375V1257Q336 1216 281 1175T135 1085Z"/><glyph unicode="" horiz-adv-x="792" d="M72 1153Q138 1391 397 1391Q544 1391 612 1318T680 1135Q680 1076 642 1010T538 879T384 751T199 637H713L717 553H74V623Q203 715 297 785T453 913T547 1021T578 1124Q578 1214 534 1262T395 1311Q303 1311 243 1269T160 1130L72 1153Z"/><glyph unicode="" horiz-adv-x="780" d="M45 729L123 766Q154 682 208 646T375 610Q486 610 541 657T596 778Q596 848 534 894T348 940H246V1018H352Q456 1018 508 1059T561 1174Q561 1233 509 1276T371 1319Q215 1319 154 1176L74 1206Q166 1390 369 1391Q496 1391 571 1328T647 1165Q647 1104 606 1056T504 987Q576 971 630 918T684 780Q684 731 662 687T599 611T501 559T373 539Q129 539 45 729Z"/><glyph unicode="" horiz-adv-x="761" d="M43 748V817L453 1391H561V825H698V748H561V553H473V748H43ZM133 825H473V1298L133 825Z"/><glyph unicode="" horiz-adv-x="794" d="M74 743L147 768Q182 690 239 649T393 608Q491 608 549 670T608 831Q608 874 596 912T558 979T495 1025T406 1042Q326 1042 275 1002T188 907L113 924L139 1374H645L635 1292H215L197 1026Q232 1061 287 1089T408 1118Q549 1118 622 1035T696 829Q696 755 670 701T600 610T503 555T393 537Q276 537 190 592T74 743Z"/><glyph unicode="" horiz-adv-x="765" d="M88 961Q88 1049 108 1127T172 1264T280 1357T434 1391Q528 1391 598 1338T696 1190L610 1178Q587 1244 538 1278T422 1313Q369 1313 325 1293T247 1228T194 1113T172 944Q209 1020 280 1060T424 1100Q565 1100 640 1021T715 819Q715 760 694 709T634 619T542 559T424 537Q274 537 181 644T88 961ZM193 821Q199 778 218 740T267 674T336 628T422 610Q514 610 572 665T631 819Q631 907 580 965T424 1024Q377 1024 339 1008T272 964T223 901T193 829V821Z"/><glyph unicode="" horiz-adv-x="610" d="M16 1292L31 1374H588L590 1315Q496 1211 435 1106T336 906T285 728T270 584Q270 580 270 573T272 553H170V571Q170 634 190 721T250 905T346 1101T477 1292H16Z"/><glyph unicode="" horiz-adv-x="763" d="M76 764Q76 850 130 904T264 989Q184 1026 148 1071T111 1180Q111 1221 129 1258T182 1326T266 1373T379 1391Q504 1391 577 1337T651 1192Q651 1120 604 1074T487 995Q573 960 630 910T688 768Q688 670 610 604T385 537Q246 537 161 598T76 764ZM160 764Q160 694 218 652T385 610Q489 610 544 652T600 770Q600 827 548 866T371 948Q277 917 219 879T160 764ZM199 1184Q199 1131 239 1100T360 1036L385 1026Q469 1057 517 1097T565 1188Q565 1313 377 1313Q301 1313 250 1278T199 1184Z"/><glyph unicode="" horiz-adv-x="765" d="M61 1100Q61 1145 78 1196T131 1290T221 1362T354 1391Q432 1391 492 1360T594 1276T655 1152T676 1001Q676 782 590 660T350 537Q143 537 68 713L156 731Q181 670 224 640T354 610Q452 610 517 699T586 942Q545 889 480 857T356 825Q293 825 240 842T146 895T84 981T61 1100ZM150 1096Q149 903 350 903Q409 903 474 939T578 1044L575 1067Q569 1186 511 1249T356 1313Q303 1313 264 1295T200 1247T162 1180T150 1106V1096Z"/><glyph unicode="" horiz-adv-x="710" d="M66 733L285 1008H371L203 733L371 447H285L66 733ZM352 733L573 1008H659L492 733L659 447H573L352 733Z"/><glyph unicode="" horiz-adv-x="710" d="M51 447L219 733L51 1008H137L358 733L137 447H51ZM340 447L508 733L340 1008H428L645 733L428 447H340Z"/><glyph unicode="" horiz-adv-x="419" d="M66 733L287 1008H373L205 733L373 447H287L66 733Z"/><glyph unicode="" horiz-adv-x="419" d="M51 447L219 733L51 1008H137L358 733L137 447H51Z"/><glyph unicode="" horiz-adv-x="1466" d="M59 682Q59 834 115 964T268 1188T495 1335T770 1389Q907 1389 1025 1344T1229 1217T1363 1023T1411 780Q1411 676 1388 586T1321 428T1216 323T1077 285Q1048 285 1020 294T969 325T936 383T934 471Q916 434 891 401T832 340T750 298T639 283Q590 283 544 302T462 361T405 460T383 600Q383 692 409 775T483 920T597 1020T741 1057Q809 1057 877 1024T981 924L1053 1044H1094L1036 565Q1032 534 1028 499T1024 434Q1024 401 1042 385T1090 369Q1133 369 1175 393T1250 469T1304 598T1325 780Q1325 893 1283 989T1167 1155T990 1265T766 1305Q645 1305 535 1259T340 1132T206 938T156 690Q156 536 199 420T318 223T501 102T735 61Q829 61 902 72T1032 102T1133 141T1210 180L1247 100Q1136 41 1012 8T733 -25Q569 -25 443 32T232 187T103 413T59 682ZM485 588Q485 486 526 422T655 358Q710 358 759 382T848 446T911 545T944 672Q950 731 954 764T956 816T947 848T926 879Q885 932 841 954T748 977Q631 977 558 872T485 588Z"/><glyph unicode="" horiz-adv-x="493" d="M33 643V729Q103 747 128 793T154 917V1278Q154 1405 229 1473T459 1542V1460H438Q258 1460 258 1266V903Q258 850 249 813T223 752T181 711T125 682Q197 649 227 597T258 459V113Q258 4 304 -43T428 -90H459V-172Q301 -172 228 -105T154 125V450Q154 536 127 579T33 643Z"/><glyph unicode="" horiz-adv-x="493" d="M31 -90H61Q139 -90 186 -43T233 113V459Q233 545 261 597T362 682Q333 694 309 710T269 751T243 812T233 903V1266Q233 1368 186 1414T51 1460H31V1542Q45 1544 51 1544T68 1544Q201 1544 269 1471T338 1278V917Q338 839 364 795T457 733V647Q385 627 362 582T338 450V125Q338 -37 271 -103T47 -170H31V-90Z"/><glyph unicode="" horiz-adv-x="512" d="M141 -172V1542H455V1466H254V-100H455V-172H141Z"/><glyph unicode="" horiz-adv-x="512" d="M55 -100H258V1466H55V1542H371V-172H55V-100Z"/><glyph unicode="" horiz-adv-x="1536" d="M70 690V774H1458V690H70Z"/><glyph unicode="" horiz-adv-x="1024" d="M133 688V776H883V688H133Z"/><glyph unicode="" horiz-adv-x="452" d="M6 682V782H449V682H6Z"/><glyph unicode="" horiz-adv-x="512" d="M74 686Q74 903 132 1119T338 1542H428Q299 1341 241 1130T182 684Q182 475 237 266T430 -166H340Q186 37 130 253T74 686Z"/><glyph unicode="" horiz-adv-x="512" d="M80 1542H168Q246 1442 297 1337T379 1123T422 903T434 684Q434 467 376 254T172 -166H82Q211 35 268 241T326 686Q326 897 273 1109T80 1542Z"/><glyph unicode="" horiz-adv-x="524" d="M193 1194V1366H356V1194H193ZM205 0L248 1057H309L348 0H205Z"/><glyph unicode="" horiz-adv-x="1015" d="M92 313Q92 393 117 452T185 558T280 639T387 705Q432 732 459 765T501 842T520 935T524 1044V1055H621V1049Q621 981 617 924T594 816T539 721T438 635Q403 612 363 587T286 525T226 441T201 326Q201 187 289 125T520 63Q661 63 751 145T874 387L971 369Q934 183 814 79T510 -25Q414 -25 336 0T204 70T121 177T92 313ZM492 1212V1366H645V1212H492Z"/><glyph unicode="" horiz-adv-x="1185" d="M55 346Q55 452 94 534T203 674T375 770T602 825Q633 829 672 832T754 838T841 841T924 842V969Q924 1043 907 1103T848 1206T741 1272T573 1296Q485 1296 421 1272T312 1206T243 1109T205 989L100 1010Q129 1186 256 1289T586 1393Q822 1393 925 1281T1028 958V254Q1028 193 1033 128T1053 0H946Q934 35 927 92T922 199Q854 97 737 41T473 -16Q381 -16 304 7T172 76T86 188T55 346ZM166 362Q166 288 189 235T254 147T351 94T473 76Q637 76 757 159T924 375V745Q883 745 839 743T753 739T673 733T604 725Q399 696 283 606T166 362Z"/><glyph unicode="" horiz-adv-x="1185" d="M55 346Q55 452 94 534T203 674T375 770T602 825Q633 829 672 832T754 838T841 841T924 842V969Q924 1043 907 1103T848 1206T741 1272T573 1296Q485 1296 421 1272T312 1206T243 1109T205 989L100 1010Q129 1186 256 1289T586 1393Q822 1393 925 1281T1028 958V254Q1028 193 1033 128T1053 0H946Q934 35 927 92T922 199Q854 97 737 41T473 -16Q381 -16 304 7T172 76T86 188T55 346ZM166 362Q166 288 189 235T254 147T351 94T473 76Q637 76 757 159T924 375V745Q883 745 839 743T753 739T673 733T604 725Q399 696 283 606T166 362ZM448 1526L776 1691L831 1581L481 1450L448 1526Z"/><glyph unicode="" horiz-adv-x="1185" d="M55 346Q55 452 94 534T203 674T375 770T602 825Q633 829 672 832T754 838T841 841T924 842V969Q924 1043 907 1103T848 1206T741 1272T573 1296Q485 1296 421 1272T312 1206T243 1109T205 989L100 1010Q129 1186 256 1289T586 1393Q822 1393 925 1281T1028 958V254Q1028 193 1033 128T1053 0H946Q934 35 927 92T922 199Q854 97 737 41T473 -16Q381 -16 304 7T172 76T86 188T55 346ZM166 362Q166 288 189 235T254 147T351 94T473 76Q637 76 757 159T924 375V745Q883 745 839 743T753 739T673 733T604 725Q399 696 283 606T166 362ZM361 1577L414 1689L742 1522L709 1446L361 1577Z"/><glyph unicode="" horiz-adv-x="1185" d="M55 346Q55 452 94 534T203 674T375 770T602 825Q633 829 672 832T754 838T841 841T924 842V969Q924 1043 907 1103T848 1206T741 1272T573 1296Q485 1296 421 1272T312 1206T243 1109T205 989L100 1010Q129 1186 256 1289T586 1393Q822 1393 925 1281T1028 958V254Q1028 193 1033 128T1053 0H946Q934 35 927 92T922 199Q854 97 737 41T473 -16Q381 -16 304 7T172 76T86 188T55 346ZM166 362Q166 288 189 235T254 147T351 94T473 76Q637 76 757 159T924 375V745Q883 745 839 743T753 739T673 733T604 725Q399 696 283 606T166 362ZM329 1519L567 1687L805 1519L757 1460L567 1560L377 1460L329 1519Z"/><glyph unicode="" horiz-adv-x="1185" d="M55 346Q55 452 94 534T203 674T375 770T602 825Q633 829 672 832T754 838T841 841T924 842V969Q924 1043 907 1103T848 1206T741 1272T573 1296Q485 1296 421 1272T312 1206T243 1109T205 989L100 1010Q129 1186 256 1289T586 1393Q822 1393 925 1281T1028 958V254Q1028 193 1033 128T1053 0H946Q934 35 927 92T922 199Q854 97 737 41T473 -16Q381 -16 304 7T172 76T86 188T55 346ZM166 362Q166 288 189 235T254 147T351 94T473 76Q637 76 757 159T924 375V745Q883 745 839 743T753 739T673 733T604 725Q399 696 283 606T166 362ZM346 1560Q346 1593 371 1616T426 1640Q467 1640 489 1617T512 1560Q512 1525 489 1501T428 1476Q397 1476 372 1500T346 1560ZM656 1560Q656 1593 679 1616T738 1640Q777 1640 802 1617T828 1560Q828 1525 802 1501T740 1476Q705 1476 681 1501T656 1560Z"/><glyph unicode="" horiz-adv-x="1185" d="M55 346Q55 452 94 534T203 674T375 770T602 825Q633 829 672 832T754 838T841 841T924 842V969Q924 1043 907 1103T848 1206T741 1272T573 1296Q485 1296 421 1272T312 1206T243 1109T205 989L100 1010Q129 1186 256 1289T586 1393Q822 1393 925 1281T1028 958V254Q1028 193 1033 128T1053 0H946Q934 35 927 92T922 199Q854 97 737 41T473 -16Q381 -16 304 7T172 76T86 188T55 346ZM166 362Q166 288 189 235T254 147T351 94T473 76Q637 76 757 159T924 375V745Q883 745 839 743T753 739T673 733T604 725Q399 696 283 606T166 362ZM279 1532Q320 1593 373 1623T475 1653Q524 1653 557 1641T617 1615T672 1589T735 1577Q774 1577 802 1592T852 1630L915 1571Q833 1483 741 1483Q694 1483 661 1495T598 1520T541 1546T477 1558Q430 1558 404 1538T348 1487L279 1532Z"/><glyph unicode="" horiz-adv-x="1185" d="M55 346Q55 452 94 534T203 674T375 770T602 825Q633 829 672 832T754 838T841 841T924 842V969Q924 1043 907 1103T848 1206T741 1272T573 1296Q485 1296 421 1272T312 1206T243 1109T205 989L100 1010Q125 1164 227 1264T492 1386Q463 1406 446 1438T428 1511Q428 1579 473 1625T586 1671Q656 1671 697 1623T739 1516Q739 1475 723 1442T678 1386Q864 1363 946 1254T1028 958V254Q1028 193 1033 128T1053 0H946Q934 35 927 92T922 199Q854 97 737 41T473 -16Q381 -16 304 7T172 76T86 188T55 346ZM166 362Q166 288 189 235T254 147T351 94T473 76Q637 76 757 159T924 375V745Q883 745 839 743T753 739T673 733T604 725Q399 696 283 606T166 362ZM506 1513Q506 1478 525 1454T586 1430Q625 1430 645 1454T666 1513Q666 1552 645 1574T586 1597Q549 1597 528 1573T506 1513Z"/><glyph unicode="" horiz-adv-x="1185" d="M55 346Q55 452 94 534T203 674T375 770T602 825Q633 829 672 832T754 838T841 841T924 842V969Q924 1043 907 1103T848 1206T741 1272T573 1296Q485 1296 421 1272T312 1206T243 1109T205 989L100 1010Q129 1186 256 1289T586 1393Q822 1393 925 1281T1028 958V254Q1028 193 1033 128T1053 0H946Q934 35 927 92T922 199Q854 97 737 41T473 -16Q381 -16 304 7T172 76T86 188T55 346ZM166 362Q166 288 189 235T254 147T351 94T473 76Q637 76 757 159T924 375V745Q883 745 839 743T753 739T673 733T604 725Q399 696 283 606T166 362ZM262 1522V1616H874V1522H262Z"/><glyph unicode="" horiz-adv-x="1185" d="M55 346Q55 452 94 534T203 674T375 770T602 825Q633 829 672 832T754 838T841 841T924 842V969Q924 1043 907 1103T848 1206T741 1272T573 1296Q485 1296 421 1272T312 1206T243 1109T205 989L100 1010Q129 1186 256 1289T586 1393Q822 1393 925 1281T1028 958V254Q1028 193 1033 128T1053 0H946Q934 35 927 92T922 199Q854 97 737 41T473 -16Q381 -16 304 7T172 76T86 188T55 346ZM166 362Q166 288 189 235T254 147T351 94T473 76Q637 76 757 159T924 375V745Q883 745 839 743T753 739T673 733T604 725Q399 696 283 606T166 362ZM307 1710H402Q427 1560 590 1560Q678 1560 724 1597T782 1710H873Q857 1599 790 1536T590 1472Q459 1472 392 1535T307 1710Z"/><glyph unicode="" horiz-adv-x="1185" d="M55 346Q55 452 94 534T203 674T375 770T602 825Q633 829 672 832T754 838T841 841T924 842V969Q924 1043 907 1103T848 1206T741 1272T573 1296Q485 1296 421 1272T312 1206T243 1109T205 989L100 1010Q129 1186 256 1289T586 1393Q822 1393 925 1281T1028 958V254Q1028 193 1033 128T1053 0Q1008 -31 971 -64T934 -145Q934 -174 955 -198T1034 -223Q1067 -223 1088 -220T1124 -215L1145 -270Q1112 -284 1081 -292T1010 -301Q906 -301 866 -262T825 -168Q825 -111 859 -70T946 0Q932 39 926 94T922 199Q854 97 738 41T473 -16Q381 -16 304 7T172 76T86 188T55 346ZM166 362Q166 288 189 235T254 147T351 94T473 76Q637 76 757 159T924 375V745Q883 745 839 743T753 739T673 733T604 725Q399 696 283 606T166 362Z"/><glyph unicode="" horiz-adv-x="1208" d="M90 659Q90 833 130 970T241 1201T411 1343T627 1393Q752 1393 844 1344T997 1206T1092 996T1135 731Q1137 708 1137 701T1137 674H203Q203 531 234 418T323 229T460 111T633 70Q907 70 1018 403L1118 383Q1065 182 931 78T618 -27Q522 -27 427 15T257 141T136 354T90 659ZM205 770H1022Q1012 883 983 978T905 1143T787 1254T627 1294Q535 1294 462 1257T335 1150T248 984T205 770Z"/><glyph unicode="" horiz-adv-x="1208" d="M90 659Q90 833 130 970T241 1201T411 1343T627 1393Q752 1393 844 1344T997 1206T1092 996T1135 731Q1137 708 1137 701T1137 674H203Q203 531 234 418T323 229T460 111T633 70Q907 70 1018 403L1118 383Q1065 182 931 78T618 -27Q522 -27 427 15T257 141T136 354T90 659ZM205 770H1022Q1012 883 983 978T905 1143T787 1254T627 1294Q535 1294 462 1257T335 1150T248 984T205 770ZM495 1526L823 1691L878 1581L528 1450L495 1526Z"/><glyph unicode="" horiz-adv-x="1208" d="M90 659Q90 833 130 970T241 1201T411 1343T627 1393Q752 1393 844 1344T997 1206T1092 996T1135 731Q1137 708 1137 701T1137 674H203Q203 531 234 418T323 229T460 111T633 70Q907 70 1018 403L1118 383Q1065 182 931 78T618 -27Q522 -27 427 15T257 141T136 354T90 659ZM205 770H1022Q1012 883 983 978T905 1143T787 1254T627 1294Q535 1294 462 1257T335 1150T248 984T205 770ZM408 1577L461 1689L789 1522L756 1446L408 1577Z"/><glyph unicode="" horiz-adv-x="1208" d="M90 659Q90 833 130 970T241 1201T411 1343T627 1393Q752 1393 844 1344T997 1206T1092 996T1135 731Q1137 708 1137 701T1137 674H203Q203 531 234 418T323 229T460 111T633 70Q907 70 1018 403L1118 383Q1065 182 931 78T618 -27Q522 -27 427 15T257 141T136 354T90 659ZM205 770H1022Q1012 883 983 978T905 1143T787 1254T627 1294Q535 1294 462 1257T335 1150T248 984T205 770ZM374 1519L612 1687L850 1519L802 1460L612 1560L422 1460L374 1519Z"/><glyph unicode="" horiz-adv-x="1208" d="M90 659Q90 833 130 970T241 1201T411 1343T627 1393Q752 1393 844 1344T997 1206T1092 996T1135 731Q1137 708 1137 701T1137 674H203Q203 531 234 418T323 229T460 111T633 70Q907 70 1018 403L1118 383Q1065 182 931 78T618 -27Q522 -27 427 15T257 141T136 354T90 659ZM205 770H1022Q1012 883 983 978T905 1143T787 1254T627 1294Q535 1294 462 1257T335 1150T248 984T205 770ZM368 1560Q368 1593 393 1616T448 1640Q489 1640 511 1617T534 1560Q534 1525 511 1501T450 1476Q419 1476 394 1500T368 1560ZM678 1560Q678 1593 701 1616T760 1640Q799 1640 824 1617T850 1560Q850 1525 824 1501T762 1476Q727 1476 703 1501T678 1560Z"/><glyph unicode="" horiz-adv-x="1208" d="M90 659Q90 833 130 970T241 1201T411 1343T627 1393Q752 1393 844 1344T997 1206T1092 996T1135 731Q1137 708 1137 701T1137 674H203Q203 531 234 418T323 229T460 111T633 70Q907 70 1018 403L1118 383Q1065 182 931 78T618 -27Q522 -27 427 15T257 141T136 354T90 659ZM205 770H1022Q1012 883 983 978T905 1143T787 1254T627 1294Q535 1294 462 1257T335 1150T248 984T205 770ZM322 1522V1616H934V1522H322Z"/><glyph unicode="" horiz-adv-x="1208" d="M90 659Q90 833 130 970T241 1201T411 1343T627 1393Q752 1393 844 1344T997 1206T1092 996T1135 731Q1137 708 1137 701T1137 674H203Q203 531 234 418T323 229T460 111T633 70Q907 70 1018 403L1118 383Q1065 182 931 78T618 -27Q522 -27 427 15T257 141T136 354T90 659ZM205 770H1022Q1012 883 983 978T905 1143T787 1254T627 1294Q535 1294 462 1257T335 1150T248 984T205 770ZM525 1562Q525 1607 555 1636T627 1665Q674 1665 703 1637T733 1562Q733 1517 703 1489T629 1460Q584 1460 555 1491T525 1562Z"/><glyph unicode="" horiz-adv-x="1208" d="M90 659Q90 833 130 970T241 1201T411 1343T627 1393Q752 1393 844 1344T997 1206T1092 996T1135 731Q1137 708 1137 701T1137 674H203Q203 531 234 418T323 229T460 111T633 70Q907 70 1018 403L1118 383Q1071 209 965 108T715 -18Q670 -49 633 -83T596 -164Q596 -193 617 -217T696 -242Q729 -242 750 -239T786 -233L807 -289Q774 -303 743 -311T672 -319Q568 -319 528 -281T487 -186Q487 -82 614 -27Q518 -27 424 15T256 142T136 356T90 659ZM205 770H1022Q1012 883 983 978T905 1143T787 1254T627 1294Q535 1294 462 1257T335 1150T248 984T205 770Z"/><glyph unicode="" horiz-adv-x="1208" d="M90 659Q90 833 130 970T241 1201T411 1343T627 1393Q752 1393 844 1344T997 1206T1092 996T1135 731Q1137 708 1137 701T1137 674H203Q203 531 234 418T323 229T460 111T633 70Q907 70 1018 403L1118 383Q1065 182 931 78T618 -27Q522 -27 427 15T257 141T136 354T90 659ZM205 770H1022Q1012 883 983 978T905 1143T787 1254T627 1294Q535 1294 462 1257T335 1150T248 984T205 770ZM366 1638L426 1691L604 1591L782 1691L842 1638L604 1470L366 1638Z"/><glyph unicode="" horiz-adv-x="2062" d="M182 0V1366H289V1147Q309 1184 349 1223T444 1293T571 1345T731 1366Q807 1366 866 1348T969 1298T1040 1223T1083 1133Q1114 1178 1158 1220T1257 1294T1378 1346T1516 1366Q1633 1366 1710 1340T1836 1261T1904 1130T1925 944V0H1815V965Q1815 1006 1808 1058T1771 1156T1685 1233T1530 1264Q1442 1264 1373 1238T1251 1175T1162 1094T1106 1018V0H995V965Q995 1006 986 1058T948 1156T860 1233T702 1264Q614 1264 547 1238T429 1175T345 1094T291 1018V0H182Z"/><glyph unicode="" horiz-adv-x="1280" d="M182 0V1366H289V1147Q309 1184 349 1223T444 1293T571 1345T731 1366Q905 1366 1005 1273T1106 1018V0H995V965Q995 1006 986 1058T948 1156T860 1233T702 1264Q614 1264 547 1238T429 1175T345 1094T291 1018V0H182Z"/><glyph unicode="" horiz-adv-x="1280" d="M182 0V1366H289V1147Q309 1184 349 1223T444 1293T571 1345T731 1366Q905 1366 1005 1273T1106 1018V0H995V965Q995 1006 986 1058T948 1156T860 1233T702 1264Q614 1264 547 1238T429 1175T345 1094T291 1018V0H182ZM320 1532Q361 1593 414 1623T516 1653Q565 1653 598 1641T658 1615T713 1589T776 1577Q815 1577 843 1592T893 1630L956 1571Q874 1483 782 1483Q735 1483 702 1495T639 1520T582 1546T518 1558Q471 1558 445 1538T389 1487L320 1532Z"/><glyph unicode="" horiz-adv-x="1280" d="M182 0V1366H289V1147Q309 1184 349 1223T444 1293T571 1345T731 1366Q905 1366 1005 1273T1106 1018V0H995V965Q995 1006 986 1058T948 1156T860 1233T702 1264Q614 1264 547 1238T429 1175T345 1094T291 1018V0H182ZM504 1526L832 1691L887 1581L537 1450L504 1526Z"/><glyph unicode="" horiz-adv-x="1280" d="M182 0V1366H289V1147Q309 1184 349 1223T444 1293T571 1345T731 1366Q905 1366 1005 1273T1106 1018V0H995V965Q995 1006 986 1058T948 1156T860 1233T702 1264Q614 1264 547 1238T429 1175T345 1094T291 1018V0H182ZM541 -504L656 -252H580V-84H733V-252L615 -504H541Z"/><glyph unicode="" horiz-adv-x="1280" d="M182 0V1366H289V1147Q309 1184 349 1223T444 1293T571 1345T731 1366Q905 1366 1005 1273T1106 1018V0H995V965Q995 1006 986 1058T948 1156T860 1233T702 1264Q614 1264 547 1238T429 1175T345 1094T291 1018V0H182ZM401 1638L461 1691L639 1591L817 1691L877 1638L639 1470L401 1638Z"/><glyph unicode="" horiz-adv-x="1280" d="M182 0V1366H289V1147Q309 1184 349 1223T444 1293T571 1345T731 1366Q905 1366 1005 1273T1106 1018V14Q1106 -90 1084 -164T1020 -285Q977 -334 915 -354T774 -375Q708 -375 648 -368T555 -350V-260Q586 -268 638 -275T768 -283Q883 -283 939 -221T995 0V965Q995 1006 986 1058T948 1156T860 1233T702 1264Q614 1264 547 1238T429 1175T345 1094T291 1018V0H182Z"/><glyph unicode="" horiz-adv-x="1069" d="M182 0V1366H289V1133Q309 1170 345 1210T433 1286T554 1343T711 1366Q885 1366 975 1273T1065 1018V872H954V965Q954 1006 948 1058T917 1156T836 1233T682 1264Q594 1264 530 1234T419 1162T342 1073T291 993V0H182Z"/><glyph unicode="" horiz-adv-x="1069" d="M182 0V1366H289V1133Q309 1170 345 1210T433 1286T554 1343T711 1366Q885 1366 975 1273T1065 1018V872H954V965Q954 1006 948 1058T917 1156T836 1233T682 1264Q594 1264 530 1234T419 1162T342 1073T291 993V0H182ZM432 1526L760 1691L815 1581L465 1450L432 1526Z"/><glyph unicode="" horiz-adv-x="1069" d="M125 -504L240 -252H164V-84H317V-252L199 -504H125ZM182 0V1366H289V1133Q309 1170 345 1210T433 1286T554 1343T711 1366Q885 1366 975 1273T1065 1018V872H954V965Q954 1006 948 1058T917 1156T836 1233T682 1264Q594 1264 530 1234T419 1162T342 1073T291 993V0H182Z"/><glyph unicode="" horiz-adv-x="1069" d="M182 0V1366H289V1133Q309 1170 345 1210T433 1286T554 1343T711 1366Q885 1366 975 1273T1065 1018V872H954V965Q954 1006 948 1058T917 1156T836 1233T682 1264Q594 1264 530 1234T419 1162T342 1073T291 993V0H182ZM337 1638L397 1691L575 1591L753 1691L813 1638L575 1470L337 1638Z"/><glyph unicode="" horiz-adv-x="970" d="M27 1272V1366H950V1272H522V258Q522 160 567 118T690 76Q729 76 782 83T864 96V8Q764 -14 676 -14Q613 -14 564 0T480 50T429 144T412 289V1272H27Z"/><glyph unicode="" horiz-adv-x="970" d="M27 1272V1366H950V1272H522V258Q522 160 567 118T690 76Q729 76 782 83T864 96V8Q764 -14 676 -14Q613 -14 564 0T480 50T429 144T412 289V1272H27ZM428 -504L543 -252H467V-84H620V-252L502 -504H428Z"/><glyph unicode="" horiz-adv-x="970" d="M27 1272V1366H950V1272H522V258Q522 160 567 118T690 76Q729 76 782 83T864 96V8Q764 -14 676 -14Q613 -14 564 0T480 50T429 144T412 289V1272H27ZM428 -504L543 -252H467V-84H620V-252L502 -504H428Z"/><glyph unicode="" horiz-adv-x="970" d="M27 1272V1366H950V1272H522V258Q522 160 567 118T690 76Q729 76 782 83T864 96V8Q764 -14 676 -14Q613 -14 564 0T480 50T429 144T412 289V1272H27ZM237 1638L297 1691L475 1591L653 1691L713 1638L475 1470L237 1638Z"/><glyph unicode="" horiz-adv-x="970" d="M27 1272V1366H950V1272H522V778H930V686H522V258Q522 160 567 118T690 76Q729 76 782 83T864 96V8Q764 -15 676 -14Q613 -14 564 0T480 50T429 144T412 289V686H47V778H412V1272H27Z"/><glyph unicode="" horiz-adv-x="1280" d="M178 369V1366H289V401Q289 313 308 254T365 160T460 110T594 94Q676 94 741 120T856 187T939 270T993 348V1366H1102V0H995V219Q972 182 934 143T840 73T713 21T553 0Q379 0 279 90T178 369Z"/><glyph unicode="" horiz-adv-x="1280" d="M178 369V1366H289V401Q289 313 308 254T365 160T460 110T594 94Q676 94 741 120T856 187T939 270T993 348V1366H1102V0H995V219Q972 182 934 143T840 73T713 21T553 0Q379 0 279 90T178 369ZM467 1526L795 1691L850 1581L500 1450L467 1526Z"/><glyph unicode="" horiz-adv-x="1280" d="M178 369V1366H289V401Q289 313 308 254T365 160T460 110T594 94Q676 94 741 120T856 187T939 270T993 348V1366H1102V0H995V219Q972 182 934 143T840 73T713 21T553 0Q379 0 279 90T178 369ZM434 1577L487 1689L815 1522L782 1446L434 1577Z"/><glyph unicode="" horiz-adv-x="1280" d="M178 369V1366H289V401Q289 313 308 254T365 160T460 110T594 94Q676 94 741 120T856 187T939 270T993 348V1366H1102V0H995V219Q972 182 934 143T840 73T713 21T553 0Q379 0 279 90T178 369ZM387 1519L625 1687L863 1519L815 1460L625 1560L435 1460L387 1519Z"/><glyph unicode="" horiz-adv-x="1280" d="M178 369V1366H289V401Q289 313 308 254T365 160T460 110T594 94Q676 94 741 120T856 187T939 270T993 348V1366H1102V0H995V219Q972 182 934 143T840 73T713 21T553 0Q379 0 279 90T178 369ZM403 1560Q403 1593 428 1616T483 1640Q524 1640 546 1617T569 1560Q569 1525 546 1501T485 1476Q454 1476 429 1500T403 1560ZM713 1560Q713 1593 736 1616T795 1640Q834 1640 859 1617T885 1560Q885 1525 859 1501T797 1476Q762 1476 738 1501T713 1560Z"/><glyph unicode="" horiz-adv-x="1280" d="M178 369V1366H289V401Q289 313 308 254T365 160T460 110T594 94Q676 94 741 120T856 187T939 270T993 348V1366H1102V0H995V219Q972 182 934 143T840 73T713 21T553 0Q379 0 279 90T178 369ZM336 1522V1616H948V1522H336Z"/><glyph unicode="" horiz-adv-x="1280" d="M178 369V1366H289V401Q289 313 308 254T365 160T460 110T594 94Q676 94 741 120T856 187T939 270T993 348V1366H1102V0H995V219Q972 182 934 143T840 73T713 21T553 0Q379 0 279 90T178 369ZM485 1583Q485 1651 530 1697T643 1743Q713 1743 755 1695T797 1587Q797 1517 753 1473T643 1429Q575 1429 530 1473T485 1583ZM563 1585Q563 1550 582 1526T643 1501Q682 1501 702 1525T723 1585Q723 1624 702 1646T643 1669Q606 1669 585 1645T563 1585Z"/><glyph unicode="" horiz-adv-x="1280" d="M178 369V1366H289V401Q289 313 308 254T365 160T460 110T594 94Q676 94 741 120T856 187T939 270T993 348V1366H1102V0H995V219Q972 182 934 143T840 73T713 21T553 0Q379 0 279 90T178 369ZM402 1522L701 1747L762 1651L449 1454L402 1522ZM709 1522L1008 1747L1069 1651L756 1454L709 1522Z"/><glyph unicode="" horiz-adv-x="1280" d="M178 369V1366H289V401Q289 313 308 254T365 160T460 110T594 94Q676 94 741 120T856 187T939 270T993 348V1366H1102V0Q1057 -31 1020 -64T983 -145Q983 -174 1004 -198T1083 -223Q1116 -223 1137 -220T1174 -215L1194 -270Q1161 -284 1130 -292T1059 -301Q955 -301 915 -262T874 -168Q874 -111 908 -70T995 0V219Q972 182 934 143T840 73T713 21T553 0Q379 0 279 90T178 369Z"/><glyph unicode="" horiz-adv-x="1280" d="M178 369V1366H289V401Q289 313 308 254T365 160T460 110T594 94Q676 94 741 120T856 187T939 270T993 348V1366H1102V0H995V219Q972 182 934 143T840 73T713 21T553 0Q379 0 279 90T178 369ZM350 1710H445Q470 1560 633 1560Q721 1560 767 1597T825 1710H916Q900 1599 833 1536T633 1472Q502 1472 435 1535T350 1710Z"/><glyph unicode="" horiz-adv-x="1280" d="M178 369V1366H289V401Q289 313 308 254T365 160T460 110T594 94Q676 94 741 120T856 187T939 270T993 348V1366H1102V0H995V219Q972 182 934 143T840 73T713 21T553 0Q379 0 279 90T178 369ZM316 1532Q357 1593 410 1623T512 1653Q561 1653 594 1641T654 1615T709 1589T772 1577Q811 1577 839 1592T889 1630L952 1571Q870 1483 778 1483Q731 1483 698 1495T635 1520T578 1546T514 1558Q467 1558 441 1538T385 1487L316 1532Z"/><glyph unicode="" horiz-adv-x="2033" d="M55 346Q55 452 94 534T203 674T375 770T602 825Q633 829 672 832T754 838T841 841T924 842V969Q924 1043 907 1103T848 1206T741 1272T573 1296Q485 1296 421 1272T312 1206T243 1109T205 989L100 1010Q129 1186 256 1289T586 1393Q779 1393 881 1317T1012 1098Q1080 1241 1193 1317T1452 1393Q1577 1393 1669 1344T1822 1206T1918 996T1960 731Q1962 708 1962 701T1962 674H1028Q1028 531 1060 418T1149 229T1285 111T1458 70Q1732 70 1843 403L1944 383Q1891 182 1757 78T1444 -27Q1376 -27 1310 -8T1184 53T1075 154T991 299Q954 233 908 176T801 76T659 9T473 -16Q381 -16 304 7T172 76T86 188T55 346ZM166 362Q166 288 189 235T254 147T351 94T473 76Q637 76 757 159T924 375V745Q883 745 839 743T753 739T673 733T604 725Q399 696 283 606T166 362ZM1030 770H1847Q1837 883 1809 978T1731 1143T1612 1254T1452 1294Q1360 1294 1287 1257T1160 1150T1073 984T1030 770Z"/><glyph unicode="" horiz-adv-x="2033" d="M55 346Q55 452 94 534T203 674T375 770T602 825Q633 829 672 832T754 838T841 841T924 842V969Q924 1043 907 1103T848 1206T741 1272T573 1296Q485 1296 421 1272T312 1206T243 1109T205 989L100 1010Q129 1186 256 1289T586 1393Q779 1393 881 1317T1012 1098Q1080 1241 1193 1317T1452 1393Q1577 1393 1669 1344T1822 1206T1918 996T1960 731Q1962 708 1962 701T1962 674H1028Q1028 531 1060 418T1149 229T1285 111T1458 70Q1732 70 1843 403L1944 383Q1891 182 1757 78T1444 -27Q1376 -27 1310 -8T1184 53T1075 154T991 299Q954 233 908 176T801 76T659 9T473 -16Q381 -16 304 7T172 76T86 188T55 346ZM166 362Q166 288 189 235T254 147T351 94T473 76Q637 76 757 159T924 375V745Q883 745 839 743T753 739T673 733T604 725Q399 696 283 606T166 362ZM874 1526L1202 1691L1257 1581L907 1450L874 1526ZM1030 770H1847Q1837 883 1809 978T1731 1143T1612 1254T1452 1294Q1360 1294 1287 1257T1160 1150T1073 984T1030 770Z"/><glyph unicode="" horiz-adv-x="2170" d="M90 680Q90 846 131 978T243 1202T414 1343T629 1393Q799 1393 925 1292T1112 1008Q1173 1194 1298 1293T1589 1393Q1714 1393 1806 1344T1959 1206T2055 996T2097 731Q2099 708 2099 701T2099 674H1165Q1165 531 1197 418T1286 229T1422 111T1595 70Q1869 70 1980 403L2081 383Q2028 182 1894 78T1581 -27Q1509 -27 1438 -5T1304 65T1190 184T1106 352Q1043 178 918 78T625 -23Q508 -23 410 24T241 163T130 384T90 680ZM201 682Q201 528 233 414T323 221T459 105T627 66Q725 66 805 110T941 233T1028 427T1059 680Q1059 823 1032 937T949 1130T812 1252T627 1294Q523 1294 444 1250T311 1125T229 932T201 682ZM1167 770H1985Q1975 883 1946 978T1868 1143T1749 1254T1589 1294Q1497 1294 1425 1257T1298 1150T1211 984T1167 770Z"/><glyph unicode="" horiz-adv-x="999" d="M-18 930V1008H166V1112Q166 1262 248 1330T469 1399Q477 1399 493 1398T527 1395T560 1391T586 1386V1294Q555 1298 511 1302T449 1307Q353 1307 309 1259T264 1116V1008H512V930H264V0H166V930H-18ZM428 -283Q463 -287 496 -288T575 -289Q628 -289 660 -270T707 -214T727 -130T731 -23V1008H831V-66Q831 -152 812 -211T758 -306T674 -358T563 -375Q534 -375 499 -371T428 -360V-283ZM719 1214V1356H842V1214H719Z"/><glyph unicode="" horiz-adv-x="1161" d="M-18 930V1008H166V1112Q166 1262 248 1330T469 1399Q477 1399 493 1398T527 1395T560 1391T586 1386V1294Q555 1298 511 1302T449 1307Q353 1307 309 1259T264 1116V1008H733L737 1251H829V1008H1063V930H829V236Q829 146 870 109T979 72Q1014 72 1062 76T1135 86V6Q1094 -4 1051 -7T967 -10Q912 -10 868 3T793 48T747 133T731 264V930H264V0H166V930H-18Z"/><glyph unicode="" horiz-adv-x="1208" d="M90 659Q90 833 130 970T241 1201T411 1343T627 1393Q752 1393 844 1344T997 1206T1092 996T1135 731Q1137 708 1137 701T1137 674H203Q203 531 234 418T323 229T460 111T633 70Q907 70 1018 403L1118 383Q1065 182 931 78T618 -27Q522 -27 427 15T257 141T136 354T90 659ZM205 770H1022Q1012 883 983 978T905 1143T787 1254T627 1294Q535 1294 462 1257T335 1150T248 984T205 770ZM346 1710H441Q466 1560 629 1560Q717 1560 763 1597T821 1710H912Q896 1599 829 1536T629 1472Q498 1472 431 1535T346 1710Z"/><glyph unicode="" horiz-adv-x="487" d="M125 -504L240 -252H164V-84H317V-252L199 -504H125Z"/><glyph unicode="" horiz-adv-x="1193" d="M268 0V88H580V1192Q564 1167 543 1139T489 1075T404 999T276 913V1030Q387 1093 462 1181T604 1393H684V88H991V0H268Z"/><glyph unicode="ﬀ" horiz-adv-x="987" d="M-18 930V1008H166V1112Q166 1262 248 1330T469 1399Q477 1399 493 1398T527 1395T560 1391T586 1386V1294Q555 1298 511 1302T449 1307Q353 1307 309 1259T264 1116V1008H657V1112Q657 1262 739 1330T961 1399Q969 1399 985 1398T1018 1395T1051 1391T1077 1386V1294Q1046 1298 1002 1302T940 1307Q844 1307 800 1259T756 1116V1008H1004V930H756V0H657V930H264V0H166V930H-18Z"/><glyph unicode="ﬁ" horiz-adv-x="917" d="M-18 930V1008H166V1112Q166 1262 248 1330T469 1399Q477 1399 493 1398T527 1395T560 1391T586 1386V1294Q555 1298 511 1302T449 1307Q353 1307 309 1259T264 1116V1008H553V930H264V0H166V930H-18ZM645 1214V1356H764V1214H645ZM657 0V1008H756V0H657Z"/><glyph unicode="ﬂ" horiz-adv-x="925" d="M-18 930V1008H166V1112Q166 1262 248 1330T469 1399Q477 1399 493 1398T527 1395T560 1391T586 1386V1294Q555 1298 511 1302T449 1307Q353 1307 309 1259T264 1116V1008H553V930H264V0H166V930H-18ZM657 0V1366H756V0H657Z"/><glyph unicode="ﬃ" horiz-adv-x="1409" d="M-18 930V1008H166V1112Q166 1262 248 1330T469 1399Q477 1399 493 1398T527 1395T560 1391T586 1386V1294Q555 1298 511 1302T449 1307Q353 1307 309 1259T264 1116V1008H657V1112Q657 1262 739 1330T961 1399Q969 1399 985 1398T1018 1395T1051 1391T1077 1386V1294Q1046 1298 1002 1302T940 1307Q844 1307 800 1259T756 1116V1008H1004V930H756V0H657V930H264V0H166V930H-18ZM1137 1214V1356H1255V1214H1137ZM1149 0V1008H1247V0H1149Z"/><glyph unicode="ﬄ" horiz-adv-x="1417" d="M-18 930V1008H166V1112Q166 1262 248 1330T469 1399Q477 1399 493 1398T527 1395T560 1391T586 1386V1294Q555 1298 511 1302T449 1307Q353 1307 309 1259T264 1116V1008H657V1112Q657 1262 739 1330T961 1399Q969 1399 985 1398T1018 1395T1051 1391T1077 1386V1294Q1046 1298 1002 1302T940 1307Q844 1307 800 1259T756 1116V1008H1004V930H756V0H657V930H264V0H166V930H-18ZM1149 0V1366H1247V0H1149Z"/><glyph unicode="ﬔ" horiz-adv-x="1941" d="M27 1272V1366H1110V776Q1130 815 1166 859T1252 940T1366 1001T1503 1026Q1583 1026 1635 1004T1720 941T1766 846T1780 727V0H1681V727Q1681 934 1497 934Q1374 934 1284 872T1116 698V0H1018V1272H543V0H432V1272H27Z"/></font>
</defs>
</svg>
