<?xml version="1.0" encoding="UTF-8"?><svg xmlns="http://www.w3.org/2000/svg" width="100%" height="100%"><defs><font id="web" horiz-adv-x="1056"><!--



NOTICE: This font software is the valuable property 
of Webtype LLC, The Font Bureau, Webtype and/or its 
suppliers and its use by you is covered under the terms 
of the Web Font license agreement between you and Webtype 
LLC. You may ONLY use this font software with the licensed 
web site. Except as specifically permitted by the license, 
you may not copy this font software. If you have any 
questions, please contact Webtype.com. 

For more information, please visit http://www.webtype.com/store/license/?id=23

Licensed to: projects.dev

Serial number: SH-1198
--><font-face font-family="" units-per-em="2048" panose-1="2 0 5 6 8 0 0 2 0 3" ascent="1876" descent="-529" alphabetic="0"/><missing-glyph horiz-adv-x="1024"/><glyph unicode="&#13;" horiz-adv-x="0"/><glyph unicode=" " horiz-adv-x="446"/><glyph unicode="!" horiz-adv-x="483" d="M117 104Q117 155 153 192T242 229Q293 229 330 192T367 104Q367 53 330 17T242 -20Q191 -20 154 16T117 104ZM123 1221T123 1296Q123 1355 152 1399T242 1444Q303 1444 331 1400T360 1296Q360 1220 344 1139T308 965T271 770T254 551V383H229V551Q229 666 213 768T177 962T140 1138Z"/><glyph unicode="&quot;" horiz-adv-x="675" d="M109 1362Q109 1403 134 1425T195 1448Q232 1448 257 1427T283 1362Q283 1350 274 1306T251 1204T224 1081T201 965H190Q182 1014 168 1078T141 1202T118 1306T109 1362ZM391 1362Q391 1403 416 1425T477 1448Q514 1448 539 1427T565 1362Q565 1350 556 1306T534 1204T506 1081T483 965H473Q465 1014 451 1078T423 1202T401 1306T391 1362Z"/><glyph unicode="#" horiz-adv-x="1144" d="M88 375L133 508H362L432 748H182L225 883H471L580 1264H623L514 883H782L891 1264H934L825 883H1063L1018 748H786L717 508H969L924 375H680L573 0H530L637 375H369L262 0H219L326 375H88ZM406 508H676L745 748H473L406 508Z"/><glyph unicode="$" horiz-adv-x="995" d="M78 246Q78 295 110 331T197 367Q250 367 274 331T299 254Q299 225 286 203T250 166T199 150T141 158L135 150Q143 130 166 108T224 68T301 36T393 16V657Q370 667 343 678T293 702Q213 747 154 825T94 1026Q94 1092 114 1151T174 1259T268 1343T393 1397V1499H426V1405Q449 1409 483 1411T553 1413V1499H586V1411Q635 1407 686 1390T777 1344T842 1277T868 1194Q868 1135 837 1106T762 1077Q715 1077 685 1106T655 1188Q655 1215 668 1235T703 1267T751 1281T803 1270L809 1278Q780 1325 718 1355T586 1395V784Q609 776 634 766T682 745Q727 722 767 692T837 622T885 532T903 418Q903 352 882 288T820 169T721 73T586 10V-129H553V4Q528 0 490 -3T426 -4V-129H393V-2Q330 4 273 23T172 74T104 149T78 246ZM231 1122Q231 1036 269 967T393 856V1376Q309 1349 270 1280T231 1122ZM426 14Q455 12 491 14T553 23V604Q528 614 492 624T426 645V14ZM426 842Q451 832 487 820T553 797V1397Q526 1399 488 1395T426 1386V842ZM586 31Q676 54 723 134T770 315Q770 417 725 489T586 592V31Z"/><glyph unicode="%" horiz-adv-x="1515" d="M61 1018Q61 1098 81 1174T140 1311T235 1410T367 1448Q443 1448 499 1409T594 1309T652 1171T672 1018Q672 938 652 861T593 724T498 626T367 588Q293 588 236 626T139 725T81 863T61 1018ZM221 1018Q221 957 224 885T241 750T284 644T367 602Q418 602 447 644T491 749T509 885T512 1018Q512 1077 509 1150T493 1285T450 1391T367 1434Q314 1434 285 1392T242 1288T224 1152T221 1018ZM334 0L1116 1419H1178L395 0H334ZM844 408Q844 488 864 564T923 701T1018 800T1149 838Q1225 838 1281 799T1376 699T1434 561T1454 408Q1454 328 1434 251T1375 114T1280 15T1149 -23Q1075 -23 1018 15T922 114T864 253T844 408ZM1004 408Q1004 347 1007 275T1024 140T1067 34T1149 -8Q1200 -8 1230 34T1274 139T1291 275T1294 408Q1294 467 1291 539T1275 674T1232 780T1149 823Q1096 823 1067 781T1024 677T1007 542T1004 408Z"/><glyph unicode="&amp;" horiz-adv-x="1226" d="M47 360Q47 448 70 515T136 635T236 731T362 817Q321 878 295 924T252 1007T229 1076T221 1139Q221 1184 239 1237T297 1337T398 1416T551 1448Q602 1448 655 1435T751 1391T819 1310T846 1188Q846 1118 817 1068T744 981T647 918T545 872L903 293Q938 350 959 418T994 552T1013 673T1018 758Q1018 772 1012 785T983 799L868 801V819Q899 819 920 819T961 818T1002 817T1055 817Q1088 817 1107 817T1142 818T1178 819T1231 819V801L1122 799Q1099 799 1093 786T1087 758Q1085 729 1076 676T1048 556T996 416T915 272L1057 51Q1077 20 1124 20L1219 18V0Q1176 0 1134 1T1049 2Q1002 2 957 1T864 0L788 123Q725 55 643 13T451 -29Q365 -29 290 -2T162 75T78 196T47 360ZM233 506Q233 402 256 316T319 169T415 75T537 41Q684 41 774 143L371 797Q301 756 267 677T233 506ZM381 1229Q381 1176 415 1098T535 891Q592 914 623 945T670 1014T690 1090T694 1169Q694 1294 660 1363T539 1432Q455 1432 418 1374T381 1229Z"/><glyph unicode="'" horiz-adv-x="393" d="M109 1362Q109 1403 134 1425T195 1448Q232 1448 257 1427T283 1362Q283 1350 274 1306T251 1204T224 1081T201 965H190Q182 1014 168 1078T141 1202T118 1306T109 1362Z"/><glyph unicode="(" horiz-adv-x="610" d="M66 479Q66 686 121 847T251 1126T403 1325T524 1448L539 1438Q496 1383 445 1308T349 1122T277 853T248 479Q248 260 277 105T351 -162T446 -349T541 -479L524 -489Q481 -446 404 -367T251 -168T121 111T66 479Z"/><glyph unicode=")" horiz-adv-x="610" d="M70 1438L86 1448Q129 1405 207 1325T359 1127T489 847T545 479Q545 272 490 112T360 -168T207 -366T86 -489L72 -479Q115 -424 166 -349T261 -163T333 104T362 479Q362 696 333 853T259 1121T164 1307T70 1438Z"/><glyph unicode="*" horiz-adv-x="565" d="M41 1083Q41 1116 61 1137T111 1159Q127 1159 143 1151T170 1126L268 1182L174 1235Q164 1219 147 1213T113 1206Q78 1206 61 1228T43 1280Q43 1307 62 1328T117 1350Q146 1350 167 1331T188 1280Q188 1274 186 1264T180 1245L272 1194V1305Q243 1309 226 1328T209 1376Q209 1407 230 1427T281 1448Q312 1448 333 1428T354 1376Q354 1347 336 1328T287 1305V1194L381 1249Q377 1255 376 1264T375 1280Q375 1311 397 1330T446 1350Q481 1350 500 1329T520 1280Q520 1251 502 1229T449 1206Q433 1206 416 1212T387 1235L291 1182L391 1126Q401 1142 417 1150T451 1159Q480 1159 501 1138T522 1083Q522 1052 501 1032T449 1012Q416 1012 397 1035T377 1083Q377 1101 383 1114L287 1169V1061Q318 1057 336 1037T354 989Q354 958 333 937T281 915Q252 915 231 936T209 989Q209 1016 226 1036T272 1061V1169L178 1114Q184 1102 184 1083Q184 1058 166 1035T113 1012Q82 1012 62 1032T41 1083Z"/><glyph unicode="+" horiz-adv-x="1024" d="M90 639V752H457V1116H565V752H934V639H565V272H457V639H90Z"/><glyph unicode="," horiz-adv-x="434" d="M72 -297Q193 -264 261 -166T330 61L319 63Q296 22 269 8T207 -6Q154 -6 121 25T88 113Q88 164 123 198T213 233Q279 233 318 186T358 47Q358 -14 340 -72T286 -180T199 -265T80 -315L72 -297Z"/><glyph unicode="-" horiz-adv-x="638" d="M90 465V608H549V465H90Z"/><glyph unicode="." horiz-adv-x="434" d="M92 104Q92 155 129 192T217 229Q268 229 305 192T342 104Q342 53 305 17T217 -20Q166 -20 129 16T92 104Z"/><glyph unicode="/" horiz-adv-x="651" d="M-121 -430L553 1448H627L-47 -430H-121Z"/><glyph unicode="0" horiz-adv-x="1060" d="M63 711Q63 820 86 929T147 1133Q202 1270 295 1356T530 1442Q651 1442 739 1375T884 1202T969 966T997 711Q997 572 964 438T864 199Q805 103 723 44T530 -16Q409 -16 323 48T178 217T91 452T63 711ZM301 561Q301 516 304 457T315 335T339 213T380 107T442 31T530 2Q618 2 666 78T737 270Q753 358 756 455T760 645Q760 661 761 678T762 711Q762 727 761 741T760 772Q760 874 753 989T722 1201T653 1361T530 1425Q487 1425 454 1404T395 1346T352 1259T324 1151Q308 1061 305 962T301 770Q301 754 302 740T303 711Q303 705 303 687T302 646T301 601T301 561Z"/><glyph unicode="1" horiz-adv-x="694" d="M39 1284Q186 1325 294 1363T457 1436H483V98Q483 65 498 45T557 25L678 18V0Q647 0 606 0T523 1T440 2T369 2Q303 2 213 1T57 0V18L199 25Q228 25 247 48T266 98V1278Q266 1301 260 1306T231 1305L43 1268L39 1284Z"/><glyph unicode="2" horiz-adv-x="919" d="M51 0V113Q127 183 224 274T414 467Q512 578 554 704T596 1006Q596 1082 586 1152T543 1278Q514 1327 465 1358T354 1389Q297 1389 251 1368T172 1311T122 1232T104 1143Q104 1118 108 1090T119 1040H129Q135 1087 169 1112T238 1137Q285 1137 318 1105T352 1022Q352 975 320 940T227 905Q190 905 163 923T116 974T87 1046T78 1130Q78 1181 97 1235T163 1336T283 1412T467 1442Q547 1442 619 1420T745 1350Q798 1301 826 1229T854 1079Q854 983 821 899T735 737T611 587T463 444Q428 411 388 376T311 307Q291 291 271 272T229 236Q211 220 196 208T162 180H788Q823 180 836 193T854 238L872 377H895L866 0H51Z"/><glyph unicode="3" horiz-adv-x="923" d="M29 256Q29 303 61 339T147 375Q200 375 225 340T250 262Q250 237 240 216T210 180T163 159T100 164L92 158Q98 135 118 110T173 63T255 27T365 12Q451 12 506 46T593 133T637 254T649 387Q649 553 575 652T354 752Q331 752 300 739T242 725Q226 725 205 735T184 760Q184 780 202 788T242 797Q267 797 299 786T356 774Q479 774 536 866T594 1135Q594 1190 588 1241T563 1333T507 1398T410 1423Q369 1423 324 1412T240 1382T171 1337T131 1282L141 1278Q157 1290 178 1295T215 1300Q248 1300 280 1276T313 1204Q313 1157 285 1127T205 1096Q160 1096 126 1126T92 1217Q92 1270 123 1311T202 1380T308 1424T422 1440Q508 1440 582 1420T712 1358T798 1258T829 1122Q829 1050 797 990T713 885T603 811T492 770Q566 760 637 735T764 664T854 554T889 401Q889 313 853 238T751 107T590 21T381 -10Q297 -10 232 11T121 69T53 154T29 256Z"/><glyph unicode="4" horiz-adv-x="1040" d="M12 420V440Q149 635 301 817T594 1178L606 1200L770 1432H817V446H883Q944 446 966 473T989 514L991 600H1010Q1010 569 1010 551T1009 515T1008 480T1008 430Q1008 397 1008 380T1009 348T1010 317T1010 266H991L989 352Q989 393 963 406T883 420H817V61Q817 47 823 34T852 20L999 18V0Q968 0 929 0T846 -1T763 -2T692 -2Q626 -2 552 -1T412 0V18L559 20Q582 20 588 33T594 61V420H12ZM47 446H594L600 1149Q559 1088 498 1012T363 849T208 661T47 446Z"/><glyph unicode="5" horiz-adv-x="948" d="M63 258Q67 303 82 329T118 369T159 388T197 393Q222 395 243 385T279 359T304 322T313 281V279Q315 275 315 268T315 254Q315 207 282 170T195 133Q168 133 145 141L133 150Q133 121 156 95T214 46T285 9T350 -8Q362 -8 375 -9T406 -10Q484 -8 532 39T605 153T640 295T649 424Q649 475 641 545T610 680T546 791T442 840Q432 842 427 842T412 842Q355 844 289 820T176 752L162 760L172 944L182 1108L188 1255L199 1417L313 1415L444 1417L584 1419Q633 1421 658 1419T700 1417Q737 1417 758 1424T792 1444T810 1470T821 1499L838 1493L795 1327Q758 1180 627 1180L504 1184L434 1180L213 1188L201 1051L190 844L195 797Q213 807 233 818T282 839T350 857T449 866Q500 866 556 854T664 817T763 751T840 655Q850 628 862 601T885 543L897 481Q899 467 899 454T895 418Q899 330 862 249T758 107T597 9T397 -27Q305 -29 226 8T100 117L88 135Q63 186 63 258Z"/><glyph unicode="6" horiz-adv-x="1019" d="M49 573Q49 741 96 879Q125 965 175 1033T281 1161Q398 1284 550 1357T885 1444L889 1427Q846 1423 801 1411T709 1376Q633 1339 559 1274T427 1120T330 926T283 702Q295 739 320 776T383 842T467 890T573 909Q667 909 742 874T870 776Q923 715 953 633T983 461Q983 352 944 263T840 109Q774 43 691 8T516 -27Q403 -27 314 27T166 172Q113 250 80 356Q49 460 49 573ZM283 518Q283 444 291 353T324 180Q349 100 397 45T524 -10Q592 -10 635 26T702 123Q731 193 740 280T750 449Q750 521 742 599T709 743Q686 804 644 840T537 877Q508 877 463 857T381 801Q346 766 322 725T293 645Q289 620 286 587T283 518Z"/><glyph unicode="7" horiz-adv-x="925" d="M68 1042L106 1419H924V1389Q918 1358 912 1337T900 1299T888 1269T870 1237Q845 1196 806 1139T700 979Q606 832 559 707T512 455Q512 396 519 349T533 262T548 190T555 121Q555 60 525 22T434 -16Q368 -16 330 25T291 188Q291 264 319 353T394 538T499 732T621 921T743 1095T850 1239H201Q129 1239 111 1149L88 1042H68Z"/><glyph unicode="8" horiz-adv-x="1009" d="M43 381Q43 469 84 534T182 646T302 717T408 754Q365 764 310 787T206 851T124 950T90 1094Q90 1170 124 1234T215 1345T347 1420T506 1448Q590 1448 665 1421T797 1346T887 1234T920 1094Q920 1010 885 951T801 850T697 786T602 754Q647 744 709 718T829 646T927 535T967 381Q967 295 928 221T825 94T677 12T506 -18Q414 -18 330 11T183 94T81 221T43 381ZM279 379Q279 326 288 276T309 180Q338 84 395 39Q418 23 445 11T506 -2Q576 -2 621 37T690 141Q710 192 721 252T733 379Q733 416 727 452T713 524Q707 555 696 582T672 635Q649 678 618 705Q571 746 506 745Q477 745 456 734T412 707Q392 693 373 676T340 635Q311 584 295 518T279 379ZM322 1096Q322 1061 328 1029T338 969Q344 930 353 896T379 836Q402 801 432 781T506 760Q563 760 604 797Q627 820 642 851T668 922Q678 961 685 1005T692 1096Q692 1125 688 1153T680 1210Q676 1226 672 1243T664 1276Q658 1299 651 1320T633 1358Q610 1393 580 1413T506 1434Q465 1434 436 1415T383 1362Q367 1335 356 1303T338 1233Q332 1200 327 1165T322 1096Z"/><glyph unicode="9" horiz-adv-x="989" d="M31 961Q31 1059 66 1147Q80 1182 99 1209T141 1266Q166 1297 192 1326T252 1376Q305 1411 367 1429T496 1448Q605 1448 690 1397T836 1261T930 1069T963 848Q963 711 926 592T821 375Q786 328 749 288T666 209Q627 176 586 146T500 90Q414 45 321 16T127 -27L123 -10Q244 17 349 76T537 227Q615 315 663 427T719 672Q664 580 584 544T422 508Q332 508 259 545T136 645T59 789T31 961ZM268 973Q268 938 270 900T276 825Q282 778 293 734T324 653Q338 624 353 603T393 565Q432 542 485 543Q536 543 578 564T650 619T697 694T719 774Q721 786 725 800T731 831Q733 847 731 866T729 903Q729 954 727 1007T717 1114Q707 1186 689 1247T637 1354Q586 1432 498 1432Q441 1432 402 1406T336 1335Q313 1296 300 1247T279 1145Q273 1102 271 1058T268 973Z"/><glyph unicode=":" horiz-adv-x="462" d="M106 104Q106 155 143 192T231 229Q282 229 319 192T356 104Q356 53 320 17T231 -20Q180 -20 143 16T106 104ZM106 694Q106 745 143 782T231 819Q282 819 319 782T356 694Q356 643 320 606T231 569Q180 569 143 606T106 694Z"/><glyph unicode=";" horiz-adv-x="462" d="M86 -297Q207 -264 275 -166T344 61L334 63Q311 22 284 8T221 -6Q168 -6 135 25T102 113Q102 164 137 198T227 233Q293 233 333 186T373 47Q373 -14 355 -72T300 -180T213 -265T94 -315L86 -297ZM106 694Q106 745 143 782T231 819Q282 819 319 782T356 694Q356 643 320 606T231 569Q180 569 143 606T106 694Z"/><glyph unicode="&lt;" horiz-adv-x="1024" d="M133 627V735L967 1073V1028L324 682L967 338V289L133 627Z"/><glyph unicode="=" horiz-adv-x="1024" d="M100 487V600H924V487H100ZM100 797V909H924V797H100Z"/><glyph unicode="&gt;" horiz-adv-x="1024" d="M57 289V338L700 682L57 1028V1073L891 735V627L57 289Z"/><glyph unicode="?" horiz-adv-x="735" d="M57 1223Q57 1268 80 1308T145 1378T241 1426T360 1444Q501 1444 590 1361T680 1130Q680 1067 661 1010T610 902T537 810T453 735Q361 665 317 614T272 502Q272 486 276 458T283 406H264Q248 459 242 527T236 641Q236 719 281 789T387 922Q414 949 444 977T500 1040T542 1117T559 1212Q559 1302 503 1362T340 1423Q279 1423 217 1395T127 1329L133 1317Q172 1321 198 1313T240 1290T262 1254T268 1214Q268 1173 239 1144T164 1114Q119 1114 88 1144T57 1223ZM172 104Q172 155 209 192T297 229Q348 229 385 192T422 104Q422 53 385 17T297 -20Q246 -20 209 16T172 104Z"/><glyph unicode="@" horiz-adv-x="1884" d="M193 377Q193 588 275 772T528 1104Q651 1210 793 1261T1096 1313Q1227 1313 1340 1271T1537 1150T1667 960T1714 711Q1714 584 1676 465T1574 253T1425 105T1249 49Q1161 49 1103 81T1028 211Q971 143 913 105T782 66Q729 66 691 84T630 134T595 209T584 301Q584 405 616 517T708 721T851 873T1032 934Q1100 934 1137 900T1202 809L1223 911H1280L1393 926L1198 264Q1192 241 1187 210T1182 162Q1182 121 1203 99T1257 76Q1290 76 1330 85T1409 127Q1524 219 1591 377T1659 715Q1659 828 1622 925T1513 1098Q1445 1170 1339 1210T1110 1251Q803 1251 580 1034Q514 971 464 891T380 722T330 539T313 350Q313 215 354 110T481 -86Q571 -178 689 -228T956 -279Q1095 -279 1228 -234T1497 -74L1509 -90Q1386 -207 1242 -271T942 -336Q618 -336 418 -158Q193 43 193 377ZM745 256Q745 125 836 125Q871 125 900 137T954 167T998 204T1032 244L1192 772Q1178 815 1149 852T1051 889Q1004 889 965 851T883 737Q854 688 830 626T787 499T757 371T745 256Z"/><glyph unicode="A" horiz-adv-x="1316" d="M6 0V18L86 29Q96 31 112 38T148 64T189 118T231 207L326 436L373 563L578 1145L670 1436H707L741 1343L782 1225Q831 1086 872 969Q890 920 908 870T941 777T967 705T985 662Q991 639 1002 606T1024 545Q1036 510 1053 475L1204 55Q1214 20 1249 20L1335 18V0Q1278 0 1215 1T1094 2L799 0V18L930 27Q946 27 951 37T952 61L838 403L807 489H375L354 430L276 209Q253 150 246 114T243 59T267 33T322 25L406 18V0L201 2Q162 2 104 1T6 0ZM385 514L801 512L764 608L680 846Q674 866 661 903T634 980T610 1055T592 1108L399 555L385 514Z"/><glyph unicode="B" horiz-adv-x="1200" d="M39 0V18L184 20Q207 20 213 33T219 61L225 252V705L227 741V764L225 795L227 1145L225 1358Q225 1372 219 1385T190 1399L39 1401V1419Q105 1419 183 1420T328 1421Q400 1421 486 1422T647 1423Q698 1423 751 1420T854 1401Q952 1372 1010 1295T1069 1094Q1069 1022 1050 967T977 868Q928 829 866 803Q837 791 796 777T719 758L713 752Q791 748 864 731T999 678Q1077 633 1122 556T1167 385Q1167 276 1126 203T1017 84T855 20T657 0L328 2Q262 2 183 1T39 0ZM449 733L453 467L457 279V66Q457 52 463 39T492 25L627 20Q717 20 772 56T857 146T897 264T907 383Q907 475 889 540T826 649T711 712T532 733H449ZM449 754H535Q625 754 682 772T772 832T817 942T829 1106Q829 1270 759 1334T526 1399H492Q469 1399 462 1386T455 1358V1004L453 928L449 754Z"/><glyph unicode="C" horiz-adv-x="1230" d="M74 688Q74 703 74 717Q74 835 102 954Q134 1087 209 1193T402 1368T686 1442Q696 1442 706 1442Q772 1442 826 1430Q888 1416 935 1400T1021 1371Q1054 1360 1083 1360Q1087 1360 1092 1360Q1115 1360 1128 1387T1147 1430H1159L1155 1329L1163 1047L1143 1042Q1133 1089 1117 1129T1083 1204Q1020 1317 915 1370Q822 1423 692 1423Q687 1423 682 1423Q616 1421 563 1398T475 1333Q432 1288 410 1228T371 1098Q361 1059 355 1010T342 895Q342 854 340 806Q339 790 340 773Q340 738 342 698Q346 645 347 597T354 508Q364 436 375 384T395 301Q418 223 456 160T553 55Q590 30 636 15Q672 3 717 3Q729 3 741 4Q821 8 885 29T999 84Q1083 133 1125 217T1180 395H1198L1196 217L1210 33H1194Q1190 43 1177 59T1141 74Q1110 74 1074 61T991 31T884 0T743 -16Q727 -17 712 -17Q560 -17 448 37Q324 96 242 197T119 427T74 688Z"/><glyph unicode="D" horiz-adv-x="1437" d="M39 0V18L184 20Q207 20 213 33T219 61L221 162L225 262V461L227 561V760L225 858V1059L223 1159L221 1257L219 1358Q219 1372 213 1385T184 1399L39 1401V1417Q94 1417 168 1416T319 1415Q389 1415 451 1417T590 1419Q633 1419 701 1418T829 1411Q856 1407 879 1401T928 1386Q975 1366 1019 1344T1106 1286Q1143 1257 1176 1220T1241 1137Q1270 1094 1291 1043T1329 938Q1343 891 1350 827Q1354 798 1357 769T1360 709Q1360 678 1358 648T1352 590Q1340 486 1292 377Q1280 352 1268 329T1239 283Q1182 195 1104 133Q1084 117 1063 104T1020 76Q975 51 928 35T825 8Q813 6 783 4T714 1T634 0T557 0Q498 0 438 1T319 2Q274 2 237 1T152 0H39ZM457 557L459 358L463 162V61Q463 47 469 34T500 20H707Q738 20 765 24T819 35Q870 47 909 72Q932 84 947 100T979 135Q995 153 1006 174T1030 217Q1048 264 1061 317Q1067 350 1074 383T1085 451Q1095 498 1098 559Q1100 592 1101 629T1102 709Q1102 750 1101 784T1098 850Q1094 899 1091 947T1073 1044Q1067 1081 1059 1104Q1047 1149 1028 1195T977 1282Q961 1300 946 1316T907 1346Q827 1397 709 1399H578H500Q475 1399 469 1386T463 1358V1257L459 1159L457 958V862V659V557Z"/><glyph unicode="E" horiz-adv-x="1181" d="M39 0V18L190 20Q213 20 219 33T225 61V260L227 461V657L225 860L227 1057V1260L225 1358Q225 1372 219 1385T190 1399L39 1401V1419Q143 1419 263 1418T500 1417Q580 1417 725 1418T1102 1419Q1104 1370 1104 1321T1106 1223Q1108 1174 1110 1122Q1111 1105 1111 1089Q1111 1056 1108 1026H1090Q1084 1061 1067 1120T1020 1239Q995 1305 948 1353Q903 1399 849 1399Q847 1399 844 1399L608 1397L494 1399Q471 1399 465 1386T459 1358V1155L457 952L459 852V752Q479 751 499 751Q586 751 658 766Q746 784 788 831Q815 860 832 913T860 1038H881L860 842L858 643L883 449H858Q850 512 836 555T800 627T753 675T698 709Q678 717 648 722T586 730T519 733T459 733L457 539L459 350L457 158L459 61Q459 47 465 34T494 20H717H809Q812 20 815 20Q892 20 948 68Q1006 118 1042 183T1098 307T1124 385Q1134 408 1138 428T1145 459H1161Q1161 402 1160 338T1155 217Q1151 164 1151 103T1145 0Q1067 0 959 0T738 1T523 2T356 2Q258 2 171 1T39 0Z"/><glyph unicode="F" horiz-adv-x="1085" d="M39 0V18L190 20Q213 20 219 33T225 61V213L223 637L225 702V752L223 834L225 1165V1358Q225 1372 219 1385T190 1399L39 1401V1419Q105 1419 183 1418T328 1417Q363 1417 414 1417T548 1418T756 1419T1063 1419L1077 1010H1057Q1051 1045 1037 1108T989 1243Q958 1311 905 1355T805 1399H496Q473 1399 467 1386T461 1358L459 1260V1053V774Q557 774 617 787T715 833T770 921T799 1061H819L813 856L815 782L813 713L819 471H797Q785 567 760 623T695 709T597 747T459 756L461 606V233L463 61Q463 47 469 34T498 20L678 18V0Q641 0 596 0T503 1T410 2T328 2Q262 2 183 1T39 0Z"/><glyph unicode="G" horiz-adv-x="1388" d="M74 709Q74 832 104 946Q120 1003 141 1056T193 1157Q273 1284 407 1362T733 1440Q817 1440 878 1428T985 1401T1062 1374T1122 1362Q1145 1362 1156 1382T1174 1413H1186V1022L1169 1020Q1149 1086 1122 1156T1046 1286T926 1384T743 1423Q669 1423 610 1400T505 1335T427 1238T377 1114Q361 1053 351 958T340 709Q340 553 356 455T385 309Q403 241 432 185T505 88T609 24T752 0Q787 0 826 6T903 21T969 41T1012 61V498Q1012 512 1006 525T971 539L799 541V559H1130Q1202 559 1271 560T1395 565V547L1288 545Q1261 545 1254 532T1247 504V131Q1237 123 1223 121T1194 111Q1182 103 1162 95T1126 80Q1103 70 1090 63T1051 47Q973 22 890 2T733 -18Q526 -18 390 68T176 289Q149 336 132 385T102 487Q90 540 82 595T74 709Z"/><glyph unicode="H" horiz-adv-x="1509" d="M39 0V18L190 20Q213 20 219 33T225 61L227 162L223 358V559L225 760V958V1159V1358Q225 1372 219 1385T190 1399L39 1401V1419Q62 1419 101 1419T186 1418T273 1417T342 1417Q408 1417 491 1418T670 1421V1403L504 1399Q481 1399 475 1386T471 1356L469 1155L471 954L467 760L623 752L801 750L1040 752L1038 954V1153L1040 1358Q1040 1372 1034 1385T1006 1399L872 1403V1421Q886 1421 923 1420T1005 1419T1093 1418T1167 1417Q1257 1417 1340 1418T1470 1419V1401L1319 1399Q1296 1399 1290 1386T1284 1358L1286 1257V1059L1284 858V657V461L1286 258L1284 61Q1284 47 1290 34T1319 20L1470 18V0Q1450 0 1410 0T1325 1T1237 2T1169 2Q1075 2 1005 2T872 0V18L1006 20Q1029 20 1034 33T1040 61V156L1042 348L1040 539V729H911H739H467V633V442L471 250L469 61Q469 47 475 34T504 20L670 18V0Q650 0 609 1T521 2T431 2T362 2Q270 2 198 1T39 0Z"/><glyph unicode="I" horiz-adv-x="718" d="M39 0V18L190 20Q219 20 226 33T233 61L231 481L233 725V973L236 1360Q236 1374 229 1387T193 1401L127 1403L41 1401V1419Q61 1419 81 1421T125 1423Q184 1423 242 1424T358 1425Q413 1425 477 1424T600 1423Q623 1423 642 1421T682 1419V1401L600 1403L528 1401Q499 1401 493 1388T487 1360L489 971V725L487 485L485 61Q485 47 491 34T526 20L680 18V0Q604 0 518 1T356 2Q278 2 198 1T39 0Z"/><glyph unicode="J" horiz-adv-x="794" d="M20 84Q20 125 47 147T106 170Q133 170 150 158Q160 150 165 138T170 115Q170 80 152 57Q134 37 104 23V20Q133 6 176 6Q225 6 263 19T325 63T362 144T375 270L377 465V764L371 1047L362 1358Q362 1372 354 1385T317 1399L170 1401V1419Q209 1419 255 1420T346 1421T432 1422T506 1423Q567 1423 638 1421T770 1419V1401L651 1399Q628 1399 622 1386T616 1358V455Q616 332 582 244T488 100T349 16T180 -12Q102 -12 61 15T20 84Z"/><glyph unicode="K" horiz-adv-x="1378" d="M39 0V18L190 20Q213 20 219 33T225 61L221 178V389V590L223 817L221 1110L225 1358Q225 1372 219 1385T190 1399L39 1401V1419Q72 1419 114 1419T200 1418T286 1417T360 1417Q421 1417 504 1418T649 1419V1401L504 1399Q481 1399 475 1386T469 1358L471 981L467 725L539 735Q566 755 593 785T667 870T785 1016T975 1249Q1025 1309 1025 1351Q1025 1395 958 1399L874 1401V1419Q927 1419 980 1418T1087 1417Q1130 1417 1189 1418T1292 1419V1401L1200 1399Q1157 1399 1121 1377T1057 1317L690 860L760 764L954 487L1245 66Q1259 46 1277 33T1321 20L1417 18V0H823V18L932 20Q955 20 964 31T963 59L877 182L748 375L629 541L543 672L516 705L504 711L467 705L471 537V381L469 180V61Q469 47 475 34T504 20L649 18V0Q618 0 575 0T488 1T401 2T328 2Q262 2 183 1T39 0Z"/><glyph unicode="L" horiz-adv-x="1107" d="M35 0V18L180 20Q209 20 216 33T223 61V193V633V1008V1360Q223 1374 216 1387T180 1401H35V1419Q113 1419 191 1420T350 1421Q426 1421 521 1420T692 1419V1401H516Q487 1401 480 1388T473 1360V1063L475 864V612L473 61Q473 47 480 34T516 20L659 18Q763 18 833 47T948 135Q968 162 988 188T1025 248T1056 321T1081 420H1100L1063 0Q1038 0 982 0T855 0T707 1T558 2T431 2T350 2Q270 2 192 1T35 0Z"/><glyph unicode="M" horiz-adv-x="1765" d="M41 0V18L92 20Q141 24 171 48T201 141L205 834L201 1337Q201 1368 192 1383T154 1399L41 1401V1419Q90 1419 134 1420T244 1421Q305 1421 377 1420T494 1419L709 829L844 457L889 340L1274 1419Q1335 1419 1376 1421T1479 1423Q1512 1423 1537 1422T1586 1421T1635 1420T1694 1419V1401L1575 1399Q1552 1399 1546 1389T1540 1364L1544 1190V635V346L1540 61Q1540 47 1546 34T1575 20L1726 18V0Q1660 0 1582 1T1438 2Q1407 2 1365 2T1279 1T1193 0T1120 0V18L1266 20Q1289 20 1294 33T1300 61L1296 422V719L1300 1395H1288L799 -4H780L246 1395H227L233 829L231 141Q231 88 264 56T336 20L414 18V0Q383 0 360 0T315 1T271 2T217 2Q184 2 165 2T129 1T94 0T41 0Z"/><glyph unicode="N" horiz-adv-x="1351" d="M41 0V18L117 20Q183 24 204 64T225 174V1358Q225 1372 219 1385T190 1399L41 1401V1419Q90 1419 165 1420T305 1421Q366 1421 403 1420T485 1419L1159 387V1245Q1159 1325 1134 1360T1051 1399L973 1401V1419Q1008 1419 1058 1418T1169 1417Q1235 1417 1288 1418T1370 1419V1401L1294 1399Q1269 1397 1249 1390T1215 1366T1193 1320T1186 1245V-16H1147L252 1346V174Q252 108 276 67T360 20L438 18V0Q405 0 354 1T242 2Q176 2 122 1T41 0Z"/><glyph unicode="O" horiz-adv-x="1497" d="M76 713Q78 772 84 828T104 942Q120 995 141 1045T190 1139Q221 1184 255 1224T330 1294Q371 1331 419 1356T516 1399Q566 1418 624 1428Q672 1437 725 1436Q735 1436 745 1436Q804 1436 859 1428T967 1403Q1016 1387 1062 1362T1151 1309Q1233 1250 1296 1161Q1325 1114 1348 1064T1389 961Q1405 902 1413 840T1421 711Q1419 645 1411 582T1386 463Q1359 354 1292 264Q1263 219 1228 181T1151 113Q1108 80 1061 59T967 18Q914 2 858 -6Q814 -12 768 -12Q756 -12 745 -12Q620 -12 516 25Q465 45 420 68T334 127Q293 160 258 199T193 283Q162 330 143 379T106 483Q92 536 84 593T76 713ZM342 707Q342 629 347 568T356 455Q364 404 370 366T385 301Q399 235 431 181T510 86Q557 49 616 27T745 4Q813 4 875 26T985 88Q1079 170 1108 301Q1122 346 1139 455Q1145 506 1146 571T1151 711Q1151 785 1149 845T1139 958Q1133 1011 1125 1050T1106 1124Q1092 1190 1060 1244T981 1339Q887 1415 743 1419Q675 1417 615 1396T510 1337Q416 1255 383 1124Q377 1089 369 1050T354 958Q350 909 346 847T342 707Z"/><glyph unicode="P" horiz-adv-x="1142" d="M39 0V18L190 20Q213 20 219 33T225 61L223 358L221 537V799L223 1049L225 1358Q225 1372 219 1385T190 1399L39 1401V1419Q105 1419 183 1418T328 1417Q359 1417 406 1417T503 1418T600 1419T678 1419Q739 1419 816 1405T958 1351T1069 1238T1114 1049Q1114 928 1072 847T962 719T807 653T633 633Q592 633 547 638T467 653L471 61Q471 47 477 34T506 20L680 18V0Q649 0 602 0T504 1T406 2T328 2Q262 2 183 1T39 0ZM467 676Q498 668 534 663T604 657Q733 657 792 753T852 1040Q852 1142 834 1211T780 1322T693 1381T571 1399H504Q481 1399 476 1386T471 1358L467 1030V676Z"/><glyph unicode="Q" horiz-adv-x="1497" d="M76 711Q76 777 84 839T109 961Q125 1014 148 1064T201 1161Q264 1249 346 1309Q389 1338 435 1362T530 1403Q581 1419 636 1427T752 1436Q762 1436 772 1436Q824 1436 872 1428Q930 1417 981 1399Q1030 1383 1078 1357T1167 1294Q1208 1263 1242 1224T1307 1139Q1336 1096 1356 1046T1393 942Q1407 885 1413 829T1421 713Q1421 652 1413 595T1391 483Q1375 428 1355 379T1305 283Q1274 238 1239 199T1163 127Q1122 92 1077 69T981 25Q920 5 854 -6Q854 -41 854 -81T859 -161T875 -237T909 -303Q950 -356 1010 -372T1130 -389Q1165 -389 1195 -384T1241 -377V-395Q1229 -399 1202 -402T1140 -410T1069 -416T999 -418Q985 -418 954 -416T883 -405T803 -377T729 -326Q696 -293 679 -255T653 -175T641 -90T637 -4Q608 0 583 5T530 18Q483 36 436 58T346 113Q305 144 269 181T205 264Q137 354 111 463Q95 518 87 581T76 711ZM342 707Q342 629 347 568T356 455Q364 404 370 366T385 301Q399 235 431 181T510 86Q557 49 616 27T745 4Q813 4 875 26T985 88Q1079 170 1108 301Q1122 346 1139 455Q1145 506 1146 571T1151 711Q1151 785 1149 845T1139 958Q1133 1011 1125 1050T1106 1124Q1092 1190 1060 1244T981 1339Q887 1415 743 1419Q675 1417 615 1396T510 1337Q416 1255 383 1124Q377 1089 369 1050T354 958Q350 909 346 847T342 707Z"/><glyph unicode="R" horiz-adv-x="1333" d="M39 0V18L190 20Q213 20 219 33T225 61L223 301V510V799V1018L225 1358Q225 1372 219 1385T190 1399L39 1401V1419Q105 1419 183 1420T328 1421H666Q732 1421 811 1408T959 1357T1075 1252T1122 1073Q1122 981 1082 921T981 821T846 761T705 729Q773 715 832 691T941 624T1030 519T1094 365Q1114 285 1132 220T1169 107T1208 34T1253 8Q1269 43 1283 63T1317 84Q1331 84 1342 77T1354 53Q1354 18 1329 2T1233 -14Q1163 -14 1103 3T993 63T905 177T840 356Q824 426 809 491T768 607T701 687T588 717H469V612L467 379L465 61Q465 47 471 34T502 20L647 18V0Q614 0 572 0T486 1T400 2T328 2Q262 2 183 1T39 0ZM465 1358L467 1014L469 827V739Q503 738 533 738Q612 738 668 746Q744 756 789 791T850 891T866 1063Q866 1157 851 1221T801 1326T712 1382T582 1399H502Q477 1399 471 1386T465 1358Z"/><glyph unicode="S" horiz-adv-x="1013" d="M72 2L78 125V297L72 446H92Q100 362 133 283T219 140T346 38T510 0Q596 0 655 25T754 94T810 192T827 307Q827 375 798 421T719 502T608 562T477 614Q403 643 333 676T205 757T113 873T78 1040Q78 1120 109 1192T199 1319T341 1407T524 1440Q585 1440 634 1427T724 1398T794 1370T850 1358Q864 1358 876 1381T893 1417H911L915 1284V1135L911 993H893Q870 1081 842 1159T769 1295T664 1386T514 1419Q444 1419 390 1396T299 1335T243 1251T223 1159Q223 1093 252 1047T329 967T439 903T569 846Q643 815 715 778T845 690T939 567T975 393Q975 309 947 235T862 103T721 13T526 -20Q448 -20 390 -8T287 19T210 48T156 61Q123 61 110 38T92 2H72Z"/><glyph unicode="T" horiz-adv-x="1191" d="M4 1030L18 1419Q84 1419 157 1419T307 1420T456 1421T596 1421Q729 1421 884 1420T1174 1419L1188 1030H1167Q1159 1065 1144 1124T1100 1243Q1063 1323 1006 1361T877 1399H752Q729 1399 723 1386T717 1358L719 864L721 659V438L719 291L721 63Q721 49 727 36T756 23L903 18V0Q872 0 833 0T751 1T669 2T598 2Q565 2 521 2T431 1T341 0T264 0V18L426 23Q449 23 455 36T461 63L459 287L457 451V659L459 862L463 1358Q463 1372 457 1385T428 1399H309Q231 1399 179 1353T92 1243Q61 1186 46 1126T25 1030H4Z"/><glyph unicode="U" horiz-adv-x="1454" d="M14 1401V1419Q80 1419 164 1417T313 1415Q374 1415 458 1417T614 1419V1401L471 1399Q442 1399 436 1386T430 1358V428Q430 246 507 143T766 39Q891 39 974 79T1106 183T1174 330T1194 496V1278Q1194 1337 1166 1366T1071 1399L981 1401V1419Q1008 1419 1071 1417T1206 1415Q1282 1415 1339 1417T1436 1419V1401L1346 1399Q1280 1395 1253 1367T1225 1278V494Q1225 256 1105 123T721 -10Q621 -10 526 11T357 84T238 220T193 430V1358Q193 1372 187 1385T158 1399L14 1401Z"/><glyph unicode="V" horiz-adv-x="1400" d="M-18 1401V1419Q11 1419 55 1418T149 1416T246 1414T324 1413Q398 1413 477 1416T629 1419V1401L469 1395Q449 1395 444 1385T442 1360L539 1090L645 807L733 561L821 291L1180 1253Q1195 1293 1195 1322Q1195 1348 1183 1364Q1157 1399 1100 1399L993 1401V1419Q1044 1419 1107 1420T1225 1421Q1266 1421 1325 1420T1427 1419V1401L1331 1399Q1298 1399 1266 1362T1208 1253L743 -6H692L590 270L489 522L393 782L299 1044L186 1356Q180 1372 170 1383T137 1395L-18 1401Z"/><glyph unicode="W" horiz-adv-x="1724" d="M-16 1401V1419Q125 1419 252 1418T471 1417V1399H383Q367 1399 362 1389T360 1364L432 1126L504 887L555 723L598 571L670 309L731 473Q760 547 793 640T864 834Q829 938 799 1032T746 1197T709 1311T694 1356Q692 1366 682 1380T655 1395L590 1399V1417L795 1415H971V1399H952Q936 1399 927 1387T922 1360L1001 1110L1083 1319Q1090 1340 1090 1355Q1090 1399 1034 1399H1008V1415H1126Q1157 1415 1188 1417T1249 1419V1401L1206 1397Q1179 1397 1152 1374T1112 1309L1016 1065L1075 877L1161 608L1257 311L1587 1313Q1597 1342 1587 1370T1526 1399L1440 1401V1419Q1487 1419 1528 1418T1616 1417Q1655 1417 1694 1418T1772 1419V1401L1712 1399Q1683 1399 1656 1370T1620 1313L1190 0H1139Q1108 92 1073 197Q1044 287 1006 399T928 635Q916 674 907 712T885 786L588 0H541L424 389L313 725L229 991L166 1194L119 1360Q113 1376 104 1387T74 1399L-16 1401Z"/><glyph unicode="X" horiz-adv-x="1355" d="M14 0V18L90 20Q131 20 160 46T217 109L633 721L719 801L1042 1278Q1058 1302 1058 1324Q1058 1342 1048 1359Q1024 1397 977 1399L911 1401V1419Q958 1419 1015 1418T1120 1417Q1159 1417 1201 1418T1282 1419V1401L1219 1399Q1201 1399 1181 1387T1143 1356T1108 1317T1079 1278L737 772L659 707L260 117Q239 87 239 63Q240 55 242 49Q250 20 285 20L352 18V0Q305 0 264 1T176 2Q137 2 95 1T14 0ZM49 1401V1419Q106 1419 173 1418T297 1417Q363 1417 442 1418T588 1419V1401L477 1399Q461 1399 455 1389T455 1364Q457 1360 485 1308T561 1169Q608 1085 669 980T793 762Q840 674 883 588T969 422Q1010 344 1047 278T1114 162Q1147 104 1174 57Q1182 41 1206 31T1251 20L1339 18V0Q1310 0 1271 0T1189 1T1107 2T1038 2Q1005 2 957 2T858 1T759 0T678 0V18L866 20Q882 20 888 30T889 55Q889 57 873 89T829 175T762 301T678 455Q637 531 596 611T510 774Q467 852 428 929T352 1071Q286 1188 246 1264T201 1350Q193 1366 182 1382T150 1399L49 1401Z"/><glyph unicode="Y" horiz-adv-x="1253" d="M-8 1401V1419Q21 1419 56 1419T131 1418T206 1417T270 1417Q336 1417 416 1418T561 1419V1401L444 1399Q428 1399 422 1389T422 1364L741 705L788 791L1026 1280Q1038 1307 1037 1329T1026 1367T999 1390T963 1399L883 1401V1419H1079H1262V1401L1188 1399Q1153 1399 1123 1373T1073 1309L758 670V66Q758 52 764 39T793 25L920 18V0Q889 0 850 0T771 1T693 2T625 2Q559 2 478 1T332 0V18L455 25Q478 25 483 38T489 66V371V662L379 885L311 1030L229 1184L141 1362Q133 1378 122 1388T86 1399L-8 1401Z"/><glyph unicode="Z" d="M33 0V23L203 367L375 698L520 983L635 1188L723 1360Q737 1389 736 1394T702 1399H446Q333 1399 267 1359T166 1264Q135 1213 122 1154T102 1063H82L96 1419H1004V1395L883 1161L694 782L606 612L483 371L315 59Q301 30 302 25T336 20H686Q770 20 832 66T930 166Q946 193 961 225T989 290T1010 349T1024 393H1042L1014 4L33 0Z"/><glyph unicode="[" horiz-adv-x="610" d="M123 -430V1419H522V1401H295V-412H522V-430H123Z"/><glyph unicode="\" horiz-adv-x="651" d="M25 1448H98L772 -430H698L25 1448Z"/><glyph unicode="]" horiz-adv-x="610" d="M88 -412H315V1401H88V1419H487V-430H88V-412Z"/><glyph unicode="^" horiz-adv-x="1024" d="M84 633L451 1069H575L940 633H915L512 918L106 633H84Z"/><glyph unicode="_" horiz-adv-x="1024" d="M-8 -211H1032V-262H-8V-211Z"/><glyph unicode="`" horiz-adv-x="614" d="M96 1384V1399H303L489 1016H475L96 1384Z"/><glyph unicode="a" horiz-adv-x="1157" d="M-16 0V18L39 20Q70 20 95 43T133 113L553 1425H616L1040 55Q1050 20 1085 20L1171 18V0Q1114 0 1059 1T946 2Q880 2 812 1T678 0V18L809 20Q825 20 830 30T831 55L700 492H283L166 115Q159 94 159 76Q159 60 165 47Q178 20 211 20L307 18V0Q260 0 221 1T135 2Q96 2 60 1T-16 0ZM289 512H694L496 1159L289 512Z"/><glyph unicode="b" horiz-adv-x="1142" d="M39 0V18L158 20Q181 20 187 33T193 61V1358Q193 1372 187 1385T158 1399L39 1401V1419Q105 1419 167 1418T295 1417Q367 1417 437 1418T582 1419Q656 1419 732 1403T873 1349T979 1249T1020 1094Q1020 961 942 876T680 752Q752 748 823 723T951 654T1042 545T1077 397Q1077 288 1041 213T939 89T785 21T592 0L295 2Q229 2 167 1T39 0ZM395 61Q395 47 401 34T430 20H594Q684 20 735 58T812 152T844 274T850 395Q850 487 836 550T782 655T675 714T500 733H395V61ZM395 754H502Q592 754 649 772T739 832T784 942T797 1106Q797 1270 724 1334T489 1399H430Q407 1399 401 1386T395 1358V754Z"/><glyph unicode="c" horiz-adv-x="1085" d="M66 709Q66 844 97 976T195 1213T364 1383T608 1448Q676 1448 726 1435T816 1406T888 1378T948 1364Q966 1364 976 1388T991 1425H1010V997H991Q968 1077 940 1155T867 1294T760 1394T604 1432Q545 1432 501 1407T424 1339T368 1237T330 1110Q316 1049 305 956T293 709Q293 551 306 453T330 303Q344 237 366 180T423 80T503 13T612 -12Q704 -12 766 27T873 130T946 276T997 442H1016V-6H997Q993 6 983 30T954 55Q927 55 897 42T826 14T734 -15T614 -29Q469 -29 366 36T196 206T98 443T66 709Z"/><glyph unicode="d" horiz-adv-x="1226" d="M39 0V18L158 20Q181 20 187 33T193 61V1358Q193 1372 187 1385T158 1399L39 1401V1419Q105 1419 167 1418T295 1417Q358 1417 402 1417T478 1418T534 1419T586 1419Q715 1419 820 1365T1001 1216T1119 990T1161 709Q1161 557 1119 428T1002 204T820 55T586 0L295 2Q229 2 167 1T39 0ZM395 61Q395 47 401 34T430 20H582Q725 20 798 100T901 317Q905 340 911 371T924 449T934 559T938 709Q938 869 925 962T901 1102Q872 1235 797 1317T584 1399H430Q407 1399 401 1386T395 1358V61Z"/><glyph unicode="e" horiz-adv-x="1101" d="M39 0V18L158 20Q181 20 187 33T193 61V1358Q193 1372 187 1385T158 1399L39 1401V1419Q105 1419 167 1418T295 1417Q330 1417 376 1417T498 1418T693 1419T991 1419L1006 1026H985Q979 1061 962 1124T913 1243Q878 1304 830 1351T735 1399H430Q407 1399 401 1386T395 1358V752Q487 752 550 765T655 811T718 899T752 1038H772V449H750Q738 545 709 601T636 687T532 725T395 733V61Q395 47 401 34T430 20H700Q739 20 774 35T839 75T894 132T936 195Q952 226 968 264T998 341T1020 410T1032 459H1053L1036 0Q833 0 706 0T499 1T376 2T295 2Q229 2 167 1T39 0Z"/><glyph unicode="f" horiz-adv-x="1050" d="M39 0V18L158 20Q181 20 187 33T193 61V1358Q193 1372 187 1385T158 1399L39 1401V1419Q105 1419 167 1418T295 1417Q330 1417 376 1417T500 1418T697 1419T999 1419L1014 1010H993Q987 1045 973 1108T926 1243Q895 1311 842 1355T741 1399H430Q407 1399 401 1386T395 1358V741Q493 741 559 754T666 801T729 889T762 1028H782V438H760Q748 534 719 590T645 677T538 715T395 723V61Q395 47 401 34T430 20L549 18V0Q475 0 422 1T295 2Q229 2 167 1T39 0Z"/><glyph unicode="g" horiz-adv-x="1210" d="M66 709Q66 842 100 974T204 1211T380 1382T631 1448Q703 1448 758 1435T854 1406T925 1378T981 1364Q1001 1364 1010 1388T1024 1425H1042V997H1024Q1006 1063 978 1138T906 1280T798 1389T639 1432Q576 1432 526 1407T437 1339T373 1238T332 1112Q318 1051 306 957T293 709Q293 551 307 452T332 303Q346 235 371 178T435 78T524 12T645 -12Q676 -12 712 -5T779 16T835 48T868 88V506Q868 520 862 533T834 547L715 549V567Q781 567 843 566T971 565Q1032 565 1094 566T1219 567V549L1106 547Q1083 547 1077 534T1071 506V123Q1036 92 984 65T873 17T750 -16T631 -29Q481 -29 375 34T200 202T99 439T66 709Z"/><glyph unicode="h" horiz-adv-x="1290" d="M39 0V18L158 20Q181 20 187 33T193 61V1358Q193 1372 187 1385T158 1399L39 1401V1419Q105 1419 167 1418T295 1417Q356 1417 418 1418T543 1419V1401L430 1399Q407 1399 401 1386T395 1358V750H895V1358Q895 1372 889 1385T860 1399L748 1401V1419Q809 1419 871 1418T995 1417Q1061 1417 1123 1418T1251 1419V1401L1133 1399Q1110 1399 1104 1386T1098 1358V61Q1098 47 1104 34T1133 20L1251 18V0Q1185 0 1123 1T995 2Q934 2 872 1T748 0V18L860 20Q883 20 889 33T895 61V729H395V61Q395 47 401 34T430 20L543 18V0Q482 0 419 1T295 2Q229 2 167 1T39 0Z"/><glyph unicode="i" horiz-adv-x="587" d="M39 0V18L158 20Q181 20 187 33T193 61V1358Q193 1372 187 1385T158 1399L39 1401V1419Q105 1419 167 1418T295 1417Q356 1417 421 1418T549 1419V1401L430 1399Q407 1399 401 1386T395 1358V61Q395 47 401 34T430 20L549 18V0Q488 0 422 1T295 2Q229 2 167 1T39 0Z"/><glyph unicode="j" horiz-adv-x="604" d="M-145 -197Q-145 -152 -116 -121T-39 -90Q8 -90 37 -118T66 -193Q66 -228 39 -258T-31 -293V-303Q-6 -323 59 -324Q125 -324 169 -264T213 -55V1358Q213 1372 207 1385T178 1399L59 1401V1419Q125 1419 187 1418T315 1417Q376 1417 442 1418T569 1419V1401L451 1399Q428 1399 422 1386T416 1358V129Q416 27 393 -59T324 -206T212 -303T59 -338Q-52 -338 -98 -297T-145 -197Z"/><glyph unicode="k" horiz-adv-x="1198" d="M39 0V18L158 20Q181 20 187 33T193 61V1358Q193 1372 187 1385T158 1399L39 1401V1419Q105 1419 167 1418T295 1417Q356 1417 418 1418T543 1419V1401L430 1399Q407 1399 401 1386T395 1358V737H414Q426 737 434 744T453 762L920 1323Q951 1360 940 1379T893 1399L768 1401V1419Q821 1419 874 1418T981 1417Q1024 1417 1067 1418T1153 1419V1401L1094 1399Q1051 1399 1015 1378T950 1317L569 864L1081 66Q1108 21 1157 20L1221 18V0H702V18L821 20Q844 20 849 31T844 59L432 715H395V61Q395 47 401 34T430 20L543 18V0Q482 0 419 1T295 2Q229 2 167 1T39 0Z"/><glyph unicode="l" horiz-adv-x="1038" d="M39 0V18L158 20Q181 20 187 33T193 61V1358Q193 1372 187 1385T158 1399L39 1401V1419Q105 1419 167 1418T295 1417Q356 1417 420 1418T547 1419V1401L430 1399Q407 1399 401 1386T395 1358V61Q395 47 401 34T430 20H653Q737 20 798 69T895 182Q911 213 926 253T955 333T978 406T991 459H1010L981 0Q961 0 908 0T785 0T638 1T492 2T369 2T295 2Q229 2 167 1T39 0Z"/><glyph unicode="m" horiz-adv-x="1527" d="M41 0V18L117 20Q148 22 170 45T193 109V1337Q193 1368 184 1383T145 1399L41 1401V1419Q90 1419 132 1418T240 1417Q301 1417 343 1418T430 1419L756 299L1094 1419Q1125 1419 1145 1419T1183 1418T1222 1417T1274 1417Q1307 1417 1332 1417T1381 1418T1430 1419T1489 1419V1401L1370 1399Q1347 1399 1341 1386T1335 1358V61Q1335 47 1341 34T1370 20L1489 18V0Q1423 0 1361 1T1233 2Q1172 2 1110 1T985 0V18L1098 20Q1121 20 1127 33T1133 61V1395H1112L692 0H641L242 1395H219V109Q219 68 241 46T295 20L373 18V0Q342 0 324 0T290 1T257 2T209 2Q176 2 158 2T124 1T92 0T41 0Z"/><glyph unicode="n" horiz-adv-x="1210" d="M41 0V18L117 20Q148 22 170 45T193 109V1358Q193 1372 187 1385T158 1399L41 1401V1419Q90 1419 132 1418T240 1417Q271 1417 292 1417T330 1418T365 1419T406 1419L995 369V1311Q995 1352 973 1374T920 1399L842 1401V1419Q877 1419 910 1418T1006 1417Q1072 1417 1108 1418T1174 1419V1401L1098 1399Q1067 1397 1045 1375T1022 1311V-16H983L219 1346V109Q219 68 241 46T295 20L373 18V0Q340 0 305 1T209 2Q143 2 106 1T41 0Z"/><glyph unicode="o" horiz-adv-x="1212" d="M66 709Q66 848 98 981T196 1217T363 1384T604 1448Q735 1448 835 1391T1005 1233T1111 999T1147 709Q1147 553 1111 418T1006 184T836 28T604 -29Q465 -29 364 34T196 202T98 439T66 709ZM291 709Q291 551 302 448T324 291Q351 156 420 72T604 -12Q721 -12 792 73T889 291Q899 338 910 445T922 709Q922 861 912 962T889 1128Q864 1263 793 1347T604 1432Q489 1432 419 1348T324 1128Q312 1062 302 962T291 709Z"/><glyph unicode="p" horiz-adv-x="1085" d="M39 0V18L158 20Q181 20 187 33T193 61V1358Q193 1372 187 1385T158 1399L39 1401V1419Q105 1419 167 1418T295 1417Q326 1417 367 1417T451 1418T534 1419T606 1419Q667 1419 744 1405T886 1351T997 1238T1042 1049Q1042 928 1000 847T890 719T735 653T561 633Q520 633 475 638T395 653V61Q395 47 401 34T430 20L543 18V0Q482 0 419 1T295 2Q229 2 167 1T39 0ZM395 676Q428 668 468 663T543 657Q815 657 815 1040Q815 1142 795 1211T735 1322T639 1381T508 1399H430Q407 1399 401 1386T395 1358V676Z"/><glyph unicode="q" horiz-adv-x="1212" d="M66 709Q66 848 98 981T196 1217T363 1384T604 1448Q735 1448 835 1391T1005 1233T1111 999T1147 709Q1147 572 1121 451T1040 235T906 76T723 -10Q723 -45 723 -84T727 -162T743 -236T778 -303Q819 -356 879 -372T999 -389Q1034 -389 1064 -384T1110 -377V-395Q1098 -399 1070 -402T1009 -410T938 -416T868 -418Q854 -418 823 -416T752 -405T672 -377T598 -326Q565 -293 548 -256T521 -180T510 -100T506 -16Q393 4 310 72T173 240T93 461T66 709ZM291 709Q291 551 302 448T324 291Q351 156 420 72T604 -12Q721 -12 792 73T889 291Q899 338 910 445T922 709Q922 861 912 962T889 1128Q864 1263 793 1347T604 1432Q489 1432 419 1348T324 1128Q312 1062 302 962T291 709Z"/><glyph unicode="r" horiz-adv-x="1226" d="M39 0V18L158 20Q181 20 187 33T193 61V1358Q193 1372 187 1385T158 1399L39 1401V1419Q105 1419 167 1418T295 1417Q326 1417 367 1417T451 1418T534 1419T606 1419Q667 1419 744 1406T886 1356T997 1252T1042 1073Q1042 981 1007 921T916 821T793 762T659 731Q700 721 741 711T821 682T896 633T961 553Q990 506 1001 436T1018 299Q1026 217 1036 163T1060 75T1091 27T1135 12Q1164 12 1187 22T1235 49L1245 35Q1208 6 1161 -11T1055 -29Q1000 -29 954 -15T874 40T819 151T791 338Q789 377 785 422T772 511T749 593T707 659Q678 690 636 703T555 717H395V61Q395 47 401 34T430 20L543 18V0Q482 0 419 1T295 2Q229 2 167 1T39 0ZM395 739Q427 738 457 738Q534 738 592 746Q672 756 722 791T793 891T815 1063Q815 1157 795 1221T734 1326T637 1382T506 1399H430Q407 1399 401 1386T395 1358V739Z"/><glyph unicode="s" horiz-adv-x="968" d="M63 -6V444H82Q98 358 131 277T213 131T329 27T485 -12Q567 -12 624 14T719 86T773 187T791 303Q791 395 750 454T621 561Q590 577 547 593T457 626T362 661T272 702Q182 749 126 832T70 1044Q70 1124 100 1197T187 1326T322 1415T498 1448Q557 1448 604 1435T689 1406T756 1379T811 1366Q825 1366 836 1389T852 1425H870V997H852Q829 1087 802 1166T732 1304T631 1398T487 1432Q421 1432 369 1408T282 1346T228 1257T209 1151Q209 1055 258 993T395 883Q454 852 539 825T702 758Q749 733 791 703T864 630T913 535T932 414Q932 320 901 239T812 99T669 5T473 -29Q410 -29 358 -17T263 11T187 40T123 53Q107 53 97 30T82 -6H63Z"/><glyph unicode="t" horiz-adv-x="1153" d="M37 1030L51 1419Q182 1419 313 1418T575 1417Q708 1417 838 1418T1102 1419L1116 1030H1096Q1090 1065 1075 1125T1028 1243Q1012 1274 989 1302T939 1352T888 1386T838 1399H713Q690 1399 684 1386T678 1358V61Q678 47 684 34T713 20L831 18V0Q770 0 705 1T578 2Q512 2 450 1T322 0V18L440 20Q463 20 469 33T475 61V1358Q475 1372 469 1385T440 1399H315Q268 1399 213 1353T125 1243Q94 1186 79 1126T57 1030H37Z"/><glyph unicode="u" horiz-adv-x="1236" d="M25 1401V1419Q91 1419 153 1418T281 1417Q342 1417 409 1418T539 1419V1401L416 1399Q393 1399 387 1386T381 1358V391Q381 209 445 115T668 20Q774 20 844 57T957 155T1015 296T1032 459V1311Q1032 1352 1010 1374T956 1399L879 1401V1419Q902 1419 941 1418T1042 1417Q1108 1417 1143 1418T1210 1419V1401L1135 1399Q1104 1397 1082 1375T1059 1311V457Q1059 217 958 94T629 -29Q543 -29 462 -10T318 57T216 186T178 393V1358Q178 1372 172 1385T143 1399L25 1401Z"/><glyph unicode="v" horiz-adv-x="1148" d="M-18 1401V1419Q39 1419 95 1418T209 1417Q275 1417 341 1418T473 1419V1401L346 1399Q330 1399 325 1389T324 1364L662 260L981 1313Q986 1330 986 1344Q986 1362 977 1376Q961 1400 920 1399L823 1401V1419Q870 1419 916 1418T1010 1417Q1049 1417 1086 1418T1163 1419V1401L1106 1399Q1081 1399 1053 1374T1014 1313L606 -6H537L115 1360Q109 1376 100 1387T70 1399L-18 1401Z"/><glyph unicode="w" horiz-adv-x="1634" d="M-16 1401V1419Q113 1419 218 1419T410 1418T566 1417T698 1417Q827 1417 957 1417T1217 1419V1401L1174 1399Q1147 1399 1120 1376T1079 1311L942 913L1143 258L1464 1313Q1474 1342 1464 1370T1403 1399L1317 1401V1419Q1364 1419 1405 1418T1493 1417Q1532 1417 1571 1418T1649 1419V1401L1589 1399Q1560 1399 1533 1370T1497 1313L1094 0H1028L829 649L596 0H535L119 1360Q113 1376 104 1387T74 1399L-16 1401ZM322 1364L657 248L817 698L606 1360Q604 1370 594 1384T567 1399H344Q328 1398 322 1388Q319 1382 320 1377Q320 1371 322 1364ZM805 1364L930 954L1051 1321Q1058 1341 1058 1356Q1058 1399 1001 1399H827Q811 1398 806 1388Q803 1382 803 1376T805 1364Z"/><glyph unicode="x" horiz-adv-x="1226" d="M14 0V18L90 20Q131 20 163 44T217 109L545 672L195 1362Q187 1378 179 1388T150 1399L49 1401V1419Q106 1419 173 1418T297 1417Q363 1417 426 1418T555 1419V1401L444 1399Q428 1399 422 1389T422 1364L674 844L932 1309Q949 1339 949 1360Q948 1368 946 1374Q938 1398 891 1399L813 1401V1419Q860 1419 901 1418T989 1417Q1028 1417 1070 1418T1151 1419V1401L1087 1399Q1050 1399 1019 1374T969 1309L690 819L1075 57Q1083 41 1091 31T1120 20L1208 18V0Q1151 0 1091 1T973 2Q907 2 838 1T702 0V18L825 20Q841 20 847 30T848 55L559 645L260 117Q242 85 242 61Q242 54 244 48Q250 20 285 20L352 18V0Q305 0 264 1T176 2Q137 2 95 1T14 0Z"/><glyph unicode="y" horiz-adv-x="1153" d="M-8 1401V1419Q49 1419 113 1418T236 1417Q302 1417 368 1418T500 1419V1401L383 1399Q367 1399 361 1389T360 1364L678 717L973 1309Q986 1332 986 1351Q986 1363 981 1372Q969 1399 930 1399L850 1401V1419Q897 1419 938 1418T1026 1417Q1065 1417 1094 1418T1163 1419V1401L1122 1399Q1087 1399 1057 1373T1008 1309L692 690V61Q692 47 698 34T727 20L854 18V0Q793 0 723 1T592 2Q526 2 462 1T332 0V18L455 20Q478 20 483 33T489 61V662L141 1362Q133 1378 122 1388T86 1399L-8 1401Z"/><glyph unicode="z" horiz-adv-x="1007" d="M33 0V23L723 1360Q737 1389 736 1394T702 1399H352Q329 1399 304 1385T255 1346T209 1292T170 1231Q139 1176 124 1119T102 1026H82L96 1419H956V1395L268 59Q254 30 255 25T289 20H631Q674 20 709 34T776 73T831 129T874 190Q890 221 906 260T934 337T955 407T969 459H987L958 0H33Z"/><glyph unicode="{" horiz-adv-x="768" d="M47 475V514Q121 520 173 536T259 585T308 671T324 807Q324 873 313 939T301 1069Q301 1171 323 1239T393 1346T516 1402T698 1419V1401Q651 1397 610 1392T539 1364T491 1295T473 1165Q473 1104 478 1035T483 903Q483 794 460 725T394 611T293 544T160 506V483Q234 469 293 446T394 378T459 264T483 86Q483 25 478 -45T473 -176Q473 -260 490 -306T538 -374T610 -403T698 -412V-430Q592 -430 516 -415T393 -359T324 -252T301 -80Q301 -17 312 50T324 182Q324 264 308 317T257 404T171 453T47 475Z"/><glyph unicode="|" horiz-adv-x="532" d="M231 0V1450H301V0H231Z"/><glyph unicode="}" horiz-adv-x="768" d="M70 -412Q117 -410 158 -404T229 -375T277 -306T295 -176Q295 -115 290 -45T285 86Q285 192 308 263T374 378T475 445T608 483V506Q534 520 475 543T374 611T309 725T285 903Q285 964 290 1034T295 1165Q295 1249 278 1295T230 1363T158 1391T70 1401V1419Q176 1419 252 1403T375 1347T444 1239T467 1069Q467 1006 456 939T444 807Q444 725 459 672T509 586T595 537T721 514V475Q649 469 597 454T511 405T461 318T444 182Q444 116 455 50T467 -80Q467 -184 445 -251T375 -359T252 -414T70 -430V-412Z"/><glyph unicode="~" horiz-adv-x="1024" d="M82 432Q94 465 118 506T179 584T260 645T360 670Q421 670 475 651T581 607T678 563T766 543Q825 543 859 583T928 686L944 678Q932 643 908 602T847 524T765 463T666 438Q607 438 552 458T445 502T347 546T258 567Q199 567 166 527T100 426L82 432Z"/><glyph unicode=" " horiz-adv-x="223"/><glyph unicode="¡" horiz-adv-x="483" d="M117 1319Q117 1370 153 1407T242 1444Q293 1444 330 1407T367 1319Q367 1268 330 1231T242 1194Q191 1194 154 1231T117 1319ZM123 127Q123 203 139 285T176 459T213 653T229 872V1040H254V872Q254 757 270 654T307 459T344 285T360 127Q360 68 331 24T242 -20Q181 -20 152 24T123 127Z"/><glyph unicode="¢" horiz-adv-x="813" d="M78 727Q78 838 107 925T188 1074T308 1171T455 1212V1415H487V1214Q618 1212 689 1155T760 1026Q760 975 725 945T647 915Q606 915 574 943T541 1026Q541 1081 576 1107T653 1137V1149Q628 1172 590 1185T487 1200V289Q542 291 586 313T664 373T723 460T764 565L780 561Q764 504 741 452T681 359T598 293T487 262V25H455V262Q381 262 314 292T194 379T110 523T78 727ZM272 737Q272 653 276 583T293 461Q311 385 350 340T455 289V1198Q402 1190 359 1147T295 1016Q285 969 279 892T272 737Z"/><glyph unicode="£" horiz-adv-x="985" d="M80 98Q80 137 98 174T149 238T229 283T332 301Q371 301 422 291Q426 309 428 334T428 385Q424 467 391 549T311 696H115V717H297Q227 807 189 889T150 1071Q150 1147 180 1215T266 1335T395 1417T555 1448Q700 1448 781 1380T862 1186Q862 1123 832 1085T748 1047Q705 1047 675 1074T645 1149Q645 1200 677 1225T750 1251Q770 1251 792 1242T827 1214H840Q840 1259 820 1298T764 1367T685 1413T594 1430Q539 1430 494 1401T418 1324T371 1213T354 1079Q354 1001 367 905T410 717H809V696H416Q434 647 445 578T457 449Q457 416 452 367T438 287Q526 260 592 228T708 167T792 121T854 102Q868 102 884 107T917 128T950 174T981 254L999 246Q919 -24 786 -25Q739 -25 695 -9T603 32T504 88T391 147Q346 61 299 24T195 -14Q146 -14 113 18T80 98ZM102 100Q102 59 130 34T199 8Q242 8 288 43T373 156Q338 172 302 183T231 195Q174 195 138 171T102 100Z"/><glyph unicode="¤" horiz-adv-x="1077" d="M59 582V600H178Q176 620 176 650T176 702Q176 727 177 762T180 819H59V838H182Q198 981 240 1094T345 1286T488 1406T662 1448Q732 1448 778 1430T856 1389T905 1348T938 1329Q954 1329 967 1344T983 1405H999V1001H981Q971 1091 946 1170T880 1307T786 1400T668 1434Q600 1434 549 1393T464 1274T412 1086T389 838H811V819H387V723Q387 694 387 660T389 600H811V582H389Q391 416 416 302T480 119T565 20T662 -10Q750 -10 806 51T909 207Q934 258 954 332T981 473H999V31H981Q973 68 963 87T934 106Q916 106 894 86T840 41T761 -4T651 -25Q553 -25 473 21T333 148T234 341T178 582H59Z"/><glyph unicode="¥" horiz-adv-x="1126" d="M-10 1401V1419Q47 1419 115 1418T242 1417Q308 1417 364 1418T485 1419V1401L385 1399Q369 1399 363 1389T362 1364L659 657L944 1309Q960 1348 950 1373T901 1399L809 1401V1419Q856 1419 902 1418T995 1417Q1034 1417 1069 1418T1143 1419V1401L1092 1399Q1057 1399 1025 1373T977 1309L788 893H1061V872H780L672 618H1061V598H672V61Q672 47 678 34T707 20L844 18V0Q783 0 708 1T571 2Q505 2 440 1T309 0V18L446 20Q469 20 475 33T481 61V598H88V618H479L367 872H88V893H358L147 1362Q139 1378 128 1388T92 1399L-10 1401Z"/><glyph unicode="¦" horiz-adv-x="532" d="M231 0V610H301V0H231ZM231 840V1450H301V840H231Z"/><glyph unicode="§" horiz-adv-x="974" d="M121 569Q123 655 166 736T313 893Q260 938 236 1000T213 1118Q213 1192 240 1253T313 1358T419 1424T549 1448Q674 1448 746 1388T819 1233Q819 1176 788 1139T707 1102Q664 1102 635 1127T606 1194Q606 1235 635 1263T705 1290Q732 1290 751 1279T780 1255L791 1264Q785 1330 720 1381T549 1432Q498 1432 453 1416T373 1368T317 1296T295 1206Q295 1165 311 1132T357 1070T427 1019T512 973Q600 928 666 889T779 808T847 716T868 602Q868 528 827 442T694 279Q757 232 794 173T834 25Q836 -51 808 -113T731 -220T618 -287T479 -311Q416 -311 360 -294T260 -247T193 -175T168 -84Q168 -27 203 13T291 53Q336 53 364 23T393 -55Q393 -100 363 -129T295 -156Q275 -156 253 -148T215 -123L207 -133Q217 -199 293 -246T479 -293Q612 -293 686 -226T756 -53Q754 -4 734 32T670 100T563 167T408 244Q340 277 287 309T197 380T141 464T121 569ZM190 670Q188 564 313 494Q360 465 454 416T680 291Q746 344 769 398T795 506Q795 559 772 595T698 666Q651 699 603 725T507 776T413 825T326 881Q248 828 219 773T190 670Z"/><glyph unicode="¨" horiz-adv-x="614" d="M33 1147Q33 1192 64 1223T141 1255Q184 1255 216 1224T248 1147Q248 1102 216 1070T141 1038Q96 1038 65 1070T33 1147ZM367 1147Q367 1192 398 1223T473 1255Q518 1255 550 1224T582 1147Q582 1102 550 1070T473 1038Q430 1038 399 1070T367 1147Z"/><glyph unicode="©" horiz-adv-x="1634" d="M82 717Q82 869 139 1003T297 1237T530 1395T817 1454Q969 1454 1103 1396T1336 1237T1494 1003T1552 717Q1552 563 1494 430T1337 197T1103 39T817 -18Q663 -18 530 39T297 196T140 430T82 717ZM127 717Q127 574 181 447T329 224T548 74T817 18Q958 18 1084 73T1303 224T1451 446T1505 717Q1505 860 1451 987T1304 1209T1084 1361T817 1417Q674 1417 548 1361T329 1210T182 987T127 717ZM459 717Q459 799 483 877T555 1019T670 1122T829 1161Q872 1161 905 1153T962 1136T1006 1118T1044 1110Q1058 1110 1063 1124T1073 1147H1087V891H1073Q1059 940 1042 986T997 1068T929 1125T829 1147Q753 1147 713 1094T653 958Q643 921 636 865T629 717Q629 623 637 564T653 473Q671 395 713 342T836 289Q893 289 933 311T999 372T1044 458T1077 557H1092V289H1077Q1073 297 1067 311T1051 326Q1035 326 1014 318T968 300T911 283T836 274Q744 274 673 313T554 415T483 558T459 717Z"/><glyph unicode="ª" horiz-adv-x="688" d="M80 948Q80 1018 116 1060T205 1124T319 1155T432 1163V1321Q432 1368 404 1400T313 1432Q272 1432 237 1420T184 1389V1382Q219 1384 243 1366T268 1311Q268 1284 247 1260T190 1235Q155 1235 134 1255T113 1313Q113 1344 131 1368T180 1411T250 1439T328 1448Q455 1448 512 1402T569 1296V889Q569 869 576 852T612 834Q628 834 645 849T670 879L682 868Q657 827 622 805T539 782Q480 782 459 814T434 885Q362 783 248 782Q221 782 192 789T138 815T97 866T80 948ZM219 965Q219 940 222 916T229 877Q247 826 313 825Q350 825 382 852T432 911V1145Q401 1145 373 1144T318 1136T270 1111T233 1061Q227 1045 223 1017T219 965Z"/><glyph unicode="«" horiz-adv-x="860" d="M51 516L459 907H469L248 516L469 125H459L51 516ZM410 516L817 907H827L606 516L827 125H817L410 516Z"/><glyph unicode="¬" horiz-adv-x="1363" d="M82 311V336L428 719L82 1104V1126L600 719V717L82 311ZM274 0L682 662H684L1090 0H1065L682 469L297 0H274ZM274 1436H299L682 967L1067 1436H1090L682 774H680L274 1436ZM764 719V721L1282 1126V1102L936 719L1282 334V311L764 719Z"/><glyph unicode="®" horiz-adv-x="1634" d="M82 717Q82 869 139 1003T297 1237T530 1395T817 1454Q969 1454 1103 1396T1336 1237T1494 1003T1552 717Q1552 563 1494 430T1337 197T1103 39T817 -18Q663 -18 530 39T297 196T140 430T82 717ZM127 717Q127 574 181 447T329 224T548 74T817 18Q958 18 1084 73T1303 224T1451 446T1505 717Q1505 860 1451 987T1304 1209T1084 1361T817 1417Q674 1417 548 1361T329 1210T182 987T127 717ZM473 299V315L545 317Q559 317 562 324T565 342V1108Q565 1116 562 1124T545 1133H473V1151Q512 1151 562 1150T651 1149Q669 1149 698 1149T756 1150T815 1151T862 1151Q899 1151 945 1143T1031 1113T1097 1049T1124 942Q1124 887 1099 851T1035 793T953 759T872 741Q927 731 983 711T1075 631Q1091 602 1098 560T1110 477Q1118 381 1134 346T1180 311Q1196 311 1209 316T1237 332L1245 319Q1222 303 1194 292T1130 281Q1093 281 1063 289T1008 321T968 389T948 502Q946 527 944 553T937 605T923 654T897 694Q881 712 855 720T807 729H711V342Q711 332 714 325T731 317L799 315V299H651H473ZM711 748Q781 746 829 752T906 778T949 836T963 936Q963 1051 915 1092T778 1133H731Q717 1133 714 1125T711 1108V748Z"/><glyph unicode="¯" horiz-adv-x="614" d="M49 1083V1192H565V1083H49Z"/><glyph unicode="°" horiz-adv-x="632" d="M88 1208Q88 1257 106 1298T155 1370T228 1418T317 1436Q364 1436 405 1418T477 1368T526 1296T545 1208Q545 1161 528 1119T480 1047T407 998T315 979Q268 979 226 997T154 1046T106 1119T88 1208ZM150 1208Q150 1134 198 1085T317 1036Q389 1036 436 1086T483 1208Q483 1280 436 1329T317 1378Q245 1378 198 1329T150 1208Z"/><glyph unicode="²" horiz-adv-x="765" d="M129 602V696Q190 745 261 801T385 928Q397 944 415 969T449 1028T476 1103T487 1194Q487 1235 481 1274T457 1343T406 1392T322 1411Q285 1411 254 1395T201 1354T166 1300T154 1243Q154 1214 164 1184H170Q174 1213 194 1228T233 1243Q262 1243 281 1223T301 1171Q301 1142 283 1122T227 1102Q184 1102 160 1142T135 1237Q135 1268 149 1304T194 1373T275 1426T397 1448Q518 1448 582 1391T647 1223Q647 1141 606 1079T501 961T359 852T207 737H606Q624 737 631 744T643 770L651 850H670L651 602H129Z"/><glyph unicode="³" horiz-adv-x="747" d="M113 752Q113 783 136 807T195 831Q228 831 245 808T262 756Q262 723 236 701T162 690L158 686Q166 657 208 633T317 608Q360 608 389 627T435 679T460 749T467 827Q467 925 431 982T309 1040Q297 1040 279 1031T244 1022Q234 1022 223 1027T211 1047Q211 1057 222 1065T244 1073Q260 1073 277 1065T311 1057Q383 1057 409 1110T436 1268Q436 1301 432 1330T417 1382T384 1418T328 1432Q281 1432 237 1411T182 1352L188 1346Q198 1356 211 1360T236 1364Q259 1364 280 1347T301 1298Q301 1267 282 1247T229 1227Q200 1227 175 1247T150 1305Q150 1342 167 1368T211 1412T270 1439T336 1448Q387 1448 434 1438T518 1406T576 1348T598 1260Q598 1217 579 1183T527 1123T451 1079T362 1053Q481 1041 556 990T631 836Q631 775 606 729T537 653T436 608T311 592Q276 592 242 602T179 632T132 683T113 752Z"/><glyph unicode="´" horiz-adv-x="614" d="M127 1016L313 1399H520V1384L141 1016H127Z"/><glyph unicode="µ" horiz-adv-x="1363" d="M82 311V336L428 719L82 1104V1126L600 719V717L82 311ZM274 0L682 662H684L1090 0H1065L682 469L297 0H274ZM274 1436H299L682 967L1067 1436H1090L682 774H680L274 1436ZM764 719V721L1282 1126V1102L936 719L1282 334V311L764 719Z"/><glyph unicode="¶" horiz-adv-x="974" d="M51 1104Q51 1258 156 1338T444 1419H903V1401L813 1399Q790 1399 784 1386T778 1358V61Q778 47 784 34T813 20L920 18V0H694V1401H510V0H299V18L391 20Q414 20 420 33T426 61V766Q250 774 151 864T51 1104Z"/><glyph unicode="·" horiz-adv-x="475" d="M113 688Q113 739 149 776T238 813Q289 813 325 776T362 688Q362 637 326 600T238 563Q187 563 150 600T113 688Z"/><glyph unicode="¸" horiz-adv-x="614" d="M154 -422Q183 -430 204 -432T242 -434Q308 -434 347 -401T387 -301Q387 -182 276 -176V-20H311V-145Q405 -145 471 -179T537 -295Q537 -373 460 -417T272 -461Q245 -461 214 -458T154 -446V-422Z"/><glyph unicode="¹" horiz-adv-x="569" d="M90 1346Q207 1377 269 1400T358 1440H377V664Q377 650 383 637T412 623L487 621V602Q442 602 405 603T305 604Q239 604 201 603T111 602V621L188 623Q211 623 217 636T223 664V1323Q223 1346 217 1351T188 1350L94 1329L90 1346Z"/><glyph unicode="º" horiz-adv-x="675" d="M47 1114Q47 1175 65 1234T121 1342T212 1419T338 1448Q408 1448 462 1421T553 1347T609 1240T629 1114Q629 1044 609 983T550 877T458 806T338 780Q266 780 212 809T121 884T66 990T47 1114ZM195 1114Q195 1069 199 1011T211 922Q227 863 256 830T338 797Q391 797 418 828T465 922Q469 936 472 960T477 1012T480 1067T481 1114Q481 1155 478 1209T465 1307Q449 1366 420 1399T338 1432Q285 1432 255 1399T211 1307Q203 1276 199 1221T195 1114Z"/><glyph unicode="»" horiz-adv-x="860" d="M33 125L254 516L33 907H43L451 516L43 125H33ZM391 125L612 516L391 907H401L809 516L401 125H391Z"/><glyph unicode="¼" horiz-adv-x="1409" d="M90 1346Q207 1377 269 1400T358 1440H377V664Q377 650 383 637T412 623L487 621V602Q440 602 404 603T305 604Q239 604 201 603T111 602V621L188 623Q211 623 217 636T223 664V1323Q223 1346 217 1351T188 1350L94 1329L90 1346ZM268 0L1051 1419H1112L330 0H268ZM668 233V256Q729 342 784 415T895 559T1006 696T1128 836H1174V260H1243Q1257 260 1270 266T1284 295L1286 362H1305Q1305 331 1305 320T1304 303T1303 286T1303 244Q1303 211 1303 202T1304 189T1305 175T1305 133H1286L1284 199Q1284 222 1271 227T1243 233H1174V61Q1174 47 1180 34T1208 20L1276 18V0Q1245 0 1229 0T1199 1T1170 2T1122 2Q1089 2 1066 2T1021 1T976 0T920 0V18L989 20Q1012 20 1018 33T1024 61V233H668ZM700 260H1024V680Q938 582 863 484T700 260Z"/><glyph unicode="½" horiz-adv-x="1474" d="M90 1346Q207 1377 269 1400T358 1440H377V664Q377 650 383 637T412 623L487 621V602Q442 602 405 603T305 604Q239 604 201 603T111 602V621L188 623Q211 623 217 636T223 664V1323Q223 1346 217 1351T188 1350L94 1329L90 1346ZM254 0L1036 1419H1098L315 0H254ZM811 0V94Q872 143 943 199T1067 326Q1079 342 1097 367T1131 426T1158 501T1169 592Q1169 633 1163 672T1139 741T1088 790T1004 809Q967 809 936 793T883 752T848 698T836 641Q836 612 846 582H852Q856 611 876 626T915 641Q944 641 963 621T983 569Q983 540 965 520T909 500Q866 500 842 540T817 635Q817 666 831 702T876 771T957 824T1079 846Q1200 846 1264 789T1329 621Q1329 539 1288 477T1183 359T1041 250T889 135H1288Q1306 135 1313 142T1325 168L1333 248H1352L1333 0H811Z"/><glyph unicode="¾" horiz-adv-x="1546" d="M113 752Q113 783 136 807T195 831Q228 831 245 808T262 756Q262 723 236 701T162 690L158 686Q166 657 208 633T317 608Q360 608 389 627T435 679T460 749T467 827Q467 925 431 982T309 1040Q297 1040 279 1031T244 1022Q234 1022 223 1027T211 1047Q211 1057 222 1065T244 1073Q260 1073 277 1065T311 1057Q383 1057 409 1110T436 1268Q436 1301 432 1330T417 1382T384 1418T328 1432Q281 1432 237 1411T182 1352L188 1346Q198 1356 211 1360T236 1364Q259 1364 280 1347T301 1298Q301 1267 282 1247T229 1227Q200 1227 175 1247T150 1305Q150 1342 167 1368T211 1412T270 1439T336 1448Q387 1448 434 1438T518 1406T576 1348T598 1260Q598 1217 579 1183T527 1123T451 1079T362 1053Q481 1041 556 990T631 836Q631 775 606 729T537 653T436 608T311 592Q276 592 242 602T179 632T132 683T113 752ZM391 0L1174 1419H1235L453 0H391ZM803 233V256Q864 342 919 415T1030 559T1141 696T1264 836H1309V260H1378Q1392 260 1405 266T1419 295L1421 362H1440Q1440 331 1440 320T1439 303T1438 286T1438 244Q1438 211 1438 202T1439 189T1440 175T1440 133H1421L1419 199Q1419 222 1406 227T1378 233H1309V61Q1309 47 1315 34T1343 20L1411 18V0Q1380 0 1364 0T1335 1T1305 2T1257 2Q1224 2 1201 2T1157 1T1111 0T1055 0V18L1124 20Q1147 20 1153 33T1159 61V233H803ZM836 260H1159V680Q1073 582 999 484T836 260Z"/><glyph unicode="¿" horiz-adv-x="735" d="M57 293Q57 356 76 413T128 521T201 613T285 688Q377 758 421 809T465 922Q465 938 461 965T455 1018H473Q489 965 495 896T502 782Q502 704 457 634T350 502Q323 475 293 447T237 383T195 306T178 211Q178 121 234 61T397 0Q458 0 521 28T610 94L604 106Q565 102 539 110T497 134T475 170T469 209Q469 250 498 279T573 309Q618 309 649 280T680 201Q680 156 657 116T592 45T496 -3T377 -20Q236 -20 147 63T57 293ZM315 1319Q315 1370 352 1407T440 1444Q491 1444 528 1407T565 1319Q565 1268 529 1231T440 1194Q389 1194 352 1231T315 1319Z"/><glyph unicode="À" horiz-adv-x="1316" d="M6 0V18L86 29Q96 31 112 38T148 64T189 118T231 207L326 436L373 563L578 1145L670 1436H707L741 1343L782 1225Q831 1086 872 969Q890 920 908 870T941 777T967 705T985 662Q991 639 1002 606T1024 545Q1036 510 1053 475L1204 55Q1214 20 1249 20L1335 18V0Q1278 0 1215 1T1094 2L799 0V18L930 27Q946 27 951 37T952 61L838 403L807 489H375L354 430L276 209Q253 150 246 114T243 59T267 33T322 25L406 18V0L201 2Q162 2 104 1T6 0ZM385 514L801 512L764 608L680 846Q674 866 661 903T634 980T610 1055T592 1108L399 555L385 514ZM408 1841V1855H614L801 1493H786L408 1841Z"/><glyph unicode="Á" horiz-adv-x="1316" d="M6 0V18L86 29Q96 31 112 38T148 64T189 118T231 207L326 436L373 563L578 1145L670 1436H707L741 1343L782 1225Q831 1086 872 969Q890 920 908 870T941 777T967 705T985 662Q991 639 1002 606T1024 545Q1036 510 1053 475L1204 55Q1214 20 1249 20L1335 18V0Q1278 0 1215 1T1094 2L799 0V18L930 27Q946 27 951 37T952 61L838 403L807 489H375L354 430L276 209Q253 150 246 114T243 59T267 33T322 25L406 18V0L201 2Q162 2 104 1T6 0ZM385 514L801 512L764 608L680 846Q674 866 661 903T634 980T610 1055T592 1108L399 555L385 514ZM473 1493L659 1855H866V1841L487 1493H473Z"/><glyph unicode="Â" horiz-adv-x="1316" d="M6 0V18L86 29Q96 31 112 38T148 64T189 118T231 207L326 436L373 563L578 1145L670 1436H707L741 1343L782 1225Q831 1086 872 969Q890 920 908 870T941 777T967 705T985 662Q991 639 1002 606T1024 545Q1036 510 1053 475L1204 55Q1214 20 1249 20L1335 18V0Q1278 0 1215 1T1094 2L799 0V18L930 27Q946 27 951 37T952 61L838 403L807 489H375L354 430L276 209Q253 150 246 114T243 59T267 33T322 25L406 18V0L201 2Q162 2 104 1T6 0ZM287 1432L559 1794H594L866 1432H846L578 1636L307 1432H287ZM385 514L801 512L764 608L680 846Q674 866 661 903T634 980T610 1055T592 1108L399 555L385 514Z"/><glyph unicode="Ã" horiz-adv-x="1316" d="M6 0V18L86 29Q96 31 112 38T148 64T189 118T231 207L326 436L373 563L578 1145L670 1436H707L741 1343L782 1225Q831 1086 872 969Q890 920 908 870T941 777T967 705T985 662Q991 639 1002 606T1024 545Q1036 510 1053 475L1204 55Q1214 20 1249 20L1335 18V0Q1278 0 1215 1T1094 2L799 0V18L930 27Q946 27 951 37T952 61L838 403L807 489H375L354 430L276 209Q253 150 246 114T243 59T267 33T322 25L406 18V0L201 2Q162 2 104 1T6 0ZM385 514L801 512L764 608L680 846Q674 866 661 903T634 980T610 1055T592 1108L399 555L385 514ZM407 1496Q413 1516 425 1552T461 1621T519 1680T602 1706Q649 1706 682 1693T737 1670Q764 1658 789 1645T856 1631Q887 1631 906 1641T938 1664T957 1694T971 1723H989Q983 1703 971 1667T935 1597T878 1538T794 1512Q745 1512 715 1526T657 1553Q632 1565 605 1576T541 1588Q510 1588 491 1579T459 1555T439 1525T426 1496H407Z"/><glyph unicode="Ä" horiz-adv-x="1316" d="M6 0V18L86 29Q96 31 112 38T148 64T189 118T231 207L326 436L373 563L578 1145L670 1436H707L741 1343L782 1225Q831 1086 872 969Q890 920 908 870T941 777T967 705T985 662Q991 639 1002 606T1024 545Q1036 510 1053 475L1204 55Q1214 20 1249 20L1335 18V0Q1278 0 1215 1T1094 2L799 0V18L930 27Q946 27 951 37T952 61L838 403L807 489H375L354 430L276 209Q253 150 246 114T243 59T267 33T322 25L406 18V0L201 2Q162 2 104 1T6 0ZM385 514L801 512L764 608L680 846Q674 866 661 903T634 980T610 1055T592 1108L399 555L385 514ZM402 1643Q402 1688 433 1719T510 1751Q553 1751 585 1720T617 1643Q617 1598 585 1566T510 1534Q465 1534 434 1566T402 1643ZM736 1643Q736 1688 767 1719T842 1751Q887 1751 919 1720T951 1643Q951 1598 919 1566T842 1534Q799 1534 768 1566T736 1643Z"/><glyph unicode="Å" horiz-adv-x="1316" d="M6 0V18L86 29Q96 31 112 38T148 64T189 118T231 207L326 436L373 563L578 1145L666 1425Q584 1431 535 1482T485 1616Q485 1702 544 1754T688 1806Q774 1806 832 1754T891 1616Q891 1538 841 1486T709 1425L741 1343L782 1225Q831 1086 872 969Q890 920 908 870T941 777T967 705T985 662Q991 639 1002 606T1024 545Q1036 510 1053 475L1204 55Q1214 20 1249 20L1335 18V0Q1278 0 1215 1T1094 2L799 0V18L930 27Q946 27 951 37T952 61L838 403L807 489H375L354 430L276 209Q253 150 246 114T243 59T267 33T322 25L406 18V0L201 2Q162 2 104 1T6 0ZM385 514L801 512L764 608L680 846Q674 866 661 903T634 980T610 1055T592 1108L399 555L385 514ZM580 1616Q580 1544 606 1491T688 1438Q743 1438 770 1491T797 1616Q797 1686 770 1740T688 1794Q635 1794 608 1743T580 1616Z"/><glyph unicode="Æ" horiz-adv-x="1771" d="M-66 0V18L-10 20Q21 20 41 46T84 113L758 1356Q778 1399 729 1399L610 1401V1419Q714 1419 843 1418T1090 1417Q1170 1417 1315 1418T1692 1419Q1694 1370 1694 1321T1696 1223Q1698 1174 1700 1123T1698 1026H1679Q1673 1061 1656 1120T1610 1239Q1585 1305 1538 1353T1434 1399L1198 1397L1083 1399Q1060 1399 1055 1386T1049 1358V1155L1047 952L1049 852V752Q1160 748 1247 766T1378 831Q1405 860 1422 913T1450 1038H1470L1450 842L1448 643L1473 449H1448Q1440 512 1426 555T1390 627T1343 675T1288 709Q1268 717 1238 722T1176 730T1109 733T1049 733L1047 539L1049 350L1047 158L1049 61Q1049 47 1055 34T1083 20H1307H1399Q1481 18 1538 68T1632 183T1688 307T1714 385Q1724 408 1728 428T1735 459H1751Q1751 402 1750 338T1745 217Q1741 164 1741 103T1735 0Q1657 0 1549 0T1327 1T1112 2T946 2Q848 2 761 1T629 0V18L780 20Q803 20 809 33T815 61V260L817 492H322L119 115Q96 76 112 48T162 20L258 18V0Q211 0 172 1T86 2Q47 2 10 1T-66 0ZM332 512H817V657L815 860L817 1057V1260V1378H801L332 512Z"/><glyph unicode="Ç" horiz-adv-x="1230" d="M74 688Q70 821 102 954T210 1193T402 1368T686 1442Q764 1444 825 1431T935 1401T1021 1371T1092 1360Q1115 1360 1128 1387T1147 1430H1159L1155 1329L1163 1047L1143 1042Q1133 1089 1117 1129T1083 1204Q1020 1317 915 1370Q819 1425 682 1423Q616 1421 563 1398T475 1333Q432 1288 410 1228T371 1098Q361 1059 355 1010T342 895Q342 854 340 806T342 698Q346 645 347 597T354 508Q364 436 375 384T395 301Q418 223 456 160T553 55Q590 30 636 15T741 4Q821 8 885 29T999 84Q1083 133 1125 217T1180 395H1198L1196 217L1210 33H1194Q1190 43 1177 59T1141 74Q1110 74 1074 61T991 31T884 0T743 -16H694V-137Q788 -137 854 -171T920 -287Q920 -365 843 -409T655 -453Q628 -453 597 -450T537 -438V-414Q566 -422 587 -424T625 -426Q691 -426 730 -392T770 -293Q770 -174 659 -168V-14Q509 -4 401 60T222 223T114 443T74 688Z"/><glyph unicode="È" horiz-adv-x="1181" d="M39 0V18L190 20Q213 20 219 33T225 61V260L227 461V657L225 860L227 1057V1260L225 1358Q225 1372 219 1385T190 1399L39 1401V1419Q143 1419 263 1418T500 1417Q580 1417 725 1418T1102 1419Q1104 1370 1104 1321T1106 1223Q1108 1174 1110 1123T1108 1026H1090Q1084 1061 1067 1120T1020 1239Q995 1305 948 1353T844 1399L608 1397L494 1399Q471 1399 465 1386T459 1358V1155L457 952L459 852V752Q570 748 657 766T788 831Q815 860 832 913T860 1038H881L860 842L858 643L883 449H858Q850 512 836 555T800 627T753 675T698 709Q678 717 648 722T586 730T519 733T459 733L457 539L459 350L457 158L459 61Q459 47 465 34T494 20H717H809Q891 18 948 68T1042 183T1098 307T1124 385Q1134 408 1138 428T1145 459H1161Q1161 402 1160 338T1155 217Q1151 164 1151 103T1145 0Q1067 0 959 0T738 1T523 2T356 2Q258 2 171 1T39 0ZM326 1841V1855H532L719 1493H705L326 1841Z"/><glyph unicode="É" horiz-adv-x="1181" d="M39 0V18L190 20Q213 20 219 33T225 61V260L227 461V657L225 860L227 1057V1260L225 1358Q225 1372 219 1385T190 1399L39 1401V1419Q143 1419 263 1418T500 1417Q580 1417 725 1418T1102 1419Q1104 1370 1104 1321T1106 1223Q1108 1174 1110 1123T1108 1026H1090Q1084 1061 1067 1120T1020 1239Q995 1305 948 1353T844 1399L608 1397L494 1399Q471 1399 465 1386T459 1358V1155L457 952L459 852V752Q570 748 657 766T788 831Q815 860 832 913T860 1038H881L860 842L858 643L883 449H858Q850 512 836 555T800 627T753 675T698 709Q678 717 648 722T586 730T519 733T459 733L457 539L459 350L457 158L459 61Q459 47 465 34T494 20H717H809Q891 18 948 68T1042 183T1098 307T1124 385Q1134 408 1138 428T1145 459H1161Q1161 402 1160 338T1155 217Q1151 164 1151 103T1145 0Q1067 0 959 0T738 1T523 2T356 2Q258 2 171 1T39 0ZM576 1508L762 1891H969V1876L590 1508H576Z"/><glyph unicode="Ê" horiz-adv-x="1181" d="M39 0V18L190 20Q213 20 219 33T225 61V260L227 461V657L225 860L227 1057V1260L225 1358Q225 1372 219 1385T190 1399L39 1401V1419Q143 1419 263 1418T500 1417Q580 1417 725 1418T1102 1419Q1104 1370 1104 1321T1106 1223Q1108 1174 1110 1123T1108 1026H1090Q1084 1061 1067 1120T1020 1239Q995 1305 948 1353T844 1399L608 1397L494 1399Q471 1399 465 1386T459 1358V1155L457 952L459 852V752Q570 748 657 766T788 831Q815 860 832 913T860 1038H881L860 842L858 643L883 449H858Q850 512 836 555T800 627T753 675T698 709Q678 717 648 722T586 730T519 733T459 733L457 539L459 350L457 158L459 61Q459 47 465 34T494 20H717H809Q891 18 948 68T1042 183T1098 307T1124 385Q1134 408 1138 428T1145 459H1161Q1161 402 1160 338T1155 217Q1151 164 1151 103T1145 0Q1067 0 959 0T738 1T523 2T356 2Q258 2 171 1T39 0ZM287 1493L559 1855H594L866 1493H846L578 1698L307 1493H287Z"/><glyph unicode="Ë" horiz-adv-x="1181" d="M39 0V18L190 20Q213 20 219 33T225 61V260L227 461V657L225 860L227 1057V1260L225 1358Q225 1372 219 1385T190 1399L39 1401V1419Q143 1419 263 1418T500 1417Q580 1417 725 1418T1102 1419Q1104 1370 1104 1321T1106 1223Q1108 1174 1110 1123T1108 1026H1090Q1084 1061 1067 1120T1020 1239Q995 1305 948 1353T844 1399L608 1397L494 1399Q471 1399 465 1386T459 1358V1155L457 952L459 852V752Q570 748 657 766T788 831Q815 860 832 913T860 1038H881L860 842L858 643L883 449H858Q850 512 836 555T800 627T753 675T698 709Q678 717 648 722T586 730T519 733T459 733L457 539L459 350L457 158L459 61Q459 47 465 34T494 20H717H809Q891 18 948 68T1042 183T1098 307T1124 385Q1134 408 1138 428T1145 459H1161Q1161 402 1160 338T1155 217Q1151 164 1151 103T1145 0Q1067 0 959 0T738 1T523 2T356 2Q258 2 171 1T39 0ZM244 1645Q244 1690 275 1721T352 1753Q395 1753 427 1722T459 1645Q459 1600 427 1568T352 1536Q307 1536 276 1567T244 1645ZM659 1645Q659 1690 691 1721T766 1753Q811 1753 842 1722T874 1645Q874 1600 843 1568T766 1536Q723 1536 691 1567T659 1645Z"/><glyph unicode="Ì" horiz-adv-x="718" d="M39 0V18L190 20Q219 20 226 33T233 61L231 481L233 725V973L236 1360Q236 1374 229 1387T193 1401L127 1403L41 1401V1419Q61 1419 81 1421T125 1423Q184 1423 242 1424T358 1425Q413 1425 477 1424T600 1423Q623 1423 642 1421T682 1419V1401L600 1403L528 1401Q499 1401 493 1388T487 1360L489 971V725L487 485L485 61Q485 47 491 34T526 20L680 18V0Q604 0 518 1T356 2Q278 2 198 1T39 0ZM74 1841V1855H281L467 1493H453L74 1841Z"/><glyph unicode="Í" horiz-adv-x="718" d="M39 0V18L190 20Q219 20 226 33T233 61L231 481L233 725V973L236 1360Q236 1374 229 1387T193 1401L127 1403L41 1401V1419Q61 1419 81 1421T125 1423Q184 1423 242 1424T358 1425Q413 1425 477 1424T600 1423Q623 1423 642 1421T682 1419V1401L600 1403L528 1401Q499 1401 493 1388T487 1360L489 971V725L487 485L485 61Q485 47 491 34T526 20L680 18V0Q604 0 518 1T356 2Q278 2 198 1T39 0ZM162 1493L348 1855H555V1841L176 1493H162Z"/><glyph unicode="Î" horiz-adv-x="718" d="M4 1493L276 1855H311L584 1493H563L295 1698L25 1493H4ZM39 0V18L190 20Q219 20 226 33T233 61L231 481L233 725V973L236 1360Q236 1374 229 1387T193 1401L127 1403L41 1401V1419Q61 1419 81 1421T125 1423Q184 1423 242 1424T358 1425Q413 1425 477 1424T600 1423Q623 1423 642 1421T682 1419V1401L600 1403L528 1401Q499 1401 493 1388T487 1360L489 971V725L487 485L485 61Q485 47 491 34T526 20L680 18V0Q604 0 518 1T356 2Q278 2 198 1T39 0Z"/><glyph unicode="Ï" horiz-adv-x="718" d="M21 1645Q21 1690 52 1721T129 1753Q172 1753 204 1722T236 1645Q236 1600 204 1568T129 1536Q84 1536 53 1568T21 1645ZM39 0V18L190 20Q219 20 226 33T233 61L231 481L233 725V973L236 1360Q236 1374 229 1387T193 1401L127 1403L41 1401V1419Q61 1419 81 1421T125 1423Q184 1423 242 1424T358 1425Q413 1425 477 1424T600 1423Q623 1423 642 1421T682 1419V1401L600 1403L528 1401Q499 1401 493 1388T487 1360L489 971V725L487 485L485 61Q485 47 491 34T526 20L680 18V0Q604 0 518 1T356 2Q278 2 198 1T39 0ZM355 1645Q355 1690 386 1721T461 1753Q506 1753 538 1722T570 1645Q570 1600 538 1568T461 1536Q418 1536 387 1568T355 1645Z"/><glyph unicode="Ð" horiz-adv-x="1437" d="M39 0V18L184 20Q207 20 213 33T219 61L221 162L225 262V461L227 561V729H59V750H227V760L225 858V1059L223 1159L221 1257L219 1358Q219 1372 213 1385T184 1399L39 1401V1417Q94 1417 168 1416T319 1415Q389 1415 451 1417T590 1419Q633 1419 701 1418T829 1411Q856 1407 879 1401T928 1386Q975 1366 1019 1344T1106 1286Q1143 1257 1176 1220T1241 1137Q1270 1094 1291 1043T1329 938Q1343 891 1350 827Q1354 798 1357 769T1360 709Q1360 678 1358 648T1352 590Q1340 486 1292 377Q1280 352 1268 329T1239 283Q1182 195 1104 133Q1084 117 1063 104T1020 76Q975 51 928 35T825 8Q813 6 783 4T714 1T634 0T557 0Q498 0 438 1T319 2Q274 2 237 1T152 0H39ZM457 557L459 358L463 162V61Q463 47 469 34T500 20H707Q738 20 765 24T819 35Q870 47 909 72Q932 84 947 100T979 135Q995 153 1006 174T1030 217Q1048 264 1061 317Q1067 350 1074 383T1085 451Q1095 498 1098 559Q1100 592 1101 629T1102 709Q1102 750 1101 784T1098 850Q1094 899 1091 947T1073 1044Q1067 1081 1059 1104Q1047 1149 1028 1195T977 1282Q961 1300 946 1316T907 1346Q827 1397 709 1399H500Q475 1399 469 1386T463 1358V1257L459 1159L457 958V750H784V729H457V557Z"/><glyph unicode="Ñ" horiz-adv-x="1351" d="M41 0V18L117 20Q183 24 204 64T225 174V1358Q225 1372 219 1385T190 1399L41 1401V1419Q90 1419 165 1420T305 1421Q366 1421 403 1420T485 1419L1159 387V1245Q1159 1325 1134 1360T1051 1399L973 1401V1419Q1008 1419 1058 1418T1169 1417Q1235 1417 1288 1418T1370 1419V1401L1294 1399Q1269 1397 1249 1390T1215 1366T1193 1320T1186 1245V-16H1147L252 1346V174Q252 108 276 67T360 20L438 18V0Q405 0 354 1T242 2Q176 2 122 1T41 0ZM458 1539Q464 1559 476 1595T512 1664T570 1723T653 1749Q700 1749 733 1736T788 1713Q815 1701 840 1688T907 1674Q938 1674 957 1684T989 1707T1008 1737T1022 1766H1040Q1034 1746 1022 1710T986 1640T929 1581T845 1555Q796 1555 766 1569T708 1596Q683 1608 656 1619T592 1631Q561 1631 542 1622T510 1598T490 1568T477 1539H458Z"/><glyph unicode="Ò" horiz-adv-x="1497" d="M68 713Q70 772 76 828T96 942Q112 995 133 1045T182 1139Q213 1184 247 1224T322 1294Q363 1331 411 1356T508 1399Q559 1417 616 1427T737 1436Q796 1436 851 1428T958 1403Q1007 1387 1053 1362T1143 1309Q1225 1250 1288 1161Q1317 1114 1340 1064T1380 961Q1396 902 1404 840T1413 711Q1411 645 1403 582T1378 463Q1351 354 1284 264Q1255 219 1220 181T1143 113Q1100 80 1053 59T958 18Q905 2 850 -6T737 -12Q612 -12 508 25Q457 45 412 68T326 127Q285 160 250 199T184 283Q153 330 134 379T98 483Q84 536 76 593T68 713ZM334 707Q334 629 339 568T348 455Q356 404 362 366T377 301Q391 235 423 181T502 86Q549 49 608 27T737 4Q805 4 867 26T977 88Q1071 170 1100 301Q1114 346 1130 455Q1136 506 1137 571T1143 711Q1143 785 1141 845T1130 958Q1124 1011 1116 1050T1098 1124Q1084 1190 1052 1244T973 1339Q879 1415 735 1419Q667 1417 607 1396T502 1337Q408 1255 375 1124Q369 1089 361 1050T346 958Q342 909 338 847T334 707ZM342 1841V1855H549L735 1493H721L342 1841Z"/><glyph unicode="Ó" horiz-adv-x="1497" d="M68 713Q70 772 76 828T96 942Q112 995 133 1045T182 1139Q213 1184 247 1224T322 1294Q363 1331 411 1356T508 1399Q559 1417 616 1427T737 1436Q796 1436 851 1428T958 1403Q1007 1387 1053 1362T1143 1309Q1225 1250 1288 1161Q1317 1114 1340 1064T1380 961Q1396 902 1404 840T1413 711Q1411 645 1403 582T1378 463Q1351 354 1284 264Q1255 219 1220 181T1143 113Q1100 80 1053 59T958 18Q905 2 850 -6T737 -12Q612 -12 508 25Q457 45 412 68T326 127Q285 160 250 199T184 283Q153 330 134 379T98 483Q84 536 76 593T68 713ZM334 707Q334 629 339 568T348 455Q356 404 362 366T377 301Q391 235 423 181T502 86Q549 49 608 27T737 4Q805 4 867 26T977 88Q1071 170 1100 301Q1114 346 1130 455Q1136 506 1137 571T1143 711Q1143 785 1141 845T1130 958Q1124 1011 1116 1050T1098 1124Q1084 1190 1052 1244T973 1339Q879 1415 735 1419Q667 1417 607 1396T502 1337Q408 1255 375 1124Q369 1089 361 1050T346 958Q342 909 338 847T334 707ZM477 1493L664 1855H870V1841L492 1493H477Z"/><glyph unicode="Ô" horiz-adv-x="1497" d="M68 713Q70 772 76 828T96 942Q112 995 133 1045T182 1139Q213 1184 247 1224T322 1294Q363 1331 411 1356T508 1399Q559 1417 616 1427T737 1436Q796 1436 851 1428T958 1403Q1007 1387 1053 1362T1143 1309Q1225 1250 1288 1161Q1317 1114 1340 1064T1380 961Q1396 902 1404 840T1413 711Q1411 645 1403 582T1378 463Q1351 354 1284 264Q1255 219 1220 181T1143 113Q1100 80 1053 59T958 18Q905 2 850 -6T737 -12Q612 -12 508 25Q457 45 412 68T326 127Q285 160 250 199T184 283Q153 330 134 379T98 483Q84 536 76 593T68 713ZM311 1493L584 1855H618L891 1493H870L602 1698L332 1493H311ZM334 707Q334 629 339 568T348 455Q356 404 362 366T377 301Q391 235 423 181T502 86Q549 49 608 27T737 4Q805 4 867 26T977 88Q1071 170 1100 301Q1114 346 1130 455Q1136 506 1137 571T1143 711Q1143 785 1141 845T1130 958Q1124 1011 1116 1050T1098 1124Q1084 1190 1052 1244T973 1339Q879 1415 735 1419Q667 1417 607 1396T502 1337Q408 1255 375 1124Q369 1089 361 1050T346 958Q342 909 338 847T334 707Z"/><glyph unicode="Õ" horiz-adv-x="1497" d="M70 713Q72 772 78 828T98 942Q114 995 135 1045T184 1139Q215 1184 249 1224T324 1294Q365 1331 413 1356T510 1399Q561 1417 618 1427T739 1436Q798 1436 853 1428T961 1403Q1010 1387 1056 1362T1145 1309Q1227 1250 1290 1161Q1319 1114 1342 1064T1383 961Q1399 902 1407 840T1415 711Q1413 645 1405 582T1380 463Q1353 354 1286 264Q1257 219 1222 181T1145 113Q1102 80 1055 59T961 18Q908 2 853 -6T739 -12Q614 -12 510 25Q459 45 414 68T328 127Q287 160 252 199T187 283Q156 330 137 379T100 483Q86 536 78 593T70 713ZM336 707Q336 629 341 568T350 455Q358 404 364 366T379 301Q393 235 425 181T504 86Q551 49 610 27T739 4Q807 4 869 26T979 88Q1073 170 1102 301Q1116 346 1133 455Q1139 506 1140 571T1145 711Q1145 785 1143 845T1133 958Q1127 1011 1119 1050T1100 1124Q1086 1190 1054 1244T975 1339Q881 1415 737 1419Q669 1417 609 1396T504 1337Q410 1255 377 1124Q371 1089 363 1050T348 958Q344 909 340 847T336 707ZM440 1536Q446 1556 458 1592T494 1661T552 1720T635 1746Q682 1746 715 1733T770 1710Q797 1698 822 1685T889 1671Q920 1671 939 1681T971 1704T990 1734T1004 1763H1022Q1016 1743 1004 1707T968 1637T911 1578T827 1552Q778 1552 748 1566T690 1593Q665 1605 638 1616T574 1628Q543 1628 524 1619T492 1595T472 1565T459 1536H440Z"/><glyph unicode="Ö" horiz-adv-x="1497" d="M76 713Q78 772 84 828T104 942Q120 995 141 1045T190 1139Q221 1184 255 1224T330 1294Q371 1331 419 1356T516 1399Q567 1417 624 1427T745 1436Q804 1436 859 1428T967 1403Q1016 1387 1062 1362T1151 1309Q1233 1250 1296 1161Q1325 1114 1348 1064T1389 961Q1405 902 1413 840T1421 711Q1419 645 1411 582T1386 463Q1359 354 1292 264Q1263 219 1228 181T1151 113Q1108 80 1061 59T967 18Q914 2 859 -6T745 -12Q620 -12 516 25Q465 45 420 68T334 127Q293 160 258 199T193 283Q162 330 143 379T106 483Q92 536 84 593T76 713ZM342 707Q342 629 347 568T356 455Q364 404 370 366T385 301Q399 235 431 181T510 86Q557 49 616 27T745 4Q813 4 875 26T985 88Q1079 170 1108 301Q1122 346 1139 455Q1145 506 1146 571T1151 711Q1151 785 1149 845T1139 958Q1133 1011 1125 1050T1106 1124Q1092 1190 1060 1244T981 1339Q887 1415 743 1419Q675 1417 615 1396T510 1337Q416 1255 383 1124Q377 1089 369 1050T354 958Q350 909 346 847T342 707ZM473 1639Q473 1684 504 1715T581 1747Q624 1747 656 1716T688 1639Q688 1594 656 1562T581 1530Q536 1530 505 1562T473 1639ZM807 1639Q807 1684 838 1715T913 1747Q958 1747 990 1716T1022 1639Q1022 1594 990 1562T913 1530Q870 1530 839 1562T807 1639Z"/><glyph unicode="×" horiz-adv-x="1024" d="M174 436L432 696L174 954L252 1030L510 772L770 1032L850 954L588 692L848 434L772 356L512 616L252 356L174 436Z"/><glyph unicode="Ø" horiz-adv-x="1497" d="M76 713Q78 772 84 828T104 942Q120 995 141 1045T190 1139Q221 1184 255 1224T330 1294Q371 1331 419 1356T516 1399Q567 1417 624 1427T745 1436Q804 1436 859 1428T967 1403Q1016 1387 1062 1362T1151 1309L1165 1296L1268 1434L1290 1419L1186 1280Q1219 1253 1245 1225T1296 1161Q1325 1114 1348 1064T1389 961Q1405 902 1413 840T1421 711Q1419 645 1411 582T1386 463Q1359 354 1292 264Q1263 219 1228 181T1151 113Q1108 80 1061 59T967 18Q914 2 859 -6T745 -12Q620 -12 516 25Q465 45 420 68T334 127Q332 127 328 131L193 -51L172 -37L309 147Q274 176 247 210T193 283Q162 330 143 379T106 483Q92 536 84 593T76 713ZM342 707Q342 629 347 568T356 455Q364 404 370 366T385 301Q387 291 389 282T395 262L1085 1190Q1069 1235 1043 1272T981 1339Q887 1415 743 1419Q675 1417 615 1396T510 1337Q416 1255 383 1124Q377 1089 369 1050T354 958Q350 909 346 847T342 707ZM406 233Q439 147 510 86Q557 49 616 27T745 4Q813 4 875 26T985 88Q1079 170 1108 301Q1122 346 1139 455Q1145 506 1146 571T1151 711Q1151 785 1149 845T1139 958Q1133 1011 1125 1050T1106 1124Q1104 1140 1096 1159L406 233Z"/><glyph unicode="Ù" horiz-adv-x="1454" d="M14 1401V1419Q80 1419 164 1417T313 1415Q374 1415 458 1417T614 1419V1401L471 1399Q442 1399 436 1386T430 1358V428Q430 246 507 143T766 39Q891 39 974 79T1106 183T1174 330T1194 496V1278Q1194 1337 1166 1366T1071 1399L981 1401V1419Q1008 1419 1071 1417T1206 1415Q1282 1415 1339 1417T1436 1419V1401L1346 1399Q1280 1395 1253 1367T1225 1278V494Q1225 256 1105 123T721 -10Q621 -10 526 11T357 84T238 220T193 430V1358Q193 1372 187 1385T158 1399L14 1401ZM424 1841V1855H631L817 1493H803L424 1841Z"/><glyph unicode="Ú" horiz-adv-x="1454" d="M14 1401V1419Q80 1419 164 1417T313 1415Q374 1415 458 1417T614 1419V1401L471 1399Q442 1399 436 1386T430 1358V428Q430 246 507 143T766 39Q891 39 974 79T1106 183T1174 330T1194 496V1278Q1194 1337 1166 1366T1071 1399L981 1401V1419Q1008 1419 1071 1417T1206 1415Q1282 1415 1339 1417T1436 1419V1401L1346 1399Q1280 1395 1253 1367T1225 1278V494Q1225 256 1105 123T721 -10Q621 -10 526 11T357 84T238 220T193 430V1358Q193 1372 187 1385T158 1399L14 1401ZM606 1493L793 1855H999V1841L621 1493H606Z"/><glyph unicode="Û" horiz-adv-x="1454" d="M14 1401V1419Q80 1419 164 1417T313 1415Q374 1415 458 1417T614 1419V1401L471 1399Q442 1399 436 1386T430 1358V428Q430 246 507 143T766 39Q891 39 974 79T1106 183T1174 330T1194 496V1278Q1194 1337 1166 1366T1071 1399L981 1401V1419Q1008 1419 1071 1417T1206 1415Q1282 1415 1339 1417T1436 1419V1401L1346 1399Q1280 1395 1253 1367T1225 1278V494Q1225 256 1105 123T721 -10Q621 -10 526 11T357 84T238 220T193 430V1358Q193 1372 187 1385T158 1399L14 1401ZM381 1493L653 1855H688L961 1493H940L672 1698L401 1493H381Z"/><glyph unicode="Ü" horiz-adv-x="1454" d="M14 1401V1419Q80 1419 164 1417T313 1415Q374 1415 458 1417T614 1419V1401L471 1399Q442 1399 436 1386T430 1358V428Q430 246 507 143T766 39Q891 39 974 79T1106 183T1174 330T1194 496V1278Q1194 1337 1166 1366T1071 1399L981 1401V1419Q1008 1419 1071 1417T1206 1415Q1282 1415 1339 1417T1436 1419V1401L1346 1399Q1280 1395 1253 1367T1225 1278V494Q1225 256 1105 123T721 -10Q621 -10 526 11T357 84T238 220T193 430V1358Q193 1372 187 1385T158 1399L14 1401ZM506 1639Q506 1684 537 1715T614 1747Q657 1747 689 1716T721 1639Q721 1594 689 1562T614 1530Q569 1530 538 1562T506 1639ZM840 1639Q840 1684 871 1715T946 1747Q991 1747 1023 1716T1055 1639Q1055 1594 1023 1562T946 1530Q903 1530 872 1562T840 1639Z"/><glyph unicode="Ý" horiz-adv-x="1253" d="M-8 1401V1419Q21 1419 56 1419T131 1418T206 1417T270 1417Q336 1417 416 1418T561 1419V1401L444 1399Q428 1399 422 1389T422 1364L741 705L788 791L1026 1280Q1038 1307 1037 1329T1026 1367T999 1390T963 1399L883 1401V1419H1079H1262V1401L1188 1399Q1153 1399 1123 1373T1073 1309L758 670V66Q758 52 764 39T793 25L920 18V0Q889 0 850 0T771 1T693 2T625 2Q559 2 478 1T332 0V18L455 25Q478 25 483 38T489 66V371V662L379 885L311 1030L229 1184L141 1362Q133 1378 122 1388T86 1399L-8 1401ZM588 1493L774 1855H981V1841L602 1493H588Z"/><glyph unicode="Þ" horiz-adv-x="1142" d="M39 0V18L190 20Q213 20 219 33T225 61L223 358L221 537V799L223 1049L225 1358Q225 1372 219 1385T190 1399L39 1401V1419Q105 1419 183 1418T328 1417Q338 1417 388 1417T496 1418T604 1419T664 1419V1401L582 1403L510 1401Q481 1401 475 1388T469 1360L471 1139Q528 1139 585 1140T678 1141Q739 1141 816 1127T958 1072T1069 960T1114 770Q1114 649 1072 568T962 440T807 374T633 354Q592 354 547 359T467 375L471 61Q471 47 477 34T506 20L680 18V0Q649 0 602 0T504 1T406 2T328 2Q262 2 183 1T39 0ZM467 397Q498 389 534 384T604 379Q733 379 792 475T852 762Q852 864 834 932T780 1043T693 1102T571 1120H504Q481 1120 476 1107T471 1079L467 752V397Z"/><glyph unicode="æ" horiz-adv-x="1726" d="M-66 0V18L-10 20Q21 20 41 46T84 113L758 1356Q778 1399 729 1399L610 1401V1419Q688 1419 765 1418T920 1417Q955 1417 1001 1417T1123 1418T1318 1419T1616 1419L1630 1026H1610Q1604 1061 1587 1124T1538 1243Q1503 1304 1455 1351T1360 1399H1055Q1032 1399 1026 1386T1020 1358V752Q1112 752 1175 765T1280 811T1343 899T1376 1038H1397V449H1374Q1362 545 1334 601T1261 687T1157 725T1020 733V61Q1020 47 1026 34T1055 20H1325Q1364 20 1399 35T1464 75T1518 132T1561 195Q1577 226 1593 264T1623 341T1644 410T1657 459H1677L1661 0Q1458 0 1330 0T1123 1T1000 2T920 2Q854 2 792 1T664 0V18L782 20Q805 20 811 33T817 61V492H322L119 115Q96 76 112 48T162 20L258 18V0Q211 0 172 1T86 2Q47 2 10 1T-66 0ZM332 512H817V1378H801L332 512Z"/><glyph unicode="÷" horiz-adv-x="1024" d="M90 639V752H934V639H90ZM406 389Q406 432 435 464T508 496Q553 496 583 465T614 389Q614 346 584 317T508 287Q465 287 436 317T406 389ZM406 997Q406 1040 435 1072T508 1104Q553 1104 583 1073T614 997Q614 954 584 925T508 895Q465 895 436 925T406 997Z"/><glyph unicode="ø" horiz-adv-x="1212" d="M29 -37L201 195Q131 299 99 433T66 709Q66 848 98 981T196 1217T363 1384T604 1448Q727 1448 824 1397T991 1253L1124 1434L1147 1419L1008 1233Q1076 1133 1111 998T1147 709Q1147 553 1111 418T1006 184T836 28T604 -29Q475 -29 378 25T215 172L49 -51L29 -37ZM291 709Q291 586 298 496T313 346L891 1120Q868 1257 797 1344T604 1432Q489 1432 419 1348T324 1128Q312 1062 302 963T291 709ZM319 311Q329 243 353 184T411 82T494 14T604 -12Q721 -12 792 73T889 291Q899 338 910 445T922 709Q922 836 914 928T895 1083L319 311Z"/><glyph unicode="Ł" horiz-adv-x="1107" d="M35 0V18L180 20Q209 20 216 33T223 61V616L47 510V537L223 643V1360Q223 1374 216 1387T180 1401H35V1419Q113 1419 191 1420T350 1421Q426 1421 521 1420T692 1419V1401H516Q487 1401 480 1388T473 1360V1063L475 864V776L743 940V915L475 748V612L473 61Q473 47 480 34T516 20L659 18Q763 18 833 47T948 135Q968 162 988 188T1025 248T1056 321T1081 420H1100L1063 0Q1038 0 982 0T855 0T707 1T558 2T431 2T350 2Q270 2 192 1T35 0Z"/><glyph unicode="Œ" horiz-adv-x="1927" d="M76 713Q78 772 84 828T104 942Q120 995 141 1045T190 1139Q221 1184 255 1224T330 1294Q371 1331 419 1356T516 1399Q616 1436 745 1436Q813 1436 845 1430T901 1419Q952 1419 991 1419T1067 1418T1146 1417T1245 1417Q1325 1417 1470 1418T1847 1419Q1849 1370 1849 1321T1851 1223Q1853 1174 1855 1123T1853 1026H1835Q1829 1061 1812 1120T1765 1239Q1740 1305 1694 1353T1589 1399L1354 1397L1239 1399Q1216 1399 1210 1386T1204 1358V1155L1202 952L1204 852V752Q1315 748 1403 766T1534 831Q1561 860 1578 913T1606 1038H1626L1606 842L1604 643L1628 449H1604Q1596 512 1582 555T1546 627T1499 675T1444 709Q1424 717 1394 722T1331 730T1265 733T1204 733L1202 539L1204 350L1202 158L1204 61Q1204 47 1210 34T1239 20H1462H1554Q1636 18 1693 68T1788 183T1844 307T1870 385Q1880 408 1884 428T1890 459H1907Q1907 402 1906 338T1901 217Q1897 164 1897 103T1890 0Q1812 0 1704 0T1483 1T1268 2T1102 2Q1053 2 1023 2T972 1T934 0T895 0Q856 -8 816 -10T745 -12Q620 -12 516 25Q465 45 420 68T334 127Q293 160 258 199T193 283Q162 330 143 379T106 483Q92 536 84 593T76 713ZM342 707Q342 629 347 568T356 455Q364 404 370 366T385 301Q399 235 431 181T510 86Q557 49 616 27T745 4Q862 4 917 45T973 152V709V1262Q973 1420 743 1419Q675 1419 615 1397T510 1337Q416 1255 383 1124Q377 1089 369 1050T354 958Q350 909 346 847T342 707Z"/><glyph unicode="œ" horiz-adv-x="1789" d="M66 709Q66 859 105 993T222 1228T407 1388T655 1448Q723 1448 767 1441T850 1419Q881 1419 903 1419T946 1418T989 1417T1044 1417Q1079 1417 1116 1417T1217 1418T1390 1419T1679 1419L1694 1026H1673Q1667 1061 1650 1124T1602 1243Q1567 1304 1519 1351T1423 1399H1118Q1095 1399 1089 1386T1083 1358V752Q1175 752 1239 765T1343 811T1407 899T1440 1038H1460V449H1438Q1426 545 1397 601T1324 687T1220 725T1083 733V61Q1083 47 1089 34T1118 20H1389Q1428 20 1462 35T1528 75T1582 132T1624 195Q1640 226 1656 264T1686 341T1708 410T1720 459H1741L1724 0Q1589 0 1493 0T1330 0T1218 1T1144 2T1092 2T1044 2Q1013 2 992 2T951 1T909 0T856 0Q817 -10 775 -19T655 -29Q516 -29 407 27T221 182T106 416T66 709ZM291 709Q291 586 302 458T350 226T459 55T655 -12Q772 -12 826 12T881 123V709V1284Q881 1331 868 1361T827 1406T756 1426T655 1432Q534 1432 462 1358T351 1175T302 939T291 709Z"/><glyph unicode="Š" horiz-adv-x="1013" d="M72 2L78 125V297L72 446H92Q100 362 133 283T219 140T346 38T510 0Q596 0 655 25T754 94T810 192T827 307Q827 375 798 421T719 502T608 562T477 614Q403 643 333 676T205 757T113 873T78 1040Q78 1120 109 1192T199 1319T341 1407T524 1440Q585 1440 634 1427T724 1398T794 1370T850 1358Q864 1358 876 1381T893 1417H911L915 1284V1135L911 993H893Q870 1081 842 1159T769 1295T664 1386T514 1419Q444 1419 390 1396T299 1335T243 1251T223 1159Q223 1093 252 1047T329 967T439 903T569 846Q643 815 715 778T845 690T939 567T975 393Q975 309 947 235T862 103T721 13T526 -20Q448 -20 390 -8T287 19T210 48T156 61Q123 61 110 38T92 2H72ZM225 1876H246L514 1671L784 1876H805L532 1513H498L225 1876Z"/><glyph unicode="Ÿ" horiz-adv-x="1253" d="M-8 1401V1419Q21 1419 56 1419T131 1418T206 1417T270 1417Q336 1417 416 1418T561 1419V1401L444 1399Q428 1399 422 1389T422 1364L741 705L788 791L1026 1280Q1038 1307 1037 1329T1026 1367T999 1390T963 1399L883 1401V1419H1079H1262V1401L1188 1399Q1153 1399 1123 1373T1073 1309L758 670V66Q758 52 764 39T793 25L920 18V0Q889 0 850 0T771 1T693 2T625 2Q559 2 478 1T332 0V18L455 25Q478 25 483 38T489 66V371V662L379 885L311 1030L229 1184L141 1362Q133 1378 122 1388T86 1399L-8 1401ZM319 1645Q319 1690 351 1721T428 1753Q471 1753 503 1722T535 1645Q535 1600 503 1568T428 1536Q383 1536 351 1567T319 1645ZM735 1645Q735 1690 767 1721T842 1753Q887 1753 918 1722T950 1645Q950 1600 919 1568T842 1536Q799 1536 767 1567T735 1645Z"/><glyph unicode="Ž" d="M33 0V23L203 367L375 698L520 983L635 1188L723 1360Q737 1389 736 1394T702 1399H446Q333 1399 267 1359T166 1264Q135 1213 122 1154T102 1063H82L96 1419H1004V1395L883 1161L694 782L606 612L483 371L315 59Q301 30 302 25T336 20H686Q770 20 832 66T930 166Q946 193 961 225T989 290T1010 349T1024 393H1042L1014 4L33 0ZM256 1876H276L545 1671L815 1876H836L563 1513H528L256 1876Z"/><glyph unicode="ƒ" horiz-adv-x="944" d="M-76 -326Q-76 -283 -48 -255T20 -227Q55 -227 78 -251T102 -313Q102 -323 98 -339T82 -370T48 -394T-10 -399L-14 -408Q2 -420 22 -428T74 -436Q135 -436 173 -394T234 -281T270 -113T291 92L344 739H92V758H346Q366 953 410 1085T514 1297T644 1413T791 1448Q869 1448 911 1406T954 1296Q954 1249 926 1219T854 1188Q815 1188 789 1212T762 1280Q762 1331 802 1362T897 1376L905 1382Q899 1396 874 1414T788 1432Q696 1432 645 1313T571 977L547 758H799V739H545Q520 415 478 189T377 -179T242 -386T74 -451Q4 -451 -36 -416T-76 -326Z"/><glyph unicode="ˆ" horiz-adv-x="614" d="M23 975L295 1358H330L602 975H582L313 1196L43 975H23Z"/><glyph unicode="ˇ" horiz-adv-x="614" d="M23 1399H43L311 1178L582 1399H602L330 1016H295L23 1399Z"/><glyph unicode="˘" horiz-adv-x="614" d="M43 1280H61Q73 1227 140 1188T307 1149Q409 1149 473 1185T551 1280H569Q561 1165 493 1098T307 1030Q192 1030 123 1098T43 1280Z"/><glyph unicode="˙" horiz-adv-x="614" d="M197 1147Q197 1192 230 1224T307 1257Q350 1257 384 1225T418 1147Q418 1102 385 1069T307 1036Q262 1036 230 1069T197 1147Z"/><glyph unicode="˚" horiz-adv-x="614" d="M104 1182Q104 1268 163 1320T307 1372Q393 1372 451 1320T510 1182Q510 1098 454 1045T307 991Q215 991 160 1043T104 1182ZM199 1182Q199 1110 225 1057T307 1004Q362 1004 389 1057T416 1182Q416 1252 389 1306T307 1360Q254 1360 227 1309T199 1182Z"/><glyph unicode="˛" horiz-adv-x="614" d="M129 -330Q129 -285 150 -241T209 -156T296 -75T403 0H422Q332 -66 291 -136T250 -270Q250 -336 287 -369T369 -403Q404 -403 428 -394T479 -365L485 -373Q456 -414 405 -446T289 -479Q217 -479 173 -439T129 -330Z"/><glyph unicode="˜" horiz-adv-x="614" d="M16 1047Q22 1067 34 1103T70 1172T128 1231T211 1257Q258 1257 291 1244T346 1221Q373 1209 398 1196T465 1182Q496 1182 515 1192T547 1215T566 1245T580 1274H598Q592 1254 580 1218T544 1148T487 1089T403 1063Q354 1063 324 1077T266 1104Q241 1116 214 1127T150 1139Q119 1139 100 1130T68 1106T48 1076T35 1047H16Z"/><glyph unicode="˝" horiz-adv-x="614" d="M147 995L293 1358H479V1343L162 995H147ZM391 995L578 1358H764V1343L406 995H391Z"/><glyph unicode="Ω" horiz-adv-x="1363" d="M82 311V336L428 719L82 1104V1126L600 719V717L82 311ZM274 0L682 662H684L1090 0H1065L682 469L297 0H274ZM274 1436H299L682 967L1067 1436H1090L682 774H680L274 1436ZM764 719V721L1282 1126V1102L936 719L1282 334V311L764 719Z"/><glyph unicode="π" horiz-adv-x="1634" d="M82 717Q82 869 139 1003T297 1237T530 1395T817 1454Q969 1454 1103 1396T1336 1237T1494 1003T1552 717Q1552 563 1494 430T1337 197T1103 39T817 -18Q663 -18 530 39T297 196T140 430T82 717ZM127 717Q127 574 181 447T329 224T548 74T817 18Q958 18 1084 73T1303 224T1451 446T1505 717Q1505 860 1451 987T1304 1209T1084 1361T817 1417Q674 1417 548 1361T329 1210T182 987T127 717ZM526 287V303L598 305Q612 305 615 312T618 330V1094Q618 1104 615 1111T598 1118L526 1120V1137H705H915Q952 1137 998 1129T1084 1096T1151 1028T1178 915Q1178 841 1149 793T1074 717T973 677T864 666Q839 666 813 669T764 678V330Q764 320 768 313T786 305L854 303V287H705H526ZM764 698Q784 694 807 690T854 686Q1016 686 1016 909Q1016 1032 969 1075T831 1118H786Q772 1118 768 1111T764 1094V698Z"/><glyph unicode="–" horiz-adv-x="942" d="M98 481V594H844V481H98Z"/><glyph unicode="—" horiz-adv-x="1335" d="M98 481V594H1237V481H98Z"/><glyph unicode="‘" horiz-adv-x="434" d="M80 1087Q80 1148 98 1207T152 1315T239 1399T358 1450L367 1432Q246 1399 178 1301T109 1073L119 1071Q142 1112 169 1126T231 1141Q284 1141 317 1109T350 1022Q350 971 316 936T225 901Q159 901 120 948T80 1087Z"/><glyph unicode="’" horiz-adv-x="434" d="M68 918Q189 951 257 1049T326 1276L315 1278Q292 1237 265 1223T203 1208Q150 1208 117 1240T84 1327Q84 1378 119 1413T209 1448Q275 1448 314 1401T354 1262Q354 1201 336 1142T282 1034T195 949T76 899L68 918Z"/><glyph unicode="‚" horiz-adv-x="434" d="M72 -297Q193 -264 261 -166T330 61L319 63Q296 22 269 8T207 -6Q154 -6 121 25T88 113Q88 164 123 198T213 233Q279 233 318 186T358 47Q358 -14 340 -72T286 -180T199 -265T80 -315L72 -297Z"/><glyph unicode="“" horiz-adv-x="749" d="M80 1090Q80 1151 98 1209T152 1317T239 1401T358 1452L367 1434Q246 1401 178 1303T109 1075L119 1073Q142 1114 169 1128T231 1143Q284 1143 317 1111T350 1024Q350 973 316 938T225 903Q159 903 120 950T80 1090ZM395 1090Q395 1151 413 1209T468 1317T555 1401T674 1452L682 1434Q561 1401 493 1303T424 1075L434 1073Q457 1114 484 1128T547 1143Q600 1143 633 1111T666 1024Q666 973 631 938T541 903Q475 903 435 950T395 1090Z"/><glyph unicode="”" horiz-adv-x="749" d="M68 918Q189 951 257 1049T326 1276L315 1278Q292 1237 265 1223T203 1208Q150 1208 117 1240T84 1327Q84 1378 119 1413T209 1448Q275 1448 314 1401T354 1262Q354 1201 336 1142T282 1034T195 949T76 899L68 918ZM383 918Q504 951 572 1049T641 1276L631 1278Q608 1237 581 1223T518 1208Q465 1208 432 1240T399 1327Q399 1378 434 1413T524 1448Q590 1448 630 1401T670 1262Q670 1201 652 1142T597 1034T510 949T391 899L383 918Z"/><glyph unicode="„" horiz-adv-x="749" d="M72 -297Q193 -264 261 -166T330 61L319 63Q296 22 269 8T207 -6Q154 -6 121 25T88 113Q88 164 123 198T213 233Q279 233 318 186T358 47Q358 -14 340 -72T286 -180T199 -265T80 -315L72 -297ZM72 -297Q193 -264 261 -166T330 61L319 63Q296 22 269 8T207 -6Q154 -6 121 25T88 113Q88 164 123 198T213 233Q279 233 318 186T358 47Q358 -14 340 -72T286 -180T199 -265T80 -315L72 -297ZM387 -297Q508 -264 576 -166T645 61L635 63Q612 22 585 8T522 -6Q469 -6 436 25T403 113Q403 164 438 198T528 233Q594 233 634 186T674 47Q674 -14 656 -72T601 -180T514 -265T395 -315L387 -297Z"/><glyph unicode="†" horiz-adv-x="974" d="M18 844Q18 860 46 867T129 891Q125 903 121 913Q115 931 115 946Q115 954 121 961T137 969Q153 969 178 941T250 893Q273 883 294 877T342 866T401 860T479 858Q477 971 460 1054T422 1191T385 1272T369 1307Q369 1323 381 1323Q395 1323 432 1307L461 1427Q465 1443 469 1452T489 1462Q509 1462 516 1427L543 1307Q580 1323 594 1323Q606 1323 606 1307Q606 1301 590 1273T553 1191T515 1054T496 858Q574 860 627 866T725 893Q772 916 796 942T838 969Q856 969 856 956Q856 950 855 939T852 918Q850 906 848 891Q903 875 929 868T956 844Q956 826 930 820T846 803Q848 789 852 778Q854 768 856 759T858 745Q858 729 842 729Q836 729 816 746T755 785T653 824T496 842Q498 566 514 370T548 48T582 -138T598 -207Q598 -217 584 -217Q570 -217 539 -197L516 -313Q510 -352 489 -352Q464 -352 459 -313L436 -197Q405 -217 391 -217Q377 -217 377 -207Q377 -199 392 -139T426 48T460 370T479 842Q387 842 324 825T221 786T162 747T135 729Q115 729 115 748Q115 762 121 780Q125 790 129 803Q72 813 45 819T18 844Z"/><glyph unicode="‡" horiz-adv-x="974" d="M37 160Q37 197 141 203L133 231Q127 251 127 266Q127 282 145 283Q165 283 188 258T252 213Q295 193 348 181T479 168Q479 303 458 398T397 545Q479 660 479 922Q405 922 345 908T242 870Q207 854 186 831T145 807Q127 807 127 823Q127 837 133 860Q137 872 141 887Q37 893 37 930Q37 957 141 973Q137 987 135 997Q129 1015 129 1032Q129 1046 150 1047Q168 1047 185 1029T233 993Q280 964 344 951T479 938Q473 1020 456 1084T420 1194T387 1266T373 1305Q373 1315 391 1315Q403 1315 438 1305L461 1419Q471 1464 487 1464Q499 1464 504 1453T514 1419L537 1305Q572 1315 584 1315Q602 1315 602 1305Q602 1295 587 1267T553 1195T518 1087T496 938Q654 938 745 995Q774 1011 791 1029T825 1047Q845 1047 846 1032Q846 1026 844 1017T840 997Q836 987 834 973Q887 963 912 955T938 930Q938 893 834 887Q836 873 840 860Q844 850 846 839T848 823Q848 807 829 807Q809 807 787 831T723 877Q680 897 627 909T496 922Q496 791 517 695T578 545Q537 488 518 394T496 168Q568 168 629 182T733 219Q768 235 789 259T829 283Q847 283 848 266Q848 258 846 252L834 203Q938 197 938 160Q938 144 913 136T834 117L844 70Q846 66 846 57Q846 43 825 43Q807 43 790 61T741 96Q645 151 496 152Q502 68 519 5T555 -104T587 -177T602 -215Q602 -225 584 -225Q572 -225 537 -215L512 -330Q508 -353 503 -364T487 -375Q475 -375 470 -364T461 -330L438 -215Q403 -225 391 -225Q373 -225 373 -215Q373 -205 388 -178T421 -106T457 3T479 152Q321 152 229 94Q200 78 183 61T150 43Q130 43 129 57Q129 73 135 92Q137 102 141 117Q86 123 62 133T37 160Z"/><glyph unicode="•" horiz-adv-x="708" d="M117 741Q117 790 135 833T186 908T262 958T354 977Q403 977 445 959T520 909T571 834T590 741Q590 692 572 649T520 575T444 524T352 504Q303 504 260 522T186 573T136 649T117 741Z"/><glyph unicode="…" horiz-adv-x="1277" d="M92 102Q92 151 128 187T213 223Q262 223 298 187T334 102Q334 53 298 18T213 -18Q164 -18 128 17T92 102ZM518 102Q518 151 554 187T639 223Q688 223 724 187T760 102Q760 53 724 18T639 -18Q590 -18 554 17T518 102ZM944 102Q944 151 980 187T1065 223Q1114 223 1150 187T1186 102Q1186 53 1150 18T1065 -18Q1016 -18 980 17T944 102Z"/><glyph unicode="‰" horiz-adv-x="2220" d="M61 1018Q61 1098 81 1174T140 1311T235 1410T367 1448Q443 1448 499 1409T594 1309T652 1171T672 1018Q672 938 652 861T593 724T498 626T367 588Q293 588 236 626T139 725T81 863T61 1018ZM221 1018Q221 957 224 885T241 750T284 644T367 602Q418 602 447 644T491 749T509 885T512 1018Q512 1077 509 1150T493 1285T450 1391T367 1434Q314 1434 285 1392T242 1288T224 1152T221 1018ZM334 0L1116 1419H1178L395 0H334ZM844 408Q844 488 864 564T923 701T1018 800T1149 838Q1225 838 1281 799T1376 699T1434 561T1454 408Q1454 328 1434 251T1375 114T1280 15T1149 -23Q1075 -23 1018 15T922 114T864 253T844 408ZM1004 408Q1004 347 1007 275T1024 140T1067 34T1149 -8Q1200 -8 1230 34T1274 139T1291 275T1294 408Q1294 467 1291 539T1275 674T1232 780T1149 823Q1096 823 1067 781T1024 677T1007 542T1004 408ZM1548 408Q1548 488 1568 564T1627 701T1722 800T1853 838Q1929 838 1985 799T2081 699T2139 561T2159 408Q2159 328 2139 251T2080 114T1985 15T1853 -23Q1779 -23 1722 15T1626 114T1568 253T1548 408ZM1708 408Q1708 347 1711 275T1728 140T1771 34T1853 -8Q1904 -8 1934 34T1978 139T1996 275T1999 408Q1999 467 1996 539T1980 674T1937 780T1853 823Q1800 823 1772 781T1729 677T1711 542T1708 408Z"/><glyph unicode="‹" horiz-adv-x="501" d="M51 516L459 907H469L248 516L469 125H459L51 516Z"/><glyph unicode="›" horiz-adv-x="501" d="M33 125L254 516L33 907H43L451 516L43 125H33Z"/><glyph unicode="⁄" horiz-adv-x="135" d="M-352 0L430 1419H492L-291 0H-352Z"/><glyph unicode="€" horiz-adv-x="1077" d="M59 582V600H178Q176 620 176 650T176 702Q176 727 177 762T180 819H59V838H182Q198 981 240 1094T345 1286T488 1406T662 1448Q732 1448 778 1430T856 1389T905 1348T938 1329Q954 1329 967 1344T983 1405H999V1001H981Q971 1091 946 1170T880 1307T786 1400T668 1434Q600 1434 549 1393T464 1274T412 1086T389 838H811V819H387V723Q387 694 387 660T389 600H811V582H389Q391 416 416 302T480 119T565 20T662 -10Q750 -10 806 51T909 207Q934 258 954 332T981 473H999V31H981Q973 68 963 87T934 106Q916 106 894 86T840 41T761 -4T651 -25Q553 -25 473 21T333 148T234 341T178 582H59Z"/><glyph unicode="™" horiz-adv-x="1259" d="M31 1233V1419H520V1233H504Q504 1272 493 1310T467 1366Q451 1384 425 1394T346 1405H332V883Q332 863 358 862L397 860V848H154V860L193 862Q220 862 219 883V1405H207Q154 1405 126 1395T82 1366Q70 1348 59 1309T47 1233H31ZM567 848V860Q608 862 616 866T625 895V1372Q625 1397 617 1401T567 1407V1419H741L889 1012L1042 1419H1214V1407L1186 1405Q1159 1401 1159 1384V883Q1159 863 1186 862L1214 860V848H989V860L1020 862Q1047 862 1047 883V1360L858 860H831L651 1358V895Q651 870 659 866T709 860V848H567Z"/><glyph unicode="∂" horiz-adv-x="1363" d="M82 311V336L428 719L82 1104V1126L600 719V717L82 311ZM274 0L682 662H684L1090 0H1065L682 469L297 0H274ZM274 1436H299L682 967L1067 1436H1090L682 774H680L274 1436ZM764 719V721L1282 1126V1102L936 719L1282 334V311L764 719Z"/><glyph unicode="∆" horiz-adv-x="1363" d="M82 311V336L428 719L82 1104V1126L600 719V717L82 311ZM274 0L682 662H684L1090 0H1065L682 469L297 0H274ZM274 1436H299L682 967L1067 1436H1090L682 774H680L274 1436ZM764 719V721L1282 1126V1102L936 719L1282 334V311L764 719Z"/><glyph unicode="∏" horiz-adv-x="1363" d="M82 311V336L428 719L82 1104V1126L600 719V717L82 311ZM274 0L682 662H684L1090 0H1065L682 469L297 0H274ZM274 1436H299L682 967L1067 1436H1090L682 774H680L274 1436ZM764 719V721L1282 1126V1102L936 719L1282 334V311L764 719Z"/><glyph unicode="∑" horiz-adv-x="1363" d="M82 311V336L428 719L82 1104V1126L600 719V717L82 311ZM274 0L682 662H684L1090 0H1065L682 469L297 0H274ZM274 1436H299L682 967L1067 1436H1090L682 774H680L274 1436ZM764 719V721L1282 1126V1102L936 719L1282 334V311L764 719Z"/><glyph unicode="−" horiz-adv-x="1024" d="M100 643V756H924V643H100Z"/><glyph unicode="√" horiz-adv-x="1220" d="M70 981V999H379L664 246L965 1325Q988 1403 1010 1424T1073 1434Q1096 1428 1105 1413T1113 1377T1104 1332T1085 1280L582 -14L551 -29L162 981H70Z"/><glyph unicode="∫" horiz-adv-x="1363" d="M82 311V336L428 719L82 1104V1126L600 719V717L82 311ZM274 0L682 662H684L1090 0H1065L682 469L297 0H274ZM274 1436H299L682 967L1067 1436H1090L682 774H680L274 1436ZM764 719V721L1282 1126V1102L936 719L1282 334V311L764 719Z"/><glyph unicode="≈" horiz-adv-x="1363" d="M82 311V336L428 719L82 1104V1126L600 719V717L82 311ZM274 0L682 662H684L1090 0H1065L682 469L297 0H274ZM274 1436H299L682 967L1067 1436H1090L682 774H680L274 1436ZM764 719V721L1282 1126V1102L936 719L1282 334V311L764 719Z"/><glyph unicode="≤" horiz-adv-x="1363" d="M82 311V336L428 719L82 1104V1126L600 719V717L82 311ZM274 0L682 662H684L1090 0H1065L682 469L297 0H274ZM274 1436H299L682 967L1067 1436H1090L682 774H680L274 1436ZM764 719V721L1282 1126V1102L936 719L1282 334V311L764 719Z"/><glyph unicode="≥" horiz-adv-x="1363" d="M82 311V336L428 719L82 1104V1126L600 719V717L82 311ZM274 0L682 662H684L1090 0H1065L682 469L297 0H274ZM274 1436H299L682 967L1067 1436H1090L682 774H680L274 1436ZM764 719V721L1282 1126V1102L936 719L1282 334V311L764 719Z"/><glyph unicode="◊" horiz-adv-x="1363" d="M82 311V336L428 719L82 1104V1126L600 719V717L82 311ZM274 0L682 662H684L1090 0H1065L682 469L297 0H274ZM274 1436H299L682 967L1067 1436H1090L682 774H680L274 1436ZM764 719V721L1282 1126V1102L936 719L1282 334V311L764 719Z"/><glyph unicode="" horiz-adv-x="1423" d="M0 0V1423H1423V0H0Z"/></font>
</defs>
</svg>
