<?xml version="1.0" encoding="UTF-8"?><svg xmlns="http://www.w3.org/2000/svg" width="100%" height="100%"><defs><font id="web" horiz-adv-x="978"><!--



NOTICE: This font software is the valuable property 
of Webtype LLC, The Font Bureau, Webtype and/or its 
suppliers and its use by you is covered under the terms 
of the Web Font license agreement between you and Webtype 
LLC. You may ONLY use this font software with the licensed 
web site. Except as specifically permitted by the license, 
you may not copy this font software. If you have any 
questions, please contact Webtype.com. 

For more information, please visit http://www.webtype.com/store/license/?id=23

Licensed to: washingtonpost.com

Serial number: SH-1203
--><font-face font-family="" units-per-em="2048" panose-1="2 0 5 6 8 0 0 2 0 4" ascent="1880" descent="-544" alphabetic="0"/><missing-glyph horiz-adv-x="1024"/><glyph unicode="&#13;" horiz-adv-x="0"/><glyph unicode=" " horiz-adv-x="425"/><glyph unicode="!" horiz-adv-x="536" d="M113 135Q113 201 158 246T268 291Q334 291 379 246T424 135Q424 69 379 25T268 -20Q202 -20 158 25T113 135ZM119 1194T119 1276Q119 1350 161 1397T268 1444Q336 1444 377 1398T418 1276Q418 1192 400 1108T360 933T320 741T301 524V424H236V524Q236 639 218 740T178 934T138 1110Z"/><glyph unicode="&quot;" horiz-adv-x="854" d="M72 1296Q72 1359 115 1403T225 1448Q311 1448 356 1389T401 1217Q401 1065 324 962T106 825L88 872Q211 913 265 988T319 1165V1194Q303 1171 278 1158T219 1145Q153 1145 113 1186T72 1296ZM457 1296Q457 1359 500 1403T610 1448Q696 1448 741 1389T786 1217Q786 1065 709 962T492 825L473 872Q596 913 650 988T705 1165V1194Q689 1171 663 1158T604 1145Q538 1145 498 1186T457 1296Z"/><glyph unicode="#" horiz-adv-x="1144" d="M82 352L135 518H360L426 737H180L231 905H473L575 1264H647L545 905H764L866 1264H938L836 905H1069L1016 737H788L723 518H971L918 352H678L578 0H506L606 352H387L287 0H215L315 352H82ZM432 518H653L719 737H496L432 518Z"/><glyph unicode="$" horiz-adv-x="1050" d="M49 250Q49 316 93 361T203 406Q238 406 264 393T308 359T335 313T344 260Q344 207 314 174T246 131Q258 111 294 83T399 45V635Q370 645 345 654T299 674Q190 729 134 812T78 1024Q78 1087 100 1146T165 1255T266 1341T399 1397V1507H453V1409Q500 1417 559 1417V1507H612V1415Q682 1411 744 1393T853 1345T926 1274T954 1184Q954 1108 911 1071T809 1034Q750 1034 708 1070T666 1176Q666 1221 698 1257T778 1298Q755 1325 709 1344T612 1368V819Q643 809 675 797T733 772Q850 721 916 636T983 418Q983 346 959 280T887 159T770 65T612 6V-139H559V-2Q532 -6 510 -7T453 -8V-139H399V-6Q331 -2 269 17T158 70T79 149T49 250ZM289 1122Q289 1081 294 1050T311 993T345 945T399 901V1331Q338 1296 314 1238T289 1122ZM453 41Q469 41 502 42T559 47V582Q532 592 506 600T453 616V41ZM453 874Q476 866 502 857T559 838V1368Q534 1368 505 1365T453 1354V874ZM612 63Q657 81 687 111T735 176T762 249T770 322Q770 420 733 475T612 563V63Z"/><glyph unicode="%" horiz-adv-x="1624" d="M66 1018Q66 1098 87 1174T152 1311T258 1410T403 1448Q487 1448 550 1409T656 1309T719 1171T741 1018Q741 938 720 861T655 724T549 626T403 588Q319 588 257 626T152 725T88 863T66 1018ZM291 1018Q291 932 294 863T308 742T342 663T403 635Q442 635 464 662T498 740T513 861T516 1018Q516 1098 513 1167T500 1289T466 1371T403 1401Q364 1401 342 1371T308 1289T294 1168T291 1018ZM381 0L1143 1419H1239L477 0H381ZM883 408Q883 488 904 564T969 701T1075 800T1221 838Q1305 838 1368 799T1474 699T1537 561T1559 408Q1559 328 1538 251T1473 114T1367 15T1221 -23Q1137 -23 1075 15T969 114T905 253T883 408ZM1108 408Q1108 322 1111 252T1125 131T1159 53T1221 25Q1260 25 1282 52T1316 130T1330 251T1333 408Q1333 488 1330 557T1317 679T1284 761T1221 791Q1182 791 1160 761T1126 679T1111 557T1108 408Z"/><glyph unicode="&amp;" horiz-adv-x="1259" d="M31 367Q31 455 52 523T115 644T214 735T344 803Q297 871 269 919T224 1005T201 1076T195 1139Q195 1200 217 1256T285 1355T398 1422T557 1448Q623 1448 685 1434T796 1388T873 1305T903 1180Q903 1106 875 1052T802 959T704 894T598 850L930 328Q967 385 990 448T1028 572T1048 684T1055 768H899V827H1272V768H1130Q1128 735 1120 681T1094 560T1043 419T961 276L1100 59H1264V0H842L780 100Q714 34 630 3T428 -29Q342 -29 269 1T143 83T61 208T31 367ZM301 471Q301 381 318 307T371 181T456 100T571 70Q643 70 690 96T754 145L369 758Q340 725 321 657T301 471ZM432 1225Q432 1168 463 1088T571 895Q610 915 632 947T666 1016T681 1092T684 1169Q684 1275 656 1335T557 1395Q491 1395 462 1346T432 1225Z"/><glyph unicode="'" horiz-adv-x="468" d="M70 1296Q70 1359 114 1403T225 1448Q311 1448 357 1389T403 1217Q403 1065 325 962T106 825L88 872Q211 913 265 988T319 1165V1192Q303 1169 278 1156T219 1143Q153 1143 112 1185T70 1296Z"/><glyph unicode="(" horiz-adv-x="679" d="M70 479Q70 616 99 734T176 950T281 1127T397 1267T504 1374T582 1448L629 1415Q596 1380 562 1344T496 1259T433 1144T381 985T345 769T332 479Q332 229 361 71T435 -188T531 -347T629 -457L582 -489Q553 -460 504 -416T398 -310T282 -169T176 8T100 223T70 479Z"/><glyph unicode=")" horiz-adv-x="679" d="M51 -457Q96 -406 148 -348T245 -189T318 70T348 479Q348 645 335 769T299 985T247 1143T185 1258T117 1343T51 1415L98 1448Q127 1419 176 1374T282 1268T398 1128T504 951T580 734T610 479Q610 342 581 224T504 8T399 -169T283 -309T176 -416T98 -489L51 -457Z"/><glyph unicode="*" horiz-adv-x="649" d="M31 1210Q31 1249 55 1276T121 1303Q156 1303 181 1276T207 1212V1200L305 1169V1272Q276 1280 257 1302T238 1358Q238 1397 263 1422T326 1448Q365 1448 391 1423T418 1358Q418 1327 397 1304T342 1272V1169L440 1200V1212Q440 1249 466 1276T526 1303Q567 1303 591 1276T616 1210Q616 1167 589 1146T524 1124Q477 1124 453 1161L356 1130L418 1049Q434 1057 457 1057Q498 1057 521 1032T545 969Q545 930 520 905T453 879Q414 879 392 907T369 973Q369 1002 385 1024L324 1108L262 1024Q278 1001 279 973Q279 936 256 908T195 879Q154 879 128 904T102 969Q102 1006 126 1031T190 1057Q213 1057 229 1049L291 1130L195 1161Q170 1124 123 1124Q86 1124 59 1145T31 1210Z"/><glyph unicode="+" horiz-adv-x="1024" d="M90 483V612H449V969H573V612H934V483H573V125H449V483H90Z"/><glyph unicode="," horiz-adv-x="468" d="M72 145Q72 208 116 252T227 297Q313 297 359 238T406 66Q406 -86 327 -189T109 -326L90 -279Q213 -238 267 -163T322 14V41Q306 18 280 5T221 -8Q155 -8 114 34T72 145Z"/><glyph unicode="-" horiz-adv-x="663" d="M96 455V635H567V455H96Z"/><glyph unicode="." horiz-adv-x="466" d="M78 135Q78 201 123 246T233 291Q299 291 344 246T389 135Q389 69 344 25T233 -20Q167 -20 123 25T78 135Z"/><glyph unicode="/" horiz-adv-x="634" d="M-137 -430L516 1448H627L-27 -430H-137Z"/><glyph unicode="0" horiz-adv-x="1077" d="M51 711Q51 846 82 978T173 1214T324 1383T539 1448Q664 1448 756 1381T908 1207T997 969T1026 711Q1026 576 996 444T905 207T753 38T539 -27Q414 -27 323 38T171 209T81 446T51 711ZM334 652T334 572T338 409T352 251T383 131Q412 70 452 49T539 27Q586 27 627 47T694 131Q714 178 724 252T739 409T743 572T743 711Q743 772 743 854T738 1018T723 1172T694 1290Q665 1353 626 1374T539 1395Q492 1395 452 1375T383 1290Q365 1247 355 1174T339 1017T334 853T334 711Q334 652 334 572Z"/><glyph unicode="1" horiz-adv-x="669" d="M18 1270Q165 1311 262 1357T414 1438H479V57H647V0H49V57H219V1270L31 1219L18 1270Z"/><glyph unicode="2" horiz-adv-x="960" d="M35 0V139Q78 166 128 202T229 281T332 373T426 477Q522 596 568 722T614 1018Q614 1088 602 1151T563 1262T490 1338T377 1366Q330 1366 287 1353T212 1314T161 1251T141 1165Q141 1145 144 1126T154 1098Q168 1133 195 1147T260 1161Q317 1161 349 1122T381 1022Q381 959 337 921T229 883Q182 883 149 904T95 960T65 1037T55 1122Q55 1173 80 1231T159 1338T294 1418T485 1450Q573 1450 647 1424T774 1348T857 1230T887 1077Q887 934 829 814T678 592T473 399T252 227H854L879 420H940L909 0H35Z"/><glyph unicode="3" horiz-adv-x="948" d="M12 227Q12 293 55 340T168 387Q205 387 231 374T274 339T299 292T307 240Q307 183 277 151T209 109Q215 97 227 83T262 56T318 34T399 25Q462 25 507 56T579 138T618 251T631 379Q631 549 567 640T365 731Q336 731 296 720T229 709Q206 709 186 719T166 760Q166 783 186 794T229 805Q254 805 294 796T358 786Q481 786 530 870T580 1139Q580 1188 572 1235T543 1318T489 1375T406 1397Q355 1397 316 1381T254 1335Q305 1331 335 1296T365 1212Q365 1140 327 1103T227 1065Q168 1065 122 1104T76 1221Q76 1274 107 1317T191 1389T309 1434T440 1450Q524 1450 600 1427T734 1360T826 1258T860 1124Q860 1050 824 990T734 884T615 807T487 766Q569 754 646 728T782 657T876 547T911 393Q911 291 866 213T747 81T576 -1T377 -29Q307 -29 242 -12T125 40T43 121T12 227Z"/><glyph unicode="4" horiz-adv-x="1009" d="M-6 379V455Q78 607 155 732T310 971T468 1197T639 1432H772V446H913V600H969V225H913V379H772V57H926V0H358V57H514V379H-6ZM66 446H514V1151Q440 1045 387 968T286 816T187 655T66 446Z"/><glyph unicode="5" horiz-adv-x="944" d="M18 225Q18 291 61 338T174 385Q244 385 278 340T313 238Q313 181 283 149T215 106Q227 83 271 55T401 27Q467 27 510 63T579 157T616 286T627 430Q627 500 617 567T580 688T508 775T393 809Q362 809 329 800T263 775T205 735T162 682L102 709L152 1415H688Q731 1415 754 1424T790 1447T809 1476T821 1507L872 1493L819 1292Q786 1171 641 1171H199L170 788Q188 802 218 816T283 843T359 863T438 870Q530 870 615 839T764 751T868 614T907 438Q907 338 864 253T749 106T581 8T379 -27Q309 -27 244 -10T128 40T48 119T18 225Z"/><glyph unicode="6" horiz-adv-x="1034" d="M53 573Q53 778 120 935T304 1200T573 1370T899 1444L907 1386Q831 1378 734 1336T548 1217T396 1024T324 760Q375 852 449 886T606 920Q694 920 766 882T888 780T965 632T993 461Q993 352 954 263T850 110T700 9T524 -27Q413 -27 327 23T179 158T85 349T53 573ZM324 518Q324 469 326 412T335 297T355 189T391 98Q414 63 448 45T524 27Q567 27 604 45T664 98Q703 164 710 261T717 449Q717 512 711 582T687 712T632 811T537 850Q494 850 457 832T394 783T351 713T330 635Q324 594 324 518Z"/><glyph unicode="7" horiz-adv-x="915" d="M47 993L90 1419H946V1364Q827 1171 747 1033T616 789T544 599T522 434Q522 375 527 332T537 254T548 187T553 113Q553 52 519 10T418 -33Q350 -33 307 9T264 170Q264 293 314 420T440 676T605 934T772 1188H137L104 993H47Z"/><glyph unicode="8" horiz-adv-x="1048" d="M45 371Q45 459 86 526T184 640T305 712T414 750Q369 760 313 783T206 847T122 947T88 1092Q88 1168 124 1234T219 1348T358 1424T524 1452Q612 1452 691 1425T830 1349T926 1234T961 1092Q961 1008 925 948T839 846T732 782T635 750Q682 740 745 713T866 640T964 527T1004 371Q1004 283 963 208T855 80T702 -4T524 -35Q428 -35 342 -4T190 80T84 208T45 371ZM324 371Q324 287 337 209T377 90Q400 51 439 35T524 18Q569 18 609 34T672 90Q701 133 713 210T725 371Q725 404 722 441T713 515T697 582T672 637Q649 676 609 698T524 721Q479 721 439 699T377 637Q363 614 353 584T336 516T327 441T324 371ZM365 1094Q365 1028 372 964T401 856Q419 819 451 797T524 774Q565 774 597 796T647 856Q670 899 677 967T684 1094Q684 1153 677 1220T647 1329Q629 1364 597 1381T524 1399Q483 1399 452 1382T401 1329Q378 1288 372 1223T365 1094Z"/><glyph unicode="9" horiz-adv-x="1034" d="M41 961Q41 1067 80 1157T184 1311T334 1412T510 1448Q621 1448 708 1398T856 1264T949 1073T981 848Q981 643 914 485T731 215T463 42T135 -33L127 25Q205 33 303 77T489 201T640 395T711 662Q660 570 585 536T428 502Q340 502 269 540T147 642T69 788T41 961ZM317 973Q317 910 323 839T349 709T404 610T500 571Q543 571 578 589T641 639T684 709T705 786Q709 806 710 837T711 903Q711 952 708 1010T698 1126T676 1236T641 1323Q621 1358 586 1376T510 1395Q467 1395 430 1377T371 1323Q332 1257 325 1160T317 973Z"/><glyph unicode=":" horiz-adv-x="507" d="M98 135Q98 201 143 246T254 291Q320 291 365 246T410 135Q410 69 365 25T254 -20Q188 -20 143 25T98 135ZM98 707Q98 773 143 817T254 862Q320 862 365 818T410 707Q410 641 365 596T254 551Q188 551 143 596T98 707Z"/><glyph unicode=";" horiz-adv-x="509" d="M92 145Q92 208 136 252T248 297Q334 297 380 238T426 66Q426 -86 347 -189T129 -326L111 -279Q234 -238 288 -163T342 14V41Q326 18 300 5T242 -8Q176 -8 134 34T92 145ZM98 707Q98 773 143 817T254 862Q320 862 365 818T410 707Q410 641 365 596T254 551Q188 551 143 596T98 707Z"/><glyph unicode="=" horiz-adv-x="1024" d="M104 328V457H920V328H104ZM104 637V766H920V637H104Z"/><glyph unicode="?" horiz-adv-x="768" d="M45 1192Q45 1247 72 1293T146 1373T252 1425T377 1444Q449 1444 512 1424T623 1364T699 1269T727 1139Q727 1073 709 1015T659 906T586 814T502 739Q410 669 371 617T332 504Q332 488 333 463T336 414H281Q273 441 264 472T246 536T233 600T227 655Q227 733 267 802T369 934Q396 961 425 989T479 1051T520 1127T537 1223Q537 1303 485 1346T356 1389Q297 1389 253 1365T188 1313V1300Q247 1296 279 1265T311 1182Q311 1131 276 1091T180 1051Q123 1051 84 1088T45 1192ZM178 135Q178 201 223 246T334 291Q400 291 444 246T489 135Q489 69 444 25T334 -20Q268 -20 223 25T178 135Z"/><glyph unicode="@" horiz-adv-x="1869" d="M174 377Q174 588 257 774T514 1108Q760 1317 1083 1317Q1226 1317 1344 1275T1544 1155T1671 965T1716 711Q1716 580 1677 460T1573 248T1422 102T1243 47Q1126 47 1071 85T993 209Q936 141 882 102T739 63Q686 63 648 81T587 132T552 208T541 301Q541 405 573 517T665 721T808 873T989 934Q1057 934 1096 900T1163 809L1186 911H1309L1421 926L1233 299Q1225 274 1222 244T1219 197Q1219 109 1276 109Q1292 109 1325 116T1405 162Q1520 254 1582 402T1645 729Q1645 840 1608 930T1497 1096Q1429 1168 1324 1206T1098 1245Q791 1245 571 1032Q508 971 460 893T380 726T332 542T315 350Q315 84 475 -82Q561 -170 680 -221T946 -272Q1100 -272 1229 -222T1487 -74L1522 -121Q1381 -227 1239 -284T930 -342Q764 -342 632 -296T401 -162Q174 41 174 377ZM772 256Q772 150 829 150Q852 150 877 165T926 200T969 243T1001 281L1143 743Q1137 761 1129 783T1109 822T1082 851T1040 862Q1015 862 984 838T909 737Q880 688 856 626T813 499T784 371T772 256Z"/><glyph unicode="A" horiz-adv-x="1163" d="M-33 0V59H96L522 1425H647L1067 59H1196V0H637V59H793L670 459H297L172 59H332V0H-33ZM315 518H651L485 1063L315 518Z"/><glyph unicode="B" horiz-adv-x="1177" d="M25 0V59H176V1360H25V1419H643Q717 1419 792 1403T931 1349T1035 1249T1075 1094Q1075 961 999 876T737 752Q809 748 879 723T1005 654T1094 545T1128 397Q1128 288 1093 213T995 90T844 22T651 0H25ZM446 59H614Q692 59 736 91T801 172T827 280T831 395Q831 487 819 548T774 647T683 699T532 715H446V59ZM446 772H532Q610 772 658 787T733 842T769 945T778 1106Q778 1188 764 1238T719 1314T640 1350T522 1360H446V772Z"/><glyph unicode="C" horiz-adv-x="1116" d="M49 709Q49 846 83 979T187 1216T367 1384T627 1448Q697 1448 752 1435T847 1404T913 1373T952 1360Q972 1360 982 1382T997 1417H1055V987H995Q970 1061 943 1132T873 1262T774 1357T635 1393Q520 1393 458 1322T377 1112Q367 1044 359 953T350 709Q350 631 353 572T360 465T369 381T377 309Q393 166 456 97T641 27Q725 27 783 65T882 165T949 303T1001 453H1061V2H1004Q1000 14 990 36T958 59Q946 59 920 46T853 16T758 -15T633 -29Q479 -29 369 35T188 204T83 441T49 709Z"/><glyph unicode="D" horiz-adv-x="1265" d="M25 0V59H176V1360H25V1419H631Q762 1419 870 1365T1056 1216T1175 991T1217 709Q1217 557 1174 428T1054 204T870 55T631 0H25ZM446 59H606Q723 59 797 128T893 324Q897 347 901 378T909 455T916 561T920 709Q920 869 913 960T895 1098Q872 1215 798 1287T608 1360H446V59Z"/><glyph unicode="E" horiz-adv-x="1122" d="M25 0V59H176V1360H25V1419H1028L1042 1022H985Q979 1055 962 1108T913 1217Q878 1278 826 1319T727 1360H446V772Q538 772 592 782T678 822T723 904T750 1040H807V444H748Q734 540 713 594T659 674T574 706T446 713V59H692Q770 59 833 100T932 205Q948 236 964 273T995 348T1019 415T1032 463H1090L1061 0H25Z"/><glyph unicode="F" horiz-adv-x="1069" d="M25 0V59H176V1360H25V1419H1034L1049 1006H991Q985 1041 968 1101T920 1217Q885 1278 832 1319T731 1360H446V760Q542 760 598 771T687 812T733 894T760 1030H817V434H758Q744 530 723 584T667 664T579 696T446 702V59H600V0H25Z"/><glyph unicode="G" horiz-adv-x="1224" d="M49 709Q49 844 85 976T194 1213T380 1383T645 1448Q715 1448 769 1435T863 1406T928 1378T967 1364Q987 1364 997 1384T1012 1417H1069V991H1010Q985 1065 958 1136T888 1264T789 1357T649 1393Q532 1393 464 1320T375 1108Q365 1042 358 952T350 709Q350 631 352 572T357 466T364 381T373 305Q406 20 649 20Q676 20 704 26T758 45T803 73T831 113V510H674V569H1235V510H1102V121Q1065 90 1011 63T895 15T768 -17T645 -29Q487 -29 375 35T190 204T83 441T49 709Z"/><glyph unicode="H" horiz-adv-x="1329" d="M25 0V59H176V1360H25V1419H596V1360H446V770H883V1360H733V1419H1305V1360H1153V59H1294V0H733V59H883V707H446V59H592V0H25Z"/><glyph unicode="I" horiz-adv-x="622" d="M25 0V59H176V1360H25V1419H602V1360H446V59H602V0H25Z"/><glyph unicode="J" horiz-adv-x="647" d="M-211 -225Q-211 -166 -170 -122T-68 -78Q-7 -78 30 -115T68 -211Q68 -240 56 -278T2 -338V-350Q12 -354 26 -356T53 -358Q119 -358 161 -296T203 -84V1360H51V1419H657V1360H473V80Q473 -24 446 -114T363 -270T226 -373T39 -410Q-84 -410 -147 -358T-211 -225Z"/><glyph unicode="K" horiz-adv-x="1234" d="M25 0V59H176V1360H25V1419H596V1360H446V737H489L958 1360H797V1419H1198V1360H1053L682 877L1159 59H1292V0H705V59H846L492 678H446V59H592V0H25Z"/><glyph unicode="L" horiz-adv-x="1052" d="M25 0V59H176V1360H25V1419H598V1360H446V59H635Q719 59 782 100T881 205Q897 236 913 273T943 347T966 413T983 463H1040L1012 0H25Z"/><glyph unicode="M" horiz-adv-x="1581" d="M25 0V59H176V1360H25V1419H528L782 461L1055 1419H1546V1360H1405V59H1546V0H985V59H1135V1358H1116L727 0H633L270 1358H252V59H406V0H25Z"/><glyph unicode="N" horiz-adv-x="1269" d="M25 0V59H176V1360H25V1419H467L1024 399V1360H866V1419H1251V1360H1100V-16H944L252 1264V59H410V0H25Z"/><glyph unicode="O" horiz-adv-x="1249" d="M49 709Q49 846 83 979T187 1216T366 1384T623 1448Q762 1448 869 1392T1050 1237T1162 1004T1200 709Q1200 549 1162 414T1051 181T870 27T623 -29Q476 -29 367 34T188 202T83 439T49 709ZM348 709Q348 631 350 572T355 465T361 380T369 307Q385 160 451 95T623 29Q729 29 797 95T881 307Q885 348 888 387T894 471T899 573T901 709Q901 861 894 955T881 1114Q865 1261 797 1327T623 1393Q519 1393 452 1324T369 1114Q361 1048 355 955T348 709Z"/><glyph unicode="P" horiz-adv-x="1122" d="M25 0V59H176V1360H25V1419H662Q723 1419 798 1405T940 1350T1050 1237T1094 1047Q1094 926 1053 845T947 715T797 646T625 625Q535 625 446 643V59H598V0H25ZM446 707Q483 697 514 694T571 690Q686 690 741 773T797 1038Q797 1140 780 1204T729 1302T647 1348T535 1360H446V707Z"/><glyph unicode="Q" horiz-adv-x="1249" d="M49 709Q49 846 83 979T187 1216T366 1384T623 1448Q762 1448 869 1392T1050 1237T1162 1004T1200 709Q1200 574 1173 457T1093 247T963 90T784 -4Q784 -39 784 -75T789 -145T807 -212T842 -270Q885 -321 941 -339T1063 -358Q1098 -358 1132 -353T1186 -344V-401Q1174 -405 1144 -409T1076 -419T997 -427T922 -430Q830 -430 737 -408T584 -330Q551 -299 532 -268T501 -198T485 -114T481 -10Q370 19 289 90T154 259T75 473T49 709ZM348 709Q348 631 350 572T355 466T361 382T369 309Q385 162 451 96T623 29Q729 29 797 96T881 309Q885 350 888 388T894 472T899 574T901 709Q901 861 894 955T881 1114Q865 1261 797 1327T623 1393Q519 1393 452 1324T369 1114Q361 1048 355 955T348 709Z"/><glyph unicode="R" horiz-adv-x="1259" d="M25 0V59H176V1360H25V1419H662Q723 1419 798 1406T940 1355T1050 1250T1094 1071Q1094 979 1061 920T977 821T863 762T735 727Q770 715 808 702T883 669T953 620T1016 543Q1045 496 1053 428T1067 297Q1073 227 1081 181T1102 108T1131 68T1174 55Q1205 55 1232 66T1282 90L1305 37Q1258 10 1200 -10T1075 -31Q1016 -31 963 -16T867 41T798 152T766 336Q764 377 762 421T754 506T737 582T705 643Q680 672 646 681T580 690H446V59H596V0H25ZM446 756Q542 756 609 764T717 803T776 895T795 1063Q795 1157 778 1215T727 1306T645 1349T532 1360H446V756Z"/><glyph unicode="S" horiz-adv-x="1052" d="M63 0V477H123Q137 407 166 329T242 184T358 73T524 29Q598 29 648 52T730 113T775 198T788 295Q788 324 784 354T765 415T721 475T643 526Q575 557 489 580T311 645Q200 694 138 782T76 1018Q76 1104 106 1182T196 1319T341 1413T535 1448Q601 1448 653 1437T743 1412T808 1388T846 1376Q862 1376 872 1389T887 1419H946V975H885Q867 1045 843 1118T779 1253T677 1354T522 1393Q409 1393 348 1322T287 1151Q287 1118 292 1086T313 1022T359 964T438 913Q506 882 592 859T770 795Q883 744 946 660T1010 440Q1010 342 976 256T877 107T717 7T500 -29Q430 -29 376 -18T280 7T209 31T162 43Q146 43 137 30T121 0H63Z"/><glyph unicode="T" horiz-adv-x="1183" d="M20 1024L45 1419H1139L1163 1024H1106Q1096 1059 1078 1108T1028 1214Q1012 1245 988 1271T937 1317T885 1348T838 1360H727V59H883V0H305V59H457V1360H346Q326 1360 299 1349T247 1318T197 1272T156 1214Q144 1191 132 1164T108 1111T88 1062T78 1024H20Z"/><glyph unicode="U" horiz-adv-x="1267" d="M10 1360V1419H596V1360H432V422Q432 240 494 146T709 51Q801 51 863 83T963 171T1016 307T1032 485V1360H879V1419H1251V1360H1108V457Q1108 217 993 94T649 -29Q561 -29 474 -10T318 57T205 186T162 393V1360H10Z"/><glyph unicode="V" horiz-adv-x="1167" d="M-33 1360V1419H530V1360H375L686 358L993 1360H836V1419H1200V1360H1071L647 -6H518L96 1360H-33Z"/><glyph unicode="W" horiz-adv-x="1683" d="M-33 1360V1419H1272V1360H1165L1008 926L1196 342L1509 1360H1364V1419H1716V1360H1587L1165 0H1049L858 594L635 0H518L96 1360H-33ZM371 1360L688 330L825 700L608 1360H371ZM868 1360L975 1022L1092 1360H868Z"/><glyph unicode="X" horiz-adv-x="1222" d="M-10 0V59H135L494 682L152 1360H10V1419H598V1360H453L682 891L950 1360H807V1419H1182V1360H1040L719 813L1102 59H1233V0H651V59H801L530 610L225 59H369V0H-10Z"/><glyph unicode="Y" horiz-adv-x="1167" d="M-35 1360V1419H537V1360H385L682 754L989 1360H838V1419H1204V1360H1079L721 670V59H883V0H293V59H451V637L96 1360H-35Z"/><glyph unicode="Z" horiz-adv-x="1030" d="M16 0V59L713 1360H408Q347 1360 290 1319T199 1214Q187 1191 174 1164T150 1110T131 1060T121 1022H63L78 1419H997V1358L303 59H625Q703 59 765 100T864 205Q882 236 898 273T928 348T951 415T965 463H1022L993 0H16Z"/><glyph unicode="[" horiz-adv-x="679" d="M129 -430V1419H608V1360H371V-371H608V-430H129Z"/><glyph unicode="\" horiz-adv-x="634" d="M8 1448H119L772 -430H662L8 1448Z"/><glyph unicode="]" horiz-adv-x="679" d="M72 -371H309V1360H72V1419H551V-430H72V-371Z"/><glyph unicode="_" horiz-adv-x="1024" d="M-8 -203H1032V-274H-8V-203Z"/><glyph unicode="`" horiz-adv-x="614" d="M29 1386V1419H307L506 1036H449L29 1386Z"/><glyph unicode="a" horiz-adv-x="903" d="M33 215Q33 313 82 373T205 468T366 514T526 526V733Q526 799 496 842T391 885Q336 885 297 864T233 815V807Q288 803 315 772T342 694Q342 645 304 610T213 575Q160 575 119 610T78 709Q78 758 106 801T182 874T289 922T412 940Q510 940 578 921T690 871T752 802T772 727V174Q772 145 783 117T836 88Q861 88 875 103T899 133L932 100Q891 41 831 8T711 -25Q625 -25 580 16T530 104Q469 32 408 4T268 -25Q229 -25 188 -15T113 23T56 97T33 215ZM289 248Q289 211 291 183T299 133Q315 74 389 74Q414 74 435 85T474 112T505 147T526 178V471Q495 471 461 469T393 456T336 423T301 362Q289 315 289 248Z"/><glyph unicode="b" horiz-adv-x="995" d="M16 1364V1419H190L379 1436V815Q426 874 480 907T616 940Q708 940 772 901T875 796T933 642T952 457Q952 355 934 267T876 114T772 11T616 -27Q534 -27 480 5T379 96V0H31V55H129V1364H16ZM379 178Q391 160 406 140T442 101T488 70T547 57Q590 57 622 86T666 201Q670 230 676 300T682 457Q682 549 676 616T666 713Q654 801 622 828T547 856Q512 856 488 844T443 814T407 776T379 735V178Z"/><glyph unicode="c" horiz-adv-x="802" d="M39 446Q39 559 74 650T168 805T304 905T467 940Q602 940 690 879T778 707Q778 644 735 608T635 571Q576 571 538 606T500 692Q500 741 528 776T614 815V821Q608 827 599 838T574 861T534 879T475 887Q414 887 373 845T319 713Q317 699 315 671T311 608T308 535T307 457Q307 373 313 311T324 215Q351 41 475 41Q579 41 640 109T737 295L799 274Q781 213 751 159T680 64T584 -1T455 -25Q375 -25 299 3T166 89T74 235T39 446Z"/><glyph unicode="d" horiz-adv-x="995" d="M43 457Q43 553 61 641T121 795T225 901T381 940Q467 940 519 906T616 811V1364H481V1419H680L866 1436V55H969V0H805L616 -16V102Q569 43 516 8T381 -27Q291 -27 227 11T121 114T62 268T43 457ZM313 457Q313 369 319 299T330 201Q342 115 375 86T451 57Q486 57 511 69T556 99T589 138T616 178V735Q604 753 590 774T556 813T511 843T451 856Q408 856 375 829T330 713Q326 684 320 617T313 457Z"/><glyph unicode="e" horiz-adv-x="880" d="M39 463Q39 576 75 665T170 815T307 908T469 940Q641 940 744 835T848 530V485H307V461Q307 377 311 318T322 211Q347 41 487 41Q550 41 597 59T681 110T744 189T797 291L856 266Q803 135 714 55T483 -25Q389 -25 308 5T167 95T73 247T39 463ZM307 545H584Q584 588 584 636T580 729Q574 795 547 842T451 889Q390 889 357 842T315 727Q309 676 308 634T307 545Z"/><glyph unicode="f" horiz-adv-x="563" d="M29 852V913H133V1014Q133 1213 229 1324T485 1436Q587 1436 651 1390T715 1257Q715 1196 678 1159T586 1122Q533 1122 498 1158T463 1243Q463 1290 494 1325T578 1364V1376Q547 1388 508 1389Q430 1389 405 1332T379 1151V913H549V852H383V55H512V0H35V55H133V852H29Z"/><glyph unicode="g" horiz-adv-x="894" d="M35 131Q35 180 52 216T98 277T164 319T240 348Q172 383 123 456T74 625Q74 676 97 732T168 834T282 910T440 940Q487 940 534 930T604 903Q602 915 601 927T600 950Q600 997 616 1033T658 1092T713 1127T770 1139Q805 1139 829 1129T868 1102T889 1065T895 1024Q895 981 867 951T786 920Q688 920 680 1036Q670 1026 661 1005T651 954Q651 938 654 916T662 874Q740 829 774 758T809 623Q809 541 772 484T680 388T560 332T434 307Q377 303 319 299T236 291Q209 285 185 277T160 225Q160 196 181 180T238 164H682Q737 164 777 142T842 84T881 6T895 -80Q895 -172 854 -250T746 -384T591 -472T412 -504Q334 -504 267 -485T149 -430T70 -349T41 -250Q41 -133 168 -66Q113 -37 74 17T35 131ZM160 -225Q160 -305 225 -364T428 -424Q594 -424 690 -359T786 -164Q786 -117 756 -96T684 -74H215Q180 -111 170 -146T160 -225ZM328 625Q328 584 330 551T336 487Q342 428 364 393T444 358Q501 358 522 391T553 487Q557 518 559 552T561 625Q561 670 559 701T553 764Q547 821 524 856T442 891Q385 891 364 856T336 764Q332 733 330 700T328 625Z"/><glyph unicode="h" horiz-adv-x="1038" d="M16 1364V1419H190L379 1436V764Q451 854 523 897T690 940Q788 940 851 880T915 725V55H1010V0H561V55H666V690Q666 778 639 807T573 836Q540 836 511 820T456 780T411 729T379 684V55H485V0H31V55H129V1364H16Z"/><glyph unicode="i" horiz-adv-x="516" d="M31 858V913H197L385 930V55H481V0H35V55H135V858H31ZM109 1270Q109 1331 151 1373T254 1415Q315 1415 357 1373T399 1270Q399 1209 357 1167T254 1124Q193 1124 151 1166T109 1270Z"/><glyph unicode="j" horiz-adv-x="520" d="M-182 -346Q-182 -295 -149 -259T-59 -223Q0 -223 28 -258T57 -350Q57 -377 45 -405T23 -442V-455Q101 -455 124 -398T147 -213V858H33V913H209L397 930V-84Q397 -283 299 -391T27 -500Q-77 -500 -129 -456T-182 -346ZM121 1270Q121 1331 163 1373T266 1415Q327 1415 369 1373T412 1270Q412 1209 370 1167T266 1124Q205 1124 163 1166T121 1270Z"/><glyph unicode="k" horiz-adv-x="997" d="M16 1364V1419H190L379 1436V514H426L737 858H598V913H950V858H834L600 614L946 55H1044V0H561V55H662L418 467H379V55H485V0H31V55H129V1364H16Z"/><glyph unicode="l" horiz-adv-x="512" d="M16 1364V1419H193L381 1436V55H475V0H31V55H131V1364H16Z"/><glyph unicode="m" horiz-adv-x="1538" d="M31 858V913H195L383 930V770Q455 858 518 899T678 940Q764 940 825 892T903 768Q973 858 1040 899T1202 940Q1251 940 1293 924T1366 879T1414 811T1432 725V55H1524V0H1083V55H1182V690Q1182 778 1155 807T1090 836Q1061 836 1035 821T983 783T939 735T907 690V55H1008V0H559V55H657V690Q657 778 631 807T565 836Q536 836 509 820T457 781T414 734T383 690V55H483V0H35V55H133V858H31Z"/><glyph unicode="n" horiz-adv-x="1042" d="M31 858V913H195L383 930V764Q455 854 527 897T694 940Q792 940 856 880T920 725V55H1014V0H565V55H670V690Q670 778 644 807T580 836Q547 836 516 820T460 780T415 729T383 684V55H489V0H35V55H133V858H31Z"/><glyph unicode="o" horiz-adv-x="937" d="M39 457Q39 545 64 632T142 787T276 898T469 940Q573 940 653 903T787 802T870 649T899 457Q899 353 871 265T788 112T653 10T469 -27Q356 -27 276 15T143 126T65 282T39 457ZM305 457Q305 369 309 300T317 203Q327 111 366 68T469 25Q532 25 571 68T621 203Q625 232 629 299T633 457Q633 555 629 618T621 711Q611 803 572 846T469 889Q406 889 367 846T317 711Q313 682 309 619T305 457Z"/><glyph unicode="p" horiz-adv-x="995" d="M12 -444H129V858H27V913H190L379 930V811Q426 870 480 905T616 940Q708 940 772 901T875 796T933 642T952 457Q952 355 934 268T876 115T772 12T616 -25Q534 -25 480 7T379 98V-444H502V-500H12V-444ZM379 180Q391 162 406 142T442 103T487 72T547 59Q590 59 622 89T666 203Q670 232 676 299T682 457Q682 541 676 611T666 713Q654 799 622 827T547 856Q512 856 487 843T442 811T407 772T379 731V180Z"/><glyph unicode="q" horiz-adv-x="995" d="M43 457Q43 553 61 641T121 795T225 901T381 940Q463 940 517 904T616 805V930L809 913H969V858H866V-444H983V-500H494V-444H616V104Q569 45 516 10T381 -25Q291 -25 228 13T123 115T63 268T43 457ZM313 457Q313 375 319 303T330 203Q342 117 375 88T451 59Q486 59 511 71T556 101T589 140T616 180V729Q604 747 590 769T556 810T511 842T451 856Q408 856 375 827T330 713Q326 684 320 613T313 457Z"/><glyph unicode="r" horiz-adv-x="763" d="M31 858V913H195L383 930V772Q408 805 429 834T477 886T535 923T610 938Q684 938 724 891T764 766Q764 707 726 664T629 621Q582 621 545 651T508 737Q508 772 518 792T543 831L537 840Q514 838 492 822T449 783T411 737T383 698V55H512V0H35V55H133V858H31Z"/><glyph unicode="s" horiz-adv-x="786" d="M45 -6V340H106Q110 293 130 239T184 138T271 63T393 33Q592 33 592 182Q592 227 575 255T526 300T447 328T340 352Q283 364 232 382T142 435T82 521T59 653Q59 719 86 772T156 862T255 919T371 940Q428 940 469 931T539 911T586 890T612 881Q620 881 626 893T637 920H690V633H635Q625 674 609 718T565 799T493 859T381 883Q295 883 254 844T213 743Q213 706 228 683T271 643T335 618T412 600Q492 586 555 566T662 510T730 423T754 291Q754 230 731 174T663 73T553 2T406 -25Q349 -25 303 -14T221 11T165 36T135 47Q125 47 114 27T96 -6H45Z"/><glyph unicode="t" horiz-adv-x="585" d="M20 852V913H125V1196H190L375 1212V913H563V852H375V205Q375 189 377 170T387 134T411 105T455 92Q508 92 533 123T571 176L608 150Q592 117 567 86T506 31T427 -8T328 -23Q283 -23 246 -8T183 33T141 92T125 158V852H20Z"/><glyph unicode="u" horiz-adv-x="1036" d="M25 858V913H188L373 930V223Q373 178 379 151T397 107T426 84T463 78Q496 78 525 94T580 134T625 184T657 229V858H541V913H725L907 930V55H1010V0H850L657 -16V150Q585 60 514 17T348 -27Q250 -27 187 33T123 188V858H25Z"/><glyph unicode="v" horiz-adv-x="890" d="M-23 858V913H471V858H344L553 279L741 858H616V913H918V858H815L526 -6H395L86 858H-23Z"/><glyph unicode="w" horiz-adv-x="1368" d="M-14 858V913H453V858H354L524 276L659 709L612 858H520V913H967V858H854L1032 262L1212 858H1077V913H1393V858H1288L1014 -4H872L688 625L500 -4H362L94 858H-14Z"/><glyph unicode="x" horiz-adv-x="925" d="M-23 0V55H88L354 436L102 858H-2V913H487V858H375L522 592L698 858H596V913H895V858H784L561 535L852 55H952V0H453V55H578L393 377L174 55H297V0H-23Z"/><glyph unicode="y" horiz-adv-x="882" d="M-20 858V913H469V858H338L553 307L735 858H606V913H903V858H809L387 -348Q358 -428 313 -464T203 -500Q137 -500 104 -458T70 -367Q70 -314 104 -277T190 -240Q245 -240 274 -269T309 -338H317Q325 -330 339 -295T370 -214T403 -120T430 -37L76 858H-20Z"/><glyph unicode="z" horiz-adv-x="819" d="M29 0V49L506 858H358Q258 858 200 791T119 598H63V913H780V870L299 55H477Q530 55 575 83T654 154T707 249T731 350H786V0H29Z"/><glyph unicode="{" horiz-adv-x="802" d="M20 453V537Q94 543 146 555T232 596T281 675T297 807Q297 873 286 946T274 1083Q274 1185 308 1251T403 1354T552 1405T745 1419V1360Q698 1356 657 1352T586 1327T538 1260T520 1130Q520 1069 525 1017T530 903Q530 794 505 727T433 617T326 553T190 516V473Q264 459 325 437T433 372T504 262T530 86Q530 25 525 -27T520 -141Q520 -225 537 -270T585 -336T657 -363T745 -371V-430Q639 -430 552 -417T404 -367T308 -265T274 -94Q274 -31 285 43T297 182Q297 264 281 314T231 393T145 434T20 453Z"/><glyph unicode="|" horiz-adv-x="552" d="M236 0V1450H326V0H236Z"/><glyph unicode="}" horiz-adv-x="802" d="M57 -371Q104 -369 145 -364T217 -337T265 -270T283 -141Q283 -80 278 -28T272 86Q272 192 298 261T370 372T477 436T612 473V516Q538 530 477 552T370 617T298 727T272 903Q272 964 277 1016T283 1130Q283 1214 266 1259T217 1326T145 1352T57 1360V1419Q163 1419 250 1405T399 1354T494 1252T528 1083Q528 1020 517 946T506 807Q506 725 521 675T570 596T656 555T782 537V453Q710 447 658 435T573 394T523 315T506 182Q506 116 517 43T528 -94Q528 -198 495 -264T400 -366T251 -416T57 -430V-371Z"/><glyph unicode="~" horiz-adv-x="1024" d="M72 432Q86 469 111 514T174 599T258 666T360 694Q421 694 469 676T559 636T639 597T721 580Q780 580 816 619T891 725L956 696Q942 659 916 612T852 525T768 458T666 430Q607 430 559 447T468 486T387 526T305 545Q248 545 212 506T143 401L72 432Z"/><glyph unicode=" " horiz-adv-x="212"/><glyph unicode="¡" horiz-adv-x="536" d="M113 1288Q113 1354 158 1399T268 1444Q334 1444 379 1399T424 1288Q424 1222 379 1178T268 1133Q202 1133 158 1178T113 1288ZM119 147Q119 229 137 313T177 489T217 683T236 899V999H301V899Q301 784 319 683T359 491T399 314T418 147Q418 71 377 26T268 -20Q202 -20 161 27T119 147Z"/><glyph unicode="¨" horiz-adv-x="614" d="M-23 1235Q-23 1288 15 1327T106 1366Q159 1366 197 1327T236 1235Q236 1182 198 1143T106 1104Q53 1104 15 1143T-23 1235ZM379 1235Q379 1288 416 1327T506 1366Q559 1366 598 1327T637 1235Q637 1182 598 1143T506 1104Q453 1104 416 1143T379 1235Z"/><glyph unicode="²" horiz-adv-x="761" d="M59 610V713Q122 748 196 792T328 899Q387 967 410 1030T434 1192Q434 1270 400 1326T293 1382Q223 1382 182 1349T141 1272Q141 1249 147 1237Q157 1249 171 1258T215 1268Q258 1268 274 1239T291 1180Q291 1143 265 1115T184 1087Q155 1087 135 1100T102 1134T82 1181T76 1233Q76 1264 92 1301T144 1372T236 1426T375 1448Q496 1448 573 1389T651 1233Q651 1149 616 1084T522 963T390 860T244 766H618L635 885H688L668 610H59Z"/><glyph unicode="³" horiz-adv-x="761" d="M63 756Q63 795 87 829T162 864Q209 864 234 840T260 778Q260 743 247 721T201 694Q205 678 232 659T324 639Q363 639 389 655T431 699T453 760T461 827Q461 921 431 971T324 1022Q308 1022 279 1014T233 1006Q217 1006 198 1014T178 1044Q178 1069 197 1077T233 1085Q251 1085 278 1078T322 1071Q394 1071 412 1117T430 1264Q430 1321 403 1359T332 1397Q293 1397 267 1388T221 1356Q262 1354 276 1331T291 1282Q291 1247 270 1220T201 1192Q154 1192 130 1219T106 1294Q106 1327 129 1355T188 1404T271 1436T362 1448Q419 1448 471 1435T564 1397T627 1336T651 1255Q651 1212 630 1177T574 1116T496 1073T410 1049Q461 1043 511 1029T601 990T664 927T688 836Q688 777 658 732T577 654T460 605T322 588Q275 588 229 598T146 629T86 683T63 756Z"/><glyph unicode="´" horiz-adv-x="614" d="M113 1036L311 1419H590V1386L170 1036H113Z"/><glyph unicode="¸" horiz-adv-x="614" d="M104 -377Q133 -385 163 -393T223 -401Q276 -401 312 -379T348 -299Q348 -270 338 -252T312 -222T277 -206T242 -201V4H301V-129Q403 -129 473 -165T543 -289Q543 -373 465 -418T254 -463Q199 -463 166 -456T104 -440V-377Z"/><glyph unicode="¹" horiz-adv-x="647" d="M80 1350Q180 1368 258 1397T371 1448H440V662H567V610H100V662H227V1331L88 1303L80 1350Z"/><glyph unicode="¼" horiz-adv-x="1548" d="M80 1350Q180 1368 258 1397T371 1448H440V662H567V610H100V662H227V1331L88 1303L80 1350ZM336 0L1098 1419H1194L432 0H336ZM778 209V289Q833 377 880 447T974 580T1068 705T1178 842H1315V268H1419V358H1468V127H1419V209H1315V51H1415V0H1008V51H1112V209H778ZM840 268H1112V670Q1065 607 1033 564T974 478T916 388T840 268Z"/><glyph unicode="½" horiz-adv-x="1548" d="M80 1350Q180 1368 258 1397T371 1448H440V662H567V610H100V662H227V1331L88 1303L80 1350ZM330 0L1092 1419H1188L426 0H330ZM893 0V102Q956 137 1030 181T1161 289Q1220 357 1244 420T1268 582Q1268 660 1233 716T1126 772Q1056 772 1016 739T975 662Q975 639 981 627Q991 639 1005 648T1049 657Q1092 657 1108 629T1124 569Q1124 532 1098 505T1018 477Q989 477 969 490T935 524T916 571T909 623Q909 654 925 691T978 762T1070 816T1208 838Q1329 838 1407 779T1485 623Q1485 539 1449 474T1355 353T1224 250T1077 156H1452L1468 274H1522L1501 0H893Z"/><glyph unicode="¾" horiz-adv-x="1548" d="M76 756Q76 795 99 829T174 864Q221 864 246 840T272 778Q272 743 259 721T213 694Q217 678 244 659T336 639Q375 639 401 655T443 699T466 760T473 827Q473 921 444 971T336 1022Q320 1022 291 1014T246 1006Q230 1006 210 1014T190 1044Q190 1069 209 1077T246 1085Q264 1085 290 1078T334 1071Q406 1071 424 1117T442 1264Q442 1321 415 1359T344 1397Q305 1397 279 1388T233 1356Q274 1354 288 1331T303 1282Q303 1247 282 1220T213 1192Q166 1192 143 1219T119 1294Q119 1327 141 1355T201 1404T284 1436T375 1448Q432 1448 484 1435T576 1397T640 1336T664 1255Q664 1212 643 1177T586 1116T508 1073T422 1049Q473 1043 523 1029T613 990T676 927T700 836Q700 777 670 732T589 654T473 605T334 588Q287 588 241 598T158 629T99 683T76 756ZM420 0L1182 1419H1278L516 0H420ZM815 209V289Q870 377 917 447T1011 580T1105 705T1214 842H1352V268H1456V358H1505V127H1456V209H1352V51H1452V0H1044V51H1149V209H815ZM877 268H1149V670Q1102 607 1070 564T1011 478T953 388T877 268Z"/><glyph unicode="¿" horiz-adv-x="768" d="M41 285Q41 351 59 409T109 517T182 609T266 684Q358 754 397 806T436 920Q436 936 435 960T432 1010H487Q495 983 504 952T522 887T535 824T541 768Q541 690 501 621T399 489Q372 462 343 434T289 372T248 296T231 201Q231 121 283 78T412 35Q471 35 515 58T580 111V123Q521 127 489 158T457 242Q457 293 492 333T588 373Q645 373 684 335T723 231Q723 176 696 130T622 50T516 -2T391 -20Q319 -20 255 0T143 59T69 154T41 285ZM279 1288Q279 1354 324 1399T434 1444Q500 1444 545 1399T590 1288Q590 1222 545 1178T434 1133Q368 1133 324 1178T279 1288Z"/><glyph unicode="À" horiz-adv-x="1163" d="M-33 0V59H96L522 1425H647L1067 59H1196V0H637V59H793L670 459H297L172 59H332V0H-33ZM268 1823V1855H547L766 1493H709L268 1823ZM315 518H651L485 1063L315 518Z"/><glyph unicode="Á" horiz-adv-x="1163" d="M-33 0V59H96L522 1425H647L1067 59H1196V0H637V59H793L670 459H297L172 59H332V0H-33ZM315 518H651L485 1063L315 518ZM406 1493L625 1855H903V1823L463 1493H406Z"/><glyph unicode="Â" horiz-adv-x="1163" d="M-33 0V59H96L522 1425H647L1067 59H1196V0H637V59H793L670 459H297L172 59H332V0H-33ZM250 1477L514 1843H655L920 1477H860L586 1669L309 1477H250ZM315 518H651L485 1063L315 518Z"/><glyph unicode="Ã" horiz-adv-x="1163" d="M-33 0V59H96L522 1425H647L1067 59H1196V0H637V59H793L670 459H297L172 59H332V0H-33ZM242 1554Q248 1583 264 1628T308 1716T378 1790T475 1821Q526 1821 576 1805T651 1776Q680 1762 722 1746T809 1729Q836 1729 854 1740T884 1768T904 1804T915 1839H975Q969 1810 952 1765T907 1678T838 1606T741 1575Q688 1575 639 1591T561 1624Q534 1638 492 1651T408 1665Q381 1665 363 1654T332 1626T312 1591T301 1554H242ZM315 518H651L485 1063L315 518Z"/><glyph unicode="Ä" horiz-adv-x="1163" d="M-33 0V59H96L522 1425H647L1067 59H1196V0H637V59H793L670 459H297L172 59H332V0H-33ZM229 1704Q229 1757 267 1796T358 1835Q411 1835 449 1796T487 1704Q487 1651 450 1612T358 1573Q305 1573 267 1612T229 1704ZM315 518H651L485 1063L315 518ZM672 1704Q672 1757 708 1796T799 1835Q852 1835 891 1796T930 1704Q930 1651 891 1612T799 1573Q746 1573 709 1612T672 1704Z"/><glyph unicode="Å" horiz-adv-x="1163" d="M-33 0V59H96L522 1425H647L1067 59H1196V0H637V59H793L670 459H297L172 59H332V0H-33ZM315 518H651L485 1063L315 518ZM340 1681Q340 1767 409 1823T584 1880Q688 1880 757 1824T827 1681Q827 1597 761 1540T584 1483Q471 1483 406 1539T340 1681ZM479 1681Q479 1609 503 1569T584 1528Q639 1528 663 1568T688 1681Q688 1751 664 1793T584 1835Q480 1835 479 1681Z"/><glyph unicode="Ç" horiz-adv-x="1116" d="M49 709Q49 846 83 979T187 1216T367 1384T627 1448Q697 1448 752 1435T847 1404T913 1373T952 1360Q972 1360 982 1382T997 1417H1055V987H995Q970 1061 943 1132T873 1262T774 1357T635 1393Q520 1393 458 1322T377 1112Q367 1044 359 953T350 709Q350 631 353 572T360 465T369 381T377 309Q393 166 456 97T641 27Q725 27 783 65T882 165T949 303T1001 453H1061V2H1004Q1000 14 990 36T958 59Q946 59 921 46T855 17T762 -14T641 -29V-129Q743 -129 813 -165T883 -289Q883 -373 805 -419T594 -465Q539 -465 505 -456T442 -438V-375Q471 -383 501 -392T563 -401Q616 -401 652 -379T688 -299Q688 -270 678 -252T652 -222T617 -206T582 -201V-27Q443 -15 342 53T176 223T80 453T49 709Z"/><glyph unicode="È" horiz-adv-x="1122" d="M25 0V59H176V1360H25V1419H1028L1042 1022H985Q979 1055 962 1108T913 1217Q878 1278 826 1319T727 1360H446V772Q538 772 592 782T678 822T723 904T750 1040H807V444H748Q734 540 713 594T659 674T574 706T446 713V59H692Q770 59 833 100T932 205Q948 236 964 273T995 348T1019 415T1032 463H1090L1061 0H25ZM270 1823V1855H549L768 1493H711L270 1823Z"/><glyph unicode="É" horiz-adv-x="1122" d="M25 0V59H176V1360H25V1419H1028L1042 1022H985Q979 1055 962 1108T913 1217Q878 1278 826 1319T727 1360H446V772Q538 772 592 782T678 822T723 904T750 1040H807V444H748Q734 540 713 594T659 674T574 706T446 713V59H692Q770 59 833 100T932 205Q948 236 964 273T995 348T1019 415T1032 463H1090L1061 0H25ZM387 1493L606 1855H885V1823L444 1493H387Z"/><glyph unicode="Ê" horiz-adv-x="1122" d="M25 0V59H176V1360H25V1419H1028L1042 1022H985Q979 1055 962 1108T913 1217Q878 1278 826 1319T727 1360H446V772Q538 772 592 782T678 822T723 904T750 1040H807V444H748Q734 540 713 594T659 674T574 706T446 713V59H692Q770 59 833 100T932 205Q948 236 964 273T995 348T1019 415T1032 463H1090L1061 0H25ZM256 1489L520 1855H662L926 1489H866L592 1681L315 1489H256Z"/><glyph unicode="Ë" horiz-adv-x="1122" d="M25 0V59H176V1360H25V1419H1028L1042 1022H985Q979 1055 962 1108T913 1217Q878 1278 826 1319T727 1360H446V772Q538 772 592 782T678 822T723 904T750 1040H807V444H748Q734 540 713 594T659 674T574 706T446 713V59H692Q770 59 833 100T932 205Q948 236 964 273T995 348T1019 415T1032 463H1090L1061 0H25ZM219 1704Q219 1757 257 1796T348 1835Q401 1835 439 1796T477 1704Q477 1651 439 1612T348 1573Q295 1573 257 1612T219 1704ZM662 1704Q662 1757 698 1796T788 1835Q841 1835 880 1796T920 1704Q920 1651 881 1612T788 1573Q735 1573 699 1612T662 1704Z"/><glyph unicode="Ì" horiz-adv-x="622" d="M25 0V59H176V1360H25V1419H602V1360H446V59H602V0H25ZM45 1823V1855H324L543 1493H485L45 1823Z"/><glyph unicode="Í" horiz-adv-x="622" d="M25 0V59H176V1360H25V1419H602V1360H446V59H602V0H25ZM88 1493L307 1855H586V1823L145 1493H88Z"/><glyph unicode="Î" horiz-adv-x="622" d="M0 1489L244 1855H385L629 1489H569L315 1686L59 1489H0ZM25 0V59H176V1360H25V1419H602V1360H446V59H602V0H25Z"/><glyph unicode="Ï" horiz-adv-x="622" d="M-8 1704Q-8 1757 27 1796T117 1835Q170 1835 206 1796T242 1704Q242 1651 206 1612T117 1573Q64 1573 28 1612T-8 1704ZM25 0V59H176V1360H25V1419H602V1360H446V59H602V0H25ZM377 1704Q377 1757 411 1796T500 1835Q553 1835 590 1796T627 1704Q627 1651 590 1612T500 1573Q447 1573 412 1612T377 1704Z"/><glyph unicode="Ñ" horiz-adv-x="1269" d="M25 0V59H176V1360H25V1419H467L1024 399V1360H866V1419H1251V1360H1100V-16H944L252 1264V59H410V0H25ZM311 1563Q317 1592 333 1636T378 1724T447 1798T545 1829Q596 1829 646 1813T721 1784Q750 1770 792 1754T879 1737Q906 1737 924 1748T954 1776T974 1812T985 1847H1044Q1038 1818 1021 1774T976 1687T907 1614T811 1583Q758 1583 709 1599T631 1632Q604 1646 561 1659T477 1673Q450 1673 432 1662T402 1635T382 1599T371 1563H311Z"/><glyph unicode="Ò" horiz-adv-x="1249" d="M49 709Q49 846 83 979T187 1216T366 1384T623 1448Q762 1448 869 1392T1050 1237T1162 1004T1200 709Q1200 549 1162 414T1051 181T870 27T623 -29Q476 -29 367 34T188 202T83 439T49 709ZM340 1823V1855H618L838 1493H780L340 1823ZM348 709Q348 631 350 572T355 465T361 380T369 307Q385 160 451 95T623 29Q729 29 797 95T881 307Q885 348 888 387T894 471T899 573T901 709Q901 861 894 955T881 1114Q865 1261 797 1327T623 1393Q519 1393 452 1324T369 1114Q361 1048 355 955T348 709Z"/><glyph unicode="Ó" horiz-adv-x="1249" d="M49 709Q49 846 83 979T187 1216T366 1384T623 1448Q762 1448 869 1392T1050 1237T1162 1004T1200 709Q1200 549 1162 414T1051 181T870 27T623 -29Q476 -29 367 34T188 202T83 439T49 709ZM348 709Q348 631 350 572T355 465T361 380T369 307Q385 160 451 95T623 29Q729 29 797 95T881 307Q885 348 888 387T894 471T899 573T901 709Q901 861 894 955T881 1114Q865 1261 797 1327T623 1393Q519 1393 452 1324T369 1114Q361 1048 355 955T348 709ZM428 1493L647 1855H926V1823L485 1493H428Z"/><glyph unicode="Ô" horiz-adv-x="1249" d="M49 709Q49 846 83 979T187 1216T366 1384T623 1448Q762 1448 869 1392T1050 1237T1162 1004T1200 709Q1200 549 1162 414T1051 181T870 27T623 -29Q476 -29 367 34T188 202T83 439T49 709ZM287 1489L551 1855H692L956 1489H897L623 1681L346 1489H287ZM348 709Q348 631 350 572T355 465T361 380T369 307Q385 160 451 95T623 29Q729 29 797 95T881 307Q885 348 888 387T894 471T899 573T901 709Q901 861 894 955T881 1114Q865 1261 797 1327T623 1393Q519 1393 452 1324T369 1114Q361 1048 355 955T348 709Z"/><glyph unicode="Õ" horiz-adv-x="1249" d="M49 709Q49 846 83 979T187 1216T366 1384T623 1448Q762 1448 869 1392T1050 1237T1162 1004T1200 709Q1200 549 1162 414T1051 181T870 27T623 -29Q476 -29 367 34T188 202T83 439T49 709ZM258 1563Q264 1592 280 1636T324 1724T394 1798T492 1829Q543 1829 593 1813T668 1784Q697 1770 738 1754T825 1737Q852 1737 870 1748T901 1776T920 1812T932 1847H991Q985 1818 968 1774T923 1687T854 1614T758 1583Q705 1583 656 1599T578 1632Q551 1646 508 1659T424 1673Q397 1673 379 1662T348 1635T329 1599T317 1563H258ZM348 709Q348 631 350 572T355 465T361 380T369 307Q385 160 451 95T623 29Q729 29 797 95T881 307Q885 348 888 387T894 471T899 573T901 709Q901 861 894 955T881 1114Q865 1261 797 1327T623 1393Q519 1393 452 1324T369 1114Q361 1048 355 955T348 709Z"/><glyph unicode="Ö" horiz-adv-x="1249" d="M49 709Q49 846 83 979T187 1216T366 1384T623 1448Q762 1448 869 1392T1050 1237T1162 1004T1200 709Q1200 549 1162 414T1051 181T870 27T623 -29Q476 -29 367 34T188 202T83 439T49 709ZM270 1704Q270 1757 308 1796T399 1835Q452 1835 490 1796T528 1704Q528 1651 491 1612T399 1573Q346 1573 308 1612T270 1704ZM348 709Q348 631 350 572T355 465T361 380T369 307Q385 160 451 95T623 29Q729 29 797 95T881 307Q885 348 888 387T894 471T899 573T901 709Q901 861 894 955T881 1114Q865 1261 797 1327T623 1393Q519 1393 452 1324T369 1114Q361 1048 355 955T348 709ZM713 1704Q713 1757 749 1796T840 1835Q893 1835 932 1796T971 1704Q971 1651 932 1612T840 1573Q787 1573 750 1612T713 1704Z"/><glyph unicode="×" horiz-adv-x="1024" d="M125 252L424 549L125 846L213 934L510 635L809 936L897 846L596 549L897 250L809 162L510 463L213 164L125 252Z"/><glyph unicode="Ø" horiz-adv-x="1249" d="M41 -35L203 184Q125 290 87 427T49 709Q49 846 83 979T187 1216T366 1384T623 1448Q742 1448 836 1406T1001 1290L1118 1452L1176 1417L1044 1241Q1120 1141 1160 1006T1200 709Q1200 549 1162 414T1051 181T870 27T623 -29Q500 -29 407 16T244 137L96 -70L41 -35ZM342 709Q342 598 346 525T356 395L883 1126Q867 1267 797 1330T623 1393Q519 1393 450 1324T365 1114Q357 1048 350 955T342 709ZM365 303Q381 160 449 95T623 29Q729 29 799 95T885 307Q889 348 893 387T900 471T905 573T907 709Q907 818 902 896T893 1034L365 303Z"/><glyph unicode="Ù" horiz-adv-x="1267" d="M10 1360V1419H596V1360H432V422Q432 240 494 146T709 51Q801 51 863 83T963 171T1016 307T1032 485V1360H879V1419H1251V1360H1108V457Q1108 217 993 94T649 -29Q561 -29 474 -10T318 57T205 186T162 393V1360H10ZM377 1823V1855H655L874 1493H817L377 1823Z"/><glyph unicode="Ú" horiz-adv-x="1267" d="M10 1360V1419H596V1360H432V422Q432 240 494 146T709 51Q801 51 863 83T963 171T1016 307T1032 485V1360H879V1419H1251V1360H1108V457Q1108 217 993 94T649 -29Q561 -29 474 -10T318 57T205 186T162 393V1360H10ZM487 1493L707 1855H985V1823L545 1493H487Z"/><glyph unicode="Û" horiz-adv-x="1267" d="M10 1360V1419H596V1360H432V422Q432 240 494 146T709 51Q801 51 863 83T963 171T1016 307T1032 485V1360H879V1419H1251V1360H1108V457Q1108 217 993 94T649 -29Q561 -29 474 -10T318 57T205 186T162 393V1360H10ZM365 1489L629 1855H770L1034 1489H975L700 1681L424 1489H365Z"/><glyph unicode="Ü" horiz-adv-x="1267" d="M10 1360V1419H596V1360H432V422Q432 240 494 146T709 51Q801 51 863 83T963 171T1016 307T1032 485V1360H879V1419H1251V1360H1108V457Q1108 217 993 94T649 -29Q561 -29 474 -10T318 57T205 186T162 393V1360H10ZM319 1704Q319 1757 357 1796T449 1835Q502 1835 540 1796T578 1704Q578 1651 540 1612T449 1573Q396 1573 358 1612T319 1704ZM762 1704Q762 1757 799 1796T889 1835Q942 1835 981 1796T1020 1704Q1020 1651 981 1612T889 1573Q836 1573 799 1612T762 1704Z"/><glyph unicode="à" horiz-adv-x="903" d="M33 215Q33 313 82 373T205 468T366 514T526 526V733Q526 799 496 842T391 885Q336 885 297 864T233 815V807Q288 803 315 772T342 694Q342 645 304 610T213 575Q160 575 119 610T78 709Q78 758 106 801T182 874T289 922T412 940Q510 940 578 921T690 871T752 802T772 727V174Q772 145 783 117T836 88Q861 88 875 103T899 133L932 100Q891 41 831 8T711 -25Q625 -25 580 16T530 104Q469 32 408 4T268 -25Q229 -25 188 -15T113 23T56 97T33 215ZM152 1386V1419H430L629 1036H572L152 1386ZM289 248Q289 211 291 183T299 133Q315 74 389 74Q414 74 435 85T474 112T505 147T526 178V471Q495 471 461 469T393 456T336 423T301 362Q289 315 289 248Z"/><glyph unicode="á" horiz-adv-x="903" d="M33 215Q33 313 82 373T205 468T366 514T526 526V733Q526 799 496 842T391 885Q336 885 297 864T233 815V807Q288 803 315 772T342 694Q342 645 304 610T213 575Q160 575 119 610T78 709Q78 758 106 801T182 874T289 922T412 940Q510 940 578 921T690 871T752 802T772 727V174Q772 145 783 117T836 88Q861 88 875 103T899 133L932 100Q891 41 831 8T711 -25Q625 -25 580 16T530 104Q469 32 408 4T268 -25Q229 -25 188 -15T113 23T56 97T33 215ZM267 1036L465 1419H744V1386L324 1036H267ZM289 248Q289 211 291 183T299 133Q315 74 389 74Q414 74 435 85T474 112T505 147T526 178V471Q495 471 461 469T393 456T336 423T301 362Q289 315 289 248Z"/><glyph unicode="â" horiz-adv-x="903" d="M33 215Q33 313 82 373T205 468T366 514T526 526V733Q526 799 496 842T391 885Q336 885 297 864T233 815V807Q288 803 315 772T342 694Q342 645 304 610T213 575Q160 575 119 610T78 709Q78 758 106 801T182 874T289 922T412 940Q510 940 578 921T690 871T752 802T772 727V174Q772 145 783 117T836 88Q861 88 875 103T899 133L932 100Q891 41 831 8T711 -25Q625 -25 580 16T530 104Q469 32 408 4T268 -25Q229 -25 188 -15T113 23T56 97T33 215ZM119 1032L363 1419H504L748 1032H688L434 1245L178 1032H119ZM289 248Q289 211 291 183T299 133Q315 74 389 74Q414 74 435 85T474 112T505 147T526 178V471Q495 471 461 469T393 456T336 423T301 362Q289 315 289 248Z"/><glyph unicode="ã" horiz-adv-x="903" d="M33 215Q33 313 82 373T205 468T366 514T526 526V733Q526 799 496 842T391 885Q336 885 297 864T233 815V807Q288 803 315 772T342 694Q342 645 304 610T213 575Q160 575 119 610T78 709Q78 758 106 801T182 874T289 922T412 940Q510 940 578 921T690 871T752 802T772 727V174Q772 145 783 117T836 88Q861 88 875 103T899 133L932 100Q891 41 831 8T711 -25Q625 -25 580 16T530 104Q469 32 408 4T268 -25Q229 -25 188 -15T113 23T56 97T33 215ZM96 1092Q102 1121 118 1165T163 1253T233 1327T330 1358Q381 1358 419 1342T481 1313Q510 1299 539 1283T615 1266Q642 1266 660 1277T690 1305T710 1341T721 1376H780Q774 1347 757 1302T712 1214T643 1141T547 1110Q494 1110 457 1126T391 1159Q364 1173 334 1186T262 1200Q235 1200 217 1189T187 1162T167 1127T156 1092H96ZM289 248Q289 211 291 183T299 133Q315 74 389 74Q414 74 435 85T474 112T505 147T526 178V471Q495 471 461 469T393 456T336 423T301 362Q289 315 289 248Z"/><glyph unicode="ä" horiz-adv-x="903" d="M33 215Q33 313 82 373T205 468T366 514T526 526V733Q526 799 496 842T391 885Q336 885 297 864T233 815V807Q288 803 315 772T342 694Q342 645 304 610T213 575Q160 575 119 610T78 709Q78 758 106 801T182 874T289 922T412 940Q510 940 578 921T690 871T752 802T772 727V174Q772 145 783 117T836 88Q861 88 875 103T899 133L932 100Q891 41 831 8T711 -25Q625 -25 580 16T530 104Q469 32 408 4T268 -25Q229 -25 188 -15T113 23T56 97T33 215ZM102 1235Q102 1288 140 1327T231 1366Q284 1366 322 1327T361 1235Q361 1182 323 1143T231 1104Q178 1104 140 1143T102 1235ZM289 248Q289 211 291 183T299 133Q315 74 389 74Q414 74 435 85T474 112T505 147T526 178V471Q495 471 461 469T393 456T336 423T301 362Q289 315 289 248ZM504 1235Q504 1288 541 1327T631 1366Q684 1366 723 1327T762 1235Q762 1182 723 1143T631 1104Q578 1104 541 1143T504 1235Z"/><glyph unicode="å" horiz-adv-x="903" d="M33 215Q33 313 82 373T205 468T366 514T526 526V733Q526 799 496 842T391 885Q336 885 297 864T233 815V807Q288 803 315 772T342 694Q342 645 304 610T213 575Q160 575 119 610T78 709Q78 758 106 801T182 874T289 922T412 940Q510 940 578 921T690 871T752 802T772 727V174Q772 145 783 117T836 88Q861 88 875 103T899 133L932 100Q891 41 831 8T711 -25Q625 -25 580 16T530 104Q469 32 408 4T268 -25Q229 -25 188 -15T113 23T56 97T33 215ZM189 1239Q189 1325 258 1381T432 1438Q536 1438 606 1382T676 1239Q676 1155 610 1098T432 1040Q319 1040 254 1096T189 1239ZM289 248Q289 211 291 183T299 133Q315 74 389 74Q414 74 435 85T474 112T505 147T526 178V471Q495 471 461 469T393 456T336 423T301 362Q289 315 289 248ZM328 1239Q328 1167 352 1126T432 1085Q487 1085 512 1126T537 1239Q537 1309 513 1351T432 1393Q328 1393 328 1239Z"/><glyph unicode="ç" horiz-adv-x="802" d="M39 446Q39 559 74 650T168 805T304 905T467 940Q602 940 690 879T778 707Q778 644 735 608T635 571Q576 571 538 606T500 692Q500 741 528 776T614 815V821Q608 827 599 838T574 861T534 879T475 887Q414 887 373 845T319 713Q317 699 315 671T311 608T308 535T307 457Q307 373 313 311T324 215Q351 41 475 41Q579 41 640 109T737 295L799 274Q781 213 751 159T680 64T583 -1T453 -25V-129Q555 -129 624 -165T694 -289Q694 -373 617 -418T406 -463Q351 -463 318 -456T256 -440V-377Q285 -385 314 -393T375 -401Q428 -401 464 -379T500 -299Q500 -270 490 -252T463 -222T428 -206T393 -201V-20Q321 -12 257 21T145 112T68 253T39 446Z"/><glyph unicode="è" horiz-adv-x="880" d="M39 463Q39 576 75 665T170 815T307 908T469 940Q641 940 744 835T848 530V485H307V461Q307 377 311 318T322 211Q347 41 487 41Q550 41 597 59T681 110T744 189T797 291L856 266Q803 135 714 55T483 -25Q389 -25 308 5T167 95T73 247T39 463ZM162 1386V1419H440L639 1036H582L162 1386ZM307 545H584Q584 588 584 636T580 729Q574 795 547 842T451 889Q390 889 357 842T315 727Q309 676 308 634T307 545Z"/><glyph unicode="é" horiz-adv-x="880" d="M39 463Q39 576 75 665T170 815T307 908T469 940Q641 940 744 835T848 530V485H307V461Q307 377 311 318T322 211Q347 41 487 41Q550 41 597 59T681 110T744 189T797 291L856 266Q803 135 714 55T483 -25Q389 -25 308 5T167 95T73 247T39 463ZM258 1036L456 1419H735V1386L315 1036H258ZM307 545H584Q584 588 584 636T580 729Q574 795 547 842T451 889Q390 889 357 842T315 727Q309 676 308 634T307 545Z"/><glyph unicode="ê" horiz-adv-x="880" d="M39 463Q39 576 75 665T170 815T307 908T469 940Q641 940 744 835T848 530V485H307V461Q307 377 311 318T322 211Q347 41 487 41Q550 41 597 59T681 110T744 189T797 291L856 266Q803 135 714 55T483 -25Q389 -25 308 5T167 95T73 247T39 463ZM141 1032L385 1419H526L770 1032H710L456 1245L200 1032H141ZM307 545H584Q584 588 584 636T580 729Q574 795 547 842T451 889Q390 889 357 842T315 727Q309 676 308 634T307 545Z"/><glyph unicode="ë" horiz-adv-x="880" d="M39 463Q39 576 75 665T170 815T307 908T469 940Q641 940 744 835T848 530V485H307V461Q307 377 311 318T322 211Q347 41 487 41Q550 41 597 59T681 110T744 189T797 291L856 266Q803 135 714 55T483 -25Q389 -25 308 5T167 95T73 247T39 463ZM122 1235Q122 1288 160 1327T251 1366Q304 1366 342 1327T381 1235Q381 1182 343 1143T251 1104Q198 1104 160 1143T122 1235ZM307 545H584Q584 588 584 636T580 729Q574 795 547 842T451 889Q390 889 357 842T315 727Q309 676 308 634T307 545ZM524 1235Q524 1288 561 1327T651 1366Q704 1366 743 1327T782 1235Q782 1182 743 1143T651 1104Q598 1104 561 1143T524 1235Z"/><glyph unicode="ì" horiz-adv-x="516" d="M-29 1378V1411H236L393 1028H344L-29 1378ZM31 858V913H197L385 930V55H481V0H35V55H135V858H31Z"/><glyph unicode="í" horiz-adv-x="516" d="M31 858V913H197L385 930V55H481V0H35V55H135V858H31ZM117 1028L274 1411H539V1378L166 1028H117Z"/><glyph unicode="î" horiz-adv-x="516" d="M-41 1024L168 1411H309L518 1024H461L240 1247L16 1024H-41ZM31 858V913H197L385 930V55H481V0H35V55H135V858H31Z"/><glyph unicode="ï" horiz-adv-x="516" d="M-57 1235Q-57 1288 -23 1327T66 1366Q119 1366 153 1327T188 1235Q188 1182 154 1143T66 1104Q13 1104 -22 1143T-57 1235ZM31 858V913H197L385 930V55H481V0H35V55H135V858H31ZM299 1235Q299 1288 333 1327T420 1366Q473 1366 509 1327T545 1235Q545 1182 509 1143T420 1104Q367 1104 333 1143T299 1235Z"/><glyph unicode="ñ" horiz-adv-x="1042" d="M31 858V913H195L383 930V764Q455 854 527 897T694 940Q792 940 856 880T920 725V55H1014V0H565V55H670V690Q670 778 644 807T580 836Q547 836 516 820T460 780T415 729T383 684V55H489V0H35V55H133V858H31ZM186 1092Q192 1121 208 1165T253 1253T323 1327T420 1358Q471 1358 509 1342T571 1313Q600 1299 629 1283T705 1266Q732 1266 750 1277T780 1305T800 1341T811 1376H870Q864 1347 847 1302T802 1214T733 1141T637 1110Q584 1110 547 1126T481 1159Q454 1173 424 1186T352 1200Q325 1200 307 1189T277 1162T257 1127T246 1092H186Z"/><glyph unicode="ò" horiz-adv-x="937" d="M39 457Q39 545 64 632T142 787T276 898T469 940Q573 940 653 903T787 802T870 649T899 457Q899 353 871 265T788 112T653 10T469 -27Q356 -27 276 15T143 126T65 282T39 457ZM191 1386V1419H469L668 1036H611L191 1386ZM305 457Q305 369 309 300T317 203Q327 111 366 68T469 25Q532 25 571 68T621 203Q625 232 629 299T633 457Q633 555 629 618T621 711Q611 803 572 846T469 889Q406 889 367 846T317 711Q313 682 309 619T305 457Z"/><glyph unicode="ó" horiz-adv-x="937" d="M39 457Q39 545 64 632T142 787T276 898T469 940Q573 940 653 903T787 802T870 649T899 457Q899 353 871 265T788 112T653 10T469 -27Q356 -27 276 15T143 126T65 282T39 457ZM275 1036L473 1419H752V1386L332 1036H275ZM305 457Q305 369 309 300T317 203Q327 111 366 68T469 25Q532 25 571 68T621 203Q625 232 629 299T633 457Q633 555 629 618T621 711Q611 803 572 846T469 889Q406 889 367 846T317 711Q313 682 309 619T305 457Z"/><glyph unicode="ô" horiz-adv-x="937" d="M39 457Q39 545 64 632T142 787T276 898T469 940Q573 940 653 903T787 802T870 649T899 457Q899 353 871 265T788 112T653 10T469 -27Q356 -27 276 15T143 126T65 282T39 457ZM156 1032L400 1419H541L785 1032H725L471 1245L215 1032H156ZM305 457Q305 369 309 300T317 203Q327 111 366 68T469 25Q532 25 571 68T621 203Q625 232 629 299T633 457Q633 555 629 618T621 711Q611 803 572 846T469 889Q406 889 367 846T317 711Q313 682 309 619T305 457Z"/><glyph unicode="õ" horiz-adv-x="937" d="M39 457Q39 545 64 632T142 787T276 898T469 940Q573 940 653 903T787 802T870 649T899 457Q899 353 871 265T788 112T653 10T469 -27Q356 -27 276 15T143 126T65 282T39 457ZM135 1092Q141 1121 157 1165T202 1253T272 1327T369 1358Q420 1358 458 1342T520 1313Q549 1299 578 1283T654 1266Q681 1266 699 1277T729 1305T749 1341T760 1376H819Q813 1347 796 1302T751 1214T682 1141T586 1110Q533 1110 496 1126T430 1159Q403 1173 373 1186T301 1200Q274 1200 256 1189T226 1162T206 1127T195 1092H135ZM305 457Q305 369 309 300T317 203Q327 111 366 68T469 25Q532 25 571 68T621 203Q625 232 629 299T633 457Q633 555 629 618T621 711Q611 803 572 846T469 889Q406 889 367 846T317 711Q313 682 309 619T305 457Z"/><glyph unicode="ö" horiz-adv-x="937" d="M39 457Q39 545 64 632T142 787T276 898T469 940Q573 940 653 903T787 802T870 649T899 457Q899 353 871 265T788 112T653 10T469 -27Q356 -27 276 15T143 126T65 282T39 457ZM139 1235Q139 1288 177 1327T268 1366Q321 1366 359 1327T398 1235Q398 1182 360 1143T268 1104Q215 1104 177 1143T139 1235ZM305 457Q305 369 309 300T317 203Q327 111 366 68T469 25Q532 25 571 68T621 203Q625 232 629 299T633 457Q633 555 629 618T621 711Q611 803 572 846T469 889Q406 889 367 846T317 711Q313 682 309 619T305 457ZM541 1235Q541 1288 578 1327T668 1366Q721 1366 760 1327T799 1235Q799 1182 760 1143T668 1104Q615 1104 578 1143T541 1235Z"/><glyph unicode="ø" horiz-adv-x="937" d="M39 457Q39 545 64 632T142 787T276 898T469 940Q547 940 609 919T723 858L823 997L872 967L764 821Q830 758 864 665T899 457Q899 353 871 265T788 112T653 10T469 -27Q389 -27 326 -5T213 57L109 -88L61 -57L172 94Q104 166 72 261T39 457ZM297 457Q297 404 299 357T305 274L625 723Q615 809 573 849T469 889Q406 889 364 846T311 711Q307 682 302 619T297 457ZM311 195Q321 109 364 67T469 25Q532 25 574 68T627 203Q631 232 636 299T641 457Q641 514 639 561T633 643L311 195Z"/><glyph unicode="ù" horiz-adv-x="1036" d="M25 858V913H188L373 930V223Q373 178 379 151T397 107T426 84T463 78Q496 78 525 94T580 134T625 184T657 229V858H541V913H725L907 930V55H1010V0H850L657 -16V150Q585 60 514 17T348 -27Q250 -27 187 33T123 188V858H25ZM211 1386V1419H489L688 1036H631L211 1386Z"/><glyph unicode="ú" horiz-adv-x="1036" d="M25 858V913H188L373 930V223Q373 178 379 151T397 107T426 84T463 78Q496 78 525 94T580 134T625 184T657 229V858H541V913H725L907 930V55H1010V0H850L657 -16V150Q585 60 514 17T348 -27Q250 -27 187 33T123 188V858H25ZM338 1036L536 1419H815V1386L395 1036H338Z"/><glyph unicode="û" horiz-adv-x="1036" d="M25 858V913H188L373 930V223Q373 178 379 151T397 107T426 84T463 78Q496 78 525 94T580 134T625 184T657 229V858H541V913H725L907 930V55H1010V0H850L657 -16V150Q585 60 514 17T348 -27Q250 -27 187 33T123 188V858H25ZM193 1032L437 1419H578L822 1032H762L508 1245L252 1032H193Z"/><glyph unicode="ü" horiz-adv-x="1036" d="M25 858V913H188L373 930V223Q373 178 379 151T397 107T426 84T463 78Q496 78 525 94T580 134T625 184T657 229V858H541V913H725L907 930V55H1010V0H850L657 -16V150Q585 60 514 17T348 -27Q250 -27 187 33T123 188V858H25ZM174 1235Q174 1288 212 1327T303 1366Q356 1366 394 1327T433 1235Q433 1182 395 1143T303 1104Q250 1104 212 1143T174 1235ZM576 1235Q576 1288 613 1327T703 1366Q756 1366 795 1327T834 1235Q834 1182 795 1143T703 1104Q650 1104 613 1143T576 1235Z"/><glyph unicode="ÿ" horiz-adv-x="882" d="M-20 858V913H469V858H338L553 307L735 858H606V913H903V858H809L387 -348Q358 -428 313 -464T203 -500Q137 -500 104 -458T70 -367Q70 -314 104 -277T190 -240Q245 -240 274 -269T309 -338H317Q325 -330 339 -295T370 -214T403 -120T430 -37L76 858H-20ZM129 1235Q129 1288 167 1327T258 1366Q311 1366 349 1327T388 1235Q388 1182 350 1143T258 1104Q205 1104 167 1143T129 1235ZM531 1235Q531 1288 568 1327T658 1366Q711 1366 750 1327T789 1235Q789 1182 750 1143T658 1104Q605 1104 568 1143T531 1235Z"/><glyph unicode="ı" horiz-adv-x="516" d="M31 858V913H197L385 930V55H481V0H35V55H135V858H31Z"/><glyph unicode="Ÿ" horiz-adv-x="1167" d="M-35 1360V1419H537V1360H385L682 754L989 1360H838V1419H1204V1360H1079L721 670V59H883V0H293V59H451V637L96 1360H-35ZM272 1704Q272 1757 310 1796T401 1835Q454 1835 492 1796T530 1704Q530 1651 493 1612T401 1573Q348 1573 310 1612T272 1704ZM715 1704Q715 1757 751 1796T842 1835Q895 1835 934 1796T973 1704Q973 1651 934 1612T842 1573Q789 1573 752 1612T715 1704Z"/><glyph unicode="ˆ" horiz-adv-x="614" d="M-6 1032L238 1419H379L623 1032H563L309 1245L53 1032H-6Z"/><glyph unicode="˚" horiz-adv-x="614" d="M66 1239Q66 1325 135 1381T309 1438Q413 1438 483 1382T553 1239Q553 1155 487 1098T309 1040Q196 1040 131 1096T66 1239ZM205 1239Q205 1167 229 1126T309 1085Q364 1085 389 1126T414 1239Q414 1309 390 1351T309 1393Q205 1393 205 1239Z"/><glyph unicode="˜" horiz-adv-x="614" d="M-27 1092Q-21 1121 -5 1165T40 1253T110 1327T207 1358Q258 1358 296 1342T358 1313Q387 1299 416 1283T492 1266Q519 1266 537 1277T567 1305T587 1341T598 1376H657Q651 1347 634 1302T589 1214T520 1141T424 1110Q371 1110 334 1126T268 1159Q241 1173 211 1186T139 1200Q112 1200 94 1189T64 1162T44 1127T33 1092H-27Z"/><glyph unicode="–" horiz-adv-x="946" d="M90 483V612H856V483H90Z"/><glyph unicode="—" horiz-adv-x="1359" d="M90 483V612H1270V483H90Z"/><glyph unicode="‘" horiz-adv-x="468" d="M59 1059Q59 1211 138 1314T356 1450L375 1403Q252 1362 198 1287T143 1110V1083Q159 1106 185 1119T244 1133Q310 1133 351 1091T393 979Q393 916 349 872T238 827Q152 827 106 886T59 1059Z"/><glyph unicode="’" horiz-adv-x="468" d="M70 1296Q70 1359 114 1403T225 1448Q311 1448 357 1389T403 1217Q403 1065 325 962T106 825L88 872Q211 913 265 988T319 1165V1192Q303 1169 278 1156T219 1143Q153 1143 112 1185T70 1296Z"/><glyph unicode="“" horiz-adv-x="854" d="M61 1059Q61 1211 139 1314T356 1450L375 1403Q252 1362 198 1287T143 1110V1081Q159 1104 185 1117T244 1130Q310 1130 350 1090T391 979Q391 916 348 872T238 827Q152 827 107 886T61 1059ZM446 1059Q446 1211 524 1314T741 1450L760 1403Q637 1362 583 1287T528 1110V1081Q544 1104 570 1117T629 1130Q695 1130 735 1090T776 979Q776 916 733 872T623 827Q537 827 492 886T446 1059Z"/><glyph unicode="”" horiz-adv-x="854" d="M72 1296Q72 1359 115 1403T225 1448Q311 1448 356 1389T401 1217Q401 1065 324 962T106 825L88 872Q211 913 265 988T319 1165V1194Q303 1171 278 1158T219 1145Q153 1145 113 1186T72 1296ZM457 1296Q457 1359 500 1403T610 1448Q696 1448 741 1389T786 1217Q786 1065 709 962T492 825L473 872Q596 913 650 988T705 1165V1194Q689 1171 663 1158T604 1145Q538 1145 498 1186T457 1296Z"/><glyph unicode="…" horiz-adv-x="1376" d="M78 133Q78 196 122 240T229 285Q292 285 336 241T381 133Q381 70 337 26T229 -18Q166 -18 122 26T78 133ZM537 133Q537 196 581 240T688 285Q751 285 795 241T840 133Q840 70 796 26T688 -18Q625 -18 581 26T537 133ZM995 133Q995 196 1039 240T1147 285Q1210 285 1254 241T1298 133Q1298 70 1254 26T1147 -18Q1084 -18 1040 26T995 133Z"/><glyph unicode="⁄" horiz-adv-x="202" d="M-324 0L438 1419H535L-227 0H-324Z"/><glyph unicode="⅓" horiz-adv-x="1492" d="M80 1341Q191 1364 265 1393T377 1442H436V653H561V602H106V653H231V1323L88 1292L80 1341ZM297 0L1059 1419H1155L393 0H297ZM827 147Q827 190 859 225T944 260Q1003 260 1026 227T1049 158Q1049 123 1032 102T989 70Q1003 58 1030 47T1104 35Q1147 35 1173 53T1215 100T1237 163T1243 225Q1243 323 1210 368T1085 414Q1065 414 1036 406T987 397Q967 397 951 407T934 440Q934 458 950 469T987 481Q1003 481 1033 474T1081 467Q1161 467 1184 511T1208 659Q1208 682 1204 705T1190 749T1161 782T1108 795Q1061 795 1030 776Q1059 766 1075 744T1092 692Q1092 643 1062 617T985 590Q940 590 905 616T870 696Q870 733 894 760T954 807T1038 836T1133 846Q1192 846 1246 832T1341 792T1407 730T1432 651Q1432 614 1414 583T1365 525T1298 479T1221 446Q1270 436 1315 419T1393 376T1446 314T1466 233Q1466 174 1435 128T1351 49T1231 0T1090 -16Q1041 -16 994 -5T909 26T850 78T827 147Z"/><glyph unicode="⅔" horiz-adv-x="1632" d="M96 602V702Q162 735 234 782T367 891Q433 957 458 1028T483 1192Q483 1225 477 1258T456 1319T413 1363T342 1380Q283 1380 237 1354T190 1270V1253Q215 1280 260 1280Q305 1280 329 1253T354 1180Q354 1137 321 1109T240 1081Q205 1081 181 1096T141 1134T118 1185T111 1243Q111 1278 129 1314T184 1379T278 1428T416 1448Q543 1448 621 1388T700 1227Q700 1147 664 1082T569 960T438 854T291 758H666L684 872H737L717 602H96ZM436 0L1198 1419H1294L532 0H436ZM967 147Q967 190 998 225T1083 260Q1142 260 1165 227T1188 158Q1188 123 1171 102T1128 70Q1142 58 1169 47T1243 35Q1286 35 1312 53T1354 100T1376 163T1382 225Q1382 323 1349 368T1225 414Q1205 414 1175 406T1126 397Q1106 397 1090 407T1073 440Q1073 458 1089 469T1126 481Q1142 481 1172 474T1221 467Q1301 467 1324 511T1348 659Q1348 682 1344 705T1329 749T1300 782T1247 795Q1200 795 1169 776Q1198 766 1214 744T1231 692Q1231 643 1201 617T1124 590Q1079 590 1045 616T1010 696Q1010 733 1033 760T1093 807T1177 836T1272 846Q1331 846 1385 832T1481 792T1546 730T1571 651Q1571 614 1553 583T1505 525T1437 479T1360 446Q1409 436 1454 419T1533 376T1586 314T1606 233Q1606 174 1574 128T1490 49T1371 0T1229 -16Q1180 -16 1133 -5T1049 26T990 78T967 147Z"/><glyph unicode="⅕" horiz-adv-x="1478" d="M80 1341Q191 1364 265 1393T377 1442H436V653H561V602H106V653H231V1323L88 1292L80 1341ZM297 0L1059 1419H1155L393 0H297ZM821 147Q821 190 854 223T940 256Q993 256 1018 225T1044 154Q1044 119 1027 99T985 68Q999 54 1024 44T1092 33Q1133 33 1160 54T1203 107T1225 178T1231 254Q1231 289 1226 324T1207 390T1164 439T1090 459Q1049 459 1004 438T934 381L879 406L913 823H1292Q1323 823 1339 828T1365 843T1379 862T1391 885L1434 868L1395 737Q1385 702 1352 680T1266 657H961L942 475Q973 489 1023 501T1120 514Q1186 514 1246 496T1353 444T1426 363T1454 258Q1454 199 1424 149T1342 62T1223 5T1079 -16Q1030 -16 983 -6T900 24T843 75T821 147Z"/><glyph unicode="⅖" horiz-adv-x="1617" d="M96 602V702Q162 735 234 782T367 891Q433 957 458 1028T483 1192Q483 1225 477 1258T456 1319T413 1363T342 1380Q283 1380 237 1354T190 1270V1253Q215 1280 260 1280Q305 1280 329 1253T354 1180Q354 1137 321 1109T240 1081Q205 1081 181 1096T141 1134T118 1185T111 1243Q111 1278 129 1314T184 1379T278 1428T416 1448Q543 1448 621 1388T700 1227Q700 1147 664 1082T569 960T438 854T291 758H666L684 872H737L717 602H96ZM436 0L1198 1419H1294L532 0H436ZM961 147Q961 190 993 223T1079 256Q1132 256 1158 225T1184 154Q1184 119 1167 99T1124 68Q1138 54 1163 44T1231 33Q1272 33 1299 54T1342 107T1364 178T1370 254Q1370 289 1365 324T1346 390T1303 439T1229 459Q1188 459 1143 438T1073 381L1018 406L1053 823H1432Q1463 823 1479 828T1504 843T1518 862T1530 885L1573 868L1534 737Q1524 702 1491 680T1405 657H1100L1081 475Q1112 489 1162 501T1260 514Q1326 514 1386 496T1492 444T1565 363T1593 258Q1593 199 1563 149T1481 62T1362 5T1219 -16Q1170 -16 1123 -6T1040 24T983 75T961 147Z"/><glyph unicode="⅗" horiz-adv-x="1599" d="M80 750Q80 793 111 827T197 862Q256 862 278 829T301 760Q301 725 284 704T242 672Q256 660 282 649T356 637Q399 637 426 655T468 702T489 765T496 827Q496 925 462 970T338 1016Q318 1016 288 1008T240 999Q220 999 203 1009T186 1042Q186 1060 202 1071T240 1083Q256 1083 285 1076T334 1069Q414 1069 437 1113T461 1262Q461 1285 457 1308T443 1351T413 1384T360 1397Q313 1397 283 1378Q312 1368 328 1346T344 1294Q344 1245 315 1219T238 1192Q193 1192 158 1218T123 1298Q123 1335 146 1363T207 1410T291 1439T385 1448Q444 1448 498 1434T594 1394T659 1332T684 1253Q684 1216 666 1185T618 1127T550 1081T473 1049Q522 1039 567 1022T646 978T699 917T719 836Q719 777 687 731T603 651T484 602T342 586Q293 586 246 597T162 628T103 680T80 750ZM418 0L1180 1419H1276L514 0H418ZM942 147Q942 190 975 223T1061 256Q1114 256 1139 225T1165 154Q1165 119 1148 99T1106 68Q1120 54 1144 44T1212 33Q1253 33 1281 54T1324 107T1345 178T1352 254Q1352 289 1347 324T1327 390T1284 439T1210 459Q1169 459 1124 438T1055 381L999 406L1034 823H1413Q1444 823 1460 828T1486 843T1500 862T1511 885L1554 868L1516 737Q1506 702 1473 680T1386 657H1081L1063 475Q1094 489 1144 501T1241 514Q1307 514 1367 496T1473 444T1547 363T1575 258Q1575 199 1544 149T1462 62T1344 5T1200 -16Q1151 -16 1104 -6T1021 24T964 75T942 147Z"/><glyph unicode="⅘" horiz-adv-x="1665" d="M80 817V874Q137 960 190 1032T296 1170T403 1301T522 1438H627V877H713V965H762V731H713V817H627V653H731V602H319V653H426V817H80ZM152 877H426V1245Q383 1192 350 1151T288 1070T227 984T152 877ZM483 0L1245 1419H1341L580 0H483ZM1008 147Q1008 190 1040 223T1126 256Q1179 256 1205 225T1231 154Q1231 119 1214 99T1171 68Q1185 54 1210 44T1278 33Q1319 33 1346 54T1389 107T1411 178T1417 254Q1417 289 1412 324T1393 390T1350 439T1276 459Q1235 459 1190 438T1120 381L1065 406L1100 823H1479Q1510 823 1526 828T1551 843T1566 862T1577 885L1620 868L1581 737Q1571 702 1538 680T1452 657H1147L1128 475Q1159 489 1209 501T1307 514Q1373 514 1433 496T1539 444T1612 363T1640 258Q1640 199 1610 149T1528 62T1409 5T1266 -16Q1217 -16 1170 -6T1087 24T1030 75T1008 147Z"/><glyph unicode="⅛" horiz-adv-x="1552" d="M80 1341Q191 1364 265 1393T377 1442H436V653H561V602H106V653H231V1323L88 1292L80 1341ZM297 0L1059 1419H1155L393 0H297ZM840 223Q840 268 861 304T914 366T984 410T1057 438Q1026 446 992 462T932 502T888 558T870 633Q870 678 895 718T963 786T1062 832T1180 850Q1243 850 1299 833T1399 787T1466 718T1491 633Q1491 592 1473 559T1427 503T1366 463T1303 438Q1338 428 1375 411T1446 367T1499 304T1520 223Q1520 172 1491 128T1415 51T1307 0T1180 -18Q1112 -18 1051 0T942 51T868 128T840 223ZM1061 223Q1061 176 1069 134T1096 70Q1125 33 1180 33Q1237 33 1266 70Q1284 95 1292 135T1300 223Q1300 260 1291 303T1266 369Q1235 412 1180 412Q1127 412 1096 369Q1076 340 1069 300T1061 223ZM1090 635Q1090 600 1094 564T1112 506Q1122 488 1139 476T1180 463Q1223 463 1249 506Q1263 529 1267 565T1272 635Q1272 668 1266 709T1249 766Q1229 799 1180 799Q1133 799 1112 764Q1098 741 1094 706T1090 635Z"/><glyph unicode="⅜" horiz-adv-x="1673" d="M80 750Q80 793 111 827T197 862Q256 862 278 829T301 760Q301 725 284 704T242 672Q256 660 282 649T356 637Q399 637 426 655T468 702T489 765T496 827Q496 925 462 970T338 1016Q318 1016 288 1008T240 999Q220 999 203 1009T186 1042Q186 1060 202 1071T240 1083Q256 1083 285 1076T334 1069Q414 1069 437 1113T461 1262Q461 1285 457 1308T443 1351T413 1384T360 1397Q313 1397 283 1378Q312 1368 328 1346T344 1294Q344 1245 315 1219T238 1192Q193 1192 158 1218T123 1298Q123 1335 146 1363T207 1410T291 1439T385 1448Q444 1448 498 1434T594 1394T659 1332T684 1253Q684 1216 666 1185T618 1127T550 1081T473 1049Q522 1039 567 1022T646 978T699 917T719 836Q719 777 687 731T603 651T484 602T342 586Q293 586 246 597T162 628T103 680T80 750ZM418 0L1180 1419H1276L514 0H418ZM961 223Q961 268 982 304T1035 366T1105 410T1178 438Q1147 446 1113 462T1053 502T1009 558T991 633Q991 678 1015 718T1083 786T1182 832T1300 850Q1363 850 1420 833T1520 787T1587 718T1612 633Q1612 592 1594 559T1548 503T1487 463T1423 438Q1458 428 1496 411T1566 367T1619 304T1640 223Q1640 172 1612 128T1536 51T1428 0T1300 -18Q1232 -18 1171 0T1063 51T989 128T961 223ZM1182 223Q1182 176 1190 134T1217 70Q1246 33 1300 33Q1357 33 1386 70Q1404 95 1412 135T1421 223Q1421 260 1412 303T1386 369Q1355 412 1300 412Q1247 412 1217 369Q1197 340 1190 300T1182 223ZM1210 635Q1210 600 1214 564T1233 506Q1243 488 1260 476T1300 463Q1343 463 1370 506Q1384 529 1388 565T1393 635Q1393 668 1387 709T1370 766Q1350 799 1300 799Q1253 799 1233 764Q1219 741 1215 706T1210 635Z"/><glyph unicode="⅝" horiz-adv-x="1648" d="M84 750Q84 793 117 825T203 858Q256 858 281 827T307 756Q307 721 290 701T248 670Q262 656 286 646T354 635Q395 635 423 656T466 709T487 780T494 856Q494 891 489 927T469 992T426 1041T352 1061Q311 1061 266 1040T197 983L141 1008L176 1425H555Q586 1425 602 1430T627 1445T642 1464T653 1487L696 1470L657 1339Q647 1304 615 1282T528 1260H223L205 1077Q236 1091 286 1103T383 1116Q449 1116 509 1098T615 1046T689 965T717 860Q717 801 686 751T604 664T486 607T342 586Q293 586 246 596T163 626T106 678T84 750ZM393 0L1155 1419H1251L489 0H393ZM936 223Q936 268 957 304T1010 366T1080 410T1153 438Q1122 446 1089 462T1028 502T984 558T967 633Q967 678 991 718T1059 786T1158 832T1276 850Q1339 850 1395 833T1495 787T1562 718T1587 633Q1587 592 1569 559T1523 503T1463 463T1399 438Q1434 428 1471 411T1542 367T1595 304T1616 223Q1616 172 1588 128T1512 51T1403 0T1276 -18Q1208 -18 1147 0T1038 51T964 128T936 223ZM1157 223Q1157 176 1165 134T1192 70Q1221 33 1276 33Q1333 33 1362 70Q1380 95 1388 135T1397 223Q1397 260 1388 303T1362 369Q1331 412 1276 412Q1223 412 1192 369Q1172 340 1165 300T1157 223ZM1186 635Q1186 600 1190 564T1208 506Q1218 488 1235 476T1276 463Q1319 463 1346 506Q1360 529 1364 565T1368 635Q1368 668 1362 709T1346 766Q1326 799 1276 799Q1229 799 1208 764Q1194 741 1190 706T1186 635Z"/><glyph unicode="⅞" horiz-adv-x="1525" d="M104 1155L135 1438H739V1384Q655 1275 601 1199T515 1063T470 957T457 864Q457 829 460 805T468 761T476 722T479 680Q479 641 451 613T369 584Q318 584 283 611T248 713Q248 781 280 851T363 992T473 1133T588 1276H180L158 1155H104ZM270 0L1032 1419H1128L367 0H270ZM813 223Q813 268 834 304T888 366T957 410T1030 438Q999 446 966 462T906 502T862 558T844 633Q844 678 868 718T936 786T1035 832T1153 850Q1216 850 1272 833T1372 787T1439 718T1464 633Q1464 592 1446 559T1400 503T1340 463T1276 438Q1311 428 1348 411T1419 367T1472 304T1493 223Q1493 172 1465 128T1389 51T1280 0T1153 -18Q1085 -18 1024 0T916 51T841 128T813 223ZM1034 223Q1034 176 1042 134T1069 70Q1098 33 1153 33Q1210 33 1239 70Q1257 95 1265 135T1274 223Q1274 260 1265 303T1239 369Q1208 412 1153 412Q1100 412 1069 369Q1049 340 1042 300T1034 223ZM1063 635Q1063 600 1067 564T1085 506Q1095 488 1112 476T1153 463Q1196 463 1223 506Q1237 529 1241 565T1245 635Q1245 668 1239 709T1223 766Q1203 799 1153 799Q1106 799 1085 764Q1071 741 1067 706T1063 635Z"/><glyph unicode="" horiz-adv-x="911" d="M0 0V911H911V0H0Z"/><glyph unicode="ﬁ" horiz-adv-x="1038" d="M29 852V913H133V979Q133 1085 166 1170T257 1314T397 1405T578 1436Q639 1436 694 1421T789 1378T853 1311T877 1223Q877 1153 836 1112T731 1071Q665 1071 625 1108T584 1204Q584 1276 621 1305T713 1348V1360Q703 1364 672 1371T592 1378Q483 1378 433 1295T383 1040V913H721L907 930V55H999V0H563V55H657V852H383V55H487V0H35V55H133V852H29Z"/><glyph unicode="ﬂ" horiz-adv-x="1056" d="M29 852V913H133V979Q133 1085 166 1170T257 1314T398 1405T580 1436Q674 1436 750 1401L926 1436V55H1020V0H575V55H676V1092Q639 1106 616 1136T592 1208Q592 1267 628 1301T715 1348V1360Q705 1364 674 1371T594 1378Q383 1378 383 1040V913H549V852H383V55H487V0H35V55H133V852H29Z"/></font>
</defs>
</svg>
