<?xml version="1.0" standalone="no"?>
<!DOCTYPE svg PUBLIC "-//W3C//DTD SVG 1.1//EN" "http://www.w3.org/Graphics/SVG/1.1/DTD/svg11.dtd" >
<svg xmlns="http://www.w3.org/2000/svg" xmlns:xlink="http://www.w3.org/1999/xlink" version="1.1">
<metadata>
Created by FontForge 20141024 at Thu Oct 30 18:54:11 2014
 By World Wide Web Server
Copyright c Carter &#38; Cone Type Inc, 2011. All rights reserved.
</metadata>
<defs>
<font id="Postoni55-BoldItalic" horiz-adv-x="500" >
  <font-face 
    font-family="Postoni55"
    font-weight="700"
    font-style="italic"
    font-stretch="normal"
    units-per-em="1000"
    panose-1="2 0 8 6 8 0 0 9 0 3"
    ascent="750"
    descent="-250"
    x-height="454"
    cap-height="693"
    bbox="-264 -255 1105 929"
    underline-thickness="20"
    underline-position="-113"
    slope="-12"
    stemh="29"
    stemv="123"
    unicode-range="U+0020-FB04"
  />
<missing-glyph 
d="M0 0v693h500v-693h-500zM50 643v-593h400v593h-400z" />
    <glyph glyph-name="f_f" unicode="ff" horiz-adv-x="516" 
d="M200 446h131l5 23c5 21 13 44 23 66c-21 9 -33 30 -33 53c0 27 17 60 58 60c11 0 21 -1 29 -5l2 6c-15 12 -36 23 -75 23c-65 0 -95 -58 -114 -121c-14 -46 -16 -57 -26 -105zM92 -234c-52 0 -90 24 -99 65c-41 -44 -93 -75 -156 -75c-58 0 -101 30 -101 82
c0 42 27 74 66 74c34 0 56 -23 56 -55c0 -30 -20 -61 -58 -63c-8 0 -19 2 -31 5l-2 -6c13 -14 38 -20 60 -20c52 0 94 40 135 153c35 97 81 329 114 499h-77l5 21h76l7 29c33 139 117 216 246 216c57 0 90 -17 107 -41c37 31 83 51 141 51c62 0 102 -26 102 -78
c0 -42 -28 -75 -67 -75c-34 0 -56 23 -56 55c0 30 21 61 59 63c9 0 19 -2 29 -6l2 6c-14 12 -37 18 -59 18c-63 0 -93 -56 -112 -119c-14 -46 -19 -75 -28 -119h114l-8 -21h-109c-29 -144 -46 -261 -94 -397c-51 -145 -137 -262 -262 -262zM83 -217c52 0 91 40 132 153
c35 97 78 319 111 489h-128c-29 -144 -46 -272 -97 -407c-10 -28 -24 -62 -43 -96c35 -1 56 -23 56 -55c0 -29 -20 -61 -58 -63c-8 0 -19 2 -31 5l-2 -6c13 -14 38 -20 60 -20z" />
    <glyph glyph-name="f_f_i" unicode="ffi" horiz-adv-x="747" 
d="M200 446h131l7 29c5 22 12 42 20 61c-20 9 -32 29 -32 52c0 27 17 60 58 60c11 0 21 -1 29 -5l2 6c-15 12 -36 23 -75 23c-65 0 -95 -58 -114 -121c-14 -46 -16 -57 -26 -105zM91 -239c-52 0 -92 25 -100 68c-41 -43 -92 -73 -154 -73c-58 0 -101 30 -101 82
c0 42 27 74 66 74c34 0 56 -23 56 -55c0 -30 -20 -61 -58 -63c-8 0 -19 2 -31 5l-2 -6c13 -14 38 -20 60 -20c52 0 94 40 135 153c35 97 81 329 114 499h-77l5 21h76l7 29c33 139 117 216 246 216c57 0 90 -17 107 -41c42 33 97 51 166 51c68 0 126 -27 126 -91
c0 -52 -33 -79 -70 -79c-39 0 -64 26 -64 60c0 37 24 66 63 66c9 0 20 -2 32 -6l3 5c-16 16 -47 27 -81 27c-84 0 -115 -53 -136 -122c-13 -45 -19 -71 -29 -115h160c31 0 68 4 94 8l-92 -349c-4 -13 -7 -31 -7 -41c0 -23 9 -33 27 -33c20 0 48 24 68 56l13 -10
c-43 -71 -94 -88 -147 -88c-51 0 -80 34 -80 77c0 9 3 25 5 33l81 306c2 9 3 20 -12 20h-113c-29 -144 -47 -265 -95 -401c-51 -146 -136 -263 -261 -263zM81 -222c52 0 91 40 132 153c35 98 80 324 113 494h-128c-29 -144 -46 -272 -97 -407c-10 -30 -25 -65 -46 -101h1
c34 0 56 -23 56 -55c0 -29 -20 -61 -58 -62c-8 0 -19 1 -31 4l-2 -6c13 -13 38 -20 60 -20z" />
    <glyph glyph-name="f_f_l" unicode="ffl" horiz-adv-x="752" 
d="M200 446h131l8 33c5 20 11 39 18 57c-20 9 -31 29 -31 52c0 27 17 60 58 60c11 0 21 -1 29 -5l2 6c-15 12 -36 23 -75 23c-65 0 -95 -58 -114 -121c-14 -46 -16 -57 -26 -105zM92 -234c-50 0 -90 23 -99 64c-41 -43 -93 -74 -156 -74c-58 0 -101 30 -101 82
c0 42 27 74 66 74c34 0 56 -23 56 -55c0 -30 -20 -61 -58 -63c-8 0 -19 2 -31 5l-2 -6c13 -14 38 -20 60 -20c52 0 94 40 135 153c35 97 81 329 114 499h-77l5 21h76l7 29c33 139 117 216 246 216c57 0 90 -16 107 -40c41 32 93 50 154 50c36 0 63 -9 80 -22
c47 9 59 15 100 22l-157 -596c-4 -13 -8 -31 -8 -41c0 -24 10 -33 28 -33c20 0 48 24 68 56l13 -10c-43 -71 -94 -88 -147 -88c-51 0 -80 34 -80 77c0 9 3 25 5 33l121 458c-22 5 -36 24 -36 47c0 30 22 60 57 62c9 0 20 -1 31 -6l1 6c-16 12 -37 17 -68 17
c-69 0 -104 -59 -122 -121c-13 -43 -20 -72 -29 -116h101l-7 -21h-97c-29 -144 -46 -261 -94 -397c-51 -145 -137 -262 -262 -262zM83 -217c52 0 91 40 132 153c35 97 78 319 111 489h-128c-29 -144 -46 -272 -97 -407c-10 -28 -24 -62 -43 -96h1c33 0 55 -23 55 -55
c0 -30 -20 -61 -58 -63c-8 0 -19 2 -31 5l-2 -6c13 -14 38 -20 60 -20z" />
    <glyph glyph-name="f_i" unicode="fi" horiz-adv-x="497" 
d="M310 425h-112c-29 -144 -49 -271 -97 -407c-51 -145 -139 -262 -264 -262c-58 0 -101 30 -101 82c0 42 27 74 66 74c34 0 56 -23 56 -55c0 -30 -20 -61 -58 -63c-8 0 -19 2 -31 5l-2 -6c13 -14 38 -20 60 -20c52 0 94 40 135 153c35 97 81 329 114 499h-77l5 21h77l7 31
c33 139 116 224 268 224c68 0 126 -28 126 -90c0 -48 -30 -80 -71 -80c-35 0 -62 27 -62 60c0 39 26 65 65 65c9 0 20 -2 29 -6l3 6c-16 16 -46 27 -81 27c-83 0 -115 -53 -136 -122c-14 -45 -20 -71 -29 -115h161c31 0 67 4 93 8l-92 -349c-4 -13 -7 -31 -7 -41
c0 -23 9 -33 27 -33c20 0 48 24 68 56l14 -10c-43 -71 -94 -88 -147 -88c-51 0 -80 34 -80 77c0 9 3 25 5 33l80 306c2 9 3 20 -12 20z" />
    <glyph glyph-name="f_j" unicode="fj" horiz-adv-x="484" 
d="M454 454c-37 -154 -60 -268 -96 -409c-42 -164 -138 -279 -263 -279c-47 0 -88 26 -96 69c-44 -49 -98 -79 -162 -79c-58 0 -101 30 -101 82c0 42 27 74 66 74c34 0 56 -23 56 -55c0 -30 -20 -61 -58 -63c-8 0 -19 2 -31 5l-2 -6c13 -14 38 -20 60 -20
c52 0 94 40 135 153c35 97 81 329 114 499h-77l5 21h77l7 31c33 139 116 224 268 224c68 0 126 -28 126 -90c0 -48 -30 -80 -71 -80c-35 0 -62 27 -62 60c0 39 29 65 67 65c9 0 20 -2 30 -7l3 7c-16 15 -49 27 -84 27c-83 0 -115 -53 -136 -122c-14 -45 -20 -71 -29 -115
h160c31 0 68 4 94 8zM101 18c-12 -34 -26 -66 -42 -96c39 1 60 -23 60 -55c0 -33 -24 -62 -57 -63c-10 0 -19 1 -31 5l-3 -6c14 -12 33 -21 60 -21c52 0 91 42 126 172c26 97 68 279 108 453c2 9 3 18 -12 18h-112c-29 -144 -49 -271 -97 -407z" />
    <glyph glyph-name="f_l" unicode="fl" horiz-adv-x="503" 
d="M81 446l8 33c34 139 123 222 255 222c37 0 63 -9 81 -22c47 9 58 15 99 22l-157 -596c-4 -13 -7 -31 -7 -41c0 -24 9 -33 27 -33c20 0 48 24 68 56l14 -10c-43 -71 -94 -88 -147 -88c-51 0 -80 34 -80 77c0 9 3 25 5 33l120 458c-22 5 -36 24 -36 47c0 30 22 60 57 62
c9 0 21 -1 31 -6l2 6c-16 12 -38 17 -68 17c-70 0 -105 -59 -123 -121c-13 -43 -20 -72 -29 -116h102l-8 -21h-97c-29 -144 -49 -271 -97 -407c-51 -145 -139 -262 -264 -262c-58 0 -101 30 -101 82c0 42 27 74 66 74c34 0 56 -23 56 -55c0 -30 -20 -61 -58 -63
c-8 0 -19 2 -31 5l-2 -6c13 -14 38 -20 60 -20c52 0 94 40 135 153c35 97 81 329 114 499h-66l5 21h66z" />
    <glyph glyph-name="f_t" unicode="ft" horiz-adv-x="527" 
d="M200 446h133l26 102c-11 11 -18 26 -18 43c0 36 26 64 65 65c9 0 19 -2 29 -6l3 6c-14 16 -45 27 -76 27c-83 0 -112 -53 -133 -122c-14 -45 -20 -71 -29 -115zM327 425h-129c-29 -144 -49 -271 -97 -407c-51 -145 -139 -262 -264 -262c-58 0 -101 30 -101 82
c0 42 27 74 66 74c34 0 56 -23 56 -55c0 -30 -20 -61 -58 -63c-8 0 -19 2 -31 5l-2 -6c13 -14 38 -20 60 -20c52 0 94 40 135 153c35 97 81 329 114 499h-77l5 21h77l7 31c33 139 113 224 266 224c67 0 119 -28 119 -90c0 -14 -2 -26 -7 -37l20 3l-34 -131h94l-6 -21h-94
l-83 -319c-3 -12 -6 -32 -6 -42c0 -25 12 -33 30 -33c19 0 51 24 71 56l14 -10c-43 -68 -97 -88 -150 -88c-51 0 -83 34 -83 77c0 9 2 25 4 34z" />
    <glyph glyph-name=".notdef" 
d="M0 0v693h500v-693h-500zM50 643v-593h400v593h-400z" />
    <glyph glyph-name="Eth" unicode="&#xd0;" horiz-adv-x="609" 
d="M225 0c-55 0 -111 1 -166 1c-42 0 -96 -1 -138 -1l5 20h56c15 0 19 11 21 20l82 309h-58l6 23h57l75 281c2 9 3 20 -12 20h-56l5 20c42 0 91 -1 133 -1c49 0 99 2 148 1c137 -2 214 -99 214 -242c0 -237 -172 -451 -372 -451zM294 653l-75 -281h113l-7 -23h-111l-81 -309
c-2 -9 -3 -20 12 -20h74c75 0 136 56 169 138c12 29 30 77 55 188c24 103 30 162 30 192c0 76 -31 135 -103 135h-54c-15 0 -20 -11 -22 -20z" />
    <glyph glyph-name="eth" unicode="&#xf0;" horiz-adv-x="446" 
d="M337 410c-1 43 -7 102 -24 169l-105 -43l-6 17l105 44c-12 39 -31 79 -54 111l11 11c37 -30 66 -63 90 -102l110 46l5 -17l-105 -45c51 -99 67 -228 33 -368c-36 -148 -137 -246 -266 -246c-110 0 -153 66 -153 150c0 31 5 66 16 103c32 113 113 214 246 214
c49 0 81 -18 97 -44zM290 368c0 51 -19 70 -46 71c-42 0 -64 -40 -87 -92c-9 -19 -26 -70 -40 -124c-17 -73 -24 -125 -24 -153c0 -43 13 -67 42 -67c38 0 64 26 89 83c13 29 34 95 44 134c11 38 22 112 22 148z" />
    <glyph glyph-name="Lslash" unicode="&#x141;" horiz-adv-x="510" 
d="M145 20h76c52 0 102 32 142 79c33 40 71 100 85 127h19l-73 -226c-99 0 -207 1 -335 1c-42 0 -96 -1 -138 -1l5 20h56c15 0 19 11 21 20l64 243l-90 -45l6 25l90 45l92 345c2 9 3 20 -12 20h-56l4 20c42 0 92 -1 134 -1c40 0 102 1 142 1l-4 -20h-57
c-15 0 -20 -11 -22 -20l-73 -279l132 66l-6 -25l-133 -67l-81 -308c-2 -9 -3 -20 12 -20z" />
    <glyph glyph-name="lslash" unicode="&#x142;" horiz-adv-x="249" 
d="M257 405l-77 -42l-68 -258c-4 -13 -8 -31 -8 -41c0 -24 10 -33 28 -33c20 0 48 24 68 56l13 -10c-43 -71 -94 -88 -147 -88c-51 0 -80 34 -80 77c0 9 3 25 5 33l54 205l-77 -43l6 26l78 43l86 324c2 9 3 20 -12 20l-44 1l4 18h89c31 0 68 4 94 8l-82 -312l77 42z" />
    <glyph glyph-name="Scaron" unicode="&#x160;" horiz-adv-x="512" 
d="M522 928h16l-161 -187h-69l-71 187h15l111 -104zM542 693l-57 -217h-19c-4 103 -19 212 -140 212c-85 0 -148 -67 -148 -153c0 -43 15 -75 56 -96c49 -26 95 -43 142 -68c54 -29 91 -68 91 -130c0 -143 -125 -255 -302 -255c-95 0 -148 38 -172 38c-11 0 -18 -13 -25 -24
h-18l61 233h19c0 -106 29 -228 153 -228c112 0 167 87 167 164c0 39 -15 73 -55 94c-44 23 -98 44 -143 68c-52 28 -88 69 -88 136c0 127 108 240 274 240c87 0 144 -38 160 -38c11 0 20 15 25 24h19z" />
    <glyph glyph-name="scaron" unicode="&#x161;" horiz-adv-x="373" 
d="M392 687h16l-161 -187h-69l-71 187h15l111 -104zM337 357c0 -42 -34 -68 -67 -68c-30 0 -56 23 -56 56c0 35 31 66 68 61v6c-14 13 -39 30 -82 30c-53 0 -78 -37 -78 -74c0 -50 34 -69 94 -111c61 -43 91 -67 91 -130c0 -81 -75 -139 -189 -139c-104 0 -166 60 -166 127
c0 41 31 68 64 68c30 0 59 -24 59 -57c0 -39 -27 -68 -67 -63l-2 -6c14 -27 61 -52 112 -52c53 0 84 35 84 79c0 38 -35 63 -96 106c-66 46 -83 77 -83 130c0 77 71 139 174 139c86 0 140 -42 140 -102z" />
    <glyph glyph-name="Yacute" unicode="&#xdd;" horiz-adv-x="586" 
d="M388 742h-20l125 181h139l-1 -13zM150 40l72 272l-78 343c-2 10 -4 18 -17 18h-46l4 20c37 0 100 -1 137 -1c43 0 90 1 133 1l-4 -20h-59c-11 0 -17 -8 -16 -17l70 -304l210 275c22 26 23 46 0 46h-43l5 20c30 0 69 -1 99 -1c25 0 45 1 70 1l-4 -20h-23
c-27 -1 -45 -16 -66 -42l-239 -304l-76 -287c-2 -9 -3 -20 12 -20h62l-5 -20c-40 0 -104 1 -144 1c-42 0 -99 -1 -141 -1l5 20h60c15 0 20 11 22 20z" />
    <glyph glyph-name="yacute" unicode="&#xfd;" horiz-adv-x="420" 
d="M208 501h-20l125 181h139l-1 -13zM398 388c0 -113 -109 -288 -182 -386c-72 -97 -161 -191 -225 -230c-16 -9 -39 -16 -53 -16c-46 0 -73 33 -74 70c0 33 21 68 67 69c35 1 58 -22 58 -52c0 -21 -11 -40 -27 -51l2 -6c44 9 117 84 184 162c-31 223 -75 359 -97 424
c-5 13 -11 24 -17 24c-15 0 -42 -35 -58 -65l-15 10c40 75 77 118 130 118c51 0 70 -34 83 -75c18 -57 50 -151 71 -308c60 95 113 203 115 278l-8 2c-10 -17 -25 -25 -44 -24c-30 0 -54 24 -54 56c0 46 36 70 72 70c41 0 72 -24 72 -70z" />
    <glyph glyph-name="Thorn" unicode="&#xde;" horiz-adv-x="548" 
d="M399 439c0 70 -36 93 -100 93h-36l-88 -337c23 -6 47 -8 64 -8c72 0 122 54 152 179c7 28 8 53 8 73zM268 552h96c70 0 174 -23 174 -136c0 -176 -156 -254 -275 -253c-29 0 -67 4 -94 10l-36 -133c-2 -9 -3 -20 12 -20h56l-5 -20c-40 0 -97 1 -137 1
c-42 0 -96 -1 -138 -1l5 20h56c15 0 19 11 21 20l162 613c2 9 3 20 -12 20h-56l4 20c42 0 92 -1 134 -1c40 0 102 1 142 1l-5 -20h-56c-15 0 -20 -11 -22 -20z" />
    <glyph glyph-name="thorn" unicode="&#xfe;" horiz-adv-x="480" 
d="M315 363c0 41 -20 55 -44 55c-39 0 -66 -28 -87 -50l-77 -294c11 -27 31 -53 69 -53c31 0 57 25 80 79c10 22 25 65 38 123c14 61 21 117 21 140zM100 48l-65 -253c-2 -9 -3 -20 12 -20h45l-4 -19c-40 0 -77 1 -117 1c-42 0 -84 -1 -126 -1l4 19h44c15 0 19 11 21 20
l225 860c2 9 3 20 -12 20h-38l5 19h84c31 0 67 4 93 8l-81 -306c41 39 72 62 124 62c85 0 120 -58 120 -140c0 -29 -5 -64 -12 -95c-30 -130 -101 -234 -217 -234c-52 0 -85 21 -105 59z" />
    <glyph glyph-name="Zcaron" unicode="&#x17d;" horiz-adv-x="513" 
d="M529 928h16l-161 -187h-69l-71 187h15l111 -104zM583 693l-5 -21l-510 -652h160c52 0 109 39 144 80s75 104 86 126h19l-75 -226h-487l6 20l511 653h-152c-38 0 -93 -39 -129 -80c-26 -29 -57 -75 -66 -94h-20l59 194h459z" />
    <glyph glyph-name="zcaron" unicode="&#x17e;" horiz-adv-x="415" 
d="M412 687h16l-161 -187h-69l-71 187h15l111 -104zM396 442l-320 -324c94 -2 145 -41 187 -41c45 0 74 28 77 64l-5 2c-9 -9 -21 -20 -43 -20c-27 0 -46 18 -46 50c1 30 28 50 55 50c26 0 56 -16 56 -62c0 -93 -74 -170 -183 -170c-77 0 -107 44 -160 44
c-24 0 -46 -25 -59 -39l-15 15l323 331c-12 -4 -35 -6 -43 -6c-80 0 -110 27 -148 27c-33 0 -59 -24 -58 -51l4 -1c7 7 16 17 34 17c24 0 42 -20 42 -47c0 -25 -24 -46 -50 -46c-23 0 -49 18 -49 59c0 90 82 160 153 160c67 0 105 -31 163 -31c20 0 33 3 43 6l25 27z" />
    <glyph glyph-name="onehalf" unicode="&#xbd;" horiz-adv-x="728" 
d="M294 704l-100 -372c-2 -9 -3 -20 12 -20h45l-4 -18c-40 0 -69 1 -109 1c-42 0 -74 -1 -115 -1l5 18h44c15 0 20 11 22 20l76 285c5 17 6 26 -15 22l-52 -13v16c67 17 133 47 162 62h29zM643 693l-567 -693h-39l567 693h39zM661 130l-45 -130h-302l12 45
c46 20 111 57 156 94c59 48 97 110 97 190c0 33 -19 60 -57 60c-44 0 -83 -22 -97 -58l5 -3c9 7 21 11 32 11c27 0 43 -22 40 -48c-3 -32 -29 -52 -60 -52c-34 0 -52 28 -52 58c0 62 73 116 163 116c88 0 125 -43 125 -99c0 -116 -146 -179 -259 -238h183c17 0 21 7 29 25
l12 29h18z" />
    <glyph glyph-name="onequarter" unicode="&#xbc;" horiz-adv-x="681" 
d="M294 704l-100 -372c-2 -9 -3 -20 12 -20h45l-4 -18c-40 0 -69 1 -109 1c-42 0 -74 -1 -115 -1l5 18h44c15 0 20 11 22 20l76 285c5 17 6 26 -15 22l-52 -13v16c67 17 133 47 162 62h29zM657 693l-567 -693h-39l567 693h39zM440 129l50 186c-65 -58 -119 -108 -193 -186
h143zM532 107l-20 -74c-2 -7 -3 -16 9 -16h37l-4 -18c-32 0 -64 1 -96 1c-34 0 -72 -1 -105 -1l4 18h38c12 0 17 9 19 16l20 74h-169l6 25c100 104 186 181 294 275h47l-74 -278h33c7 0 16 2 19 14l9 32h17c-3 -10 -10 -34 -17 -61l-14 -53h-16l8 32c3 12 -5 14 -12 14h-33z
" />
    <glyph glyph-name="threequarters" unicode="&#xbe;" horiz-adv-x="743" 
d="M719 693l-567 -693h-39l567 693h39zM149 286c-67 0 -113 26 -113 76c0 30 27 59 61 59c38 0 50 -25 50 -48c0 -26 -20 -44 -49 -47l-4 -3c9 -11 25 -21 61 -21c77 0 100 87 100 141c0 37 -14 59 -58 59c-13 0 -39 -14 -56 -14c-13 0 -24 5 -23 20s17 21 32 21
s38 -12 50 -12c58 0 80 54 80 121c0 32 -12 52 -43 52c-24 0 -47 -9 -57 -16l3 -5c25 -1 37 -18 37 -38c0 -32 -25 -51 -56 -51c-29 0 -52 16 -51 49c2 49 80 78 145 78c71 0 127 -32 127 -81c0 -56 -61 -97 -125 -114c55 -12 102 -36 102 -86c0 -87 -111 -140 -213 -140z
M511 129l50 186c-65 -58 -119 -108 -193 -186h143zM603 107l-20 -74c-2 -7 -3 -16 9 -16h37l-4 -18c-32 0 -64 1 -96 1c-34 0 -72 -1 -105 -1l4 18h38c12 0 17 9 19 16l20 74h-169l6 25c100 104 186 181 294 275h47l-74 -278h33c7 0 16 2 19 14l9 32h17
c-3 -10 -10 -34 -17 -61l-14 -53h-16l8 32c3 12 -5 14 -12 14h-33z" />
    <glyph glyph-name="brokenbar" unicode="&#xa6;" horiz-adv-x="272" 
d="M101 708h43v-298h-43v298zM101 298h43v-298h-43v298z" />
    <glyph glyph-name="minus" unicode="&#x2212;" 
d="M449 309h-398v63h398v-63z" />
    <glyph glyph-name="multiply" unicode="&#xd7;" 
d="M429 339l-89 -86h4l-90 -90l-89 86l-4 -1l-90 89l88 86h-4l90 91l90 -87l4 2z" />
    <glyph glyph-name="space" unicode=" " horiz-adv-x="208" 
 />
    <glyph glyph-name="exclam" unicode="!" horiz-adv-x="262" 
d="M272 631c0 -100 -111 -211 -150 -367l-12 -48l-22 6l11 48c35 152 4 262 29 367c11 44 44 67 80 68s64 -28 64 -74zM136 66c0 -42 -33 -76 -74 -76s-74 34 -74 76s33 76 74 76s74 -34 74 -76z" />
    <glyph glyph-name="quotedbl" unicode="&#x22;" horiz-adv-x="349" 
d="M105 423c8 78 17 211 19 229c4 36 29 55 61 55c27 0 52 -20 40 -58c-6 -18 -69 -146 -104 -226h-16zM259 423c8 78 17 211 19 229c4 36 29 55 61 55c27 0 52 -20 40 -58c-6 -18 -69 -146 -104 -226h-16z" />
    <glyph glyph-name="numbersign" unicode="#" horiz-adv-x="543" 
d="M334 360h-111l-31 -107h110zM496 442l-26 -82h-110l-32 -107h120l-26 -81h-116l-49 -172h-27l49 172h-109l-49 -172h-27l49 172h-113l26 81h109l32 107h-119l25 82h117l50 175h27l-50 -175h109l50 175h27l-50 -175h113z" />
    <glyph glyph-name="dollar" unicode="$" horiz-adv-x="521" 
d="M367 679h-14c-15 0 -34 -1 -47 -3l-68 -250c14 -6 38 -16 54 -21zM283 670c-64 -21 -110 -79 -110 -150c0 -40 17 -64 47 -84zM260 284c-15 6 -40 15 -55 20l-79 -293c7 -1 21 -2 30 -2c8 0 22 0 30 1zM346 181c0 44 -23 76 -68 95l-70 -262c84 15 138 95 138 167z
M517 585c0 -52 -35 -78 -73 -78c-35 0 -65 21 -65 63c0 38 28 64 61 65c10 0 20 -2 30 -7l4 5c-13 19 -51 38 -87 43l-76 -278c18 -6 36 -14 53 -22c56 -28 90 -75 90 -140c0 -123 -109 -221 -251 -240l-18 -67h-20l17 65c-8 -1 -22 -1 -30 -1s-21 0 -30 1l-17 -65h-22
l18 68c-68 9 -128 42 -128 114c0 45 33 84 79 84c44 0 65 -33 65 -66c0 -40 -30 -65 -61 -68c-11 -1 -21 0 -31 6l-6 -5c10 -23 42 -40 87 -47l80 295c-19 7 -35 15 -44 20c-50 29 -77 72 -77 131c0 135 113 211 223 229l13 49h22l-12 -45c10 0 23 1 32 1c7 0 21 0 28 -1
l12 45h20l-13 -47c66 -9 127 -40 127 -107z" />
    <glyph glyph-name="percent" unicode="%" horiz-adv-x="800" 
d="M411 552c0 -120 -91 -265 -217 -265c-90 0 -132 74 -132 158c0 117 92 262 217 262c89 0 132 -75 132 -155zM705 693l-563 -693h-49l564 693h48zM314 628c0 38 -10 64 -38 64c-51 0 -75 -85 -99 -195c-11 -50 -18 -96 -18 -130c0 -39 10 -65 38 -65c51 0 73 73 99 195
c10 48 18 97 18 131zM738 254c0 -120 -91 -265 -217 -265c-90 0 -132 74 -132 158c0 117 92 262 217 262c89 0 132 -75 132 -155zM641 330c0 38 -10 64 -38 64c-51 0 -75 -85 -99 -195c-11 -50 -18 -96 -18 -130c0 -39 10 -65 38 -65c51 0 73 73 99 195c10 48 18 97 18 131z
" />
    <glyph glyph-name="ampersand" unicode="&#x26;" horiz-adv-x="615" 
d="M535 418c50 0 70 -34 70 -70s-24 -68 -68 -69c-32 -1 -59 20 -59 59c0 12 5 25 15 35l-4 2c-40 -29 -51 -143 -111 -219c41 -72 79 -110 103 -110c36 0 60 33 72 54l14 -10c-31 -49 -62 -104 -158 -104c-52 0 -80 23 -115 76c-49 -43 -95 -76 -172 -76
c-103 0 -152 73 -152 153c0 123 73 184 184 239c-13 47 -22 92 -22 132c0 94 56 197 206 197c79 0 143 -33 143 -108c0 -103 -97 -159 -210 -196c23 -79 62 -165 98 -231c64 93 57 246 166 246zM377 608c0 42 -10 80 -44 80c-41 0 -81 -44 -81 -151c0 -32 7 -78 16 -118
c102 47 109 145 109 189zM286 78c-59 102 -85 157 -127 281c-48 -56 -61 -132 -61 -188c0 -81 41 -133 95 -133c26 0 59 8 93 40z" />
    <glyph glyph-name="quotesingle" unicode="'" horiz-adv-x="195" 
d="M105 423c8 78 17 211 19 229c4 36 29 55 61 55c27 0 52 -20 40 -58c-6 -18 -69 -146 -104 -226h-16z" />
    <glyph glyph-name="parenleft" unicode="(" horiz-adv-x="332" 
d="M135 -239c-36 47 -148 153 -148 343c0 39 5 84 16 130c67 270 299 416 370 473l15 -12c-79 -68 -178 -138 -259 -461c-27 -110 -36 -194 -35 -255c1 -116 32 -164 59 -207z" />
    <glyph glyph-name="parenright" unicode=")" horiz-adv-x="332" 
d="M-101 -239l-14 12c78 67 176 138 257 461c28 111 37 196 36 255c0 115 -30 164 -58 207l17 11c36 -47 148 -154 148 -343c0 -39 -5 -84 -17 -130c-67 -270 -298 -416 -369 -473z" />
    <glyph glyph-name="asterisk" unicode="*" horiz-adv-x="317" 
d="M354 591c0 -28 -21 -42 -45 -42c-14 0 -27 6 -35 20l-50 -16l32 -42c6 3 14 5 20 5c26 0 43 -19 43 -43c0 -25 -19 -44 -45 -44c-25 0 -41 22 -41 46c0 9 3 19 10 26l-32 43l-31 -43c6 -7 9 -17 9 -26c0 -24 -16 -46 -41 -46c-26 0 -45 19 -45 44c0 24 17 43 43 43
c6 0 15 -2 21 -5l32 42l-49 16c-10 -13 -23 -20 -37 -20c-24 0 -45 14 -45 42c0 25 18 45 44 45c23 0 42 -20 42 -44v-8l50 -15v52c-21 4 -35 21 -35 42c0 25 19 44 43 44c25 0 45 -19 45 -44c0 -20 -15 -37 -38 -42v-52l50 16c0 1 -1 6 -1 7c0 24 19 44 42 44
c26 0 44 -20 44 -45z" />
    <glyph glyph-name="plus" unicode="+" 
d="M456 309h-176v-175h-61v175h-175v63h175v174h61v-174h176v-63z" />
    <glyph glyph-name="comma" unicode="," horiz-adv-x="228" 
d="M138 55c0 -103 -68 -191 -168 -214l-4 16c84 26 142 95 144 174l-3 5c-12 -21 -30 -38 -60 -38c-38 0 -63 26 -63 63c0 46 36 80 81 80c47 0 73 -31 73 -86z" />
    <glyph glyph-name="hyphen" unicode="&#x2010;" horiz-adv-x="324" 
d="M268 308l-24 -85h-230l24 85h230z" />
    <glyph glyph-name="period" unicode="." horiz-adv-x="228" 
d="M133 66c0 -42 -33 -76 -74 -76c-42 0 -75 34 -75 76s33 76 75 76c41 0 74 -34 74 -76z" />
    <glyph glyph-name="slash" unicode="/" horiz-adv-x="312" 
d="M375 707l-492 -917h-53l493 917h52z" />
    <glyph glyph-name="zero" unicode="0" horiz-adv-x="526" 
d="M519 470c0 -42 -6 -87 -14 -123c-41 -175 -163 -360 -322 -360c-123 0 -176 108 -176 237c0 41 4 82 14 123c41 175 163 360 322 360c123 0 176 -110 176 -237zM407 597c0 65 -21 93 -67 93c-31 0 -56 -15 -84 -56c-41 -60 -80 -208 -98 -287c-14 -64 -40 -180 -40 -250
c0 -68 28 -93 68 -93c31 0 59 15 86 56c41 61 78 208 96 287c16 70 39 179 39 250z" />
    <glyph glyph-name="one" unicode="1" horiz-adv-x="327" 
d="M162 622l-83 -22v19c103 26 185 60 227 83h21l-175 -662c-2 -9 -3 -20 12 -20l65 -1l-5 -19c-40 0 -103 1 -143 1c-42 0 -107 -1 -149 -1l6 19l67 1c14 0 19 11 21 20l150 569c4 14 2 17 -14 13z" />
    <glyph glyph-name="two" unicode="2" horiz-adv-x="469" 
d="M44 111h290c22 0 32 8 39 28l26 66h21l-69 -205h-427l18 68c64 36 154 95 227 165c101 97 159 211 159 323c0 66 -31 122 -103 122c-70 0 -144 -57 -144 -125c0 -4 1 -16 2 -19l5 -1c8 25 27 47 64 47c35 0 58 -28 58 -64c0 -44 -32 -72 -74 -72c-55 0 -82 45 -82 94
c0 83 83 170 229 170c110 0 179 -66 179 -152c0 -193 -195 -308 -418 -445z" />
    <glyph glyph-name="three" unicode="3" horiz-adv-x="463" 
d="M456 578c0 -110 -116 -186 -219 -204c92 -13 172 -54 172 -143c0 -150 -143 -245 -297 -245c-100 0 -167 46 -167 119c0 44 33 85 80 85c45 0 65 -33 65 -65c0 -41 -30 -68 -58 -71c-10 -1 -21 0 -31 4l-4 -6c15 -25 60 -48 119 -48c110 0 158 145 158 250
c0 67 -30 107 -98 107c-18 0 -47 -16 -71 -16c-13 0 -27 4 -27 21c0 18 20 28 37 28c24 0 48 -14 64 -14c98 0 144 117 144 222c0 48 -24 86 -77 86c-45 0 -101 -22 -127 -54l3 -5c12 10 26 15 40 15c31 0 54 -23 54 -56c0 -47 -32 -73 -72 -73c-39 0 -69 24 -69 71
c0 71 100 122 193 122c109 0 188 -51 188 -130z" />
    <glyph glyph-name="four" unicode="4" 
d="M226 218l92 347c-104 -106 -182 -187 -318 -347h226zM352 218h56c9 0 21 2 25 17l16 58h19c-10 -40 -13 -47 -24 -87l-23 -87h-18l14 58c4 15 -6 17 -15 17h-57l-41 -154c-2 -9 -4 -20 11 -20l59 -1l-5 -19c-40 0 -96 1 -136 1c-42 0 -99 -1 -141 -1l5 19l58 1
c15 0 21 11 23 20l41 154h-253l8 28c167 198 311 340 449 477h57z" />
    <glyph glyph-name="five" unicode="5" horiz-adv-x="461" 
d="M521 729l-50 -98c-21 -41 -56 -57 -102 -57h-222l-66 -200c25 19 70 51 148 51c105 0 188 -66 188 -167c0 -159 -154 -272 -308 -272c-94 0 -156 44 -156 117c0 47 34 85 82 85c45 0 64 -32 64 -66c0 -35 -24 -65 -57 -68c-13 -3 -28 -1 -38 5l-5 -7
c12 -21 50 -48 118 -48c111 0 167 178 167 288c0 67 -21 109 -84 109c-46 0 -100 -28 -130 -66l-22 11l113 345h269c56 0 63 25 74 45z" />
    <glyph glyph-name="six" unicode="6" horiz-adv-x="505" 
d="M499 685c-114 -11 -291 -118 -341 -314c45 60 106 78 159 78c96 0 154 -75 154 -172c0 -167 -148 -290 -283 -290c-118 0 -184 96 -184 220c0 277 240 485 495 498v-20zM344 319c0 60 -20 104 -67 104c-57 0 -107 -53 -127 -113c-18 -54 -28 -109 -28 -192
c0 -73 21 -113 71 -113c28 0 53 12 74 41c52 67 77 187 77 273z" />
    <glyph glyph-name="seven" unicode="7" horiz-adv-x="447" 
d="M450 582h-302c-22 0 -30 -9 -38 -28l-30 -69h-20l77 208h418l-7 -27c-223 -251 -295 -347 -324 -454c-21 -79 -13 -103 -27 -157c-10 -44 -41 -71 -82 -71c-31 0 -59 17 -59 56c0 155 216 353 394 542z" />
    <glyph glyph-name="eight" unicode="8" horiz-adv-x="512" 
d="M512 562c0 -126 -134 -183 -196 -196c52 -11 144 -59 144 -151c0 -133 -147 -232 -279 -232c-110 0 -197 66 -197 162c0 140 155 208 224 221c-49 12 -129 49 -129 134c0 116 128 209 255 209c103 0 178 -60 178 -147zM384 618c0 46 -21 73 -56 73c-26 0 -46 -9 -67 -39
c-33 -47 -54 -136 -54 -200c0 -44 19 -78 56 -78c26 0 49 13 69 42c36 49 52 130 52 202zM329 263c0 62 -27 93 -70 93c-29 0 -57 -14 -81 -45c-37 -47 -63 -137 -63 -218c0 -63 25 -92 71 -92c29 0 54 8 79 40c37 45 64 137 64 222z" />
    <glyph glyph-name="nine" unicode="9" horiz-adv-x="505" 
d="M5 -16v20c117 11 293 123 341 319c-44 -60 -106 -78 -159 -78c-96 0 -153 75 -153 172c0 167 145 290 281 290c120 0 185 -96 185 -220c0 -277 -237 -492 -495 -503zM161 378c0 -61 19 -107 67 -107c57 0 108 54 127 113c18 58 27 110 27 193c0 72 -22 112 -71 112
c-28 0 -52 -12 -73 -41c-53 -69 -77 -189 -77 -270z" />
    <glyph glyph-name="colon" unicode=":" horiz-adv-x="248" 
d="M201 345c0 -42 -33 -76 -74 -76c-42 0 -75 34 -75 76s33 76 75 76c41 0 74 -34 74 -76zM137 66c0 -42 -33 -76 -74 -76c-42 0 -75 34 -75 76s33 76 75 76c41 0 74 -34 74 -76z" />
    <glyph glyph-name="semicolon" unicode=";" horiz-adv-x="248" 
d="M201 345c0 -42 -33 -76 -74 -76c-42 0 -75 34 -75 76s33 76 75 76c41 0 74 -34 74 -76zM141 55c0 -103 -68 -191 -168 -214l-4 16c84 26 142 95 144 174l-3 5c-12 -21 -30 -38 -60 -38c-38 0 -63 26 -63 63c0 46 36 80 81 80c47 0 73 -31 73 -86z" />
    <glyph glyph-name="less" unicode="&#x3c;" 
d="M477 534v-26l-284 -165l284 -163v-29l-407 160v63z" />
    <glyph glyph-name="equal" unicode="=" 
d="M449 384h-398v63h398v-63zM449 233h-398v63h398v-63z" />
    <glyph glyph-name="greater" unicode="&#x3e;" 
d="M33 508v26l407 -160v-63l-407 -160v29l284 163z" />
    <glyph glyph-name="question" unicode="?" horiz-adv-x="367" 
d="M401 577c0 -92 -52 -160 -152 -222c-89 -56 -117 -79 -123 -108c-2 -11 -4 -26 -5 -42h-18c-1 20 -4 47 -4 71c0 78 39 133 105 182c51 38 112 81 112 147c0 48 -29 80 -81 80s-107 -27 -122 -53l4 -5c9 7 20 10 30 11c33 0 54 -24 54 -54c0 -34 -29 -60 -64 -60
c-37 0 -62 25 -62 64c0 71 81 116 173 116c93 0 153 -54 153 -127zM189 66c0 -42 -33 -76 -74 -76s-74 34 -74 76s33 76 74 76s74 -34 74 -76z" />
    <glyph glyph-name="at" unicode="@" horiz-adv-x="891" 
d="M648 70c74 60 119 159 119 286c0 72 -24 130 -72 179c-44 46 -117 73 -195 73c-100 0 -186 -35 -257 -104c-83 -79 -125 -208 -125 -333c0 -87 27 -158 78 -211c55 -57 134 -95 230 -95c99 0 183 32 267 95l12 -16c-86 -68 -179 -111 -287 -111c-107 0 -195 31 -258 88
c-74 66 -111 155 -111 263c0 137 54 261 166 357c80 68 174 102 278 102c188 0 309 -112 309 -296c0 -170 -109 -324 -231 -324c-76 0 -107 24 -122 79c-37 -44 -67 -71 -124 -71c-70 0 -97 51 -97 116c0 135 90 309 219 309c44 0 67 -24 85 -61l11 50h60l55 7l-94 -314
c-5 -16 -7 -39 -7 -50c0 -27 11 -43 28 -43c11 0 32 0 63 25zM474 423c-16 0 -38 -14 -66 -63c-37 -65 -67 -168 -67 -235c0 -34 12 -55 30 -55c30 0 59 32 79 57l75 244c-9 25 -22 52 -51 52z" />
    <glyph glyph-name="A" unicode="A" horiz-adv-x="550" 
d="M401 696l24 -659c0 -11 5 -17 18 -17h41l-4 -20c-35 0 -82 1 -118 1c-42 0 -104 -1 -146 -1l5 20h61c11 0 15 8 15 17l-8 190h-182l-90 -161c-16 -28 -10 -46 10 -46h50l-5 -20c-28 0 -73 1 -102 1c-24 0 -47 -1 -71 -1l4 20h28c20 0 39 16 56 45l358 631h56zM289 249
l-8 284l-161 -284h169z" />
    <glyph glyph-name="B" unicode="B" horiz-adv-x="570" 
d="M235 0c-55 0 -121 1 -176 1c-42 0 -96 -1 -138 -1l5 20h56c15 0 19 11 21 20l162 613c2 9 3 20 -12 20h-56l5 20c42 0 91 -1 133 -1c49 0 101 2 150 1c83 0 177 -32 177 -123c0 -100 -63 -178 -215 -204c89 -4 167 -50 167 -135c0 -142 -118 -231 -279 -231zM220 373h40
c99 0 128 41 158 167c4 19 6 40 6 55c0 57 -31 78 -101 78h-7c-15 0 -20 -11 -22 -20zM145 20h76c100 0 130 101 147 173c7 29 9 54 9 74c0 61 -30 86 -120 86h-41l-83 -313c-2 -9 -3 -20 12 -20z" />
    <glyph glyph-name="C" unicode="C" horiz-adv-x="529" 
d="M583 692l-54 -207h-19c-6 95 -21 206 -133 206c-72 0 -115 -56 -152 -148c-16 -40 -39 -97 -62 -197c-28 -122 -33 -190 -33 -226c0 -72 30 -118 96 -118c99 0 164 121 221 216h20l-57 -217h-20c-1 8 -1 28 -13 28c-17 0 -72 -43 -161 -43c-153 0 -210 109 -210 243
c0 208 137 478 370 478c89 0 143 -43 159 -43c13 0 24 20 29 28h19z" />
    <glyph glyph-name="D" unicode="D" horiz-adv-x="607" 
d="M225 0c-55 0 -111 1 -166 1c-42 0 -96 -1 -138 -1l5 20h56c15 0 19 11 21 20l162 613c2 9 3 20 -12 20h-56l5 20c42 0 91 -1 133 -1c49 0 99 2 148 1c137 -2 214 -99 214 -242c0 -237 -172 -451 -372 -451zM294 653l-161 -613c-2 -9 -3 -20 12 -20h74
c75 0 136 56 169 138c12 29 30 77 55 188c24 103 30 162 30 192c0 76 -31 135 -103 135h-54c-15 0 -20 -11 -22 -20z" />
    <glyph glyph-name="E" unicode="E" horiz-adv-x="537" 
d="M294 653l-74 -280c116 0 145 26 190 135h19l-77 -291h-19c2 19 3 36 3 50c0 77 -39 85 -120 85l-83 -312c-2 -9 -3 -20 12 -20h100c50 0 101 31 140 79c34 40 71 101 86 127h18l-73 -226c-99 0 -229 1 -357 1c-42 0 -96 -1 -138 -1l5 20h56c15 0 19 11 21 20l162 613
c2 9 3 20 -12 20h-56l5 20c42 0 91 -1 133 -1c40 0 259 1 347 1l-44 -194h-18c0 36 -3 64 -11 96c-12 40 -46 78 -75 78h-118c-15 0 -20 -11 -22 -20z" />
    <glyph glyph-name="F" unicode="F" horiz-adv-x="514" 
d="M435 673h-119c-15 0 -20 -11 -22 -20l-74 -286c122 0 150 27 194 136h19l-77 -291h-19c2 20 3 37 3 51c0 76 -41 84 -126 84l-80 -307c-2 -9 -3 -20 12 -20h56l-6 -20c-40 0 -97 1 -137 1c-42 0 -96 -1 -138 -1l6 20h56c15 0 19 11 21 20l161 613c2 9 3 20 -12 20h-56
l5 20c42 0 91 -1 133 -1c40 0 263 1 351 1l-46 -202h-18c-1 43 -4 65 -11 100c-9 47 -46 82 -76 82z" />
    <glyph glyph-name="G" unicode="G" horiz-adv-x="589" 
d="M326 49l47 189c2 9 3 20 -12 20h-58l4 20c40 0 96 -1 136 -1c42 0 90 1 132 1l-4 -20h-49c-15 0 -19 -11 -21 -20l-44 -176c-61 -43 -159 -76 -233 -76c-157 0 -218 112 -218 245c0 208 143 476 381 476c89 0 145 -43 162 -43c13 0 24 20 28 28h18l-55 -205h-18
c-7 94 -28 204 -138 204c-74 0 -129 -65 -163 -151c-17 -43 -36 -94 -59 -194c-26 -114 -34 -182 -34 -222c0 -77 30 -122 102 -122c34 0 77 19 96 47z" />
    <glyph glyph-name="H" unicode="H" horiz-adv-x="632" 
d="M420 349h-206l-81 -309c-2 -9 -3 -20 12 -20h52l-5 -20c-40 0 -93 1 -133 1c-42 0 -96 -1 -138 -1l5 20h56c15 0 19 11 21 20l162 613c2 9 3 20 -12 20h-56l4 20c42 0 92 -1 134 -1c40 0 100 1 140 1l-4 -20h-55c-15 0 -20 -11 -22 -20l-74 -281h206l74 281
c2 9 3 20 -12 20h-55l4 20c40 0 94 -1 134 -1c42 0 98 1 140 1l-4 -20h-57c-15 0 -20 -11 -22 -20l-160 -613c-2 -9 -3 -20 12 -20h50l-5 -20c-42 0 -87 1 -129 1c-40 0 -100 -1 -140 -1l6 20h54c15 0 20 11 22 20z" />
    <glyph glyph-name="I" unicode="I" horiz-adv-x="298" 
d="M294 653l-161 -613c-2 -9 -3 -20 12 -20h55l-6 -20c-40 0 -95 1 -135 1c-42 0 -96 -1 -138 -1l5 20h56c15 0 19 11 21 20l162 613c2 9 3 20 -12 20h-56l5 20c42 0 91 -1 133 -1c40 0 102 1 142 1l-5 -20h-56c-15 0 -20 -11 -22 -20z" />
    <glyph glyph-name="J" unicode="J" horiz-adv-x="316" 
d="M-3 -49l183 702c2 9 3 20 -12 20h-58l5 20c42 0 94 -1 136 -1c40 0 108 1 148 1l-5 -20h-63c-15 0 -20 -11 -22 -20l-160 -614c-36 -139 -137 -238 -264 -238c-79 0 -116 37 -116 89c0 38 32 73 72 73s63 -25 63 -63s-30 -62 -60 -66l-1 -6c7 -6 23 -11 44 -11
c42 0 84 34 110 134z" />
    <glyph glyph-name="K" unicode="K" horiz-adv-x="590" 
d="M209 337l-76 -297c-2 -9 -3 -20 12 -20h53l-6 -20c-40 0 -93 1 -133 1c-42 0 -96 -1 -138 -1l5 20h56c15 0 19 11 21 20l162 613c2 9 3 20 -12 20h-57l5 20c42 0 92 -1 134 -1c40 0 101 1 141 1l-5 -20h-55c-15 0 -20 -11 -22 -20l-79 -294h23l280 277c25 25 19 37 -3 37
h-44l5 20c35 0 62 -1 97 -1c28 0 68 1 96 1l-5 -20h-36c-28 0 -56 -14 -81 -40l-208 -207l135 -384c5 -14 15 -22 31 -22h36l-6 -20h-277l6 20h58c15 0 20 8 16 19l-103 298h-26z" />
    <glyph glyph-name="L" unicode="L" horiz-adv-x="506" 
d="M145 20h76c52 0 103 32 142 79c33 40 71 100 85 127h19l-73 -226c-99 0 -207 1 -335 1c-42 0 -96 -1 -138 -1l5 20h56c15 0 19 11 21 20l162 613c2 9 3 20 -12 20h-56l5 20c42 0 91 -1 133 -1c40 0 102 1 142 1l-5 -20h-56c-15 0 -20 -11 -22 -20l-161 -613
c-2 -9 -3 -20 12 -20z" />
    <glyph glyph-name="M" unicode="M" horiz-adv-x="745" 
d="M195 663l-158 -598c-7 -27 0 -44 25 -45h35l-6 -20c-21 0 -56 1 -81 1c-26 0 -70 -1 -90 -1l5 20h37c25 1 41 17 48 45l156 588c2 9 3 20 -12 20h-56l5 20c42 0 91 -1 133 -1c34 0 58 1 92 1l1 -493l267 493c24 0 55 -1 95 -1c42 0 88 1 130 1l-5 -20h-50
c-15 0 -20 -11 -22 -20l-160 -613c-2 -9 -3 -20 12 -20h50l-5 -20c-42 0 -88 1 -130 1c-40 0 -99 -1 -139 -1l4 20h56c15 0 20 11 22 20l164 623h-9l-359 -663h-44l-2 663h-9z" />
    <glyph glyph-name="N" unicode="N" horiz-adv-x="606" 
d="M593 628l-167 -636h-54l-187 631l-148 -558c-7 -27 0 -44 25 -45h37l-6 -20c-21 0 -59 1 -84 1c-27 0 -69 -1 -89 -1l6 20h36c25 1 41 17 48 45l156 588c2 9 3 20 -12 20h-57l5 20c42 0 73 -1 115 -1c34 0 55 1 80 1l155 -508l114 443c7 27 0 44 -25 45h-40l6 20
c21 0 63 -1 88 -1c27 0 70 1 90 1l-6 -20h-37c-25 -1 -42 -17 -49 -45z" />
    <glyph glyph-name="O" unicode="O" horiz-adv-x="594" 
d="M588 466c0 -229 -143 -480 -374 -480c-147 0 -208 111 -208 244c0 213 142 477 371 477c141 0 211 -98 211 -241zM463 576c0 75 -32 115 -93 115c-65 0 -113 -49 -148 -145c-15 -42 -37 -102 -60 -200c-29 -125 -32 -208 -32 -234c0 -70 33 -109 90 -109
c68 0 118 50 152 145c16 44 37 97 59 198c23 107 32 196 32 230z" />
    <glyph glyph-name="P" unicode="P" horiz-adv-x="539" 
d="M434 580c0 70 -35 93 -99 93h-36l-89 -337c23 -6 47 -8 64 -8c72 0 123 54 152 179c7 28 8 53 8 73zM235 692c55 0 109 1 164 1c70 0 174 -23 174 -136c0 -176 -156 -254 -275 -253c-29 0 -67 4 -94 10l-71 -274c-2 -9 -3 -20 12 -20h56l-5 -20c-40 0 -97 1 -137 1
c-42 0 -96 -1 -138 -1l5 20h56c15 0 19 11 21 20l162 613c2 9 3 20 -12 20h-56l4 20c42 0 92 -1 134 -1z" />
    <glyph glyph-name="Q" unicode="Q" horiz-adv-x="595" 
d="M588 466c0 -233 -144 -470 -359 -479l-89 -36c139 -18 234 -129 315 -129c52 0 93 28 93 68l-6 4c-11 -14 -27 -20 -37 -20c-32 0 -51 22 -51 53c0 35 35 57 62 57c35 0 62 -20 62 -68c0 -82 -115 -162 -224 -162c-106 0 -196 115 -310 115c-31 0 -55 -6 -82 -25l-9 15
c89 56 145 94 233 129c-130 15 -180 119 -180 242c0 213 142 477 371 477c141 0 211 -98 211 -241zM463 575c0 75 -32 116 -93 116c-65 0 -113 -49 -148 -145c-15 -42 -37 -102 -60 -200c-29 -125 -32 -208 -32 -234c0 -70 33 -109 90 -109c68 0 118 50 152 145
c16 44 37 97 59 198c23 107 32 195 32 229z" />
    <glyph glyph-name="R" unicode="R" horiz-adv-x="610" 
d="M400 693c70 0 174 -22 174 -127c0 -145 -123 -194 -229 -210c64 -19 121 -45 121 -137c0 -45 -9 -95 -9 -139c0 -35 8 -51 30 -51c25 0 53 26 75 64l14 -10c-45 -73 -87 -98 -152 -98c-70 0 -103 42 -103 103c0 67 14 127 14 179c0 56 -30 77 -70 77h-52l-80 -304
c-2 -9 -3 -20 12 -20h53l-5 -20c-40 0 -94 1 -134 1c-42 0 -96 -1 -138 -1l5 20h56c15 0 19 11 21 20l162 613c2 9 3 20 -12 20h-56l5 20c42 0 91 -1 133 -1c55 0 110 1 165 1zM433 584c0 67 -34 89 -99 89h-35l-81 -308c123 0 174 15 206 154c6 25 9 47 9 65z" />
    <glyph glyph-name="S" unicode="S" horiz-adv-x="512" 
d="M542 693l-57 -217h-19c-4 103 -19 212 -140 212c-85 0 -148 -67 -148 -153c0 -43 15 -75 56 -96c49 -26 95 -43 142 -68c54 -29 91 -68 91 -130c0 -143 -125 -255 -302 -255c-95 0 -148 38 -172 38c-11 0 -18 -13 -25 -24h-18l61 233h19c0 -106 29 -228 153 -228
c112 0 167 87 167 164c0 39 -15 73 -55 94c-44 23 -98 44 -143 68c-52 28 -88 69 -88 136c0 127 108 240 274 240c87 0 144 -38 160 -38c11 0 20 15 25 24h19z" />
    <glyph glyph-name="T" unicode="T" horiz-adv-x="568" 
d="M289 673h-46c-26 0 -79 -39 -112 -80c-23 -30 -52 -74 -61 -93h-20l62 193h525l-38 -193h-18c0 23 -3 56 -13 93c-11 41 -44 80 -71 80h-45c-15 0 -20 -11 -22 -20l-161 -613c-2 -9 -3 -20 12 -20h58l-5 -20c-40 0 -99 1 -139 1c-42 0 -97 -1 -139 -1l5 20h57
c15 0 19 11 21 20l162 613c2 9 3 20 -12 20z" />
    <glyph glyph-name="U" unicode="U" horiz-adv-x="613" 
d="M479 235l104 393c7 27 0 44 -25 45h-38l6 20c21 0 61 -1 86 -1c27 0 66 1 86 1l-6 -20h-33c-25 -1 -42 -17 -49 -45l-106 -405c-42 -160 -125 -237 -272 -237c-99 0 -200 33 -200 145c0 18 2 40 8 61l122 461c2 9 3 20 -12 20h-57l6 20c42 0 92 -1 134 -1
c40 0 108 1 148 1l-5 -20h-63c-15 0 -20 -11 -22 -20l-118 -447c-7 -28 -11 -56 -11 -78c0 -67 30 -104 104 -104c117 0 177 77 213 211z" />
    <glyph glyph-name="V" unicode="V" horiz-adv-x="567" 
d="M575 631l-358 -634h-57l-25 657c-1 11 -4 19 -17 19h-43l4 20c37 0 72 -1 109 -1c43 0 111 1 154 1l-4 -20h-61c-11 0 -16 -8 -15 -17l20 -496l264 471c15 25 7 42 -19 42h-36l5 20c30 0 62 -1 92 -1c25 0 51 1 76 1l-5 -20h-28c-16 0 -43 -19 -56 -42z" />
    <glyph glyph-name="W" unicode="W" horiz-adv-x="811" 
d="M582 673h-68c-10 0 -16 -8 -16 -17l7 -171l91 150c17 27 11 38 -14 38zM361 673h-84c-11 0 -16 -8 -16 -17l19 -503l115 187l-16 314c-1 11 -4 19 -18 19zM819 631l-354 -631h-50l-17 301l-186 -301h-51l-27 654c-1 11 -4 19 -17 19h-43l5 20c36 0 138 -1 321 -1
c74 0 281 1 305 1l-4 -20h-25c-16 -1 -41 -20 -55 -42l-113 -181l17 -292l265 473c15 25 7 42 -18 42h-30l5 20c30 0 53 -1 83 -1c24 0 53 1 77 1l-4 -20h-28c-16 0 -42 -19 -56 -42z" />
    <glyph glyph-name="X" unicode="X" horiz-adv-x="588" 
d="M354 397l84 -359c2 -10 5 -18 17 -18h48l-6 -20c-37 0 -92 1 -128 1c-42 0 -98 -1 -140 -1l6 20h57c11 0 17 8 16 17l-61 270l-200 -240c-21 -26 -23 -47 -1 -47h37l-5 -20c-29 0 -67 1 -97 1c-24 0 -53 -1 -77 -1l6 20h29c27 0 51 19 72 43l230 269l-77 323
c-2 10 -4 18 -17 18h-51l5 20c36 0 97 -1 133 -1c42 0 96 1 138 1l-5 -20h-57c-11 0 -16 -8 -15 -17l52 -233l171 203c22 25 23 47 1 47h-37l6 20c29 0 66 -1 96 -1c24 0 52 1 76 1l-5 -20h-28c-27 0 -51 -18 -73 -43z" />
    <glyph glyph-name="Y" unicode="Y" horiz-adv-x="586" 
d="M150 40l72 272l-78 343c-2 10 -4 18 -17 18h-46l4 20c37 0 100 -1 137 -1c43 0 90 1 133 1l-4 -20h-59c-11 0 -17 -8 -16 -17l70 -304l210 275c22 26 23 46 0 46h-43l5 20c30 0 69 -1 99 -1c25 0 45 1 70 1l-4 -20h-23c-27 -1 -45 -16 -66 -42l-239 -304l-76 -287
c-2 -9 -3 -20 12 -20h62l-5 -20c-40 0 -104 1 -144 1c-42 0 -99 -1 -141 -1l5 20h60c15 0 20 11 22 20z" />
    <glyph glyph-name="Z" unicode="Z" horiz-adv-x="513" 
d="M583 693l-5 -21l-510 -652h160c52 0 109 39 144 80s75 104 86 126h19l-75 -226h-487l6 20l511 653h-152c-38 0 -93 -39 -129 -80c-26 -29 -57 -75 -66 -94h-20l59 194h459z" />
    <glyph glyph-name="bracketleft" unicode="[" horiz-adv-x="373" 
d="M428 693l-6 -20h-116l-225 -863h116l-5 -20h-232l236 903h232z" />
    <glyph glyph-name="backslash" unicode="\" horiz-adv-x="330" 
d="M282 -210h-46l-157 917h47z" />
    <glyph glyph-name="bracketright" unicode="]" horiz-adv-x="373" 
d="M357 693l-236 -903h-232l5 20h116l226 863h-116l5 20h232z" />
    <glyph glyph-name="asciicircum" unicode="^" 
d="M247 522h81l111 -213h-19l-155 129l-223 -129h-21z" />
    <glyph glyph-name="underscore" unicode="_" 
d="M380 -134h-508l10 35h508z" />
    <glyph glyph-name="grave" unicode="`" horiz-adv-x="390" 
d="M287 501h-19l-206 169v12h137z" />
    <glyph glyph-name="a" unicode="a" horiz-adv-x="487" 
d="M302 370c-8 23 -21 55 -61 55c-29 0 -53 -24 -79 -78c-8 -16 -27 -64 -43 -124c-21 -81 -22 -119 -22 -137c0 -40 17 -56 41 -56c39 0 67 26 90 50zM306 -11c-49 0 -74 32 -79 69c-41 -44 -83 -70 -134 -70c-83 0 -117 54 -117 132c0 31 5 66 15 103
c33 126 109 235 226 235c52 0 74 -23 92 -62l14 50h32c30 0 62 3 89 8l-92 -349c-4 -14 -7 -31 -7 -41c0 -24 9 -33 27 -33c20 0 48 24 68 56l13 -10c-43 -71 -94 -88 -147 -88z" />
    <glyph glyph-name="b" unicode="b" horiz-adv-x="476" 
d="M-11 93l146 561c2 9 3 20 -12 20l-43 1l4 18h88c31 0 69 4 95 8l-80 -303c41 39 80 60 132 60c82 0 115 -55 115 -132c0 -32 -6 -67 -15 -103c-32 -127 -120 -235 -258 -235c-87 0 -152 36 -172 105zM315 366c0 36 -13 55 -40 55c-41 0 -72 -29 -94 -53l-80 -304
c4 -27 22 -59 59 -59c29 0 60 25 85 80c9 19 31 78 46 138c21 84 24 124 24 143z" />
    <glyph glyph-name="c" unicode="c" horiz-adv-x="381" 
d="M357 366c0 -50 -36 -75 -73 -75c-38 0 -63 23 -63 57c0 30 24 62 63 64c8 0 16 -1 25 -4l1 5c-14 17 -42 28 -70 28c-41 0 -75 -33 -97 -92c-7 -20 -24 -75 -33 -126c-12 -66 -13 -103 -13 -125c0 -57 21 -83 61 -83c69 0 121 53 157 131l17 -11
c-39 -82 -92 -146 -195 -146c-86 0 -159 51 -159 164c0 170 109 306 255 306c69 0 124 -31 124 -93z" />
    <glyph glyph-name="d" unicode="d" horiz-adv-x="489" 
d="M304 368c-9 23 -23 56 -61 56c-32 0 -57 -24 -81 -77c-8 -18 -28 -67 -43 -124c-19 -73 -22 -117 -22 -136c0 -40 19 -56 44 -56c40 0 65 24 88 48zM310 396l68 258c2 9 3 20 -12 20l-51 1l4 18h96c31 0 68 4 94 8l-154 -596c-4 -14 -7 -31 -7 -41c0 -24 9 -33 27 -33
c20 0 48 24 68 56l13 -10c-43 -71 -94 -88 -147 -88c-49 0 -74 32 -79 69c-43 -44 -86 -70 -137 -70c-83 0 -117 54 -117 132c0 31 5 66 15 103c33 126 108 235 225 235c53 0 77 -24 94 -62z" />
    <glyph glyph-name="e" unicode="e" horiz-adv-x="391" 
d="M260 383c0 42 -11 57 -30 57c-31 0 -60 -32 -86 -90c-14 -33 -22 -69 -29 -102c15 -4 26 -5 34 -5c65 0 111 61 111 140zM369 359c0 -67 -49 -134 -208 -134c-19 0 -35 2 -51 5c-8 -36 -12 -74 -12 -110c0 -65 27 -103 79 -103c64 0 114 44 158 124l15 -10
c-42 -85 -101 -143 -191 -143c-105 0 -181 53 -181 167c0 176 119 304 272 304c84 0 119 -40 119 -100z" />
    <glyph glyph-name="f" unicode="f" horiz-adv-x="266" 
d="M-173 -227c52 0 94 40 135 153c35 97 81 329 114 499h-77l5 21h76l8 34c33 139 120 221 242 221c62 0 102 -26 102 -78c0 -42 -28 -75 -67 -75c-34 0 -56 23 -56 55c0 27 18 61 59 63c9 0 19 -2 30 -6l2 6c-14 12 -38 18 -60 18c-63 0 -92 -56 -111 -119
c-14 -46 -20 -75 -29 -119h114l-7 -21h-109c-29 -144 -49 -271 -97 -407c-51 -145 -139 -262 -264 -262c-58 0 -101 30 -101 82c0 42 27 74 66 74c34 0 56 -23 56 -55c0 -30 -20 -61 -58 -63c-8 0 -19 2 -31 5l-2 -6c13 -14 38 -20 60 -20z" />
    <glyph glyph-name="g" unicode="g" horiz-adv-x="428" 
d="M389 556c40 0 55 -27 55 -54c0 -28 -20 -53 -54 -53c-30 0 -49 20 -49 44c0 11 4 22 11 31l-2 3c-18 -10 -36 -35 -36 -69c0 -7 1 -17 3 -26c42 -25 57 -70 57 -106c0 -114 -113 -170 -206 -177c-37 -3 -97 -4 -115 -7c-20 -4 -36 -14 -36 -38c0 -15 12 -26 31 -26h205
c84 0 104 -43 104 -89c0 -127 -151 -235 -282 -235c-91 0 -154 47 -154 108c0 43 29 79 82 103c-27 15 -46 48 -46 79c0 68 53 111 123 124c-44 19 -66 62 -66 109c0 81 79 182 211 182c30 0 59 -8 72 -16c-1 5 -1 9 -1 14c0 66 53 99 93 99zM263 389c0 27 -9 54 -40 54
c-56 0 -72 -75 -86 -138c-7 -32 -9 -67 -9 -87c0 -26 11 -53 40 -53c51 0 68 59 87 140c8 33 8 66 8 84zM301 -71c0 25 -22 33 -44 33h-240c-34 -28 -42 -57 -42 -87c0 -46 47 -83 129 -83c114 0 197 59 197 137z" />
    <glyph glyph-name="h" unicode="h" horiz-adv-x="495" 
d="M-34 0l172 654c2 9 3 20 -12 20l-41 1l5 18h85c31 0 69 4 95 8l-87 -328c61 58 105 85 165 85c51 0 82 -35 82 -79c0 -9 -1 -23 -4 -33l-69 -241c-4 -13 -7 -31 -7 -41c0 -24 9 -33 27 -33c20 0 48 24 68 56l13 -10c-43 -71 -93 -88 -146 -88c-51 0 -82 34 -82 77
c0 9 3 25 5 33l69 239c4 13 6 28 6 38c0 20 -12 30 -31 30c-39 0 -81 -37 -103 -62l-91 -344h-119z" />
    <glyph glyph-name="i" unicode="i" horiz-adv-x="250" 
d="M256 620c0 -40 -31 -71 -70 -71s-70 31 -70 71s31 71 70 71s70 -31 70 -71zM207 454l-92 -349c-4 -13 -7 -31 -7 -41c0 -24 9 -33 27 -33c20 0 48 24 68 56l13 -10c-43 -71 -94 -88 -147 -88c-51 0 -80 34 -80 77c0 9 3 25 5 33l82 308c2 9 3 20 -12 20l-39 1l4 18h84
c31 0 68 4 94 8z" />
    <glyph glyph-name="j" unicode="j" horiz-adv-x="249" 
d="M259 620c0 -40 -31 -71 -70 -71s-70 31 -70 71s31 71 70 71s70 -31 70 -71zM86 407c2 9 3 20 -12 20l-46 1l4 18h91c31 0 69 4 95 8c-37 -154 -62 -286 -101 -427c-43 -156 -136 -271 -261 -271c-53 0 -98 32 -98 84c0 42 27 72 66 72c34 0 56 -23 56 -55
c0 -33 -25 -62 -58 -62c-7 0 -16 1 -26 5l-3 -6c12 -13 32 -22 56 -22c52 0 88 41 121 153c29 97 77 308 116 482z" />
    <glyph glyph-name="k" unicode="k" horiz-adv-x="474" 
d="M-34 0l172 654c2 9 3 20 -12 20l-43 1l5 18h87c31 0 69 4 95 8l-87 -330c54 53 95 87 157 87c55 0 85 -28 85 -76c0 -65 -46 -139 -169 -148v-4c43 -16 64 -41 69 -96l6 -62c3 -33 5 -42 20 -42c25 0 59 36 74 63l13 -10c-21 -34 -59 -94 -141 -94c-63 0 -85 32 -89 78
c-2 17 -4 66 -6 90c-4 36 -21 50 -46 50c-7 0 -13 -1 -18 -3l-53 -204h-119zM303 359c0 29 -11 45 -34 45c-30 0 -58 -25 -93 -62l-34 -121c115 13 161 60 161 138z" />
    <glyph glyph-name="l" unicode="l" horiz-adv-x="247" 
d="M-9 99l147 555c2 9 3 20 -12 20l-44 1l4 18h89c31 0 68 4 94 8l-157 -596c-4 -14 -8 -31 -8 -41c0 -24 10 -33 28 -33c20 0 48 24 68 56l13 -10c-43 -71 -94 -88 -147 -88c-51 0 -80 34 -80 77c0 9 3 25 5 33z" />
    <glyph glyph-name="m" unicode="m" horiz-adv-x="741" 
d="M481 99l70 239c4 13 6 28 6 38c0 21 -12 30 -31 30c-39 0 -78 -38 -100 -62l-91 -344h-119l89 338c4 13 6 28 6 38c0 21 -11 30 -30 30c-39 0 -80 -38 -102 -62l-91 -344h-119l108 407c2 9 3 20 -12 20l-39 1l4 18h84c31 0 68 4 94 8l-22 -81c60 58 103 85 163 85
c51 0 82 -33 82 -86c60 60 102 86 162 86c51 0 83 -35 83 -79c0 -9 -1 -22 -5 -35l-68 -239c-4 -13 -7 -31 -7 -41c0 -24 9 -33 27 -33c20 0 48 24 68 56l13 -10c-43 -71 -94 -88 -147 -88c-51 0 -81 34 -81 77c0 9 3 25 5 33z" />
    <glyph glyph-name="n" unicode="n" horiz-adv-x="498" 
d="M208 454l-22 -81c61 58 105 85 165 85c51 0 82 -35 82 -79c0 -9 -1 -22 -4 -32l-69 -242c-4 -13 -7 -31 -7 -41c0 -24 9 -33 27 -33c20 0 48 24 68 56l13 -10c-43 -71 -94 -88 -147 -88c-51 0 -81 34 -81 77c0 9 3 25 5 33l69 239c4 13 6 28 6 38c0 21 -12 30 -31 30
c-39 0 -81 -37 -103 -62l-91 -344h-119l108 407c2 9 3 20 -12 20l-39 1l4 18h84c31 0 68 4 94 8z" />
    <glyph glyph-name="o" unicode="o" horiz-adv-x="445" 
d="M401 293c0 -159 -102 -305 -266 -305c-117 0 -157 78 -157 170c0 138 92 300 265 300c109 0 158 -70 158 -165zM284 366c0 48 -13 75 -47 75c-51 0 -87 -42 -125 -217c-16 -73 -17 -126 -17 -142c0 -48 13 -77 47 -77c60 0 85 49 125 217c18 75 17 126 17 144z" />
    <glyph glyph-name="p" unicode="p" horiz-adv-x="477" 
d="M316 363c0 41 -20 55 -44 55c-39 0 -65 -28 -86 -50l-77 -294c11 -27 31 -53 69 -53c31 0 56 25 79 79c10 22 25 65 38 123c14 61 21 117 21 140zM101 48l-64 -253c-2 -9 -3 -20 12 -20h45l-5 -19c-40 0 -77 1 -117 1c-42 0 -84 -1 -126 -1l5 19h44c15 0 19 11 21 20
l161 612c2 9 3 20 -12 20l-39 1l5 18h83c31 0 67 4 93 8l-16 -58c41 39 72 62 124 62c85 0 120 -58 120 -140c0 -29 -5 -64 -12 -95c-30 -130 -101 -234 -217 -234c-52 0 -85 21 -105 59z" />
    <glyph glyph-name="q" unicode="q" horiz-adv-x="475" 
d="M446 454l-170 -659c-2 -9 -3 -20 12 -20h42l-5 -19c-40 0 -74 1 -114 1c-42 0 -86 -1 -128 -1l5 19h46c15 0 19 11 21 20l67 256c-40 -39 -78 -62 -129 -62c-82 0 -117 52 -117 132c0 31 5 65 15 102c33 126 108 235 225 235c52 0 77 -25 95 -65l14 53h32c30 0 65 4 89 8
zM304 367c-9 23 -23 57 -61 57c-32 0 -57 -25 -81 -77c-9 -19 -29 -70 -43 -124c-19 -73 -22 -114 -22 -135c0 -40 19 -57 44 -57c40 0 66 24 89 48z" />
    <glyph glyph-name="r" unicode="r" horiz-adv-x="371" 
d="M210 454l-22 -81c34 42 69 84 121 84c47 0 69 -32 69 -73c0 -51 -35 -84 -72 -84c-30 0 -58 19 -58 56c0 27 13 52 38 65l-2 4c-37 -2 -82 -54 -103 -82l-90 -343h-119l106 407c2 9 3 20 -12 20l-38 1l4 18h84c31 0 68 4 94 8z" />
    <glyph glyph-name="s" unicode="s" horiz-adv-x="373" 
d="M337 357c0 -42 -34 -68 -67 -68c-30 0 -56 23 -56 56c0 35 31 66 68 61v6c-14 13 -39 30 -82 30c-53 0 -78 -37 -78 -74c0 -50 34 -69 94 -111c61 -43 91 -67 91 -130c0 -81 -75 -139 -189 -139c-104 0 -166 60 -166 127c0 41 31 68 64 68c30 0 59 -24 59 -57
c0 -39 -27 -68 -67 -63l-2 -6c14 -27 61 -52 112 -52c53 0 84 35 84 79c0 38 -35 63 -96 106c-66 46 -83 77 -83 130c0 77 71 139 174 139c86 0 140 -42 140 -102z" />
    <glyph glyph-name="t" unicode="t" horiz-adv-x="280" 
d="M298 446l-5 -21h-94l-83 -319c-3 -12 -6 -32 -6 -42c0 -25 12 -33 30 -33c19 0 51 24 71 56l13 -10c-43 -68 -97 -88 -150 -88c-51 0 -83 34 -83 77c0 9 2 25 4 34l85 325h-56l5 21h56l36 138h31c30 0 63 4 90 8l-38 -146h94z" />
    <glyph glyph-name="u" unicode="u" horiz-adv-x="498" 
d="M318 -11c-51 0 -80 34 -80 77v9c-60 -59 -104 -87 -168 -87c-52 0 -83 35 -83 80c0 9 2 25 5 35l84 304c2 9 3 20 -12 20l-38 1l4 18h83c31 0 67 4 93 8l-91 -343c-4 -15 -6 -28 -6 -38c0 -25 13 -33 31 -33c42 0 81 38 103 63l91 343h32c30 0 60 4 89 8l-91 -349
c-3 -13 -7 -31 -7 -41c0 -24 9 -33 27 -33c20 0 48 24 68 56l13 -10c-43 -71 -94 -88 -147 -88z" />
    <glyph glyph-name="v" unicode="v" horiz-adv-x="454" 
d="M423 357c0 -171 -133 -369 -300 -369c-74 0 -112 36 -112 99c0 14 2 36 8 57l58 205c3 12 5 25 5 34c0 15 -1 33 -26 33s-56 -39 -69 -59l-14 10c28 39 56 90 145 90c62 0 85 -38 85 -69c0 -6 -1 -22 -3 -29l-59 -208c-8 -30 -9 -53 -9 -65c0 -37 22 -56 46 -56
c119 0 196 172 197 321l-6 2c-9 -13 -21 -20 -36 -20c-32 -1 -58 23 -58 58c0 39 31 67 73 67c40 0 75 -26 75 -101z" />
    <glyph glyph-name="w" unicode="w" horiz-adv-x="691" 
d="M361 -12c-67 0 -105 31 -110 86c-56 -60 -98 -86 -165 -86c-52 0 -83 35 -83 80c0 9 2 25 5 35l69 246c3 12 5 25 5 34c0 15 -1 33 -26 33s-56 -39 -69 -59l-14 10c28 39 56 90 145 90c62 0 85 -38 85 -69c0 -6 -1 -22 -3 -29l-70 -249c-4 -13 -6 -27 -6 -37
c0 -25 13 -34 31 -34c37 0 72 30 95 55l91 352h32c30 0 61 4 89 8l-79 -302c-7 -26 -8 -51 -8 -66c0 -37 18 -56 40 -56c119 0 197 172 197 321l-6 2c-9 -15 -24 -21 -39 -21c-32 1 -56 26 -56 59c0 39 30 68 74 68c41 0 74 -27 74 -105c0 -165 -131 -366 -298 -366z" />
    <glyph glyph-name="x" unicode="x" horiz-adv-x="461" 
d="M263 341c36 68 72 116 125 117c43 1 69 -24 69 -73c0 -43 -30 -67 -64 -67c-37 0 -57 28 -56 55c0 22 13 47 40 58l-4 5c-32 -4 -62 -47 -88 -108c-23 -53 -44 -159 -44 -209c0 -64 14 -90 42 -90c38 0 78 28 117 106l16 -10c-39 -82 -99 -136 -176 -136
c-53 0 -100 34 -103 132c-41 -90 -90 -132 -132 -132c-44 0 -74 27 -74 72c0 40 28 68 64 68c33 0 53 -25 53 -50c0 -29 -19 -54 -49 -63l2 -5c41 -5 74 28 105 102c24 55 52 169 52 226c0 60 -16 79 -39 79c-37 0 -74 -25 -114 -98l-16 11c42 79 95 127 168 127
c63 0 100 -40 106 -117z" />
    <glyph glyph-name="y" unicode="y" horiz-adv-x="420" 
d="M398 388c0 -113 -109 -288 -182 -386c-72 -97 -161 -191 -225 -230c-16 -9 -39 -16 -53 -16c-46 0 -73 33 -74 70c0 33 21 68 67 69c35 1 58 -22 58 -52c0 -21 -11 -40 -27 -51l2 -6c44 9 117 84 184 162c-31 223 -75 359 -97 424c-5 13 -11 24 -17 24
c-15 0 -42 -35 -58 -65l-15 10c40 75 77 118 130 118c51 0 70 -34 83 -75c18 -57 50 -151 71 -308c60 95 113 203 115 278l-8 2c-10 -17 -25 -25 -44 -24c-30 0 -54 24 -54 56c0 46 36 70 72 70c41 0 72 -24 72 -70z" />
    <glyph glyph-name="z" unicode="z" horiz-adv-x="415" 
d="M402 442l-320 -324c94 -2 145 -41 187 -41c45 0 74 28 77 64l-5 2c-9 -9 -21 -20 -43 -20c-27 0 -46 18 -46 50c1 30 28 50 55 50c26 0 56 -16 56 -62c0 -93 -74 -170 -183 -170c-77 0 -107 44 -160 44c-24 0 -46 -25 -59 -39l-15 15l323 331c-12 -4 -35 -6 -43 -6
c-80 0 -110 27 -148 27c-33 0 -59 -24 -58 -51l4 -1c7 7 16 17 34 17c24 0 42 -20 42 -47c0 -25 -24 -46 -50 -46c-23 0 -49 18 -49 59c0 90 82 160 153 160c67 0 105 -31 163 -31c20 0 33 3 43 6l25 27z" />
    <glyph glyph-name="braceleft" unicode="{" horiz-adv-x="392" 
d="M450 693l-5 -20c-63 -4 -110 -3 -137 -112c-10 -40 -16 -70 -26 -110c-35 -140 -112 -171 -218 -189l-5 -21c78 -13 133 -38 133 -121c0 -73 -54 -191 -54 -249s41 -58 90 -61l-5 -20c-120 0 -195 19 -195 112c0 76 61 174 61 254c0 56 -37 74 -109 79l7 33
c97 8 143 30 169 136c11 42 13 84 23 125c33 134 132 164 271 164z" />
    <glyph glyph-name="bar" unicode="|" horiz-adv-x="270" 
d="M98 708h44v-708h-44v708z" />
    <glyph glyph-name="braceright" unicode="}" horiz-adv-x="392" 
d="M-113 -210l5 20c63 4 111 3 138 112c10 40 13 70 23 110c35 140 113 171 219 189l5 21c-78 13 -134 38 -134 121c0 78 56 186 56 248c0 58 -41 59 -90 62l5 20c119 0 194 -20 194 -112c0 -80 -61 -171 -61 -254c0 -56 37 -74 109 -79l-7 -33c-97 -7 -143 -30 -170 -136
c-10 -42 -12 -84 -22 -125c-33 -135 -131 -164 -270 -164z" />
    <glyph glyph-name="asciitilde" unicode="~" 
d="M456 340c-19 -49 -70 -130 -142 -130c-77 0 -126 56 -181 56c-37 0 -66 -22 -87 -64l-22 9c18 47 68 128 141 128c79 0 127 -56 182 -56c38 0 65 23 90 66z" />
    <glyph glyph-name="Adieresis" unicode="&#xc4;" horiz-adv-x="550" 
d="M548 806c0 -35 -28 -63 -63 -63s-63 28 -63 63c0 36 28 64 63 64s63 -28 63 -64zM352 806c0 -35 -29 -63 -63 -63c-36 0 -63 28 -63 63c0 36 27 64 63 64c34 0 63 -28 63 -64zM401 696l24 -659c0 -11 5 -17 18 -17h41l-4 -20c-35 0 -82 1 -118 1c-42 0 -104 -1 -146 -1
l5 20h61c11 0 15 8 15 17l-8 190h-182l-90 -161c-16 -28 -10 -46 10 -46h50l-5 -20c-28 0 -73 1 -102 1c-24 0 -47 -1 -71 -1l4 20h28c20 0 39 16 56 45l358 631h56zM289 249l-8 284l-161 -284h169z" />
    <glyph glyph-name="Aring" unicode="&#xc5;" horiz-adv-x="550" 
d="M480 0c-35 0 -82 1 -118 1c-42 0 -104 -1 -146 -1l5 20h61c11 0 15 8 15 17l-8 190h-182l-90 -161c-16 -28 -10 -46 10 -46h50l-5 -20c-28 0 -73 1 -102 1c-24 0 -47 -1 -71 -1l4 20h28c20 0 39 16 56 45l350 617c-43 11 -66 44 -62 86c6 62 63 105 130 105
c60 0 99 -37 93 -89c-4 -50 -42 -90 -97 -102l24 -645c0 -11 5 -17 18 -17h41zM434 789c5 41 -4 66 -33 66c-35 0 -56 -36 -62 -93c-5 -41 5 -64 33 -64c37 0 57 39 62 91zM289 249l-8 284l-161 -284h169z" />
    <glyph glyph-name="Ccedilla" unicode="&#xc7;" horiz-adv-x="529" 
d="M156 -232c-36 0 -56 6 -71 12l6 23c19 -5 36 -12 57 -12c41 0 73 20 77 62c5 37 -25 45 -45 45l26 88c-146 5 -200 112 -200 243c0 208 137 478 370 478c89 0 143 -43 159 -43c13 0 24 20 29 28h19l-54 -207h-19c-6 95 -21 206 -133 206c-72 0 -115 -56 -152 -148
c-16 -40 -39 -97 -62 -197c-28 -122 -33 -190 -33 -226c0 -72 30 -118 96 -118c99 0 164 121 221 216h20l-57 -217h-20c-1 8 -1 28 -13 28c-16 0 -68 -40 -150 -43l-15 -53c71 0 114 -22 106 -76c-9 -57 -72 -89 -162 -89z" />
    <glyph glyph-name="Eacute" unicode="&#xc9;" horiz-adv-x="537" 
d="M308 731h-20l125 181h139l-1 -13zM294 653l-74 -280c116 0 145 26 190 135h19l-77 -291h-19c2 19 3 36 3 50c0 77 -39 85 -120 85l-83 -312c-2 -9 -3 -20 12 -20h100c50 0 101 31 140 79c34 40 71 101 86 127h18l-73 -226c-99 0 -229 1 -357 1c-42 0 -96 -1 -138 -1l5 20
h56c15 0 19 11 21 20l162 613c2 9 3 20 -12 20h-56l5 20c42 0 91 -1 133 -1c40 0 259 1 347 1l-44 -194h-18c0 36 -3 64 -11 96c-12 40 -46 78 -75 78h-118c-15 0 -20 -11 -22 -20z" />
    <glyph glyph-name="Ntilde" unicode="&#xd1;" horiz-adv-x="606" 
d="M608 882c-27 -50 -67 -124 -139 -124c-35 0 -56 13 -74 22c-21 9 -38 17 -64 17c-33 0 -60 -24 -70 -43h-22c25 47 66 124 139 124c33 0 58 -13 72 -20c20 -10 37 -20 66 -20c34 0 60 26 70 44h22zM593 628l-167 -636h-54l-187 631l-148 -558c-7 -27 0 -44 25 -45h37
l-6 -20c-21 0 -59 1 -84 1c-27 0 -69 -1 -89 -1l6 20h36c25 1 41 17 48 45l156 588c2 9 3 20 -12 20h-57l5 20c42 0 73 -1 115 -1c34 0 55 1 80 1l155 -508l114 443c7 27 0 44 -25 45h-40l6 20c21 0 63 -1 88 -1c27 0 70 1 90 1l-6 -20h-37c-25 -1 -42 -17 -49 -45z" />
    <glyph glyph-name="Odieresis" unicode="&#xd6;" horiz-adv-x="594" 
d="M554 820c0 -35 -28 -63 -63 -63s-63 28 -63 63c0 36 28 64 63 64s63 -28 63 -64zM358 820c0 -35 -29 -63 -63 -63c-36 0 -63 28 -63 63c0 36 27 64 63 64c34 0 63 -28 63 -64zM588 466c0 -229 -143 -480 -374 -480c-147 0 -208 111 -208 244c0 213 142 477 371 477
c141 0 211 -98 211 -241zM463 576c0 75 -32 115 -93 115c-65 0 -113 -49 -148 -145c-15 -42 -37 -102 -60 -200c-29 -125 -32 -208 -32 -234c0 -70 33 -109 90 -109c68 0 118 50 152 145c16 44 37 97 59 198c23 107 32 196 32 230z" />
    <glyph glyph-name="Udieresis" unicode="&#xdc;" horiz-adv-x="613" 
d="M611 820c0 -35 -28 -63 -63 -63s-63 28 -63 63c0 36 28 64 63 64s63 -28 63 -64zM415 820c0 -35 -29 -63 -63 -63c-36 0 -63 28 -63 63c0 36 27 64 63 64c34 0 63 -28 63 -64zM478 235l104 393c7 27 0 44 -25 45h-38l6 20c21 0 61 -1 86 -1c27 0 66 1 86 1l-6 -20h-33
c-25 -1 -42 -17 -49 -45l-106 -405c-42 -160 -125 -237 -272 -237c-99 0 -200 33 -200 145c0 18 2 40 8 61l122 461c2 9 3 20 -12 20h-57l6 20c42 0 92 -1 134 -1c40 0 108 1 148 1l-5 -20h-63c-15 0 -20 -11 -22 -20l-118 -447c-7 -28 -11 -56 -11 -78
c0 -67 30 -104 104 -104c117 0 177 77 213 211z" />
    <glyph glyph-name="aacute" unicode="&#xe1;" horiz-adv-x="487" 
d="M229 501h-20l125 181h139l-1 -13zM302 370c-8 23 -21 55 -61 55c-29 0 -53 -24 -79 -78c-8 -16 -27 -64 -43 -124c-21 -81 -22 -119 -22 -137c0 -40 17 -56 41 -56c39 0 67 26 90 50zM306 -11c-49 0 -74 32 -79 69c-41 -44 -83 -70 -134 -70c-83 0 -117 54 -117 132
c0 31 5 66 15 103c33 126 109 235 226 235c52 0 74 -23 92 -62l14 50h32c30 0 62 3 89 8l-92 -349c-4 -14 -7 -31 -7 -41c0 -24 9 -33 27 -33c20 0 48 24 68 56l13 -10c-43 -71 -94 -88 -147 -88z" />
    <glyph glyph-name="agrave" unicode="&#xe0;" horiz-adv-x="487" 
d="M349 501h-19l-206 169v12h137zM302 370c-8 23 -21 55 -61 55c-29 0 -53 -24 -79 -78c-8 -16 -27 -64 -43 -124c-21 -81 -22 -119 -22 -137c0 -40 17 -56 41 -56c39 0 67 26 90 50zM306 -11c-49 0 -74 32 -79 69c-41 -44 -83 -70 -134 -70c-83 0 -117 54 -117 132
c0 31 5 66 15 103c33 126 109 235 226 235c52 0 74 -23 92 -62l14 50h32c30 0 62 3 89 8l-92 -349c-4 -14 -7 -31 -7 -41c0 -24 9 -33 27 -33c20 0 48 24 68 56l13 -10c-43 -71 -94 -88 -147 -88z" />
    <glyph glyph-name="acircumflex" unicode="&#xe2;" horiz-adv-x="487" 
d="M406 500h-21l-104 103l-153 -103h-23l159 188h69zM302 370c-8 23 -21 55 -61 55c-29 0 -53 -24 -79 -78c-8 -16 -27 -64 -43 -124c-21 -81 -22 -119 -22 -137c0 -40 17 -56 41 -56c39 0 67 26 90 50zM306 -11c-49 0 -74 32 -79 69c-41 -44 -83 -70 -134 -70
c-83 0 -117 54 -117 132c0 31 5 66 15 103c33 126 109 235 226 235c52 0 74 -23 92 -62l14 50h32c30 0 62 3 89 8l-92 -349c-4 -14 -7 -31 -7 -41c0 -24 9 -33 27 -33c20 0 48 24 68 56l13 -10c-43 -71 -94 -88 -147 -88z" />
    <glyph glyph-name="adieresis" unicode="&#xe4;" horiz-adv-x="487" 
d="M423 576c0 -35 -28 -63 -63 -63s-63 28 -63 63c0 36 28 64 63 64s63 -28 63 -64zM227 576c0 -35 -29 -63 -63 -63c-36 0 -63 28 -63 63c0 36 27 64 63 64c34 0 63 -28 63 -64zM302 370c-8 23 -21 55 -61 55c-29 0 -53 -24 -79 -78c-8 -16 -27 -64 -43 -124
c-21 -81 -22 -119 -22 -137c0 -40 17 -56 41 -56c39 0 67 26 90 50zM306 -11c-49 0 -74 32 -79 69c-41 -44 -83 -70 -134 -70c-83 0 -117 54 -117 132c0 31 5 66 15 103c33 126 109 235 226 235c52 0 74 -23 92 -62l14 50h32c30 0 62 3 89 8l-92 -349c-4 -14 -7 -31 -7 -41
c0 -24 9 -33 27 -33c20 0 48 24 68 56l13 -10c-43 -71 -94 -88 -147 -88z" />
    <glyph glyph-name="atilde" unicode="&#xe3;" horiz-adv-x="487" 
d="M471 641c-27 -50 -67 -124 -139 -124c-35 0 -56 13 -74 22c-21 9 -38 17 -64 17c-33 0 -60 -24 -70 -43h-22c25 47 66 124 139 124c33 0 58 -13 72 -20c20 -10 37 -20 66 -20c34 0 60 26 70 44h22zM302 370c-8 23 -21 55 -61 55c-29 0 -53 -24 -79 -78
c-8 -16 -27 -64 -43 -124c-21 -81 -22 -119 -22 -137c0 -40 17 -56 41 -56c39 0 67 26 90 50zM306 -11c-49 0 -74 32 -79 69c-41 -44 -83 -70 -134 -70c-83 0 -117 54 -117 132c0 31 5 66 15 103c33 126 109 235 226 235c52 0 74 -23 92 -62l14 50h32c30 0 62 3 89 8
l-92 -349c-4 -14 -7 -31 -7 -41c0 -24 9 -33 27 -33c20 0 48 24 68 56l13 -10c-43 -71 -94 -88 -147 -88z" />
    <glyph glyph-name="aring" unicode="&#xe5;" horiz-adv-x="487" 
d="M261 496c-63 0 -98 38 -93 89c6 62 63 105 130 105c60 0 99 -37 93 -89c-5 -60 -58 -105 -130 -105zM327 606c5 41 -4 66 -33 66c-35 0 -56 -36 -62 -93c-5 -41 5 -64 33 -64c37 0 57 39 62 91zM302 370c-8 23 -21 55 -61 55c-29 0 -53 -24 -79 -78
c-8 -16 -27 -64 -43 -124c-21 -81 -22 -119 -22 -137c0 -40 17 -56 41 -56c39 0 67 26 90 50zM306 -11c-49 0 -74 32 -79 69c-41 -44 -83 -70 -134 -70c-83 0 -117 54 -117 132c0 31 5 66 15 103c33 126 109 235 226 235c52 0 74 -23 92 -62l14 50h32c30 0 62 3 89 8
l-92 -349c-4 -14 -7 -31 -7 -41c0 -24 9 -33 27 -33c20 0 48 24 68 56l13 -10c-43 -71 -94 -88 -147 -88z" />
    <glyph glyph-name="ccedilla" unicode="&#xe7;" horiz-adv-x="381" 
d="M67 -232c-36 0 -56 6 -71 12l6 23c19 -5 36 -12 57 -12c41 0 73 20 77 62c5 37 -25 45 -45 45l27 92c-78 7 -140 59 -140 163c0 170 109 306 255 306c69 0 124 -31 124 -93c0 -50 -36 -75 -73 -75c-38 0 -63 23 -63 57c0 30 24 62 63 64c8 0 16 -1 25 -4l1 5
c-14 17 -42 28 -70 28c-41 0 -75 -33 -97 -92c-7 -20 -24 -75 -33 -126c-12 -66 -13 -103 -13 -125c0 -57 21 -83 61 -83c69 0 121 53 157 131l17 -11c-39 -82 -92 -146 -193 -146l-16 -56c71 0 114 -22 106 -76c-9 -57 -72 -89 -162 -89z" />
    <glyph glyph-name="eacute" unicode="&#xe9;" horiz-adv-x="391" 
d="M194 501h-20l125 181h139l-1 -13zM260 383c0 42 -11 57 -30 57c-31 0 -60 -32 -86 -90c-14 -33 -22 -69 -29 -102c15 -4 26 -5 34 -5c65 0 111 61 111 140zM369 359c0 -67 -49 -134 -208 -134c-19 0 -35 2 -51 5c-8 -36 -12 -74 -12 -110c0 -65 27 -103 79 -103
c64 0 114 44 158 124l15 -10c-42 -85 -101 -143 -191 -143c-105 0 -181 53 -181 167c0 176 119 304 272 304c84 0 119 -40 119 -100z" />
    <glyph glyph-name="egrave" unicode="&#xe8;" horiz-adv-x="391" 
d="M319 501h-19l-206 169v12h137zM260 383c0 42 -11 57 -30 57c-31 0 -60 -32 -86 -90c-14 -33 -22 -69 -29 -102c15 -4 26 -5 34 -5c65 0 111 61 111 140zM369 359c0 -67 -49 -134 -208 -134c-19 0 -35 2 -51 5c-8 -36 -12 -74 -12 -110c0 -65 27 -103 79 -103
c64 0 114 44 158 124l15 -10c-42 -85 -101 -143 -191 -143c-105 0 -181 53 -181 167c0 176 119 304 272 304c84 0 119 -40 119 -100z" />
    <glyph glyph-name="ecircumflex" unicode="&#xea;" horiz-adv-x="391" 
d="M386 500h-21l-104 103l-153 -103h-23l159 188h69zM260 383c0 42 -11 57 -30 57c-31 0 -60 -32 -86 -90c-14 -33 -22 -69 -29 -102c15 -4 26 -5 34 -5c65 0 111 61 111 140zM369 359c0 -67 -49 -134 -208 -134c-19 0 -35 2 -51 5c-8 -36 -12 -74 -12 -110
c0 -65 27 -103 79 -103c64 0 114 44 158 124l15 -10c-42 -85 -101 -143 -191 -143c-105 0 -181 53 -181 167c0 176 119 304 272 304c84 0 119 -40 119 -100z" />
    <glyph glyph-name="edieresis" unicode="&#xeb;" horiz-adv-x="391" 
d="M407 576c0 -35 -28 -63 -63 -63s-63 28 -63 63c0 36 28 64 63 64s63 -28 63 -64zM211 576c0 -35 -29 -63 -63 -63c-36 0 -63 28 -63 63c0 36 27 64 63 64c34 0 63 -28 63 -64zM260 383c0 42 -11 57 -30 57c-31 0 -60 -32 -86 -90c-14 -33 -22 -69 -29 -102
c15 -4 26 -5 34 -5c65 0 111 61 111 140zM369 359c0 -67 -49 -134 -208 -134c-19 0 -35 2 -51 5c-8 -36 -12 -74 -12 -110c0 -65 27 -103 79 -103c64 0 114 44 158 124l15 -10c-42 -85 -101 -143 -191 -143c-105 0 -181 53 -181 167c0 176 119 304 272 304
c84 0 119 -40 119 -100z" />
    <glyph glyph-name="iacute" unicode="&#xed;" horiz-adv-x="250" 
d="M108 501h-20l125 181h139l-1 -13zM207 454l-92 -349c-4 -13 -7 -31 -7 -41c0 -23 9 -33 27 -33c20 0 48 24 68 56l13 -10c-43 -71 -94 -88 -147 -88c-51 0 -80 34 -80 77c0 9 3 25 5 33l82 308c2 9 3 20 -12 20l-39 1l4 18h84c31 0 68 4 94 8z" />
    <glyph glyph-name="igrave" unicode="&#xec;" horiz-adv-x="250" 
d="M220 501h-19l-206 169v12h137zM207 454l-92 -349c-4 -13 -7 -31 -7 -41c0 -23 9 -33 27 -33c20 0 48 24 68 56l13 -10c-43 -71 -94 -88 -147 -88c-51 0 -80 34 -80 77c0 9 3 25 5 33l82 308c2 9 3 20 -12 20l-39 1l4 18h84c31 0 68 4 94 8z" />
    <glyph glyph-name="icircumflex" unicode="&#xee;" horiz-adv-x="250" 
d="M286 500h-21l-104 103l-153 -103h-23l159 188h69zM207 454l-92 -349c-4 -13 -7 -31 -7 -41c0 -23 9 -33 27 -33c20 0 48 24 68 56l13 -10c-43 -71 -94 -88 -147 -88c-51 0 -80 34 -80 77c0 9 3 25 5 33l82 308c2 9 3 20 -12 20l-39 1l4 18h84c31 0 68 4 94 8z" />
    <glyph glyph-name="idieresis" unicode="&#xef;" horiz-adv-x="250" 
d="M318 576c0 -35 -28 -63 -63 -63s-63 28 -63 63c0 36 28 64 63 64s63 -28 63 -64zM122 576c0 -35 -29 -63 -63 -63c-36 0 -63 28 -63 63c0 36 27 64 63 64c34 0 63 -28 63 -64zM207 454l-92 -349c-4 -13 -7 -31 -7 -41c0 -23 9 -33 27 -33c20 0 48 24 68 56l13 -10
c-43 -71 -94 -88 -147 -88c-51 0 -80 34 -80 77c0 9 3 25 5 33l82 308c2 9 3 20 -12 20l-39 1l4 18h84c31 0 68 4 94 8z" />
    <glyph glyph-name="ntilde" unicode="&#xf1;" horiz-adv-x="498" 
d="M479 641c-27 -50 -67 -124 -139 -124c-35 0 -56 13 -74 22c-21 9 -38 17 -64 17c-33 0 -60 -24 -70 -43h-22c25 47 66 124 139 124c33 0 58 -13 72 -20c20 -10 37 -20 66 -20c34 0 60 26 70 44h22zM208 454l-22 -81c61 58 105 85 165 85c51 0 82 -35 82 -79
c0 -9 -1 -22 -4 -32l-69 -242c-4 -13 -7 -31 -7 -41c0 -24 9 -33 27 -33c20 0 48 24 68 56l13 -10c-43 -71 -94 -88 -147 -88c-51 0 -81 34 -81 77c0 9 3 25 5 33l69 239c4 13 6 28 6 38c0 21 -12 30 -31 30c-39 0 -81 -37 -103 -62l-91 -344h-119l108 407c2 9 3 20 -12 20
l-39 1l4 18h84c31 0 68 4 94 8z" />
    <glyph glyph-name="oacute" unicode="&#xf3;" horiz-adv-x="445" 
d="M204 501h-20l125 181h139l-1 -13zM401 293c0 -159 -102 -305 -266 -305c-117 0 -157 78 -157 170c0 138 92 300 265 300c109 0 158 -70 158 -165zM284 366c0 48 -13 75 -47 75c-51 0 -87 -42 -125 -217c-16 -73 -17 -126 -17 -142c0 -48 13 -77 47 -77
c60 0 85 49 125 217c18 75 17 126 17 144z" />
    <glyph glyph-name="ograve" unicode="&#xf2;" horiz-adv-x="445" 
d="M332 501h-19l-206 169v12h137zM401 293c0 -159 -102 -305 -266 -305c-117 0 -157 78 -157 170c0 138 92 300 265 300c109 0 158 -70 158 -165zM284 366c0 48 -13 75 -47 75c-51 0 -87 -42 -125 -217c-16 -73 -17 -126 -17 -142c0 -48 13 -77 47 -77c60 0 85 49 125 217
c18 75 17 126 17 144z" />
    <glyph glyph-name="ocircumflex" unicode="&#xf4;" horiz-adv-x="445" 
d="M391 500h-21l-104 103l-153 -103h-23l159 188h69zM401 293c0 -159 -102 -305 -266 -305c-117 0 -157 78 -157 170c0 138 92 300 265 300c109 0 158 -70 158 -165zM284 366c0 48 -13 75 -47 75c-51 0 -87 -42 -125 -217c-16 -73 -17 -126 -17 -142c0 -48 13 -77 47 -77
c60 0 85 49 125 217c18 75 17 126 17 144z" />
    <glyph glyph-name="odieresis" unicode="&#xf6;" horiz-adv-x="445" 
d="M418 581c0 -35 -28 -63 -63 -63s-63 28 -63 63c0 36 28 64 63 64s63 -28 63 -64zM222 581c0 -35 -29 -63 -63 -63c-36 0 -63 28 -63 63c0 36 27 64 63 64c34 0 63 -28 63 -64zM401 293c0 -159 -102 -305 -266 -305c-117 0 -157 78 -157 170c0 138 92 300 265 300
c109 0 158 -70 158 -165zM284 366c0 48 -13 75 -47 75c-51 0 -87 -42 -125 -217c-16 -73 -17 -126 -17 -142c0 -48 13 -77 47 -77c60 0 85 49 125 217c18 75 17 126 17 144z" />
    <glyph glyph-name="otilde" unicode="&#xf5;" horiz-adv-x="445" 
d="M446 641c-27 -50 -67 -124 -139 -124c-35 0 -56 13 -74 22c-21 9 -38 17 -64 17c-33 0 -60 -24 -70 -43h-22c25 47 66 124 139 124c33 0 58 -13 72 -20c20 -10 37 -20 66 -20c34 0 60 26 70 44h22zM401 293c0 -159 -102 -305 -266 -305c-117 0 -157 78 -157 170
c0 138 92 300 265 300c109 0 158 -70 158 -165zM284 366c0 48 -13 75 -47 75c-51 0 -87 -42 -125 -217c-16 -73 -17 -126 -17 -142c0 -48 13 -77 47 -77c60 0 85 49 125 217c18 75 17 126 17 144z" />
    <glyph glyph-name="uacute" unicode="&#xfa;" horiz-adv-x="498" 
d="M232 508h-20l125 181h139l-1 -13zM318 -11c-51 0 -80 34 -80 77v9c-60 -59 -104 -87 -168 -87c-52 0 -83 35 -83 80c0 9 2 25 5 35l84 304c2 9 3 20 -12 20l-38 1l4 18h83c31 0 67 4 93 8l-91 -343c-4 -15 -6 -28 -6 -38c0 -25 13 -33 31 -33c42 0 81 38 103 63l91 343
h32c30 0 60 4 89 8l-91 -349c-3 -13 -7 -31 -7 -41c0 -24 9 -33 27 -33c20 0 48 24 68 56l13 -10c-43 -71 -94 -88 -147 -88z" />
    <glyph glyph-name="ugrave" unicode="&#xf9;" horiz-adv-x="498" 
d="M360 501h-19l-206 169v12h137zM318 -11c-51 0 -80 34 -80 77v9c-60 -59 -104 -87 -168 -87c-52 0 -83 35 -83 80c0 9 2 25 5 35l84 304c2 9 3 20 -12 20l-38 1l4 18h83c31 0 67 4 93 8l-91 -343c-4 -15 -6 -28 -6 -38c0 -25 13 -33 31 -33c42 0 81 38 103 63l91 343h32
c30 0 60 4 89 8l-91 -349c-3 -13 -7 -31 -7 -41c0 -24 9 -33 27 -33c20 0 48 24 68 56l13 -10c-43 -71 -94 -88 -147 -88z" />
    <glyph glyph-name="ucircumflex" unicode="&#xfb;" horiz-adv-x="498" 
d="M422 500h-21l-104 103l-153 -103h-23l159 188h69zM318 -11c-51 0 -80 34 -80 77v9c-60 -59 -104 -87 -168 -87c-52 0 -83 35 -83 80c0 9 2 25 5 35l84 304c2 9 3 20 -12 20l-38 1l4 18h83c31 0 67 4 93 8l-91 -343c-4 -15 -6 -28 -6 -38c0 -25 13 -33 31 -33
c42 0 81 38 103 63l91 343h32c30 0 60 4 89 8l-91 -349c-3 -13 -7 -31 -7 -41c0 -24 9 -33 27 -33c20 0 48 24 68 56l13 -10c-43 -71 -94 -88 -147 -88z" />
    <glyph glyph-name="udieresis" unicode="&#xfc;" horiz-adv-x="498" 
d="M447 576c0 -35 -28 -63 -63 -63s-63 28 -63 63c0 36 28 64 63 64s63 -28 63 -64zM251 576c0 -35 -29 -63 -63 -63c-36 0 -63 28 -63 63c0 36 27 64 63 64c34 0 63 -28 63 -64zM318 -11c-51 0 -80 34 -80 77v9c-60 -59 -104 -87 -168 -87c-52 0 -83 35 -83 80
c0 9 2 25 5 35l84 304c2 9 3 20 -12 20l-38 1l4 18h83c31 0 67 4 93 8l-91 -343c-4 -15 -6 -28 -6 -38c0 -25 13 -33 31 -33c42 0 81 38 103 63l91 343h32c30 0 60 4 89 8l-91 -349c-3 -13 -7 -31 -7 -41c0 -24 9 -33 27 -33c20 0 48 24 68 56l13 -10
c-43 -71 -94 -88 -147 -88z" />
    <glyph glyph-name="dagger" unicode="&#x2020;" horiz-adv-x="471" 
d="M236 404c-65 0 -113 -18 -146 -40c-15 -8 -27 -18 -36 -18c-6 0 -9 7 -7 12c5 10 11 21 19 36c-32 6 -51 12 -48 22c2 8 23 12 56 20c0 0 -1 26 -1 33s5 12 10 12c11 0 23 -16 39 -28c26 -18 73 -28 120 -28c33 123 18 168 -2 217c-1 4 -1 10 8 10c8 0 20 -6 28 -14
l39 64c11 17 24 17 25 -2l4 -62c15 8 27 13 35 13s9 -8 3 -14c-44 -45 -79 -89 -116 -212c49 0 98 10 133 28c23 11 37 27 49 27c7 0 8 -7 6 -12c-2 -7 -17 -34 -17 -34c29 -8 48 -11 48 -19c-1 -11 -22 -16 -56 -22c-1 -7 -4 -31 -5 -35c-1 -6 -5 -12 -11 -12
c-8 0 -16 13 -28 23c-22 21 -64 35 -125 35c-94 -349 -86 -444 -77 -518c1 -8 -5 -11 -11 -11c-5 0 -18 8 -27 15l-36 -59c-13 -20 -24 -20 -27 0l-4 61c-13 -6 -24 -12 -36 -12c-7 0 -9 7 -6 12c52 75 107 163 200 512z" />
    <glyph glyph-name="degree" unicode="&#xb0;" horiz-adv-x="295" 
d="M205 701c61 0 111 -50 111 -111s-49 -112 -112 -112c-62 0 -111 50 -111 112c0 63 51 111 112 111zM205 665c-42 0 -74 -33 -74 -75c-1 -43 31 -76 73 -76s73 34 73 76s-31 75 -72 75z" />
    <glyph glyph-name="cent" unicode="&#xa2;" horiz-adv-x="405" 
d="M141 238c0 -30 7 -56 22 -68l104 397c-32 -8 -62 -39 -81 -87c-9 -25 -24 -73 -33 -122c-12 -65 -12 -98 -12 -120zM125 28l28 106c-73 13 -126 61 -126 156c0 162 108 292 246 297l21 80h21l-22 -81c65 -4 117 -39 117 -94c0 -48 -34 -72 -69 -72c-36 0 -59 22 -59 55
c0 28 22 59 56 59c6 1 14 0 22 -2l1 4c-12 18 -45 33 -70 33h-3l-106 -409c5 -2 15 -4 23 -4c62 0 118 50 154 127l14 -10c-37 -82 -90 -142 -189 -142c-5 0 -6 0 -11 1l-27 -104h-21z" />
    <glyph glyph-name="sterling" unicode="&#xa3;" horiz-adv-x="504" 
d="M52 330l9 23h84c-16 41 -29 85 -29 125c0 136 112 229 253 229c87 0 142 -42 142 -105c0 -73 -45 -101 -78 -101c-39 0 -62 29 -62 61c0 39 31 63 63 63c21 0 38 -9 50 -28h7c3 58 -46 90 -110 90c-93 0 -146 -90 -147 -216c-1 -43 3 -80 5 -118h171l-6 -23h-164
c3 -69 -11 -115 -48 -183c92 -37 136 -81 166 -81c27 0 48 16 71 61l19 -7c-46 -87 -97 -132 -147 -132c-59 0 -95 30 -162 68c-44 -56 -83 -66 -119 -66c-41 0 -61 30 -61 57c0 64 63 114 158 114c14 0 31 -3 44 -6c10 23 14 47 14 72c0 35 -10 70 -23 103h-100zM24 6
c33 0 60 16 93 60c-19 12 -47 27 -77 27c-36 0 -58 -22 -58 -47c0 -17 12 -40 42 -40z" />
    <glyph glyph-name="section" unicode="&#xa7;" horiz-adv-x="494" 
d="M187 421c-42 -23 -77 -49 -77 -99c0 -29 13 -55 42 -76c31 -21 63 -40 135 -89c43 34 71 68 71 105c0 23 -7 40 -32 61c-53 38 -96 58 -139 98zM176 435c-14 21 -24 44 -24 81c0 138 108 191 207 191c90 0 132 -49 132 -98c0 -53 -25 -83 -67 -83c-34 0 -57 22 -57 52
c0 34 24 57 56 57c22 0 34 -9 43 -23l6 4c-3 42 -40 75 -113 75c-58 0 -128 -30 -128 -110c0 -47 23 -70 71 -97c109 -62 139 -94 137 -162c-1 -74 -82 -142 -137 -177c32 -26 48 -60 48 -100c0 -138 -116 -197 -220 -197c-93 0 -143 43 -143 107c0 40 31 80 74 80
c32 0 57 -19 57 -56c0 -38 -25 -60 -55 -60c-22 0 -33 7 -46 16l-6 -3c4 -37 47 -68 119 -68c79 0 136 50 136 117c0 53 -22 73 -121 129c-84 47 -111 92 -111 143c0 103 85 154 142 182z" />
    <glyph glyph-name="bullet" unicode="&#x2022;" horiz-adv-x="369" 
d="M53 360c0 75 60 136 135 136s136 -61 136 -136s-61 -135 -136 -135s-135 60 -135 135z" />
    <glyph glyph-name="paragraph" unicode="&#xb6;" horiz-adv-x="494" 
d="M483 654l-165 -615c-3 -9 -4 -20 11 -20l52 -1l-4 -18h-138c57 216 181 675 181 675h-58s-129 -480 -181 -675h-131l4 18l45 1c15 0 20 11 23 20l90 335c-114 7 -164 74 -140 176c20 87 100 143 227 143h255l-4 -18l-44 -1c-15 0 -20 -11 -23 -20z" />
    <glyph glyph-name="germandbls" unicode="&#xdf;" horiz-adv-x="583" 
d="M199 432c-30 -151 -50 -278 -98 -414c-51 -145 -137 -262 -267 -262c-55 0 -98 31 -98 83c0 42 27 73 66 73c33 0 56 -23 56 -55c0 -30 -20 -61 -58 -63c-8 0 -19 2 -31 5l-2 -6c13 -14 38 -20 60 -20c52 0 94 40 135 153c35 97 81 329 114 499h-77l5 21h76
c36 137 79 255 282 255c115 0 151 -54 151 -109c0 -59 -62 -98 -132 -150c-28 -21 -37 -40 -37 -70c0 -53 36 -73 96 -115c61 -43 91 -67 91 -130c0 -81 -75 -139 -189 -139c-104 0 -166 60 -166 127c0 41 31 68 64 68c30 0 59 -24 59 -57c0 -39 -28 -68 -67 -63l-2 -6
c14 -27 61 -52 112 -52c53 0 83 35 83 81c0 38 -38 63 -95 104c-48 34 -83 64 -83 120c0 76 64 100 122 148c49 41 68 85 68 137c0 47 -19 89 -77 89c-90 0 -121 -51 -161 -252z" />
    <glyph glyph-name="registered" unicode="&#xae;" horiz-adv-x="544" 
d="M538 479c0 -128 -104 -231 -231 -231c-129 0 -232 103 -232 231s103 232 232 232c127 0 231 -104 231 -232zM513 479c0 116 -93 211 -206 211c-115 0 -208 -96 -208 -211s93 -210 208 -210c113 0 206 95 206 210zM331 617c33 0 82 -12 82 -66c0 -46 -46 -57 -78 -62
c24 -4 50 -11 64 -34c6 -12 9 -32 11 -48c3 -33 6 -43 18 -43c7 0 11 2 18 6l5 -11c-12 -9 -26 -14 -41 -14c-41 0 -64 19 -67 71c-1 23 -3 43 -15 56c-7 7 -20 10 -32 10h-13v-110c0 -4 0 -7 6 -7h21v-14h-118v14h21c6 0 7 3 7 7v224c0 2 -1 8 -7 8h-21v13
c16 0 56 -1 72 -1c15 0 53 1 67 1zM294 604h-5c-6 0 -6 -6 -6 -8v-101c49 -3 65 9 65 56c0 46 -21 53 -54 53z" />
    <glyph glyph-name="copyright" unicode="&#xa9;" horiz-adv-x="788" 
d="M753 350c0 -199 -161 -359 -359 -359c-199 0 -359 160 -359 359c0 198 160 360 359 360c198 0 359 -162 359 -360zM724 350c0 182 -149 336 -330 336c-182 0 -331 -154 -331 -336s149 -335 331 -335c181 0 330 153 330 335zM536 141h-13c-2 5 -6 18 -13 18
c-22 0 -45 -26 -100 -26c-123 0 -195 103 -195 217c0 115 74 218 192 218c56 0 77 -26 100 -26c9 0 12 13 14 18h13v-125h-13c-19 63 -43 119 -114 119c-41 0 -64 -35 -75 -86c-6 -24 -12 -58 -12 -118c0 -61 7 -99 12 -119c10 -48 33 -83 78 -83c69 0 94 58 113 124h13
v-131z" />
    <glyph glyph-name="trademark" unicode="&#x2122;" horiz-adv-x="761" 
d="M291 681v-243c0 -7 5 -10 13 -10l19 -1v-13h-146v13l19 1c8 0 13 3 13 10v243h-7c-34 0 -48 -8 -56 -21c-8 -12 -16 -38 -16 -58h-16v91h272v-91h-17c0 22 -8 46 -17 58s-21 21 -54 21h-7zM422 444v220c0 16 -2 16 -28 17v12h110l61 -172l66 172h115v-12l-14 -1
c-8 -1 -13 -3 -13 -10v-232c0 -7 5 -10 13 -10l14 -1v-13h-137v13l15 1c8 0 12 3 13 10v216l-90 -234h-26l-82 229v-205c0 -16 2 -16 28 -17v-13h-73v13c26 1 28 1 28 17z" />
    <glyph glyph-name="acute" unicode="&#xb4;" 
d="M279 501h-20l125 181h139l-1 -13z" />
    <glyph glyph-name="dieresis" unicode="&#xa8;" 
d="M466 576c0 -35 -28 -63 -63 -63s-63 28 -63 63c0 36 28 64 63 64s63 -28 63 -64zM270 576c0 -35 -29 -63 -63 -63c-36 0 -63 28 -63 63c0 36 27 64 63 64c34 0 63 -28 63 -64z" />
    <glyph glyph-name="notequal" unicode="&#x2260;" 
d="M106 154l-36 36l46 47h-65v59h122l86 88h-208v59h264l81 83l36 -35l-47 -48h65v-59h-122l-85 -88h207v-59h-264z" />
    <glyph glyph-name="AE" unicode="&#xc6;" horiz-adv-x="877" 
d="M401 249l112 420h-8l-341 -420h237zM385 2l-123 -2l4 18l57 1c15 0 20 11 23 20l49 188h-249l-129 -162c-20 -25 -14 -46 7 -46l40 -1l-4 -18c-30 0 -58 1 -88 1c-25 0 -60 -1 -85 -1l4 18l34 1c19 0 34 18 56 45l480 589c10 13 7 21 -8 21l-49 1l5 18s159 -1 160 -1
s237 1 354 1l-45 -194h-19c0 21 -4 59 -14 95c-12 40 -40 79 -70 79h-122c-15 0 -20 -11 -23 -20l-74 -280c119 0 146 26 192 135h19l-77 -291h-20c14 126 -21 135 -119 135l-83 -312c-2 -9 -3 -20 12 -20h105c51 0 103 40 138 80c34 40 76 104 87 126h18l-73 -226z" />
    <glyph glyph-name="Oslash" unicode="&#xd8;" horiz-adv-x="603" 
d="M464 575c0 75 -33 116 -94 116c-65 0 -113 -49 -148 -145c-15 -42 -38 -102 -61 -200c-14 -63 -22 -116 -26 -156l327 344c2 18 2 29 2 41zM433 346c12 57 20 110 25 151l-327 -343c-1 -20 -1 -33 -1 -42c0 -70 33 -109 90 -109c68 0 119 50 153 145c16 44 38 97 60 198z
M588 466c0 -229 -143 -480 -374 -480c-79 0 -132 32 -166 82l-97 -101l-17 15l102 107c-20 40 -30 89 -30 141c0 213 142 477 371 477c79 0 137 -31 171 -84l83 86l18 -14l-89 -93c19 -38 28 -84 28 -136z" />
    <glyph glyph-name="infinity" unicode="&#x221e;" horiz-adv-x="684" 
d="M466 172c-65 0 -106 20 -135 70c-25 -46 -68 -70 -124 -70c-84 0 -147 61 -147 147c0 87 64 150 158 150c65 0 108 -23 136 -73c26 46 65 73 124 73c92 0 146 -63 146 -150c0 -83 -62 -147 -158 -147zM226 193c33 0 68 27 88 93c-28 91 -51 165 -106 165
c-43 0 -72 -45 -68 -117c5 -60 29 -141 86 -141zM459 447c-31 0 -64 -27 -88 -95c26 -86 50 -163 106 -163c45 0 72 42 67 117c-4 52 -26 141 -85 141z" />
    <glyph glyph-name="plusminus" unicode="&#xb1;" 
d="M452 301h-176v-155h-61v155h-175v63h175v154h61v-154h176v-63zM445 47h-398v63h398v-63z" />
    <glyph glyph-name="lessequal" unicode="&#x2264;" 
d="M462 514v-26l-279 -159l279 -158v-29l-402 155v63zM459 47h-403v63h403v-63z" />
    <glyph glyph-name="greaterequal" unicode="&#x2265;" 
d="M38 488v26l402 -154v-63l-402 -155v29l279 158zM444 47h-403v63h403v-63z" />
    <glyph glyph-name="yen" unicode="&#xa5;" horiz-adv-x="567" 
d="M142 40l63 241h-188l6 23h189l3 12l-24 102h-137l6 23h126l-50 214c-2 10 -4 18 -17 18l-49 1l5 19c37 0 99 -1 136 -1c43 0 92 1 135 1l-5 -19l-57 -1c-11 0 -17 -8 -16 -17l70 -300l209 271c22 26 23 46 0 46l-44 1l5 19c30 0 80 -1 110 -1c25 0 32 1 57 1l-5 -19
l-22 -1c-27 0 -45 -16 -66 -42l-150 -190h128l-6 -23h-141l-67 -86l-8 -28h185l-6 -23h-185l-64 -241c-2 -9 -3 -20 12 -20l62 -1l-5 -19c-40 0 -104 1 -144 1c-42 0 -97 -1 -139 -1l5 19l61 1c15 0 20 11 22 20z" />
    <glyph glyph-name="mu" unicode="&#xb5;" horiz-adv-x="504" 
d="M321 -11c-55 0 -84 32 -83 86c-34 -37 -93 -87 -155 -87c-41 0 -62 14 -72 43h-2l-7 -28c-16 -63 1 -129 -12 -177c-9 -34 -35 -52 -61 -52c-28 0 -42 20 -36 49c13 49 59 127 73 181l117 436h120l-88 -329c-4 -15 -7 -28 -7 -38c0 -25 14 -33 32 -33c43 0 81 38 103 63
l90 337h118l-87 -335c-3 -13 -8 -32 -8 -42c0 -23 8 -32 26 -32c25 0 52 25 71 69l17 -4c-32 -77 -85 -107 -149 -107z" />
    <glyph glyph-name="partialdiff" unicode="&#x2202;" horiz-adv-x="447" 
d="M354 616c62 -103 77 -245 43 -383c-37 -148 -137 -246 -266 -246c-111 0 -153 67 -153 145c0 31 4 66 15 103c35 128 123 219 247 219c49 0 81 -18 97 -44c0 38 -8 120 -30 187c-13 40 -31 79 -54 111l11 11c37 -30 67 -64 90 -103zM290 368c0 51 -19 71 -46 71
c-39 0 -65 -39 -88 -92c-8 -19 -26 -70 -39 -124c-17 -72 -24 -125 -24 -153c1 -48 16 -67 42 -67c44 0 68 35 93 92c12 29 29 86 40 125c10 38 22 112 22 148z" />
    <glyph glyph-name="summation" unicode="&#x2211;" horiz-adv-x="569" 
d="M-81 -60l5 20l339 356l-128 354l6 23h451l-44 -193h-19c0 27 -1 59 -12 95c-11 40 -44 78 -80 78h-176l123 -359l-335 -353h192c51 0 101 35 136 75c34 40 76 107 87 129h21l-74 -225h-492z" />
    <glyph glyph-name="product" unicode="&#x220f;" horiz-adv-x="626" 
d="M616 654l-191 -714h-123l191 714c2 9 4 20 -11 20h-150c-15 0 -21 -11 -23 -20l-191 -714h-122l190 714c3 9 4 20 -11 20l-58 1l4 18c42 0 85 -1 127 -1h314c42 0 97 1 139 1l-5 -18l-57 -1c-15 0 -21 -11 -23 -20z" />
    <glyph glyph-name="pi" unicode="&#x3c0;" horiz-adv-x="523" 
d="M453 404l-83 -299c-4 -13 -7 -31 -7 -41c0 -24 9 -33 27 -33c20 0 48 24 68 56l13 -10c-43 -71 -94 -88 -147 -88c-51 0 -81 34 -81 77c0 9 3 25 5 33l85 306c3 9 4 20 -11 20h-93c-15 0 -20 -11 -23 -20l-108 -405h-119l108 404c2 9 3 20 -12 20l-37 1l4 18
c76 0 170 -1 246 -1c74 0 155 1 229 1l-4 -18l-38 -1c-15 0 -20 -11 -22 -20z" />
    <glyph glyph-name="integral" unicode="&#x222b;" horiz-adv-x="484" 
d="M308 478l-23 -119c-84 -425 -191 -579 -322 -579c-49 0 -84 30 -85 77c0 41 27 68 60 68c38 0 57 -27 58 -56c0 -32 -21 -57 -49 -58c-8 0 -16 2 -24 5l-3 -6c6 -9 21 -14 44 -14c65 0 98 108 128 249l70 328c54 253 173 334 281 334c58 0 89 -40 90 -82
c1 -46 -28 -69 -60 -69c-34 0 -58 23 -58 56c-1 36 25 59 56 59c9 0 16 -1 24 -5l3 3c-7 12 -23 23 -55 23c-66 0 -108 -74 -135 -214z" />
    <glyph glyph-name="ordfeminine" unicode="&#xaa;" horiz-adv-x="377" 
d="M295 644c-6 16 -15 39 -42 39c-23 0 -42 -20 -58 -55c-10 -24 -18 -46 -29 -84c-15 -56 -17 -81 -17 -94c0 -28 12 -40 29 -40c27 0 46 19 62 35zM297 380c-35 0 -55 21 -58 47c-30 -31 -59 -48 -95 -48c-57 0 -80 37 -78 91c0 22 4 48 11 74c25 87 79 163 160 163
c37 0 53 -16 64 -41l10 33h23c21 0 43 2 62 5l-70 -241c-3 -10 -5 -23 -5 -30c0 -16 7 -23 19 -23c14 0 33 16 46 38l10 -8c-27 -46 -61 -60 -99 -60z" />
    <glyph glyph-name="ordmasculine" unicode="&#xba;" horiz-adv-x="371" 
d="M377 592c0 -111 -74 -213 -192 -213c-85 0 -115 55 -115 119c0 96 66 209 191 209c80 0 116 -49 116 -115zM291 635c0 33 -10 57 -34 57c-37 0 -63 -26 -90 -148c-9 -43 -11 -80 -11 -91c0 -34 10 -59 34 -59c43 0 63 31 90 148c7 31 11 80 11 93z" />
    <glyph glyph-name="Omega" unicode="&#x2126;" horiz-adv-x="650" 
d="M408 707c141 0 211 -98 211 -241c0 -220 -178 -352 -286 -403h86c61 0 80 16 136 96h17l-54 -159h-242l15 57c88 56 133 141 173 295c24 109 30 184 30 218c0 75 -32 121 -93 121c-62 0 -114 -53 -150 -145c-38 -101 -74 -226 -86 -341c-5 -59 2 -109 38 -148l-15 -57
h-236l30 159h16c11 -80 25 -96 88 -96h82c-75 48 -119 126 -119 233c0 173 149 411 359 411z" />
    <glyph glyph-name="ae" unicode="&#xe6;" horiz-adv-x="659" 
d="M529 383c0 42 -13 56 -32 56c-34 0 -63 -30 -91 -89c-14 -33 -22 -69 -29 -102c17 -4 30 -4 39 -4c65 0 113 60 113 139zM303 368c-8 23 -26 57 -62 57c-29 0 -54 -20 -79 -72c-8 -16 -28 -62 -45 -130c-20 -82 -20 -119 -20 -137c0 -40 17 -56 41 -56c42 0 86 44 118 94
c-4 62 26 167 47 244zM637 359c0 -67 -49 -134 -208 -134c-21 0 -39 1 -57 4c-8 -36 -12 -73 -12 -109c0 -65 29 -103 84 -103c64 0 114 44 158 124l16 -10c-42 -85 -101 -143 -191 -143c-92 0 -146 30 -167 112c-41 -55 -90 -112 -167 -112c-83 0 -117 54 -117 132
c0 31 4 66 14 103c33 131 109 235 226 235c52 0 78 -26 93 -62l14 50h30c30 0 36 3 63 8l-9 -31c34 25 75 36 111 36c84 0 119 -40 119 -100z" />
    <glyph glyph-name="oslash" unicode="&#xf8;" horiz-adv-x="445" 
d="M285 366c0 48 -14 75 -48 75c-51 0 -88 -42 -126 -217c-7 -33 -11 -62 -13 -86l187 195v33zM269 222c7 32 11 60 14 83l-188 -195v-28c0 -48 13 -77 47 -77c60 0 87 49 127 217zM446 471l-72 -74c18 -28 27 -64 27 -104c0 -159 -102 -305 -266 -305c-54 0 -92 17 -116 44
l-70 -71l-14 12l72 74c-20 30 -29 69 -29 111c0 138 92 300 265 300c54 0 94 -17 119 -47l70 72z" />
    <glyph glyph-name="questiondown" unicode="&#xbf;" horiz-adv-x="367" 
d="M177 628c0 42 33 76 74 76s74 -34 74 -76s-33 -76 -74 -76s-74 34 -74 76zM-35 117c0 92 53 160 152 222c89 55 117 79 123 108c2 11 4 25 5 42h18c1 -20 4 -47 4 -71c0 -78 -39 -133 -105 -182c-51 -38 -112 -81 -112 -147c0 -48 30 -81 82 -81s107 28 121 54l-4 5
c-9 -7 -20 -10 -30 -11c-33 0 -54 24 -54 54c0 34 31 60 64 60c37 0 62 -25 62 -64c0 -71 -81 -116 -173 -116c-93 0 -153 54 -153 127z" />
    <glyph glyph-name="exclamdown" unicode="&#xa1;" horiz-adv-x="262" 
d="M129 628c0 42 33 76 74 76s74 -34 74 -76s-33 -76 -74 -76s-74 34 -74 76zM-7 63c0 100 111 211 150 367l12 48l23 -6l-11 -48c-35 -152 -3 -259 -31 -371c-10 -41 -39 -64 -79 -64c-38 0 -64 33 -64 74z" />
    <glyph glyph-name="logicalnot" unicode="&#xac;" 
d="M47 372h381v-232h-64v169h-317v63z" />
    <glyph glyph-name="radical" unicode="&#x221a;" horiz-adv-x="610" 
d="M612 618l-421 -625l-17 -7l-74 447h-48l4 17h164l48 -305l276 492c31 56 57 75 81 63c25 -13 13 -44 -13 -82z" />
    <glyph glyph-name="florin" unicode="&#x192;" horiz-adv-x="509" 
d="M-11 -220c-47 0 -86 24 -87 76c-1 45 31 71 61 71c40 0 56 -28 57 -54c0 -32 -21 -61 -55 -60c-9 0 -16 2 -25 6l-3 -6c8 -11 23 -17 49 -17c66 0 98 108 127 249l65 306h-123l3 22h124c56 252 181 334 283 334c53 0 89 -32 90 -77c1 -48 -28 -72 -61 -72
c-30 0 -58 18 -58 54c-1 39 26 60 55 60c11 0 17 -2 29 -7l3 3c-7 12 -22 24 -54 24c-68 0 -111 -74 -139 -215l-20 -104h121l-2 -22h-123c-86 -427 -197 -571 -317 -571z" />
    <glyph glyph-name="approxequal" unicode="&#x2248;" 
d="M458 472c-19 -48 -57 -119 -127 -119c-77 0 -133 59 -188 59c-35 0 -53 -21 -74 -61l-19 7c19 48 54 117 124 117c79 0 133 -58 188 -58c39 0 55 21 78 62zM458 320c-19 -47 -57 -119 -127 -119c-77 0 -133 59 -188 59c-35 0 -53 -22 -74 -62l-19 7c19 47 54 118 124 118
c79 0 133 -59 188 -59c39 0 55 22 78 63z" />
    <glyph glyph-name="Delta" unicode="&#x2206;" horiz-adv-x="542" 
d="M357 1h-387c-24 0 -44 -1 -68 -1l4 20h26c20 0 39 16 56 45l357 631h56l24 -659c0 -11 5 -17 18 -17h40l-3 -20c-35 0 -87 1 -123 1zM297 37l-16 496l-264 -467c-15 -27 -10 -46 10 -46h255c11 0 15 8 15 17z" />
    <glyph glyph-name="guillemotleft" unicode="&#xab;" horiz-adv-x="526" 
d="M311 68l-6 7l2 -7h-21l-173 190l273 189h19l-8 -10l14 10h19l-163 -193l65 -186h-21z" />
    <glyph glyph-name="guillemotright" unicode="&#xbb;" horiz-adv-x="526" 
d="M81 66l11 13l-19 -13h-19l163 194l-64 186h20l11 -12l-4 12h20l173 -191l-273 -189h-19z" />
    <glyph glyph-name="ellipsis" unicode="&#x2026;" horiz-adv-x="683" 
d="M591 66c0 -42 -33 -76 -74 -76s-74 34 -74 76c0 41 33 75 74 75s74 -34 74 -75zM362 66c0 -42 -33 -76 -74 -76s-74 34 -74 76c0 41 33 75 74 75s74 -34 74 -75zM133 66c0 -42 -33 -76 -74 -76s-74 34 -74 76c0 41 33 75 74 75s74 -34 74 -75z" />
    <glyph glyph-name="nbspace" unicode="&#xa0;" horiz-adv-x="104" 
 />
    <glyph glyph-name="Agrave" unicode="&#xc0;" horiz-adv-x="550" 
d="M446 730h-19l-206 169v12h137zM401 696l24 -659c0 -11 5 -17 18 -17h41l-4 -20c-35 0 -82 1 -118 1c-42 0 -104 -1 -146 -1l5 20h61c11 0 15 8 15 17l-8 190h-182l-90 -161c-16 -28 -10 -46 10 -46h50l-5 -20c-28 0 -73 1 -102 1c-24 0 -47 -1 -71 -1l4 20h28
c20 0 39 16 56 45l358 631h56zM289 249l-8 284l-161 -284h169z" />
    <glyph glyph-name="Atilde" unicode="&#xc3;" horiz-adv-x="550" 
d="M566 881c-27 -50 -67 -124 -139 -124c-35 0 -56 13 -74 22c-21 9 -38 17 -64 17c-33 0 -60 -24 -70 -43h-22c25 47 66 124 139 124c33 0 58 -13 72 -20c20 -10 37 -20 66 -20c34 0 60 26 70 44h22zM401 696l24 -659c0 -11 5 -17 18 -17h41l-4 -20c-35 0 -82 1 -118 1
c-42 0 -104 -1 -146 -1l5 20h61c11 0 15 8 15 17l-8 190h-182l-90 -161c-16 -28 -10 -46 10 -46h50l-5 -20c-28 0 -73 1 -102 1c-24 0 -47 -1 -71 -1l4 20h28c20 0 39 16 56 45l358 631h56zM289 249l-8 284l-161 -284h169z" />
    <glyph glyph-name="Otilde" unicode="&#xd5;" horiz-adv-x="594" 
d="M585 881c-27 -50 -67 -124 -139 -124c-35 0 -56 13 -74 22c-21 9 -38 17 -64 17c-33 0 -60 -24 -70 -43h-22c25 47 66 124 139 124c33 0 58 -13 72 -20c20 -10 37 -20 66 -20c34 0 60 26 70 44h22zM588 466c0 -229 -143 -480 -374 -480c-147 0 -208 111 -208 244
c0 213 142 477 371 477c141 0 211 -98 211 -241zM463 576c0 75 -32 115 -93 115c-65 0 -113 -49 -148 -145c-15 -42 -37 -102 -60 -200c-29 -125 -32 -208 -32 -234c0 -70 33 -109 90 -109c68 0 118 50 152 145c16 44 37 97 59 198c23 107 32 196 32 230z" />
    <glyph glyph-name="OE" unicode="&#x152;" horiz-adv-x="873" 
d="M468 661c-19 19 -44 30 -90 30c-67 0 -120 -49 -156 -145c-20 -54 -37 -102 -60 -200c-29 -125 -32 -208 -32 -234c0 -70 37 -109 98 -109c28 0 55 4 77 18c16 10 25 22 31 43c19 72 114 432 139 550c4 16 6 35 -7 47zM629 653l-73 -280c116 0 145 26 190 135h19
l-77 -291h-19c2 19 3 36 3 50c0 77 -40 85 -121 85l-82 -312c-2 -9 -3 -20 12 -20h99c50 0 101 32 141 79c34 40 71 101 85 127h19l-73 -226c-99 0 -229 1 -357 1c-33 0 -51 -1 -83 -1c-28 -9 -58 -14 -90 -14c-151 0 -216 111 -216 244c0 213 146 477 379 477
c30 0 69 -6 100 -15h94c40 0 251 1 339 1l-44 -194h-18c0 31 -3 64 -12 96c-12 40 -46 78 -75 78h-119c-15 0 -19 -11 -21 -20z" />
    <glyph glyph-name="oe" unicode="&#x153;" horiz-adv-x="672" 
d="M541 384c0 43 -12 57 -31 57c-31 0 -59 -32 -85 -91c-14 -33 -23 -68 -30 -101c15 -4 26 -5 34 -5c65 0 112 61 112 140zM287 366c0 48 -14 75 -48 75c-51 0 -87 -42 -125 -217c-16 -73 -17 -126 -17 -142c0 -48 13 -77 47 -77c60 0 85 49 125 217c18 75 18 126 18 144z
M650 359c0 -67 -49 -134 -208 -134c-19 0 -35 2 -51 5c-8 -36 -12 -74 -12 -110c0 -65 27 -103 79 -103c64 0 113 44 157 124l16 -10c-42 -85 -101 -143 -191 -143c-64 0 -113 17 -144 63c-41 -40 -89 -63 -159 -63c-117 0 -157 78 -157 170c0 138 92 300 265 300
c60 0 101 -21 124 -60c43 40 100 61 162 61c84 0 119 -40 119 -100z" />
    <glyph glyph-name="endash" unicode="&#x2013;" horiz-adv-x="471" 
d="M15 228l21 77h379l-21 -77h-379z" />
    <glyph glyph-name="emdash" unicode="&#x2014;" horiz-adv-x="673" 
d="M14 228l21 77h582l-21 -77h-582z" />
    <glyph glyph-name="quotedblleft" unicode="&#x201c;" horiz-adv-x="397" 
d="M152 423c-49 0 -71 38 -71 84c0 100 79 178 173 200l5 -15c-83 -23 -141 -86 -148 -146l2 -7c11 13 30 25 51 25c40 0 63 -28 63 -66c0 -42 -30 -75 -75 -75zM336 423c-49 0 -71 38 -71 84c0 100 79 178 173 200l5 -15c-83 -23 -141 -86 -148 -146l2 -7
c11 13 30 25 51 25c40 0 63 -28 63 -66c0 -42 -30 -75 -75 -75z" />
    <glyph glyph-name="quotedblright" unicode="&#x201d;" horiz-adv-x="397" 
d="M184 422l-2 6c-6 -2 -13 -4 -20 -6l-5 16c78 22 134 79 146 136c-9 -5 -19 -8 -30 -8c-4 0 -8 0 -12 1c-3 -1 -6 -1 -10 -1c-39 0 -63 28 -63 65c0 43 32 76 76 76c4 0 7 0 11 -1c4 1 7 1 11 1c49 0 71 -38 71 -84c0 -100 -79 -178 -173 -201z" />
    <glyph glyph-name="quoteleft" unicode="&#x2018;" horiz-adv-x="213" 
d="M152 423c-49 0 -71 38 -71 84c0 100 79 178 173 200l5 -15c-83 -23 -141 -86 -148 -146l2 -7c11 13 30 25 51 25c40 0 63 -28 63 -66c0 -42 -30 -75 -75 -75z" />
    <glyph glyph-name="quoteright" unicode="&#x2019;" horiz-adv-x="213" 
d="M81 422l-5 16c83 23 141 86 148 146l-2 7c-11 -13 -30 -25 -52 -25c-39 0 -63 28 -63 65c0 43 32 76 76 76c49 0 71 -38 71 -84c0 -100 -79 -178 -173 -201z" />
    <glyph glyph-name="divide" unicode="&#xf7;" 
d="M172 485c0 33 25 59 58 59s59 -26 59 -59s-26 -58 -59 -58s-58 25 -58 58zM26 372h412v-63h-412v63zM172 194c0 33 25 59 58 59s59 -26 59 -59s-26 -58 -59 -58s-58 25 -58 58z" />
    <glyph glyph-name="lozenge" unicode="&#x25ca;" 
d="M189 0h-59l-91 346l276 347h59l89 -347zM113 350l68 -279l208 279l-65 271z" />
    <glyph glyph-name="ydieresis" unicode="&#xff;" horiz-adv-x="420" 
d="M389 576c0 -35 -28 -63 -63 -63s-63 28 -63 63c0 36 28 64 63 64s63 -28 63 -64zM193 576c0 -35 -29 -63 -63 -63c-36 0 -63 28 -63 63c0 36 27 64 63 64c34 0 63 -28 63 -64zM398 388c0 -113 -109 -288 -182 -386c-72 -97 -161 -191 -225 -230c-16 -9 -39 -16 -53 -16
c-46 0 -73 33 -74 70c0 33 21 68 67 69c35 1 58 -22 58 -52c0 -21 -11 -40 -27 -51l2 -6c44 9 117 84 184 162c-31 223 -75 359 -97 424c-5 13 -11 24 -17 24c-15 0 -42 -35 -58 -65l-15 10c40 75 77 118 130 118c51 0 70 -34 83 -75c18 -57 50 -151 71 -308
c60 95 113 203 115 278l-8 2c-10 -17 -25 -25 -44 -24c-30 0 -54 24 -54 56c0 46 36 70 72 70c41 0 72 -24 72 -70z" />
    <glyph glyph-name="Ydieresis" unicode="&#x178;" horiz-adv-x="586" 
d="M597 817c0 -35 -28 -63 -63 -63s-63 28 -63 63c0 36 28 64 63 64s63 -28 63 -64zM401 817c0 -35 -29 -63 -63 -63c-36 0 -63 28 -63 63c0 36 27 64 63 64c34 0 63 -28 63 -64zM150 40l72 272l-78 343c-2 10 -4 18 -17 18h-46l4 20c37 0 100 -1 137 -1c43 0 90 1 133 1
l-4 -20h-59c-11 0 -17 -8 -16 -17l70 -304l210 275c22 26 23 46 0 46h-43l5 20c30 0 69 -1 99 -1c25 0 45 1 70 1l-4 -20h-23c-27 -1 -45 -16 -66 -42l-239 -304l-76 -287c-2 -9 -3 -20 12 -20h62l-5 -20c-40 0 -104 1 -144 1c-42 0 -99 -1 -141 -1l5 20h60
c15 0 20 11 22 20z" />
    <glyph glyph-name="fraction" unicode="&#x2215;" horiz-adv-x="426" 
d="M516 693l-567 -693h-39l567 693h39z" />
    <glyph glyph-name="currency" unicode="&#xa4;" 
d="M90 154l-46 45l67 62c-16 27 -25 59 -25 93c0 31 9 62 24 88l-66 62l44 46l64 -60c26 20 59 32 97 32s71 -13 98 -33l67 61l43 -46l-68 -63c15 -26 24 -56 24 -87c0 -34 -10 -67 -26 -94l65 -61l-44 -45l-66 60c-25 -18 -57 -29 -93 -29s-68 11 -93 29zM193 306
c26 -35 59 -43 95 -18s43 76 18 112c-27 36 -59 42 -95 17s-44 -75 -18 -111z" />
    <glyph glyph-name="guilsinglleft" unicode="&#x2039;" horiz-adv-x="323" 
d="M198 68l-173 190l273 189h19l-163 -193l65 -186h-21z" />
    <glyph glyph-name="guilsinglright" unicode="&#x203a;" horiz-adv-x="323" 
d="M85 446l173 -191l-273 -189h-19l163 194l-64 186h20z" />
    <glyph glyph-name="daggerdbl" unicode="&#x2021;" horiz-adv-x="471" 
d="M81 -169l-4 67c-12 -6 -22 -14 -34 -14c-9 0 -7 9 -5 11c29 31 84 91 109 172c-47 0 -98 -11 -132 -27c-23 -11 -39 -30 -51 -30c-7 0 -8 7 -7 12c2 7 13 29 17 35c-31 7 -48 11 -46 21c2 9 23 14 57 21c0 7 1 27 2 34c1 6 5 12 11 12c11 0 18 -18 37 -30
c24 -16 70 -27 118 -27c22 85 26 140 9 178c37 38 63 94 86 179c-48 0 -97 -13 -129 -27c-26 -12 -44 -32 -56 -32c-6 0 -7 7 -5 12c2 7 10 22 17 35c-32 6 -49 10 -46 21c2 8 23 13 57 21c0 0 0 26 2 33c1 5 5 12 12 12c12 0 17 -16 34 -27c26 -18 72 -29 119 -29
c19 84 -1 142 -14 173c-1 2 0 11 9 11c10 0 18 -8 26 -14l40 67c14 20 25 20 27 0l6 -66c13 7 26 13 31 13c8 0 9 -7 4 -12c-28 -29 -80 -88 -105 -172c49 0 98 11 134 29c23 11 36 27 48 27c7 0 8 -7 7 -12c-2 -7 -15 -33 -15 -33c29 -8 48 -12 45 -21
c-2 -10 -21 -15 -56 -21c-1 -12 -1 -28 -3 -35c-1 -5 -5 -12 -11 -12c-12 0 -22 23 -41 35c-25 15 -64 24 -114 24c-22 -85 -25 -143 -8 -179c-35 -34 -65 -93 -87 -178c50 0 95 10 129 26c24 11 43 31 55 31c6 0 7 -7 6 -12c-3 -7 -12 -27 -16 -34c30 -7 48 -13 45 -21
c-2 -10 -22 -14 -56 -21c0 0 -2 -31 -3 -35c-1 -5 -5 -12 -12 -12c-12 0 -18 19 -37 31c-24 17 -67 26 -117 26c-19 -81 1 -142 13 -171c3 -5 -2 -12 -10 -12c-5 0 -14 7 -23 14l-42 -67c-13 -20 -24 -20 -27 0z" />
    <glyph glyph-name="periodcentered" unicode="&#x2219;" horiz-adv-x="228" 
d="M191 344c0 -42 -33 -76 -74 -76c-42 0 -75 34 -75 76s33 76 75 76c41 0 74 -34 74 -76z" />
    <glyph glyph-name="quotesinglbase" unicode="&#x201a;" horiz-adv-x="226" 
d="M-42 -158l-4 15c83 23 139 86 147 147l-3 6c-11 -13 -29 -25 -51 -25c-40 0 -63 28 -63 66c0 42 31 75 75 75c50 0 72 -38 72 -84c0 -100 -79 -178 -173 -200z" />
    <glyph glyph-name="quotedblbase" unicode="&#x201e;" horiz-adv-x="411" 
d="M-42 -158l-4 15c83 23 139 86 147 147l-3 6c-11 -13 -29 -25 -51 -25c-40 0 -63 28 -63 66c0 42 31 75 75 75c50 0 72 -38 72 -84c0 -100 -79 -178 -173 -200zM143 -158l-5 15c83 23 140 86 147 147l-2 6c-11 -13 -30 -25 -52 -25c-39 0 -63 28 -63 66c0 42 31 75 76 75
c49 0 71 -38 71 -84c0 -100 -78 -178 -172 -200z" />
    <glyph glyph-name="perthousand" unicode="&#x2030;" horiz-adv-x="1166" 
d="M411 552c0 -120 -91 -265 -217 -265c-90 0 -132 74 -132 158c0 117 92 262 217 262c89 0 132 -75 132 -155zM705 693l-563 -693h-49l564 693h48zM314 628c0 38 -10 64 -38 64c-51 0 -75 -85 -99 -195c-11 -50 -18 -96 -18 -130c0 -39 10 -65 38 -65c51 0 73 73 99 195
c10 48 18 97 18 131zM1105 254c0 -120 -91 -265 -217 -265c-90 0 -132 74 -132 158c0 117 92 262 217 262c89 0 132 -75 132 -155zM738 254c0 -120 -91 -265 -217 -265c-90 0 -132 74 -132 158c0 117 92 262 217 262c89 0 132 -75 132 -155zM1008 330c0 38 -10 64 -38 64
c-51 0 -75 -85 -99 -195c-11 -50 -18 -96 -18 -130c0 -39 10 -65 38 -65c51 0 73 73 99 195c10 48 18 97 18 131zM641 330c0 38 -10 64 -38 64c-51 0 -75 -85 -99 -195c-11 -50 -18 -96 -18 -130c0 -39 10 -65 38 -65c51 0 73 73 99 195c10 48 18 97 18 131z" />
    <glyph glyph-name="Acircumflex" unicode="&#xc2;" horiz-adv-x="550" 
d="M520 729h-21l-104 103l-153 -103h-23l159 188h69zM401 696l24 -659c0 -11 5 -17 18 -17h41l-4 -20c-35 0 -82 1 -118 1c-42 0 -104 -1 -146 -1l5 20h61c11 0 15 8 15 17l-8 190h-182l-90 -161c-16 -28 -10 -46 10 -46h50l-5 -20c-28 0 -73 1 -102 1c-24 0 -47 -1 -71 -1
l4 20h28c20 0 39 16 56 45l358 631h56zM289 249l-8 284l-161 -284h169z" />
    <glyph glyph-name="Ecircumflex" unicode="&#xca;" horiz-adv-x="537" 
d="M517 738h-21l-104 103l-153 -103h-23l159 188h69zM294 653l-74 -280c116 0 145 26 190 135h19l-77 -291h-19c2 19 3 36 3 50c0 77 -39 85 -120 85l-83 -312c-2 -9 -3 -20 12 -20h100c50 0 101 31 140 79c34 40 71 101 86 127h18l-73 -226c-99 0 -229 1 -357 1
c-42 0 -96 -1 -138 -1l5 20h56c15 0 19 11 21 20l162 613c2 9 3 20 -12 20h-56l5 20c42 0 91 -1 133 -1c40 0 259 1 347 1l-44 -194h-18c0 36 -3 64 -11 96c-12 40 -46 78 -75 78h-118c-15 0 -20 -11 -22 -20z" />
    <glyph glyph-name="Aacute" unicode="&#xc1;" horiz-adv-x="550" 
d="M345 730h-20l125 181h139l-1 -13zM401 696l24 -659c0 -11 5 -17 18 -17h41l-4 -20c-35 0 -82 1 -118 1c-42 0 -104 -1 -146 -1l5 20h61c11 0 15 8 15 17l-8 190h-182l-90 -161c-16 -28 -10 -46 10 -46h50l-5 -20c-28 0 -73 1 -102 1c-24 0 -47 -1 -71 -1l4 20h28
c20 0 39 16 56 45l358 631h56zM289 249l-8 284l-161 -284h169z" />
    <glyph glyph-name="Edieresis" unicode="&#xcb;" horiz-adv-x="537" 
d="M538 817c0 -35 -28 -63 -63 -63s-63 28 -63 63c0 36 28 64 63 64s63 -28 63 -64zM342 817c0 -35 -29 -63 -63 -63c-36 0 -63 28 -63 63c0 36 27 64 63 64c34 0 63 -28 63 -64zM294 653l-74 -280c116 0 145 26 190 135h19l-77 -291h-19c2 19 3 36 3 50
c0 77 -39 85 -120 85l-83 -312c-2 -9 -3 -20 12 -20h100c50 0 101 31 140 79c34 40 71 101 86 127h18l-73 -226c-99 0 -229 1 -357 1c-42 0 -96 -1 -138 -1l5 20h56c15 0 19 11 21 20l162 613c2 9 3 20 -12 20h-56l5 20c42 0 91 -1 133 -1c40 0 259 1 347 1l-44 -194h-18
c0 36 -3 64 -11 96c-12 40 -46 78 -75 78h-118c-15 0 -20 -11 -22 -20z" />
    <glyph glyph-name="Egrave" unicode="&#xc8;" horiz-adv-x="537" 
d="M461 739h-19l-206 169v12h137zM294 653l-74 -280c116 0 145 26 190 135h19l-77 -291h-19c2 19 3 36 3 50c0 77 -39 85 -120 85l-83 -312c-2 -9 -3 -20 12 -20h100c50 0 101 31 140 79c34 40 71 101 86 127h18l-73 -226c-99 0 -229 1 -357 1c-42 0 -96 -1 -138 -1l5 20h56
c15 0 19 11 21 20l162 613c2 9 3 20 -12 20h-56l5 20c42 0 91 -1 133 -1c40 0 259 1 347 1l-44 -194h-18c0 36 -3 64 -11 96c-12 40 -46 78 -75 78h-118c-15 0 -20 -11 -22 -20z" />
    <glyph glyph-name="Iacute" unicode="&#xcd;" horiz-adv-x="298" 
d="M200 739h-20l125 181h139l-1 -13zM294 653l-161 -613c-2 -9 -3 -20 12 -20h55l-6 -20c-40 0 -95 1 -135 1c-42 0 -96 -1 -138 -1l5 20h56c15 0 19 11 21 20l162 613c2 9 3 20 -12 20h-56l5 20c42 0 91 -1 133 -1c40 0 102 1 142 1l-5 -20h-56c-15 0 -20 -11 -22 -20z" />
    <glyph glyph-name="Icircumflex" unicode="&#xce;" horiz-adv-x="298" 
d="M396 738h-21l-104 103l-153 -103h-23l159 188h69zM294 653l-161 -613c-2 -9 -3 -20 12 -20h55l-6 -20c-40 0 -95 1 -135 1c-42 0 -96 -1 -138 -1l5 20h56c15 0 19 11 21 20l162 613c2 9 3 20 -12 20h-56l5 20c42 0 91 -1 133 -1c40 0 102 1 142 1l-5 -20h-56
c-15 0 -20 -11 -22 -20z" />
    <glyph glyph-name="Idieresis" unicode="&#xcf;" horiz-adv-x="298" 
d="M420 817c0 -35 -28 -63 -63 -63s-63 28 -63 63c0 36 28 64 63 64s63 -28 63 -64zM224 817c0 -35 -29 -63 -63 -63c-36 0 -63 28 -63 63c0 36 27 64 63 64c34 0 63 -28 63 -64zM294 653l-161 -613c-2 -9 -3 -20 12 -20h55l-6 -20c-40 0 -95 1 -135 1c-42 0 -96 -1 -138 -1
l5 20h56c15 0 19 11 21 20l162 613c2 9 3 20 -12 20h-56l5 20c42 0 91 -1 133 -1c40 0 102 1 142 1l-5 -20h-56c-15 0 -20 -11 -22 -20z" />
    <glyph glyph-name="Igrave" unicode="&#xcc;" horiz-adv-x="298" 
d="M331 739h-19l-206 169v12h137zM294 653l-161 -613c-2 -9 -3 -20 12 -20h55l-6 -20c-40 0 -95 1 -135 1c-42 0 -96 -1 -138 -1l5 20h56c15 0 19 11 21 20l162 613c2 9 3 20 -12 20h-56l5 20c42 0 91 -1 133 -1c40 0 102 1 142 1l-5 -20h-56c-15 0 -20 -11 -22 -20z" />
    <glyph glyph-name="Oacute" unicode="&#xd3;" horiz-adv-x="594" 
d="M340 739h-20l125 181h139l-1 -13zM588 466c0 -229 -143 -480 -374 -480c-147 0 -208 111 -208 244c0 213 142 477 371 477c141 0 211 -98 211 -241zM463 576c0 75 -32 115 -93 115c-65 0 -113 -49 -148 -145c-15 -42 -37 -102 -60 -200c-29 -125 -32 -208 -32 -234
c0 -70 33 -109 90 -109c68 0 118 50 152 145c16 44 37 97 59 198c23 107 32 196 32 230z" />
    <glyph glyph-name="Ocircumflex" unicode="&#xd4;" horiz-adv-x="594" 
d="M536 738h-21l-104 103l-153 -103h-23l159 188h69zM588 466c0 -229 -143 -480 -374 -480c-147 0 -208 111 -208 244c0 213 142 477 371 477c141 0 211 -98 211 -241zM463 576c0 75 -32 115 -93 115c-65 0 -113 -49 -148 -145c-15 -42 -37 -102 -60 -200
c-29 -125 -32 -208 -32 -234c0 -70 33 -109 90 -109c68 0 118 50 152 145c16 44 37 97 59 198c23 107 32 196 32 230z" />
    <glyph glyph-name="apple" unicode="&#xf8ff;" horiz-adv-x="666" 
d="M337 383h-9l-194 318h17l182 -208l184 208h15zM286 355v-9l-246 -194v17l147 182l-147 184v15zM380 347v9l246 194v-16l-148 -183l148 -183v-16zM329 318h9l194 -318h-16l-183 208l-183 -208h-16z" />
    <glyph glyph-name="Ograve" unicode="&#xd2;" horiz-adv-x="594" 
d="M479 739h-19l-206 169v12h137zM588 466c0 -229 -143 -480 -374 -480c-147 0 -208 111 -208 244c0 213 142 477 371 477c141 0 211 -98 211 -241zM463 576c0 75 -32 115 -93 115c-65 0 -113 -49 -148 -145c-15 -42 -37 -102 -60 -200c-29 -125 -32 -208 -32 -234
c0 -70 33 -109 90 -109c68 0 118 50 152 145c16 44 37 97 59 198c23 107 32 196 32 230z" />
    <glyph glyph-name="Uacute" unicode="&#xda;" horiz-adv-x="613" 
d="M380 741h-20l125 181h139l-1 -13zM478 235l104 393c7 27 0 44 -25 45h-38l6 20c21 0 61 -1 86 -1c27 0 66 1 86 1l-6 -20h-33c-25 -1 -42 -17 -49 -45l-106 -405c-42 -160 -125 -237 -272 -237c-99 0 -200 33 -200 145c0 18 2 40 8 61l122 461c2 9 3 20 -12 20h-57l6 20
c42 0 92 -1 134 -1c40 0 108 1 148 1l-5 -20h-63c-15 0 -20 -11 -22 -20l-118 -447c-7 -28 -11 -56 -11 -78c0 -67 30 -104 104 -104c117 0 177 77 213 211z" />
    <glyph glyph-name="Ucircumflex" unicode="&#xdb;" horiz-adv-x="613" 
d="M584 741h-21l-104 103l-153 -103h-23l159 188h69zM478 235l104 393c7 27 0 44 -25 45h-38l6 20c21 0 61 -1 86 -1c27 0 66 1 86 1l-6 -20h-33c-25 -1 -42 -17 -49 -45l-106 -405c-42 -160 -125 -237 -272 -237c-99 0 -200 33 -200 145c0 18 2 40 8 61l122 461
c2 9 3 20 -12 20h-57l6 20c42 0 92 -1 134 -1c40 0 108 1 148 1l-5 -20h-63c-15 0 -20 -11 -22 -20l-118 -447c-7 -28 -11 -56 -11 -78c0 -67 30 -104 104 -104c117 0 177 77 213 211z" />
    <glyph glyph-name="Ugrave" unicode="&#xd9;" horiz-adv-x="613" 
d="M507 739h-19l-206 169v12h137zM478 235l104 393c7 27 0 44 -25 45h-38l6 20c21 0 61 -1 86 -1c27 0 66 1 86 1l-6 -20h-33c-25 -1 -42 -17 -49 -45l-106 -405c-42 -160 -125 -237 -272 -237c-99 0 -200 33 -200 145c0 18 2 40 8 61l122 461c2 9 3 20 -12 20h-57l6 20
c42 0 92 -1 134 -1c40 0 108 1 148 1l-5 -20h-63c-15 0 -20 -11 -22 -20l-118 -447c-7 -28 -11 -56 -11 -78c0 -67 30 -104 104 -104c117 0 177 77 213 211z" />
    <glyph glyph-name="dotlessi" unicode="&#x131;" horiz-adv-x="250" 
d="M207 454l-92 -349c-4 -13 -7 -31 -7 -41c0 -23 9 -33 27 -33c20 0 48 24 68 56l13 -10c-43 -71 -94 -88 -147 -88c-51 0 -80 34 -80 77c0 9 3 25 5 33l82 308c2 9 3 20 -12 20l-39 1l4 18h84c31 0 68 4 94 8z" />
    <glyph glyph-name="circumflex" unicode="&#x2c6;" 
d="M449 500h-21l-104 103l-153 -103h-23l159 188h69z" />
    <glyph glyph-name="tilde" unicode="&#x2dc;" 
d="M498 652c-27 -50 -67 -124 -139 -124c-35 0 -56 13 -74 22c-21 9 -38 17 -64 17c-33 0 -60 -24 -70 -43h-22c25 47 66 124 139 124c33 0 58 -13 72 -20c20 -10 37 -20 66 -20c34 0 60 26 70 44h22z" />
    <glyph glyph-name="macron" unicode="&#xaf;" 
d="M157 525l20 74h280l-20 -74h-280z" />
    <glyph glyph-name="breve" unicode="&#x2d8;" 
d="M314 585c63 0 121 23 150 73h20c-33 -102 -93 -153 -186 -153c-86 0 -133 60 -115 153h19c3 -50 50 -73 112 -73z" />
    <glyph glyph-name="dotaccent" unicode="&#x2d9;" 
d="M240 568c0 35 28 63 63 63s63 -28 63 -63s-28 -63 -63 -63s-63 28 -63 63z" />
    <glyph glyph-name="ring" unicode="&#x2da;" 
d="M301 501c-63 0 -98 38 -93 89c6 62 63 105 130 105c60 0 99 -37 93 -89c-5 -60 -58 -105 -130 -105zM367 611c5 41 -4 66 -33 66c-35 0 -56 -36 -62 -93c-5 -41 5 -64 33 -64c37 0 57 39 62 91z" />
    <glyph glyph-name="cedilla" unicode="&#xb8;" 
d="M91 -232c-36 0 -56 6 -71 12l6 23c19 -5 36 -12 57 -12c41 0 73 20 77 62c5 37 -25 45 -45 45l29 100h21l-18 -65c71 0 114 -22 106 -76c-9 -57 -72 -89 -162 -89z" />
    <glyph glyph-name="hungarumlaut" unicode="&#x2dd;" 
d="M585 660l-267 -164h-20l157 177h134zM398 660l-255 -164h-19l144 177h134z" />
    <glyph glyph-name="ogonek" unicode="&#x2db;" 
d="M211 -4h21c-69 -42 -106 -86 -118 -128s9 -64 38 -64c22 0 45 6 66 19l2 -13c-31 -32 -72 -51 -113 -51c-63 0 -82 45 -70 93c28 106 174 144 174 144z" />
    <glyph glyph-name="caron" unicode="&#x2c7;" 
d="M476 687h16l-161 -187h-69l-71 187h15l111 -104z" />
    <glyph glyph-name="minute" unicode="&#x2032;" horiz-adv-x="224" 
d="M228 707c41 0 62 -31 33 -67l-164 -204h-18l81 222c12 34 38 49 68 49z" />
    <glyph glyph-name="second" unicode="&#x2033;" horiz-adv-x="373" 
d="M146 436l81 222c12 34 38 49 68 49h7h8c41 0 62 -31 33 -67l-164 -204h-33z" />
    <glyph glyph-name="Euro" unicode="&#x20ac;" horiz-adv-x="540" 
d="M37 396l5 23h57c59 167 176 288 313 288c85 0 104 -52 122 -52c12 0 24 15 32 35h18l-53 -212h-19c11 109 -10 211 -100 211c-35 0 -71 -16 -100 -57c-34 -48 -61 -134 -82 -213h207l-6 -23h-207l-12 -49l-10 -47h207l-6 -24h-206c-12 -61 -22 -123 -22 -172
c0 -68 29 -100 74 -98c54 0 97 35 142 97c23 33 53 89 69 133h19l-56 -228h-20c0 18 -2 35 -14 35c-21 0 -65 -55 -146 -56c-140 0 -183 120 -181 237c0 18 1 33 3 52h-56l5 24h54c2 14 5 31 9 48c4 16 8 31 13 48h-53z" />
    <glyph glyph-name="copyrightsound" unicode="&#x2117;" horiz-adv-x="788" 
d="M753 350c0 -199 -161 -359 -359 -359c-199 0 -359 160 -359 359c0 198 160 360 359 360c198 0 359 -162 359 -360zM724 350c0 182 -149 336 -330 336c-182 0 -331 -154 -331 -336s149 -335 331 -335c181 0 330 153 330 335zM376 533v-184c9 -3 18 -4 25 -4
c50 0 72 29 72 102c0 80 -29 98 -82 98h-4c-9 0 -11 -6 -11 -12zM448 558c54 0 130 -17 130 -108c0 -95 -84 -122 -153 -122c-15 0 -36 2 -49 6v-166c0 -6 2 -12 11 -12l37 -1v-12h-194v12l35 1c9 0 10 6 10 12v365c0 6 -1 12 -10 12l-35 1v12h218z" />
    <glyph glyph-name="estimated" unicode="&#x212e;" horiz-adv-x="697" 
d="M661 318h-490v-220c47 -46 105 -71 174 -71c119 0 184 62 237 145l37 -23c-62 -95 -136 -161 -274 -161c-189 0 -310 150 -310 331c0 183 118 331 313 331s310 -150 313 -332zM522 358v182c-43 41 -108 71 -175 71c-68 0 -130 -24 -176 -71v-182h351z" />
    <glyph glyph-name="space.frac" horiz-adv-x="50" 
 />
    <glyph glyph-name="hyphen.uc" horiz-adv-x="324" 
d="M290 388l-24 -85h-230l24 85h230z" />
    <glyph glyph-name="endash.uc" horiz-adv-x="462" 
d="M34 305l21 77h379l-21 -77h-379z" />
    <glyph glyph-name="emdash.uc" horiz-adv-x="664" 
d="M34 305l21 77h582l-21 -77h-582z" />
    <glyph glyph-name="parenleft.uc" horiz-adv-x="332" 
d="M158 -128c-36 47 -148 153 -148 343c0 39 5 84 16 130c67 270 299 416 370 473l15 -12c-79 -68 -178 -138 -259 -461c-27 -110 -36 -194 -35 -255c1 -116 32 -164 59 -207z" />
    <glyph glyph-name="parenright.uc" horiz-adv-x="332" 
d="M-65 -128l-14 12c78 67 176 138 257 461c28 111 37 196 36 255c0 115 -30 164 -58 207l17 11c36 -47 148 -154 148 -343c0 -39 -5 -84 -17 -130c-67 -270 -298 -416 -369 -473z" />
    <glyph glyph-name="bracketleft.uc" horiz-adv-x="332" 
d="M445 775l-6 -20h-116l-225 -863h116l-5 -20h-232l236 903h232z" />
    <glyph glyph-name="bracketright.uc" horiz-adv-x="332" 
d="M380 775l-236 -903h-232l5 20h116l226 863h-116l5 20h232z" />
    <glyph glyph-name="braceleft.uc" horiz-adv-x="392" 
d="M481 775l-5 -20c-63 -4 -110 -3 -137 -112c-10 -40 -16 -70 -26 -110c-35 -140 -112 -171 -218 -189l-5 -21c78 -13 133 -38 133 -121c0 -73 -54 -191 -54 -249s41 -58 90 -61l-5 -20c-120 0 -195 19 -195 112c0 76 61 174 61 254c0 56 -37 74 -109 79l7 33
c97 8 143 30 169 136c11 42 13 84 23 125c33 134 132 164 271 164z" />
    <glyph glyph-name="braceright.uc" horiz-adv-x="392" 
d="M-109 -128l5 20c63 4 111 3 138 112c10 40 13 70 23 110c35 140 113 171 219 189l5 21c-78 13 -134 38 -134 121c0 78 56 186 56 248c0 58 -41 59 -90 62l5 20c119 0 194 -20 194 -112c0 -80 -61 -171 -61 -254c0 -56 37 -74 109 -79l-7 -33c-97 -7 -143 -30 -170 -136
c-10 -42 -12 -84 -22 -125c-33 -135 -131 -164 -270 -164z" />
    <glyph glyph-name="guilsinglleft.uc" horiz-adv-x="325" 
d="M216 158l-173 190l273 189h19l-163 -193l65 -186h-21z" />
    <glyph glyph-name="guilsinglright.uc" horiz-adv-x="325" 
d="M112 535l173 -191l-273 -189h-19l163 194l-64 186h20z" />
    <glyph glyph-name="guillemotleft.uc" horiz-adv-x="520" 
d="M320 156l-6 7l2 -7h-21l-173 190l273 189h19l-8 -10l14 10h19l-163 -193l65 -186h-21z" />
    <glyph glyph-name="guillemotright.uc" horiz-adv-x="520" 
d="M96 157l11 13l-19 -13h-19l163 194l-64 186h20l11 -12l-4 12h20l173 -191l-273 -189h-19z" />
    <glyph glyph-name="registered.big" horiz-adv-x="788" 
d="M753 350c0 -199 -161 -359 -359 -359c-199 0 -359 160 -359 359c0 198 160 360 359 360c198 0 359 -162 359 -360zM724 350c0 184 -149 336 -330 336c-182 0 -331 -154 -331 -336s149 -335 331 -335c181 0 330 153 330 335zM432 562c49 0 128 -16 128 -102
c0 -71 -69 -90 -123 -98c36 -6 76 -16 99 -54c11 -18 14 -49 17 -75c6 -61 16 -74 34 -74c11 0 17 4 26 10l6 -12c-19 -13 -42 -21 -66 -21c-62 0 -102 29 -106 111c-2 38 -6 69 -25 89c-11 12 -35 17 -50 17h-14v-180c0 -6 1 -12 10 -12l33 -1v-14h-189v14l35 1
c9 0 10 6 10 12v362c0 5 -1 12 -10 12h-35v15c25 0 76 -1 101 -1c24 0 95 1 119 1zM373 547h-5c-9 0 -10 -7 -10 -12v-167c71 -4 96 21 96 91c0 72 -35 88 -81 88z" />
    <glyph glyph-name="zero.dnom" horiz-adv-x="390" 
d="M133 -7c-93 0 -135 72 -135 153c0 120 88 267 220 267c94 0 136 -75 136 -158c0 -111 -88 -262 -221 -262zM239 203c8 34 18 99 18 139c0 44 -16 54 -42 54c-17 0 -33 -5 -49 -26c-24 -33 -44 -124 -53 -167s-19 -97 -19 -139c0 -43 15 -55 42 -55c17 0 34 5 48 26
c24 35 45 124 55 168z" />
    <glyph glyph-name="one.dnom" horiz-adv-x="270" 
d="M237 410l-100 -372c-2 -9 -3 -20 12 -20h45l-4 -18c-40 0 -69 1 -109 1c-42 0 -74 -1 -115 -1l5 18h44c15 0 20 11 22 20l76 285c5 17 6 26 -15 22l-52 -13v16c67 17 133 47 162 62h29z" />
    <glyph glyph-name="two.dnom" horiz-adv-x="355" 
d="M304 130l-45 -130h-302l12 45c46 20 111 57 156 94c59 48 97 110 97 190c0 33 -19 60 -57 60c-44 0 -83 -22 -97 -58l5 -3c9 7 21 11 32 11c27 0 43 -22 40 -48c-3 -32 -29 -52 -60 -52c-34 0 -52 28 -52 58c0 62 73 116 163 116c88 0 125 -43 125 -99
c0 -116 -146 -179 -259 -238h183c17 0 21 7 29 25l12 29h18z" />
    <glyph glyph-name="three.dnom" horiz-adv-x="355" 
d="M80 -8c-67 0 -113 26 -113 76c0 30 27 59 61 59c38 0 50 -25 50 -48c0 -26 -20 -44 -49 -47l-4 -3c9 -11 25 -21 61 -21c77 0 100 87 100 141c0 37 -14 59 -58 59c-13 0 -39 -14 -56 -14c-13 0 -24 5 -23 20s17 21 32 21s38 -12 50 -12c58 0 80 54 80 121
c0 32 -12 52 -43 52c-24 0 -47 -9 -57 -16l3 -5c25 -1 37 -18 37 -38c0 -32 -25 -51 -56 -51c-29 0 -52 16 -51 49c2 49 80 78 145 78c71 0 127 -32 127 -81c0 -56 -61 -97 -125 -114c55 -12 102 -36 102 -86c0 -87 -111 -140 -213 -140z" />
    <glyph glyph-name="four.dnom" horiz-adv-x="350" 
d="M145 129l50 186c-65 -58 -119 -108 -193 -186h143zM237 107l-20 -74c-2 -7 -3 -16 9 -16h37l-4 -18c-32 0 -64 1 -96 1c-34 0 -72 -1 -105 -1l4 18h38c12 0 17 9 19 16l20 74h-169l6 25c100 104 186 181 294 275h47l-74 -278h33c7 0 16 2 19 14l9 32h17
c-3 -10 -10 -34 -17 -61l-14 -53h-16l8 32c3 12 -5 14 -12 14h-33z" />
    <glyph glyph-name="five.dnom" horiz-adv-x="345" 
d="M82 -7c-64 0 -110 25 -110 75c0 31 27 59 61 59c37 0 50 -24 50 -47c0 -27 -20 -45 -49 -48l-4 -3c9 -11 26 -20 58 -20c76 0 106 96 106 164c0 37 -14 60 -55 60c-26 0 -66 -15 -92 -42l-16 8l65 204h194c36 0 43 12 54 28l12 -6l-34 -64c-13 -23 -39 -39 -73 -39h-158
l-33 -98c23 13 60 28 100 28c77 0 141 -40 140 -102c0 -95 -108 -157 -216 -157z" />
    <glyph glyph-name="six.dnom" horiz-adv-x="370" 
d="M145 -7c-90 0 -138 63 -138 137c0 157 156 279 341 285v-18c-71 -6 -181 -66 -217 -164c28 24 58 33 91 33c72 0 114 -49 114 -108c0 -94 -97 -165 -191 -165zM235 193c0 28 -9 51 -40 51c-36 0 -62 -25 -72 -53c-8 -21 -20 -66 -20 -118c0 -42 10 -64 42 -64
c18 0 32 6 43 18c29 32 47 130 47 166z" />
    <glyph glyph-name="seven.dnom" horiz-adv-x="325" 
d="M357 382c-107 -105 -200 -197 -200 -286v-32c0 -34 -12 -73 -65 -73c-28 0 -48 15 -47 47c0 90 140 201 237 291h-197c-19 0 -24 -2 -33 -21l-14 -28h-17l48 128h295z" />
    <glyph glyph-name="eight.dnom" horiz-adv-x="379" 
d="M128 -10c-80 0 -146 43 -146 101c0 68 71 109 136 122c-43 10 -82 37 -82 81c0 66 89 120 178 120c74 0 135 -39 135 -90c0 -62 -60 -98 -118 -111c44 -11 93 -41 93 -89c0 -76 -103 -134 -196 -134zM245 353c0 35 -14 45 -36 45c-15 0 -29 -7 -39 -20
c-16 -21 -29 -79 -29 -110c0 -29 13 -48 35 -48c16 0 29 8 39 21c17 22 30 80 30 112zM219 146c0 39 -16 59 -46 59c-17 0 -35 -7 -48 -21c-26 -28 -38 -94 -38 -126c0 -38 19 -52 47 -52c17 0 36 8 47 20c22 23 38 80 38 120z" />
    <glyph glyph-name="nine.dnom" horiz-adv-x="375" 
d="M212 413c89 0 137 -62 137 -136c0 -164 -162 -280 -341 -286v17c70 6 182 67 218 165c-28 -24 -59 -33 -92 -33c-72 0 -114 49 -114 108c0 92 96 165 192 165zM121 212c0 -28 10 -51 41 -51c36 0 64 26 73 53c7 22 18 68 18 116c0 44 -11 67 -43 67c-17 0 -31 -6 -42 -18
c-28 -29 -47 -128 -47 -167z" />
    <glyph glyph-name="zero.numr" horiz-adv-x="390" 
d="M190 287c-93 0 -135 72 -135 153c0 120 88 267 220 267c94 0 136 -75 136 -158c0 -111 -88 -262 -221 -262zM296 497c8 34 18 99 18 139c0 44 -16 54 -42 54c-17 0 -33 -5 -49 -26c-24 -33 -44 -124 -53 -167s-19 -97 -19 -139c0 -43 15 -55 42 -55c17 0 34 5 48 26
c24 35 45 124 55 168z" />
    <glyph glyph-name="one.numr" horiz-adv-x="272" 
d="M288 704l-100 -372c-2 -9 -3 -20 12 -20h45l-4 -18c-40 0 -69 1 -109 1c-42 0 -74 -1 -115 -1l5 18h44c15 0 20 11 22 20l76 285c5 17 6 26 -15 22l-52 -13v16c67 17 133 47 162 62h29z" />
    <glyph glyph-name="two.numr" horiz-adv-x="355" 
d="M357 424l-45 -130h-302l12 45c46 20 111 57 156 94c59 48 97 110 97 190c0 33 -19 60 -57 60c-44 0 -83 -22 -97 -58l5 -3c9 7 21 11 32 11c27 0 43 -22 40 -48c-3 -32 -29 -52 -60 -52c-34 0 -52 28 -52 58c0 62 73 116 163 116c88 0 125 -43 125 -99
c0 -116 -146 -179 -259 -238h183c17 0 21 7 29 25l12 29h18z" />
    <glyph glyph-name="three.numr" horiz-adv-x="360" 
d="M144 286c-67 0 -113 26 -113 76c0 30 27 59 61 59c38 0 50 -25 50 -48c0 -26 -20 -44 -49 -47l-4 -3c9 -11 25 -21 61 -21c77 0 100 87 100 141c0 37 -14 59 -58 59c-13 0 -39 -14 -56 -14c-13 0 -24 5 -23 20s17 21 32 21s38 -12 50 -12c58 0 80 54 80 121
c0 32 -12 52 -43 52c-24 0 -47 -9 -57 -16l3 -5c25 -1 37 -18 37 -38c0 -32 -25 -51 -56 -51c-29 0 -52 16 -51 49c2 49 80 78 145 78c71 0 127 -32 127 -81c0 -56 -61 -97 -125 -114c55 -12 102 -36 102 -86c0 -87 -111 -140 -213 -140z" />
    <glyph glyph-name="four.numr" horiz-adv-x="351" 
d="M199 424l50 186c-65 -58 -119 -108 -193 -186h143zM291 402l-20 -74c-2 -7 -3 -16 9 -16h37l-4 -18c-32 0 -64 1 -96 1c-34 0 -72 -1 -105 -1l4 18h38c12 0 17 9 19 16l20 74h-169l6 25c100 104 186 181 294 275h47l-74 -278h33c7 0 16 2 19 14l9 32h17
c-3 -10 -10 -34 -17 -61l-14 -53h-16l8 32c3 12 -5 14 -12 14h-33z" />
    <glyph glyph-name="five.numr" horiz-adv-x="344" 
d="M134 286c-64 0 -110 25 -110 75c0 31 27 59 61 59c37 0 50 -24 50 -47c0 -27 -20 -45 -49 -48l-4 -3c9 -11 26 -20 58 -20c76 0 106 96 106 164c0 37 -14 60 -55 60c-26 0 -66 -15 -92 -42l-16 8l65 204h194c36 0 43 12 54 28l12 -6l-34 -64c-13 -23 -39 -39 -73 -39
h-158l-33 -98c23 13 60 28 100 28c77 0 141 -40 140 -102c0 -95 -108 -157 -216 -157z" />
    <glyph glyph-name="six.numr" horiz-adv-x="375" 
d="M197 287c-90 0 -138 63 -138 137c0 157 156 279 341 285v-18c-71 -6 -181 -66 -217 -164c28 24 58 33 91 33c72 0 114 -49 114 -108c0 -94 -97 -165 -191 -165zM287 487c0 28 -9 51 -40 51c-36 0 -62 -25 -72 -53c-8 -21 -20 -66 -20 -118c0 -42 10 -64 42 -64
c18 0 32 6 43 18c29 32 47 130 47 166z" />
    <glyph glyph-name="seven.numr" horiz-adv-x="325" 
d="M412 676c-107 -105 -200 -197 -200 -286v-32c0 -34 -12 -73 -65 -73c-28 0 -48 15 -47 47c0 90 140 201 237 291h-197c-19 0 -24 -2 -33 -21l-14 -28h-17l48 128h295z" />
    <glyph glyph-name="eight.numr" horiz-adv-x="379" 
d="M192 285c-80 0 -146 43 -146 101c0 68 71 109 136 122c-43 10 -82 37 -82 81c0 66 89 120 178 120c74 0 135 -39 135 -90c0 -62 -60 -98 -118 -111c44 -11 93 -41 93 -89c0 -76 -103 -134 -196 -134zM309 648c0 35 -14 45 -36 45c-15 0 -29 -7 -39 -20
c-16 -21 -29 -79 -29 -110c0 -29 13 -48 35 -48c16 0 29 8 39 21c17 22 30 80 30 112zM283 441c0 39 -16 59 -46 59c-17 0 -35 -7 -48 -21c-26 -28 -38 -94 -38 -126c0 -38 19 -52 47 -52c17 0 36 8 47 20c22 23 38 80 38 120z" />
    <glyph glyph-name="nine.numr" horiz-adv-x="375" 
d="M260 707c89 0 137 -62 137 -136c0 -164 -162 -280 -341 -286v17c70 6 182 67 218 165c-28 -24 -59 -33 -92 -33c-72 0 -114 49 -114 108c0 92 96 165 192 165zM169 506c0 -28 10 -51 41 -51c36 0 64 26 73 53c7 22 18 68 18 116c0 44 -11 67 -43 67c-17 0 -31 -6 -42 -18
c-28 -29 -47 -128 -47 -167z" />
    <glyph glyph-name="zero.sinf" unicode="&#x2080;" horiz-adv-x="410" 
d="M71 -253c-93 0 -135 72 -135 153c0 120 88 267 220 267c94 0 136 -75 136 -158c0 -111 -88 -262 -221 -262zM177 -43c8 34 18 99 18 139c0 44 -16 54 -42 54c-17 0 -33 -5 -49 -26c-24 -33 -44 -124 -53 -167s-19 -97 -19 -139c0 -43 15 -55 42 -55c17 0 34 5 48 26
c24 35 45 124 55 168z" />
    <glyph glyph-name="one.sinf" unicode="&#x2081;" horiz-adv-x="290" 
d="M175 164l-100 -372c-2 -9 -3 -20 12 -20h45l-4 -18c-40 0 -69 1 -109 1c-42 0 -74 -1 -115 -1l5 18h44c15 0 20 11 22 20l76 285c5 17 6 26 -15 22l-52 -13v16c67 17 133 47 162 62h29z" />
    <glyph glyph-name="two.sinf" unicode="&#x2082;" horiz-adv-x="375" 
d="M242 -116l-45 -130h-302l12 45c46 20 111 57 156 94c59 48 97 110 97 190c0 33 -19 60 -57 60c-44 0 -83 -22 -97 -58l5 -3c9 7 21 11 32 11c27 0 43 -22 40 -48c-3 -32 -29 -52 -60 -52c-34 0 -52 28 -52 58c0 62 73 116 163 116c88 0 125 -43 125 -99
c0 -116 -146 -179 -259 -238h183c17 0 21 7 29 25l12 29h18z" />
    <glyph glyph-name="three.sinf" unicode="&#x2083;" horiz-adv-x="375" 
d="M18 -254c-67 0 -113 26 -113 76c0 30 27 59 61 59c38 0 50 -25 50 -48c0 -26 -20 -44 -49 -47l-4 -3c9 -11 25 -21 61 -21c77 0 100 87 100 141c0 37 -14 59 -58 59c-13 0 -39 -14 -56 -14c-13 0 -24 5 -23 20s17 21 32 21s38 -12 50 -12c58 0 80 54 80 121
c0 32 -12 52 -43 52c-24 0 -47 -9 -57 -16l3 -5c25 -1 37 -18 37 -38c0 -32 -25 -51 -56 -51c-29 0 -52 16 -51 49c2 49 80 78 145 78c71 0 127 -32 127 -81c0 -56 -61 -97 -125 -114c55 -12 102 -36 102 -86c0 -87 -111 -140 -213 -140z" />
    <glyph glyph-name="four.sinf" unicode="&#x2084;" horiz-adv-x="371" 
d="M83 -116l50 186c-65 -58 -119 -108 -193 -186h143zM175 -138l-20 -74c-2 -7 -3 -16 9 -16h37l-4 -18c-32 0 -64 1 -96 1c-34 0 -72 -1 -105 -1l4 18h38c12 0 17 9 19 16l20 74h-169l6 25c100 104 186 181 294 275h47l-74 -278h33c7 0 16 2 19 14l9 32h17
c-3 -10 -10 -34 -17 -61l-14 -53h-16l8 32c3 12 -5 14 -12 14h-33z" />
    <glyph glyph-name="five.sinf" unicode="&#x2085;" horiz-adv-x="365" 
d="M19 -254c-64 0 -110 25 -110 75c0 31 27 59 61 59c37 0 50 -24 50 -47c0 -27 -20 -45 -49 -48l-4 -3c9 -11 26 -20 58 -20c76 0 106 96 106 164c0 37 -14 60 -55 60c-26 0 -66 -15 -92 -42l-16 8l65 204h194c36 0 43 12 54 28l12 -6l-34 -64c-13 -23 -39 -39 -73 -39
h-158l-33 -98c23 13 60 28 100 28c77 0 141 -40 140 -102c0 -95 -108 -157 -216 -157z" />
    <glyph glyph-name="six.sinf" unicode="&#x2086;" horiz-adv-x="390" 
d="M80 -253c-90 0 -138 63 -138 137c0 157 156 279 341 285v-18c-71 -6 -181 -66 -217 -164c28 24 58 33 91 33c72 0 114 -49 114 -108c0 -94 -97 -165 -191 -165zM170 -53c0 28 -9 51 -40 51c-36 0 -62 -25 -72 -53c-8 -21 -20 -66 -20 -118c0 -42 10 -64 42 -64
c18 0 32 6 43 18c29 32 47 130 47 166z" />
    <glyph glyph-name="seven.sinf" unicode="&#x2087;" horiz-adv-x="345" 
d="M293 136c-107 -105 -200 -197 -200 -286v-32c0 -34 -12 -73 -65 -73c-28 0 -48 15 -47 47c0 90 140 201 237 291h-197c-19 0 -24 -2 -33 -21l-14 -28h-17l48 128h295z" />
    <glyph glyph-name="eight.sinf" unicode="&#x2088;" horiz-adv-x="399" 
d="M66 -255c-80 0 -146 43 -146 101c0 68 71 109 136 122c-43 10 -82 37 -82 81c0 66 89 120 178 120c74 0 135 -39 135 -90c0 -62 -60 -98 -118 -111c44 -11 93 -41 93 -89c0 -76 -103 -134 -196 -134zM183 108c0 35 -14 45 -36 45c-15 0 -29 -7 -39 -20
c-16 -21 -29 -79 -29 -110c0 -29 13 -48 35 -48c16 0 29 8 39 21c17 22 30 80 30 112zM157 -99c0 39 -16 59 -46 59c-17 0 -35 -7 -48 -21c-26 -28 -38 -94 -38 -126c0 -38 19 -52 47 -52c17 0 36 8 47 20c22 23 38 80 38 120z" />
    <glyph glyph-name="nine.sinf" unicode="&#x2089;" horiz-adv-x="395" 
d="M145 167c89 0 137 -62 137 -136c0 -164 -162 -280 -341 -286v17c70 6 182 67 218 165c-28 -24 -59 -33 -92 -33c-72 0 -114 49 -114 108c0 92 96 165 192 165zM54 -34c0 -28 10 -51 41 -51c36 0 64 26 73 53c7 22 18 68 18 116c0 44 -11 67 -43 67c-17 0 -31 -6 -42 -18
c-28 -29 -47 -128 -47 -167z" />
    <glyph glyph-name="one.sups" horiz-adv-x="292" 
d="M298 704l-100 -372c-2 -9 -3 -20 12 -20h45l-4 -18c-40 0 -69 1 -109 1c-42 0 -74 -1 -115 -1l5 18h44c15 0 20 11 22 20l76 285c5 17 6 26 -15 22l-52 -13v16c67 17 133 47 162 62h29z" />
    <glyph glyph-name="two.sups" horiz-adv-x="375" 
d="M367 424l-45 -130h-302l12 45c46 20 111 57 156 94c59 48 97 110 97 190c0 33 -19 60 -57 60c-44 0 -83 -22 -97 -58l5 -3c9 7 21 11 32 11c27 0 43 -22 40 -48c-3 -32 -29 -52 -60 -52c-34 0 -52 28 -52 58c0 62 73 116 163 116c88 0 125 -43 125 -99
c0 -116 -146 -179 -259 -238h183c17 0 21 7 29 25l12 29h18z" />
    <glyph glyph-name="three.sups" horiz-adv-x="380" 
d="M154 286c-67 0 -113 26 -113 76c0 30 27 59 61 59c38 0 50 -25 50 -48c0 -26 -20 -44 -49 -47l-4 -3c9 -11 25 -21 61 -21c77 0 100 87 100 141c0 37 -14 59 -58 59c-13 0 -39 -14 -56 -14c-13 0 -24 5 -23 20s17 21 32 21s38 -12 50 -12c58 0 80 54 80 121
c0 32 -12 52 -43 52c-24 0 -47 -9 -57 -16l3 -5c25 -1 37 -18 37 -38c0 -32 -25 -51 -56 -51c-29 0 -52 16 -51 49c2 49 80 78 145 78c71 0 127 -32 127 -81c0 -56 -61 -97 -125 -114c55 -12 102 -36 102 -86c0 -87 -111 -140 -213 -140z" />
    <glyph glyph-name="zero.sups" unicode="&#x2070;" horiz-adv-x="410" 
d="M200 287c-93 0 -135 72 -135 153c0 120 88 267 220 267c94 0 136 -75 136 -158c0 -111 -88 -262 -221 -262zM306 497c8 34 18 99 18 139c0 44 -16 54 -42 54c-17 0 -33 -5 -49 -26c-24 -33 -44 -124 -53 -167s-19 -97 -19 -139c0 -43 15 -55 42 -55c17 0 34 5 48 26
c24 35 45 124 55 168z" />
    <glyph glyph-name="four.sups" unicode="&#x2074;" horiz-adv-x="371" 
d="M209 424l50 186c-65 -58 -119 -108 -193 -186h143zM301 402l-20 -74c-2 -7 -3 -16 9 -16h37l-4 -18c-32 0 -64 1 -96 1c-34 0 -72 -1 -105 -1l4 18h38c12 0 17 9 19 16l20 74h-169l6 25c100 104 186 181 294 275h47l-74 -278h33c7 0 16 2 19 14l9 32h17
c-3 -10 -10 -34 -17 -61l-14 -53h-16l8 32c3 12 -5 14 -12 14h-33z" />
    <glyph glyph-name="five.sups" unicode="&#x2075;" horiz-adv-x="364" 
d="M145 286c-64 0 -110 25 -110 75c0 31 27 59 61 59c37 0 50 -24 50 -47c0 -27 -20 -45 -49 -48l-4 -3c9 -11 26 -20 58 -20c76 0 106 96 106 164c0 37 -14 60 -55 60c-26 0 -66 -15 -92 -42l-16 8l65 204h194c36 0 43 12 54 28l12 -6l-34 -64c-13 -23 -39 -39 -73 -39
h-158l-33 -98c23 13 60 28 100 28c77 0 141 -40 140 -102c0 -95 -108 -157 -216 -157z" />
    <glyph glyph-name="six.sups" unicode="&#x2076;" horiz-adv-x="395" 
d="M207 287c-90 0 -138 63 -138 137c0 157 156 279 341 285v-18c-71 -6 -181 -66 -217 -164c28 24 58 33 91 33c72 0 114 -49 114 -108c0 -94 -97 -165 -191 -165zM297 487c0 28 -9 51 -40 51c-36 0 -62 -25 -72 -53c-8 -21 -20 -66 -20 -118c0 -42 10 -64 42 -64
c18 0 32 6 43 18c29 32 47 130 47 166z" />
    <glyph glyph-name="seven.sups" unicode="&#x2077;" horiz-adv-x="345" 
d="M422 676c-107 -105 -200 -197 -200 -286v-32c0 -34 -12 -73 -65 -73c-28 0 -48 15 -47 47c0 90 140 201 237 291h-197c-19 0 -24 -2 -33 -21l-14 -28h-17l48 128h295z" />
    <glyph glyph-name="eight.sups" unicode="&#x2078;" horiz-adv-x="399" 
d="M202 285c-80 0 -146 43 -146 101c0 68 71 109 136 122c-43 10 -82 37 -82 81c0 66 89 120 178 120c74 0 135 -39 135 -90c0 -62 -60 -98 -118 -111c44 -11 93 -41 93 -89c0 -76 -103 -134 -196 -134zM319 648c0 35 -14 45 -36 45c-15 0 -29 -7 -39 -20
c-16 -21 -29 -79 -29 -110c0 -29 13 -48 35 -48c16 0 29 8 39 21c17 22 30 80 30 112zM293 441c0 39 -16 59 -46 59c-17 0 -35 -7 -48 -21c-26 -28 -38 -94 -38 -126c0 -38 19 -52 47 -52c17 0 36 8 47 20c22 23 38 80 38 120z" />
    <glyph glyph-name="nine.sups" unicode="&#x2079;" horiz-adv-x="395" 
d="M270 707c89 0 137 -62 137 -136c0 -164 -162 -280 -341 -286v17c70 6 182 67 218 165c-28 -24 -59 -33 -92 -33c-72 0 -114 49 -114 108c0 92 96 165 192 165zM179 506c0 -28 10 -51 41 -51c36 0 64 26 73 53c7 22 18 68 18 116c0 44 -11 67 -43 67c-17 0 -31 -6 -42 -18
c-28 -29 -47 -128 -47 -167z" />
    <glyph glyph-name="v.salt" horiz-adv-x="390" 
d="M294 459c41 0 75 -28 75 -88c0 -139 -126 -245 -193 -306c-31 -28 -63 -54 -85 -78l-19 8c3 109 -75 194 -75 280c0 87 60 146 142 184l11 -11c-26 -21 -42 -33 -42 -113c0 -88 52 -143 60 -250c77 63 139 151 139 233c0 5 -1 11 -3 17c-7 -2 -13 -3 -23 -3
c-40 0 -60 31 -60 60c0 43 36 67 73 67z" />
    <glyph glyph-name="w.salt" horiz-adv-x="592" 
d="M571 370c0 -133 -125 -251 -182 -299c-31 -26 -62 -58 -85 -82l-17 7v10c0 54 -21 106 -40 150c-65 -76 -111 -119 -160 -167l-17 6v11c0 104 -74 184 -74 268c0 87 66 147 148 185l10 -11c-30 -22 -43 -39 -43 -114c0 -81 49 -157 54 -240c26 25 50 53 73 85
c-13 31 -22 65 -22 96c0 68 22 102 47 134c15 20 50 49 67 49c7 0 13 -4 13 -9c0 -9 -7 -14 -11 -17c-11 -10 -24 -20 -24 -50c0 -66 71 -219 73 -293c85 71 129 162 129 228c0 6 -1 12 -3 18c-7 -2 -14 -3 -24 -3c-37 -1 -60 26 -60 59c0 42 34 68 73 68
c46 0 75 -32 75 -89z" />
    <glyph glyph-name="ordfeminine.lc" horiz-adv-x="390" 
d="M271 577c-6 16 -15 39 -42 39c-23 0 -42 -20 -58 -55c-10 -24 -18 -46 -29 -84c-15 -56 -17 -81 -17 -94c0 -28 12 -40 29 -40c27 0 46 19 62 35zM273 313c-35 0 -55 21 -58 47c-30 -31 -59 -48 -95 -48c-57 0 -80 37 -78 91c0 22 4 48 11 74c25 87 79 163 160 163
c37 0 53 -16 64 -41l10 33h23c21 0 43 2 62 5l-70 -241c-3 -10 -5 -23 -5 -30c0 -16 7 -23 19 -23c14 0 33 16 46 38l10 -8c-27 -46 -61 -60 -99 -60z" />
    <glyph glyph-name="ordmasculine.lc" horiz-adv-x="376" 
d="M352 525c0 -111 -74 -213 -192 -213c-85 0 -115 55 -115 119c0 96 66 209 191 209c80 0 116 -49 116 -115zM266 568c0 33 -10 57 -34 57c-37 0 -63 -26 -90 -148c-9 -43 -11 -80 -11 -91c0 -34 10 -59 34 -59c43 0 63 31 90 148c7 31 11 80 11 93z" />
    <glyph glyph-name="zero.lc" horiz-adv-x="461" 
d="M417 293c0 -159 -103 -305 -273 -305c-121 0 -164 78 -164 170c0 138 93 300 272 300c112 0 165 -70 165 -165zM299 374c0 48 -17 67 -51 67c-53 0 -90 -42 -132 -217c-17 -69 -18 -134 -18 -150c0 -45 15 -69 51 -69c62 0 91 48 131 217c17 72 19 134 19 152z" />
    <glyph glyph-name="one.lc" horiz-adv-x="337" 
d="M248 407l-99 -368c-3 -9 -4 -20 11 -20h64l-5 -19c-40 0 -101 1 -141 1c-42 0 -102 -1 -143 -1l5 19h64c15 0 20 11 23 20l98 368c3 9 4 20 -11 20h-64l4 19c40 0 104 -1 144 -1c42 0 99 1 141 1l-5 -19h-63c-15 0 -21 -11 -23 -20z" />
    <glyph glyph-name="two.lc" horiz-adv-x="469" 
d="M-58 0l15 54c57 22 140 60 197 97c86 56 119 130 119 204c0 46 -19 80 -74 80c-50 0 -96 -23 -112 -48l7 -4c38 5 63 -22 63 -52c0 -46 -33 -72 -71 -72c-32 0 -64 23 -64 64c0 72 98 136 207 136c122 0 172 -51 172 -115c0 -117 -130 -174 -291 -237h219
c22 0 29 7 37 27l22 51h21l-66 -185h-401z" />
    <glyph glyph-name="three.lc" horiz-adv-x="448" 
d="M398 331c0 -103 -125 -171 -217 -185c88 -10 167 -50 167 -137c0 -145 -155 -228 -298 -228c-87 0 -150 46 -150 113c0 45 33 83 79 83c47 0 61 -35 61 -64c0 -39 -27 -67 -68 -71l-6 -5c10 -17 40 -38 95 -38c112 0 155 144 155 231c0 65 -24 103 -91 103
c-17 0 -48 -16 -72 -16c-12 0 -26 4 -26 20c0 19 20 29 36 29c21 0 50 -15 65 -15c95 0 138 103 138 210c0 41 -15 79 -69 79c-38 0 -78 -14 -99 -34l5 -6c44 5 62 -25 62 -52c0 -46 -32 -72 -71 -72c-35 0 -65 23 -65 64c0 76 106 119 195 119c102 0 174 -52 174 -128z" />
    <glyph glyph-name="four.lc" horiz-adv-x="478" 
d="M166 33l80 302c-94 -86 -185 -181 -297 -302h217zM287 33h55c9 0 20 2 24 17l16 56h18c-11 -40 -15 -52 -25 -92c-12 -42 -11 -44 -21 -78h-18l15 56c4 15 -7 17 -16 17h-55l-46 -175c-3 -9 -4 -20 11 -20h58l-5 -19c-40 0 -91 1 -131 1c-42 0 -98 -1 -140 -1l5 19h58
c15 0 20 11 23 20l46 175h-245l7 29c158 172 276 286 419 411h58z" />
    <glyph glyph-name="five.lc" horiz-adv-x="446" 
d="M55 -220c-85 0 -148 45 -148 112c0 46 33 84 79 84c44 0 61 -33 61 -64c0 -39 -27 -66 -68 -72l-6 -5c11 -17 35 -37 94 -37c106 0 159 154 159 264c0 55 -12 107 -81 107c-39 0 -94 -26 -130 -68l-20 8l99 332h261c54 0 61 22 72 40l15 -4l-46 -96
c-18 -38 -51 -57 -96 -57h-216l-59 -184c39 30 87 51 146 51c103 0 185 -59 185 -159c0 -143 -153 -252 -301 -252z" />
    <glyph glyph-name="six.lc" horiz-adv-x="492" 
d="M502 578c0 -51 -34 -81 -73 -81c-37 0 -64 23 -64 63c0 30 24 71 76 67l10 4c-13 19 -42 32 -85 32c-102 0 -173 -112 -223 -302c45 61 104 74 152 74c95 0 150 -76 150 -166c0 -164 -144 -282 -274 -282c-120 0 -178 92 -178 211c0 236 169 483 372 483
c87 0 137 -42 137 -103zM321 315c0 52 -14 95 -61 95c-56 0 -108 -53 -123 -102c-11 -37 -30 -123 -30 -192c0 -75 21 -111 68 -111c30 0 54 11 72 34c44 56 74 192 74 276z" />
    <glyph glyph-name="seven.lc" horiz-adv-x="427" 
d="M359 335h-270c-28 0 -37 -8 -49 -35l-24 -53h-20l74 199h398l-7 -25c-135 -153 -259 -281 -336 -387c-49 -68 -70 -108 -75 -152l7 -1c13 22 29 36 58 36c31 0 60 -21 60 -61c0 -45 -37 -77 -78 -77c-51 0 -80 30 -80 84c0 45 31 105 84 177c73 99 183 212 258 295z" />
    <glyph glyph-name="eight.lc" 
d="M485 538c0 -120 -121 -173 -190 -188c52 -10 144 -55 144 -148c0 -123 -132 -218 -266 -218c-108 0 -191 63 -191 157c0 132 132 195 209 209c-48 12 -124 50 -124 134c0 111 110 198 239 198c101 0 179 -59 179 -144zM361 587c0 55 -19 78 -58 78c-25 0 -49 -12 -65 -35
c-31 -43 -49 -133 -49 -190c0 -52 20 -82 58 -82c25 0 49 15 66 39c31 43 48 126 48 190zM312 246c0 61 -25 95 -70 95c-28 0 -54 -12 -77 -40c-37 -45 -57 -145 -57 -210c0 -72 29 -90 71 -90c28 0 56 14 75 37c35 43 58 128 58 208z" />
    <glyph glyph-name="nine.lc" horiz-adv-x="492" 
d="M108 145c0 -52 14 -94 66 -94c53 0 101 47 120 103c13 40 26 108 28 174c2 73 -19 113 -66 113c-30 0 -54 -11 -72 -34c-45 -56 -76 -184 -76 -262zM-76 -119c0 52 34 82 73 82c37 0 63 -23 63 -63c0 -30 -23 -72 -74 -67l-10 -4c13 -19 44 -32 85 -32
c102 0 174 112 224 302c-42 -57 -97 -74 -149 -74c-95 0 -151 67 -151 163c0 157 135 271 274 271c122 0 179 -92 179 -209c0 -232 -171 -471 -377 -471c-84 0 -137 38 -137 102z" />
    <glyph glyph-name="numbersign.lc" horiz-adv-x="519" 
d="M315 330h-111l-31 -107h110zM477 412l-26 -82h-110l-32 -107h120l-26 -81h-116l-43 -152h-27l43 152h-109l-43 -152h-27l43 152h-113l26 81h109l32 107h-119l25 82h117l45 155h26l-44 -155h109l45 155h26l-44 -155h113z" />
    <glyph glyph-name="percent.lc" horiz-adv-x="698" 
d="M349 487c-10 -97 -87 -196 -193 -196c-91 0 -127 76 -118 152c9 96 87 195 191 195c92 0 128 -78 120 -151zM602 625l-512 -625h-41l511 625h42zM159 304c46 0 66 64 86 161c9 40 16 77 16 107c0 32 -9 53 -34 53c-47 0 -67 -72 -85 -160c-10 -43 -17 -81 -17 -109
c0 -32 9 -52 34 -52zM613 185c-10 -97 -87 -196 -193 -196c-90 0 -127 76 -118 152c9 96 87 195 192 195c91 0 128 -78 119 -151zM423 2c46 0 65 64 86 161c9 40 16 78 16 107c0 32 -9 53 -34 53c-46 0 -66 -72 -86 -160c-9 -43 -16 -80 -16 -109c0 -32 9 -52 34 -52z" />
    <glyph glyph-name="perthousand.lc" horiz-adv-x="1032" 
d="M349 487c-10 -97 -87 -196 -193 -196c-91 0 -127 76 -118 152c9 96 87 195 191 195c92 0 128 -78 120 -151zM602 625l-512 -625h-41l511 625h42zM159 304c46 0 66 64 86 161c9 40 16 77 16 107c0 32 -9 53 -34 53c-47 0 -67 -72 -85 -160c-10 -43 -17 -81 -17 -109
c0 -32 9 -52 34 -52zM613 185c-10 -97 -87 -196 -193 -196c-90 0 -127 76 -118 152c9 96 87 195 192 195c91 0 128 -78 119 -151zM950 185c-9 -97 -86 -196 -192 -196c-91 0 -128 76 -119 152c9 96 87 195 192 195c91 0 128 -78 119 -151zM423 2c46 0 65 64 86 161
c9 40 16 78 16 107c0 32 -9 53 -34 53c-46 0 -66 -72 -86 -160c-9 -43 -16 -80 -16 -109c0 -32 9 -52 34 -52zM760 2c47 0 66 64 86 161c9 40 16 78 16 107c0 32 -9 53 -34 53c-46 0 -66 -72 -85 -160c-10 -43 -16 -80 -16 -109c0 -32 9 -52 33 -52z" />
    <glyph glyph-name="minute.lc" horiz-adv-x="224" 
d="M198 640c41 0 62 -31 33 -67l-164 -204h-18l81 222c12 34 38 49 68 49z" />
    <glyph glyph-name="second.lc" horiz-adv-x="373" 
d="M119 369l81 222c12 34 38 49 68 49h7h8c41 0 62 -31 33 -67l-164 -204h-33z" />
    <glyph glyph-name="plus.lc" 
d="M424 196h-176v-175h-61v175h-175v63h175v174h61v-174h176v-63z" />
    <glyph glyph-name="minus.lc" 
d="M417 196h-398v63h398v-63z" />
    <glyph glyph-name="divide.lc" 
d="M158 373c0 33 25 59 58 59s59 -26 59 -59s-26 -58 -59 -58s-58 25 -58 58zM12 260h412v-63h-412v63zM158 82c0 33 25 59 58 59s59 -26 59 -59s-26 -58 -59 -58s-58 25 -58 58z" />
    <glyph glyph-name="multiply.lc" 
d="M396 229l-89 -86h4l-90 -90l-89 86l-4 -1l-90 89l88 86h-4l90 91l90 -87l4 2z" />
    <glyph glyph-name="equal.lc" 
d="M417 271h-398v63h398v-63zM417 120h-398v63h398v-63z" />
    <glyph glyph-name="less.lc" 
d="M440 424v-26l-284 -165l284 -163v-29l-407 160v63z" />
    <glyph glyph-name="greater.lc" 
d="M-4 398v26l407 -160v-63l-407 -160v29l284 163z" />
    <glyph glyph-name="dollar.lc" horiz-adv-x="465" 
d="M254 366l62 241c-12 1 -42 -1 -53 -4l-56 -219c8 -4 30 -12 47 -18zM189 394l53 203c-60 -22 -93 -81 -93 -137c1 -28 14 -52 40 -66zM164 14l61 241l-46 16l-67 -259c10 -1 34 0 52 2zM242 249l-58 -231c67 20 111 88 110 156c0 35 -20 62 -52 75zM396 211
c-8 -111 -100 -189 -216 -210l-16 -62h-19l15 59c-14 -2 -37 -3 -52 -2l-14 -57h-20l14 58c-69 5 -124 42 -124 98c0 42 26 76 71 76c33 0 54 -23 54 -49c0 -29 -19 -58 -67 -67l-6 -5c3 -12 36 -32 76 -37l68 265c-56 18 -107 60 -108 130c-1 107 86 183 194 208l12 46h20
l-11 -41c12 2 40 3 52 2l10 39h19l-10 -40c80 -6 122 -46 121 -99c-2 -42 -34 -63 -67 -63s-57 19 -54 57c1 25 28 57 71 52l4 4c-9 14 -42 32 -78 34l-64 -247c67 -21 130 -69 125 -149z" />
    <glyph glyph-name="cent.lc" horiz-adv-x="420" 
d="M116 102c0 -30 7 -56 22 -68l104 397c-32 -8 -62 -39 -81 -87c-9 -25 -24 -73 -33 -122c-12 -65 -12 -98 -12 -120zM100 -108l28 106c-73 13 -126 61 -126 156c0 162 108 292 246 297l21 80h21l-22 -81c65 -4 117 -39 117 -94c0 -48 -34 -72 -69 -72c-36 0 -59 22 -59 55
c0 28 22 59 56 59c6 1 14 0 22 -2l1 4c-12 18 -45 33 -70 33h-3l-106 -409c5 -2 15 -4 23 -4c62 0 118 50 154 127l14 -10c-37 -82 -90 -142 -189 -142c-5 0 -6 0 -11 1l-27 -104h-21z" />
    <glyph glyph-name="sterling.lc" horiz-adv-x="463" 
d="M46 299l6 22h74c-19 39 -30 79 -30 115c0 125 106 205 234 205c76 0 135 -36 135 -101c0 -53 -27 -97 -79 -97c-35 0 -53 23 -52 54c1 35 28 58 63 58c20 0 33 -6 40 -19l7 1c5 50 -47 83 -103 83c-94 0 -126 -102 -128 -190c-1 -31 3 -75 6 -109h159l-6 -22h-151
c2 -57 -14 -107 -44 -159c90 -36 128 -76 155 -76c24 0 49 19 70 60l17 -6c-48 -87 -90 -129 -137 -129c-59 0 -94 36 -153 62c-39 -49 -75 -59 -109 -59c-37 0 -53 22 -53 48c0 66 75 111 139 111c14 0 32 -2 45 -5c6 17 9 35 9 60c-1 31 -11 57 -27 93h-87zM111 61
c-18 11 -39 21 -68 21c-27 0 -55 -17 -55 -47c0 -15 10 -28 36 -28c29 0 61 17 87 54z" />
    <glyph glyph-name="yen.lc" horiz-adv-x="550" 
d="M126 37l55 204h-174l6 23h174l3 13l-21 95h-127l6 22h115l-47 199c-2 9 -4 16 -16 16h-48l5 19c34 0 102 -1 135 -1c39 0 86 1 124 1l-5 -19h-53c-10 0 -16 -7 -14 -15l62 -279l197 253c19 24 21 41 0 41h-42l6 19c27 0 70 -1 97 -1c22 0 40 1 63 1l-6 -19h-24
c-24 -1 -42 -14 -60 -38l-141 -177h115l-5 -22h-127l-64 -81l-7 -27h169l-7 -23h-168l-55 -204c-2 -8 -3 -18 11 -18h59l-5 -19c-36 0 -98 1 -134 1c-38 0 -98 -1 -136 -1l6 19h57c14 0 19 10 21 18z" />
    <glyph glyph-name="Euro.lc" horiz-adv-x="521" 
d="M385 623c-77 0 -123 -85 -166 -242h184l-5 -23h-185c-6 -20 -16 -62 -21 -88h185l-6 -23h-184c-42 -191 -9 -243 48 -243c52 0 90 32 126 83c24 32 48 85 65 129h18l-52 -219h-19c0 16 -1 37 -12 37c-19 0 -56 -47 -130 -47c-124 0 -191 95 -173 260h-56l6 23h54
c5 27 13 59 22 88h-56l6 23h56c61 168 182 259 297 259c77 0 92 -47 108 -47c11 0 22 18 28 36h18l-49 -209h-19c8 98 -6 203 -88 203z" />
    <glyph glyph-name="florin.lc" horiz-adv-x="441" 
d="M-28 -220c-49 0 -88 24 -88 76c0 42 31 65 62 65c34 0 52 -23 52 -52c0 -27 -19 -56 -59 -56c-5 0 -10 0 -14 3l-3 -5c9 -10 26 -15 45 -15c67 0 93 102 123 238l59 269h-117l3 23h118c55 242 171 313 272 313c51 0 88 -29 88 -79c0 -45 -30 -69 -63 -69
c-29 0 -55 18 -54 53c2 36 28 59 59 59c9 0 14 -1 23 -4l2 3c-6 10 -22 22 -52 22c-62 0 -104 -70 -132 -206l-19 -92h117l-3 -23h-118c-82 -387 -185 -523 -301 -523z" />
    <glyph glyph-name="section.lc" horiz-adv-x="466" 
d="M167 379c-42 -23 -72 -49 -72 -92c0 -29 12 -51 39 -70c29 -21 93 -60 124 -83c43 30 64 62 64 94c0 21 -8 42 -32 61c-48 37 -83 53 -123 90zM156 390c-15 20 -27 45 -27 79c0 123 101 171 192 171c83 0 124 -46 124 -92c0 -45 -25 -76 -63 -76c-32 0 -52 20 -52 48
c0 31 23 52 53 52c15 0 27 -6 35 -16l5 4c-5 35 -44 64 -102 64c-57 0 -115 -34 -115 -99c0 -44 25 -66 66 -91c91 -55 126 -88 124 -151c-3 -72 -72 -127 -124 -160c29 -24 45 -59 45 -96c0 -121 -108 -177 -204 -177c-85 0 -131 40 -131 99c0 36 28 73 68 73
c29 0 52 -17 52 -51c0 -35 -25 -57 -52 -57c-19 0 -32 7 -37 13l-6 -3c7 -29 39 -58 106 -58c73 0 125 45 125 104c0 44 -17 73 -109 122c-78 43 -104 88 -104 135c0 90 75 136 131 163z" />
    <glyph glyph-name="paragraph.lc" horiz-adv-x="496" 
d="M452 575l-144 -536c-2 -9 -4 -19 10 -19h50l-5 -20h-132l159 593h-59l-159 -593h-125l5 20h44c14 0 18 10 21 19l72 269c-92 4 -141 48 -140 117c0 119 102 188 230 188h242l-6 -20h-43c-14 0 -18 -10 -20 -18z" />
    <glyph glyph-name="degree.lc" horiz-adv-x="295" 
d="M180 634c61 0 111 -50 111 -111s-49 -112 -112 -112c-62 0 -111 50 -111 112c0 63 51 111 112 111zM180 598c-42 0 -74 -33 -74 -75c-1 -43 31 -76 73 -76s73 34 73 76s-31 75 -72 75z" />
    </font>
</defs>
</svg>
